<?xml version="1.0" encoding="utf-8"?>
<!-- Generator: Adobe Illustrator 23.0.3, SVG Export Plug-In . SVG Version: 6.00 Build 0)  -->
<svg version="1.1" id="Layer_1" xmlns="http://www.w3.org/2000/svg" xmlns:xlink="http://www.w3.org/1999/xlink" x="0px" y="0px"
	 viewBox="0 0 50 50" style="enable-background:new 0 0 50 50;" xml:space="preserve">
<path style="fill:none;stroke:#000000;stroke-width:2;stroke-linecap:round;stroke-linejoin:round;stroke-miterlimit:10;" d="M8,14
	L4,49h42l-4-35H8z"/>
<path style="fill:none;" d="M0,0h50v50H0V0z"/>
<path style="fill:none;stroke:#000000;stroke-width:2;stroke-linecap:round;stroke-miterlimit:10;" d="M34,19c0-1.2,0-6.8,0-8
	c0-5-4-9-9-9s-9,4-9,9c0,1.2,0,6.8,0,8"/>
<path d="M34,17c-1.1,0-2,0.9-2,2s0.9,2,2,2s2-0.9,2-2S35.1,17,34,17z M16,17c-1.1,0-2,0.9-2,2s0.9,2,2,2s2-0.9,2-2S17.1,17,16,17z"
	/>
</svg>
