<?xml version="1.0" encoding="utf-8"?>
<!-- Generator: Adobe Illustrator 24.0.1, SVG Export Plug-In . SVG Version: 6.00 Build 0)  -->
<svg version="1.1" id="Layer_1" xmlns="http://www.w3.org/2000/svg" xmlns:xlink="http://www.w3.org/1999/xlink" x="0px" y="0px"
	 viewBox="0 0 50 50" style="enable-background:new 0 0 50 50;" xml:space="preserve">
<g>
	<path d="M27,47h-4c-0.6,0-1-0.5-1-1v-8.2H24V45H26v-7.1H28V46C28,46.6,27.6,47,27,47z"/>
</g>
<g>
	<path d="M34.3,21h-5.8c-0.6,0-1-0.4-1-1s0.4-1,1-1h5.8c0.6,0,1,0.4,1,1S34.8,21,34.3,21z M21.5,21h-5.8c-0.6,0-1-0.4-1-1s0.4-1,1-1
		h5.8c0.6,0,1,0.4,1,1S22.1,21,21.5,21z M34.3,17h-5.8c-0.6,0-1-0.4-1-1s0.4-1,1-1h5.8c0.6,0,1,0.4,1,1S34.8,17,34.3,17z M21.5,17
		h-5.8c-0.6,0-1-0.4-1-1s0.4-1,1-1h5.8c0.6,0,1,0.4,1,1S22.1,17,21.5,17z M34.3,13h-5.8c-0.6,0-1-0.4-1-1s0.4-1,1-1h5.8
		c0.6,0,1,0.4,1,1S34.8,13,34.3,13z M21.5,13h-5.8c-0.6,0-1-0.4-1-1s0.4-1,1-1h5.8c0.6,0,1,0.4,1,1S22.1,13,21.5,13z"/>
</g>
<g>
	<path d="M25,34c-6.1,0-11-4.8-11-10.8V10.7C14,4.8,18.9,0,25,0c6.1,0,11,4.8,11,10.8v12.5C36,29.2,31.1,34,25,34z M25,2
		c-4.9,0-9,3.9-9,8.7v12.5c0,4.8,4,8.7,9,8.7s9-3.9,9-8.7V10.7C34,5.9,29.9,2,25,2z"/>
</g>
<g>
	<path d="M25,38.9c-8.7,0-15.9-7.1-15.9-15.9v-5c0-0.5,0.4-0.9,0.9-0.9s0.9,0.4,0.9,0.9v5c0,7.8,6.3,14.1,14.1,14.1
		c7.8,0,14.1-6.3,14.1-14.1v-5c0-0.5,0.4-0.9,0.9-0.9s0.9,0.4,0.9,0.9v5C40.9,31.7,33.7,38.9,25,38.9z"/>
</g>
<g>
	<path d="M37.9,49.9H12v-1.5c0-1.9,1.6-3.5,3.5-3.5h18.9c1.9,0,3.5,1.5,3.5,3.5V49.9z M14.1,48h21.7c-0.2-0.6-0.8-1-1.4-1H15.5
		C14.8,47,14.3,47.4,14.1,48z"/>
</g>
</svg>
