<?xml version="1.0" encoding="utf-8"?>
<!-- Generator: Adobe Illustrator 23.0.3, SVG Export Plug-In . SVG Version: 6.00 Build 0)  -->
<svg version="1.1" id="Layer_1" xmlns="http://www.w3.org/2000/svg" xmlns:xlink="http://www.w3.org/1999/xlink" x="0px" y="0px"
	 viewBox="0 0 50 50" style="enable-background:new 0 0 50 50;" xml:space="preserve">
<g>
	<path d="M14,7H3C2.4,7,2,7.4,2,8s0.4,1,1,1h11V7z"/>
	<path d="M47,7H22v2h25c0.6,0,1-0.4,1-1S47.6,7,47,7z"/>
</g>
<g>
	<path d="M32,24H3c-0.6,0-1,0.4-1,1s0.4,1,1,1h29V24z"/>
	<path d="M47,24h-7v2h7c0.6,0,1-0.4,1-1S47.6,24,47,24z"/>
</g>
<g>
	<path d="M11,41H3c-0.6,0-1,0.4-1,1s0.4,1,1,1h8V41z"/>
	<path d="M47,41H19v2h28c0.6,0,1-0.4,1-1S47.6,41,47,41z"/>
</g>
<path style="fill:none;stroke:#000000;stroke-width:2;stroke-linecap:round;stroke-linejoin:round;stroke-miterlimit:10;" d="M38,22
	v6c0,1.1-0.9,2-2,2h-2c-1.1,0-2-0.9-2-2v-6c0-1.1,0.9-2,2-2h2C37.1,20,38,20.9,38,22z"/>
<path style="fill:none;stroke:#000000;stroke-width:2;stroke-linecap:round;stroke-linejoin:round;stroke-miterlimit:10;" d="M20,5
	v6c0,1.1-0.9,2-2,2h-2c-1.1,0-2-0.9-2-2V5c0-1.1,0.9-2,2-2h2C19.1,3,20,3.9,20,5z"/>
<path style="fill:none;stroke:#000000;stroke-width:2;stroke-linecap:round;stroke-linejoin:round;stroke-miterlimit:10;" d="M17,39
	v6c0,1.1-0.9,2-2,2h-2c-1.1,0-2-0.9-2-2v-6c0-1.1,0.9-2,2-2h2C16.1,37,17,37.9,17,39z"/>
</svg>
