<?xml version="1.0" encoding="utf-8"?>
<svg width="599px" height="344px" viewbox="0 0 599 344" version="1.1" xmlns:xlink="http://www.w3.org/1999/xlink" xmlns="http://www.w3.org/2000/svg">
  <g id="Шьфпу">
    <path d="M340.491 45.1118C302.091 45.4044 265.206 36.7401 229.933 27.0843C194.659 17.4284 159.673 6.58585 122.028 2.15889C97.8141 -0.702114 70.2574 -0.252374 51.2205 10.8286C32.9054 21.4815 27.4895 38.9401 24.8142 55.0549C22.8009 67.1816 21.8186 79.9044 28.9059 90.942C33.8279 98.5984 42.3044 104.884 48.2684 112.177C69.0309 137.558 56.1588 170.216 35.5699 196.441C25.9266 208.725 14.6391 220.549 7.29135 233.553C-0.0564021 246.558 -3.11706 261.247 4.14929 273.976C11.3559 286.595 27.7771 295.682 45.4356 301.854C81.3061 314.393 123.13 316.863 163.863 317.66C254.022 319.416 344.414 314.062 434.557 308.714C467.921 306.736 501.43 304.742 534.126 299.421C552.284 296.468 570.99 292.144 583.916 282.84C600.327 271.028 603.821 251.89 592.056 238.224C572.319 215.309 519.881 211.305 505.772 186.46C498.006 172.784 504.92 157 514.997 143.703C536.671 115.174 573.79 89.5169 574.664 57.7479C575.266 35.9382 556.213 14.7896 527.625 5.49672C497.648 -4.25669 456.655 -1.43362 435.458 17.2116C413.664 36.3771 374.408 44.8572 340.491 45.1118Z" transform="translate(0 26)" id="Path" fill="#5E81F4" fill-opacity="0.1" fill-rule="evenodd" stroke="none" />
    <path d="M0.76912 12.0755C0.708143 16.8449 0.489737 22.1883 0 27.8181L13.738 10.6881L13.8346 10.956C12.7101 7.08997 11.0463 3.40169 8.89242 0L9.00117 0.252103L0.76912 12.0755Z" transform="translate(448.6609 165.68945)" id="Path" fill="#57B894" fill-rule="evenodd" stroke="none" />
    <path d="M0.690334 19.4547L8.66466 8.00183C6.37207 4.54793 3.62642 1.87367 0.490515 0.242438C0.327379 0.15757 0.163688 0.0784524 0 0C0.121886 1.29107 0.786886 8.87348 0.690334 19.4547Z" transform="translate(448.74902 157.47363)" id="Path" fill="#57B894" fill-rule="evenodd" stroke="none" />
    <path d="M20.9342 5.97823C21.2719 3.98099 21.534 1.98825 21.7206 0L1.0034 16.2716L0.975432 16.1279C0.66385 17.3015 0.338706 18.4551 0 19.5887L20.8856 5.66182L20.9342 5.97823Z" transform="translate(443.18262 204.19727)" id="Path" fill="#57B894" fill-rule="evenodd" stroke="none" />
    <path d="M0 32.5768L18.5418 15.3924L18.6145 15.6897C18.376 10.3762 17.509 5.10959 16.0316 0L2.03172 17.4563C1.54866 22.7307 0.871421 27.7709 0 32.5768Z" transform="translate(446.54907 176.93457)" id="Path" fill="#57B894" fill-rule="evenodd" stroke="none" />
    <path d="M29.7154 24.9483L4.91317 0.301058L5.02081 0C3.00918 3.21028 1.32704 6.61558 0 10.164L28.2245 36.9321C28.8965 32.7483 29.3762 28.7071 29.7154 24.9483Z" transform="translate(418.51318 169.14648)" id="Path" fill="#57B894" fill-rule="evenodd" stroke="none" />
    <path d="M29.0091 30.2162C29.1988 29.1944 29.3768 28.179 29.5431 27.1701L1.21449 0.303234L1.31909 0C0.850577 1.25016 0.410879 2.54052 0 3.87106L0.10267 3.5669L29.0091 30.2162Z" transform="translate(417.0813 179.60742)" id="Path" fill="#57B894" fill-rule="evenodd" stroke="none" />
    <path d="M0 26.6688L20.5446 10.5328L20.6045 10.8409C20.929 7.23685 21.01 3.61498 20.8468 0L2.05428 17.4169C1.455 20.6182 0.770244 23.7022 0 26.6688Z" transform="translate(444.33398 192.97363)" id="Path" fill="#57B894" fill-rule="evenodd" stroke="none" />
    <path d="M0.657884 10.0795L23.888 37.0099C25.4642 33.4771 26.8271 29.853 27.9694 26.157L0.0119598 0C-0.0489866 3.4758 0.123052 6.95178 0.526918 10.4046L0.657884 10.0795Z" transform="translate(414.45483 198.64941)" id="Path" fill="#57B894" fill-rule="evenodd" stroke="none" />
    <path d="M14.5534 1.48456L14.742 1.38688C9.86536 -0.866752 4.76005 -0.299103 0 2.54718L15.2582 20.943C15.3598 9.49484 14.5651 1.59786 14.5534 1.48456Z" transform="translate(433.79956 155.98828)" id="Path" fill="#57B894" fill-rule="evenodd" stroke="none" />
    <path d="M3.69018 15.1429C2.63865 18.4697 1.40677 21.7368 0 24.9297L21.0763 12.4314L21.1163 12.7428C22.5932 9.88276 23.7018 6.8471 24.4156 3.70836C24.6906 2.47383 24.9351 1.23771 25.1492 0L4.01452 14.0927C3.90684 14.4434 3.80046 14.7961 3.69018 15.1429Z" transform="translate(438.90063 210.56836)" id="Path" fill="#57B894" fill-rule="evenodd" stroke="none" />
    <path d="M25.354 19.1059L9.74588 0.287803L9.86543 0C6.29402 2.19823 2.92451 5.6824 0 10.2198L24.6002 34.6664C25.0805 29.1002 25.2945 23.8197 25.354 19.1059Z" transform="translate(423.69434 158.67871)" id="Path" fill="#57B894" fill-rule="evenodd" stroke="none" />
    <path d="M28.1373 40.3677C29.4941 35.88 30.6082 31.3225 31.4748 26.7149L2.49731 0C1.94867 1.80512 1.45725 3.67815 1.02306 5.61908C0.42566 8.4006 0.0832224 11.2308 0 14.0745L28.1173 40.381L28.1373 40.3677Z" transform="translate(414.48682 183.79102)" id="Path" fill="#57B894" fill-rule="evenodd" stroke="none" />
    <path d="M10.6332 4.11929C7.54424 7.75371 3.96793 11.7299 0 15.7535L21.5066 11.3224L21.4101 11.5904C23.0098 7.89561 24.0809 3.99376 24.5916 0L24.5146 0.263577L10.6332 4.11929Z" transform="translate(461.83984 248.94238)" id="Path" fill="#57B894" fill-rule="evenodd" stroke="none" />
    <path d="M12.1 0.499603C12.0284 0.33018 11.9528 0.16484 11.8768 0C11.1472 1.07211 6.82326 7.33614 0 15.4241L13.4466 11.6894C13.8838 7.56696 13.4748 3.75605 12.1 0.499603Z" transform="translate(473.01367 236.99902)" id="Path" fill="#57B894" fill-rule="evenodd" stroke="none" />
    <path d="M2.95859 0C1.97007 0.705209 0.983872 1.38631 0 2.0433L24.9686 4.63814L24.8043 4.91285C26.3382 3.58994 27.8111 2.22235 29.223 0.810084L2.88849 0.1285L2.95859 0Z" transform="translate(438.30835 282.47852)" id="Path" fill="#57B894" fill-rule="evenodd" stroke="none" />
    <path d="M0 14.8652L25.2412 13.4561L25.1075 13.7315C28.3129 9.4869 31.0042 4.87764 33.1254 0L11.2089 4.51533C7.47271 8.26955 3.7364 11.7195 0 14.8652Z" transform="translate(450.00537 260.81055)" id="Path" fill="#57B894" fill-rule="evenodd" stroke="none" />
    <path d="M0 7.24362L26.115 7.91952L25.9647 8.19509C28.5133 5.62622 30.8857 2.88831 33.0657 0L7.48322 1.42813C4.97981 3.51152 2.48541 5.45002 0 7.24362Z" transform="translate(441.8379 274.8213)" id="Path" fill="#57B894" fill-rule="evenodd" stroke="none" />
    <path d="M29.1827 88.175C29.3564 87.9774 29.5321 87.7765 29.7132 87.5669C34.9657 86.4126 40.0599 84.6295 44.8858 82.2563L44.5091 63.5251C44.6916 63.0356 44.8675 62.5427 45.0366 62.0464L45.4376 81.9864C48.9049 80.2709 52.2661 78.3489 55.5032 76.2309L51.0752 41.5521C51.2548 41.4451 51.4379 41.335 51.6245 41.222L56.0468 75.8564L56.0708 75.8588C59.9781 73.2679 63.743 70.4683 67.3492 67.4724L62.7391 33.3635C62.917 33.2167 63.095 33.0686 63.2732 32.919L67.8835 67.029C68.6813 66.363 69.466 65.6945 70.2376 65.0236L66.0631 30.4664C66.24 30.3034 66.4165 30.1392 66.5928 29.9735L70.7705 64.5579C73.9566 61.7641 76.9037 58.9576 79.5622 56.279L76.1802 21.4767L76.4552 21.3135C75.503 21.6217 74.5387 21.9717 73.5666 22.3547C75.3076 20.117 76.8522 17.7333 78.1834 15.2301L56.9054 27.8479C55.5592 30.81 54.0189 33.68 52.2947 36.4392C51.9167 36.8393 51.5409 37.2452 51.1699 37.6618L51.2239 38.0851C51.0589 38.3307 50.8929 38.5745 50.7259 38.8165L50.654 38.2533C50.4423 38.4972 50.2329 38.7459 50.0237 38.9948C52.5412 35.4175 54.7163 31.6111 56.5199 27.6259L33.4599 0.892566C33.7497 3.3761 34.137 5.87065 34.5939 8.34064C32.4166 5.2278 29.83 2.42238 26.9038 0L27.0852 0.206126L22.9108 13.995C24.3271 18.5497 25.771 23.699 27.0454 29.2044L34.7083 8.95101C34.7664 9.25723 34.8255 9.56298 34.8857 9.86826L27.2423 30.0696C28.4132 35.2351 29.3271 40.2379 29.9838 45.0778L39.5687 27.9072C39.6428 28.142 39.7169 28.3752 39.7909 28.6067L30.1023 45.963C30.5219 49.1928 30.8239 52.3374 31.0084 55.3968L42.9128 37.6467C42.9942 37.8658 43.0744 38.0805 43.1534 38.2909L31.1231 56.2285L31.0521 56.1005C31.1185 57.313 31.1659 58.5106 31.1941 59.6934L44.7853 42.4834C44.8757 42.7067 44.9596 42.9126 45.037 43.1011L31.2105 60.6088C31.2165 60.9756 31.2243 61.3439 31.2266 61.7078C31.2549 65.1967 31.0932 68.6846 30.7422 72.156L32.0625 70.6545C31.8288 71.2211 31.6013 71.7797 31.38 72.3305L30.6292 73.1843C30.5696 73.7014 30.504 74.2134 30.4355 74.7229C30.1795 75.3834 29.9334 76.0277 29.6971 76.6559C29.8891 75.4752 30.0548 74.2873 30.1941 73.0922L0 54.7958C8.69734 73.7397 24.0301 91.3509 25.0111 92.4683C25.6706 91.0444 26.2655 89.5882 26.7959 88.0995C26.9761 88.0718 27.1561 88.042 27.3361 88.0125C27.2739 88.191 27.213 88.3709 27.1493 88.5481C27.0553 88.5635 26.9608 88.5811 26.8669 88.596C26.9448 88.613 27.0265 88.6308 27.112 88.6492C26.7345 89.692 26.3314 90.7108 25.9028 91.7056C26.5069 91.0958 27.412 90.1535 28.5082 88.9342C35.4439 90.2825 54.0511 92.9417 69.4769 86.5265L45.041 82.6732C40.004 85.1587 34.6768 87.0069 29.1827 88.175L29.1827 88.175ZM44.371 56.6574L44.9158 56.0379L44.9335 56.9177L44.3887 57.5372L44.371 56.6574Z" transform="translate(381.57007 208.59375)" id="Shape" fill="#57B894" stroke="none" />
    <path d="M11.8867 8.46402L12.0942 8.50902C9.77567 3.66291 5.48154 0.843873 0 0L0.018539 23.9002C7.39861 15.1477 11.8234 8.55872 11.8867 8.46402Z" transform="translate(472.69946 228.28223)" id="Path" fill="#57B894" fill-rule="evenodd" stroke="none" />
    <path d="M9.08437 0.601951C6.15258 2.49357 3.11996 4.22416 0 5.78603L24.2043 9.60272L24.0366 9.86804C26.9983 8.60727 29.7883 6.97634 32.34 5.01421C33.3391 4.23872 34.3158 3.44262 35.2702 2.62589L10.0039 0C9.69733 0.201439 9.39046 0.405211 9.08437 0.601951Z" transform="translate(427.54004 285.0254)" id="Path" fill="#57B894" fill-rule="evenodd" stroke="none" />
    <path d="M3.35445 36.3274C7.27454 32.3467 10.8073 28.4162 13.8598 24.8236L13.841 0.375023L14.1166 0.229641C9.96392 -0.355185 5.14645 0.179118 0 1.80853L3.35445 36.3274Z" transform="translate(458.30713 228.00977)" id="Path" fill="#57B894" fill-rule="evenodd" stroke="none" />
    <path d="M10.7137 4.93175C7.46579 2.3556 4.02799 0.660973 0.541445 0.0789521C0.36006 0.048669 0.179934 0.0240202 0 0C0.514998 1.19013 3.4911 8.1957 6.66996 18.2886L10.7137 4.93175Z" transform="translate(397.56104 203.50098)" id="Path" fill="#57B894" fill-rule="evenodd" stroke="none" />
    <path d="M32.83 16.0936L1.62393 0.319597L1.63324 0C0.712406 3.67486 0.165214 7.43334 0 11.2182L35.1163 27.9514C34.4621 23.7647 33.6692 19.7731 32.83 16.0936Z" transform="translate(375.55566 222.39648)" id="Path" fill="#57B894" fill-rule="evenodd" stroke="none" />
    <path d="M35.3061 17.1157L0.0601661 0.320721L0.0659535 0C0.0067495 1.33374 -0.0125956 2.69682 0.00791826 4.08924L0.0115455 3.76824L35.7397 20.1777C35.6043 19.1472 35.4598 18.1265 35.3061 17.1157Z" transform="translate(375.47412 233.93164)" id="Path" fill="#57B894" fill-rule="evenodd" stroke="none" />
    <path d="M34.6735 16.2346L0 0C1.0164 3.32444 2.25444 6.57703 3.70579 9.73591L3.72987 9.38631L34.1465 27.8176C34.5536 23.9706 34.7295 20.1026 34.6735 16.2346L34.6735 16.2346Z" transform="translate(377.68506 253.25781)" id="Path" fill="#57B894" fill-rule="evenodd" stroke="none" />
    <path d="M13.5123 0.262376L13.6614 0.111243C8.32701 -0.524727 3.64715 1.59319 0 5.77141L20.1971 18.5502C16.7551 7.63117 13.5585 0.366513 13.5123 0.262376Z" transform="translate(383.67188 203.36035)" id="Path" fill="#57B894" fill-rule="evenodd" stroke="none" />
    <path d="M26.8591 13.3828L6.19866 0.31065L6.22336 0C3.50635 3.19449 1.37874 7.54956 0 12.7687L30.9519 28.4143C29.6881 22.9723 28.2595 17.8842 26.8591 13.3828Z" transform="translate(377.26465 209.3418)" id="Path" fill="#57B894" fill-rule="evenodd" stroke="none" />
    <path d="M36.862 30.4657C36.7652 25.7783 36.416 21.0996 35.816 16.4499L0 0C0.0362049 1.8863 0.147805 3.8195 0.334799 5.79961C0.626431 8.62957 1.17558 11.427 1.97542 14.1572L36.8471 30.4845L36.862 30.4657Z" transform="translate(375.48608 238.34766)" id="Path" fill="#57B894" fill-rule="evenodd" stroke="none" />
    <path d="M105.49 128.694L1.46725 115.581C-3.24747 76.3632 3.87552 38.0756 16.0366 0L120.06 13.1125C104.363 50.4664 99.7555 89.0205 105.49 128.694Z" transform="translate(277.67212 57.083984)" id="Path" fill="#F2F2F2" fill-rule="evenodd" stroke="none" />
    <path d="M-5.69081e-14 0L64.0728 0L64.0728 6.88385L-5.69081e-14 6.88385L-5.69081e-14 0Z" transform="matrix(0.99214876 0.12506345 -0.12506345 0.99214876 308.24243 70.924805)" id="Rectangle" fill="#5E81F4" fill-rule="evenodd" stroke="none" />
    <path d="M-7.71316e-14 -4.89127e-13L86.8425 -4.89127e-13L86.8425 3.44193L-7.71316e-14 3.44193L-7.71316e-14 -4.89127e-13Z" transform="matrix(0.99214876 0.12506345 -0.12506345 0.99214876 293.54736 85.884766)" id="Rectangle" fill="#5E81F4" fill-opacity="0.3" fill-rule="evenodd" stroke="none" />
    <path d="M-3.85658e-14 -4.89127e-13L86.8425 -4.89127e-13L86.8425 3.44193L-3.85658e-14 3.44193L-3.85658e-14 -4.89127e-13Z" transform="matrix(0.99214876 0.12506345 -0.12506345 0.99214876 292.15674 96.91699)" id="Rectangle" fill="#5E81F4" fill-opacity="0.3" fill-rule="evenodd" stroke="none" />
    <path d="M-7.71316e-14 4.64671e-13L86.8425 4.64671e-13L86.8425 3.44193L-7.71316e-14 3.44193L-7.71316e-14 4.64671e-13Z" transform="matrix(0.99214876 0.12506345 -0.12506345 0.99214876 290.7661 107.950195)" id="Rectangle" fill="#5E81F4" fill-opacity="0.3" fill-rule="evenodd" stroke="none" />
    <path d="M0 0L86.8425 0L86.8425 3.44193L0 3.44193L0 0Z" transform="matrix(0.99214876 0.12506345 -0.12506345 0.99214876 289.37524 118.98242)" id="Rectangle" fill="#5E81F4" fill-opacity="0.3" fill-rule="evenodd" stroke="none" />
    <path d="M-3.85658e-14 4.89127e-13L86.8425 4.89127e-13L86.8425 3.44193L-3.85658e-14 3.44193L-3.85658e-14 4.89127e-13Z" transform="matrix(0.99214876 0.12506345 -0.12506345 0.99214876 287.98462 130.01562)" id="Rectangle" fill="#5E81F4" fill-opacity="0.3" fill-rule="evenodd" stroke="none" />
    <path d="M-1.15697e-13 0L86.8425 0L86.8425 3.44193L-1.15697e-13 3.44193L-1.15697e-13 0Z" transform="matrix(0.99214876 0.12506345 -0.12506345 0.99214876 286.594 141.04785)" id="Rectangle" fill="#5E81F4" fill-opacity="0.3" fill-rule="evenodd" stroke="none" />
    <path d="M0 -2.44564e-14L86.8425 -2.44564e-14L86.8425 3.44193L0 3.44193L0 -2.44564e-14Z" transform="matrix(0.99214876 0.12506345 -0.12506345 0.99214876 285.20312 152.08105)" id="Rectangle" fill="#5E81F4" fill-opacity="0.3" fill-rule="evenodd" stroke="none" />
    <path d="M97.32 147.141L0 108.133C5.36235 68.9985 21.9417 33.7593 43.3416 0L140.662 39.0074C116.024 71.1739 101.811 107.307 97.32 147.141Z" transform="translate(236.58203 0)" id="Path" fill="#E6E6E6" fill-rule="evenodd" stroke="none" />
    <path d="M0 -4.64671e-13L64.0728 -4.64671e-13L64.0728 6.88385L0 6.88385L0 -4.64671e-13Z" transform="matrix(0.92821527 0.37204364 -0.37204364 0.92821527 290.48218 17.067383)" id="Rectangle" fill="#5E81F4" fill-rule="evenodd" stroke="none" />
    <path d="M-3.85658e-14 6.11409e-15L86.8425 1.22282e-14L86.8425 3.44193L-3.85658e-14 3.44193L-3.85658e-14 6.11409e-15Z" transform="matrix(0.92821527 0.37204364 -0.37204364 0.92821527 272.47998 27.822266)" id="Rectangle" fill="#5E81F4" fill-opacity="0.3" fill-rule="evenodd" stroke="none" />
    <path d="M3.85658e-14 1.22282e-14L86.8425 6.11409e-15L86.8425 3.44193L3.85658e-14 3.44193L3.85658e-14 1.22282e-14Z" transform="matrix(0.92821527 0.37204364 -0.37204364 0.92821527 268.34302 38.14453)" id="Rectangle" fill="#5E81F4" fill-opacity="0.3" fill-rule="evenodd" stroke="none" />
    <path d="M1.92829e-13 0L86.8425 6.11409e-15L86.8425 3.44193L1.92829e-13 3.44193L1.92829e-13 0Z" transform="matrix(0.92821527 0.37204364 -0.37204364 0.92821527 264.2058 48.46582)" id="Rectangle" fill="#5E81F4" fill-opacity="0.3" fill-rule="evenodd" stroke="none" />
    <path d="M0 0L86.8425 7.64261e-15L86.8425 3.44193L0 3.44193L0 0Z" transform="matrix(0.92821527 0.37204364 -0.37204364 0.92821527 260.0686 58.788086)" id="Rectangle" fill="#5E81F4" fill-opacity="0.3" fill-rule="evenodd" stroke="none" />
    <path d="M3.85658e-14 -3.05704e-15L86.8425 6.11409e-15L86.8425 3.44193L3.85658e-14 3.44193L3.85658e-14 -3.05704e-15Z" transform="matrix(0.92821527 0.37204364 -0.37204364 0.92821527 255.9314 69.109375)" id="Rectangle" fill="#5E81F4" fill-opacity="0.3" fill-rule="evenodd" stroke="none" />
    <path d="M0 -4.76899e-13L86.8425 -4.83013e-13L86.8425 3.44193L0 3.44193L0 -4.76899e-13Z" transform="matrix(0.92821527 0.37204364 -0.37204364 0.92821527 251.79443 79.43164)" id="Rectangle" fill="#5E81F4" fill-opacity="0.3" fill-rule="evenodd" stroke="none" />
    <path d="M-3.85658e-14 0L86.8425 6.11409e-15L86.8425 3.44193L-3.85658e-14 3.44193L-3.85658e-14 0Z" transform="matrix(0.92821527 0.37204364 -0.37204364 0.92821527 247.65723 89.75293)" id="Rectangle" fill="#5E81F4" fill-opacity="0.3" fill-rule="evenodd" stroke="none" />
    <path d="M111.207 116.496L6.36091 116.496C-3.22156 78.1754 -0.942858 39.2976 6.36091 0L111.207 0C100.305 39.0238 100.556 77.8514 111.207 116.496Z" transform="translate(198.6272 40.039062)" id="Path" fill="#F2F2F2" fill-rule="evenodd" stroke="none" />
    <path d="M0 0L64.0728 0L64.0728 6.88385L0 6.88385L0 0Z" transform="translate(221.13867 51.9541)" id="Rectangle" fill="#5E81F4" fill-rule="evenodd" stroke="none" />
    <path d="M0 0L86.8425 0L86.8425 3.44193L0 3.44193L0 0Z" transform="translate(208.42993 68.63379)" id="Rectangle" fill="#5E81F4" fill-opacity="0.3" fill-rule="evenodd" stroke="none" />
    <path d="M0 0L86.8425 0L86.8425 3.44193L0 3.44193L0 0Z" transform="translate(208.42993 79.75391)" id="Rectangle" fill="#5E81F4" fill-opacity="0.3" fill-rule="evenodd" stroke="none" />
    <path d="M0 0L86.8425 0L86.8425 3.44193L0 3.44193L0 0Z" transform="translate(208.42993 90.87402)" id="Rectangle" fill="#5E81F4" fill-opacity="0.3" fill-rule="evenodd" stroke="none" />
    <path d="M0 0L86.8425 0L86.8425 3.44193L0 3.44193L0 0Z" transform="translate(208.42993 101.99414)" id="Rectangle" fill="#5E81F4" fill-opacity="0.3" fill-rule="evenodd" stroke="none" />
    <path d="M0 0L86.8425 0L86.8425 3.44193L0 3.44193L0 0Z" transform="translate(208.42993 113.11426)" id="Rectangle" fill="#5E81F4" fill-opacity="0.3" fill-rule="evenodd" stroke="none" />
    <path d="M0 0L86.8425 0L86.8425 3.44193L0 3.44193L0 0Z" transform="translate(208.42993 124.234375)" id="Rectangle" fill="#5E81F4" fill-opacity="0.3" fill-rule="evenodd" stroke="none" />
    <path d="M0 0L86.8425 0L86.8425 3.44193L0 3.44193L0 0Z" transform="translate(208.42993 135.35449)" id="Rectangle" fill="#5E81F4" fill-opacity="0.3" fill-rule="evenodd" stroke="none" />
    <path d="M63.3138 30.1494L27.193 2.06795C26.4574 0.788648 25.0942 5.45406e-07 23.6185 0L4.12329 0C1.84606 2.29092e-14 0 1.84606 0 4.12329L0 176.19C0 183.577 5.98791 189.565 13.3744 189.565L213.5 189.565C217.047 189.565 220.449 188.156 222.957 185.647C225.465 183.139 226.875 179.737 226.875 176.19L226.875 42.3057C226.875 35.592 221.432 30.1494 214.718 30.1494L63.3138 30.1494Z" transform="translate(175.84863 103.12891)" id="Path" fill="#3F3D56" fill-rule="evenodd" stroke="none" />
    <path d="M0 0L36.2999 0L36.2999 12.705L0 12.705L0 0Z" transform="translate(359.61694 173.18262)" id="Rectangle" fill="#5E81F4" fill-rule="evenodd" stroke="none" />
    <path d="M0 42.1987C0 42.1987 166.021 -52.7483 366.499 42.1987" transform="translate(112 276.63672)" id="Path" fill="#E3E8F5" fill-rule="evenodd" stroke="none" />
    <path d="M2.31638 1.50793C2.31638 1.50793 4.09822 10.9517 2.85094 11.6644C1.84351 12.2976 0.889967 13.0128 0 13.8026L3.20731 18.2572L10.8692 19.8609L18.1747 13.0899L18.1747 6.3189C18.1747 6.3189 16.0365 2.9334 16.3929 0.7952C16.7493 -1.343 2.31638 1.50793 2.31638 1.50793Z" transform="translate(145.24097 99.44336)" id="Path" fill="#FBBEBE" fill-rule="evenodd" stroke="none" />
    <path d="M2.31638 1.50793C2.31638 1.50793 4.09822 10.9517 2.85094 11.6644C1.84351 12.2976 0.889967 13.0128 0 13.8026L3.20731 18.2572L10.8692 19.8609L18.1747 13.0899L18.1747 6.3189C18.1747 6.3189 16.0365 2.9334 16.3929 0.7952C16.7493 -1.343 2.31638 1.50793 2.31638 1.50793Z" transform="translate(145.24097 99.44336)" id="Path" fill="#000000" fill-opacity="0.1" fill-rule="evenodd" stroke="none" />
    <path d="M7.43159 0L6.36249 0.534553C6.36249 0.534553 4.0461 1.42547 2.977 9.08737C1.9079 16.7493 -0.586676 35.1022 0.126062 35.6367C0.838799 36.1713 0.482426 39.735 0.482426 39.735L5.82794 11.7601L7.43159 0Z" transform="translate(127.831055 117.166016)" id="Path" fill="#2F2E41" fill-rule="evenodd" stroke="none" />
    <path d="M7.72437 1.68161C7.56137 2.02176 7.50422 2.4189 7.3513 2.76541C6.65684 4.33899 4.67989 3.98688 3.25396 4.58208C2.04635 5.08615 1.14505 6.47032 1.05056 7.96598C1.01044 8.60097 1.10354 9.2414 1.04647 9.87461C0.941036 11.0443 0.337953 12.0743 0.123295 13.2234C-0.398144 16.0147 0.818541 20.4228 2.19234 18.9164C2.62557 18.4414 3.16783 18.1265 3.63577 17.6989C4.85107 16.5883 5.47001 14.8226 6.45718 13.4367C6.58205 13.2333 6.75394 13.063 6.95837 12.9399C7.6797 12.5815 8.32185 13.5408 8.89207 14.1697C9.47918 14.8108 10.3135 15.1686 11.1827 15.152C12.0518 15.1354 12.8719 14.746 13.4341 14.083C13.6082 13.8298 13.8247 13.6086 14.074 13.4292C14.3523 13.3011 14.6655 13.2704 14.9633 13.3419C16.3694 13.5894 17.636 14.3436 18.5237 15.4618C18.9998 16.0446 19.398 16.7302 19.9688 17.182C20.5395 17.6338 21.3722 17.7826 21.8861 17.2456C22.9206 17.977 23.3065 19.5295 23.3092 20.9433C23.3119 22.3572 23.0223 23.7618 23.093 25.1733C23.1636 26.5847 23.7177 28.1079 24.8425 28.6258C25.0196 27.3405 25.6866 26.1735 26.7042 25.3687C27.4702 24.7985 28.4012 24.516 29.0491 23.7719C30.3461 22.282 29.9351 19.8039 29.9849 17.6784C30.0464 15.0568 30.9549 12.5506 31.1154 9.93476C31.1956 8.62753 31.0606 7.22597 30.3725 6.19154C29.8518 5.50224 29.1916 4.93038 28.4352 4.51319L22.3192 0.589495C22.0477 0.388808 21.7397 0.242724 21.4125 0.159341C20.5122 -0.00220283 19.734 0.842178 18.8804 1.21427C18.1686 1.46672 17.4097 1.55876 16.6582 1.48382C14.2839 1.41949 13.6156 1.88059 12.0197 0.333692C11.7679 0.079198 11.41 -0.0402224 11.0558 0.0120803C10.1013 0.163387 8.24653 0.591901 7.72437 1.68161Z" transform="translate(140.20874 71.99707)" id="Path" fill="#2F2E41" fill-rule="evenodd" stroke="none" />
    <path d="M7.30559 0L11.0473 8.19627L3.74166 10.691L0 8.73108L0.891083 0L7.30559 0L7.30559 0Z" transform="translate(143.99365 288.93457)" id="Path" fill="#FBBEBE" fill-rule="evenodd" stroke="none" />
    <path d="M23.4436 2.5812C23.4436 2.5812 17.5635 -0.982468 16.4944 0.264814C15.4253 1.5121 6.87251 10.5995 6.87251 10.5995C6.87251 10.5995 -6.31308 17.7268 3.84339 18.7959C13.9999 19.865 30.5709 12.5595 30.5709 12.5595C30.5709 12.5595 31.4619 2.93757 30.7491 2.75939C30.0364 2.5812 27.0073 4.36304 25.5818 3.82849C24.7946 3.55609 24.0682 3.13238 23.4436 2.5812L23.4436 2.5812Z" transform="translate(124.46997 293.30273)" id="Path" fill="#2F2E41" fill-rule="evenodd" stroke="none" />
    <path d="M9.62176 2.31657L9.62176 9.62176L0 7.48373L2.13804 0L9.62176 2.31657L9.62176 2.31657Z" transform="translate(151.29907 295.3496)" id="Path" fill="#FBBEBE" fill-rule="evenodd" stroke="none" />
    <path d="M2.86635 0.256584C2.86635 0.256584 12.6665 -1.34707 13.5574 3.46389C14.4483 8.27485 16.7647 15.4022 14.4483 17.184C12.1319 18.9659 0.193598 21.2823 0.0154139 18.2531C-0.16277 15.224 1.2627 9.34395 1.2627 9.34395C1.2627 9.34395 2.15362 4.71118 1.61907 3.46389C1.08451 2.2166 2.86635 0.256584 2.86635 0.256584Z" transform="translate(148.25464 299.9043)" id="Path" fill="#2F2E41" fill-rule="evenodd" stroke="none" />
    <path d="M4.04751 0.0350573C4.04751 0.0350573 -3.99682 51.0413 2.59598 75.987C9.18877 100.933 13.8215 115.722 13.8215 115.722C13.8215 115.722 25.2253 112.515 25.2253 110.376C25.2253 108.238 20.7707 76.5216 19.7016 73.4925C18.6325 70.4633 16.8507 69.3942 18.4543 66.8997C20.058 64.4051 22.7307 48.3686 22.7307 48.3686C22.7307 48.3686 28.6108 74.9179 28.9672 75.6307C29.3235 76.3434 25.2253 117.147 25.2253 117.147C25.2253 117.147 36.9873 125.683 37.6982 119.286C37.8763 117.682 45.7164 60.8414 45.7164 60.1287C45.7164 59.416 48.9237 4.89177 43.7564 2.21902C38.5891 -0.453741 4.04751 0.0350573 4.04751 0.0350573Z" transform="translate(127.49927 179.80566)" id="Path" fill="#2F2E41" fill-rule="evenodd" stroke="none" />
    <path d="M12.1165 24.233C18.8082 24.233 24.233 18.8082 24.233 12.1165C24.233 5.42474 18.8082 0 12.1165 0C5.42474 0 0 5.42474 0 12.1165C0 18.8082 5.42474 24.233 12.1165 24.233Z" transform="translate(142.3899 80.28223)" id="Oval" fill="#FBBEBE" fill-rule="evenodd" stroke="none" />
    <path d="M20.6693 11.9929L20.6693 10.7457L17.1056 4.8656C17.1056 4.8656 13.542 5.22196 13.0074 6.82562C12.4729 8.42927 6.41461 21.2585 6.41461 21.2585L0 78.8118C0 78.8118 17.6402 83.0882 20.3129 80.0591C22.9857 77.03 33.1422 11.102 33.1422 11.102L34.5676 3.08376C34.5676 3.08376 32.12 -0.479916 31.562 0.0546416C31.004 0.589199 21.7384 10.9238 21.7384 10.9238L21.5602 12.5275L20.6693 11.9929Z" transform="translate(131.1643 104.45996)" id="Path" fill="#5E81F4" fill-rule="evenodd" stroke="none" />
    <path d="M24.6249 0.16237C24.6249 0.16237 21.3285 -0.639456 20.2594 1.32056C19.1903 3.28058 19.1903 3.99332 18.1212 4.70606C17.0521 5.41879 10.8157 8.6261 10.4593 9.87338C10.103 11.1207 2.44106 50.4993 2.44106 50.4993C2.44106 50.4993 -1.30079 62.2594 0.481043 70.2777C2.26288 78.2959 1.0156 79.8996 4.75745 80.6123C8.49931 81.3251 9.03386 81.3251 9.03386 80.256C9.03386 79.1869 13.8448 43.0156 17.2303 40.521C20.6158 38.0264 19.7249 10.7643 19.7249 10.7643C19.7249 10.7643 24.5358 4.88426 24.5358 3.99333C24.5358 3.10241 25.3377 0.0955403 24.6249 0.16237Z" transform="translate(123.55591 108.00488)" id="Path" fill="#2F2E41" fill-rule="evenodd" stroke="none" />
    <path d="M14.4706 8.38516C14.9677 8.46801 21.7761 -0.345845 22.3107 0.0105233C22.8453 0.366892 25.518 4.99967 25.8744 4.99967C26.2307 4.99967 41.3764 8.74152 42.6236 15.6907C43.8709 22.6399 33.8926 44.7346 33.8926 44.7346C33.8926 44.7346 29.6162 57.3857 30.5071 62.9094C31.1116 67.1158 30.9911 71.3947 30.1508 75.5604C29.7944 76.9859 28.5471 78.5895 28.9035 79.3023C29.2599 80.015 21.0634 78.4113 17.6779 80.3714C14.2924 82.3314 -0.853178 83.7569 0.03774 81.6187C0.928658 79.4804 1.46323 71.1058 3.95778 62.1966C6.45233 53.2875 12.867 32.2618 11.7979 30.8363C10.7288 29.4108 13.4015 8.20697 14.4706 8.38516Z" transform="translate(143.77759 106.28613)" id="Path" fill="#2F2E41" fill-rule="evenodd" stroke="none" />
    <path d="M12.9768 0L15.2932 2.1382C15.2932 2.1382 17.966 6.77098 17.6096 8.90918C17.2532 11.0474 25.0933 43.2986 21.886 44.3677C18.6787 45.4368 11.0168 50.7823 10.1259 52.2078C9.23496 53.6333 7.09677 56.1279 5.6713 56.8406C4.24582 57.5533 2.82036 58.8006 1.92944 58.0879C1.03851 57.3751 -0.921503 42.7641 0.503968 42.2295C1.92944 41.695 3.35491 40.0913 4.78038 40.0913C6.20585 40.0913 7.09676 38.6659 7.09676 37.4186C7.09676 36.1713 6.02766 28.6876 6.02766 28.6876L3.71127 11.0474L12.9768 0Z" transform="translate(171.28613 119.83887)" id="Path" fill="#2F2E41" fill-rule="evenodd" stroke="none" />
    <path d="M6.82992 1.27215C6.6858 1.52928 6.63526 1.82951 6.50005 2.09146C5.88601 3.28101 4.13799 3.01483 2.87717 3.46478C1.78972 3.87167 1.03215 4.86637 0.928915 6.02286C0.893449 6.50288 0.975758 6.98702 0.925288 7.4657C0.832069 8.34991 0.298809 9.12857 0.109018 9.9972C-0.35204 12.1073 0.723756 15.4397 1.93848 14.3009C2.32153 13.9418 2.80101 13.7038 3.21476 13.3805C4.28933 12.541 4.83661 11.2061 5.70947 10.1585C5.82547 10.0001 5.97734 9.87137 6.15263 9.78293C6.79043 9.51197 7.35823 10.2372 7.86242 10.7126C9.01837 11.7279 10.7563 11.6996 11.8785 10.6471C12.0375 10.4512 12.2289 10.2841 12.4443 10.1528C12.6946 10.0556 12.9676 10.0327 13.2306 10.0868C14.4303 10.252 15.5393 10.8166 16.3787 11.6894C16.7574 12.1669 17.1857 12.6027 17.6565 12.9898C18.1611 13.3313 18.8974 13.4438 19.3518 13.0379C20.2665 13.5908 20.6077 14.7644 20.6101 15.8332C20.6125 16.902 20.3564 17.9639 20.4189 19.0308C20.4814 20.0978 20.9713 21.2493 21.9658 21.6408C22.1505 20.6278 22.7464 19.7365 23.6119 19.1786C24.2893 18.7476 25.1125 18.534 25.6853 17.9715C26.8322 16.8452 26.4688 14.9718 26.5128 13.3651C26.5671 11.3833 27.3704 9.48865 27.5124 7.51122C27.5833 6.52301 27.4639 5.46349 26.8555 4.68151C26.3765 4.14671 25.7937 3.71503 25.1425 3.41275L19.7348 0.446603C19.4885 0.292403 19.2172 0.182361 18.933 0.121428C18.137 -0.000687483 17.4488 0.637624 16.6942 0.918909C16.058 1.11045 15.3912 1.1796 14.7292 1.12268C12.6299 1.07405 12.039 1.42262 10.6279 0.253229C10.3902 0.0566233 10.0812 -0.0315389 9.77555 0.0101135C8.93158 0.124431 7.29162 0.448364 6.82992 1.27215Z" transform="translate(143.24072 74.17969)" id="Path" fill="#2F2E41" fill-rule="evenodd" stroke="none" />
  </g>
</svg>