<?xml version="1.0" encoding="utf-8"?>
<svg width="261px" height="211px" viewbox="0 0 261 211" version="1.1" xmlns:xlink="http://www.w3.org/1999/xlink" xmlns="http://www.w3.org/2000/svg">
  <g id="Group-4-Copy" transform="translate(0.5 0.5)">
    <path d="M3.999 0L256.001 0Q256.197 0 256.393 0.0192563Q256.589 0.0385126 256.781 0.0768396Q256.974 0.115167 257.162 0.172196Q257.35 0.229224 257.531 0.304406Q257.713 0.379587 257.886 0.472197Q258.059 0.564807 258.223 0.673953Q258.386 0.783099 258.538 0.907731Q258.69 1.03236 258.829 1.17128Q258.968 1.3102 259.092 1.46206Q259.217 1.61393 259.326 1.77727Q259.435 1.94062 259.528 2.11388Q259.62 2.28715 259.696 2.46865Q259.771 2.65015 259.828 2.83815Q259.885 3.02615 259.923 3.21883Q259.961 3.41152 259.981 3.60703Q260 3.80254 260 3.999L260 176.001Q260 176.197 259.981 176.393Q259.961 176.588 259.923 176.781Q259.885 176.974 259.828 177.162Q259.771 177.35 259.696 177.531Q259.62 177.713 259.528 177.886Q259.435 178.059 259.326 178.223Q259.217 178.386 259.092 178.538Q258.968 178.69 258.829 178.829Q258.69 178.968 258.538 179.092Q258.386 179.217 258.223 179.326Q258.059 179.435 257.886 179.528Q257.713 179.62 257.531 179.696Q257.35 179.771 257.162 179.828Q256.974 179.885 256.781 179.923Q256.588 179.961 256.393 179.981Q256.197 180 256.001 180L3.999 180Q3.80254 180 3.60703 179.981Q3.41152 179.961 3.21883 179.923Q3.02615 179.885 2.83815 179.828Q2.65015 179.771 2.46865 179.696Q2.28715 179.62 2.11388 179.528Q1.94062 179.435 1.77727 179.326Q1.61393 179.217 1.46206 179.092Q1.3102 178.968 1.17128 178.829Q1.03236 178.69 0.907731 178.538Q0.783099 178.386 0.673953 178.223Q0.564807 178.059 0.472197 177.886Q0.379587 177.713 0.304406 177.531Q0.229224 177.35 0.172196 177.162Q0.115167 176.974 0.0768396 176.781Q0.0385126 176.588 0.0192563 176.393Q0 176.197 0 176.001L0 3.999Q0 3.80254 0.0192563 3.60703Q0.0385126 3.41152 0.0768396 3.21883Q0.115167 3.02615 0.172196 2.83815Q0.229224 2.65015 0.304406 2.46865Q0.379587 2.28715 0.472197 2.11388Q0.564807 1.94062 0.673953 1.77727Q0.783099 1.61393 0.907731 1.46206Q1.03236 1.3102 1.17128 1.17128Q1.3102 1.03236 1.46206 0.907731Q1.61393 0.783099 1.77727 0.673953Q1.94062 0.564807 2.11388 0.472197Q2.28715 0.379587 2.46865 0.304406Q2.65015 0.229224 2.83815 0.172196Q3.02615 0.115167 3.21883 0.0768396Q3.41152 0.0385126 3.60703 0.0192563Q3.80254 0 3.999 0L3.999 0Z" transform="translate(0 29.93219)" id="Rectangle" fill="#FFFFFF" fill-rule="evenodd" stroke="#444444" stroke-width="1" />
    <path d="M2.24197 16.6441C-0.0904933 13.0339 -0.643373 8.57627 0.773381 4.52542L0.773381 4.52542C3.15767 6.9322 6.69956 7.83051 9.965 6.88136C13.2304 5.9322 15.7011 3.28814 16.375 0L16.375 0C17.0488 3.28814 19.5195 5.9322 22.7849 6.88136C26.0503 7.83051 29.5922 6.9322 31.9765 4.52542L31.9765 4.52542C33.376 8.57627 32.8404 13.0339 30.4907 16.6441L30.4907 16.6441C21.3509 13.8136 11.399 13.8136 2.24197 16.6441" transform="translate(10.142334 174)" id="Path" fill="#444444" fill-rule="evenodd" stroke="none" />
    <path d="M26.2272 1.89407C17.7094 -0.631356 8.5178 -0.631356 0 1.89407C8.5178 4.41949 17.7267 4.41949 26.2272 1.89407" transform="translate(13.403687 190.13983)" id="Path" fill="#444444" fill-rule="evenodd" stroke="none" />
    <path d="M0.838926 8.68732C0.268456 8.3831 0 7.97746 0 7.47042C0 7.2507 0.0503356 7.03099 0.151007 6.79437C0.251678 6.55775 0.402685 6.37183 0.587248 6.20282C0.922819 6.67606 1.30872 7.04789 1.74497 7.31831C2.18121 7.58873 2.70134 7.72394 3.30537 7.72394C3.79195 7.72394 4.17785 7.63944 4.49664 7.48732C4.79866 7.33521 4.94966 7.09859 4.94966 6.79437C4.94966 6.57465 4.83221 6.38873 4.58054 6.23662C4.32886 6.10141 3.94295 5.93239 3.38926 5.74648C2.78523 5.54366 2.29866 5.34085 1.91275 5.13803C1.52685 4.93521 1.19128 4.66479 0.90604 4.30986C0.620805 3.95493 0.469799 3.49859 0.469799 2.95775C0.469799 2.31549 0.671141 1.75775 1.07383 1.31831C1.47651 0.878873 2.0302 0.540845 2.71812 0.321127C3.40604 0.101408 4.17785 0 5.01678 0C5.63758 0 6.19128 0.0676056 6.66107 0.202817C7.13087 0.338028 7.5 0.523944 7.7349 0.760563C7.98658 0.997183 8.10403 1.28451 8.10403 1.58873C8.10403 1.99437 7.95302 2.33239 7.66779 2.56901C7.38255 2.80563 7.0302 2.92394 6.61074 2.92394C6.20805 2.92394 5.8557 2.80563 5.53691 2.58592C5.21812 2.3662 4.96644 2.02817 4.78188 1.60563C4.2953 1.65634 3.87584 1.77465 3.55705 1.96056C3.23826 2.14648 3.07047 2.3831 3.07047 2.65352C3.07047 2.89014 3.2047 3.09296 3.45638 3.22817C3.70805 3.36338 4.12752 3.53239 4.68121 3.70141C5.28523 3.90423 5.77181 4.09014 6.15772 4.25915C6.54362 4.44507 6.86242 4.69859 7.14765 5.03662C7.43289 5.37465 7.56711 5.79718 7.56711 6.33803C7.56711 6.94648 7.36577 7.45352 6.96309 7.85915C6.5604 8.28169 6.04027 8.58591 5.40268 8.78873C4.7651 8.99155 4.11074 9.09296 3.4396 9.09296C2.2651 9.14366 1.39262 8.99155 0.838926 8.68732Z" transform="translate(51 182.65897)" id="Path" fill="#444444" fill-rule="evenodd" stroke="none" />
    <path d="M7.5 7.03099C7.04698 7.43662 6.5604 7.62254 6.05705 7.62254C5.62081 7.62254 5.28523 7.52113 5.06711 7.33521C4.83221 7.13239 4.69799 6.84507 4.64765 6.43944L4.5302 6.37183C4.19463 6.77746 3.80872 7.08169 3.37248 7.30141C2.93624 7.52113 2.44966 7.62254 1.91275 7.62254C1.27517 7.62254 0.788591 7.45352 0.469799 7.13239C0.151007 6.81127 0 6.32113 0 5.64507C0 5.34085 0.0167785 5.01972 0.0671141 4.68169C0.11745 4.34366 0.184564 3.93803 0.285235 3.46479C0.352349 3.14366 0.402685 2.82254 0.45302 2.50141C0.503356 2.18028 0.520134 1.90986 0.520134 1.70704C0.520134 1.47042 0.503356 1.2507 0.45302 1.06479C0.402685 0.861972 0.352349 0.709859 0.268456 0.608451C0.604027 0.439437 0.939597 0.304225 1.30872 0.185915C1.66107 0.0676056 1.96309 0.0169014 2.16443 0.0169014C2.5 0.0169014 2.7349 0.084507 2.88591 0.219718C3.03691 0.35493 3.10403 0.574648 3.10403 0.878873C3.10403 1.08169 3.07047 1.38592 2.98658 1.80845C2.90268 2.23099 2.81879 2.67042 2.7349 3.10986C2.65101 3.53239 2.56711 3.93803 2.48322 4.34366C2.39933 4.7493 2.36577 5.03662 2.36577 5.20563C2.36577 5.52676 2.43289 5.74648 2.56711 5.89859C2.70134 6.0507 2.90268 6.11831 3.18792 6.11831C3.45638 6.11831 3.72483 6.0338 4.01007 5.86479C4.2953 5.69577 4.5302 5.47606 4.74832 5.18873C4.86577 4.47887 5.08389 3.39718 5.41946 1.92676L4.74832 0.912676C5.30201 0.574648 5.75503 0.338028 6.12416 0.202817C6.47651 0.0676056 6.81208 0 7.13087 0C7.44966 0 7.68456 0.0676056 7.81879 0.202817C7.95302 0.338028 8.03691 0.574648 8.03691 0.895775C8.03691 0.997183 8.00336 1.2 7.95302 1.47042C7.88591 1.75775 7.81879 2.06197 7.75168 2.3831C7.56711 3.16056 7.41611 3.81972 7.31544 4.39437C7.21477 4.96901 7.14765 5.45915 7.14765 5.88169C7.11409 6.43944 7.24832 6.81127 7.5 7.03099Z" transform="translate(60.110718 184.18008)" id="Path" fill="#444444" fill-rule="evenodd" stroke="none" />
    <path d="M0.318792 9.29577C0.100671 9.00845 0 8.56901 0 7.97746C0 7.65634 0.0671141 7.08169 0.201342 6.27042C0.33557 5.45916 0.503356 4.39437 0.738255 3.10986C0.771812 2.83944 0.822148 2.60282 0.855705 2.4C0.889262 2.19718 0.922819 2.01127 0.956376 1.85915L0.285235 0.878873C0.654362 0.608451 1.02349 0.388732 1.42617 0.23662C1.82886 0.0676056 2.19799 0 2.55034 0C2.93624 0 3.18792 0.0676056 3.3557 0.202817C3.50671 0.338028 3.5906 0.557746 3.5906 0.861972C3.5906 1.06479 3.55705 1.35211 3.50671 1.67324C3.4396 2.01127 3.3557 2.46761 3.22148 3.04225C3.00336 4.00563 2.83557 4.8507 2.70134 5.61127C2.58389 6.35493 2.51678 7.09859 2.51678 7.82535C2.51678 8.19718 2.55034 8.46761 2.60067 8.63662C2.66779 8.80563 2.75168 8.97465 2.88591 9.14366C2.66779 9.34648 2.43289 9.48169 2.14765 9.5831C1.87919 9.68451 1.62752 9.73521 1.37584 9.73521C0.872483 9.71831 0.520134 9.5831 0.318792 9.29577Z" transform="translate(69.45642 182.08432)" id="Path" fill="#444444" fill-rule="evenodd" stroke="none" />
    <path d="M4.91611 1.85915C5.03356 1.94366 5.08389 2.12958 5.08389 2.3831C5.08389 2.60282 5.01678 2.89014 4.88255 3.21127C4.54698 3.09296 4.16107 3.04225 3.74161 3.04225L3.54027 3.04225C3.3557 3.70141 3.2047 4.34366 3.08725 4.96901C2.9698 5.59437 2.90268 6.21972 2.88591 6.84507L3.55705 7.99437C3.28859 8.24789 3.00336 8.4338 2.68456 8.56901C2.36577 8.70422 2.06376 8.77183 1.76174 8.77183C1.3255 8.77183 0.989933 8.67042 0.738255 8.4507C0.486577 8.23099 0.369128 7.82535 0.369128 7.2338C0.369128 6.84507 0.419463 6.40563 0.520134 5.93239C0.620805 5.44225 0.755034 4.8338 0.922819 4.09014L1.12416 3.31268C1.05705 3.31268 0.956376 3.32958 0.822148 3.32958C0.503356 3.32958 0.285235 3.27887 0.167785 3.19437C0.0503356 3.10986 0 2.94085 0 2.68732C0 2.4507 0.0671141 2.16338 0.201342 1.85915C0.536913 1.96056 0.90604 2.01127 1.30872 2.01127C1.29195 1.65634 1.19128 1.28451 1.02349 0.878873C1.3255 0.608451 1.67785 0.388732 2.04698 0.23662C2.41611 0.0676056 2.80201 0 3.18792 0C3.52349 0 3.75839 0.0676056 3.89262 0.219718C4.02685 0.371831 4.11074 0.608451 4.11074 0.929577C4.11074 1.09859 4.0604 1.36901 3.95973 1.77465C4.02685 1.77465 4.12752 1.75775 4.26174 1.75775C4.58054 1.72394 4.79866 1.75775 4.91611 1.85915Z" transform="translate(74.070435 183.0477)" id="Path" fill="#444444" fill-rule="evenodd" stroke="none" />
    <path d="M7.61745 7.01408C7.13087 7.41972 6.61074 7.60563 6.05705 7.60563C5.65436 7.60563 5.33557 7.48732 5.10067 7.2507C4.88255 7.01408 4.7651 6.67606 4.7651 6.25352C4.7651 6.11831 4.78188 5.9662 4.79866 5.81408L4.68121 5.74648C4.46309 6.33803 4.12752 6.79437 3.69128 7.11549C3.25503 7.43662 2.78523 7.60563 2.2651 7.60563C1.81208 7.60563 1.4094 7.48732 1.07383 7.2507C0.738255 7.01408 0.469799 6.67606 0.285235 6.25352C0.100671 5.81408 0 5.32394 0 4.7493C0 3.81972 0.201342 2.99155 0.604027 2.26479C1.00671 1.53803 1.57718 0.997183 2.31544 0.591549C3.03691 0.185915 3.87584 0 4.81544 0C5.15101 0 5.4698 0.0338028 5.77181 0.101408C5.83893 0.253521 5.87248 0.456338 5.90604 0.726761C6.24161 0.456338 6.62752 0.321127 7.09732 0.321127C7.38255 0.321127 7.60067 0.405634 7.75168 0.574648C7.90268 0.743662 7.98658 0.980282 7.98658 1.28451C7.98658 1.45352 7.95302 1.69014 7.90268 1.99437C7.85235 2.29859 7.78523 2.61972 7.70134 2.97465C7.55034 3.6338 7.43289 4.19155 7.34899 4.64789C7.2651 5.10423 7.23154 5.52676 7.23154 5.93239C7.24832 6.42254 7.36577 6.79437 7.61745 7.01408ZM4.78188 4.44507C5.13423 3.73521 5.38591 2.63662 5.53691 1.13239C4.94966 1.1831 4.42953 1.36901 3.95973 1.65634C3.48993 1.96056 3.10403 2.33239 2.83557 2.78873C2.55034 3.24507 2.41611 3.73521 2.41611 4.25915C2.41611 4.66479 2.5 4.96901 2.66779 5.17183C2.83557 5.39155 3.07047 5.49296 3.3557 5.49296C3.95973 5.50986 4.42953 5.15493 4.78188 4.44507Z" transform="translate(79.32214 184.19699)" id="Shape" fill="#444444" stroke="none" />
    <path d="M0.33557 7.2338C0.11745 6.98028 0 6.60845 0 6.10141C0 5.78028 0.0838926 5.15493 0.251678 4.20845C0.419463 3.27887 0.587248 2.4169 0.771812 1.65634L0.151007 0.676056C0.956376 0.219718 1.69463 0 2.38255 0C2.71812 0 2.95302 0.084507 3.12081 0.23662C3.28859 0.405634 3.37248 0.625352 3.37248 0.912676C3.37248 1.11549 3.33893 1.33521 3.28859 1.55493C3.23826 1.77465 3.17114 1.97746 3.08725 2.16338L3.2047 2.23099C4.0604 0.743662 5.16779 0 6.49329 0C6.97987 0 7.34899 0.11831 7.60067 0.35493C7.83557 0.591549 7.9698 0.96338 7.9698 1.47042C7.9698 1.74085 7.93624 2.02817 7.88591 2.33239C7.83557 2.63662 7.75168 3.04225 7.63423 3.53239C7.5 4.07324 7.41611 4.51268 7.34899 4.86761C7.28188 5.20563 7.2651 5.56056 7.2651 5.89859C7.2651 6.40563 7.34899 6.77746 7.51678 7.01408C7.09732 7.41972 6.6443 7.60563 6.19128 7.60563C5.7047 7.60563 5.33557 7.48732 5.11745 7.2338C4.89933 6.98028 4.78188 6.60845 4.78188 6.10141C4.78188 5.76338 4.81544 5.42535 4.88255 5.08732C4.94966 4.73239 5.06711 4.34366 5.20134 3.88732C5.30201 3.51549 5.38591 3.22817 5.43624 3.00845C5.48658 2.78873 5.50336 2.60282 5.50336 2.4338C5.50336 2.09577 5.36913 1.92676 5.10067 1.92676C4.79866 1.92676 4.42953 2.09577 4.02685 2.4507C3.62416 2.80563 3.27181 3.27887 2.9698 3.90423C2.66779 4.51268 2.53356 5.18873 2.53356 5.91549C2.53356 6.42253 2.61745 6.79437 2.78523 7.03099C2.36577 7.43662 1.91275 7.62254 1.45973 7.62254C0.922819 7.60563 0.57047 7.48732 0.33557 7.2338Z" transform="translate(88.53357 184.19699)" id="Path" fill="#444444" fill-rule="evenodd" stroke="none" />
    <path d="M7.46644 5.10423C7.83557 5.49296 8.00336 5.9662 8.00336 6.54084C8.00336 7.06479 7.83557 7.52113 7.48322 7.90986C7.13087 8.29859 6.62752 8.60282 5.98993 8.80563C5.35235 9.00845 4.59732 9.12676 3.72483 9.12676C2.41611 9.12676 1.45973 8.97465 0.872483 8.65352C0.285235 8.3493 0 7.82535 0 7.13239C0 6.77746 0.0503356 6.27042 0.151007 5.59437C0.251678 4.91831 0.436242 3.78592 0.704698 2.19718L0.0671141 0.895775C0.973154 0.304225 1.81208 0 2.55034 0C3.05369 0 3.3557 0.23662 3.4396 0.726761C4.26175 0.253521 5.08389 0.0169014 5.87248 0.0169014C6.51007 0.0169014 7.0302 0.185915 7.39933 0.507042C7.76846 0.828169 7.95302 1.28451 7.95302 1.85915C7.95302 2.4338 7.78523 2.92394 7.43289 3.34648C7.09732 3.76901 6.59396 4.10704 5.92282 4.36056C6.61074 4.46197 7.11409 4.71549 7.46644 5.10423ZM4.96644 7.36901C5.25168 7.11549 5.38591 6.79437 5.38591 6.37183C5.38591 5.9831 5.25168 5.67887 5 5.45916C4.74832 5.23944 4.37919 5.13803 3.9094 5.13803C3.52349 5.13803 3.15436 5.20563 2.76846 5.34085C2.66779 6.13521 2.58389 6.84507 2.53356 7.47042C2.71812 7.55493 2.93624 7.62253 3.17114 7.67324C3.40604 7.72394 3.64094 7.74084 3.85906 7.74084C4.32886 7.74084 4.68121 7.62253 4.96644 7.36901ZM2.93624 4.20845C3.6745 4.15775 4.26174 3.98873 4.69799 3.68451C5.13423 3.38028 5.35235 2.99155 5.35235 2.51831C5.35235 1.90986 5.01678 1.60563 4.32886 1.60563C3.95973 1.60563 3.64094 1.65634 3.3557 1.77465C3.23826 2.28169 3.10403 3.09296 2.93624 4.20845Z" transform="translate(101.41943 182.67587)" id="Shape" fill="#444444" stroke="none" />
    <path d="M7.61745 7.01408C7.13087 7.41972 6.61074 7.60563 6.05705 7.60563C5.65436 7.60563 5.33557 7.48732 5.10067 7.2507C4.88255 7.01408 4.7651 6.67606 4.7651 6.25352C4.7651 6.11831 4.78188 5.9662 4.79866 5.81408L4.68121 5.74648C4.46309 6.33803 4.12752 6.79437 3.69128 7.11549C3.25503 7.43662 2.78523 7.60563 2.2651 7.60563C1.81208 7.60563 1.4094 7.48732 1.07383 7.2507C0.738255 7.01408 0.469799 6.67606 0.285235 6.25352C0.100671 5.81408 0 5.32394 0 4.7493C0 3.81972 0.201342 2.99155 0.604027 2.26479C1.00671 1.53803 1.57718 0.997183 2.31544 0.591549C3.03691 0.185915 3.87584 0 4.81544 0C5.15101 0 5.4698 0.0338028 5.77181 0.101408C5.83893 0.253521 5.87248 0.456338 5.90604 0.726761C6.24161 0.456338 6.62752 0.321127 7.09732 0.321127C7.38255 0.321127 7.60067 0.405634 7.75168 0.574648C7.90268 0.743662 7.98658 0.980282 7.98658 1.28451C7.98658 1.45352 7.95302 1.69014 7.90268 1.99437C7.85235 2.29859 7.78523 2.61972 7.70134 2.97465C7.55034 3.6338 7.43289 4.19155 7.34899 4.64789C7.2651 5.10423 7.23154 5.52676 7.23154 5.93239C7.24832 6.42254 7.36577 6.79437 7.61745 7.01408ZM4.78188 4.44507C5.13423 3.73521 5.38591 2.63662 5.53691 1.13239C4.94966 1.1831 4.42953 1.36901 3.95973 1.65634C3.48993 1.96056 3.10403 2.33239 2.83557 2.78873C2.55034 3.24507 2.41611 3.73521 2.41611 4.25915C2.41611 4.66479 2.5 4.96901 2.66779 5.17183C2.83557 5.39155 3.07047 5.49296 3.3557 5.49296C3.94295 5.50986 4.42953 5.15493 4.78188 4.44507Z" transform="translate(110.647705 184.19699)" id="Shape" fill="#444444" stroke="none" />
    <path d="M6.92953 7.87606C7.19799 8.16338 7.55034 8.4 7.9698 8.56901C7.5 9.32958 6.87919 9.71831 6.12416 9.71831C5.7047 9.71831 5.35235 9.5831 5.05034 9.31268C4.74832 9.04225 4.42953 8.60282 4.09396 7.97746L3.48993 6.84507L2.51678 7.35211C2.51678 7.45352 2.5 7.60563 2.5 7.80845C2.5 8.18028 2.53356 8.4507 2.58389 8.61972C2.65101 8.78873 2.7349 8.95775 2.86913 9.12676C2.65101 9.32958 2.41611 9.46479 2.13087 9.5662C1.86242 9.66761 1.61074 9.71831 1.35906 9.71831C0.872483 9.71831 0.520134 9.5831 0.318792 9.29577C0.100671 9.00845 0 8.56901 0 7.97746C0 7.65634 0.0671141 7.08169 0.201342 6.27042C0.33557 5.45915 0.503356 4.39437 0.738255 3.10986C0.771812 2.83944 0.822148 2.60282 0.855705 2.4C0.889262 2.19718 0.922819 2.01127 0.956376 1.85915L0.285235 0.878873C0.654362 0.608451 1.02349 0.388732 1.42617 0.23662C1.82886 0.0676056 2.19799 0 2.55034 0C2.93624 0 3.18792 0.0676056 3.3557 0.202817C3.50671 0.338028 3.5906 0.557746 3.5906 0.861972C3.5906 1.08169 3.55705 1.35211 3.50671 1.67324C3.4396 1.99437 3.3557 2.4507 3.22148 3.04225C2.95302 4.15775 2.76846 5.13803 2.65101 5.9831L2.98658 5.69577C3.50671 5.27324 3.9094 4.93521 4.17785 4.69859C4.44631 4.44507 4.66443 4.19155 4.83221 3.93803C5 3.68451 5.08389 3.41408 5.08389 3.12676C5.08389 2.92394 5.05034 2.73803 4.96644 2.53521C5.52013 2.26479 6.02349 2.12958 6.47651 2.12958C6.84564 2.12958 7.14765 2.23099 7.36577 2.4507C7.58389 2.67042 7.70134 2.94085 7.70134 3.29577C7.70134 3.71831 7.53356 4.12394 7.21477 4.51268C6.89597 4.90141 6.35906 5.29014 5.65436 5.71268L6.27517 6.86197C6.44295 7.2507 6.66107 7.58873 6.92953 7.87606Z" transform="translate(120.026855 182.08432)" id="Path" fill="#444444" fill-rule="evenodd" stroke="none" />
    <path d="M6.51007 3.22817C6.12416 3.6338 5.58725 3.95493 4.88255 4.15775C4.17785 4.37746 3.33893 4.47887 2.38255 4.47887L2.38255 4.58028C2.38255 5.13803 2.48322 5.56056 2.66779 5.88169C2.85235 6.18592 3.12081 6.35493 3.45638 6.35493C3.85906 6.35493 4.21141 6.20282 4.46309 5.89859C4.73154 5.59437 4.86577 5.18873 4.88255 4.69859C5.36913 4.69859 5.73826 4.7831 5.98993 4.96901C6.24161 5.15493 6.37584 5.40845 6.37584 5.74648C6.37584 6.08451 6.24161 6.40563 5.95638 6.67606C5.67114 6.96338 5.28523 7.1831 4.79866 7.35211C4.31208 7.52113 3.77517 7.60563 3.18792 7.60563C2.18121 7.60563 1.39262 7.33521 0.838926 6.79437C0.268456 6.25352 0 5.50986 0 4.56338C0 3.70141 0.201342 2.90704 0.620805 2.21408C1.02349 1.52113 1.59396 0.980282 2.33221 0.591549C3.05369 0.202817 3.87584 0 4.7651 0C5.50336 0 6.07383 0.152113 6.49329 0.456338C6.89597 0.760563 7.09732 1.2 7.09732 1.75775C7.08054 2.33239 6.89597 2.82254 6.51007 3.22817ZM3.23826 2.04507C2.90268 2.4507 2.65101 2.95775 2.5 3.5831C3.30537 3.51549 3.9094 3.34648 4.34564 3.07606C4.78188 2.80563 5 2.46761 5 2.02817C5 1.84225 4.93289 1.70704 4.81544 1.58873C4.69799 1.48732 4.5302 1.41972 4.34564 1.41972C3.94295 1.43662 3.57383 1.63944 3.23826 2.04507Z" transform="translate(128.53357 184.18008)" id="Shape" fill="#444444" stroke="none" />
    <path d="M0.33557 7.2507C0.11745 6.99718 0 6.62535 0 6.11831C0 5.83099 0.0838926 5.22254 0.234899 4.30986C0.385906 3.39718 0.57047 2.51831 0.755034 1.67324L0.11745 0.692958C0.419463 0.490141 0.721476 0.321127 1.00671 0.185915C1.29195 0.0676056 1.57718 0 1.86242 0C2.19799 0 2.43289 0.084507 2.60067 0.23662C2.76846 0.405634 2.85235 0.625352 2.85235 0.912676C2.85235 1.1662 2.81879 1.41972 2.75168 1.65634C2.68456 1.89296 2.58389 2.19718 2.46644 2.53521L2.58389 2.60282C2.78523 2.01127 2.98658 1.53803 3.18792 1.1662C3.38926 0.811268 3.60738 0.523944 3.87584 0.321127C4.1443 0.11831 4.46309 0.0169014 4.84899 0.0169014C5.21812 0.0169014 5.52013 0.11831 5.73826 0.338028C5.95638 0.557746 6.05705 0.84507 6.05705 1.2C6.05705 1.62254 5.92282 1.97746 5.65436 2.26479C5.38591 2.53521 5 2.67042 4.51342 2.67042C4.12752 2.67042 3.79195 2.80563 3.47315 3.09296C3.15436 3.38028 2.91946 3.76901 2.7349 4.25915C2.55034 4.7493 2.46644 5.29014 2.46644 5.89859C2.46644 6.40563 2.55034 6.77746 2.71812 7.01408C2.29866 7.41972 1.84564 7.60563 1.39262 7.60563C0.922819 7.62253 0.553691 7.50423 0.33557 7.2507Z" transform="translate(136.67114 184.18008)" id="Path" fill="#444444" fill-rule="evenodd" stroke="none" />
    <path d="M9.07718 1.13239C9.07718 2.09577 8.77517 3.27887 8.18792 4.66479C7.58389 6.0507 6.76174 7.2507 5.7047 8.26479C4.64765 9.27887 3.4396 9.78592 2.09732 9.78592C1.4094 9.78592 0.889262 9.66761 0.536913 9.41408C0.184564 9.17746 0 8.82254 0 8.3493C0 8.12958 0.0671141 7.89296 0.184564 7.67324C0.302013 7.45352 0.436242 7.28451 0.587248 7.1662C0.721476 7.38592 0.922819 7.57183 1.1745 7.72394C1.42617 7.87606 1.74497 7.94366 2.13087 7.94366C2.56711 7.94366 3.02013 7.80845 3.48993 7.53803C3.02013 7.41972 2.68456 7.1662 2.44966 6.79437C2.21477 6.42254 2.09732 6 2.04698 5.52676C1.99664 5.05352 1.96309 4.44507 1.96309 3.70141C1.96309 3.10986 1.94631 2.65352 1.91275 2.29859C1.89597 1.94366 1.82886 1.62254 1.74497 1.30141C1.66107 0.980282 1.49329 0.726761 1.29195 0.540845C1.71141 0.185915 2.19799 0.0169014 2.7349 0.0169014C3.2047 0.0169014 3.55705 0.152113 3.79195 0.422535C4.02685 0.692958 4.19463 1.03099 4.26174 1.45352C4.34564 1.87606 4.37919 2.4 4.37919 3.00845L4.36242 4.27606C4.36242 4.8338 4.39597 5.27324 4.46309 5.62817C4.5302 5.9831 4.66443 6.25352 4.84899 6.42254C5.38591 5.81408 5.82215 5.05352 6.15772 4.17465C6.49329 3.29577 6.66107 2.31549 6.66107 1.2338C6.66107 1.01408 6.6443 0.777465 6.59396 0.523944C6.76174 0.371831 6.96309 0.23662 7.21477 0.152113C7.46644 0.0676056 7.70134 0 7.93624 0C8.69127 0.0676056 9.07718 0.422535 9.07718 1.13239Z" transform="translate(141.80542 184.1294)" id="Path" fill="#444444" fill-rule="evenodd" stroke="none" />
    <path d="M3.999 0L256.001 0Q256.197 0 256.393 0.0192563Q256.589 0.0385126 256.781 0.0768396Q256.974 0.115167 257.162 0.172196Q257.35 0.229224 257.531 0.304406Q257.713 0.379587 257.886 0.472197Q258.059 0.564807 258.223 0.673953Q258.386 0.783099 258.538 0.907731Q258.69 1.03236 258.829 1.17128Q258.968 1.3102 259.092 1.46206Q259.217 1.61393 259.326 1.77727Q259.435 1.94062 259.528 2.11388Q259.62 2.28715 259.696 2.46865Q259.771 2.65015 259.828 2.83815Q259.885 3.02615 259.923 3.21883Q259.961 3.41152 259.981 3.60703Q260 3.80254 260 3.999L260 40L0 40L0 3.999Q0 3.80254 0.0192563 3.60703Q0.0385126 3.41152 0.0768396 3.21883Q0.115167 3.02615 0.172196 2.83815Q0.229224 2.65015 0.304406 2.46865Q0.379587 2.28715 0.472197 2.11388Q0.564807 1.94062 0.673953 1.77727Q0.783099 1.61393 0.907731 1.46206Q1.03236 1.3102 1.17128 1.17128Q1.3102 1.03236 1.46206 0.907731Q1.61393 0.783099 1.77727 0.673953Q1.94062 0.564807 2.11388 0.472197Q2.28715 0.379587 2.46865 0.304406Q2.65015 0.229224 2.83815 0.172196Q3.02615 0.115167 3.21883 0.0768396Q3.41152 0.0385126 3.60703 0.0192563Q3.80254 0 3.999 0L3.999 0Z" transform="translate(0 29.93219)" id="Rectangle" fill="#444444" fill-rule="evenodd" stroke="none" />
    <g id="" fill="#252532" transform="translate(170 172.93219)">
      <path d="M16.9326 20.1025L16.9326 2.35449L29.501 2.35449L29.501 20.1025L16.9326 20.1025ZM33.7158 20.1025L33.7158 2.35449L46.2842 2.35449L46.2842 20.1025L33.7158 20.1025ZM50.499 2.35449L50.499 20.1025L63.0674 20.1025L63.0674 2.35449L50.499 2.35449ZM18.8115 18.2236L27.6221 18.2236L27.6221 4.2334L18.8115 4.2334L18.8115 18.2236ZM35.5947 18.2236L44.4053 18.2236L44.4053 4.2334L35.5947 4.2334L35.5947 18.2236ZM61.1885 18.2236L52.3779 18.2236L52.3779 4.2334L61.1885 4.2334L61.1885 18.2236Z" />
    </g>
    <g id="5682394579330" fill="#3F3F3F" transform="translate(170 194.93219)">
      <path d="M20.652 7.816Q21.008 7.93 21.436 7.93Q21.864 7.93 22.22 7.816Q22.576 7.702 22.83 7.49Q23.084 7.278 23.226 6.976Q23.368 6.674 23.368 6.298Q23.368 5.746 23.08 5.388Q22.792 5.03 22.256 4.878Q22.704 4.71 22.936 4.376Q23.168 4.042 23.168 3.578Q23.168 3.262 23.044 2.986Q22.92 2.71 22.692 2.506Q22.464 2.302 22.144 2.186Q21.824 2.07 21.436 2.07Q21.044 2.07 20.726 2.186Q20.408 2.302 20.18 2.506Q19.952 2.71 19.828 2.986Q19.704 3.262 19.704 3.578Q19.704 4.042 19.934 4.376Q20.164 4.71 20.616 4.878Q20.08 5.03 19.792 5.388Q19.504 5.746 19.504 6.298Q19.504 6.674 19.644 6.976Q19.784 7.278 20.04 7.49Q20.296 7.702 20.652 7.816ZM26.164 2.07Q26.528 2.07 26.844 2.178Q27.16 2.286 27.39 2.492Q27.62 2.698 27.752 2.994Q27.884 3.29 27.884 3.666Q27.884 3.986 27.788 4.258Q27.692 4.53 27.528 4.78Q27.364 5.03 27.15 5.264Q26.936 5.498 26.696 5.742L25.188 7.286Q25.348 7.242 25.512 7.216Q25.676 7.19 25.828 7.19L27.748 7.19Q27.864 7.19 27.932 7.258Q28 7.326 28 7.434L28 7.866L24.176 7.866L24.176 7.622Q24.176 7.546 24.206 7.466Q24.236 7.386 24.304 7.318L26.14 5.474Q26.368 5.242 26.556 5.028Q26.744 4.814 26.878 4.598Q27.012 4.382 27.084 4.16Q27.156 3.938 27.156 3.686Q27.156 3.434 27.076 3.244Q26.996 3.054 26.856 2.93Q26.716 2.806 26.528 2.744Q26.34 2.682 26.124 2.682Q25.908 2.682 25.724 2.746Q25.54 2.81 25.398 2.924Q25.256 3.038 25.158 3.194Q25.06 3.35 25.02 3.538Q24.988 3.654 24.924 3.706Q24.86 3.758 24.756 3.758Q24.736 3.758 24.714 3.756Q24.692 3.754 24.664 3.75L24.292 3.686Q24.348 3.294 24.508 2.992Q24.668 2.69 24.914 2.486Q25.16 2.282 25.478 2.176Q25.796 2.07 26.164 2.07ZM31.552 2.174Q31.244 2.07 30.88 2.07Q30.512 2.07 30.194 2.176Q29.876 2.282 29.63 2.486Q29.384 2.69 29.224 2.992Q29.064 3.294 29.008 3.686L29.38 3.749Q29.408 3.75294 29.43 3.75491Q29.452 3.75688 29.472 3.75688Q29.572 3.75688 29.636 3.70494Q29.7 3.653 29.732 3.53713Q29.78 3.35331 29.876 3.19547Q29.972 3.03763 30.114 2.92375Q30.256 2.80988 30.44 2.74594Q30.624 2.682 30.84 2.682Q31.056 2.682 31.242 2.742Q31.428 2.802 31.564 2.922Q31.7 3.042 31.778 3.226Q31.856 3.41 31.856 3.658Q31.856 3.882 31.782 4.066Q31.708 4.25 31.544 4.382Q31.38 4.514 31.122 4.59Q30.864 4.666 30.5 4.666L30.5 5.186Q30.948 5.186 31.234 5.266Q31.52 5.346 31.682 5.486Q31.844 5.626 31.906 5.818Q31.968 6.01 31.968 6.242Q31.968 6.43 31.892 6.622Q31.816 6.814 31.666 6.97Q31.516 7.126 31.29 7.224Q31.064 7.322 30.764 7.322Q30.464 7.322 30.262 7.234Q30.06 7.146 29.924 7.018Q29.788 6.89 29.708 6.744Q29.628 6.598 29.572 6.482Q29.564 6.462 29.556 6.444Q29.548 6.426 29.54 6.41Q29.508 6.338 29.446 6.304Q29.384 6.27 29.304 6.27Q29.22 6.27 29.136 6.306L28.832 6.434Q28.932 6.754 29.076 7.028Q29.22 7.302 29.444 7.502Q29.668 7.702 29.992 7.816Q30.316 7.93 30.772 7.93Q31.168 7.93 31.514 7.812Q31.86 7.694 32.12 7.472Q32.38 7.25 32.53 6.934Q32.68 6.618 32.68 6.222Q32.68 5.698 32.398 5.35Q32.116 5.002 31.556 4.854Q31.784 4.786 31.968 4.674Q32.152 4.562 32.282 4.4Q32.412 4.238 32.482 4.024Q32.552 3.81 32.552 3.538Q32.552 3.206 32.428 2.934Q32.304 2.662 32.082 2.47Q31.86 2.278 31.552 2.174ZM35.236 5.514Q34.912 5.514 34.622 5.406Q34.332 5.298 34.112 5.088Q33.892 4.878 33.762 4.572Q33.632 4.266 33.632 3.87Q33.632 3.494 33.772 3.166Q33.912 2.838 34.164 2.594Q34.416 2.35 34.764 2.21Q35.112 2.07 35.528 2.07Q35.94 2.07 36.276 2.206Q36.612 2.342 36.852 2.586Q37.092 2.83 37.222 3.17Q37.352 3.51 37.352 3.922Q37.352 4.17 37.306 4.392Q37.26 4.614 37.172 4.826Q37.084 5.038 36.962 5.248Q36.84 5.458 36.684 5.682L35.288 7.698Q35.236 7.774 35.14 7.82Q35.044 7.866 34.92 7.866L34.264 7.866L36.008 5.582Q36.096 5.466 36.172 5.362Q36.248 5.258 36.316 5.154Q36.096 5.33 35.82 5.422Q35.544 5.514 35.236 5.514ZM53.796 5.514Q53.472 5.514 53.182 5.406Q52.892 5.298 52.672 5.088Q52.452 4.878 52.322 4.572Q52.192 4.266 52.192 3.87Q52.192 3.494 52.332 3.166Q52.472 2.838 52.724 2.594Q52.976 2.35 53.324 2.21Q53.672 2.07 54.088 2.07Q54.5 2.07 54.836 2.206Q55.172 2.342 55.412 2.586Q55.652 2.83 55.782 3.17Q55.912 3.51 55.912 3.922Q55.912 4.17 55.866 4.392Q55.82 4.614 55.732 4.826Q55.644 5.038 55.522 5.248Q55.4 5.458 55.244 5.682L53.848 7.698Q53.796 7.774 53.7 7.82Q53.604 7.866 53.48 7.866L52.824 7.866L54.568 5.582Q54.656 5.466 54.732 5.362Q54.808 5.258 54.876 5.154Q54.656 5.33 54.38 5.422Q54.104 5.514 53.796 5.514ZM59.392 2.174Q59.084 2.07 58.72 2.07Q58.352 2.07 58.034 2.176Q57.716 2.282 57.47 2.486Q57.224 2.69 57.064 2.992Q56.904 3.294 56.848 3.686L57.22 3.749Q57.248 3.75294 57.27 3.75491Q57.292 3.75688 57.312 3.75688Q57.412 3.75688 57.476 3.70494Q57.54 3.653 57.572 3.53713Q57.62 3.35331 57.716 3.19547Q57.812 3.03763 57.954 2.92375Q58.096 2.80988 58.28 2.74594Q58.464 2.682 58.68 2.682Q58.896 2.682 59.082 2.742Q59.268 2.802 59.404 2.922Q59.54 3.042 59.618 3.226Q59.696 3.41 59.696 3.658Q59.696 3.882 59.622 4.066Q59.548 4.25 59.384 4.382Q59.22 4.514 58.962 4.59Q58.704 4.666 58.34 4.666L58.34 5.186Q58.788 5.186 59.074 5.266Q59.36 5.346 59.522 5.486Q59.684 5.626 59.746 5.818Q59.808 6.01 59.808 6.242Q59.808 6.43 59.732 6.622Q59.656 6.814 59.506 6.97Q59.356 7.126 59.13 7.224Q58.904 7.322 58.604 7.322Q58.304 7.322 58.102 7.234Q57.9 7.146 57.764 7.018Q57.628 6.89 57.548 6.744Q57.468 6.598 57.412 6.482Q57.404 6.462 57.396 6.444Q57.388 6.426 57.38 6.41Q57.348 6.338 57.286 6.304Q57.224 6.27 57.144 6.27Q57.06 6.27 56.976 6.306L56.672 6.434Q56.772 6.754 56.916 7.028Q57.06 7.302 57.284 7.502Q57.508 7.702 57.832 7.816Q58.156 7.93 58.612 7.93Q59.008 7.93 59.354 7.812Q59.7 7.694 59.96 7.472Q60.22 7.25 60.37 6.934Q60.52 6.618 60.52 6.222Q60.52 5.698 60.238 5.35Q59.956 5.002 59.396 4.854Q59.624 4.786 59.808 4.674Q59.992 4.562 60.122 4.4Q60.252 4.238 60.322 4.024Q60.392 3.81 60.392 3.538Q60.392 3.206 60.268 2.934Q60.144 2.662 59.922 2.47Q59.7 2.278 59.392 2.174ZM63.36 2.07Q63.724 2.07 64.032 2.174Q64.34 2.278 64.562 2.47Q64.784 2.662 64.908 2.934Q65.032 3.206 65.032 3.538Q65.032 3.81 64.962 4.024Q64.892 4.238 64.762 4.4Q64.632 4.562 64.448 4.674Q64.264 4.786 64.036 4.854Q64.596 5.002 64.878 5.35Q65.16 5.698 65.16 6.222Q65.16 6.618 65.01 6.934Q64.86 7.25 64.6 7.472Q64.34 7.694 63.994 7.812Q63.648 7.93 63.252 7.93Q62.796 7.93 62.472 7.816Q62.148 7.702 61.924 7.502Q61.7 7.302 61.556 7.028Q61.412 6.754 61.312 6.434L61.616 6.306Q61.7 6.27 61.784 6.27Q61.864 6.27 61.926 6.304Q61.988 6.338 62.02 6.41Q62.028 6.426 62.036 6.444Q62.044 6.462 62.052 6.482Q62.108 6.598 62.188 6.744Q62.268 6.89 62.404 7.018Q62.54 7.146 62.742 7.234Q62.944 7.322 63.244 7.322Q63.544 7.322 63.77 7.224Q63.996 7.126 64.146 6.97Q64.296 6.814 64.372 6.622Q64.448 6.43 64.448 6.242Q64.448 6.01 64.386 5.818Q64.324 5.626 64.162 5.486Q64 5.346 63.714 5.266Q63.428 5.186 62.98 5.186L62.98 4.666Q63.344 4.666 63.602 4.59Q63.86 4.514 64.024 4.382Q64.188 4.25 64.262 4.066Q64.336 3.882 64.336 3.658Q64.336 3.41 64.258 3.226Q64.18 3.042 64.044 2.922Q63.908 2.802 63.722 2.742Q63.536 2.682 63.32 2.682Q63.104 2.682 62.92 2.74594Q62.736 2.80988 62.594 2.92375Q62.452 3.03763 62.356 3.19547Q62.26 3.35331 62.212 3.53713Q62.18 3.653 62.116 3.70494Q62.052 3.75688 61.952 3.75688Q61.932 3.75688 61.91 3.75491Q61.888 3.75294 61.86 3.749L61.488 3.686Q61.544 3.294 61.704 2.992Q61.864 2.69 62.11 2.486Q62.356 2.282 62.674 2.176Q62.992 2.07 63.36 2.07ZM69.758 6.304Q69.92 5.754 69.92 5.002Q69.92 4.25 69.758 3.698Q69.596 3.146 69.316 2.784Q69.036 2.422 68.654 2.246Q68.272 2.07 67.836 2.07Q67.396 2.07 67.018 2.246Q66.64 2.422 66.36 2.784Q66.08 3.146 65.92 3.698Q65.76 4.25 65.76 5.002Q65.76 5.754 65.92 6.304Q66.08 6.854 66.36 7.214Q66.64 7.574 67.018 7.75Q67.396 7.926 67.836 7.926Q68.272 7.926 68.654 7.75Q69.036 7.574 69.316 7.214Q69.596 6.854 69.758 6.304ZM13.752 2.446Q13.752 2.598 13.656 2.696Q13.56 2.794 13.332 2.794L11.532 2.794L11.268 4.298Q11.716 4.202 12.096 4.202Q12.544 4.202 12.886 4.334Q13.228 4.466 13.46 4.698Q13.692 4.93 13.81 5.246Q13.928 5.562 13.928 5.934Q13.928 6.39 13.768 6.758Q13.608 7.126 13.33 7.388Q13.052 7.65 12.676 7.79Q12.3 7.93 11.864 7.93Q11.612 7.93 11.38 7.88Q11.148 7.83 10.948 7.746Q10.748 7.662 10.576 7.554Q10.404 7.446 10.272 7.326L10.488 7.022Q10.56 6.918 10.68 6.918Q10.756 6.918 10.858 6.98Q10.96 7.042 11.104 7.118Q11.248 7.194 11.442 7.256Q11.636 7.318 11.904 7.318Q12.204 7.318 12.444 7.222Q12.684 7.126 12.854 6.948Q13.024 6.77 13.116 6.522Q13.208 6.274 13.208 5.966Q13.208 5.698 13.13 5.482Q13.052 5.266 12.894 5.114Q12.736 4.962 12.5 4.878Q12.264 4.794 11.948 4.794Q11.732 4.794 11.5 4.83Q11.268 4.866 11.02 4.946L10.572 4.814L11.036 2.134L13.752 2.134L13.752 2.446ZM17.08 4.354Q17.424 4.354 17.732 4.468Q18.04 4.582 18.272 4.8Q18.504 5.018 18.64 5.336Q18.776 5.654 18.776 6.062Q18.776 6.458 18.632 6.798Q18.488 7.138 18.23 7.39Q17.972 7.642 17.608 7.786Q17.244 7.93 16.808 7.93Q16.376 7.93 16.026 7.792Q15.676 7.654 15.428 7.4Q15.18 7.146 15.046 6.784Q14.912 6.422 14.912 5.974Q14.912 5.598 15.08 5.174Q15.248 4.75 15.612 4.262L17.064 2.306Q17.12 2.234 17.22 2.184Q17.32 2.134 17.448 2.134L18.08 2.134L16.092 4.65Q16.296 4.51 16.544 4.432Q16.792 4.354 17.08 4.354ZM42.16 5.798L41.292 5.798L41.292 2.134L40.628 2.134L37.84 5.834L37.912 6.198Q37.928 6.266 37.986 6.312Q38.044 6.358 38.124 6.358L40.664 6.358L40.664 7.866L41.292 7.866L41.292 6.358L42.004 6.358Q42.084 6.358 42.122 6.314Q42.16 6.27 42.16 6.206L42.16 5.798ZM46.232 2.446Q46.232 2.598 46.136 2.696Q46.04 2.794 45.812 2.794L44.012 2.794L43.748 4.298Q44.196 4.202 44.576 4.202Q45.024 4.202 45.366 4.334Q45.708 4.466 45.94 4.698Q46.172 4.93 46.29 5.246Q46.408 5.562 46.408 5.934Q46.408 6.39 46.248 6.758Q46.088 7.126 45.81 7.388Q45.532 7.65 45.156 7.79Q44.78 7.93 44.344 7.93Q44.092 7.93 43.86 7.88Q43.628 7.83 43.428 7.746Q43.228 7.662 43.056 7.554Q42.884 7.446 42.752 7.326L42.968 7.022Q43.04 6.918 43.16 6.918Q43.236 6.918 43.338 6.98Q43.44 7.042 43.584 7.118Q43.728 7.194 43.922 7.256Q44.116 7.318 44.384 7.318Q44.684 7.318 44.924 7.222Q45.164 7.126 45.334 6.948Q45.504 6.77 45.596 6.522Q45.688 6.274 45.688 5.966Q45.688 5.698 45.61 5.482Q45.532 5.266 45.374 5.114Q45.216 4.962 44.98 4.878Q44.744 4.794 44.428 4.794Q44.212 4.794 43.98 4.83Q43.748 4.866 43.5 4.946L43.052 4.814L43.516 2.134L46.232 2.134L46.232 2.446ZM51.296 2.454L51.296 2.134L47.4 2.134L47.4 2.618Q47.4 2.686 47.454 2.74Q47.508 2.794 47.576 2.794L50.568 2.794Q50.5 2.87 50.446 2.954Q50.392 3.038 50.34 3.138L47.932 7.866L48.44 7.866Q48.596 7.866 48.688 7.792Q48.78 7.718 48.832 7.614L51.204 2.826Q51.236 2.766 51.266 2.678Q51.296 2.59 51.296 2.454ZM21.914 4.524Q21.716 4.61 21.436 4.61Q21.156 4.61 20.958 4.524Q20.76 4.438 20.636 4.296Q20.512 4.154 20.456 3.97Q20.4 3.786 20.4 3.59Q20.4 3.39 20.466 3.214Q20.532 3.038 20.662 2.906Q20.792 2.774 20.986 2.698Q21.18 2.622 21.436 2.622Q21.692 2.622 21.886 2.698Q22.08 2.774 22.21 2.906Q22.34 3.038 22.406 3.214Q22.472 3.39 22.472 3.59Q22.472 3.786 22.416 3.97Q22.36 4.154 22.236 4.296Q22.112 4.438 21.914 4.524ZM36.668 3.838Q36.668 3.57 36.582 3.352Q36.496 3.134 36.344 2.982Q36.192 2.83 35.982 2.748Q35.772 2.666 35.52 2.666Q35.256 2.666 35.038 2.752Q34.82 2.838 34.666 2.99Q34.512 3.142 34.428 3.354Q34.344 3.566 34.344 3.818Q34.344 4.09 34.422 4.304Q34.5 4.518 34.646 4.666Q34.792 4.814 35.002 4.89Q35.212 4.966 35.472 4.966Q35.76 4.966 35.982 4.872Q36.204 4.778 36.356 4.622Q36.508 4.466 36.588 4.262Q36.668 4.058 36.668 3.838ZM55.228 3.838Q55.228 3.57 55.142 3.352Q55.056 3.134 54.904 2.982Q54.752 2.83 54.542 2.748Q54.332 2.666 54.08 2.666Q53.816 2.666 53.598 2.752Q53.38 2.838 53.226 2.99Q53.072 3.142 52.988 3.354Q52.904 3.566 52.904 3.818Q52.904 4.09 52.982 4.304Q53.06 4.518 53.206 4.666Q53.352 4.814 53.562 4.89Q53.772 4.966 54.032 4.966Q54.32 4.966 54.542 4.872Q54.764 4.778 54.916 4.622Q55.068 4.466 55.148 4.262Q55.228 4.058 55.228 3.838ZM69.07 3.9Q69.18 4.346 69.18 5.002Q69.18 5.658 69.07 6.102Q68.96 6.546 68.774 6.818Q68.588 7.09 68.344 7.208Q68.1 7.326 67.836 7.326Q67.572 7.326 67.328 7.208Q67.084 7.09 66.9 6.818Q66.716 6.546 66.606 6.102Q66.496 5.658 66.496 5.002Q66.496 4.346 66.606 3.9Q66.716 3.454 66.9 3.182Q67.084 2.91 67.328 2.792Q67.572 2.674 67.836 2.674Q68.1 2.674 68.344 2.792Q68.588 2.91 68.774 3.182Q68.96 3.454 69.07 3.9ZM40.67 3.21Q40.664 3.33 40.664 3.434L40.664 5.798L38.612 5.798L40.696 2.962Q40.676 3.09 40.67 3.21ZM15.6 6.098Q15.6 6.374 15.68 6.602Q15.76 6.83 15.914 6.994Q16.068 7.158 16.29 7.248Q16.512 7.338 16.796 7.338Q17.084 7.338 17.316 7.246Q17.548 7.154 17.714 6.99Q17.88 6.826 17.97 6.602Q18.06 6.378 18.06 6.114Q18.06 5.834 17.972 5.608Q17.884 5.382 17.724 5.224Q17.564 5.066 17.34 4.982Q17.116 4.898 16.848 4.898Q16.56 4.898 16.328 4.996Q16.096 5.094 15.934 5.26Q15.772 5.426 15.686 5.644Q15.6 5.862 15.6 6.098ZM21.938 7.284Q21.716 7.362 21.436 7.362Q21.156 7.362 20.934 7.284Q20.712 7.206 20.558 7.064Q20.404 6.922 20.322 6.724Q20.24 6.526 20.24 6.286Q20.24 5.99 20.338 5.78Q20.436 5.57 20.602 5.438Q20.768 5.306 20.984 5.244Q21.2 5.182 21.436 5.182Q21.672 5.182 21.888 5.244Q22.104 5.306 22.27 5.438Q22.436 5.57 22.534 5.78Q22.632 5.99 22.632 6.286Q22.632 6.526 22.55 6.724Q22.468 6.922 22.314 7.064Q22.16 7.206 21.938 7.284Z" />
    </g>
    <g id="SKU-10023-22" fill="#3F3F3F" transform="translate(170 161.93219)">
      <path d="M17.468 3.03Q17.432 3.09 17.392 3.12Q17.352 3.15 17.288 3.15Q17.22 3.15 17.13 3.082Q17.04 3.014 16.902 2.932Q16.764 2.85 16.57 2.782Q16.376 2.714 16.1 2.714Q15.84 2.714 15.64 2.784Q15.44 2.854 15.306 2.974Q15.172 3.094 15.104 3.256Q15.036 3.418 15.036 3.606Q15.036 3.846 15.154 4.004Q15.272 4.162 15.466 4.274Q15.66 4.386 15.906 4.468Q16.152 4.55 16.41 4.638Q16.668 4.726 16.914 4.836Q17.16 4.946 17.354 5.114Q17.548 5.282 17.666 5.526Q17.784 5.77 17.784 6.126Q17.784 6.502 17.656 6.832Q17.528 7.162 17.282 7.406Q17.036 7.65 16.678 7.79Q16.32 7.93 15.864 7.93Q15.308 7.93 14.85 7.728Q14.392 7.526 14.068 7.182L14.292 6.814Q14.324 6.77 14.37 6.74Q14.416 6.71 14.472 6.71Q14.556 6.71 14.664 6.8Q14.772 6.89 14.934 6.998Q15.096 7.106 15.326 7.196Q15.556 7.286 15.888 7.286Q16.164 7.286 16.38 7.21Q16.596 7.134 16.746 6.996Q16.896 6.858 16.976 6.666Q17.056 6.474 17.056 6.238Q17.056 5.978 16.938 5.812Q16.82 5.646 16.628 5.534Q16.436 5.422 16.19 5.344Q15.944 5.266 15.686 5.184Q15.428 5.102 15.182 4.994Q14.936 4.886 14.744 4.714Q14.552 4.542 14.434 4.284Q14.316 4.026 14.316 3.646Q14.316 3.342 14.434 3.058Q14.552 2.774 14.776 2.554Q15 2.334 15.33 2.202Q15.66 2.07 16.088 2.07Q16.568 2.07 16.964 2.222Q17.36 2.374 17.656 2.662L17.468 3.03ZM39.786 6.304Q39.948 5.754 39.948 5.002Q39.948 4.25 39.786 3.698Q39.624 3.146 39.344 2.784Q39.064 2.422 38.682 2.246Q38.3 2.07 37.864 2.07Q37.424 2.07 37.046 2.246Q36.668 2.422 36.388 2.784Q36.108 3.146 35.948 3.698Q35.788 4.25 35.788 5.002Q35.788 5.754 35.948 6.304Q36.108 6.854 36.388 7.214Q36.668 7.574 37.046 7.75Q37.424 7.926 37.864 7.926Q38.3 7.926 38.682 7.75Q39.064 7.574 39.344 7.214Q39.624 6.854 39.786 6.304ZM44.588 5.002Q44.588 5.754 44.426 6.304Q44.264 6.854 43.984 7.214Q43.704 7.574 43.322 7.75Q42.94 7.926 42.504 7.926Q42.064 7.926 41.686 7.75Q41.308 7.574 41.028 7.214Q40.748 6.854 40.588 6.304Q40.428 5.754 40.428 5.002Q40.428 4.25 40.588 3.698Q40.748 3.146 41.028 2.784Q41.308 2.422 41.686 2.246Q42.064 2.07 42.504 2.07Q42.94 2.07 43.322 2.246Q43.704 2.422 43.984 2.784Q44.264 3.146 44.426 3.698Q44.588 4.25 44.588 5.002ZM47.912 2.178Q47.596 2.07 47.232 2.07Q46.864 2.07 46.546 2.176Q46.228 2.282 45.982 2.486Q45.736 2.69 45.576 2.992Q45.416 3.294 45.36 3.686L45.732 3.75Q45.76 3.754 45.782 3.756Q45.804 3.758 45.824 3.758Q45.928 3.758 45.992 3.706Q46.056 3.654 46.088 3.538Q46.128 3.35 46.226 3.194Q46.324 3.038 46.466 2.924Q46.608 2.81 46.792 2.746Q46.976 2.682 47.192 2.682Q47.408 2.682 47.596 2.744Q47.784 2.806 47.924 2.93Q48.064 3.054 48.144 3.244Q48.224 3.434 48.224 3.686Q48.224 3.938 48.152 4.16Q48.08 4.382 47.946 4.598Q47.812 4.814 47.624 5.028Q47.436 5.242 47.208 5.474L45.372 7.318Q45.304 7.386 45.274 7.466Q45.244 7.546 45.244 7.622L45.244 7.866L49.068 7.866L49.068 7.434Q49.068 7.326 49 7.258Q48.932 7.19 48.816 7.19L46.896 7.19Q46.744 7.19 46.58 7.216Q46.416 7.242 46.256 7.286L47.764 5.742Q48.004 5.498 48.218 5.264Q48.432 5.03 48.596 4.78Q48.76 4.53 48.856 4.258Q48.952 3.986 48.952 3.666Q48.952 3.29 48.82 2.994Q48.688 2.698 48.458 2.492Q48.228 2.286 47.912 2.178ZM51.948 2.07Q52.312 2.07 52.62 2.174Q52.928 2.278 53.15 2.47Q53.372 2.662 53.496 2.934Q53.62 3.206 53.62 3.538Q53.62 3.81 53.55 4.024Q53.48 4.238 53.35 4.4Q53.22 4.562 53.036 4.674Q52.852 4.786 52.624 4.854Q53.184 5.002 53.466 5.35Q53.748 5.698 53.748 6.222Q53.748 6.618 53.598 6.934Q53.448 7.25 53.188 7.472Q52.928 7.694 52.582 7.812Q52.236 7.93 51.84 7.93Q51.384 7.93 51.06 7.816Q50.736 7.702 50.512 7.502Q50.288 7.302 50.144 7.028Q50 6.754 49.9 6.434L50.204 6.306Q50.288 6.27 50.372 6.27Q50.452 6.27 50.514 6.304Q50.576 6.338 50.608 6.41Q50.616 6.426 50.624 6.444Q50.632 6.462 50.64 6.482Q50.696 6.598 50.776 6.744Q50.856 6.89 50.992 7.018Q51.128 7.146 51.33 7.234Q51.532 7.322 51.832 7.322Q52.132 7.322 52.358 7.224Q52.584 7.126 52.734 6.97Q52.884 6.814 52.96 6.622Q53.036 6.43 53.036 6.242Q53.036 6.01 52.974 5.818Q52.912 5.626 52.75 5.486Q52.588 5.346 52.302 5.266Q52.016 5.186 51.568 5.186L51.568 4.666Q51.932 4.666 52.19 4.59Q52.448 4.514 52.612 4.382Q52.776 4.25 52.85 4.066Q52.924 3.882 52.924 3.658Q52.924 3.41 52.846 3.226Q52.768 3.042 52.632 2.922Q52.496 2.802 52.31 2.742Q52.124 2.682 51.908 2.682Q51.692 2.682 51.508 2.74594Q51.324 2.80988 51.182 2.92375Q51.04 3.03763 50.944 3.19547Q50.848 3.35331 50.8 3.53713Q50.768 3.653 50.704 3.70494Q50.64 3.75688 50.54 3.75688Q50.52 3.75688 50.498 3.75491Q50.476 3.75294 50.448 3.749L50.076 3.686Q50.132 3.294 50.292 2.992Q50.452 2.69 50.698 2.486Q50.944 2.282 51.262 2.176Q51.58 2.07 51.948 2.07ZM59.288 2.07Q59.652 2.07 59.968 2.178Q60.284 2.286 60.514 2.492Q60.744 2.698 60.876 2.994Q61.008 3.29 61.008 3.666Q61.008 3.986 60.912 4.258Q60.816 4.53 60.652 4.78Q60.488 5.03 60.274 5.264Q60.06 5.498 59.82 5.742L58.312 7.286Q58.472 7.242 58.636 7.216Q58.8 7.19 58.952 7.19L60.872 7.19Q60.988 7.19 61.056 7.258Q61.124 7.326 61.124 7.434L61.124 7.866L57.3 7.866L57.3 7.622Q57.3 7.546 57.33 7.466Q57.36 7.386 57.428 7.318L59.264 5.474Q59.492 5.242 59.68 5.028Q59.868 4.814 60.002 4.598Q60.136 4.382 60.208 4.16Q60.28 3.938 60.28 3.686Q60.28 3.434 60.2 3.244Q60.12 3.054 59.98 2.93Q59.84 2.806 59.652 2.744Q59.464 2.682 59.248 2.682Q59.032 2.682 58.848 2.746Q58.664 2.81 58.522 2.924Q58.38 3.038 58.282 3.194Q58.184 3.35 58.144 3.538Q58.112 3.654 58.048 3.706Q57.984 3.758 57.88 3.758Q57.86 3.758 57.838 3.756Q57.816 3.754 57.788 3.75L57.416 3.686Q57.472 3.294 57.632 2.992Q57.792 2.69 58.038 2.486Q58.284 2.282 58.602 2.176Q58.92 2.07 59.288 2.07ZM64.608 2.178Q64.292 2.07 63.928 2.07Q63.56 2.07 63.242 2.176Q62.924 2.282 62.678 2.486Q62.432 2.69 62.272 2.992Q62.112 3.294 62.056 3.686L62.428 3.75Q62.456 3.754 62.478 3.756Q62.5 3.758 62.52 3.758Q62.624 3.758 62.688 3.706Q62.752 3.654 62.784 3.538Q62.824 3.35 62.922 3.194Q63.02 3.038 63.162 2.924Q63.304 2.81 63.488 2.746Q63.672 2.682 63.888 2.682Q64.104 2.682 64.292 2.744Q64.48 2.806 64.62 2.93Q64.76 3.054 64.84 3.244Q64.92 3.434 64.92 3.686Q64.92 3.938 64.848 4.16Q64.776 4.382 64.642 4.598Q64.508 4.814 64.32 5.028Q64.132 5.242 63.904 5.474L62.068 7.318Q62 7.386 61.97 7.466Q61.94 7.546 61.94 7.622L61.94 7.866L65.764 7.866L65.764 7.434Q65.764 7.326 65.696 7.258Q65.628 7.19 65.512 7.19L63.592 7.19Q63.44 7.19 63.276 7.216Q63.112 7.242 62.952 7.286L64.46 5.742Q64.7 5.498 64.914 5.264Q65.128 5.03 65.292 4.78Q65.456 4.53 65.552 4.258Q65.648 3.986 65.648 3.666Q65.648 3.29 65.516 2.994Q65.384 2.698 65.154 2.492Q64.924 2.286 64.608 2.178ZM32.056 7.322L33.288 7.322L33.288 3.414Q33.288 3.238 33.3 3.058L32.276 3.934Q32.236 3.966 32.196 3.98Q32.156 3.994 32.12 3.994Q32.06 3.994 32.012 3.968Q31.964 3.942 31.94 3.906L31.716 3.598L33.42 2.122L34 2.122L34 7.322L35.128 7.322L35.128 7.866L32.056 7.866L32.056 7.322ZM19.624 4.646L19.916 4.646Q20.068 4.646 20.158 4.608Q20.248 4.57 20.328 4.478L22.236 2.318Q22.324 2.218 22.406 2.176Q22.488 2.134 22.616 2.134L23.276 2.134L21.092 4.602Q21.008 4.694 20.934 4.758Q20.86 4.822 20.776 4.862Q20.888 4.898 20.972 4.97Q21.056 5.042 21.148 5.15L23.428 7.866L22.756 7.866C22.7053 7.866 22.6627 7.862 22.628 7.854Q22.576 7.842 22.538 7.822Q22.5 7.802 22.468 7.77Q22.436 7.738 22.404 7.702L20.424 5.426Q20.38 5.378 20.342 5.344Q20.304 5.31 20.254 5.286Q20.204 5.262 20.138 5.252Q20.072 5.242 19.976 5.242L19.624 5.242L19.624 7.866L18.852 7.866L18.852 2.134L19.624 2.134L19.624 4.646ZM27.084 7.13Q26.804 7.25 26.448 7.25Q26.092 7.25 25.81 7.128Q25.528 7.006 25.334 6.79Q25.14 6.574 25.038 6.274Q24.936 5.974 24.936 5.614L24.936 2.134L24.164 2.134L24.164 5.618Q24.164 6.114 24.322 6.538Q24.48 6.962 24.776 7.272Q25.072 7.582 25.496 7.758Q25.92 7.934 26.448 7.934Q26.976 7.934 27.4 7.758Q27.824 7.582 28.118 7.272Q28.412 6.962 28.57 6.538Q28.728 6.114 28.728 5.618L28.728 2.134L27.956 2.134L27.956 5.618Q27.956 5.978 27.854 6.278Q27.752 6.578 27.558 6.794Q27.364 7.01 27.084 7.13ZM39.098 3.9Q39.208 4.346 39.208 5.002Q39.208 5.658 39.098 6.102Q38.988 6.546 38.802 6.818Q38.616 7.09 38.372 7.208Q38.128 7.326 37.864 7.326Q37.6 7.326 37.356 7.208Q37.112 7.09 36.928 6.818Q36.744 6.546 36.634 6.102Q36.524 5.658 36.524 5.002Q36.524 4.346 36.634 3.9Q36.744 3.454 36.928 3.182Q37.112 2.91 37.356 2.792Q37.6 2.674 37.864 2.674Q38.128 2.674 38.372 2.792Q38.616 2.91 38.802 3.182Q38.988 3.454 39.098 3.9ZM43.848 5.002Q43.848 4.346 43.738 3.9Q43.628 3.454 43.442 3.182Q43.256 2.91 43.012 2.792Q42.768 2.674 42.504 2.674Q42.24 2.674 41.996 2.792Q41.752 2.91 41.568 3.182Q41.384 3.454 41.274 3.9Q41.164 4.346 41.164 5.002Q41.164 5.658 41.274 6.102Q41.384 6.546 41.568 6.818Q41.752 7.09 41.996 7.208Q42.24 7.326 42.504 7.326Q42.768 7.326 43.012 7.208Q43.256 7.09 43.442 6.818Q43.628 6.546 43.738 6.102Q43.848 5.658 43.848 5.002ZM56.484 5.166L54.508 5.166L54.508 5.77L56.484 5.77L56.484 5.166Z" />
    </g>
    <g id="L£-25,000" fill="#3F3F3F" transform="translate(24 91.93219)">
      <path d="M26.256 28.652Q25.752 29.24 25.752 30.056L25.752 31.952L30.336 31.952L30.336 38.216Q30.336 39.2 30 39.932Q29.664 40.664 29.1 41.204Q28.536 41.744 27.792 42.092Q27.048 42.44 26.232 42.632L26.232 46.352L49.248 46.352Q49.824 46.352 50.292 46.124Q50.76 45.896 51.096 45.524Q51.432 45.152 51.612 44.696Q51.792 44.24 51.792 43.808L51.792 41.312L37.728 41.312Q35.976 41.312 34.2 41.72Q35.232 40.664 35.82 39.428Q36.408 38.192 36.408 36.608L36.408 31.952L44.544 31.952Q45.288 31.952 45.756 31.472Q46.224 30.992 46.224 30.416L46.224 28.064L36.408 28.064L36.408 22.376Q36.408 19.496 37.632 17.876Q38.856 16.256 41.328 16.256Q42.12 16.256 42.732 16.424Q43.344 16.592 43.86 16.904Q44.376 17.216 44.82 17.66Q45.264 18.104 45.72 18.632Q46.416 19.424 47.304 19.424Q47.904 19.424 48.672 19.04L51.048 17.528Q50.424 16.208 49.548 15.068Q48.672 13.928 47.484 13.088Q46.296 12.248 44.772 11.756Q43.248 11.264 41.328 11.264Q38.544 11.264 36.48 12.152Q34.416 13.04 33.048 14.564Q31.68 16.088 31.008 18.116Q30.336 20.144 30.336 22.4L30.336 28.064L27.744 28.064Q26.76 28.064 26.256 28.652ZM76.368 11.264Q78.768 11.264 80.76 11.972Q82.752 12.68 84.168 13.976Q85.584 15.272 86.376 17.096Q87.168 18.92 87.168 21.152Q87.168 23.072 86.604 24.704Q86.04 26.336 85.092 27.824Q84.144 29.312 82.872 30.704Q81.6 32.096 80.208 33.536L72.384 41.528Q73.536 41.192 74.64 41.012Q75.744 40.832 76.752 40.832L85.656 40.832Q86.616 40.832 87.18 41.372Q87.744 41.912 87.744 42.8L87.744 46.352L63.936 46.352L63.936 44.384Q63.936 43.784 64.188 43.136Q64.44 42.488 64.992 41.936L75.528 31.376Q76.848 30.032 77.892 28.808Q78.936 27.584 79.644 26.384Q80.352 25.184 80.724 23.948Q81.096 22.712 81.096 21.344Q81.096 20.096 80.736 19.148Q80.376 18.2 79.704 17.552Q79.032 16.904 78.108 16.58Q77.184 16.256 76.032 16.256Q73.896 16.256 72.516 17.336Q71.136 18.416 70.584 20.24Q70.32 21.152 69.792 21.548Q69.264 21.944 68.448 21.944Q68.088 21.944 67.656 21.872L64.536 21.32Q64.896 18.824 65.928 16.94Q66.96 15.056 68.508 13.796Q70.056 12.536 72.06 11.9Q74.064 11.264 76.368 11.264ZM154.068 36.884Q155.04 33.536 155.04 29Q155.04 24.44 154.068 21.104Q153.096 17.768 151.38 15.584Q149.664 13.4 147.324 12.332Q144.984 11.264 142.272 11.264Q139.56 11.264 137.244 12.332Q134.928 13.4 133.224 15.584Q131.52 17.768 130.56 21.104Q129.6 24.44 129.6 29Q129.6 33.536 130.56 36.884Q131.52 40.232 133.224 42.416Q134.928 44.6 137.244 45.668Q139.56 46.736 142.272 46.736Q144.984 46.736 147.324 45.668Q149.664 44.6 151.38 42.416Q153.096 40.232 154.068 36.884ZM182.88 29Q182.88 33.536 181.908 36.884Q180.936 40.232 179.22 42.416Q177.504 44.6 175.164 45.668Q172.824 46.736 170.112 46.736Q167.4 46.736 165.084 45.668Q162.768 44.6 161.064 42.416Q159.36 40.232 158.4 36.884Q157.44 33.536 157.44 29Q157.44 24.44 158.4 21.104Q159.36 17.768 161.064 15.584Q162.768 13.4 165.084 12.332Q167.4 11.264 170.112 11.264Q172.824 11.264 175.164 12.332Q177.504 13.4 179.22 15.584Q180.936 17.768 181.908 21.104Q182.88 24.44 182.88 29ZM209.748 36.884Q210.72 33.536 210.72 29Q210.72 24.44 209.748 21.104Q208.776 17.768 207.06 15.584Q205.344 13.4 203.004 12.332Q200.664 11.264 197.952 11.264Q195.24 11.264 192.924 12.332Q190.608 13.4 188.904 15.584Q187.2 17.768 186.24 21.104Q185.28 24.44 185.28 29Q185.28 33.536 186.24 36.884Q187.2 40.232 188.904 42.416Q190.608 44.6 192.924 45.668Q195.24 46.736 197.952 46.736Q200.664 46.736 203.004 45.668Q205.344 44.6 207.06 42.416Q208.776 40.232 209.748 36.884ZM23.856 41.024L9.96 41.024L9.96 11.648L3.504 11.648L3.504 46.352L23.856 46.352L23.856 41.024ZM112.692 16.232Q113.496 15.44 113.496 14.168L113.496 11.648L96.36 11.648L93.48 28.496L97.176 29.552Q99.72 28.64 102.24 28.64Q105.432 28.64 107.076 30.236Q108.72 31.832 108.72 34.664Q108.72 36.2 108.3 37.508Q107.88 38.816 107.052 39.764Q106.224 40.712 104.976 41.24Q103.728 41.768 102.096 41.768Q100.56 41.768 99.48 41.384Q98.4 41 97.584 40.544Q96.768 40.088 96.156 39.704Q95.544 39.32 94.944 39.32Q93.984 39.32 93.408 40.136L91.584 42.656Q92.448 43.472 93.54 44.204Q94.632 44.936 95.916 45.5Q97.2 46.064 98.664 46.4Q100.128 46.736 101.76 46.736Q104.544 46.736 106.908 45.848Q109.272 44.96 111 43.34Q112.728 41.72 113.7 39.44Q114.672 37.16 114.672 34.4Q114.672 32.168 113.952 30.236Q113.232 28.304 111.816 26.864Q110.4 25.424 108.324 24.608Q106.248 23.792 103.512 23.792Q101.568 23.792 99.216 24.272L100.464 17.024L110.016 17.024Q111.888 17.024 112.692 16.232ZM148.368 22.76Q148.92 25.232 148.92 29Q148.92 32.768 148.368 35.24Q147.816 37.712 146.892 39.176Q145.968 40.64 144.768 41.228Q143.568 41.816 142.272 41.816Q141 41.816 139.812 41.228Q138.624 40.64 137.712 39.176Q136.8 37.712 136.26 35.24Q135.72 32.768 135.72 29Q135.72 25.232 136.26 22.76Q136.8 20.288 137.712 18.824Q138.624 17.36 139.812 16.772Q141 16.184 142.272 16.184Q143.568 16.184 144.768 16.772Q145.968 17.36 146.892 18.824Q147.816 20.288 148.368 22.76ZM176.76 29Q176.76 25.232 176.208 22.76Q175.656 20.288 174.732 18.824Q173.808 17.36 172.608 16.772Q171.408 16.184 170.112 16.184Q168.84 16.184 167.652 16.772Q166.464 17.36 165.552 18.824Q164.64 20.288 164.1 22.76Q163.56 25.232 163.56 29Q163.56 32.768 164.1 35.24Q164.64 37.712 165.552 39.176Q166.464 40.64 167.652 41.228Q168.84 41.816 170.112 41.816Q171.408 41.816 172.608 41.228Q173.808 40.64 174.732 39.176Q175.656 37.712 176.208 35.24Q176.76 32.768 176.76 29ZM204.048 22.76Q204.6 25.232 204.6 29Q204.6 32.768 204.048 35.24Q203.496 37.712 202.572 39.176Q201.648 40.64 200.448 41.228Q199.248 41.816 197.952 41.816Q196.68 41.816 195.492 41.228Q194.304 40.64 193.392 39.176Q192.48 37.712 191.94 35.24Q191.4 32.768 191.4 29Q191.4 25.232 191.94 22.76Q192.48 20.288 193.392 18.824Q194.304 17.36 195.492 16.772Q196.68 16.184 197.952 16.184Q199.248 16.184 200.448 16.772Q201.648 17.36 202.572 18.824Q203.496 20.288 204.048 22.76ZM119.52 42.704Q119.52 42.032 119.772 41.444Q120.024 40.856 120.48 40.412Q120.936 39.968 121.584 39.716Q122.232 39.464 123 39.464Q123.912 39.464 124.584 39.788Q125.256 40.112 125.712 40.676Q126.168 41.24 126.384 41.972Q126.6 42.704 126.6 43.52Q126.6 44.672 126.252 45.944Q125.904 47.216 125.232 48.488Q124.56 49.76 123.576 50.96Q122.592 52.16 121.32 53.168L120.288 52.232Q119.856 51.872 119.856 51.344Q119.856 51.152 119.988 50.912Q120.12 50.672 120.312 50.48Q120.576 50.192 120.96 49.772Q121.344 49.352 121.728 48.812Q122.112 48.272 122.436 47.636Q122.76 47 122.904 46.28Q122.16 46.28 121.536 46.004Q120.912 45.728 120.468 45.248Q120.024 44.768 119.772 44.12Q119.52 43.472 119.52 42.704Z" />
    </g>
    <g id="Taanayel-White-Laban-500ml" fill="#FFFFFF" transform="translate(12 41.93219)">
      <path d="M82.888 3.159L82.888 13.561L81.159 13.561L81.159 3.159L82.888 3.159ZM102.194 13.561L102.194 3.159L103.923 3.159L103.923 7.156Q104.343 6.757 104.847 6.512Q105.351 6.267 106.03 6.267Q106.618 6.267 107.073 6.4665Q107.528 6.666 107.833 7.0265Q108.137 7.387 108.295 7.8875Q108.452 8.388 108.452 8.99L108.452 13.561L106.723 13.561L106.723 8.99Q106.723 8.332 106.419 7.9715Q106.114 7.611 105.505 7.611Q105.057 7.611 104.665 7.814Q104.273 8.017 103.923 8.367L103.923 13.561L102.194 13.561ZM144.138 13.561L144.138 3.159L145.867 3.159L145.867 7.261Q146.294 6.806 146.833 6.5365Q147.372 6.267 148.093 6.267Q148.681 6.267 149.168 6.5085Q149.654 6.75 150.008 7.212Q150.361 7.674 150.554 8.353Q150.746 9.032 150.746 9.914Q150.746 10.719 150.529 11.405Q150.312 12.091 149.91 12.595Q149.507 13.099 148.937 13.3825Q148.366 13.666 147.659 13.666Q147.33 13.666 147.057 13.5995Q146.784 13.533 146.56 13.414Q146.336 13.295 146.144 13.1235Q145.951 12.952 145.776 12.742L145.699 13.225Q145.657 13.407 145.556 13.484C145.488 13.5353 145.396 13.561 145.279 13.561L144.138 13.561ZM208.076 13.561L208.076 3.159L206.347 3.159L206.347 13.561L208.076 13.561ZM112.162 4.706Q112.253 4.51 112.253 4.286Q112.253 4.055 112.162 3.852Q112.071 3.649 111.921 3.502Q111.77 3.355 111.567 3.2675Q111.364 3.18 111.133 3.18Q110.909 3.18 110.71 3.2675Q110.51 3.355 110.363 3.502Q110.216 3.649 110.129 3.852Q110.041 4.055 110.041 4.286Q110.041 4.51 110.129 4.706Q110.216 4.902 110.363 5.049Q110.51 5.196 110.71 5.2835Q110.909 5.371 111.133 5.371Q111.364 5.371 111.567 5.2835Q111.77 5.196 111.921 5.049Q112.071 4.902 112.162 4.706ZM185.053 8.5Q185.053 9.823 184.77 10.7995Q184.486 11.776 183.986 12.413Q183.485 13.05 182.803 13.3615Q182.12 13.673 181.329 13.673Q180.538 13.673 179.863 13.3615Q179.187 13.05 178.69 12.413Q178.193 11.776 177.913 10.7995Q177.633 9.823 177.633 8.5Q177.633 7.17 177.913 6.197Q178.193 5.224 178.69 4.587Q179.187 3.95 179.863 3.6385Q180.538 3.327 181.329 3.327Q182.12 3.327 182.803 3.6385Q183.485 3.95 183.986 4.587Q184.486 5.224 184.77 6.197Q185.053 7.17 185.053 8.5ZM192.889 10.7995Q193.173 9.823 193.173 8.5Q193.173 7.17 192.889 6.197Q192.606 5.224 192.105 4.587Q191.605 3.95 190.923 3.6385Q190.24 3.327 189.449 3.327Q188.658 3.327 187.982 3.6385Q187.307 3.95 186.81 4.587Q186.313 5.224 186.033 6.197Q185.753 7.17 185.753 8.5Q185.753 9.823 186.033 10.7995Q186.313 11.776 186.81 12.413Q187.307 13.05 187.982 13.3615Q188.658 13.673 189.449 13.673Q190.24 13.673 190.923 13.3615Q191.605 13.05 192.105 12.413Q192.606 11.776 192.889 10.7995ZM35.05 3.439L35.05 4.986L32.005 4.986L32.005 13.561L30.122 13.561L30.122 4.986L27.063 4.986L27.063 3.439L35.05 3.439ZM88.285 3.439L86.703 3.439L89.846 13.561L91.547 13.561L93.78 6.645Q93.822 6.512 93.8675 6.358Q93.913 6.204 93.955 6.029Q93.997 6.204 94.0425 6.358Q94.088 6.512 94.13 6.645L96.342 13.561L98.043 13.561L101.186 3.439L99.709 3.439Q99.471 3.439 99.303 3.565Q99.135 3.691 99.086 3.866L97.364 9.921Q97.308 10.138 97.2555 10.39Q97.203 10.642 97.154 10.915Q97.042 10.369 96.888 9.921L94.914 3.866Q94.851 3.67 94.69 3.5545Q94.529 3.439 94.284 3.439L93.731 3.439Q93.493 3.439 93.3285 3.572Q93.164 3.705 93.108 3.866L91.12 9.921Q91.043 10.145 90.9765 10.4075Q90.91 10.67 90.854 10.964Q90.805 10.67 90.7525 10.4075Q90.7 10.145 90.637 9.921L88.915 3.866Q88.859 3.67 88.6945 3.5545Q88.53 3.439 88.285 3.439ZM131.531 12.007L135.584 12.007L135.584 13.561L129.648 13.561L129.648 3.439L131.531 3.439L131.531 12.007ZM175.852 4.776Q176.086 4.545 176.086 4.174L176.086 3.439L171.088 3.439L170.248 8.353L171.326 8.661Q172.068 8.395 172.803 8.395Q173.734 8.395 174.214 8.8605Q174.693 9.326 174.693 10.152Q174.693 10.6 174.571 10.9815Q174.448 11.363 174.207 11.6395Q173.965 11.916 173.601 12.07Q173.237 12.224 172.761 12.224Q172.313 12.224 171.998 12.112Q171.683 12 171.445 11.867Q171.207 11.734 171.029 11.622Q170.85 11.51 170.675 11.51Q170.395 11.51 170.227 11.748L169.695 12.483Q169.947 12.721 170.266 12.9345Q170.584 13.148 170.959 13.3125Q171.333 13.477 171.76 13.575Q172.187 13.673 172.663 13.673Q173.475 13.673 174.165 13.414Q174.854 13.155 175.358 12.6825Q175.862 12.21 176.146 11.545Q176.429 10.88 176.429 10.075Q176.429 9.424 176.219 8.8605Q176.009 8.297 175.596 7.877Q175.183 7.457 174.578 7.219Q173.972 6.981 173.174 6.981Q172.607 6.981 171.921 7.121L172.285 5.007L175.071 5.007Q175.617 5.007 175.852 4.776ZM116.306 13.673Q115.375 13.673 114.871 13.1445Q114.367 12.616 114.367 11.685L114.367 7.674L113.639 7.674Q113.499 7.674 113.397 7.583Q113.296 7.492 113.296 7.31L113.296 6.624L114.451 6.435L114.815 4.475Q114.843 4.335 114.945 4.258Q115.046 4.181 115.2 4.181L116.096 4.181L116.096 6.442L117.986 6.442L117.986 7.674L116.096 7.674L116.096 11.566Q116.096 11.902 116.264 12.091Q116.432 12.28 116.712 12.28Q116.873 12.28 116.982 12.2415Q117.09 12.203 117.171 12.161Q117.251 12.119 117.314 12.0805Q117.377 12.042 117.44 12.042Q117.517 12.042 117.566 12.0805Q117.615 12.119 117.671 12.196L118.189 13.036Q117.811 13.351 117.321 13.512Q116.831 13.673 116.306 13.673ZM183.268 8.5Q183.268 7.401 183.107 6.68Q182.946 5.959 182.676 5.532Q182.407 5.105 182.057 4.9335Q181.707 4.762 181.329 4.762Q180.958 4.762 180.612 4.9335Q180.265 5.105 179.999 5.532Q179.733 5.959 179.576 6.68Q179.418 7.401 179.418 8.5Q179.418 9.599 179.576 10.32Q179.733 11.041 179.999 11.468Q180.265 11.895 180.612 12.0665Q180.958 12.238 181.329 12.238Q181.707 12.238 182.057 12.0665Q182.407 11.895 182.676 11.468Q182.946 11.041 183.107 10.32Q183.268 9.599 183.268 8.5ZM191.227 6.68Q191.388 7.401 191.388 8.5Q191.388 9.599 191.227 10.32Q191.066 11.041 190.796 11.468Q190.527 11.895 190.177 12.0665Q189.827 12.238 189.449 12.238Q189.078 12.238 188.732 12.0665Q188.385 11.895 188.119 11.468Q187.853 11.041 187.695 10.32Q187.538 9.599 187.538 8.5Q187.538 7.401 187.695 6.68Q187.853 5.959 188.119 5.532Q188.385 5.105 188.732 4.9335Q189.078 4.762 189.449 4.762Q189.827 4.762 190.177 4.9335Q190.527 5.105 190.796 5.532Q191.066 5.959 191.227 6.68ZM41.777 13.561L41 13.561Q40.755 13.561 40.615 13.4875Q40.475 13.414 40.405 13.19L40.251 12.679Q39.978 12.924 39.7155 13.1095Q39.453 13.295 39.173 13.421Q38.893 13.547 38.578 13.61Q38.263 13.673 37.878 13.673Q37.423 13.673 37.038 13.5501Q36.653 13.4272 36.3765 13.1814Q36.1 12.9356 35.946 12.5703Q35.792 12.2051 35.792 11.7205Q35.792 11.3131 36.0055 10.9163Q36.219 10.5195 36.716 10.2Q37.213 9.88042 38.039 9.66971Q38.865 9.459 40.09 9.459L40.09 9.03583Q40.09 8.30925 39.7855 7.96012Q39.481 7.611 38.9 7.611Q38.48 7.611 38.2 7.709Q37.92 7.807 37.7135 7.9295Q37.507 8.052 37.332 8.15Q37.157 8.248 36.947 8.248Q36.772 8.248 36.646 8.157Q36.52 8.066 36.443 7.933L36.128 7.38Q37.367 6.246 39.117 6.246Q39.747 6.246 40.2405 6.4525Q40.734 6.659 41.077 7.0265Q41.42 7.394 41.5985 7.905Q41.777 8.416 41.777 9.025L41.777 13.561ZM48.329 13.561L49.106 13.561L49.106 9.025Q49.106 8.416 48.9275 7.905Q48.749 7.394 48.406 7.0265Q48.063 6.659 47.5695 6.4525Q47.076 6.246 46.446 6.246Q44.696 6.246 43.457 7.38L43.772 7.933Q43.849 8.066 43.975 8.157Q44.101 8.248 44.276 8.248Q44.486 8.248 44.661 8.15Q44.836 8.052 45.0425 7.9295Q45.249 7.807 45.529 7.709Q45.809 7.611 46.229 7.611Q46.81 7.611 47.1145 7.96012Q47.419 8.30925 47.419 9.03583L47.419 9.459Q46.194 9.459 45.368 9.66971Q44.542 9.88042 44.045 10.2Q43.548 10.5195 43.3345 10.9163Q43.121 11.3131 43.121 11.7205Q43.121 12.2051 43.275 12.5703Q43.429 12.9356 43.7055 13.1814Q43.982 13.4272 44.367 13.5501Q44.752 13.673 45.207 13.673Q45.592 13.673 45.907 13.61Q46.222 13.547 46.502 13.421Q46.782 13.295 47.0445 13.1095Q47.307 12.924 47.58 12.679L47.734 13.19Q47.804 13.414 47.944 13.4875Q48.084 13.561 48.329 13.561ZM63.617 13.561L64.394 13.561L64.394 9.025Q64.394 8.416 64.2155 7.905Q64.037 7.394 63.694 7.0265Q63.351 6.659 62.8575 6.4525Q62.364 6.246 61.734 6.246Q59.984 6.246 58.745 7.38L59.06 7.933Q59.137 8.066 59.263 8.157Q59.389 8.248 59.564 8.248Q59.774 8.248 59.949 8.15Q60.124 8.052 60.3305 7.9295Q60.537 7.807 60.817 7.709Q61.097 7.611 61.517 7.611Q62.098 7.611 62.4025 7.96012Q62.707 8.30925 62.707 9.03583L62.707 9.459Q61.482 9.459 60.656 9.66971Q59.83 9.88042 59.333 10.2Q58.836 10.5195 58.6225 10.9163Q58.409 11.3131 58.409 11.7205Q58.409 12.2051 58.563 12.5703Q58.717 12.9356 58.9935 13.1814Q59.27 13.4272 59.655 13.5501Q60.04 13.673 60.495 13.673Q60.88 13.673 61.195 13.61Q61.51 13.547 61.79 13.421Q62.07 13.295 62.3325 13.1095Q62.595 12.924 62.868 12.679L63.022 13.19Q63.092 13.414 63.232 13.4875Q63.372 13.561 63.617 13.561ZM141.639 13.561L142.416 13.561L142.416 9.025Q142.416 8.416 142.238 7.905Q142.059 7.394 141.716 7.0265Q141.373 6.659 140.88 6.4525Q140.386 6.246 139.756 6.246Q138.006 6.246 136.767 7.38L137.082 7.933Q137.159 8.066 137.285 8.157Q137.411 8.248 137.586 8.248Q137.796 8.248 137.971 8.15Q138.146 8.052 138.353 7.9295Q138.559 7.807 138.839 7.709Q139.119 7.611 139.539 7.611Q140.12 7.611 140.425 7.96012Q140.729 8.30925 140.729 9.03583L140.729 9.459Q139.504 9.459 138.678 9.66971Q137.852 9.88042 137.355 10.2Q136.858 10.5195 136.645 10.9163Q136.431 11.3131 136.431 11.7205Q136.431 12.2051 136.585 12.5703Q136.739 12.9356 137.016 13.1814Q137.292 13.4272 137.677 13.5501Q138.062 13.673 138.517 13.673Q138.902 13.673 139.217 13.61Q139.532 13.547 139.812 13.421Q140.092 13.295 140.355 13.1095Q140.617 12.924 140.89 12.679L141.044 13.19Q141.114 13.414 141.254 13.4875Q141.394 13.561 141.639 13.561ZM156.948 13.561L157.725 13.561L157.725 9.025Q157.725 8.416 157.547 7.905Q157.368 7.394 157.025 7.0265Q156.682 6.659 156.189 6.4525Q155.695 6.246 155.065 6.246Q153.315 6.246 152.076 7.38L152.391 7.933Q152.468 8.066 152.594 8.157Q152.72 8.248 152.895 8.248Q153.105 8.248 153.28 8.15Q153.455 8.052 153.661 7.9295Q153.868 7.807 154.148 7.709Q154.428 7.611 154.848 7.611Q155.429 7.611 155.734 7.96012Q156.038 8.30925 156.038 9.03583L156.038 9.459Q154.813 9.459 153.987 9.66971Q153.161 9.88042 152.664 10.2Q152.167 10.5195 151.954 10.9163Q151.74 11.3131 151.74 11.7205Q151.74 12.2051 151.894 12.5703Q152.048 12.9356 152.325 13.1814Q152.601 13.4272 152.986 13.5501Q153.371 13.673 153.826 13.673Q154.211 13.673 154.526 13.61Q154.841 13.547 155.121 13.421Q155.401 13.295 155.663 13.1095Q155.926 12.924 156.199 12.679L156.353 13.19Q156.423 13.414 156.563 13.4875Q156.703 13.561 156.948 13.561ZM50.807 13.561L50.807 6.379L51.864 6.379Q52.2 6.379 52.305 6.694L52.424 7.261Q52.641 7.037 52.8825 6.855Q53.124 6.673 53.3935 6.54Q53.663 6.407 53.971 6.337Q54.279 6.267 54.643 6.267Q55.231 6.267 55.686 6.4665Q56.141 6.666 56.4455 7.0265Q56.75 7.387 56.9075 7.8875Q57.065 8.388 57.065 8.99L57.065 13.561L55.336 13.561L55.336 8.99Q55.336 8.332 55.0315 7.9715Q54.727 7.611 54.118 7.611Q53.67 7.611 53.278 7.814Q52.886 8.017 52.536 8.367L52.536 13.561L50.807 13.561ZM77.7815 6.484Q77.211 6.267 76.532 6.267Q75.727 6.267 75.0865 6.547Q74.446 6.827 74.0015 7.3065Q73.557 7.786 73.319 8.4335Q73.081 9.081 73.081 9.816Q73.081 10.761 73.354 11.4785Q73.627 12.196 74.103 12.6825Q74.579 13.169 75.223 13.4175Q75.867 13.666 76.616 13.666Q76.994 13.666 77.3965 13.61Q77.799 13.554 78.1875 13.4175Q78.576 13.281 78.933 13.0535Q79.29 12.826 79.577 12.49L79.073 11.86Q79.017 11.783 78.94 11.741Q78.863 11.699 78.758 11.699Q78.597 11.699 78.4255 11.797Q78.254 11.895 78.0265 12.014Q77.799 12.133 77.4945 12.231Q77.19 12.329 76.77 12.329Q75.916 12.329 75.398 11.811Q74.88 11.293 74.803 10.187L79.241 10.187Q79.36 10.187 79.437 10.1555Q79.514 10.124 79.5595 10.0505Q79.605 9.977 79.6225 9.8475Q79.64 9.718 79.64 9.522Q79.64 8.745 79.409 8.1395Q79.178 7.534 78.765 7.1175Q78.352 6.701 77.7815 6.484ZM123.583 6.484Q123.012 6.267 122.333 6.267Q121.528 6.267 120.888 6.547Q120.247 6.827 119.803 7.3065Q119.358 7.786 119.12 8.4335Q118.882 9.081 118.882 9.816Q118.882 10.761 119.155 11.4785Q119.428 12.196 119.904 12.6825Q120.38 13.169 121.024 13.4175Q121.668 13.666 122.417 13.666Q122.795 13.666 123.198 13.61Q123.6 13.554 123.989 13.4175Q124.377 13.281 124.734 13.0535Q125.091 12.826 125.378 12.49L124.874 11.86Q124.818 11.783 124.741 11.741Q124.664 11.699 124.559 11.699Q124.398 11.699 124.227 11.797Q124.055 11.895 123.827 12.014Q123.6 12.133 123.296 12.231Q122.991 12.329 122.571 12.329Q121.717 12.329 121.199 11.811Q120.681 11.293 120.604 10.187L125.042 10.187Q125.161 10.187 125.238 10.1555Q125.315 10.124 125.361 10.0505Q125.406 9.977 125.424 9.8475Q125.441 9.718 125.441 9.522Q125.441 8.745 125.21 8.1395Q124.979 7.534 124.566 7.1175Q124.153 6.701 123.583 6.484ZM159.426 13.561L159.426 6.379L160.483 6.379Q160.819 6.379 160.924 6.694L161.043 7.261Q161.26 7.037 161.502 6.855Q161.743 6.673 162.013 6.54Q162.282 6.407 162.59 6.337Q162.898 6.267 163.262 6.267Q163.85 6.267 164.305 6.4665Q164.76 6.666 165.065 7.0265Q165.369 7.387 165.527 7.8875Q165.684 8.388 165.684 8.99L165.684 13.561L163.955 13.561L163.955 8.99Q163.955 8.332 163.651 7.9715Q163.346 7.611 162.737 7.611Q162.289 7.611 161.897 7.814Q161.505 8.017 161.155 8.367L161.155 13.561L159.426 13.561ZM194.447 13.561L194.447 6.379L195.504 6.379Q195.84 6.379 195.945 6.694L196.057 7.226Q196.246 7.016 196.452 6.841Q196.659 6.666 196.893 6.54Q197.128 6.414 197.397 6.3405Q197.667 6.267 197.989 6.267Q198.668 6.267 199.105 6.6345Q199.543 7.002 199.76 7.611Q199.928 7.254 200.18 6.9985Q200.432 6.743 200.733 6.582Q201.034 6.421 201.373 6.344Q201.713 6.267 202.056 6.267Q202.651 6.267 203.113 6.449Q203.575 6.631 203.89 6.981Q204.205 7.331 204.369 7.835Q204.534 8.339 204.534 8.99L204.534 13.561L202.805 13.561L202.805 8.99Q202.805 8.304 202.504 7.9575Q202.203 7.611 201.622 7.611Q201.356 7.611 201.128 7.702Q200.901 7.793 200.729 7.9645Q200.558 8.136 200.46 8.395Q200.362 8.654 200.362 8.99L200.362 13.561L198.626 13.561L198.626 8.99Q198.626 8.269 198.335 7.94Q198.045 7.611 197.478 7.611Q197.107 7.611 196.781 7.7965Q196.456 7.982 196.176 8.304L196.176 13.561L194.447 13.561ZM68.643 15.535Q68.566 15.717 68.4435 15.8115Q68.321 15.906 68.069 15.906L66.781 15.906L68.125 13.029L65.22 6.379L66.732 6.379Q66.942 6.379 67.054 6.477Q67.166 6.575 67.222 6.701L68.755 10.425Q68.832 10.607 68.888 10.803Q68.944 10.999 68.986 11.195Q69.042 10.992 69.1085 10.803Q69.175 10.614 69.252 10.418L70.694 6.701Q70.75 6.561 70.8795 6.47Q71.009 6.379 71.17 6.379L72.556 6.379L68.643 15.535ZM111.994 13.561L111.994 6.379L110.265 6.379L110.265 13.561L111.994 13.561ZM75.384 7.933Q75.811 7.506 76.567 7.506Q76.952 7.506 77.239 7.6355Q77.526 7.765 77.715 7.989Q77.904 8.213 77.995 8.5105Q78.086 8.808 78.086 9.144L74.838 9.144Q74.957 8.36 75.384 7.933ZM121.185 7.933Q121.612 7.506 122.368 7.506Q122.753 7.506 123.04 7.6355Q123.327 7.765 123.516 7.989Q123.705 8.213 123.796 8.5105Q123.887 8.808 123.887 9.144L120.639 9.144Q120.758 8.36 121.185 7.933ZM147.498 7.611Q146.959 7.611 146.578 7.8385Q146.196 8.066 145.867 8.479L145.867 11.699Q146.161 12.063 146.508 12.2065Q146.854 12.35 147.26 12.35Q147.652 12.35 147.967 12.203Q148.282 12.056 148.503 11.755Q148.723 11.454 148.842 10.9955Q148.961 10.537 148.961 9.914Q148.961 9.284 148.86 8.8465Q148.758 8.409 148.569 8.136Q148.38 7.863 148.111 7.737Q147.841 7.611 147.498 7.611ZM38.417 12.483Q38.683 12.483 38.907 12.4348Q39.131 12.3865 39.3305 12.2901Q39.53 12.1936 39.7155 12.0523Q39.901 11.9111 40.09 11.7181L40.09 10.516Q39.334 10.516 38.8265 10.6112Q38.319 10.7063 38.011 10.8544Q37.703 11.0025 37.5735 11.1999Q37.444 11.3972 37.444 11.6299Q37.444 12.0882 37.7135 12.2856Q37.983 12.483 38.417 12.483ZM46.236 12.4348Q46.012 12.483 45.746 12.483Q45.312 12.483 45.0425 12.2856Q44.773 12.0882 44.773 11.6299Q44.773 11.3972 44.9025 11.1999Q45.032 11.0025 45.34 10.8544Q45.648 10.7063 46.1555 10.6112Q46.663 10.516 47.419 10.516L47.419 11.7181Q47.23 11.9111 47.0445 12.0523Q46.859 12.1936 46.6595 12.2901Q46.46 12.3865 46.236 12.4348ZM61.524 12.4348Q61.3 12.483 61.034 12.483Q60.6 12.483 60.3305 12.2856Q60.061 12.0882 60.061 11.6299Q60.061 11.3972 60.1905 11.1999Q60.32 11.0025 60.628 10.8544Q60.936 10.7063 61.4435 10.6112Q61.951 10.516 62.707 10.516L62.707 11.7181Q62.518 11.9111 62.3325 12.0523Q62.147 12.1936 61.9475 12.2901Q61.748 12.3865 61.524 12.4348ZM139.546 12.4348Q139.322 12.483 139.056 12.483Q138.622 12.483 138.353 12.2856Q138.083 12.0882 138.083 11.6299Q138.083 11.3972 138.213 11.1999Q138.342 11.0025 138.65 10.8544Q138.958 10.7063 139.466 10.6112Q139.973 10.516 140.729 10.516L140.729 11.7181Q140.54 11.9111 140.355 12.0523Q140.169 12.1936 139.97 12.2901Q139.77 12.3865 139.546 12.4348ZM154.855 12.4348Q154.631 12.483 154.365 12.483Q153.931 12.483 153.661 12.2856Q153.392 12.0882 153.392 11.6299Q153.392 11.3972 153.521 11.1999Q153.651 11.0025 153.959 10.8544Q154.267 10.7063 154.775 10.6112Q155.282 10.516 156.038 10.516L156.038 11.7181Q155.849 11.9111 155.663 12.0523Q155.478 12.1936 155.279 12.2901Q155.079 12.3865 154.855 12.4348Z" />
    </g>
    <g id="(57mm-x-40mm)-x-0-copies" fill="#444444" transform="translate(12 0)">
      <path d="M39.201 9.1125Q39.201 10.6105 39.586 12.021Q39.971 13.4315 40.699 14.7125Q40.741 14.7895 40.755 14.8455Q40.769 14.9015 40.769 14.9575Q40.769 15.0555 40.72 15.1185Q40.671 15.1815 40.594 15.2305L40.041 15.5665Q39.516 14.7615 39.1485 13.9705Q38.781 13.1795 38.5535 12.3815Q38.326 11.5835 38.221 10.775Q38.116 9.9665 38.116 9.1125Q38.116 8.2655 38.221 7.4535Q38.326 6.6415 38.5535 5.847Q38.781 5.0525 39.1485 4.2615Q39.516 3.4705 40.041 2.6585L40.594 3.0015Q40.671 3.0505 40.72 3.1135Q40.769 3.1765 40.769 3.2745Q40.769 3.3795 40.699 3.5125Q39.964 4.7865 39.5825 6.2005Q39.201 7.6145 39.201 9.1125ZM133.999 6.2005Q134.38 7.6145 134.38 9.1125Q134.38 10.6105 133.995 12.021Q133.61 13.4315 132.882 14.7125Q132.84 14.7895 132.826 14.8455Q132.812 14.9015 132.812 14.9575Q132.812 15.0555 132.861 15.1185Q132.91 15.1815 132.987 15.2305L133.54 15.5665Q134.065 14.7615 134.433 13.9705Q134.8 13.1795 135.028 12.3815Q135.255 11.5835 135.36 10.775Q135.465 9.9665 135.465 9.1125Q135.465 8.2655 135.36 7.4535Q135.255 6.6415 135.028 5.847Q134.8 5.0525 134.433 4.2615Q134.065 3.4705 133.54 2.6585L132.987 3.0015Q132.91 3.0505 132.861 3.1135Q132.812 3.1765 132.812 3.2745Q132.812 3.3795 132.882 3.5125Q133.617 4.7865 133.999 6.2005ZM184.441 4.538Q184.514 4.3805 184.514 4.1985Q184.514 4.0165 184.441 3.852Q184.367 3.6875 184.245 3.565Q184.122 3.4425 183.961 3.3725Q183.8 3.3025 183.618 3.3025Q183.436 3.3025 183.279 3.3725Q183.121 3.4425 182.999 3.565Q182.876 3.6875 182.806 3.852Q182.736 4.0165 182.736 4.1985Q182.736 4.3805 182.806 4.538Q182.876 4.6955 182.999 4.818Q183.121 4.9405 183.279 5.0105Q183.436 5.0805 183.618 5.0805Q183.8 5.0805 183.961 5.0105Q184.122 4.9405 184.245 4.818Q184.367 4.6955 184.441 4.538ZM108.886 8.5035Q108.886 9.8195 108.603 10.782Q108.319 11.7445 107.829 12.3745Q107.339 13.0045 106.67 13.3125Q106.002 13.6205 105.239 13.6205Q104.469 13.6205 103.807 13.3125Q103.146 13.0045 102.656 12.3745Q102.166 11.7445 101.886 10.782Q101.606 9.8195 101.606 8.5035Q101.606 7.1875 101.886 6.2215Q102.166 5.2555 102.656 4.622Q103.146 3.9885 103.807 3.6805Q104.469 3.3725 105.239 3.3725Q106.002 3.3725 106.67 3.6805Q107.339 3.9885 107.829 4.622Q108.319 5.2555 108.603 6.2215Q108.886 7.1875 108.886 8.5035ZM156.371 10.782Q156.654 9.8195 156.654 8.5035Q156.654 7.1875 156.371 6.2215Q156.087 5.2555 155.597 4.622Q155.107 3.9885 154.439 3.6805Q153.77 3.3725 153.007 3.3725Q152.237 3.3725 151.576 3.6805Q150.914 3.9885 150.424 4.622Q149.934 5.2555 149.654 6.2215Q149.374 7.1875 149.374 8.5035Q149.374 9.8195 149.654 10.782Q149.934 11.7445 150.424 12.3745Q150.914 13.0045 151.576 13.3125Q152.237 13.6205 153.007 13.6205Q153.77 13.6205 154.439 13.3125Q155.107 13.0045 155.597 12.3745Q156.087 11.7445 156.371 10.782ZM48.224 4.0305Q48.224 4.2965 48.056 4.468Q47.888 4.6395 47.489 4.6395L44.339 4.6395L43.877 7.2715Q44.661 7.1035 45.326 7.1035Q46.11 7.1035 46.7085 7.3345Q47.307 7.5655 47.713 7.9715Q48.119 8.3775 48.3255 8.9305Q48.532 9.4835 48.532 10.1345Q48.532 10.9325 48.252 11.5765Q47.972 12.2205 47.4855 12.679Q46.999 13.1375 46.341 13.3825Q45.683 13.6275 44.92 13.6275Q44.479 13.6275 44.073 13.54Q43.667 13.4525 43.317 13.3055Q42.967 13.1585 42.666 12.9695Q42.365 12.7805 42.134 12.5705L42.512 12.0385Q42.638 11.8565 42.848 11.8565Q42.981 11.8565 43.1595 11.965Q43.338 12.0735 43.59 12.2065Q43.842 12.3395 44.1815 12.448Q44.521 12.5565 44.99 12.5565Q45.515 12.5565 45.935 12.3885Q46.355 12.2205 46.6525 11.909Q46.95 11.5975 47.111 11.1635Q47.272 10.7295 47.272 10.1905Q47.272 9.7215 47.1355 9.3435Q46.999 8.9655 46.7225 8.6995Q46.446 8.4335 46.033 8.2865Q45.62 8.1395 45.067 8.1395Q44.689 8.1395 44.283 8.2025Q43.877 8.2655 43.443 8.4055L42.659 8.1745L43.471 3.4845L48.224 3.4845L48.224 4.0305ZM57.086 4.0445L57.086 3.4845L50.268 3.4845L50.268 4.3315Q50.268 4.4505 50.3625 4.545Q50.457 4.6395 50.576 4.6395L55.812 4.6395Q55.693 4.7725 55.5985 4.9195Q55.504 5.0665 55.413 5.2415L51.199 13.5155L52.088 13.5155Q52.361 13.5155 52.522 13.386Q52.683 13.2565 52.774 13.0745L56.925 4.6955Q56.981 4.5905 57.0335 4.4365Q57.086 4.2825 57.086 4.0445ZM100.906 9.8965L99.387 9.8965L99.387 3.4845L98.225 3.4845L93.346 9.9595L93.472 10.5965Q93.5 10.7155 93.6015 10.796Q93.703 10.8765 93.843 10.8765L98.288 10.8765L98.288 13.5155L99.387 13.5155L99.387 10.8765L100.633 10.8765Q100.773 10.8765 100.839 10.7995Q100.906 10.7225 100.906 10.6105L100.906 9.8965ZM107.591 8.5035Q107.591 7.3555 107.398 6.575Q107.206 5.7945 106.881 5.3185Q106.555 4.8425 106.128 4.636Q105.701 4.4295 105.239 4.4295Q104.777 4.4295 104.35 4.636Q103.923 4.8425 103.601 5.3185Q103.279 5.7945 103.086 6.575Q102.894 7.3555 102.894 8.5035Q102.894 9.6515 103.086 10.4285Q103.279 11.2055 103.601 11.6815Q103.923 12.1575 104.35 12.364Q104.777 12.5705 105.239 12.5705Q105.701 12.5705 106.128 12.364Q106.555 12.1575 106.881 11.6815Q107.206 11.2055 107.398 10.4285Q107.591 9.6515 107.591 8.5035ZM155.167 6.575Q155.359 7.3555 155.359 8.5035Q155.359 9.6515 155.167 10.4285Q154.974 11.2055 154.649 11.6815Q154.323 12.1575 153.896 12.364Q153.469 12.5705 153.007 12.5705Q152.545 12.5705 152.118 12.364Q151.691 12.1575 151.369 11.6815Q151.047 11.2055 150.855 10.4285Q150.662 9.6515 150.662 8.5035Q150.662 7.3555 150.855 6.575Q151.047 5.7945 151.369 5.3185Q151.691 4.8425 152.118 4.636Q152.545 4.4295 153.007 4.4295Q153.469 4.4295 153.896 4.636Q154.323 4.8425 154.649 5.3185Q154.974 5.7945 155.167 6.575ZM98.2985 5.3675Q98.288 5.5775 98.288 5.7595L98.288 9.8965L94.697 9.8965L98.344 4.9335Q98.309 5.1575 98.2985 5.3675ZM175.12 15.9165L175.12 6.4245L175.862 6.4245Q176.128 6.4245 176.198 6.6835L176.303 7.5235Q176.758 6.9705 177.343 6.6345Q177.927 6.2985 178.69 6.2985Q179.299 6.2985 179.796 6.533Q180.293 6.7675 180.643 7.226Q180.993 7.6845 181.182 8.3635Q181.371 9.0425 181.371 9.9245Q181.371 10.7085 181.161 11.384Q180.951 12.0595 180.559 12.553Q180.167 13.0465 179.597 13.33Q179.026 13.6135 178.312 13.6135Q177.654 13.6135 177.189 13.3965Q176.723 13.1795 176.366 12.7805L176.366 15.9165L175.12 15.9165ZM58.64 13.5155L58.64 6.4245L59.382 6.4245Q59.648 6.4245 59.718 6.6835L59.809 7.4115Q60.201 6.9285 60.6875 6.6205Q61.174 6.3125 61.818 6.3125Q62.539 6.3125 62.9835 6.7115Q63.428 7.1105 63.624 7.7895Q63.771 7.4045 64.0125 7.1245Q64.254 6.8445 64.555 6.6625Q64.856 6.4805 65.1955 6.3965Q65.535 6.3125 65.885 6.3125Q66.445 6.3125 66.8825 6.491Q67.32 6.6695 67.6245 7.0125Q67.929 7.3555 68.09 7.856Q68.251 8.3565 68.251 9.0005L68.251 13.5155L67.005 13.5155L67.005 9.0005Q67.005 8.1675 66.641 7.737Q66.277 7.3065 65.584 7.3065Q65.276 7.3065 64.9995 7.415Q64.723 7.5235 64.513 7.7335Q64.303 7.9435 64.1805 8.262Q64.058 8.5805 64.058 9.0005L64.058 13.5155L62.812 13.5155L62.812 9.0005Q62.812 8.1465 62.469 7.7265Q62.126 7.3065 61.468 7.3065Q61.006 7.3065 60.6105 7.555Q60.215 7.8035 59.886 8.2305L59.886 13.5155L58.64 13.5155ZM70.134 6.4245L70.134 13.5155L71.38 13.5155L71.38 8.2305Q71.709 7.8035 72.1045 7.555Q72.5 7.3065 72.962 7.3065Q73.62 7.3065 73.963 7.7265Q74.306 8.1465 74.306 9.0005L74.306 13.5155L75.552 13.5155L75.552 9.0005Q75.552 8.5805 75.6745 8.262Q75.797 7.9435 76.007 7.7335Q76.217 7.5235 76.4935 7.415Q76.77 7.3065 77.078 7.3065Q77.771 7.3065 78.135 7.737Q78.499 8.1675 78.499 9.0005L78.499 13.5155L79.745 13.5155L79.745 9.0005Q79.745 8.3565 79.584 7.856Q79.423 7.3555 79.1185 7.0125Q78.814 6.6695 78.3765 6.491Q77.939 6.3125 77.379 6.3125Q77.029 6.3125 76.6895 6.3965Q76.35 6.4805 76.049 6.6625Q75.748 6.8445 75.5065 7.1245Q75.265 7.4045 75.118 7.7895Q74.922 7.1105 74.4775 6.7115Q74.033 6.3125 73.312 6.3125Q72.668 6.3125 72.1815 6.6205Q71.695 6.9285 71.303 7.4115L71.212 6.6835Q71.142 6.4245 70.876 6.4245L70.134 6.4245ZM110.328 6.4245L110.328 13.5155L111.574 13.5155L111.574 8.2305Q111.903 7.8035 112.299 7.555Q112.694 7.3065 113.156 7.3065Q113.814 7.3065 114.157 7.7265Q114.5 8.1465 114.5 9.0005L114.5 13.5155L115.746 13.5155L115.746 9.0005Q115.746 8.5805 115.868 8.262Q115.991 7.9435 116.201 7.7335Q116.411 7.5235 116.688 7.415Q116.964 7.3065 117.272 7.3065Q117.965 7.3065 118.329 7.737Q118.693 8.1675 118.693 9.0005L118.693 13.5155L119.939 13.5155L119.939 9.0005Q119.939 8.3565 119.778 7.856Q119.617 7.3555 119.313 7.0125Q119.008 6.6695 118.571 6.491Q118.133 6.3125 117.573 6.3125Q117.223 6.3125 116.883 6.3965Q116.544 6.4805 116.243 6.6625Q115.942 6.8445 115.701 7.1245Q115.459 7.4045 115.312 7.7895Q115.116 7.1105 114.672 6.7115Q114.227 6.3125 113.506 6.3125Q112.862 6.3125 112.376 6.6205Q111.889 6.9285 111.497 7.4115L111.406 6.6835Q111.336 6.4245 111.07 6.4245L110.328 6.4245ZM121.822 13.5155L121.822 6.4245L122.564 6.4245Q122.83 6.4245 122.9 6.6835L122.991 7.4115Q123.383 6.9285 123.87 6.6205Q124.356 6.3125 125 6.3125Q125.721 6.3125 126.166 6.7115Q126.61 7.1105 126.806 7.7895Q126.953 7.4045 127.195 7.1245Q127.436 6.8445 127.737 6.6625Q128.038 6.4805 128.378 6.3965Q128.717 6.3125 129.067 6.3125Q129.627 6.3125 130.064 6.491Q130.502 6.6695 130.807 7.0125Q131.111 7.3555 131.272 7.856Q131.433 8.3565 131.433 9.0005L131.433 13.5155L130.187 13.5155L130.187 9.0005Q130.187 8.1675 129.823 7.737Q129.459 7.3065 128.766 7.3065Q128.458 7.3065 128.182 7.415Q127.905 7.5235 127.695 7.7335Q127.485 7.9435 127.363 8.262Q127.24 8.5805 127.24 9.0005L127.24 13.5155L125.994 13.5155L125.994 9.0005Q125.994 8.1465 125.651 7.7265Q125.308 7.3065 124.65 7.3065Q124.188 7.3065 123.793 7.555Q123.397 7.8035 123.068 8.2305L123.068 13.5155L121.822 13.5155ZM165.635 7.6845Q165.579 7.7615 165.523 7.8035Q165.467 7.8455 165.362 7.8455Q165.257 7.8455 165.135 7.758Q165.012 7.6705 164.823 7.5655Q164.634 7.4605 164.365 7.373Q164.095 7.2855 163.703 7.2855Q163.185 7.2855 162.786 7.471Q162.387 7.6565 162.118 8.0065Q161.848 8.3565 161.712 8.8535Q161.575 9.3505 161.575 9.9665Q161.575 10.6105 161.722 11.111Q161.869 11.6115 162.135 11.951Q162.401 12.2905 162.783 12.469Q163.164 12.6475 163.64 12.6475Q164.095 12.6475 164.389 12.539Q164.683 12.4305 164.879 12.2975Q165.075 12.1645 165.201 12.056Q165.327 11.9475 165.453 11.9475Q165.614 11.9475 165.691 12.0665L166.041 12.5215Q165.579 13.0885 164.886 13.351Q164.193 13.6135 163.423 13.6135Q162.758 13.6135 162.188 13.3685Q161.617 13.1235 161.197 12.658Q160.777 12.1925 160.536 11.5135Q160.294 10.8345 160.294 9.9665Q160.294 9.1755 160.515 8.5035Q160.735 7.8315 161.159 7.345Q161.582 6.8585 162.205 6.5855Q162.828 6.3125 163.633 6.3125Q164.375 6.3125 164.949 6.554Q165.523 6.7955 165.964 7.2365L165.635 7.6845ZM171.61 6.5715Q170.983 6.3125 170.206 6.3125Q169.429 6.3125 168.803 6.5715Q168.176 6.8305 167.735 7.3065Q167.294 7.7825 167.056 8.458Q166.818 9.1335 166.818 9.9665Q166.818 10.8065 167.056 11.4785Q167.294 12.1505 167.735 12.6265Q168.176 13.1025 168.803 13.358Q169.429 13.6135 170.206 13.6135Q170.983 13.6135 171.61 13.358Q172.236 13.1025 172.674 12.6265Q173.111 12.1505 173.346 11.4785Q173.58 10.8065 173.58 9.9665Q173.58 9.1335 173.346 8.458Q173.111 7.7825 172.674 7.3065Q172.236 6.8305 171.61 6.5715ZM189.239 6.3125Q189.876 6.3125 190.415 6.526Q190.954 6.7395 191.346 7.142Q191.738 7.5445 191.958 8.136Q192.179 8.7275 192.179 9.4835Q192.179 9.7775 192.116 9.8755Q192.053 9.9735 191.878 9.9735L187.16 9.9735Q187.174 10.6455 187.342 11.1425Q187.51 11.6395 187.804 11.972Q188.098 12.3045 188.504 12.469Q188.91 12.6335 189.414 12.6335Q189.883 12.6335 190.223 12.525Q190.562 12.4165 190.807 12.2905Q191.052 12.1645 191.217 12.056Q191.381 11.9475 191.5 11.9475Q191.654 11.9475 191.738 12.0665L192.088 12.5215Q191.857 12.8015 191.535 13.008Q191.213 13.2145 190.846 13.3475Q190.478 13.4805 190.086 13.547Q189.694 13.6135 189.309 13.6135Q188.574 13.6135 187.954 13.365Q187.335 13.1165 186.883 12.637Q186.432 12.1575 186.18 11.4505Q185.928 10.7435 185.928 9.8265Q185.928 9.0845 186.156 8.4405Q186.383 7.7965 186.81 7.324Q187.237 6.8515 187.853 6.582Q188.469 6.3125 189.239 6.3125ZM197.569 7.7475Q197.744 7.7475 197.828 7.5935L198.108 7.1385Q197.702 6.7535 197.146 6.533Q196.589 6.3125 195.889 6.3125Q195.287 6.3125 194.818 6.4805Q194.349 6.6485 194.027 6.932Q193.705 7.2155 193.537 7.59Q193.369 7.9645 193.369 8.3705Q193.369 8.8255 193.527 9.144Q193.684 9.4625 193.943 9.6795Q194.202 9.8965 194.535 10.04Q194.867 10.1835 195.214 10.2955Q195.56 10.4075 195.893 10.509Q196.225 10.6105 196.484 10.747Q196.743 10.8835 196.9 11.076Q197.058 11.2685 197.058 11.5625Q197.058 11.8005 196.971 12.0105Q196.883 12.2205 196.701 12.3815Q196.519 12.5425 196.246 12.637Q195.973 12.7315 195.609 12.7315Q195.182 12.7315 194.898 12.6335Q194.615 12.5355 194.415 12.4165Q194.216 12.2975 194.076 12.1995Q193.936 12.1015 193.81 12.1015Q193.684 12.1015 193.607 12.1505Q193.53 12.1995 193.474 12.2905L193.18 12.7665Q193.6 13.1445 194.202 13.386Q194.804 13.6275 195.546 13.6275Q196.197 13.6275 196.694 13.4525Q197.191 13.2775 197.534 12.973Q197.877 12.6685 198.052 12.252Q198.227 11.8355 198.227 11.3455Q198.227 10.9185 198.07 10.614Q197.912 10.3095 197.653 10.0995Q197.394 9.8895 197.065 9.7495Q196.736 9.6095 196.389 9.494Q196.043 9.3785 195.714 9.277Q195.385 9.1755 195.126 9.0425Q194.867 8.9095 194.71 8.7275Q194.552 8.5455 194.552 8.2725Q194.552 8.0555 194.646 7.87Q194.741 7.6845 194.919 7.5445Q195.098 7.4045 195.35 7.324Q195.602 7.2435 195.917 7.2435Q196.281 7.2435 196.547 7.324Q196.813 7.4045 197.006 7.499Q197.198 7.5935 197.331 7.6705Q197.464 7.7475 197.569 7.7475ZM85.989 9.8825L83.602 6.4245L84.799 6.4245Q84.953 6.4245 85.023 6.4735Q85.093 6.5225 85.149 6.6135L86.885 9.2735Q86.948 9.0775 87.067 8.8815L88.593 6.6415Q88.663 6.5435 88.733 6.484Q88.803 6.4245 88.908 6.4245L90.056 6.4245L87.669 9.8125L90.154 13.5155L88.957 13.5155Q88.803 13.5155 88.7155 13.435Q88.628 13.3545 88.572 13.2565L86.787 10.4775Q86.738 10.6805 86.64 10.8415L84.988 13.2565Q84.918 13.3545 84.8375 13.435Q84.757 13.5155 84.617 13.5155L83.504 13.5155L85.989 9.8825ZM141.877 9.8825L139.49 6.4245L140.687 6.4245Q140.841 6.4245 140.911 6.4735Q140.981 6.5225 141.037 6.6135L142.773 9.2735Q142.836 9.0775 142.955 8.8815L144.481 6.6415Q144.551 6.5435 144.621 6.484Q144.691 6.4245 144.796 6.4245L145.944 6.4245L143.557 9.8125L146.042 13.5155L144.845 13.5155Q144.691 13.5155 144.604 13.435Q144.516 13.3545 144.46 13.2565L142.675 10.4775Q142.626 10.6805 142.528 10.8415L140.876 13.2565Q140.806 13.3545 140.726 13.435Q140.645 13.5155 140.505 13.5155L139.392 13.5155L141.877 9.8825ZM184.234 13.5155L184.234 6.4245L182.988 6.4245L182.988 13.5155L184.234 13.5155ZM189.267 7.2295Q188.364 7.2295 187.846 7.751Q187.328 8.2725 187.202 9.1965L191.059 9.1965Q191.059 8.7625 190.94 8.402Q190.821 8.0415 190.59 7.779Q190.359 7.5165 190.027 7.373Q189.694 7.2295 189.267 7.2295ZM171.774 11.937Q171.256 12.6405 170.206 12.6405Q169.674 12.6405 169.282 12.4585Q168.89 12.2765 168.628 11.937Q168.365 11.5975 168.236 11.1005Q168.106 10.6035 168.106 9.9735Q168.106 9.3435 168.236 8.843Q168.365 8.3425 168.628 7.9995Q168.89 7.6565 169.282 7.4745Q169.674 7.2925 170.206 7.2925Q171.256 7.2925 171.774 7.9995Q172.292 8.7065 172.292 9.9735Q172.292 11.2335 171.774 11.937ZM178.277 7.3065Q177.668 7.3065 177.21 7.5865Q176.751 7.8665 176.366 8.3775L176.366 11.8075Q176.709 12.2695 177.119 12.4585Q177.528 12.6475 178.032 12.6475Q179.019 12.6475 179.551 11.9405Q180.083 11.2335 180.083 9.9245Q180.083 9.2315 179.961 8.7345Q179.838 8.2375 179.607 7.919Q179.376 7.6005 179.04 7.4535Q178.704 7.3065 178.277 7.3065Z" />
    </g>
  </g>
</svg>