<?xml version="1.0" encoding="utf-8"?>
<svg width="12px" height="12px" viewbox="0 0 12 12" version="1.1" xmlns:xlink="http://www.w3.org/1999/xlink" xmlns="http://www.w3.org/2000/svg">
  <g id="3222013">
    <path d="M10.219 1.75996C7.87281 -0.586257 4.10696 -0.587053 1.75996 1.75996C-0.586257 4.10616 -0.587053 7.87201 1.75996 10.219C4.10616 12.5652 7.87201 12.566 10.219 10.219C12.5652 7.87283 12.566 4.10696 10.219 1.75996ZM5.98949 11.276C3.07447 11.276 0.702936 8.9045 0.702936 5.98949C0.702936 3.07447 3.07447 0.702936 5.98949 0.702936C8.9045 0.702936 11.276 3.07447 11.276 5.98949C11.276 8.9045 8.9045 11.276 5.98949 11.276Z" id="Shape" fill="#FFFFFF" stroke="none" />
    <path d="M4.31939 0.0994498C4.17443 -0.0291818 3.95268 -0.0159654 3.82405 0.128994C3.69542 0.273929 3.70863 0.495707 3.85359 0.624339C4.25883 0.983988 4.49125 1.50071 4.49125 2.04205C4.49125 3.08682 3.64129 3.93678 2.59651 3.93678C1.55174 3.93678 0.701778 3.08682 0.701778 2.04205C0.701778 1.49536 0.938058 0.975239 1.35001 0.615029C1.49588 0.487473 1.51076 0.265812 1.38318 0.119918C1.25563 -0.0259771 1.03396 -0.0408075 0.88807 0.086748C0.323696 0.580222 0 1.2929 0 2.04205C0 3.47377 1.16477 4.63854 2.59649 4.63854C4.02821 4.63854 5.19298 3.47377 5.19298 2.04205C5.19301 1.3002 4.8746 0.592175 4.31939 0.0994498Z" transform="translate(3.3925781 3.9474487)" id="Path" fill="#FFFFFF" fill-rule="evenodd" stroke="none" />
    <path d="M0.350877 2.5731C0.544655 2.5731 0.701754 2.416 0.701754 2.22222L0.701754 0.350877C0.701754 0.157099 0.544655 0 0.350877 0C0.157099 0 0 0.157099 0 0.350877L0 2.22222C0 2.41602 0.157099 2.5731 0.350877 2.5731Z" transform="translate(5.638672 2.8315735)" id="Path" fill="#FFFFFF" fill-rule="evenodd" stroke="none" />
  </g>
</svg>