<?xml version="1.0" encoding="utf-8"?>
<svg width="240px" height="195px" viewbox="0 0 240 195" version="1.1" xmlns:xlink="http://www.w3.org/1999/xlink" xmlns="http://www.w3.org/2000/svg">
  <g id="Sultan-logo">
    <g id="Group" transform="translate(84.721466 0)">
      <path d="M2.02306 9.43396C1.42639 9.30818 1.04282 9.0566 0.914959 8.59539C0.87234 8.42767 0.82972 8.21803 0.87234 8.00839C0.914959 7.79874 1.0002 7.5891 1.12806 7.42138C1.55425 7.79874 1.98044 8.00839 2.49187 8.13417C3.00331 8.25996 3.51474 8.21803 4.02617 8.09224C4.5376 7.92453 4.96379 7.71489 5.26213 7.46331C5.56046 7.21174 5.6457 6.87631 5.51784 6.54088C5.43261 6.28931 5.26213 6.12159 4.96379 6.07966C4.66546 5.99581 4.19665 5.95388 3.59998 5.91195C2.96069 5.87002 2.44925 5.82809 2.02306 5.74424C1.59687 5.66038 1.21329 5.53459 0.87234 5.28302C0.531385 5.03145 0.275669 4.69602 0.105192 4.19287C-0.0652851 3.6478 -0.0226658 3.10273 0.190431 2.59958C0.446147 2.09644 0.82972 1.63522 1.42639 1.21593C1.98044 0.796646 2.66235 0.503145 3.47212 0.251572C4.02617 0.0838574 4.5376 0 4.96379 0C5.38999 0 5.77356 0.0419287 6.0719 0.167715C6.37023 0.293501 6.54071 0.503145 6.62595 0.754717C6.75381 1.13208 6.71119 1.42558 6.49809 1.71908C6.32761 2.01258 6.02928 2.18029 5.6457 2.30608C5.26213 2.43187 4.92117 2.38994 4.58022 2.30608C4.23927 2.18029 3.94093 1.92872 3.6426 1.59329C3.08854 1.84486 2.66235 2.09644 2.36402 2.43187C2.06568 2.7673 1.98044 3.0608 2.06568 3.3543C2.15092 3.60587 2.3214 3.77358 2.61973 3.81551C2.91807 3.85744 3.38688 3.9413 4.02617 3.9413C4.66546 3.98323 5.17689 4.02516 5.56046 4.06709C5.98666 4.10901 6.37023 4.27673 6.71119 4.48637C7.05214 4.69602 7.30786 5.07338 7.47833 5.53459C7.64881 6.03774 7.60619 6.54088 7.39309 7.0021C7.18 7.46331 6.79642 7.92453 6.28499 8.25996C5.77356 8.63732 5.17689 8.93082 4.49498 9.14046C3.4295 9.43396 2.61973 9.51782 2.02306 9.43396Z" transform="translate(0 4.2767334)" id="Path" fill="#509AFF" fill-rule="evenodd" stroke="none" />
      <path d="M1.06548 6.11131C0.980244 5.31466 0.895006 4.01487 0.767148 2.08615L0 1.20565C0.63929 0.576717 1.23596 0.199358 1.83263 0.0316434C2.34406 -0.0941428 2.6424 0.15743 2.77026 0.744432C2.81287 0.954075 2.89811 1.83458 2.98335 3.34401C3.02597 4.3503 3.11121 5.14695 3.15383 5.73395C3.19645 6.32095 3.23907 6.74024 3.32431 6.99181C3.40955 7.28531 3.49478 7.53688 3.58002 7.7046C3.66526 7.87231 3.79312 8.04003 3.9636 8.16582C3.66526 8.54317 3.28169 8.79475 2.85549 8.8786C2.4293 8.96246 2.13097 8.96246 1.87525 8.79475C1.61953 8.62703 1.44906 8.33353 1.36382 7.87231C1.23596 7.45303 1.15072 6.90795 1.06548 6.11131Z" transform="translate(8.245483 2.7356567)" id="Path" fill="#509AFF" fill-rule="evenodd" stroke="none" />
      <path d="M8.48124 0.980003C8.48124 0.980003 8.48124 1.23158 8.48124 1.73472C8.48124 2.23786 8.48124 2.78294 8.48124 3.36994C8.43862 5.42445 8.48124 6.64038 8.52386 6.97581C8.56648 7.26931 8.65172 7.52088 8.73696 7.73053C8.8222 7.94017 8.95006 8.06596 9.07791 8.23367C8.73696 8.61103 8.35338 8.82067 7.88457 8.8626C7.24528 8.98839 6.69123 8.8626 6.26504 8.61103C5.83885 8.35946 5.37003 7.73053 4.90122 6.85002C4.43241 5.96952 3.79312 4.54394 2.98335 2.57329L2.89811 2.57329L2.89811 4.3343C2.85549 6.30495 2.89811 7.52088 2.94073 7.89824C2.98335 8.19174 3.06859 8.44332 3.15383 8.65296C3.23907 8.82067 3.36693 8.98839 3.49478 9.1561C3.15383 9.53346 2.77026 9.74311 2.34406 9.78503C1.91787 9.86889 1.57691 9.78503 1.36382 9.61732C1.15072 9.4496 0.980244 9.11417 0.895006 8.65296C0.809767 8.2756 0.767148 7.6886 0.767148 6.89195C0.767148 6.09531 0.724528 4.75359 0.724528 2.8668L0 1.94436C0.681909 1.35736 1.27858 1.02193 1.87525 0.896146L1.87525 0.896146L1.87525 0.896146C2.4293 0.812288 2.89811 0.896146 3.28169 1.14772C3.66526 1.39929 4.04883 1.90243 4.47503 2.69908C4.90122 3.49573 5.45527 4.75359 6.22242 6.55652L6.30766 6.55652C6.26504 5.92759 6.26504 4.41816 6.26504 1.98629L5.62575 1.02193C5.92408 0.728431 6.26504 0.518787 6.56337 0.351072C6.86171 0.183357 7.16004 0.057571 7.45838 0.0156423C7.96981 -0.0682151 8.26815 0.183357 8.396 0.812288C8.48124 0.896146 8.48124 0.980003 8.48124 0.980003Z" transform="translate(13.018845 0.86486816)" id="Path" fill="#509AFF" fill-rule="evenodd" stroke="none" />
      <path d="M1.17223 8.18679C0.490324 7.64171 0.10675 6.80314 0.0215112 5.71299C-0.0637274 4.7067 0.10675 3.78427 0.490324 2.9457C0.873897 2.10712 1.47057 1.39433 2.23772 0.891188C3.00486 0.388043 3.89987 0.0526136 4.88011 0.0106849C5.56202 -0.0312439 6.11607 0.0526136 6.54227 0.220328C6.96846 0.429972 7.18156 0.723473 7.22417 1.14276C7.26679 1.47819 7.13894 1.77169 6.92584 1.98133C6.71274 2.23291 6.41441 2.35869 6.03083 2.35869C5.64726 2.40062 5.30631 2.31676 5.00797 2.14905C4.66702 1.98133 4.4113 1.72976 4.1982 1.39433C3.77201 1.60398 3.38844 1.89748 3.0901 2.35869C2.79177 2.81991 2.53605 3.28113 2.36557 3.86813C2.1951 4.45513 2.15248 5.04213 2.1951 5.67106C2.23772 6.38385 2.45081 6.97085 2.74915 7.34821C3.04748 7.72557 3.43106 7.89328 3.94249 7.89328C4.32606 7.85136 4.6244 7.72557 4.92273 7.51593C5.22107 7.30628 5.43416 7.01278 5.56202 6.67735C5.7325 6.34192 5.77512 5.96456 5.77512 5.54528C6.67012 5.46142 7.13894 5.75492 7.18156 6.42578C7.22417 6.84507 7.09632 7.22242 6.79798 7.59978C6.49965 7.97714 6.11607 8.27064 5.60464 8.52221C5.09321 8.77379 4.53916 8.89957 3.89987 8.98343C2.74915 8.98343 1.85414 8.73186 1.17223 8.18679Z" transform="translate(23.225967 0.2408905)" id="Path" fill="#509AFF" fill-rule="evenodd" stroke="none" />
      <path d="M2.85549 2.09644C2.81287 2.43187 2.77026 2.7673 2.68502 3.10273L2.51454 4.19287C2.81287 4.2348 3.11121 4.2348 3.45216 4.2348L4.43241 3.98323C4.47503 4.15094 4.47503 4.27673 4.47503 4.44444C4.47503 4.73795 4.38979 4.98952 4.17669 5.19916C3.9636 5.36688 3.66526 5.45073 3.28169 5.49266C3.02597 5.49266 2.68502 5.45073 2.34406 5.4088C2.2162 6.28931 2.13097 6.87631 2.13097 7.16981L2.13097 7.2956L4.26193 7.25367C4.77336 7.16981 5.28479 7.04403 5.83885 6.83438C5.92408 7.04403 5.9667 7.25367 5.9667 7.50524C5.9667 7.92453 5.83885 8.25996 5.54051 8.51153C5.24218 8.7631 4.77336 8.88889 4.17669 8.88889C3.5374 8.88889 2.89811 8.80503 2.34406 8.59539C2.00311 8.80503 1.66215 8.93082 1.23596 8.93082C0.809767 8.93082 0.511432 8.84696 0.298335 8.63732C0.0852386 8.42767 0 8.09224 0 7.63103C0 7.25367 0.0426193 6.62474 0.127858 5.82809C0.213097 5.03145 0.426193 3.68973 0.724528 1.88679L0.170477 0.754717C0.937625 0.251572 1.61953 0 2.2162 0C2.6424 0 2.89811 0.209644 2.98335 0.628931C3.5374 0.587002 4.04883 0.545073 4.51765 0.461216C4.98646 0.377358 5.58313 0.209644 6.35028 0.0419287C6.3929 0.251572 6.43552 0.503145 6.43552 0.712788C6.43552 1.21593 6.26504 1.63522 5.92408 1.88679C5.58313 2.13836 5.11432 2.30608 4.51765 2.30608C3.9636 2.30608 3.45216 2.22222 2.85549 2.09644Z" transform="translate(32.027054 0)" id="Path" fill="#509AFF" fill-rule="evenodd" stroke="none" />
      <path d="M0.809767 5.13267C0.937625 4.54567 1.19334 3.70709 1.5343 2.57502C1.06548 2.53309 0.681909 2.36538 0.426193 2.1138C0.170477 1.86223 0 1.48487 0 1.06559C0.468812 0.981728 0.895006 0.897871 1.23596 0.772084C1.57691 0.646298 1.96049 0.520512 2.38668 0.352797C2.72764 0.227011 2.98335 0.101225 3.15383 0.0592962C3.32431 0.0173674 3.5374 -0.0245613 3.70788 0.0173674C4.17669 0.0592962 4.38979 0.352797 4.34717 0.855942C4.34717 1.02366 4.26193 1.27523 4.17669 1.65259C4.09145 1.98802 3.9636 2.4073 3.83574 2.78466C3.5374 3.66517 3.32431 4.41988 3.15383 5.04881C2.98335 5.67774 2.85549 6.26475 2.81287 6.80982C2.77026 7.31296 2.81287 7.77418 2.98335 8.10961C2.51454 8.31925 2.08835 8.40311 1.66215 8.36118C1.23596 8.31925 0.937625 8.19347 0.767148 7.89997C0.59667 7.64839 0.511432 7.27104 0.554051 6.76789C0.554051 6.22282 0.681909 5.71967 0.809767 5.13267Z" transform="translate(43.704742 0.9889221)" id="Path" fill="#509AFF" fill-rule="evenodd" stroke="none" />
      <path d="M0.426193 9.19956C0.255716 9.03185 0.0852386 8.73835 0 8.36099C0.980244 8.2352 1.91787 7.9417 2.72764 7.48048C3.5374 7.01927 4.30455 6.30648 4.94384 5.34212L4.8586 5.34212C4.17669 5.92912 3.40954 6.18069 2.59978 6.05491C1.83263 5.92912 1.27858 5.59369 0.937625 5.04862C0.59667 4.50354 0.468812 3.87461 0.59667 3.1199C0.724528 2.44904 0.980244 1.82011 1.44906 1.31696C1.91787 0.813817 2.47192 0.436459 3.15383 0.226815C3.83574 0.0171715 4.51765 -0.066686 5.24218 0.0591002C6.09456 0.184886 6.77647 0.562245 7.20266 1.19118C7.62886 1.82011 7.75671 2.65868 7.58624 3.7069C7.41576 4.83897 6.94695 5.88719 6.22242 6.80962C5.49789 7.77398 4.68812 8.48677 3.7505 8.98992C2.81287 9.49306 2.00311 9.66078 1.23596 9.53499C0.895006 9.49306 0.59667 9.36728 0.426193 9.19956ZM4.47503 4.79704C4.73074 4.67126 4.98646 4.46161 5.19956 4.16811C5.41265 3.87461 5.54051 3.49725 5.62575 3.07797C5.71099 2.61675 5.66837 2.23939 5.54051 1.90396C5.41265 1.56853 5.11432 1.35889 4.68812 1.27503C4.43241 1.2331 4.17669 1.27503 3.87836 1.40082C3.58002 1.5266 3.32431 1.73625 3.11121 2.02975C2.89811 2.32325 2.72764 2.74254 2.6424 3.20375C2.55716 3.62304 2.59978 4.0004 2.77025 4.33583C2.94073 4.67126 3.23907 4.83897 3.7505 4.92283C4.00621 4.96476 4.21931 4.92283 4.47503 4.79704Z" transform="translate(48.733826 1.7857666)" id="Shape" fill="#509AFF" stroke="none" />
      <path d="M5.8577 3.31237C5.09055 4.15094 4.3234 5.1153 3.64149 6.20545C2.95958 7.2956 2.49077 8.30189 2.27767 9.22432C2.23505 9.39203 2.23505 9.51782 2.19244 9.60168C2.19244 9.68553 2.19244 9.81132 2.23505 9.93711C1.85148 10.021 1.46791 10.021 1.08433 9.93711C0.189328 9.72746 -0.151626 9.18239 0.0614702 8.34382C0.231947 7.63103 0.658141 6.83438 1.34005 5.91195C2.02196 4.98952 2.87434 4.02516 3.85459 3.10273C3.04482 2.89308 2.40553 2.72537 1.93672 2.51572C1.46791 2.30608 1.16957 2.05451 0.999095 1.80294C0.828618 1.55136 0.785998 1.21593 0.871237 0.880503C0.956476 0.587002 1.08433 0.293501 1.29743 0C1.80886 0.377358 2.44815 0.754717 3.13006 1.09015C3.81197 1.46751 4.40864 1.67715 4.92007 1.80294C5.13317 1.55136 5.38888 1.38365 5.6446 1.29979C5.90032 1.21593 6.19865 1.174 6.45437 1.25786C6.7527 1.34172 7.00842 1.46751 7.13628 1.67715C7.26413 1.88679 7.30675 2.09644 7.22151 2.38994C7.13628 2.89308 6.66746 3.22851 5.8577 3.31237Z" transform="translate(57.53717 2.64151)" id="Path" fill="#509AFF" fill-rule="evenodd" stroke="none" />
      <path d="M6.10948 5.38339C6.53567 5.76075 6.83401 6.13811 7.00448 6.59932C7.17496 7.06054 7.17496 7.52176 7.00448 8.0249C6.83401 8.56997 6.49305 9.03119 5.98162 9.36662C5.47019 9.70205 4.8309 9.91169 4.10637 9.95362C3.38184 9.99555 2.61469 9.91169 1.80493 9.66012C1.12302 9.45048 0.611587 9.1989 0.313252 8.86347C0.0149168 8.56997 -0.0703219 8.19262 0.0575361 7.81526C0.142775 7.52176 0.355871 7.31211 0.611587 7.22825C0.867303 7.1444 1.20826 7.10247 1.54921 7.18633C1.80493 7.27018 2.01802 7.4379 2.23112 7.68947C2.44422 7.94104 2.57208 8.23454 2.61469 8.56997C2.95565 8.69576 3.2966 8.69576 3.63756 8.65383C3.97851 8.6119 4.27685 8.48612 4.53256 8.27647C4.78828 8.06683 4.95876 7.85719 5.04399 7.56368C5.12923 7.31211 5.12923 7.06054 5.08661 6.76704C5.04399 6.51547 4.87352 6.22197 4.6178 6.01232C4.36209 5.76075 4.02113 5.59303 3.55232 5.42532C3.38184 5.38339 3.12613 5.29953 2.78517 5.25761C2.65731 5.25761 2.57208 5.21568 2.52946 5.21568C2.44422 5.17375 2.4016 5.13182 2.35898 5.08989C2.31636 5.04796 2.31636 4.9641 2.35898 4.88025L3.97851 1.69366C3.76542 1.40016 3.7228 1.06473 3.80804 0.729303C3.89327 0.435802 4.06375 0.226158 4.27685 0.100372C4.48994 -0.025414 4.78828 -0.025414 5.08661 0.0584435C5.34233 0.142301 5.55543 0.268087 5.68329 0.519659C5.85376 0.729303 5.939 1.0228 5.98162 1.31631C6.36519 1.40016 6.87663 1.44209 7.51591 1.44209C8.1552 1.44209 8.75188 1.40016 9.30593 1.31631C9.30593 1.65173 9.26331 1.94524 9.17807 2.19681C9.00759 2.74188 8.66664 3.03538 8.1552 3.11924C7.64377 3.2031 6.91925 3.11924 5.939 2.82574C5.81114 2.78381 5.59805 2.69995 5.38495 2.6161L4.44732 4.41903C5.12923 4.75446 5.68329 5.00603 6.10948 5.38339Z" transform="translate(62.69803 4.8472137)" id="Path" fill="#509AFF" fill-rule="evenodd" stroke="none" />
    </g>
    <g id="Group" transform="translate(58.50699 43.85829)">
      <path d="M8.38722 63.2679C-0.351363 49.5472 -2.38754 32.5656 2.87258 17.1933L2.87258 17.1933C11.7808 26.2981 25.016 29.7707 37.233 26.1711C49.4501 22.5715 58.6977 12.4927 61.2005 0L61.2005 0C63.7033 12.4927 72.9085 22.5715 85.168 26.1711C97.385 29.7707 110.62 26.3405 119.528 17.1933L119.528 17.1933C124.789 32.608 122.752 49.5472 114.014 63.2679L114.014 63.3103C79.7806 52.4692 42.578 52.5115 8.38722 63.2679" id="Path" fill="#509AFF" fill-rule="evenodd" stroke="none" />
      <path d="M98.0333 7.19388C66.2181 -2.37677 31.8576 -2.41912 0 7.19388C31.8152 16.8492 66.2605 16.8069 98.0333 7.19388" transform="translate(12.162628 61.325195)" id="Path" fill="#509AFF" fill-rule="evenodd" stroke="none" />
    </g>
    <g id="Group" transform="translate(36.475815 168.42969)">
      <path d="M11.9622 6.94461C11.3665 8.5636 10.9836 9.92696 10.7283 11.0773C10.473 12.2276 10.5155 13.1223 10.7283 13.804C10.0475 14.017 9.40924 14.0596 8.771 13.804C8.13277 13.591 7.70728 13.1649 7.53708 12.5259C7.36688 11.8868 7.45198 10.9921 7.74983 9.79915L3.87786 8.39318C3.58001 8.81923 3.40982 9.16007 3.28217 9.45831C3.06943 10.0548 2.98433 10.566 3.06943 11.0773C2.72903 11.1625 2.38864 11.2477 2.0057 11.2051C1.62276 11.2051 1.28236 11.1199 0.899422 10.9921C0.473931 10.8643 0.218636 10.6086 0.0909886 10.2678C-0.0366587 9.92696 -0.0366587 9.50091 0.133538 9.03226C0.388832 8.30797 1.06962 7.37066 2.13335 6.17772C3.19707 5.02739 4.89904 3.451 7.15414 1.49117L7.02649 0.17042C7.62218 0.042605 8.17532 0 8.64336 0C9.1114 0 9.57944 0.127815 10.09 0.298235C10.6432 0.51126 10.9836 0.76689 11.0687 1.06512C11.6218 0.979915 12.0473 0.979915 12.3877 1.10773C12.8983 1.27815 13.1961 1.57638 13.2812 1.95983C13.4089 2.38588 13.3238 2.93974 13.0685 3.62142L11.9622 6.94461ZM8.30297 8.09495L8.55826 7.32806C9.32415 5.1552 9.91983 3.57882 10.3028 2.5989L10.09 2.51369C8.00512 4.13268 6.30316 5.58125 5.02669 6.94461L8.30297 8.09495Z" transform="translate(0 7.6293945E-06)" id="Shape" fill="#509AFF" stroke="none" />
      <path d="M0.105019 12.1584C-0.0651776 11.775 -0.0226285 11.2211 0.190117 10.5394C0.360313 9.98554 0.828353 8.96303 1.59424 7.34404C2.36012 5.76765 3.33875 3.89303 4.40248 1.76278L3.89189 0.356817C4.40248 0.186397 4.91307 0.0585819 5.42366 0.0159769C5.97679 -0.0266281 6.44483 0.0159769 6.82778 0.143792C7.25327 0.271607 7.55111 0.442027 7.67876 0.697657C7.8064 0.910682 7.8064 1.20892 7.72131 1.63497C7.63621 1.84799 7.50856 2.18883 7.29582 2.61488C7.08307 3.04093 6.74268 3.5948 6.35974 4.31908C5.59385 5.68244 4.91307 6.91798 4.35993 8.02571C3.80679 9.13344 3.3813 10.1986 3.04091 11.2211C2.91326 11.6045 2.87071 11.9454 2.87071 12.1584C2.87071 12.414 2.91326 12.6271 3.04091 12.8401C2.74306 12.9679 2.40267 13.0531 2.06228 13.0957C1.72188 13.0957 1.38149 13.0957 1.08365 12.9679C0.615608 12.8401 0.275215 12.5418 0.105019 12.1584Z" transform="translate(13.388931 2.6255398)" id="Path" fill="#509AFF" fill-rule="evenodd" stroke="none" />
      <path d="M0.816943 11.0234C0.136157 10.4269 -0.119137 9.78786 0.0510589 9.10618C0.136157 8.80795 0.263804 8.55232 0.47655 8.29669C0.689295 8.04106 0.94459 7.87064 1.24243 7.74282C1.49773 8.50971 1.88067 9.14879 2.43381 9.66005C2.9444 10.1713 3.62518 10.5548 4.39107 10.7252C5.1995 10.8956 5.83774 10.9382 6.39087 10.8104C6.94401 10.6826 7.28441 10.3417 7.41205 9.83047C7.49715 9.44702 7.3695 9.10618 7.02911 8.80795C6.68872 8.50971 6.13558 8.08366 5.41225 7.61501C4.64636 7.10375 4.00812 6.63509 3.54008 6.25165C3.07204 5.8682 2.6891 5.35694 2.43381 4.80308C2.17851 4.24921 2.09342 3.56753 2.30616 2.84325C2.51891 1.99115 2.9444 1.35207 3.62518 0.883417C4.30597 0.414762 5.15695 0.116527 6.17813 0.0313174C7.19931 -0.0538926 8.30558 0.0313174 9.49696 0.329552C10.3054 0.542577 10.9862 0.755602 11.5819 1.09644C12.135 1.39468 12.5605 1.77812 12.8583 2.11896C13.1136 2.50241 13.1987 2.88585 13.1136 3.2693C12.986 3.82316 12.6881 4.20661 12.2626 4.41963C11.8372 4.63266 11.3266 4.67526 10.7734 4.54745C10.2203 4.41963 9.7948 4.164 9.45441 3.73795C9.11402 3.3119 8.90127 2.80064 8.81617 2.16157C7.92264 2.03375 7.15676 2.07636 6.56107 2.28938C5.96538 2.50241 5.62499 2.80064 5.49734 3.2693C5.41225 3.65274 5.53989 3.99358 5.88028 4.29182C6.22068 4.59005 6.77382 5.0161 7.5397 5.48476C8.30558 5.99602 8.94382 6.42207 9.41186 6.80551C9.8799 7.18896 10.2628 7.65761 10.5181 8.21148C10.7734 8.76534 10.8585 9.40442 10.6883 10.1287C10.5181 10.8956 10.0926 11.4921 9.45441 11.9607C8.81617 12.4294 8.00774 12.685 7.11421 12.7702C6.17813 12.8554 5.1995 12.8128 4.22087 12.5572C2.604 12.0885 1.49773 11.6199 0.816943 11.0234Z" transform="translate(24.973694 7.168934)" id="Path" fill="#509AFF" fill-rule="evenodd" stroke="none" />
      <path d="M9.57203 11.3506C8.9338 11.734 8.33811 11.8618 7.74242 11.734C7.18928 11.6488 6.80634 11.4358 6.5936 11.0949C6.38085 10.7541 6.29575 10.3281 6.3383 9.73159L6.21065 9.60377C5.70006 10.0724 5.06183 10.4133 4.38104 10.6263C3.70026 10.8393 3.01947 10.8819 2.33869 10.7541C1.40261 10.5837 0.76437 10.2428 0.381428 9.68898C-0.00151366 9.17772 -0.0866118 8.41083 0.0835845 7.47352C0.168683 7.04747 0.29633 6.57882 0.423977 6.11016C0.594174 5.64151 0.806919 5.04504 1.06221 4.36336C1.27496 3.76689 1.44516 3.29823 1.61535 2.91479C1.743 2.53134 1.8281 2.1905 1.9132 1.84966C2.04084 1.21059 1.99829 0.699327 1.87065 0.358488C2.29614 0.230673 2.72163 0.102858 3.14712 0.0602526C3.57261 0.0176476 3.913 -0.0249574 4.1683 0.0176476C4.59379 0.102858 4.89163 0.230673 5.01928 0.443697C5.18948 0.656722 5.23202 0.997562 5.14693 1.42361C5.10438 1.67924 4.97673 2.06269 4.80653 2.57395C4.63634 3.0426 4.38104 3.72428 4.04065 4.53378C3.8279 5.13025 3.57261 5.68411 3.35986 6.23798C3.14712 6.79184 3.01947 7.21789 2.97692 7.47352C2.80673 8.49604 3.14712 9.13512 4.04065 9.26293C4.46614 9.34814 4.93418 9.26293 5.44477 9.09251C5.91281 8.87949 6.38085 8.58125 6.76379 8.1126C7.06164 7.21789 7.74242 5.5989 8.72105 3.25563L8.08281 1.80706C9.31674 1.2958 10.3379 1.12538 11.1038 1.25319C11.5293 1.3384 11.8271 1.46622 11.9548 1.67924C12.0824 1.89227 12.125 2.1905 12.0824 2.61655C12.0399 2.78697 11.8271 3.38344 11.3591 4.44857C10.8485 5.64151 10.423 6.66403 10.0401 7.55873C9.69968 8.45344 9.44439 9.26293 9.31674 9.90201C9.23164 10.5837 9.31674 11.0523 9.57203 11.3506Z" transform="translate(38.00374 11.272682)" id="Path" fill="#509AFF" fill-rule="evenodd" stroke="none" />
      <path d="M0.211288 13.0105C-0.0014575 12.6271 -0.0440066 12.1158 0.0410916 11.3915C0.12619 10.8376 0.424033 9.72991 0.934623 8.02571C1.44521 6.32152 2.08345 4.36169 2.80678 2.06102L2.08345 0.740262C2.55149 0.484632 3.01953 0.271607 3.57267 0.143792C4.08326 0.0159769 4.5513 -0.0266281 4.97679 0.0159769C5.44483 0.0585819 5.74267 0.186397 5.91287 0.399422C6.08306 0.612447 6.12561 0.910682 6.08306 1.29413C6.04051 1.54976 5.95542 1.8906 5.82777 2.31665C5.70012 2.7853 5.44483 3.38177 5.18953 4.14866C4.63639 5.59723 4.2109 6.91799 3.82796 8.11092C3.44502 9.30386 3.23227 10.4116 3.06208 11.4767C3.01953 11.8602 3.01953 12.201 3.06208 12.4566C3.10463 12.7123 3.18972 12.9253 3.31737 13.0957C3.01953 13.3087 2.72168 13.4365 2.38129 13.5218C2.0409 13.607 1.70051 13.607 1.40266 13.5644C0.806975 13.607 0.424033 13.3513 0.211288 13.0105Z" transform="translate(51.32155 10.379648)" id="Path" fill="#509AFF" fill-rule="evenodd" stroke="none" />
      <path d="M6.87666 3.01665C7.00431 3.14446 7.04686 3.35749 7.04686 3.69833C7.00431 3.99656 6.87666 4.3374 6.66391 4.72085C6.23842 4.55043 5.68528 4.42261 5.0896 4.3374L4.70666 4.2948C4.28116 5.35992 3.94077 6.33984 3.64293 7.27715C3.34508 8.21446 3.13234 9.19437 3.04724 10.1743L3.72803 11.6229C3.38763 11.8785 3.00469 12.0489 2.62175 12.1767C2.23881 12.3045 1.85587 12.3471 1.51547 12.3045C1.00488 12.2619 0.579393 12.0915 0.324098 11.7507C0.0688038 11.4524 -0.0588435 10.9412 0.0262547 10.1743C0.0688038 9.62042 0.239 8.98135 0.451746 8.29967C0.664491 7.57538 0.962335 6.72328 1.34528 5.74337L1.85587 4.3374C1.55802 4.3374 1.34528 4.3374 1.17508 4.2948C0.792138 4.25219 0.536844 4.16698 0.366647 4.03917C0.239 3.91135 0.153902 3.69833 0.196451 3.40009C0.239 3.05925 0.366647 2.71841 0.579393 2.37757C1.00488 2.54799 1.51547 2.67581 2.15371 2.76102L2.23881 2.76102L2.23881 2.67581C2.28136 2.07934 2.23881 1.44026 2.11116 0.801189C2.4941 0.502955 2.91959 0.28993 3.38763 0.162115C3.85567 0.0342996 4.32371 -0.0509103 4.79175 0.0342996C5.21724 0.0769046 5.51509 0.20472 5.68528 0.417745C5.85548 0.630769 5.89803 0.929004 5.85548 1.35505C5.81293 1.61068 5.68528 2.07934 5.42999 2.80362C5.77038 2.80362 5.98313 2.84623 6.15332 2.84623C6.45117 2.80362 6.70646 2.88883 6.87666 3.01665Z" transform="translate(58.739944 12.61939)" id="Path" fill="#509AFF" fill-rule="evenodd" stroke="none" />
      <path d="M10.1348 10.4118C9.53915 10.8378 8.90091 11.0508 8.26268 11.0082C7.75209 10.9656 7.36915 10.7952 7.11385 10.497C6.85856 10.1987 6.73091 9.73008 6.77346 9.17622C6.77346 8.9632 6.81601 8.70757 6.90111 8.36672L6.73091 8.28152C6.30542 9.09101 5.79483 9.68748 5.15659 10.1135C4.51836 10.5396 3.79502 10.7526 3.02914 10.71C2.3909 10.6674 1.83776 10.4544 1.36972 10.1135C0.901683 9.73008 0.561291 9.26143 0.305996 8.62235C0.0932507 7.98328 -0.0343966 7.259 0.00815248 6.4495C0.0932507 5.12875 0.433643 3.97841 1.07188 2.9985C1.71012 1.97598 2.5611 1.25169 3.62483 0.697827C4.68855 0.186567 5.87993 -0.0690627 7.19895 0.0161473C7.70954 0.0587523 8.17758 0.101357 8.68817 0.229172C8.77327 0.442197 8.81582 0.697827 8.85837 0.996062C9.28386 0.697827 9.7519 0.570012 10.2625 0.612617C10.6454 0.612617 10.9007 0.740432 11.1135 0.953457C11.2837 1.16648 11.3688 1.46472 11.3688 1.80556C11.3688 2.06119 11.2837 2.35942 11.1986 2.74287C11.1135 3.12631 10.9433 3.59497 10.7731 4.27665C10.4752 5.34177 10.2199 6.23648 10.0497 6.96076C9.87954 7.68505 9.79445 8.36672 9.7519 9.04841C9.70935 9.68748 9.83699 10.1561 10.1348 10.4118ZM6.816 6.70513C7.45424 5.5974 8.00738 3.8506 8.39032 1.46472C7.41169 1.46472 6.51816 1.67774 5.70973 2.10379C4.9013 2.52984 4.26306 3.08371 3.79502 3.80799C3.32698 4.53228 3.07168 5.29917 3.02914 6.19387C2.98659 6.83295 3.11423 7.34421 3.36953 7.72765C3.62482 8.1111 4.00776 8.32412 4.4758 8.32412C5.36934 8.36673 6.17777 7.85546 6.816 6.70513Z" transform="translate(65.906296 14.938211)" id="Shape" fill="#509AFF" stroke="none" />
      <path d="M0.425491 10.4808C0.170196 10.1826 0 9.71394 0 9.11747C0 8.64881 0.127647 7.6689 0.382942 6.22033C0.638236 4.77176 0.93608 3.4084 1.23392 2.13025L0.382942 0.93731C0.808433 0.639075 1.27647 0.42605 1.74451 0.25563C2.21255 0.08521 2.68059 0 3.14863 0C3.57412 0 3.87197 0.08521 4.08471 0.298235C4.29746 0.51126 4.38256 0.809495 4.38256 1.19294C4.38256 1.49117 4.34001 1.83201 4.25491 2.17285C4.16981 2.51369 4.08471 2.81193 3.91452 3.11016L4.08471 3.19537C5.27609 1.06512 6.8504 0 8.76511 0C9.48845 0 10.0416 0.17042 10.382 0.553865C10.7224 0.894705 10.9351 1.44857 10.9351 2.21546C10.9351 2.64151 10.8926 3.06756 10.8075 3.49361C10.7224 3.91966 10.5947 4.55873 10.4245 5.32562C10.2543 6.09251 10.0841 6.73159 9.99904 7.28545C9.91394 7.83932 9.82884 8.35058 9.82884 8.90444C9.82884 9.50091 9.95649 9.92696 10.1267 10.2252C9.6161 10.6939 9.06296 10.9495 8.50982 10.9495C7.91413 10.9495 7.48864 10.8217 7.23335 10.4808C6.97805 10.1826 6.8504 9.71394 6.8504 9.11747C6.8504 8.64881 6.89295 8.18016 6.97805 7.6689C7.06315 7.15764 7.23335 6.51856 7.40354 5.75167C7.57374 5.1126 7.70139 4.60134 7.74394 4.2605C7.82903 3.91966 7.87158 3.57882 7.87158 3.28058C7.87158 2.5989 7.61629 2.30067 7.1057 2.30067C6.51001 2.30067 5.91432 2.5989 5.27609 3.23798C4.63785 3.87705 4.08471 4.68655 3.65922 5.70907C3.23373 6.73159 3.02099 7.79671 3.02099 8.94705C3.02099 9.54352 3.14863 9.96957 3.31883 10.2678C2.76569 10.7365 2.2551 10.9921 1.70196 10.9921C1.14883 10.9069 0.723335 10.7791 0.425491 10.4808Z" transform="translate(79.487595 15.252594)" id="Path" fill="#509AFF" fill-rule="evenodd" stroke="none" />
      <path d="M10.2969 7.13634C10.85 7.6476 11.1904 8.28667 11.233 9.09617C11.2755 9.82045 11.1053 10.5021 10.6798 11.0986C10.2543 11.6951 9.6161 12.2063 8.76511 12.5898C7.91413 12.9732 6.89295 13.2288 5.78668 13.3141C4.04216 13.4845 2.72314 13.3567 1.87216 13.0158C0.978629 12.675 0.510589 12.0359 0.46804 11.1838C0.425491 10.6299 0.425491 9.77784 0.46804 8.67012C0.510589 7.56239 0.680786 5.73037 0.893531 3.21668L0 1.7255C1.02118 0.916007 1.99981 0.489957 2.89334 0.404747C3.53157 0.362142 3.91452 0.660377 4.08471 1.29945C5.19099 0.532562 6.33982 0.106512 7.48864 0.0213025C8.42472 -0.0639075 9.14806 0.106512 9.74374 0.532562C10.2969 0.958612 10.6373 1.59769 10.7224 2.40718C10.8075 3.17407 10.5947 3.89836 10.1692 4.53743C9.74374 5.17651 9.06296 5.77298 8.12688 6.19903C8.97786 6.36945 9.74374 6.66768 10.2969 7.13634ZM7.53119 10.8856C7.95668 10.4595 8.16942 9.90566 8.08432 9.26659C8.04177 8.62751 7.78648 8.15886 7.31844 7.86062C6.89295 7.56239 6.25471 7.43457 5.48883 7.51978C4.89314 7.56239 4.2549 7.73281 3.53157 7.94583C3.48902 9.09617 3.44647 10.2465 3.44647 11.3542C3.74432 11.4394 4.12726 11.5247 4.5102 11.5673C4.89314 11.6099 5.27608 11.6099 5.65903 11.5673C6.46746 11.5673 7.10569 11.3116 7.53119 10.8856ZM3.65923 6.53987C4.89315 6.36945 5.87178 5.986 6.59511 5.43214C7.2759 4.87827 7.61629 4.19659 7.53119 3.47231C7.44609 2.535 6.89296 2.10895 5.82923 2.23676C5.23354 2.27937 4.59531 2.44979 3.99962 2.74802C3.82942 3.94096 3.74432 5.21911 3.65923 6.53987Z" transform="translate(98.251755 11.993312)" id="Shape" fill="#509AFF" stroke="none" />
      <path d="M10.7528 9.71394C10.2422 10.2678 9.68904 10.6086 9.0508 10.6939C8.54021 10.7791 8.11472 10.6939 7.81688 10.3956C7.47648 10.14 7.30629 9.71394 7.22119 9.16007C7.17864 8.94705 7.17864 8.69142 7.17864 8.35058L7.00844 8.30797C6.75315 9.16007 6.37021 9.88436 5.81707 10.4382C5.26393 10.9921 4.62569 11.3329 3.85981 11.4181C3.22157 11.5033 2.62589 11.4181 2.1153 11.1625C1.60471 10.9069 1.13667 10.4808 0.796276 9.88436C0.455883 9.28789 0.200589 8.60621 0.0729413 7.79671C-0.0972551 6.51856 0.0303922 5.32562 0.455883 4.21789C0.881374 3.11016 1.56216 2.17285 2.54079 1.44857C3.47687 0.724285 4.62569 0.25563 5.90217 0.08521C6.41276 0 6.8808 0 7.39139 0C7.51903 0.213025 7.60413 0.42605 7.68923 0.724285C8.02962 0.383445 8.49766 0.17042 9.00825 0.08521C9.39119 0.042605 9.68904 0.08521 9.90178 0.25563C10.1145 0.42605 10.2847 0.68168 10.3273 1.06512C10.3698 1.32075 10.3698 1.61899 10.3273 2.00243C10.2847 2.38588 10.2847 2.89714 10.1996 3.57882C10.1145 4.68655 10.072 5.62386 10.0294 6.34814C9.98688 7.07243 10.0294 7.79671 10.1571 8.47839C10.1996 9.11747 10.4124 9.54352 10.7528 9.71394ZM6.7957 6.77419C7.22119 5.53865 7.39139 3.70663 7.30629 1.32076C6.32766 1.53378 5.51923 1.91722 4.7959 2.47109C4.07256 3.02495 3.56197 3.70663 3.26413 4.51613C2.92373 5.32562 2.83864 6.13512 2.96628 6.98722C3.05138 7.62629 3.26413 8.09495 3.60452 8.43579C3.94491 8.73402 4.32786 8.86184 4.7959 8.81923C5.68943 8.69142 6.37021 8.00974 6.7957 6.77419Z" transform="translate(111.87962 12.611085)" id="Shape" fill="#509AFF" stroke="none" />
      <path d="M10.5522 10.242C10.9777 10.5402 11.5308 10.7532 12.1265 10.8811C11.7436 11.9036 11.1053 12.5 10.1692 12.7131C9.6161 12.8409 9.14806 12.7557 8.68002 12.5C8.21198 12.2444 7.70139 11.7332 7.1057 11.0089L5.57393 9.21946L4.21236 10.3698C4.29746 10.8811 4.38256 11.3071 4.42511 11.5201C4.5102 11.9036 4.5953 12.2444 4.72295 12.4574C4.8506 12.6705 5.02079 12.8409 5.19099 12.9687C4.97824 13.2669 4.72295 13.48 4.42511 13.6504C4.12726 13.8208 3.82942 13.9486 3.53157 14.0338C2.97844 14.1616 2.55295 14.0764 2.21255 13.7782C1.87216 13.48 1.65941 13.0113 1.53177 12.3296C1.40412 11.7758 1.31902 10.6254 1.27647 8.87862C1.19137 7.13181 1.14883 5.04417 1.10628 2.61569L0 1.63577C0.340393 1.25233 0.765884 0.911486 1.19137 0.613251C1.65941 0.315016 2.08491 0.144596 2.5104 0.0593861C2.93589 -0.0258239 3.27628 -0.0258239 3.53157 0.101991C3.74432 0.229806 3.91452 0.485436 3.99962 0.911486C4.04216 1.16712 4.08471 1.50796 4.08471 1.97661C4.08471 2.40266 4.08471 3.08434 4.04216 3.97905C3.99962 5.93887 3.99962 7.55786 4.08471 8.79341L4.9357 7.8135C5.74413 6.83358 6.33982 6.02409 6.68021 5.38501C7.0206 4.74594 7.14825 4.14947 7.0206 3.5956C6.97805 3.38258 6.89295 3.12695 6.72276 2.91392C7.23335 2.44527 7.78648 2.18964 8.38217 2.06182C8.80766 1.97661 9.19061 2.01922 9.531 2.23224C9.87139 2.44527 10.0841 2.78611 10.1692 3.21216C10.2969 3.80863 10.1692 4.4477 9.78629 5.12938C9.40335 5.81106 8.76511 6.57795 7.82903 7.43005L9.31825 9.17685C9.70119 9.51769 10.1267 9.94374 10.5522 10.242Z" transform="translate(124.334335 8.078175)" id="Path" fill="#509AFF" fill-rule="evenodd" stroke="none" />
      <path d="M8.39281 3.96359C8.00987 4.64527 7.37163 5.28434 6.43555 5.83821C5.49947 6.39207 4.35065 6.86073 2.98907 7.24417L3.03162 7.4572C3.24437 8.26669 3.54221 8.86316 3.9677 9.28921C4.39319 9.67266 4.86123 9.80047 5.37182 9.67266C6.01006 9.50224 6.4781 9.1614 6.77594 8.60753C7.07379 8.05367 7.15889 7.41459 6.98869 6.69031C7.58438 6.51989 8.05242 6.51989 8.43536 6.69031C8.8183 6.81812 9.03104 7.11636 9.15869 7.54241C9.28634 8.01106 9.20124 8.52232 8.9034 8.99098C8.60555 9.50224 8.18006 9.92829 7.58438 10.3543C6.98869 10.7804 6.3079 11.0786 5.49947 11.2916C4.18045 11.6325 3.07417 11.5047 2.13809 10.9508C1.20201 10.3969 0.563775 9.45963 0.223383 8.18148C-0.0744609 6.98854 -0.0744609 5.83821 0.223383 4.68787C0.521226 3.58014 1.11691 2.60023 1.92535 1.83334C2.77633 1.02385 3.79751 0.46998 4.98888 0.171745C5.96751 -0.0838847 6.77594 -0.0412797 7.41418 0.21435C8.05242 0.512585 8.47791 1.02385 8.69065 1.79073C8.86085 2.51502 8.77575 3.28191 8.39281 3.96359ZM3.32947 3.28191C2.94653 4.0914 2.77633 4.98611 2.81888 6.05123C4.09536 5.66779 5.03144 5.15653 5.62712 4.56006C6.22281 3.96359 6.43556 3.28191 6.22281 2.55762C6.13771 2.25939 5.96752 2.04637 5.75477 1.87594C5.49948 1.74813 5.24418 1.70553 4.90379 1.79074C4.223 2.00376 3.71241 2.51502 3.32947 3.28191Z" transform="translate(136.96077 7.624975)" id="Shape" fill="#509AFF" stroke="none" />
      <path d="M2.76569 11.8927C2.4253 11.6797 2.12745 11.2536 1.95726 10.6571C1.82961 10.2311 1.70196 9.29379 1.53177 7.88782C1.36157 6.43925 1.23392 5.07589 1.19137 3.71253L0 2.81783C0.595687 2.00833 1.23392 1.49707 1.82961 1.28405C2.21255 1.15623 2.55295 1.15623 2.80824 1.32665C3.06353 1.45447 3.23373 1.7101 3.36138 2.05094C3.48903 2.39178 3.53157 2.77522 3.53157 3.20127C3.53157 3.62732 3.53157 4.05337 3.48903 4.60724L3.70177 4.64984C3.78687 3.28648 3.99961 2.26396 4.29746 1.49707C4.5953 0.772788 5.10589 0.304133 5.78668 0.0911082C6.25472 -0.0367068 6.63766 -0.0367068 6.97805 0.133713C7.31844 0.304133 7.53119 0.602368 7.65884 1.02842C7.82903 1.53968 7.78648 2.00833 7.53119 2.39178C7.2759 2.81783 6.8504 3.11606 6.25472 3.28648C5.70158 3.4569 5.27609 3.84035 4.9357 4.47942C4.5953 5.1185 4.42511 5.88539 4.38256 6.8227C4.34001 7.76001 4.46766 8.65471 4.7655 9.59202C4.9357 10.1459 5.14844 10.5719 5.44628 10.785C5.10589 11.3814 4.63785 11.7649 4.12726 11.9353C3.61667 12.1483 3.14863 12.1057 2.76569 11.8927Z" transform="translate(147.35341 4.3824234)" id="Path" fill="#509AFF" fill-rule="evenodd" stroke="none" />
      <path d="M10.3394 0.898003C10.8926 2.38918 11.0628 4.22119 10.9351 6.39405C10.8075 8.5669 10.2543 10.5693 9.31825 12.4014C8.33962 14.2334 6.97805 15.5115 5.14844 16.1506C4.29746 16.4488 3.61667 16.534 3.10608 16.4062C2.55295 16.2784 2.21255 15.9376 1.99981 15.3837C1.91471 15.1281 1.87216 14.8724 1.91471 14.5742C1.95726 14.276 2.04236 14.0203 2.12745 13.8499C2.80824 14.3612 3.61667 14.4464 4.5953 14.0629C4.9357 13.9351 5.31864 13.7221 5.70158 13.4239C6.08452 13.1256 6.42491 12.7422 6.76531 12.2735C5.99942 12.4014 5.36119 12.2735 4.8506 11.8901C4.34001 11.5066 3.91452 10.9954 3.61667 10.3989C3.27628 9.75984 2.93589 8.95035 2.55295 7.88522C2.12745 6.73489 1.74451 5.84018 1.36157 5.20111C1.02118 4.56203 0.553138 4.13598 0 3.92296C0.382942 3.32649 0.850982 2.94304 1.44667 2.73002C2.04236 2.51699 2.55295 2.5596 3.02099 2.81523C3.44648 3.07086 3.82942 3.49691 4.12726 4.05077C4.42511 4.60464 4.72295 5.32892 5.02079 6.18102L5.44628 7.33136C5.78668 8.31127 6.16962 9.07816 6.46746 9.63203C6.80786 10.1859 7.23335 10.4841 7.70139 10.6119C8.16943 9.46161 8.42472 8.18346 8.42472 6.77749C8.46727 5.37153 8.16943 3.83775 7.57374 2.21876C7.44609 1.83531 7.31844 1.53708 7.1908 1.32405C7.36099 1.06842 7.57374 0.812793 7.78648 0.599768C8.04178 0.386743 8.25452 0.258928 8.50982 0.173718C9.4459 -0.209727 9.99904 0.0459032 10.3394 0.898003Z" transform="translate(155.18245 0.63578415)" id="Path" fill="#509AFF" fill-rule="evenodd" stroke="none" />
    </g>
    <path d="M34.6577 31.0361L17.266 21.7179L20.8282 0.20119C20.8282 0.158834 20.8282 0.0741225 20.7443 0.0317668C20.7024 -0.0105889 20.6186 -0.0105889 20.5767 0.0317668C14.2905 4.09791 7.33386 7.90993 0 11.3831L11.6504 37.4318L3.60407 46.7925C14.3325 42.4722 24.7675 37.2624 34.6158 31.2903C34.6577 31.2479 34.6996 31.2056 34.6996 31.1632C34.7415 31.1208 34.6996 31.0785 34.6577 31.0361Z" transform="translate(205.28302 110.18868)" id="Path" fill="#509AFF" fill-rule="evenodd" stroke="none" />
    <path d="M0 4.44037L2.11185 9.0566L9.81132 0C6.59954 1.58271 3.34377 3.07749 0 4.44037Z" transform="translate(204.52832 148.67924)" id="Path" fill="#509AFF" fill-rule="evenodd" stroke="none" />
    <g id="Group" transform="translate(0 110.32761)">
      <path d="M0.0844564 31.3214L17.6092 21.9175L14.0198 0.203039C14.0198 0.160294 14.0198 0.0748038 14.1042 0.0320588C14.1465 -0.0106863 14.2309 -0.0106863 14.2731 0.0320588C20.6074 4.13558 27.6173 7.98264 35.0072 11.4877L23.2255 37.7759L31.3333 47.2226C20.5229 42.8626 10.0081 37.6049 0.0844564 31.5779C0.0422282 31.5779 0 31.4924 0 31.4497C0 31.4069 0.0422282 31.3642 0.0844564 31.3214Z" id="Path" fill="#509AFF" fill-rule="evenodd" stroke="none" />
      <path d="M9.41689 4.31725L7.38994 8.80548L0 0C3.12489 1.53882 6.24978 2.99215 9.41689 4.31725Z" transform="translate(25.674759 38.972782)" id="Path" fill="#509AFF" fill-rule="evenodd" stroke="none" />
    </g>
    <g id="Group" transform="translate(24.40541 116.31267)">
      <path d="M7.67641 0.25876C6.95542 0.0862534 6.23443 0 5.59826 0C5.00451 0 4.45316 0.0862534 3.94423 0.215633C2.84154 0.51752 1.95091 1.03504 1.31474 1.68194C0.720989 2.28571 0.296878 2.88949 0 3.57951L6.31925 5.08895C6.70095 5.1752 7.08265 5.21833 7.42194 5.21833C7.93087 5.21833 8.3974 5.13208 8.82151 4.91644C9.54249 4.57143 9.96661 4.01078 10.1787 3.14825C10.4755 1.68194 9.66973 0.733154 7.67641 0.25876Z" transform="translate(47.54283 30.102428)" id="Path" fill="#509AFF" fill-rule="evenodd" stroke="none" />
      <path d="M177.363 0C126.258 26.0916 65.0586 26.1779 13.9532 0L0 31.31C60.1389 61.3693 131.22 61.4555 191.316 31.31L177.363 0ZM160.187 16.5606C160.399 16.0863 160.823 15.6981 161.374 15.4825C161.629 15.3962 161.883 15.3531 162.095 15.3531C162.265 15.3531 162.434 15.3962 162.604 15.4394C162.986 15.5687 163.283 15.8706 163.41 16.2588C163.622 16.8194 163.622 17.3369 163.368 17.8544C163.113 18.3288 162.731 18.717 162.18 18.9326C161.926 19.0189 161.671 19.1051 161.459 19.1051C161.289 19.1051 161.12 19.062 160.95 19.0189C160.568 18.8895 160.314 18.5876 160.144 18.1995C159.975 17.5957 159.975 17.0782 160.187 16.5606ZM136.012 24.5822C136.309 24.1509 136.776 23.8491 137.37 23.6765C137.539 23.6334 137.709 23.6334 137.836 23.6334C138.09 23.6334 138.345 23.6765 138.599 23.8059C138.981 24.0216 139.193 24.3235 139.278 24.7547C139.405 25.3585 139.32 25.876 139.024 26.3073C138.727 26.7385 138.26 27.0404 137.666 27.1698C137.497 27.2129 137.327 27.2129 137.157 27.2129C136.903 27.2129 136.649 27.1698 136.436 27.0404C136.097 26.8248 135.843 26.5229 135.758 26.0916C135.631 25.5741 135.715 25.0135 136.012 24.5822ZM29.5605 19.1051C29.7726 18.5445 30.1543 18.1563 30.6632 17.9407C30.9177 17.8544 31.1297 17.8113 31.3842 17.8113C31.6811 17.8113 31.9355 17.8544 32.2324 17.9838C32.6565 18.1563 32.9958 18.4151 33.1655 18.8032C33.3351 19.1914 33.3775 19.5795 33.2079 19.9677C32.9958 20.5283 32.6141 20.9164 32.1052 21.1321C31.8931 21.2183 31.6387 21.2615 31.3842 21.2615C31.0873 21.2615 30.7904 21.2183 30.4936 21.0889C30.027 20.9164 29.7302 20.6577 29.5181 20.2695C29.4333 19.9245 29.3909 19.5364 29.5605 19.1051ZM34.2682 28.2049L33.3775 29.6712C32.699 30.7493 31.978 31.655 31.2994 32.3881C30.5784 33.1213 29.6454 33.6819 28.4578 33.9838C28.0761 34.0701 27.652 34.1563 27.2279 34.1563C27.2279 34.1563 27.2279 34.1563 27.2279 34.1563C26.3373 34.1563 25.3618 33.9407 24.344 33.5094C22.8596 32.9057 21.7569 32.1294 21.1631 31.1806C20.527 30.2318 20.2301 29.283 20.1877 28.3342C20.1877 27.4286 20.3149 26.6092 20.6118 25.876C20.9511 24.9704 21.46 24.3234 22.1386 23.8922C22.5627 23.6334 22.9868 23.504 23.4109 23.504C23.7502 23.504 24.0471 23.5903 24.3864 23.7197C24.7681 23.8491 25.065 24.0647 25.3194 24.3234C25.5739 24.5822 25.7011 24.841 25.7859 25.0997L25.8708 25.3585L25.6163 25.4447C25.3194 25.531 25.0225 25.7466 24.6833 26.0485C24.344 26.3504 24.0895 26.7385 23.9199 27.1698C23.7502 27.558 23.7078 27.9892 23.7502 28.4636C23.7926 28.938 23.9623 29.3693 24.2591 29.8437C24.556 30.2749 25.065 30.6631 25.7859 30.9218C26.2101 31.0943 26.6342 31.1806 26.9735 31.1806C27.1855 31.1806 27.3552 31.1375 27.5672 31.0943C28.0761 30.9218 28.5851 30.5768 29.094 30.0162C29.6029 29.4124 30.2391 28.5499 30.9601 27.3854C31.5963 26.3504 32.2324 25.2722 32.8686 24.1941L32.4445 22.5553L32.7414 22.469C33.2927 22.3396 33.8441 22.2534 34.353 22.2534C34.353 22.2534 34.353 22.2534 34.353 22.2534C34.9043 22.2534 35.4133 22.3396 35.8798 22.5553C36.3039 22.7278 36.6008 22.9434 36.728 23.159C36.8552 23.4178 36.8552 23.7628 36.728 24.1509C36.6008 24.496 36.3463 24.9704 35.9646 25.6604C35.4557 26.221 34.9467 27.0836 34.2682 28.2049ZM120.829 29.7143C120.787 30.2749 120.744 30.8356 120.66 31.4394C120.532 33.0782 120.405 34.5445 120.363 35.752C120.32 36.9596 120.363 38.2102 120.49 39.4178L120.49 39.504L119.43 41.6604L114.468 42.3935L112.898 42.4798C112.856 42.4798 112.813 42.4798 112.771 42.4798C112.135 42.4798 111.668 42.2641 111.372 41.8329L110.947 42.566L107.3 42.7385C107.258 42.7385 107.215 42.7385 107.173 42.7385C106.537 42.7385 106.07 42.5229 105.773 42.0916L105.349 42.8248L101.744 42.9973C101.702 42.9973 101.659 42.9973 101.575 42.9973C100.811 42.9973 100.387 42.6954 100.175 42.3504L99.7509 43.0836L95.6794 43.2129L86.9427 42.8248L78.7574 42.221L70.5721 41.2722L68.8332 41.0135C68.0274 40.8841 67.6457 40.496 67.4336 40.0647L66.8823 40.6685L62.3867 40.0647L58.4849 39.2453C57.976 39.1159 57.5518 38.9003 57.255 38.5984C57.0429 38.3827 56.9157 38.1671 56.8309 37.9084C56.2371 38.0809 55.6009 38.1671 54.9224 38.1671C54.2014 38.1671 53.438 38.0809 52.6746 37.8652L40.7571 34.6307L40.1633 34.4151C39.5695 34.1995 38.9758 33.9407 38.382 33.5526C38.2548 33.5526 38.1276 33.5957 38.0003 33.5957C37.7035 33.5957 37.4066 33.5526 37.1097 33.4663C36.516 33.2938 36.1343 32.9488 35.9646 32.4313C35.795 31.9569 35.8374 31.4394 36.007 30.7924C36.1767 30.2318 36.5584 29.3261 37.1521 28.1186C37.7459 26.911 38.5517 25.3154 39.5695 23.3315C39.6544 23.1159 39.7816 22.9003 39.9088 22.6846L40.2057 22.124L39.6968 20.5714L39.9937 20.4852C40.5026 20.3127 41.0539 20.1833 41.5629 20.1402C41.6477 20.1402 41.7749 20.1402 41.8597 20.1402C42.2839 20.1402 42.708 20.1833 43.0897 20.3127C43.5562 20.442 43.8531 20.6577 44.0227 20.9596C44.1924 21.2615 44.1924 21.6065 44.0651 22.0377C43.9803 22.2965 43.8531 22.5984 43.5986 23.0728C43.3441 23.504 43.1745 23.8922 42.9624 24.2372L42.5807 24.9703C41.7749 26.3935 41.1388 27.6011 40.6298 28.5499C40.2057 29.4124 39.824 30.2749 39.5695 31.0943L42.0294 31.8706L44.4468 32.7332C44.6165 32.1725 44.8709 31.4825 45.2526 30.5768C45.6767 29.4986 46.2705 28.1186 46.9915 26.4367L47.7973 24.5391L47.1611 23.0296L47.4156 22.9003C47.9245 22.6846 48.4335 22.5121 48.9424 22.4259C49.1545 22.3827 49.3665 22.3827 49.5786 22.3827C49.8754 22.3827 50.1723 22.4259 50.4692 22.469C50.9357 22.5984 51.275 22.7709 51.4871 23.0728C51.6991 23.3747 51.7415 23.7197 51.6143 24.1941C51.5295 24.4528 51.4022 24.841 51.1902 25.3585C50.9781 25.8329 50.7237 26.3504 50.4692 26.8679C50.2571 27.2992 50.0451 27.7305 49.8754 28.1617C51.0205 27.4286 52.3353 27.0404 53.8197 27.0404C54.6255 27.0404 55.4737 27.1698 56.3643 27.3423C58.2728 27.8167 59.5876 28.5499 60.3086 29.5849C61.0296 30.6199 61.1992 31.8706 60.9023 33.2938C60.8599 33.5526 60.8175 33.6819 60.7751 33.8113L60.6054 34.2426L60.4782 34.5876C60.3086 34.9757 60.2238 35.2345 60.1813 35.407C60.0965 35.752 60.0965 36.0539 60.2238 36.2264C60.3086 36.3989 60.5206 36.5283 60.7751 36.6146L63.2349 37.0458L65.1859 37.2615C65.3555 36.6146 65.61 35.6658 65.9917 34.5013C66.4158 33.1644 66.9671 31.4394 67.6457 29.4124L67.8577 28.8086L67.0943 27.3423L67.3488 27.2129C67.8153 26.9542 68.3243 26.7385 68.8756 26.6523C69.2149 26.566 69.5118 26.5229 69.8511 26.5229C70.0631 26.5229 70.2328 26.5229 70.4448 26.566C70.9113 26.6523 71.2506 26.8248 71.4627 27.0836C71.6747 27.3423 71.7596 27.7305 71.6747 28.1617C71.6323 28.4205 71.5475 28.8086 71.3355 29.3693C71.1658 29.8868 70.9538 30.4474 70.7417 31.0081C70.4872 31.6119 70.2328 32.345 69.9783 33.1213C69.7663 33.6819 69.5966 34.2426 69.427 34.8032L69.2997 35.2776L69.0877 36.0108L69.0877 36.097L69.0877 36.097C69.0028 36.3127 68.9604 36.5283 68.9604 36.6577C68.918 37.0458 68.9604 37.3477 69.0877 37.5633C69.2149 37.779 69.427 37.9084 69.7663 37.9515L71.4203 38.2102L79.5208 39.1159L87.5789 39.6765L96.0187 40.0216L97.7576 40.0216C97.7576 39.7628 97.7576 39.504 97.8 39.2453C97.8424 38.9434 97.9272 38.5553 98.012 38.124C98.0968 37.6927 98.1817 37.3477 98.2241 37.0458C98.2665 36.7871 98.2665 36.4852 98.2665 36.1833C98.2241 35.6226 98.1393 35.1914 97.9272 34.8895L97.7576 34.6307L98.012 34.4582C98.3937 34.1995 98.8178 34.027 99.1995 33.8544C99.6236 33.6819 100.005 33.5957 100.302 33.5957C100.345 33.5957 100.387 33.5957 100.429 33.5957C100.854 33.5957 101.15 33.7251 101.405 33.9407C101.617 34.1995 101.744 34.5445 101.787 35.0189C101.787 35.3208 101.787 35.5795 101.744 35.8814C101.702 36.1402 101.617 36.4852 101.532 36.9164C101.447 37.3046 101.363 37.6496 101.32 37.9515C101.278 38.2102 101.278 38.469 101.278 38.7278C101.32 39.7628 101.829 39.8922 102.253 39.8922C102.296 39.8922 102.296 39.8922 102.338 39.8922L103.313 39.8491C103.313 39.5472 103.313 39.2884 103.356 39.0296C103.398 38.6846 103.441 38.2965 103.568 37.7358C103.653 37.2615 103.738 36.8302 103.78 36.5283C103.822 36.2264 103.822 35.9245 103.822 35.5795C103.78 35.0189 103.695 34.5876 103.525 34.2857L103.356 34.027L103.61 33.8544C104.459 33.3369 105.264 33.035 105.943 32.9919C105.985 32.9919 106.028 32.9919 106.07 32.9919C106.494 32.9919 106.791 33.1213 107.046 33.3369C107.3 33.5957 107.427 33.9407 107.427 34.4151C107.427 34.717 107.427 34.9757 107.385 35.2776C107.342 35.5795 107.258 35.9245 107.173 36.442C107.003 37.3046 106.918 37.9515 106.918 38.3827C106.961 39.4178 107.47 39.5472 107.894 39.5472C107.936 39.5472 107.936 39.5472 107.979 39.5472L108.954 39.504C108.954 39.2022 108.996 38.9003 109.039 38.5984C109.081 38.2102 109.166 37.7358 109.293 37.1752C109.421 36.6146 109.463 36.1402 109.505 35.752C109.548 35.407 109.548 35.062 109.548 34.717C109.548 34.4582 109.505 34.1995 109.421 33.9407C109.378 33.7251 109.293 33.5526 109.209 33.4232L109.039 33.1644L109.293 32.9919C110.184 32.4744 110.947 32.1725 111.584 32.1294C111.626 32.1294 111.668 32.1294 111.711 32.1294C112.559 32.1294 113.026 32.6038 113.068 33.4663C113.068 33.7251 113.068 34.0701 112.983 34.5013C112.941 34.9326 112.856 35.407 112.771 35.8814L112.559 37.0889C112.517 37.4771 112.474 37.8221 112.474 38.0377C112.474 38.4259 112.601 38.7278 112.771 38.9434C112.941 39.1159 113.153 39.2022 113.45 39.2022C113.492 39.2022 113.492 39.2022 113.534 39.2022L114.722 39.159L116.97 38.7278C116.97 38.0377 116.97 37.0889 117.012 35.8383C117.055 34.4151 117.182 32.6038 117.309 30.4906L117.351 29.8437L116.249 28.6361L116.461 28.4205C116.843 28.0323 117.309 27.7305 117.776 27.4717C118.242 27.2129 118.751 27.0404 119.26 26.9973C119.387 26.9973 119.472 26.9973 119.557 26.9973C119.896 26.9973 120.151 27.0836 120.363 27.2129C120.66 27.4286 120.829 27.7305 120.872 28.2048C120.872 28.7224 120.872 29.1536 120.829 29.7143ZM127.191 39.8059C126.979 40.1078 126.682 40.3235 126.343 40.5391C126.003 40.7116 125.664 40.841 125.325 40.8841C125.198 40.8841 125.07 40.9272 124.943 40.9272C124.477 40.9272 124.137 40.7978 123.84 40.496C123.501 40.1509 123.247 39.6766 123.162 38.9865C123.077 38.3828 123.035 37.434 123.035 36.097C123.035 34.7601 123.077 32.9488 123.119 30.7062C123.119 30.4906 123.119 30.2318 123.119 29.973L123.119 29.3261L121.974 28.1617L122.186 27.9461C122.568 27.558 122.992 27.2129 123.459 26.9542C123.925 26.6954 124.434 26.4798 124.901 26.4367C125.028 26.4367 125.155 26.3935 125.282 26.3935C125.579 26.3935 125.834 26.4798 126.003 26.6092C126.3 26.7817 126.47 27.1267 126.512 27.558C126.555 27.8167 126.555 28.1617 126.555 28.7224C126.555 29.2399 126.512 29.6712 126.512 30.0162L126.47 30.8356C126.385 32.4744 126.3 33.8113 126.3 34.9326C126.3 36.0108 126.343 37.0458 126.47 37.9515C126.555 38.469 126.64 38.7709 126.682 38.8571C126.767 39.0296 126.894 39.2022 127.064 39.3315L127.276 39.504L127.191 39.8059ZM148.184 39.7628C147.887 40.2372 147.463 40.5391 146.87 40.7116C146.658 40.7547 146.488 40.7978 146.318 40.7978C146.064 40.7978 145.852 40.7547 145.64 40.6685C145.258 40.496 145.046 40.1941 144.919 39.7628C144.749 39.2022 144.834 38.6415 145.131 38.1671C145.428 37.6927 145.852 37.3908 146.445 37.2183C146.658 37.1752 146.827 37.1321 146.997 37.1321C147.251 37.1321 147.463 37.1752 147.675 37.3046C148.057 37.4771 148.312 37.779 148.396 38.2102C148.566 38.7278 148.481 39.2884 148.184 39.7628ZM170.832 27.9461L158.278 32.7332L150.475 35.2345L148.948 35.6658C148.736 35.7089 148.524 35.752 148.312 35.752C147.93 35.752 147.591 35.6226 147.294 35.3639L147.039 36.1833L142.968 37.3046L141.95 37.5202C141.738 37.5633 141.568 37.6065 141.399 37.6065C141.059 37.6065 140.762 37.5202 140.508 37.3477C140.55 39.4178 140.253 41.0997 139.617 42.3073C138.896 43.6442 137.751 44.5067 136.14 44.8949C135.673 45.0243 135.207 45.0674 134.825 45.0674C134.401 45.0674 134.061 44.9811 133.765 44.8518C133.171 44.593 132.789 44.1186 132.662 43.4717L132.577 43.1698L132.874 43.0836C133.977 42.8248 134.825 42.4798 135.419 42.0054C136.012 41.531 136.436 40.9704 136.649 40.2372C136.861 39.504 136.945 38.6415 136.861 37.6065L136.479 31.3962L135.419 29.8868L135.588 29.7143C136.012 29.283 136.479 28.8949 136.903 28.593C137.37 28.2911 137.794 28.0755 138.175 27.9892C138.345 27.9461 138.472 27.9461 138.599 27.9461C138.854 27.9461 139.108 28.0323 139.32 28.1617C139.575 28.3774 139.787 28.6792 139.872 29.1536C139.999 29.7574 140.126 31.2237 140.253 33.7251C140.338 34.0701 140.508 34.3288 140.72 34.4582C140.847 34.5445 141.017 34.5876 141.229 34.5876C141.314 34.5876 141.441 34.5876 141.526 34.5445L142.586 34.3288L144.325 33.8544C144.283 33.5526 144.24 33.2938 144.198 32.9919C144.155 32.6038 144.155 32.1294 144.113 31.4825C144.07 30.9218 144.07 30.4043 144.028 30.0593C143.986 29.7143 143.943 29.3693 143.858 29.0674C143.689 28.5067 143.519 28.1186 143.265 27.903L143.053 27.6873L143.265 27.4717C143.604 27.1267 143.943 26.8679 144.325 26.6092C144.707 26.3504 145.046 26.1779 145.385 26.0916C145.555 26.0485 145.725 26.0054 145.894 26.0054C146.149 26.0054 146.361 26.0485 146.53 26.1779C146.785 26.3504 146.997 26.6954 147.124 27.1267C147.209 27.3854 147.251 27.7305 147.294 28.0755C147.336 28.4205 147.336 28.8518 147.336 29.4555C147.336 30.0162 147.379 30.4906 147.379 30.8356C147.379 31.1375 147.463 31.4394 147.506 31.6981C147.591 32.0863 147.76 32.345 148.015 32.5175C148.142 32.6038 148.269 32.6469 148.439 32.6469C148.566 32.6469 148.693 32.6469 148.821 32.6038L149.966 32.2588L157.684 29.7574L167.142 26.1348C166.76 25.4447 166.251 24.8841 165.7 24.4528C165.064 24.0216 164.428 23.6765 163.792 23.504C163.622 23.6334 163.41 23.7197 163.198 23.8491C162.901 24.0216 162.604 24.1509 162.307 24.2372C161.586 24.5391 160.823 24.7116 160.059 24.7547C159.975 24.7547 159.89 24.7547 159.805 24.7547C159.126 24.7547 158.49 24.6253 157.981 24.3666C157.345 24.0647 156.879 23.5903 156.624 22.9003C156.539 22.6846 156.497 22.469 156.455 22.2534C156.455 22.0377 156.455 21.8221 156.455 21.5633L156.497 21.3046L156.751 21.2615C158.151 21.1321 159.805 20.8302 161.671 20.4852C163.537 20.097 164.979 19.7089 166.039 19.2776C166.803 18.9757 167.354 18.6307 167.566 18.2426L167.736 18.027L167.99 18.1563C168.33 18.372 168.584 18.5445 168.754 18.717C168.923 18.8895 169.093 19.1482 169.22 19.4501C169.475 20.0539 169.432 20.6146 169.093 21.0458C168.839 21.3908 168.457 21.6927 167.863 21.9515C168.499 22.2534 169.093 22.6846 169.56 23.2022C170.238 23.8922 170.705 24.6253 171.002 25.4016L171.129 25.8329L170.832 27.9461Z" id="Shape" fill="#509AFF" stroke="none" />
    </g>
  </g>
</svg>