<?xml version="1.0" encoding="utf-8"?>
<svg width="470px" height="352px" viewbox="0 0 470 352" version="1.1" xmlns:xlink="http://www.w3.org/1999/xlink" xmlns="http://www.w3.org/2000/svg">
  <defs>
    <linearGradient x1="0.50016093" y1="0.99981964" x2="0.50016093" y2="9.005019E-06" id="gradient_1">
      <stop offset="0" stop-color="#808080" stop-opacity="0.2509804" />
      <stop offset="0.54" stop-color="#808080" stop-opacity="0.12156863" />
      <stop offset="1" stop-color="#808080" stop-opacity="0.101960786" />
    </linearGradient>
    <linearGradient x1="0.50028354" y1="0.99975765" x2="0.50028354" y2="-0.0010605707" id="gradient_2">
      <stop offset="0" stop-color="#808080" stop-opacity="0.2509804" />
      <stop offset="0.54" stop-color="#808080" stop-opacity="0.12156863" />
      <stop offset="1" stop-color="#808080" stop-opacity="0.101960786" />
    </linearGradient>
    <linearGradient x1="0.49926552" y1="0.9996129" x2="0.49926552" y2="-0.00077728636" id="gradient_3">
      <stop offset="0" stop-color="#808080" stop-opacity="0.2509804" />
      <stop offset="0.54" stop-color="#808080" stop-opacity="0.12156863" />
      <stop offset="1" stop-color="#808080" stop-opacity="0.101960786" />
    </linearGradient>
    <linearGradient x1="0.5" y1="0.99989915" x2="0.5" y2="0" id="gradient_4">
      <stop offset="0" stop-color="#808080" stop-opacity="0.2509804" />
      <stop offset="0.54" stop-color="#808080" stop-opacity="0.12156863" />
      <stop offset="1" stop-color="#808080" stop-opacity="0.101960786" />
    </linearGradient>
    <linearGradient x1="0.49970326" y1="1.0003535" x2="0.49970326" y2="-1.3395409E-14" id="gradient_5">
      <stop offset="0" stop-color="#808080" stop-opacity="0.2509804" />
      <stop offset="0.54" stop-color="#808080" stop-opacity="0.12156863" />
      <stop offset="1" stop-color="#808080" stop-opacity="0.101960786" />
    </linearGradient>
    <linearGradient x1="0.5002061" y1="0.999787" x2="0.5002061" y2="-0.00045911383" id="gradient_6">
      <stop offset="0" stop-color="#808080" stop-opacity="0.2509804" />
      <stop offset="0.54" stop-color="#808080" stop-opacity="0.12156863" />
      <stop offset="1" stop-color="#808080" stop-opacity="0.101960786" />
    </linearGradient>
    <linearGradient x1="0.5002444" y1="0.7834806" x2="0.5002444" y2="0.21348059" id="gradient_7">
      <stop offset="0" stop-color="#808080" stop-opacity="0.2509804" />
      <stop offset="0.54" stop-color="#808080" stop-opacity="0.12156863" />
      <stop offset="1" stop-color="#808080" stop-opacity="0.101960786" />
    </linearGradient>
    <linearGradient x1="0.50000584" y1="0.9992731" x2="0.50000584" y2="0.0010149815" id="gradient_8">
      <stop offset="0" stop-color="#808080" stop-opacity="0.2509804" />
      <stop offset="0.54" stop-color="#808080" stop-opacity="0.12156863" />
      <stop offset="1" stop-color="#808080" stop-opacity="0.101960786" />
    </linearGradient>
    <linearGradient x1="0.49988282" y1="0.9978202" x2="0.49988282" y2="0" id="gradient_9">
      <stop offset="0" stop-color="#808080" stop-opacity="0.2509804" />
      <stop offset="0.54" stop-color="#808080" stop-opacity="0.12156863" />
      <stop offset="1" stop-color="#808080" stop-opacity="0.101960786" />
    </linearGradient>
    <linearGradient x1="0.50032073" y1="1" x2="0.50032073" y2="0.00019833399" id="gradient_10">
      <stop offset="0" stop-color="#808080" stop-opacity="0.2509804" />
      <stop offset="0.54" stop-color="#808080" stop-opacity="0.12156863" />
      <stop offset="1" stop-color="#808080" stop-opacity="0.101960786" />
    </linearGradient>
    <linearGradient x1="0.5" y1="1" x2="0.5" y2="1.35924E-15" id="gradient_11">
      <stop offset="0" stop-color="#808080" stop-opacity="0.2509804" />
      <stop offset="0.54" stop-color="#808080" stop-opacity="0.12156863" />
      <stop offset="1" stop-color="#808080" stop-opacity="0.101960786" />
    </linearGradient>
    <linearGradient x1="0.5000358" y1="1" x2="0.5000358" y2="-7.3293035E-05" id="gradient_12">
      <stop offset="0" stop-color="#808080" stop-opacity="0.2509804" />
      <stop offset="0.54" stop-color="#808080" stop-opacity="0.12156863" />
      <stop offset="1" stop-color="#808080" stop-opacity="0.101960786" />
    </linearGradient>
    <linearGradient x1="0.49994025" y1="0.99898803" x2="0.49994025" y2="-0.0012356917" id="gradient_13">
      <stop offset="0" stop-color="#808080" stop-opacity="0.2509804" />
      <stop offset="0.54" stop-color="#808080" stop-opacity="0.12156863" />
      <stop offset="1" stop-color="#808080" stop-opacity="0.101960786" />
    </linearGradient>
    <linearGradient x1="0.49974856" y1="0.99986696" x2="0.49974856" y2="-0.00029180417" id="gradient_14">
      <stop offset="0" stop-color="#808080" stop-opacity="0.2509804" />
      <stop offset="0.54" stop-color="#808080" stop-opacity="0.12156863" />
      <stop offset="1" stop-color="#808080" stop-opacity="0.101960786" />
    </linearGradient>
    <linearGradient x1="0.5004023" y1="0.99997205" x2="0.5004023" y2="-0.0018046418" id="gradient_15">
      <stop offset="0" stop-color="#808080" stop-opacity="0.2509804" />
      <stop offset="0.54" stop-color="#808080" stop-opacity="0.12156863" />
      <stop offset="1" stop-color="#808080" stop-opacity="0.101960786" />
    </linearGradient>
    <linearGradient x1="0.5004023" y1="0.9979686" x2="0.5004023" y2="-0.001899084" id="gradient_16">
      <stop offset="0" stop-color="#808080" stop-opacity="0.2509804" />
      <stop offset="0.54" stop-color="#808080" stop-opacity="0.12156863" />
      <stop offset="1" stop-color="#808080" stop-opacity="0.101960786" />
    </linearGradient>
    <linearGradient x1="0.49828067" y1="1" x2="0.49828067" y2="0" id="gradient_17">
      <stop offset="0" stop-color="#808080" stop-opacity="0.2509804" />
      <stop offset="0.54" stop-color="#808080" stop-opacity="0.12156863" />
      <stop offset="1" stop-color="#808080" stop-opacity="0.101960786" />
    </linearGradient>
    <linearGradient x1="0.4993858" y1="0.9988889" x2="0.4993858" y2="-0.0022222223" id="gradient_18">
      <stop offset="0" stop-color="#808080" stop-opacity="0.2509804" />
      <stop offset="0.54" stop-color="#808080" stop-opacity="0.12156863" />
      <stop offset="1" stop-color="#808080" stop-opacity="0.101960786" />
    </linearGradient>
    <linearGradient x1="0.5000721" y1="1.0002118" x2="0.5000721" y2="0.00094757596" id="gradient_19">
      <stop offset="0" stop-color="#808080" stop-opacity="0.2509804" />
      <stop offset="0.54" stop-color="#808080" stop-opacity="0.12156863" />
      <stop offset="1" stop-color="#808080" stop-opacity="0.101960786" />
    </linearGradient>
    <linearGradient x1="0.49986035" y1="1.000051" x2="0.49986035" y2="0" id="gradient_20">
      <stop offset="0" stop-color="#808080" stop-opacity="0.2509804" />
      <stop offset="0.54" stop-color="#808080" stop-opacity="0.12156863" />
      <stop offset="1" stop-color="#808080" stop-opacity="0.101960786" />
    </linearGradient>
    <linearGradient x1="0.49783087" y1="1.0011796" x2="0.49783087" y2="0" id="gradient_21">
      <stop offset="0" stop-color="#808080" stop-opacity="0.2509804" />
      <stop offset="0.54" stop-color="#808080" stop-opacity="0.12156863" />
      <stop offset="1" stop-color="#808080" stop-opacity="0.101960786" />
    </linearGradient>
    <linearGradient x1="0.4979053" y1="1.0003538" x2="0.4979053" y2="0" id="gradient_22">
      <stop offset="0" stop-color="#808080" stop-opacity="0.2509804" />
      <stop offset="0.54" stop-color="#808080" stop-opacity="0.12156863" />
      <stop offset="1" stop-color="#808080" stop-opacity="0.101960786" />
    </linearGradient>
    <linearGradient x1="0.51108146" y1="1.0008681" x2="0.51108146" y2="0" id="gradient_23">
      <stop offset="0" stop-color="#808080" stop-opacity="0.2509804" />
      <stop offset="0.54" stop-color="#808080" stop-opacity="0.12156863" />
      <stop offset="1" stop-color="#808080" stop-opacity="0.101960786" />
    </linearGradient>
    <linearGradient x1="0.49981365" y1="1.0010949" x2="0.49981365" y2="0.005736934" id="gradient_24">
      <stop offset="0" stop-color="#808080" stop-opacity="0.2509804" />
      <stop offset="0.54" stop-color="#808080" stop-opacity="0.12156863" />
      <stop offset="1" stop-color="#808080" stop-opacity="0.101960786" />
    </linearGradient>
    <linearGradient x1="0.5" y1="1.0000632" x2="0.5" y2="0" id="gradient_25">
      <stop offset="0" stop-color="#808080" stop-opacity="0.2509804" />
      <stop offset="0.54" stop-color="#808080" stop-opacity="0.12156863" />
      <stop offset="1" stop-color="#808080" stop-opacity="0.101960786" />
    </linearGradient>
    <linearGradient x1="0.49993396" y1="0.6672" x2="0.49993396" y2="0.3272" id="gradient_26">
      <stop offset="0" stop-color="#808080" stop-opacity="0.2509804" />
      <stop offset="0.54" stop-color="#808080" stop-opacity="0.12156863" />
      <stop offset="1" stop-color="#808080" stop-opacity="0.101960786" />
    </linearGradient>
    <linearGradient x1="0.49997017" y1="1.0002464" x2="0.49997017" y2="0" id="gradient_27">
      <stop offset="0" stop-color="#808080" stop-opacity="0.2509804" />
      <stop offset="0.54" stop-color="#808080" stop-opacity="0.12156863" />
      <stop offset="1" stop-color="#808080" stop-opacity="0.101960786" />
    </linearGradient>
    <linearGradient x1="0.49995577" y1="0.9997419" x2="0.49995577" y2="-0.00014185949" id="gradient_28">
      <stop offset="0" stop-color="#808080" stop-opacity="0.2509804" />
      <stop offset="0.54" stop-color="#808080" stop-opacity="0.12156863" />
      <stop offset="1" stop-color="#808080" stop-opacity="0.101960786" />
    </linearGradient>
    <linearGradient x1="0.49712512" y1="1" x2="0.49712512" y2="0" id="gradient_29">
      <stop offset="0" stop-color="#808080" stop-opacity="0.2509804" />
      <stop offset="0.54" stop-color="#808080" stop-opacity="0.12156863" />
      <stop offset="1" stop-color="#808080" stop-opacity="0.101960786" />
    </linearGradient>
    <linearGradient x1="0.4988829" y1="1" x2="0.4988829" y2="-0.00035893754" id="gradient_30">
      <stop offset="0" stop-color="#808080" stop-opacity="0.2509804" />
      <stop offset="0.54" stop-color="#808080" stop-opacity="0.12156863" />
      <stop offset="1" stop-color="#808080" stop-opacity="0.101960786" />
    </linearGradient>
    <linearGradient x1="0.5003326" y1="0.9985809" x2="0.5003326" y2="-0.0013390289" id="gradient_31">
      <stop offset="0" stop-color="#808080" stop-opacity="0.2509804" />
      <stop offset="0.54" stop-color="#808080" stop-opacity="0.12156863" />
      <stop offset="1" stop-color="#808080" stop-opacity="0.101960786" />
    </linearGradient>
    <linearGradient x1="0.5008327" y1="1" x2="0.5008327" y2="0" id="gradient_32">
      <stop offset="0" stop-color="#808080" stop-opacity="0.2509804" />
      <stop offset="0.54" stop-color="#808080" stop-opacity="0.12156863" />
      <stop offset="1" stop-color="#808080" stop-opacity="0.101960786" />
    </linearGradient>
    <linearGradient x1="0.5007356" y1="0.99959165" x2="0.5007356" y2="4.642174E-15" id="gradient_33">
      <stop offset="0" stop-color="#808080" stop-opacity="0.2509804" />
      <stop offset="0.54" stop-color="#808080" stop-opacity="0.12156863" />
      <stop offset="1" stop-color="#808080" stop-opacity="0.101960786" />
    </linearGradient>
    <linearGradient x1="0.50008714" y1="1.0012809" x2="0.50008714" y2="0.00042698547" id="gradient_34">
      <stop offset="0" stop-color="#808080" stop-opacity="0.2509804" />
      <stop offset="0.54" stop-color="#808080" stop-opacity="0.12156863" />
      <stop offset="1" stop-color="#808080" stop-opacity="0.101960786" />
    </linearGradient>
    <linearGradient x1="0.49991515" y1="1.0013239" x2="0.49991515" y2="0.0013239188" id="gradient_35">
      <stop offset="0" stop-color="#808080" stop-opacity="0.2509804" />
      <stop offset="0.54" stop-color="#808080" stop-opacity="0.12156863" />
      <stop offset="1" stop-color="#808080" stop-opacity="0.101960786" />
    </linearGradient>
  </defs>
  <g id="undraw_setup_wizard_r6mr" transform="translate(1 1)">
    <path d="M258.231 49.0436C229.738 48.0575 202.601 38.8562 176.688 28.7921C150.775 18.7279 125.108 7.56314 97.2974 2.2493C79.41 -1.18466 58.9515 -1.66894 44.5421 7.92415C30.6785 17.1518 26.188 33.0977 23.7798 47.8638C21.966 58.9845 20.9006 70.6908 25.8666 81.1028C29.3182 88.3317 35.4377 94.4072 39.6729 101.328C54.4081 125.423 43.9917 155.131 28.0282 178.654C20.5439 189.686 11.849 200.226 6.06848 211.959C0.287973 223.691 -2.38435 237.163 2.67414 249.147C7.6842 261.034 19.6282 269.944 32.5672 276.218C58.8458 288.963 89.7999 292.608 120.006 294.678C186.849 299.247 254.045 297.271 321.064 295.285C345.868 294.554 370.777 293.81 395.176 289.976C408.727 287.845 422.714 284.464 432.553 276.302C445.039 265.942 448.134 248.403 439.765 235.411C425.729 213.623 386.935 208.212 377.112 184.83C371.715 171.957 377.258 157.623 385.107 145.688C401.943 120.078 430.158 97.6122 431.642 68.3443C432.663 48.2424 419.099 28.1097 398.126 18.5958C376.144 8.62415 345.657 9.87886 329.446 26.3795C312.739 43.3776 283.383 49.9197 258.231 49.0436Z" transform="translate(8.503853 0)" id="Path" fill="#4D7CFE" fill-opacity="0.1" fill-rule="evenodd" stroke="none" />
    <path d="M0 0L114.25 0L114.25 114.25L0 114.25L0 0Z" transform="translate(0 54.361816)" id="Rectangle" fill="#E8E9ED" fill-rule="evenodd" stroke="none" />
    <path d="M0 0L114.25 0L114.25 114.25L0 114.25L0 0Z" transform="translate(353.2975 54.361816)" id="Rectangle" fill="#E8E9ED" fill-rule="evenodd" stroke="none" />
    <path d="M13.8415 1.24603L12.7013 0.0793585C12.6554 0.0280668 12.5896 -0.000837607 12.5208 0.000113161C12.4517 -0.00205637 12.3854 0.0270642 12.3403 0.0793585L4.45975 8.00389L1.58931 5.13785C1.54267 5.08772 1.47728 5.05924 1.4088 5.05924C1.34033 5.05924 1.27494 5.08772 1.2283 5.13785L0.0792453 6.28691C0.0286409 6.3351 0 6.40193 0 6.47181C0 6.54169 0.0286409 6.60852 0.0792453 6.65672L3.69811 10.2712C3.89241 10.4864 4.16189 10.6187 4.45094 10.641C4.73648 10.6161 5.00359 10.4895 5.20377 10.2844L5.20377 10.2844L13.8459 1.61584C13.9401 1.51055 13.9401 1.35131 13.8459 1.24603L13.8415 1.24603Z" transform="translate(50.16667 12.854736)" id="Path" fill="#3ACC6C" fill-opacity="0.5" fill-rule="evenodd" stroke="none" />
    <path d="M13.4413 1.80944C18.9832 1.81341 23.7508 5.73107 24.8291 11.1671C25.9075 16.6031 22.9962 22.044 17.8754 24.163C12.7546 26.2821 6.84995 24.4894 3.77173 19.8809C0.69351 15.2725 1.29874 9.13145 5.21737 5.21258C7.39441 3.02577 10.3556 1.8004 13.4413 1.80944L13.4413 1.80944ZM13.4413 2.8906e-06C8.00454 3.18225e-06 3.10323 3.27525 1.0231 8.2983C-1.05704 13.3214 0.0937152 19.1029 3.93869 22.9466C7.78367 26.7903 13.5656 27.9392 18.5879 25.8574C23.6103 23.7756 26.8839 18.8732 26.8822 13.4365C26.8833 9.87178 25.4675 6.45282 22.9464 3.93261C20.4254 1.4124 17.006 -0.00233404 13.4413 2.8906e-06L13.4413 2.8906e-06Z" transform="translate(43.681366 4.740967)" id="Shape" fill="#4D7CFE" fill-opacity="0.5" fill-rule="evenodd" stroke="none" />
    <path d="M17.424 1.56755L15.9887 0.0971091C15.9311 0.0343363 15.8494 -0.000892332 15.7642 0.000253716C15.6772 -0.00337974 15.5932 0.0321646 15.5353 0.0971091L5.61641 10.0908L2.00195 6.48076C1.94366 6.41889 1.86241 6.38384 1.77742 6.3839C1.6911 6.38367 1.60843 6.41865 1.54849 6.48076L0.100059 7.92918C0.036216 7.9891 0 8.07276 0 8.16032C0 8.24787 0.036216 8.33153 0.100059 8.39145L4.65226 12.9348C4.89832 13.2051 5.23871 13.3705 5.6032 13.3971C5.95947 13.3665 6.29332 13.2105 6.54534 12.9569L6.54534 12.9569L17.4196 2.02101C17.5243 1.89293 17.5243 1.70883 17.4196 1.58076L17.424 1.56755Z" transform="translate(134.82384 50.099854)" id="Path" fill="#3ACC6C" fill-opacity="0.8" fill-rule="evenodd" stroke="none" />
    <path d="M16.9189 2.2761C23.9021 2.27765 29.9118 7.21163 31.2731 14.0609C32.6344 20.9101 28.9682 27.7672 22.5163 30.439C16.0645 33.1108 8.62372 30.8533 4.74414 25.0469C0.864561 19.2406 1.62655 11.5023 6.56415 6.56415C9.3033 3.80743 13.0327 2.26303 16.9189 2.2761L16.9189 2.2761ZM16.9189 5.73926e-07C7.57484 5.73926e-07 0 7.57484 0 16.9189C0 26.2629 7.57484 33.8377 16.9189 33.8377C26.2629 33.8377 33.8377 26.2629 33.8377 16.9189C33.8389 12.4313 32.0568 8.12729 28.8836 4.95413C25.7104 1.78098 21.4064 -0.0011676 16.9189 5.73926e-07L16.9189 5.73926e-07Z" transform="translate(126.655975 39.881836)" id="Shape" fill="#4D7CFE" fill-opacity="0.8" fill-rule="evenodd" stroke="none" />
    <path d="M13.4413 1.80944C18.9832 1.81341 23.7508 5.73107 24.8291 11.1671C25.9075 16.6031 22.9962 22.044 17.8754 24.163C12.7546 26.2821 6.84995 24.4894 3.77173 19.8809C0.69351 15.2725 1.29874 9.13145 5.21737 5.21258C7.39441 3.02577 10.3556 1.8004 13.4413 1.80944L13.4413 1.80944ZM13.4413 2.8906e-06C8.00454 3.18225e-06 3.10323 3.27525 1.0231 8.2983C-1.05704 13.3214 0.0937152 19.1029 3.93869 22.9466C7.78367 26.7903 13.5656 27.9392 18.5879 25.8574C23.6103 23.7756 26.8839 18.8732 26.8822 13.4365C26.8833 9.87178 25.4675 6.45282 22.9464 3.93261C20.4254 1.4124 17.006 -0.00233404 13.4413 2.8906e-06L13.4413 2.8906e-06Z" transform="translate(396.97885 4.740967)" id="Shape" fill="#4D7CFE" fill-opacity="0.5" fill-rule="evenodd" stroke="none" />
    <path d="M16.8969 2.27612C23.8821 2.26717 29.9005 7.19494 31.2699 14.0447C32.6394 20.8944 28.9783 27.7573 22.5265 30.4348C16.0748 33.1123 8.63014 30.8582 4.74722 25.0515C0.864301 19.2449 1.6251 11.5038 6.56415 6.56417C9.30497 3.80995 13.0333 2.266 16.9189 2.27612L16.8969 2.27612ZM16.9189 2.06567e-05C7.57484 2.06567e-05 0 7.57486 0 16.9189C0 26.2629 7.57484 33.8378 16.9189 33.8378C26.2629 33.8378 33.8377 26.2629 33.8377 16.9189C33.8389 12.4276 32.0537 8.12015 28.8758 4.94636C25.6979 1.77257 21.3882 -0.00699356 16.8969 2.06567e-05L16.9189 2.06567e-05Z" transform="translate(306.4547 39.881836)" id="Shape" fill="#4D7CFE" fill-opacity="0.8" fill-rule="evenodd" stroke="none" />
    <path d="M22.3692 3.01132C31.5968 3.0175 39.5354 9.54031 41.3311 18.5915C43.1267 27.6427 38.2795 36.7021 29.7532 40.2305C21.2268 43.759 11.3953 40.774 6.27 33.1007C1.14465 25.4274 2.15252 15.2023 8.67736 8.67736C12.3009 5.03511 17.2315 2.9947 22.3692 3.01132L22.3692 3.01132ZM22.3692 4.34032e-07C10.015 4.34032e-07 0 10.015 0 22.3692C0 34.7233 10.015 44.7384 22.3692 44.7384C34.7233 44.7384 44.7384 34.7233 44.7384 22.3692C44.7395 16.4361 42.3832 10.7458 38.1879 6.55049C33.9926 2.3552 28.3022 -0.0011676 22.3692 4.34032e-07L22.3692 4.34032e-07Z" transform="translate(210.66919 65.993164)" id="Shape" fill="#4D7CFE" fill-rule="evenodd" stroke="none" />
    <path d="M0 0L127.321 0L127.321 127.321L0 127.321L0 0Z" transform="translate(79.91447 84.30762)" id="Rectangle" fill="#F3F5F7" fill-rule="evenodd" stroke="none" />
    <path d="M0 0L127.321 0L127.321 127.321L0 127.321L0 0Z" transform="translate(259.6912 84.30762)" id="Rectangle" fill="#F3F5F7" fill-rule="evenodd" stroke="none" />
    <path d="M0 0L42.4667 0L42.4667 4.7195L0 4.7195L0 0Z" transform="translate(11.415726 74.64404)" id="Rectangle" fill="#000000" fill-opacity="0.1" fill-rule="evenodd" stroke="none" />
    <path d="M0 0L42.4667 0L42.4667 4.7195L0 4.7195L0 0Z" transform="translate(373.85724 74.64404)" id="Rectangle" fill="#000000" fill-opacity="0.1" fill-rule="evenodd" stroke="none" />
    <path d="M0 47.2082C0 47.2082 11.0327 27.6654 27.6478 22.0346C34.6313 19.7173 40.6746 15.1972 44.8704 9.15283C46.8386 6.26267 48.5392 3.19904 49.9509 0" transform="translate(308.7 225.04736)" id="Path" fill="none" fill-rule="evenodd" stroke="#535461" stroke-width="2" />
    <path d="M10.7113 8.2071C8.81823 10.043 0 11.9448 0 11.9448C0 11.9448 2.16604 3.18823 4.05912 1.34798C5.95321 -0.488978 8.97782 -0.442657 10.8148 1.45144C12.6517 3.34553 12.6054 6.37015 10.7113 8.2071L10.7113 8.2071Z" transform="translate(358.38678 213.24341)" id="Path" fill="#4D7CFE" fill-rule="evenodd" stroke="none" />
    <path d="M11.0063 9.44063C8.41761 9.95572 0 6.7595 0 6.7595C0 6.7595 6.57295 0.595974 9.16163 0.0720743C11.7187 -0.374869 14.1646 1.30206 14.6696 3.8483C15.1745 6.39453 13.5536 8.87795 11.0195 9.44063L11.0063 9.44063Z" transform="translate(353.10376 227.8501)" id="Path" fill="#4D7CFE" fill-rule="evenodd" stroke="none" />
    <path d="M8.15786 9.24466C5.66604 8.36415 0 1.36415 0 1.36415C0 1.36415 8.80503 -0.647795 11.2836 0.215098C12.8966 0.773466 14.0892 2.14993 14.4121 3.82599C14.735 5.50205 14.1393 7.22308 12.8492 8.34077C11.5592 9.45847 9.77083 9.80303 8.15786 9.24466Z" transform="translate(337.7918 245.19385)" id="Path" fill="#4D7CFE" fill-rule="evenodd" stroke="none" />
    <path d="M9.37737 9.46225C6.77108 9.022 0 3.0742 0 3.0742C0 3.0742 8.32957 -0.390579 10.9315 0.0364648C12.6283 0.299994 14.0531 1.45404 14.6633 3.05913C15.2736 4.66423 14.9753 6.47336 13.8821 7.7976C12.7889 9.12184 11.069 9.7574 9.37737 9.46225L9.37737 9.46225Z" transform="translate(319.93082 254.85107)" id="Path" fill="#4D7CFE" fill-rule="evenodd" stroke="none" />
    <path d="M0.00880504 4.77233C0.00880504 7.41384 4.78114 15.061 4.78114 15.061C4.78114 15.061 9.55347 7.41384 9.55347 4.77673C9.55347 2.13861 7.41485 0 4.77673 0C2.13862 0 0 2.13861 0 4.77673L0.00880504 4.77233Z" transform="translate(345.72955 222.99585)" id="Path" fill="#4D7CFE" fill-rule="evenodd" stroke="none" />
    <path d="M0.218041 6.20328C1.00609 8.72152 7.85201 14.5945 7.85201 14.5945C7.85201 14.5945 10.1237 5.86869 9.33565 3.35045C8.82605 1.72175 7.48624 0.488636 5.82094 0.115618C4.15563 -0.2574 2.41783 0.286347 1.26213 1.54203C0.106437 2.79772 -0.291569 4.57458 0.218041 6.20328Z" transform="translate(326.18008 233.37231)" id="Path" fill="#4D7CFE" fill-rule="evenodd" stroke="none" />
    <path d="M0.0426285 5.41366C0.39483 8.02876 6.14452 14.9715 6.14452 14.9715C6.14452 14.9715 9.86025 6.75643 9.51245 4.14133C9.28517 2.44971 8.17269 1.00785 6.59406 0.358865C5.01544 -0.290115 3.2105 -0.0476106 1.85915 0.995029C0.507803 2.03767 -0.184651 3.72204 0.0426285 5.41366Z" transform="translate(309.13284 248.20166)" id="Path" fill="#4D7CFE" fill-rule="evenodd" stroke="none" />
    <path d="M10.7113 8.2071C8.81823 10.043 0 11.9448 0 11.9448C0 11.9448 2.16604 3.18823 4.05912 1.34798C5.95321 -0.488978 8.97782 -0.442657 10.8148 1.45144C12.6517 3.34553 12.6054 6.37015 10.7113 8.2071L10.7113 8.2071Z" transform="translate(358.38678 213.24341)" id="Path" fill="#000000" fill-opacity="0.25" fill-rule="evenodd" stroke="none" />
    <path d="M11.0063 9.44063C8.41761 9.95572 0 6.7595 0 6.7595C0 6.7595 6.57295 0.595974 9.16163 0.0720743C11.7187 -0.374869 14.1646 1.30206 14.6696 3.8483C15.1745 6.39453 13.5536 8.87795 11.0195 9.44063L11.0063 9.44063Z" transform="translate(353.10376 227.8501)" id="Path" fill="#000000" fill-opacity="0.25" fill-rule="evenodd" stroke="none" />
    <path d="M8.15786 9.24466C5.66604 8.36415 0 1.36415 0 1.36415C0 1.36415 8.80503 -0.647795 11.2836 0.215098C12.8966 0.773466 14.0892 2.14993 14.4121 3.82599C14.735 5.50205 14.1393 7.22308 12.8492 8.34077C11.5592 9.45847 9.77083 9.80303 8.15786 9.24466Z" transform="translate(337.7918 245.19385)" id="Path" fill="#000000" fill-opacity="0.25" fill-rule="evenodd" stroke="none" />
    <path d="M9.37737 9.46225C6.77108 9.022 0 3.0742 0 3.0742C0 3.0742 8.32957 -0.390579 10.9315 0.0364648C12.6283 0.299994 14.0531 1.45404 14.6633 3.05913C15.2736 4.66423 14.9753 6.47336 13.8821 7.7976C12.7889 9.12184 11.069 9.7574 9.37737 9.46225L9.37737 9.46225Z" transform="translate(319.93082 254.85107)" id="Path" fill="#000000" fill-opacity="0.25" fill-rule="evenodd" stroke="none" />
    <path d="M0.00880504 4.77233C0.00880504 7.41384 4.78114 15.061 4.78114 15.061C4.78114 15.061 9.55347 7.41384 9.55347 4.77673C9.55347 2.13861 7.41485 0 4.77673 0C2.13862 0 0 2.13861 0 4.77673L0.00880504 4.77233Z" transform="translate(345.72955 222.99585)" id="Path" fill="#000000" fill-opacity="0.25" fill-rule="evenodd" stroke="none" />
    <path d="M0.218041 6.20328C1.00609 8.72152 7.85201 14.5945 7.85201 14.5945C7.85201 14.5945 10.1237 5.86869 9.33565 3.35045C8.82605 1.72175 7.48624 0.488636 5.82094 0.115618C4.15563 -0.2574 2.41783 0.286347 1.26213 1.54203C0.106437 2.79772 -0.291569 4.57458 0.218041 6.20328Z" transform="translate(326.18008 233.37231)" id="Path" fill="#000000" fill-opacity="0.25" fill-rule="evenodd" stroke="none" />
    <path d="M0.0426285 5.41366C0.39483 8.02876 6.14452 14.9715 6.14452 14.9715C6.14452 14.9715 9.86025 6.75643 9.51245 4.14133C9.28517 2.44971 8.17269 1.00785 6.59406 0.358865C5.01544 -0.290115 3.2105 -0.0476106 1.85915 0.995029C0.507803 2.03767 -0.184651 3.72204 0.0426285 5.41366Z" transform="translate(309.13284 248.20166)" id="Path" fill="#000000" fill-opacity="0.25" fill-rule="evenodd" stroke="none" />
    <path d="M0 63.4006C0 63.4006 2.17044 41.0667 15.0742 29.1843C20.5201 24.2311 24.2135 17.646 25.6006 10.4164C26.2298 6.98004 26.5436 3.49343 26.5384 0" transform="translate(309.33395 208.46753)" id="Path" fill="none" fill-rule="evenodd" stroke="#535461" stroke-width="2" />
    <path d="M9.18739 6.56254C8.20123 9.01034 0.910667 14.3198 0.910667 14.3198C0.910667 14.3198 -0.66103 5.4399 0.325133 2.9921C0.96293 1.40901 2.39685 0.286433 4.08674 0.0472365C5.77664 -0.19196 7.46577 0.488562 8.51787 1.83246C9.56997 3.17635 9.82519 4.97945 9.18739 6.56254L9.18739 6.56254Z" transform="translate(334.77676 194.3811)" id="Path" fill="#4D7CFE" fill-rule="evenodd" stroke="none" />
    <path d="M11.1604 8.59894C9.00315 10.1178 0 10.6153 0 10.6153C0 10.6153 3.52202 2.30334 5.66604 0.788878C7.82167 -0.631985 10.7162 -0.0828786 12.2017 2.02873C13.6872 4.14033 13.226 7.05016 11.1604 8.59894Z" transform="translate(334.66162 208.84961)" id="Path" fill="#4D7CFE" fill-rule="evenodd" stroke="none" />
    <path d="M10.6497 9.54314C8.00818 9.76327 0 5.64691 0 5.64691C0 5.64691 7.22013 0.245027 9.84843 0.0249012C11.5665 -0.150995 13.2458 0.614255 14.2403 2.0263C15.2348 3.43835 15.3896 5.27725 14.6451 6.83568C13.9007 8.39412 12.373 9.42933 10.6497 9.54314L10.6497 9.54314Z" transform="translate(325.5176 230.93945)" id="Path" fill="#4D7CFE" fill-rule="evenodd" stroke="none" />
    <path d="M11.1604 9.38086C8.60251 10.0412 0 7.33809 0 7.33809C0 7.33809 6.20754 0.795944 8.761 0.131163C11.2911 -0.471838 13.8386 1.06026 14.492 3.57783C15.1454 6.09539 13.6644 8.67298 11.1604 9.37646L11.1604 9.38086Z" transform="translate(313.78052 246.88477)" id="Path" fill="#4D7CFE" fill-rule="evenodd" stroke="none" />
    <path d="M0.41044 6.70164C1.48025 9.11421 8.94252 14.1859 8.94252 14.1859C8.94252 14.1859 10.2148 5.25761 9.14944 2.84503C8.08082 0.431825 5.25824 -0.658179 2.84503 0.41044C0.431825 1.47906 -0.658179 4.30164 0.41044 6.71484L0.41044 6.70164Z" transform="translate(324.75497 209.4878)" id="Path" fill="#4D7CFE" fill-rule="evenodd" stroke="none" />
    <path d="M1.1875 7.92995C2.9485 9.91108 11.5686 12.5086 11.5686 12.5086C11.5686 12.5086 10.107 3.60668 8.368 1.62555C6.62709 -0.357295 3.60839 -0.553416 1.62555 1.1875C-0.357295 2.92841 -0.553417 5.94711 1.1875 7.92995L1.1875 7.92995Z" transform="translate(311.07855 226.88208)" id="Path" fill="#4D7CFE" fill-rule="evenodd" stroke="none" />
    <path d="M0.716283 7.27823C2.09427 9.52792 10.1685 13.5474 10.1685 13.5474C10.1685 13.5474 10.2389 4.52666 8.84772 2.27698C7.46666 0.0291078 4.52484 -0.67358 2.27697 0.707479C0.0291078 2.08854 -0.673579 5.03036 0.707478 7.27823L0.716283 7.27823Z" transform="translate(301.4988 247.354)" id="Path" fill="#4D7CFE" fill-rule="evenodd" stroke="none" />
    <path d="M0 0L42.4667 0L42.4667 4.7195L0 4.7195L0 0Z" transform="translate(96.34906 111.484375)" id="Rectangle" fill="#000000" fill-opacity="0.1" fill-rule="evenodd" stroke="none" />
    <path d="M0 0L25.3541 0L25.3541 4.7195L0 4.7195L0 0Z" transform="translate(174.60378 152.96924)" id="Rectangle" fill="#000000" fill-opacity="0.1" fill-rule="evenodd" stroke="none" />
    <path d="M0 0L37.5447 0L37.5447 4.7195L0 4.7195L0 0Z" transform="translate(174.60378 184.64111)" id="Rectangle" fill="#000000" fill-opacity="0.1" fill-rule="evenodd" stroke="none" />
    <path d="M0 0L42.4667 0L42.4667 4.7195L0 4.7195L0 0Z" transform="translate(96.34906 128.11719)" id="Rectangle" fill="#000000" fill-opacity="0.1" fill-rule="evenodd" stroke="none" />
    <path d="M0 0L42.4667 0L42.4667 4.7195L0 4.7195L0 0Z" transform="translate(287.44907 111.484375)" id="Rectangle" fill="#000000" fill-opacity="0.1" fill-rule="evenodd" stroke="none" />
    <path d="M0 0L42.4667 0L42.4667 4.7195L0 4.7195L0 0Z" transform="translate(287.44907 128.11719)" id="Rectangle" fill="#000000" fill-opacity="0.1" fill-rule="evenodd" stroke="none" />
    <path d="M0 13.9119L1.18868 12.3535C2.33224 13.474 3.86693 14.1055 5.46793 14.1145C7.47547 14.1145 8.96353 13.1327 8.96353 11.5434C8.96353 9.81761 7.53711 8.68176 3.58365 8.68176L3.58365 6.88994C7.10566 6.88994 8.42642 5.73207 8.42642 4.2044C8.42642 2.82201 7.24214 1.95912 5.48554 1.95912C4.117 1.99948 2.80946 2.53438 1.80503 3.46478L0.54151 1.95912C1.92965 0.718062 3.72049 0.02206 5.58239 0C8.62453 0 10.8654 1.46163 10.8654 4.0239C10.8654 5.82893 9.54466 7.0088 7.64277 7.66038L7.64277 7.75723C9.68114 8.19748 11.3893 9.54906 11.3893 11.6579C11.3893 14.4402 8.7478 16.1088 5.63082 16.1088C2.9805 16.1044 1.16226 15.0962 0 13.9119Z" transform="translate(227.02013 81.02783)" id="Path" fill="#4D7CFE" fill-rule="evenodd" stroke="none" />
    <g id="Group" transform="translate(316.98114 49.307617)" opacity="0.8">
      <path d="M7.45346 4.98365C7.45346 4.13836 7.5283 3.05975 7.57233 2.21447L7.46226 2.21447C6.97799 2.96289 6.42767 3.70692 5.93459 4.45094L2.41258 8.96792L11.7635 8.96792L11.7635 10.7862L0 10.7862L0 9.24528L7.02201 0L9.60629 0L9.60629 14.7L7.45346 14.7L7.45346 4.98365Z" transform="translate(0.32138366 0.079245284)" id="Path" fill="#4D7CFE" fill-rule="evenodd" stroke="none" />
    </g>
    <g id="Group" transform="translate(405.4717 13.207031)" opacity="0.5">
      <path d="M0 9.39057L0.796855 8.30315C1.56722 9.05829 2.60176 9.48316 3.6805 9.48742C5.09811 9.48742 6.21195 8.64214 6.21195 7.25535C6.21195 5.86855 5.23019 5.12013 3.77296 5.12013C3.035 5.11399 2.31182 5.32696 1.69497 5.73208L0.867296 5.19937L1.20189 0L7.36541 0L7.36541 1.43082L2.65472 1.43082L2.39497 4.27925C2.96857 4.0188 3.59207 3.88659 4.22201 3.89182C6.24277 3.89182 7.88931 4.93082 7.88931 7.22893C7.88931 9.52704 5.96101 10.8698 3.87862 10.8698C2.44049 10.912 1.04478 10.3797 0 9.39057Z" transform="translate(0.37421384 0.24213837)" id="Path" fill="#4D7CFE" fill-rule="evenodd" stroke="none" />
    </g>
    <path d="M0 0L157.386 0L157.386 157.386L0 157.386L0 0Z" transform="translate(152.83774 124.73169)" id="Rectangle" fill="#4D7CFE" fill-opacity="0.1" fill-rule="evenodd" stroke="none" />
    <path d="M0 0L157.386 0L157.386 157.386L0 157.386L0 0Z" transform="translate(158.12076 117.247314)" id="Rectangle" fill="#FFFFFF" fill-rule="evenodd" stroke="none" />
    <path d="M0 0L124.415 0L124.415 4.7195L0 4.7195L0 0Z" transform="translate(174.60378 134.68115)" id="Rectangle" fill="#4D7CFE" fill-opacity="0.5" fill-rule="evenodd" stroke="none" />
    <path d="M0 0L79.2233 0L79.2233 4.7195L0 4.7195L0 0Z" transform="translate(174.60378 168.80518)" id="Rectangle" fill="#000000" fill-opacity="0.1" fill-rule="evenodd" stroke="none" />
    <path d="M0 0L76.8679 0L76.8679 4.7195L0 4.7195L0 0Z" transform="translate(174.60378 200.4812)" id="Rectangle" fill="#000000" fill-opacity="0.1" fill-rule="evenodd" stroke="none" />
    <path d="M0 0L104.784 0L104.784 4.7195L0 4.7195L0 0Z" transform="translate(174.60378 216.31714)" id="Rectangle" fill="#000000" fill-opacity="0.1" fill-rule="evenodd" stroke="none" />
    <path d="M6.59675 0.594339L6.05524 0.0352201C6.03126 0.0129845 5.99989 0.000434857 5.96719 0C5.93575 0.000214224 5.90567 0.0128785 5.88354 0.0352201L2.12819 3.82138L0.759012 2.4522C0.734614 2.43064 0.7035 2.41819 0.670962 2.41698C0.639706 2.41808 0.609941 2.43061 0.587314 2.4522L0.0369991 3.00251C0.0133352 3.0257 0 3.05743 0 3.09056C0 3.12369 0.0133352 3.15543 0.0369991 3.17861L1.76279 4.9C1.85664 5.00208 1.98557 5.06498 2.12379 5.0761C2.25973 5.06466 2.38668 5.00353 2.4804 4.9044L2.4804 4.9044L6.59675 0.770439C6.63796 0.718971 6.63796 0.645807 6.59675 0.594339L6.59675 0.594339Z" transform="translate(269.66992 168.62915)" id="Path" fill="#3ACC6C" fill-opacity="0.5" fill-rule="evenodd" stroke="none" />
    <path d="M6.41025 0.858492C9.05706 0.856582 11.3365 2.7249 11.8543 5.32059C12.372 7.91627 10.9838 10.5162 8.53878 11.5299C6.09378 12.5436 3.27319 11.6887 1.80239 9.48816C0.331583 7.28762 0.620334 4.35451 2.49201 2.48302C3.52855 1.4397 4.93957 0.854682 6.41025 0.858492L6.41025 0.858492ZM6.41025 1.52264e-06C3.8186 -0.00177907 1.48124 1.55826 0.488632 3.95229C-0.503972 6.34632 0.0437893 9.10257 1.87636 10.9351C3.70893 12.7677 6.46519 13.3155 8.85922 12.3229C11.2533 11.3303 12.8133 8.99291 12.8115 6.40126C12.8066 2.86938 9.94213 0.00880321 6.41025 0.00880655L6.41025 1.52264e-06Z" transform="translate(266.57654 164.75488)" id="Shape" fill="#3ACC6C" fill-opacity="0.5" fill-rule="evenodd" stroke="none" />
    <path d="M6.59675 0.590062L6.05524 0.0353446C6.03236 0.0114268 6.00025 -0.00141749 5.96719 0.000124469C5.93543 -0.00131868 5.90471 0.0116173 5.88354 0.0353446L2.12819 3.81711L0.759012 2.45233C0.736271 2.4277 0.704478 2.41339 0.670962 2.41271C0.638744 2.41355 0.608375 2.42794 0.587314 2.45233L0.0369991 2.99824C0.0133352 3.02143 0 3.05316 0 3.08629C0 3.11942 0.0133352 3.15116 0.0369991 3.17434L1.76279 4.90013C1.85664 5.00222 1.98557 5.06511 2.12379 5.07623C2.25919 5.06286 2.3855 5.00204 2.4804 4.90453L2.4804 4.90453L6.59675 0.766163C6.63796 0.714695 6.63796 0.641531 6.59675 0.590062L6.59675 0.590062Z" transform="translate(269.66992 200.30518)" id="Path" fill="#3ACC6C" fill-opacity="0.5" fill-rule="evenodd" stroke="none" />
    <path d="M6.41025 0.880505C9.05706 0.878594 11.3365 2.74691 11.8543 5.3426C12.372 7.93828 10.9838 10.5382 8.53878 11.5519C6.09378 12.5656 3.27319 11.7107 1.80239 9.51017C0.331584 7.30964 0.620335 4.37652 2.49201 2.50503C3.52855 1.46171 4.93957 0.876695 6.41025 0.880505L6.41025 0.880505ZM6.41025 1.52368e-06C3.819 -0.0017794 1.48191 1.55778 0.489053 3.95127C-0.503809 6.34476 0.0431452 9.10067 1.8748 10.9336C3.70646 12.7665 6.462 13.3154 8.85617 12.3241C11.2503 11.3329 12.8115 8.99691 12.8115 6.40566C12.8127 4.70718 12.1388 3.07786 10.9382 1.87644C9.73758 0.675022 8.10873 1.12198e-06 6.41025 1.52368e-06L6.41025 1.52368e-06Z" transform="translate(266.57654 196.43091)" id="Shape" fill="#3ACC6C" fill-opacity="0.5" fill-rule="evenodd" stroke="none" />
    <path d="M31.4384 10.5484C48.8013 10.5484 62.8767 8.18708 62.8767 5.27422C62.8767 2.36135 48.8013 0 31.4384 0C14.0754 0 0 2.36135 0 5.27422C0 8.18708 14.0754 10.5484 31.4384 10.5484Z" transform="translate(194.19496 339.16943)" id="Oval" fill="#4D7CFE" fill-opacity="0.1" fill-rule="evenodd" stroke="none" />
    <path d="M4.51295 0C4.51295 0 6.15068 2.14403 3.75571 5.38428C1.36074 8.62453 -0.620388 11.3541 0.18087 13.3748C0.18087 13.3748 3.79534 7.36101 6.74062 7.27736C9.6859 7.19371 7.7488 3.61887 4.51295 0Z" transform="translate(53.12039 305.25684)" id="Path" fill="#4D7CFE" fill-rule="evenodd" stroke="none" />
    <path d="M4.42013 0C4.56275 0.207692 4.67539 0.434451 4.75472 0.673585C7.62516 4.05032 9.15724 7.19812 6.39686 7.27736C3.82579 7.3522 0.739623 11.9484 0 13.1107C0.023373 13.2006 0.05279 13.2889 0.0880503 13.3748C0.0880503 13.3748 3.70252 7.36101 6.6478 7.27736C9.59308 7.19371 7.65598 3.61887 4.42013 0Z" transform="translate(53.21321 305.25684)" id="Path" fill="#000000" fill-opacity="0.1" fill-rule="evenodd" stroke="none" />
    <path d="M0.409433 0.48452C0.409433 1.24175 0.325785 1.8537 0.220125 1.8537C0.114465 1.8537 0.0308175 1.24175 0.0308175 0.48452C0.0308175 -0.272711 0.136478 0.0838922 0.242138 0.0838922C0.347798 0.0838922 0.409433 -0.268308 0.409433 0.48452Z" transform="translate(60.27044 307.5061)" id="Path" fill="#FFD037" fill-rule="evenodd" stroke="none" />
    <path d="M1.29325 0.528457C0.628466 0.889464 0.0517359 1.10959 0.00330825 1.01714C-0.0451194 0.924684 0.44356 0.576885 1.11274 0.193865C1.78193 -0.189155 1.51337 0.0970092 1.55299 0.193865C1.59262 0.29072 1.95362 0.16745 1.29325 0.528457Z" transform="translate(60.43443 308.36475)" id="Path" fill="#FFD037" fill-rule="evenodd" stroke="none" />
    <path d="M3.6789 0C3.6789 0 2.03676 2.14403 4.43613 5.38428C6.8355 8.62453 8.80783 11.3541 8.01097 13.3748C8.01097 13.3748 4.3921 7.36101 1.45122 7.27736C-1.48965 7.19371 0.438646 3.61887 3.6789 0Z" transform="translate(45.290283 305.25684)" id="Path" fill="#4D7CFE" fill-rule="evenodd" stroke="none" />
    <path d="M3.6789 0C3.53627 0.207692 3.42363 0.434451 3.34431 0.673585C0.469464 4.05032 -1.05821 7.19812 1.70217 7.27736C4.27324 7.3522 7.3594 11.9484 8.09902 13.1107C8.07261 13.1987 8.04619 13.2868 8.01097 13.3748C8.01097 13.3748 4.3921 7.36101 1.45122 7.27736C-1.48966 7.19371 0.438646 3.61887 3.6789 0Z" transform="translate(45.290283 305.25684)" id="Path" fill="#000000" fill-opacity="0.1" fill-rule="evenodd" stroke="none" />
    <path d="M0.0308175 0.48452C0.0308175 1.24175 0.114465 1.8537 0.220125 1.8537C0.325785 1.8537 0.409433 1.24175 0.409433 0.48452C0.409433 -0.272711 0.303773 0.0838922 0.198113 0.0838922C0.0924526 0.0838922 0.0308175 -0.268308 0.0308175 0.48452Z" transform="translate(45.88742 307.5061)" id="Path" fill="#FFD037" fill-rule="evenodd" stroke="none" />
    <path d="M0.395447 0.528457C1.05582 0.889464 1.63255 1.10959 1.68538 1.01714C1.73822 0.924684 1.24513 0.576885 0.57595 0.193865C-0.093233 -0.189155 0.175321 0.0970092 0.135698 0.193865C0.0960753 0.29072 -0.269334 0.16745 0.395447 0.528457Z" transform="translate(44.4794 308.36475)" id="Path" fill="#FFD037" fill-rule="evenodd" stroke="none" />
    <path d="M17.1478 5.26541C26.6183 5.26541 34.2956 4.08671 34.2956 2.63271C34.2956 1.1787 26.6183 0 17.1478 0C7.67733 0 0 1.1787 0 2.63271C0 4.08671 7.67733 5.26541 17.1478 5.26541Z" transform="translate(36.153458 329.7744)" id="Oval" fill="#4D7CFE" fill-opacity="0.1" fill-rule="evenodd" stroke="none" />
    <path d="M17.6665 0.999372L17.5828 1.67296L17.4684 2.6151L17.42 3.01132L17.3055 3.95786L17.2571 4.35409L17.1382 5.29623L15.8174 16.056C15.703 17.0157 14.1313 17.7642 12.2382 17.7642L5.4275 17.7642C3.53442 17.7642 1.96713 17.0157 1.85266 16.056L0.531907 5.29623L0.417441 4.35409L0.369014 3.95786L0.254548 3.01132L0.206121 2.6151L0.0916554 1.67296L0.00360505 0.999372C-0.0624327 0.457862 0.787253 0 1.85706 0L15.8042 0C16.8828 0 17.7325 0.457862 17.6665 0.999372Z" transform="translate(44.461807 314.73975)" id="Path" fill="#65617D" fill-rule="evenodd" stroke="none" />
    <path d="M17.4912 0L17.3767 0.946533L0.118868 0.946533L0 0L17.4912 0L17.4912 0Z" transform="translate(44.55346 316.4082)" id="Path" fill="#9D9CB5" fill-rule="evenodd" stroke="none" />
    <path d="M17.161 0L17.0465 0.946533L0.114465 0.946533L0 0L17.161 0L17.161 0Z" transform="translate(44.720757 317.75098)" id="Path" fill="#9D9CB5" fill-rule="evenodd" stroke="none" />
    <path d="M16.8352 0L16.7164 0.946533L0.114465 0.946533L0 0L16.8352 0L16.8352 0Z" transform="translate(44.88365 319.08936)" id="Path" fill="#9D9CB5" fill-rule="evenodd" stroke="none" />
    <path d="M56.9635 33.898C56.6686 33.2948 54.322 25.5332 54.322 25.5332L49.8006 14.0558C49.8006 14.0558 47.0579 -1.04922 42.9635 2.71934C38.8692 6.48789 45.1648 15.5307 45.1648 15.5307C45.1648 15.5307 47.7491 22.1344 47.617 23.4552C47.4849 24.7759 49.0566 29.6187 49.0566 29.6187L48.5459 32.4011C47.8811 32.3571 47.4497 32.3571 47.4497 32.3571C47.4497 32.3571 47.0447 32.9382 46.6572 32.9778C46.5915 32.9868 46.5245 32.9776 46.4635 32.9514C46.0233 32.7533 44.5661 32.7929 43.822 32.7929C43.1309 32.6997 42.4617 32.4851 41.8453 32.159C41.59 31.6483 40.1459 31.3445 38.8648 31.1728C37.8918 28.7514 36.5227 26.3961 36.3334 23.869C36.2402 23.1812 36.3764 22.4818 36.7208 21.8791C36.8062 21.75 36.9035 21.6291 37.0113 21.5181C37.3679 21.1571 37.8038 20.8401 38.2 20.5055C38.3981 20.3382 38.5786 20.1665 38.7503 19.9904C42.1095 16.7325 41.5767 11.6873 38.5302 8.19607C35.0082 4.15896 19.1239 -4.5272 14.3164 2.91305C13.6472 3.95204 13.6252 5.15393 13.4359 6.30739C12.9568 9.12848 11.6336 11.738 9.6409 13.7917C8.04719 15.4866 5.95599 17.0495 5.04027 18.969L5.00945 18.8986C4.79118 19.315 4.63119 19.7594 4.53398 20.2193C4.07172 22.5571 5.64782 24.8068 6.47549 27.0829C6.75714 27.856 6.96067 28.6554 7.08304 29.469L7.13587 28.9671C7.33861 30.1294 7.40804 31.3111 7.34279 32.4892C1.57549 33.669 1.57109 43.6099 1.57109 43.6099C1.57109 43.6099 0.862283 47.5722 0.981151 48.9854C1.10002 50.3986 1.10002 53.4892 1.10002 54.242C1.10002 54.9948 0.386811 59.6175 0.307566 60.1722C0.206308 60.7841 -0.876711 63.7162 1.73838 64.3766C1.91889 64.425 2.1126 64.4646 2.31071 64.4998C2.42077 66.8728 2.62769 71.852 2.44719 72.9527C2.44719 72.9527 3.39813 79.6357 4.18618 81.3175C4.69228 82.3118 5.28137 83.2617 5.94719 84.1571C5.89135 84.5629 5.75515 84.9536 5.54656 85.3061C5.14593 85.8917 5.35285 86.3715 6.02643 86.5785C6.00589 86.781 5.97947 87.0099 5.94719 87.2653C5.66103 89.8451 5.22958 94.9652 5.94719 97.5627C6.95536 101.12 7.0126 102.304 7.0126 102.304C7.01206 102.883 7.15419 103.453 7.42643 103.964C7.86668 104.558 8.61511 110.07 8.61511 110.96C8.61511 111.849 10.6315 119.853 10.0371 121.75C9.44279 123.648 9.91826 126.316 9.91826 126.316C9.91826 126.316 9.56165 131 9.14782 132.008C8.73398 133.016 8.55348 149.261 9.20505 153.47C9.85662 157.679 10.2749 161.179 10.2749 161.179C10.2749 161.179 9.83461 165.031 10.2132 165.582C10.5918 166.132 11.2214 169.319 10.7459 169.495C10.2705 169.672 10.0371 170.979 10.0371 170.979C10.2876 171.361 10.558 171.73 10.8472 172.084C10.6634 172.02 10.4839 171.943 10.3101 171.855C10.4994 172.124 10.7812 172.494 11.1245 172.899L10.8032 177.16C10.7746 177.505 10.9972 177.82 11.3315 177.909C13.4525 178.49 15.7212 177.848 17.222 176.24C20.1849 173.216 21.1843 173.634 21.7302 171.794C21.783 171.595 21.8359 171.406 21.8755 171.221C22.042 170.497 21.7771 169.742 21.1947 169.281C20.6123 168.82 19.8166 168.736 19.1503 169.064C19.3396 167.743 19.4893 166.295 19.344 165.463C19.0491 163.746 19.1063 159.238 19.1063 159.238L18.6925 137.665C18.6925 137.665 19.4629 133.399 20.3522 131.739C21.2415 130.08 21.1227 124.255 21.1227 124.255L22.1308 105.161L23.1346 95.9162C23.1346 95.9162 24.0812 92.7156 25.2654 96.2728C25.2654 96.2728 24.6139 103.444 24.9132 105.166C25.2126 106.887 25.622 115.243 25.3271 117.083C25.0321 118.924 23.7245 129.001 24.5566 131.55C25.3887 134.099 26.2736 137.181 26.0975 138.189C25.9214 139.197 25.3271 161.082 25.3271 161.082C25.3271 161.082 26.9252 165.291 25.7409 166.656C24.5566 168.021 25.6837 173.475 25.6837 173.475C25.6837 173.475 25.8245 173.577 26.0711 173.722L26.0359 174.162L25.6661 179.067C25.6393 179.411 25.8612 179.725 26.1944 179.815C28.3154 180.395 30.583 179.752 32.0849 178.146C35.0478 175.122 36.0472 175.536 36.5931 173.7C36.6459 173.502 36.6988 173.308 36.7428 173.123C36.9262 172.318 36.577 171.486 35.8742 171.053C35.1714 170.62 34.271 170.682 33.6346 171.208C33.6147 171.229 33.5926 171.249 33.5686 171.265C33.4937 171.331 33.4145 171.389 33.3352 171.446L33.2208 171.521C33.5157 170.165 33.9472 167.853 33.7447 166.761C33.4497 165.159 34.0396 160.299 34.0396 160.299C34.0396 160.299 35.761 154.487 35.8006 152.176C35.8403 149.865 36.2761 133.685 36.2761 133.685C36.2761 133.685 36.2189 126.157 36.4566 124.321C36.6944 122.485 38.5874 106.592 40.4849 101.868C41.9422 98.2319 42.5937 88.9646 42.2063 84.2583C42.1843 84.0206 42.1623 83.8181 42.1403 83.5891C44.4604 81.8458 44.7069 78.9753 44.7069 78.9753C44.7069 78.9753 42.5717 74.8634 40.5157 73.1244C38.4598 71.3854 37.9843 68.3829 38.0635 67.1149C38.0998 66.3413 37.8472 65.5819 37.3547 64.9841C37.3547 64.9841 36.4038 61.9024 35.7698 61.5854C35.7178 61.5595 35.6714 61.5236 35.6334 61.4797C35.1931 61.013 35.5321 59.6879 35.5321 59.6879L35.5321 59.6483C35.6025 59.3401 36.0648 57.3502 35.9151 56.8395C35.7654 56.3288 35.9944 53.6785 35.9944 53.6785C35.9944 53.6785 37.5 49.1747 37.2623 45.6175C37.0245 42.0602 40.344 42.3728 40.344 42.3728L50.5975 42.2671L51.7642 42.2671C52.2562 41.8473 52.6993 41.3732 53.0849 40.8539C53.8853 41.0043 54.7117 40.8021 55.3522 40.2992C57.5271 38.3093 57.2585 34.5099 56.9635 33.898ZM9.27989 64.7156L9.35474 62.9105L9.75537 63.2539C9.87764 63.7275 9.87764 64.2244 9.75537 64.698C9.6296 65.1489 9.30562 65.5183 8.87486 65.7017C8.82398 65.7268 8.77537 65.7563 8.72958 65.7898L8.62832 64.7596C9.04656 64.7332 9.27989 64.7112 9.27989 64.7112L9.27989 64.7156Z" transform="translate(203.1547 169.40527)" id="Shape" fill="#000000" fill-opacity="0.1" fill-rule="evenodd" stroke="none" />
    <path d="M5.94562 36.7305C5.94562 36.7305 11.7834 40.4859 13.9934 38.4916C16.2035 36.4972 15.9305 32.6494 15.6311 32.0419C15.3318 31.4343 12.9544 23.6199 12.9544 23.6199L8.3626 12.05C8.3626 12.05 5.57141 -3.17827 1.40663 0.603497C-2.75815 4.38526 3.65191 13.5161 3.65191 13.5161C3.65191 13.5161 6.29342 20.1771 6.14373 21.511C5.99405 22.845 7.60537 27.7318 7.60537 27.7318L5.94562 36.7305Z" transform="translate(244.95375 170.07275)" id="Path" fill="url(#gradient_1)" fill-rule="evenodd" stroke="none" />
    <path d="M11.2593 2.37187C11.2153 2.56118 11.1669 2.75489 11.1052 2.953C10.5637 4.80646 9.53792 4.38822 6.5266 7.43476C4.99437 9.05781 2.69241 9.70439 0.539176 9.11653C0.201834 9.02821 -0.0241832 8.71142 0.00206928 8.3637L0.380686 3.41967L0.561189 1.0379C0.561189 1.0379 5.35553 2.38508 7.79893 0.6813C7.87817 0.624067 7.95742 0.566835 8.03226 0.500797L8.1027 0.443564C8.74704 -0.0842393 9.65467 -0.146929 10.3655 0.287276C11.0762 0.721481 11.4348 1.55764 11.2593 2.37187L11.2593 2.37187Z" transform="translate(228.75266 340.10376)" id="Path" fill="url(#gradient_2)" fill-rule="evenodd" stroke="none" />
    <path d="M11.2555 2.37451C11.2159 2.56382 11.1631 2.75753 11.1059 2.95564C10.5643 4.8091 9.53856 4.39086 6.52724 7.43741C4.99387 9.05859 2.69385 9.70631 0.539817 9.12357C0.199631 9.03656 -0.0276287 8.71616 0.00271019 8.36634L0.376924 3.42231L0.56183 1.04054C0.56183 1.04054 5.35617 2.38772 7.79517 0.683941C7.87881 0.626708 7.95366 0.569475 8.0329 0.503437L8.10334 0.446204C8.74666 -0.0839166 9.65538 -0.147736 10.3665 0.287265C11.0776 0.722265 11.4346 1.56036 11.2555 2.37451L11.2555 2.37451Z" transform="translate(213.71301 338.23438)" id="Path" fill="url(#gradient_3)" fill-rule="evenodd" stroke="none" />
    <g id="Group" transform="translate(213.08176 341.19458)" opacity="0.1">
      <path d="M6.80189 0.101258L7 2.66792C4.24403 5.39748 0.968553 1.34717 0 0C2.52264 1.29434 6.80189 0.101258 6.80189 0.101258Z" transform="translate(0.11886793 0.057232704)" id="Path" fill="url(#gradient_4)" fill-rule="evenodd" stroke="none" />
    </g>
    <g id="Group" transform="translate(228.93082 340.75415)" opacity="0.1">
      <path d="M7.04843 1.61132L7.41384 1.37358C4.8956 5.16855 1.16226 3.41635 0 2.73836L0.180503 0.356604C0.180503 0.356604 4.97484 1.70377 7.41824 0C7.22453 0.928931 7.04843 1.61132 7.04843 1.61132Z" transform="translate(0.20251572 0.03081761)" id="Path" fill="url(#gradient_5)" fill-rule="evenodd" stroke="none" />
    </g>
    <path d="M35.5002 20.6441C33.5719 25.4252 31.6436 41.4459 31.4015 43.2994C31.1593 45.1529 31.221 52.7428 31.221 52.7428L30.7191 71.3919C30.6618 73.7252 28.914 79.5805 28.914 79.5805C28.914 79.5805 28.3109 84.4849 28.6103 86.0963C28.9096 87.7076 27.8266 91.956 27.8266 91.956L28.192 91.7183C25.1763 96.2573 20.4172 92.8497 20.4172 92.8497C20.4172 92.8497 19.2725 87.351 20.4744 85.9774C21.6763 84.6038 20.0562 80.3598 20.0562 80.3598C20.0562 80.3598 20.6549 58.3032 20.8398 57.2862C21.0247 56.2692 20.153 53.161 19.2725 50.59C18.392 48.0189 19.7524 37.8579 20.0562 36.0044C20.36 34.151 19.9329 25.7246 19.6159 23.99C19.299 22.2554 19.9769 15.0221 19.9769 15.0221C18.7707 11.4384 17.8065 14.6655 17.8065 14.6655L16.8424 24.0516L15.8518 43.3214C15.8518 43.3214 15.9751 49.1768 15.0681 50.8497C14.1612 52.5227 13.382 56.8283 13.382 56.8283L13.8222 78.5856C13.8222 78.5856 13.7606 83.129 14.0644 84.8636C14.3681 86.5981 13.3996 91.0799 13.3996 91.0799C10.0273 98.9692 4.59455 90.4239 4.59455 90.4239C4.59455 90.4239 4.83229 89.1032 5.31657 88.9271C5.80084 88.751 5.13606 85.5195 4.77506 84.9648C4.41405 84.4101 4.83229 80.5623 4.83229 80.5623C4.83229 80.5623 4.41405 77.0403 3.74927 72.7875C3.08449 68.5346 3.2694 52.1661 3.68764 51.1491C4.10587 50.1321 4.47128 45.4258 4.47128 45.4258C4.47128 45.4258 3.99141 42.7359 4.59455 40.8208C5.1977 38.9057 3.14613 30.8403 3.14613 29.9422C3.14613 29.0441 2.36248 23.4881 1.93984 22.8982C1.65629 22.3858 1.50497 21.8108 1.49959 21.2252C1.49959 21.2252 1.43795 20.0277 0.412164 16.4441C-0.336264 13.8026 0.103988 8.66042 0.412164 6.06294C0.517824 5.09879 0.605875 4.48684 0.605875 4.48684C0.605875 4.48684 35.1964 -1.07354 36.5832 0.185579C36.909 0.476145 37.1247 1.50633 37.248 2.94155C37.6398 7.63463 36.9751 16.9812 35.5002 20.6441Z" transform="translate(208.33752 249.96484)" id="Path" fill="url(#gradient_6)" fill-rule="evenodd" stroke="none" />
    <g id="Group" transform="translate(230.69182 297.16943)" opacity="0.1">
      <path d="M0 0.21674C0.162893 0.21674 3.96226 0.58174 5.38428 0.26174C6.80629 -0.0582597 0 0.21674 0 0.21674Z" transform="translate(0.06603774 0.1432597)" id="Path" fill="url(#gradient_7)" fill-rule="evenodd" stroke="none" />
    </g>
    <g id="Group" transform="translate(230.69182 299.3706)" opacity="0.1">
      <path d="M0 0.000586391C0 0.000586391 5.28302 0.91631 5.54717 0.440838C5.81132 -0.0346337 0 0.000586391 0 0.000586391Z" transform="translate(0.34779873 0.34721234)" id="Path" fill="url(#gradient_8)" fill-rule="evenodd" stroke="none" />
    </g>
    <g id="Group" transform="translate(214.84277 298.49)" opacity="0.1">
      <path d="M0 0C0 0 2.72956 0.118868 4.21761 0.796855C5.70566 1.47484 0 0 0 0Z" transform="translate(0.08805031 0.27295598)" id="Path" fill="url(#gradient_9)" fill-rule="evenodd" stroke="none" />
    </g>
    <path d="M0 0.0836478C0 0.0836478 0.440252 8.41321 0.202516 9.88365C0.202516 9.88365 1.16667 16.6195 1.96352 18.3321C2.68247 19.6981 3.53013 20.9925 4.49497 22.1975L6.86353 5.66163L6.31321 0L0 0.0836478Z" transform="translate(205.00755 231.65112)" id="Path" fill="url(#gradient_10)" fill-rule="evenodd" stroke="none" />
    <path d="M9.2805 18.4113C14.406 18.4113 18.561 14.2898 18.561 9.20566C18.561 4.12151 14.406 0 9.2805 0C4.15502 0 0 4.12151 0 9.20566C0 14.2898 4.15502 18.4113 9.2805 18.4113Z" transform="translate(220.63647 175.38257)" id="Oval" fill="url(#gradient_11)" fill-rule="evenodd" stroke="none" />
    <path d="M6.06758 0.311539C6.06758 0.311539 3.17513 5.92915 0.282676 8.56185C-2.60978 11.1946 17.6374 14.1795 18.1173 14.1795C18.5971 14.1795 14.5028 2.22663 15.2248 0.791413C15.9468 -0.643806 6.06758 0.311539 6.06758 0.311539Z" transform="translate(219.02864 188.58228)" id="Path" fill="url(#gradient_12)" fill-rule="evenodd" stroke="none" />
    <g id="Group" transform="translate(208.67924 249.62207)" opacity="0.1">
      <path d="M36.8358 2.93275C36.3816 3.27782 35.8806 3.5565 35.3478 3.76042C31.6541 5.19564 27.6346 7.18998 24.9006 6.40193C22.1667 5.61388 16.3862 6.40193 16.3862 6.40193C16.3862 6.40193 4.7327 5.44218 2.40377 6.0013C1.6228 6.23866 0.792109 6.25996 0 6.06294C0.10566 5.09879 0.193711 4.48684 0.193711 4.48684C0.193711 4.48684 34.7843 -1.07354 36.1711 0.185579C36.4969 0.46734 36.7126 1.48432 36.8358 2.93275Z" transform="translate(0.070440255 0.30750227)" id="Path" fill="url(#gradient_13)" fill-rule="evenodd" stroke="none" />
    </g>
    <path d="M43.7742 52.1082C43.7742 52.1082 43.4528 56.0704 39.7547 57.5277C36.0566 58.9849 32.0415 60.9572 29.3075 60.1692C26.5736 59.3811 20.7931 60.1692 20.7931 60.1692C20.7931 60.1692 9.13962 59.2094 6.81069 59.7686C4.48176 60.3277 3.28868 59.6101 3.99748 58.5711C4.70629 57.5321 4.64465 54.1113 4.64465 52.6761C4.64465 51.2409 3.83899 45.4208 4.56101 44.3862C5.28302 43.3516 5.92579 39.3673 7.37421 38.7289C7.81348 38.5463 8.14567 38.1736 8.27673 37.7164C8.40308 37.2388 8.40308 36.7366 8.27673 36.2591C8.27673 36.2591 8.03459 36.061 7.6956 35.7616C6.84591 35.0088 5.40189 33.6088 5.86415 33.1509C6.50692 32.5126 5.86415 28.3654 5.86415 28.3654C5.86415 28.3654 4.33648 25.178 4.9 23.9849C5.46352 22.7918 0 16.5006 0 16.5006C0 16.5006 0 5.66163 6.60377 5.18176C6.60377 5.18176 11.2616 5.34465 11.8252 3.27107C12.3887 1.19748 16.0824 0 16.0824 0L24.5176 1.83585C24.5176 1.83585 32.0019 3.42956 33.3579 2.47421C34.7138 1.51887 35.7704 3.74654 35.7704 3.74654C35.7704 3.74654 40.4283 3.98868 40.9126 4.94403C41.3969 5.89937 39.3849 15.2239 39.3849 15.2239C39.3849 15.2239 36.0082 14.9069 36.2503 18.495C36.4925 22.083 34.9648 26.622 34.9648 26.622C34.9648 26.622 34.7226 29.2635 34.8855 29.8094C35.0484 30.3553 34.5686 32.3277 34.4937 32.6402L34.4937 32.6799C34.4937 32.6799 34.1591 34.0006 34.595 34.4893C34.637 34.5307 34.6844 34.5662 34.7359 34.595C35.3786 34.9119 36.3428 38.0201 36.3428 38.0201C36.8452 38.6218 37.1044 39.3898 37.0692 40.173C36.9899 41.4497 37.4698 44.4742 39.5566 46.2308C41.6434 47.9874 43.7742 52.1082 43.7742 52.1082Z" transform="translate(204.34277 195.44482)" id="Path" fill="url(#gradient_14)" fill-rule="evenodd" stroke="none" />
    <path d="M9.56116 17.773L9.56116 18.112L9.41147 21.8409C9.41147 21.8409 4.47185 22.2371 1.7775 21.5591C-0.916837 20.8811 0.223415 17.9359 0.329076 17.3195C0.329076 17.3195 0.329076 17.3195 0.329076 17.3195C0.408321 16.7604 1.13033 12.0981 1.13033 11.3409C1.13033 10.5836 1.13033 7.47547 1.01147 6.05786C0.892598 4.64025 1.61461 0.638365 1.61461 0.638365L2.13411 0L7.80015 2.15283L9.56116 17.773Z" transform="translate(202.71495 211.3291)" id="Path" fill="url(#gradient_15)" fill-rule="evenodd" stroke="none" />
    <g id="Group" transform="translate(202.51572 228.48999)" opacity="0.1">
      <path d="M9.56115 0.792453L9.41147 4.52138C9.41147 4.52138 4.47184 4.91761 1.7775 4.23962C-0.916836 3.56164 0.223415 0.616352 0.329076 0L9.56115 0.792453Z" transform="translate(0.1904213 0.16729559)" id="Path" fill="url(#gradient_16)" fill-rule="evenodd" stroke="none" />
    </g>
    <g id="Group" transform="translate(211.761 228.0498)" opacity="0.1">
      <path d="M0.581132 5.08491C0.707485 4.60738 0.707485 4.1052 0.581132 3.62767C0.581132 3.62767 0.338994 3.42956 0 3.13019C4.25723 2.54465 21.1057 0.246541 26.7849 0L26.7849 0.0396226C26.7849 0.0396226 26.4503 1.36038 26.8862 1.84906L0.581132 5.08491Z" transform="translate(0.29937106 0.017610064)" id="Path" fill="url(#gradient_17)" fill-rule="evenodd" stroke="none" />
    </g>
    <g id="Group" transform="translate(236.4151 235.97437)" opacity="0.1">
      <path d="M2.85283 0C2.85283 0 3.89623 5.85975 0 7.92453C0 7.92453 2.21006 5.00566 2.85283 0Z" transform="translate(0.17169811 0.079245284)" id="Path" fill="url(#gradient_18)" fill-rule="evenodd" stroke="none" />
    </g>
    <g id="Group" transform="translate(213.52202 243.01831)" opacity="0.1">
      <path d="M0 0.828742C0 0.828742 9.39937 -0.764969 11.2484 0.467735C13.0975 1.70044 0 0.828742 0 0.828742Z" transform="translate(0.40503144 0.28069225)" id="Path" fill="url(#gradient_19)" fill-rule="evenodd" stroke="none" />
    </g>
    <g id="Group" transform="translate(235.09435 207.79834)" opacity="0.1">
      <path d="M0.763782 0C0.763782 0 -0.680243 5.89497 0.402776 7.25094C1.48579 8.60692 0.763782 0 0.763782 0Z" transform="translate(0.32363948 0.026415095)" id="Path" fill="url(#gradient_20)" fill-rule="evenodd" stroke="none" />
    </g>
    <g id="Group" transform="translate(208.67924 202.95557)" opacity="0.1">
      <path d="M0.0451166 0C0.0451166 0 1.36587 2.20126 0.569016 4.46415C-0.227839 6.72704 0.0451166 0 0.0451166 0Z" transform="translate(0.21903434 0.044025157)" id="Path" fill="url(#gradient_21)" fill-rule="evenodd" stroke="none" />
    </g>
    <path d="M0 0C0 0 1.68616 0.999371 1.12264 2.55346C0.559117 4.10755 0 0 0 0Z" transform="translate(206.21384 222.20776)" id="Path" fill="url(#gradient_22)" fill-rule="evenodd" stroke="none" />
    <g id="Group" transform="translate(206.03773 217.48389)" opacity="0.1">
      <path d="M0 0C0 0 1.5673 0.840881 1.76101 2.07359C1.95472 3.30629 0 0 0 0Z" transform="translate(0 0.18050314)" id="Path" fill="url(#gradient_23)" fill-rule="evenodd" stroke="none" />
    </g>
    <g id="Group" transform="translate(228.93082 263.7102)" opacity="0.1">
      <path d="M0 1.32075C0 1.32075 9.84403 2.32013 11.8119 0C11.8119 0.00880503 2.93208 1.76101 0 1.32075Z" transform="translate(0.34339622 0.29496855)" id="Path" fill="url(#gradient_24)" fill-rule="evenodd" stroke="none" />
    </g>
    <g id="Group" transform="translate(212.20126 264.59082)" opacity="0.1">
      <path d="M0 0C0 0 10.566 2.46981 12.6528 0.515094C12.6528 0.515094 3.57484 1.19308 0 0Z" transform="translate(0.079245284 0.18050314)" id="Path" fill="url(#gradient_25)" fill-rule="evenodd" stroke="none" />
    </g>
    <g id="Group" transform="translate(229.81133 268.1128)" opacity="0.1">
      <path d="M0 0.1636C0 0.1636 4.40252 0.1636 6.4673 0.2986C8.53207 0.4336 0 0.1636 0 0.1636Z" transform="translate(0.2245283 0.3414)" id="Path" fill="url(#gradient_26)" fill-rule="evenodd" stroke="none" />
    </g>
    <g id="Group" transform="translate(212.64151 270.31396)" opacity="0.1">
      <path d="M0 0C0 0 2.17044 2.43019 4.61824 1.99434C7.06604 1.55849 0 0 0 0Z" transform="translate(0.3610063 0.11446541)" id="Path" fill="url(#gradient_27)" fill-rule="evenodd" stroke="none" />
    </g>
    <path d="M9.8938 2.9447C9.21141 3.9925 9.1894 5.20319 9.0133 6.36546C8.52825 9.22191 7.18275 11.8622 5.15669 13.9334C3.22839 15.9673 0.582477 17.8076 0.0849932 20.2906C-0.386076 22.6504 1.21644 24.9177 2.05732 27.2114C4.25858 33.2648 1.17682 39.6089 0.274301 45.856C0.0277605 47.5818 0.327132 49.7875 2.47556 50.3598C3.14474 50.5403 3.91078 50.5183 4.50952 50.8001C5.31958 51.1831 5.56613 51.9799 5.71581 52.6975C6.25214 55.2625 6.43727 57.8884 6.26613 60.5032C6.16927 61.9736 6.06361 63.6598 7.45921 64.668C8.17115 65.1072 8.95511 65.4172 9.77493 65.5837C11.9762 66.1736 14.8246 66.6447 16.3083 65.2667C16.9334 64.69 17.1888 63.8711 17.9416 63.4133C19.1039 62.7309 20.7548 63.1931 22.2208 63.2636C25.0422 63.3845 27.707 61.9653 29.1812 59.5567C30.3655 57.4391 30.2642 55.0265 29.824 52.746C29.3837 50.4655 28.6265 48.2114 28.5693 45.9045C28.5008 45.0961 28.6822 44.2863 29.0888 43.5843C29.9693 42.2107 32.0693 41.5856 33.4913 40.5026C36.1592 38.4774 36.1328 35.1579 35.1818 32.3799C34.2309 29.6019 32.4699 26.9472 32.2542 24.0768C32.1593 23.3822 32.2988 22.6757 32.6504 22.0692C33.1165 21.4932 33.6619 20.9862 34.2705 20.5636C38.1668 17.3013 37.7089 11.939 34.4863 8.27175C30.9114 4.19061 14.7586 -4.57039 9.8938 2.9447Z" transform="translate(207.37035 167.95166)" id="Path" fill="url(#gradient_28)" fill-rule="evenodd" stroke="none" />
    <g id="Group" transform="translate(206.91824 180.0625)" opacity="0.1">
      <path d="M2.67053 10.6541C3.05383 8.24499 2.84378 5.77876 2.05858 3.46918C1.61833 2.31132 1.01518 1.15786 0.57053 0C0.346755 0.414819 0.183667 0.859604 0.0862534 1.32075C-0.389218 3.6761 1.2177 5.9434 2.05858 8.24151C2.34224 9.02336 2.54724 9.83155 2.67053 10.6541L2.67053 10.6541Z" transform="translate(0.33198562 6.9515724)" id="Path" fill="url(#gradient_29)" fill-rule="evenodd" stroke="none" />
      <path d="M6.06195 11.6843C6.23368 9.06927 6.04704 6.44306 5.50723 3.87862C5.35754 3.16101 5.111 2.36415 4.30534 1.98113C3.7022 1.69497 2.93616 1.71698 2.26698 1.54088C1.43863 1.34199 0.747333 0.774022 0.391507 0C0.272639 0.607547 0.162576 1.21509 0.0745261 1.81824C-0.176417 3.54402 0.122954 5.74968 2.27578 6.32201C2.94497 6.50252 3.711 6.4805 4.31415 6.76226C5.11981 7.14528 5.36635 7.94214 5.51604 8.65975C5.76544 9.84941 5.93895 11.0537 6.03553 12.2654C6.02673 12.0761 6.06195 11.878 6.06195 11.6843Z" transform="translate(0.5418261 32.0283)" id="Path" fill="url(#gradient_30)" fill-rule="evenodd" stroke="none" />
      <path d="M22.9615 1.76101C21.4888 4.16891 18.8255 5.58818 16.0055 5.46792C14.5395 5.39748 12.8885 4.93522 11.7263 5.61761C10.9514 6.05786 10.7137 6.89434 10.0929 7.47107C8.60928 8.84906 5.76086 8.37799 3.5596 7.78805C2.73943 7.62276 1.95527 7.31267 1.24387 6.87233C0.636056 6.43321 0.226249 5.77182 0.103623 5.03207C0.103623 5.85094 0.103623 6.67421 0.0507928 7.49308C-0.0460626 8.95912 -0.151723 10.6453 1.24387 11.6535C1.95527 12.0938 2.73943 12.4039 3.5596 12.5692C5.76086 13.1635 8.60928 13.6302 10.0929 12.2522C10.7137 11.6755 10.9734 10.861 11.7263 10.4031C12.8885 9.71635 14.5395 10.1786 16.0055 10.2535C18.8269 10.3747 21.4912 8.95315 22.9615 6.54214C24.1017 4.50818 24.0533 2.20126 23.6571 0C23.5046 0.61534 23.2707 1.20757 22.9615 1.76101Z" transform="translate(6.535371 41.02264)" id="Path" fill="url(#gradient_31)" fill-rule="evenodd" stroke="none" />
      <path d="M2.04602 3.54402C1.4361 3.96665 0.889154 4.47358 0.421489 5.04969C0.0716821 5.65683 -0.0661661 6.36311 0.029665 7.05723C0.104448 7.92966 0.289356 8.78911 0.579979 9.61509C1.02947 9.14253 1.52008 8.71085 2.04602 8.32516C4.68753 6.1239 5.32149 2.95409 4.4674 0C4.01516 1.38828 3.17493 2.61807 2.04602 3.54402L2.04602 3.54402Z" transform="translate(32.553352 0.23333333)" id="Path" fill="url(#gradient_32)" fill-rule="evenodd" stroke="none" />
      <path d="M4.93686 2.60629C3.51044 3.68491 1.41484 4.31006 0.534339 5.68805C0.125866 6.38927 -0.0555997 7.19972 0.0148422 8.00818C0.0480701 8.94096 0.162975 9.86904 0.358238 10.7818C0.41094 10.6743 0.469736 10.5699 0.534339 10.4692C1.41484 9.1 3.51044 8.47044 4.93686 7.38742C7.37145 5.53836 7.57837 2.61069 6.85635 0C6.48819 1.03939 5.82023 1.94635 4.93686 2.60629L4.93686 2.60629Z" transform="translate(28.88327 21.110064)" id="Path" fill="url(#gradient_33)" fill-rule="evenodd" stroke="none" />
    </g>
    <path d="M16.5931 4.42893C14.9465 8.5717 12.8157 10.205 12.8157 10.205L11.6314 10.205L1.20629 10.3107L0 7.04403L1.69056 0L2.72956 0.0660378C3.35611 0.394946 4.03565 0.61103 4.7371 0.704403C5.49874 0.704403 6.98679 0.66478 7.42704 0.862894C7.48907 0.890892 7.55795 0.900077 7.62515 0.889309C8.01697 0.849686 8.43521 0.264151 8.43521 0.264151C8.43521 0.264151 18.2396 0.281761 16.5931 4.42893Z" transform="translate(242.49057 200.32715)" id="Path" fill="url(#gradient_34)" fill-rule="evenodd" stroke="none" />
    <g id="Group" transform="translate(250.0629 200.31396)" opacity="0.1">
      <path d="M8.96352 4.2C7.31698 8.34277 5.18616 9.9761 5.18616 9.9761L4.00189 9.9761C4.61824 8.33396 5.92138 4.96164 6.43208 4.18679C6.94277 3.41195 2.55346 1.61572 0 0.625157C0.391824 0.585535 0.810063 0 0.810063 0C0.810063 0 10.6101 0.0528302 8.96352 4.2Z" transform="translate(0.057232704 0.24213837)" id="Path" fill="url(#gradient_35)" fill-rule="evenodd" stroke="none" />
    </g>
    <path d="M5.84791 36.4446C5.84791 36.4446 11.5712 40.1692 13.7724 38.1792C15.9737 36.1893 15.6787 32.3855 15.3838 31.7824C15.0888 31.1792 12.7422 23.4176 12.7422 23.4176L8.22086 11.9403C8.22086 11.9403 5.47809 -3.16478 1.38375 0.603774C-2.71059 4.37233 3.58501 13.4151 3.58501 13.4151C3.58501 13.4151 6.16929 20.0189 6.03721 21.3396C5.90514 22.6604 7.47684 27.5031 7.47684 27.5031L5.84791 36.4446Z" transform="translate(244.74329 171.521)" id="Path" fill="#EFB7B9" fill-rule="evenodd" stroke="none" />
    <path d="M11.0789 2.35673C11.0349 2.54164 10.9821 2.73535 10.9292 2.93346C10.3921 4.76931 9.38394 4.35547 6.42105 7.38C4.91917 8.98599 2.6515 9.62832 0.530484 9.04855C0.197335 8.95856 -0.0245798 8.64418 0.0021819 8.30013L0.371993 3.39573L0.552496 1.03598C0.552496 1.03598 5.27199 2.35673 7.67136 0.679376C7.75061 0.622143 7.82985 0.56491 7.9047 0.498873C7.92869 0.482206 7.95083 0.463019 7.97073 0.44164C8.60714 -0.084061 9.50757 -0.146388 10.2103 0.286617C10.9131 0.719623 11.2623 1.55191 11.0789 2.35673L11.0789 2.35673Z" transform="translate(228.80096 340.17603)" id="Path" fill="#4D7CFE" fill-rule="evenodd" stroke="none" />
    <path d="M11.0748 2.35769C11.0352 2.5426 10.9823 2.7319 10.9295 2.93002C10.3924 4.77027 9.38422 4.35203 6.42133 7.37656C4.92052 8.9843 2.65179 9.62693 0.530766 9.04511C0.19654 8.95666 -0.0261145 8.64123 0.00246459 8.29668L0.372276 3.39228L0.552779 1.03253C0.552779 1.03253 5.27227 2.35329 7.67164 0.675929C7.75254 0.62148 7.83043 0.562694 7.90498 0.499828L7.97101 0.438193C8.60826 -0.0851991 9.5078 -0.145444 10.2091 0.288298C10.9105 0.72204 11.2584 1.55376 11.0748 2.35769L11.0748 2.35769Z" transform="translate(213.99062 338.32617)" id="Path" fill="#4D7CFE" fill-rule="evenodd" stroke="none" />
    <path d="M6.69182 0.0924529L6.88553 2.64151C4.17798 5.34466 0.950943 1.32076 0 0C2.49182 1.26793 6.69182 0.0924529 6.69182 0.0924529Z" transform="translate(213.5 341.32666)" id="Path" fill="#000000" fill-opacity="0.1" fill-rule="evenodd" stroke="none" />
    <path d="M6.93837 1.59812L7.29497 1.36478C4.82076 5.12454 1.13145 3.38995 0 2.71636L0.180503 0.356605C0.180503 0.356605 4.9 1.67736 7.29938 0C7.11007 0.920128 6.93837 1.59812 6.93837 1.59812Z" transform="translate(229.17296 340.85547)" id="Path" fill="#000000" fill-opacity="0.1" fill-rule="evenodd" stroke="none" />
    <path d="M34.9033 20.5714C33.0058 25.3129 31.1083 41.2016 30.875 43.0242C30.6417 44.8469 30.6945 52.3884 30.6945 52.3884L30.219 70.8789C30.1618 73.1903 28.458 79.0016 28.458 79.0016C28.458 79.0016 27.8681 83.8444 28.1631 85.4645C28.458 87.0846 27.3926 91.2758 27.3926 91.2758L27.7492 91.0381C24.7863 95.5418 20.1021 92.1651 20.1021 92.1651C20.1021 92.1651 18.975 86.7104 20.1593 85.3456C21.3436 83.9808 19.7455 79.772 19.7455 79.772C19.7455 79.772 20.3398 57.8959 20.5159 56.8789C20.692 55.862 19.8027 52.789 18.975 50.24C18.1473 47.6909 19.4505 37.6091 19.7455 35.7733C20.0404 33.9374 19.6266 25.5727 19.3316 23.8557C19.0366 22.1387 19.6838 14.9626 19.6838 14.9626C18.4995 11.4054 17.553 14.606 17.553 14.606L16.6021 23.9129L15.5763 43.0242C15.5763 43.0242 15.6951 48.8311 14.8058 50.5085C13.9165 52.1859 13.1505 56.4167 13.1505 56.4167L13.5643 77.989C13.5643 77.989 13.5071 82.4972 13.8021 84.2142C14.097 85.9311 13.1505 90.3777 13.1505 90.3777C9.83098 98.201 4.49513 89.7261 4.49513 89.7261C4.49513 89.7261 4.73287 88.4054 5.20394 88.2425C5.67501 88.0796 5.02784 84.8613 4.67123 84.3286C4.31463 83.7959 4.73287 79.9261 4.73287 79.9261C4.73287 79.9261 4.29262 76.4261 3.66306 72.2173C3.0335 68.0085 3.19199 51.7632 3.60583 50.755C4.01966 49.7469 4.37627 45.0626 4.37627 45.0626C4.37627 45.0626 3.90079 42.3947 4.49513 40.4972C5.08947 38.5997 3.07312 30.5959 3.07312 29.7066C3.07312 28.8173 2.30268 23.3054 1.88444 22.711C1.6122 22.2002 1.47006 21.6301 1.4706 21.0513C1.4706 21.0513 1.41337 19.867 0.405196 16.3098C-0.330025 13.7123 0.101422 8.59215 0.405196 6.01228C0.510856 5.05693 0.598906 4.44938 0.598906 4.44938C0.598906 4.44938 34.6304 -1.06256 35.9951 0.183347C36.3121 0.473913 36.5278 1.5041 36.6467 2.91731C37.0121 7.64561 36.3605 16.9129 34.9033 20.5714Z" transform="translate(208.73631 250.7024)" id="Path" fill="#444053" fill-rule="evenodd" stroke="none" />
    <path d="M0 0.19084C0.15849 0.19084 3.91383 0.507818 5.28301 0.230463C6.65219 -0.0468927 0 0.19084 0 0.19084Z" transform="translate(230.77547 297.71802)" id="Path" fill="#000000" fill-opacity="0.1" fill-rule="evenodd" stroke="none" />
    <path d="M0 0.000412549C0 0.000412549 5.17735 0.911715 5.45471 0.440655C5.73207 -0.0304044 0 0.000412549 0 0.000412549Z" transform="translate(231.05283 300.12305)" id="Path" fill="#000000" fill-opacity="0.1" fill-rule="evenodd" stroke="none" />
    <path d="M0 0C0 0 2.68553 0.118866 4.14717 0.788039C5.6088 1.45721 0 0 0 0Z" transform="translate(215.20378 299.17676)" id="Path" fill="#000000" fill-opacity="0.1" fill-rule="evenodd" stroke="none" />
    <path d="M0 0.0792453C0 0.0792453 0.440252 8.33837 0.198113 9.8C0.198113 9.8 1.14906 16.483 1.93711 18.1648C2.64504 19.5186 3.47936 20.8025 4.42893 21.9994L6.76227 5.61321L6.21195 0L0 0.0792453Z" transform="translate(205.439 232.61523)" id="Path" fill="#EFB7B9" fill-rule="evenodd" stroke="none" />
    <path d="M9.13081 18.2616C14.1736 18.2616 18.2616 14.1736 18.2616 9.13082C18.2616 4.08801 14.1736 0 9.13081 0C4.088 0 0 4.08801 0 9.13082C0 14.1736 4.088 18.2616 9.13081 18.2616Z" transform="translate(220.81699 176.80444)" id="Oval" fill="#EFB7B9" fill-rule="evenodd" stroke="none" />
    <path d="M5.97099 0.311335C5.97099 0.311335 3.12697 5.88052 0.27854 8.49121C-2.56989 11.1019 17.3559 14.0648 17.8314 14.0648C18.3068 14.0648 14.2741 2.20442 14.9829 0.782404C15.6917 -0.639608 5.97099 0.311335 5.97099 0.311335Z" transform="translate(219.2309 189.89453)" id="Path" fill="#EFB7B9" fill-rule="evenodd" stroke="none" />
    <path d="M36.2415 2.93052C35.7955 3.27242 35.3034 3.54958 34.7799 3.75379C31.1434 5.17581 27.1899 7.15254 24.5 6.36008C21.8101 5.56763 16.1352 6.36008 16.1352 6.36008C16.1352 6.36008 4.68868 5.41354 2.38176 5.96386C1.60713 6.197 0.783469 6.21375 0 6.01228C0.10566 5.05694 0.193711 4.44939 0.193711 4.44939C0.193711 4.44939 34.2252 -1.06257 35.5899 0.183347C35.9069 0.473914 36.1226 1.48209 36.2415 2.93052Z" transform="translate(209.11949 250.73315)" id="Path" fill="#000000" fill-opacity="0.1" fill-rule="evenodd" stroke="none" />
    <path d="M43.0874 51.6987C43.0874 51.6987 42.7704 55.661 39.1252 57.0742C35.4799 58.4874 31.5352 60.473 28.8453 59.6849C26.1553 58.8969 20.4805 59.6849 20.4805 59.6849C20.4805 59.6849 9.03396 58.734 6.72704 59.2887C4.42013 59.8434 3.24906 59.1302 3.95786 58.1C4.66667 57.0698 4.59182 53.6975 4.59182 52.2535C4.59182 50.8094 3.79937 45.0598 4.51258 44.0296C5.22579 42.9994 5.83333 39.0503 7.28176 38.4164C7.71252 38.2329 8.0365 37.8636 8.16226 37.4126C8.28454 36.939 8.28454 36.4421 8.16226 35.9686C8.16226 35.9686 7.92453 35.7704 7.58994 35.4755C6.75346 34.727 5.33585 33.3403 5.79371 32.8868C6.42327 32.2528 5.79371 28.1409 5.79371 28.1409C5.79371 28.1409 4.28805 24.9799 4.84277 23.7956C5.39748 22.6113 0 16.3642 0 16.3642C0 16.3642 0 5.61321 6.4849 5.13774C6.4849 5.13774 11.0679 5.29623 11.6226 3.24025C12.1774 1.18428 15.8138 0 15.8138 0L24.1126 1.81824C24.1126 1.81824 31.4648 3.39874 32.8075 2.4522C34.1503 1.50566 35.1629 3.71132 35.1629 3.71132C35.1629 3.71132 39.7459 3.94906 40.2214 4.8956C40.6969 5.84214 38.7201 15.0918 38.7201 15.0918C38.7201 15.0918 35.4006 14.7792 35.6384 18.3365C35.8761 21.8937 34.3704 26.3975 34.3704 26.3975C34.3704 26.3975 34.1327 29.0082 34.2912 29.5585C34.4497 30.1088 33.9786 32.0591 33.9082 32.3673L33.9082 32.4069C33.9082 32.4069 33.5824 33.7277 34.0094 34.1987C34.0475 34.2426 34.0939 34.2785 34.1459 34.3044C34.7799 34.617 35.7308 37.7032 35.7308 37.7032C36.2232 38.3009 36.4759 39.0604 36.4396 39.834C36.3604 41.1019 36.8358 44.1044 38.8918 45.8434C40.9478 47.5824 43.0874 51.6987 43.0874 51.6987Z" transform="translate(204.77422 196.68188)" id="Path" fill="#4D7CFE" fill-rule="evenodd" stroke="none" />
    <path d="M9.37717 17.6453L9.37717 17.9799L9.23188 21.678C9.23188 21.678 4.38912 22.0742 1.74761 21.4006C-0.893903 20.727 0.215531 17.8082 0.316789 17.1962C0.396034 16.6415 1.10924 12.0145 1.10924 11.266C1.10924 10.5176 1.10924 7.43145 0.990374 6.00943C0.871506 4.58742 1.58031 0.633962 1.58031 0.633962L2.09541 0L7.66899 2.13522L9.37717 17.6453Z" transform="translate(203.21591 212.43848)" id="Path" fill="#4D7CFE" fill-rule="evenodd" stroke="none" />
    <path d="M9.37717 0.783648L9.23188 4.48176C9.23188 4.48176 4.38912 4.87799 1.74761 4.2044C-0.893903 3.53082 0.215531 0.61195 0.316789 0L9.37717 0.783648Z" transform="translate(203.20271 229.63477)" id="Path" fill="#000000" fill-opacity="0.1" fill-rule="evenodd" stroke="none" />
    <path d="M0.572327 5.01888C0.694604 4.5453 0.694604 4.04842 0.572327 3.57485C0.572327 3.57485 0.334591 3.37673 0 3.08177C4.19119 2.50063 20.7667 0.224529 26.3535 0L26.3535 0.0396227C26.3535 0.0396227 26.0277 1.36038 26.4547 1.83145L0.572327 5.01888Z" transform="translate(212.35974 229.08008)" id="Path" fill="#000000" fill-opacity="0.1" fill-rule="evenodd" stroke="none" />
    <path d="M2.8044 0C2.8044 0 3.83459 5.81132 0 7.86729C0 7.86729 2.17484 4.98365 2.8044 0Z" transform="translate(236.50755 236.96045)" id="Path" fill="#000000" fill-opacity="0.1" fill-rule="evenodd" stroke="none" />
    <path d="M0 0.821349C0 0.821349 9.24529 -0.759162 11.0679 0.464744C12.8906 1.68865 0 0.821349 0 0.821349Z" transform="translate(214.21321 244.16504)" id="Path" fill="#000000" fill-opacity="0.1" fill-rule="evenodd" stroke="none" />
    <path d="M0.752561 0C0.752561 0 -0.669449 5.85095 0.395958 7.19371C1.46136 8.53648 0.752561 0 0.752561 0Z" transform="translate(235.35876 208.97803)" id="Path" fill="#000000" fill-opacity="0.1" fill-rule="evenodd" stroke="none" />
    <path d="M0.0510234 0C0.0510234 0 1.37177 2.17044 0.566115 4.42452C-0.239541 6.67861 0.0510234 0 0.0510234 0Z" transform="translate(209.26218 204.19702)" id="Path" fill="#000000" fill-opacity="0.1" fill-rule="evenodd" stroke="none" />
    <path d="M0 0C0 0 1.65976 0.990565 1.10504 2.53144C0.550318 4.07232 0 0 0 0Z" transform="translate(206.62767 223.24658)" id="Path" fill="#4D7CFE" fill-rule="evenodd" stroke="none" />
    <path d="M0 0C0 0 1.54088 0.827675 1.739 2.05158C1.93711 3.27548 0 0 0 0Z" transform="translate(206.47798 218.74292)" id="Path" fill="#000000" fill-opacity="0.1" fill-rule="evenodd" stroke="none" />
    <path d="M0 1.32076C0 1.32076 9.68554 2.31133 11.6182 0C11.6182 0.0176101 2.88365 1.739 0 1.32076Z" transform="translate(229.31384 264.6919)" id="Path" fill="#000000" fill-opacity="0.1" fill-rule="evenodd" stroke="none" />
    <path d="M0 0C0 0 10.3943 2.45221 12.4503 0.515097C12.4503 0.532707 3.51761 1.18868 0 0Z" transform="translate(212.59308 265.458)" id="Path" fill="#000000" fill-opacity="0.1" fill-rule="evenodd" stroke="none" />
    <path d="M0 0.144049C0 0.144049 4.34969 0.144049 6.36604 0.262915C8.3824 0.381782 0 0.144049 0 0.144049Z" transform="translate(230.06227 269.06934)" id="Path" fill="#000000" fill-opacity="0.1" fill-rule="evenodd" stroke="none" />
    <path d="M0 0C0 0 2.13522 2.41257 4.5434 1.97672C6.95157 1.54087 0 0 0 0Z" transform="translate(213.30629 271.0713)" id="Path" fill="#000000" fill-opacity="0.1" fill-rule="evenodd" stroke="none" />
    <path d="M9.74677 2.90721C9.07759 3.9462 9.05558 5.14809 8.86627 6.30155C8.38715 9.12265 7.06396 11.7322 5.0713 13.7858C3.17822 15.8022 0.576332 17.6292 0.08325 20.0902C-0.379014 22.428 1.19709 24.6777 2.02476 26.9538C4.22602 32.9544 1.14426 39.25 0.263753 45.4443C0.0172123 47.1569 0.312181 49.3449 2.42099 49.9129C3.08136 50.089 3.83419 50.067 4.42853 50.3531C5.22099 50.7317 5.46313 51.5242 5.60841 52.233C6.13877 54.7779 6.3224 57.3829 6.15432 59.977C6.05747 61.4343 5.9518 63.1072 7.32539 64.111C8.02704 64.5436 8.79877 64.8505 9.60589 65.0179C11.7719 65.6034 14.5719 66.0657 16.0336 64.7009C16.6455 64.1286 16.8744 63.3185 17.6405 62.8651C18.7851 62.1871 20.4097 62.6449 21.8493 62.7154C24.6311 62.8309 27.2549 61.422 28.6952 59.0393C29.8619 56.9349 29.7606 54.5487 29.3292 52.2858C28.8977 50.0229 28.1493 47.7865 28.0965 45.4971C28.0274 44.6969 28.2057 43.8947 28.6072 43.199C29.4877 41.8343 31.5348 41.2135 32.9392 40.1437C35.5807 38.1361 35.5543 34.8607 34.6034 32.0871C33.6524 29.3135 31.9311 26.6984 31.7197 23.85C31.6266 23.1621 31.7627 22.4627 32.1072 21.86C32.5823 21.3018 33.1319 20.8115 33.7405 20.4028C37.5751 17.167 37.1216 11.8487 33.9518 8.21224C30.4386 4.16193 14.5455 -4.52424 9.74677 2.90721Z" transform="translate(207.7375 169.42432)" id="Path" fill="#E3787D" fill-rule="evenodd" stroke="none" />
    <g id="Group" transform="translate(207.35849 181.38306)" opacity="0.1">
      <path d="M2.63231 10.566C3.00585 8.17586 2.79745 5.73084 2.02476 3.43836C1.61092 2.28931 1.00338 1.14906 0.558722 0C0.340449 0.41638 0.180461 0.860793 0.08325 1.32075C-0.379014 3.65849 1.19709 5.90818 2.02476 8.18428C2.30612 8.95597 2.50965 9.75386 2.63231 10.566L2.63231 10.566Z" transform="translate(0.2865613 6.955975)" id="Path" fill="#000000" fill-rule="evenodd" stroke="none" />
      <path d="M5.96375 11.5918C6.13183 8.99767 5.94819 6.39271 5.41784 3.8478C5.27255 3.13899 5.03041 2.34654 4.23796 1.96792C3.64362 1.68176 2.89079 1.70377 2.23041 1.52767C1.41483 1.32622 0.735668 0.763759 0.38576 0C0.266892 0.598742 0.161232 1.20189 0.0731815 1.80063C-0.173359 3.51321 0.121609 5.70126 2.23041 6.26918C2.89079 6.44528 3.64362 6.42327 4.23796 6.70943C5.03041 7.09245 5.27255 7.8805 5.41784 8.59371C5.66218 9.77356 5.83274 10.9675 5.92853 12.1686C5.93733 11.9748 5.95054 11.7811 5.96375 11.5918Z" transform="translate(0.48593798 31.825787)" id="Path" fill="#000000" fill-rule="evenodd" stroke="none" />
      <path d="M22.592 1.7478C21.1524 4.1312 18.5281 5.54038 15.7461 5.4239C14.3064 5.35346 12.6643 4.8956 11.5373 5.57359C10.7756 6.01384 10.5423 6.83711 9.93035 7.40943C8.46871 8.77421 5.66871 8.31195 3.50267 7.72642C2.69587 7.56025 1.92512 7.25165 1.22657 6.81509C0.62969 6.37582 0.225836 5.72271 0.0995297 4.99245C0.0995297 5.80252 0.0995297 6.61698 0.0511021 7.42704C-0.0457533 8.88428 -0.151414 10.5572 1.22657 11.561C1.92647 11.994 2.69682 12.3009 3.50267 12.4679C5.66871 13.0535 8.46871 13.5157 9.93035 12.1553C10.5423 11.5786 10.7756 10.7686 11.5373 10.3151C12.6819 9.63711 14.3064 10.095 15.7461 10.1654C18.5281 10.2819 21.1524 8.87271 22.592 6.48931C23.7146 4.46855 23.6662 2.18365 23.2744 0C23.1245 0.61 22.8951 1.19764 22.592 1.7478Z" transform="translate(6.3985834 40.732075)" id="Path" fill="#000000" fill-rule="evenodd" stroke="none" />
      <path d="M2.0141 3.51321C1.4136 3.93274 0.875553 4.43521 0.415989 5.00566C0.0715639 5.60833 -0.0646021 6.30773 0.0285673 6.9956C0.106132 7.86146 0.289468 8.71457 0.574479 9.53585C1.01368 9.06518 1.49562 8.6363 2.0141 8.25472C4.60719 6.05346 5.23675 2.92767 4.39586 0C3.95354 1.3744 3.12707 2.59347 2.0141 3.51321Z" transform="translate(31.986526 0.29496855)" id="Path" fill="#000000" fill-rule="evenodd" stroke="none" />
      <path d="M4.85672 2.58428C3.45232 3.65409 1.40515 4.27484 0.524642 5.63522C0.124641 6.3331 -0.0534829 7.13619 0.0139506 7.93774C0.0478836 8.86295 0.161299 9.78353 0.352944 10.6893C0.401488 10.582 0.45892 10.4789 0.524642 10.3811C1.40515 9.01635 3.45232 8.3956 4.85672 7.32579C7.25169 5.48994 7.4542 2.58868 6.7454 0C6.38252 1.0278 5.72579 1.92641 4.85672 2.58428Z" transform="translate(28.377872 21)" id="Path" fill="#000000" fill-rule="evenodd" stroke="none" />
    </g>
    <path d="M16.3245 4.40692C14.7044 8.51887 12.6044 10.1302 12.6044 10.1302L11.4377 10.1302L1.18428 10.2359L0 6.9956L1.65975 0L2.68553 0.0396227C3.30193 0.365781 3.97114 0.580404 4.66226 0.673585C5.41509 0.673585 6.86352 0.633963 7.30377 0.832076C7.36474 0.858312 7.43171 0.867443 7.49748 0.858491C7.8849 0.818868 8.28993 0.237736 8.28993 0.237736C8.28993 0.237736 17.9402 0.294969 16.3245 4.40692Z" transform="translate(242.31886 201.52905)" id="Path" fill="#4D7CFE" fill-rule="evenodd" stroke="none" />
    <path d="M8.81825 4.14277C7.19812 8.25472 5.09812 9.86604 5.09812 9.86604L3.93145 9.86604C4.5434 8.23711 5.82454 4.8956 6.32642 4.14277C6.82831 3.38994 2.50944 1.59371 0 0.620755C0.387422 0.581132 0.792454 0 0.792454 0C0.792454 0 10.434 0.0308176 8.81825 4.14277Z" transform="translate(249.82516 201.79321)" id="Path" fill="#000000" fill-opacity="0.1" fill-rule="evenodd" stroke="none" />
  </g>
</svg>