<?xml version="1.0" encoding="utf-8"?>
<!-- Generator: Adobe Illustrator 24.0.0, SVG Export Plug-In . SVG Version: 6.00 Build 0)  -->
<svg version="1.1" xmlns="http://www.w3.org/2000/svg" xmlns:xlink="http://www.w3.org/1999/xlink" x="0px" y="0px"
	 viewBox="0 0 50 50" style="enable-background:new 0 0 50 50;" xml:space="preserve">
<style type="text/css">
	.st0{fill:none;stroke:#000000;stroke-width:2;stroke-linecap:round;stroke-miterlimit:10;}
</style>
<g id="Layer_1">
	<path class="st0" d="M47,34V11c0-1.1-0.9-2-2-2c0,0-25.6,0-27,0c-1.5,0-2.5-4-4-4H5C3.9,5,3,5.9,3,7v36c0,1.1,0.9,2,2,2h27"/>
	<path class="st0" d="M47,26V16c0-1.1-0.9-2-2-2H5c-1.1,0-2,0.9-2,2v10"/>
</g>
<g id="Layer_3">
	<g id="Layer_3_1_">
		<g>
			<line class="st0" x1="40" y1="35" x2="40" y2="45"/>
			<line class="st0" x1="45" y1="40" x2="35" y2="40"/>
		</g>
	</g>
</g>
<g id="Layer_2">
	<g id="Layer_2_1_">
		<circle class="st0" cx="40" cy="40" r="9"/>
	</g>
</g>
</svg>
