<?xml version="1.0" encoding="utf-8"?>
<!-- Generator: Adobe Illustrator 23.0.3, SVG Export Plug-In . SVG Version: 6.00 Build 0)  -->
<svg version="1.1" id="Layer_1" xmlns="http://www.w3.org/2000/svg" xmlns:xlink="http://www.w3.org/1999/xlink" x="0px" y="0px"
	 viewBox="0 0 50 50" style="enable-background:new 0 0 50 50;" xml:space="preserve">
<g>
	<path style="fill:none;stroke:#FFC355;stroke-width:2;stroke-linecap:round;stroke-linejoin:round;stroke-miterlimit:10;" d="M49,4
		v25c0,0-5.3,3-12,3c-11.9,0-15.9-4-24-4S1,30,1,30V3c0,0,2.1-2,12-2s14,6,24,6C43.3,7,48.1,4.5,49,4z"/>
</g>
<g>
	<path style="fill:none;stroke:#000000;stroke-width:2;stroke-linecap:round;stroke-linejoin:round;stroke-miterlimit:10;" d="M49,4
		v25c0,0-5.3,3-12,3c-11.9,0-15.9-4-24-4S1,30,1,30V3c0,0,2.1-2,12-2s14,6,24,6C43.3,7,48.1,4.5,49,4z"/>
</g>
<line style="fill:none;stroke:#000000;stroke-width:2;stroke-linecap:round;stroke-linejoin:round;stroke-miterlimit:10;" x1="1" y1="3" x2="1" y2="49"/>
</svg>
