<?xml version="1.0" encoding="utf-8"?>
<!-- Generator: Adobe Illustrator 22.1.0, SVG Export Plug-In . SVG Version: 6.00 Build 0)  -->
<svg version="1.1" id="Layer_1" xmlns="http://www.w3.org/2000/svg" xmlns:xlink="http://www.w3.org/1999/xlink" x="0px" y="0px"
	 viewBox="0 0 50 50" style="enable-background:new 0 0 50 50;" xml:space="preserve">
<path d="M25,7C15.1,7,7,15.1,7,25s8.1,18,18,18s18-8.1,18-18S34.9,7,25,7z M25,40.9c-8.8,0-15.9-7.1-15.9-15.9S16.2,9.1,25,9.1
	S40.9,16.2,40.9,25S33.8,40.9,25,40.9z M25,17c-4.4,0-8,3.6-8,8s3.6,8,8,8s8-3.6,8-8S29.4,17,25,17z M25,31c-3.3,0-6-2.7-6-6
	s2.7-6,6-6s6,2.7,6,6S28.3,31,25,31z M43.2,37.3C45.6,33.8,47,29.6,47,25s-1.4-8.8-3.8-12.3l1.8-1.8c1.6-1.6,1.6-4.3,0-5.9
	s-4.3-1.6-5.9,0l-1.8,1.8C33.8,4.4,29.6,3,25,3s-8.8,1.4-12.3,3.8L10.9,5C9.3,3.4,6.6,3.4,5,5s-1.6,4.3,0,5.9l1.8,1.8
	C4.4,16.2,3,20.4,3,25s1.4,8.8,3.8,12.3L5,39.1c-1.6,1.6-1.6,4.3,0,5.9c0.8,0.8,1.9,1.2,3,1.2c1.1,0,2.1-0.4,3-1.2l1.8-1.8
	C16.2,45.6,20.4,47,25,47s8.8-1.4,12.3-3.8l1.8,1.8c0.8,0.8,1.9,1.2,3,1.2c1.1,0,2.1-0.4,3-1.2c1.6-1.6,1.6-4.3,0-5.9L43.2,37.3z
	 M43.5,43.5c-0.8,0.8-2.1,0.8-3,0L39,42l-1.5-1.5c-0.3,0.2-0.6,0.4-0.8,0.7h0c-3.3,2.4-7.3,3.8-11.6,3.8c-4.4,0-8.5-1.4-11.8-3.9
	c-0.2-0.2-0.5-0.3-0.7-0.5L11,42l-1.6,1.6c-0.8,0.8-2.1,0.8-3,0s-0.8-2.1,0-3L8,39l1.5-1.5v0c-0.1-0.1-0.2-0.2-0.3-0.4
	C6.6,33.8,5.1,29.6,5.1,25s1.5-8.8,4.1-12.1c0.1-0.1,0.2-0.3,0.3-0.4L8,11L6.5,9.4c-0.8-0.8-0.8-2.1,0-3s2.1-0.8,3,0l3,3
	c0.1-0.1,0.2-0.1,0.3-0.2h0c3.4-2.7,7.6-4.2,12.2-4.2c4.4,0,8.6,1.5,11.9,3.9c0.2,0.2,0.4,0.3,0.6,0.5l3-3c0.8-0.8,2.1-0.8,3,0
	s0.8,2.1,0,3L42,11l-1.5,1.5l0.5,0.6l0,0c2.5,3.3,4,7.4,4,11.9c0,4.3-1.4,8.4-3.8,11.6c-0.2,0.3-0.4,0.6-0.7,0.9L42,39l1.6,1.6
	C44.3,41.4,44.3,42.7,43.5,43.5z M9.5,12.5L9.5,12.5L8,11L9.5,12.5z M27,26c-0.6,0-1-0.4-1-1c0-0.6-0.4-1-1-1s-1,0.4-1,1
	c0,0.6-0.4,1-1,1s-1-0.4-1-1c0-1.7,1.3-3,3-3s3,1.3,3,3C28,25.6,27.6,26,27,26z"/>
</svg>
