<?xml version="1.0" encoding="utf-8"?>
<!-- Generator: Adobe Illustrator 23.0.3, SVG Export Plug-In . SVG Version: 6.00 Build 0)  -->
<svg version="1.1" id="Layer_1" xmlns="http://www.w3.org/2000/svg" xmlns:xlink="http://www.w3.org/1999/xlink" x="0px" y="0px"
	 viewBox="0 0 50 50" style="enable-background:new 0 0 50 50;" xml:space="preserve">
<path style="fill:none;stroke:#000000;stroke-width:2;stroke-linecap:round;stroke-linejoin:round;stroke-miterlimit:10;" d="M29,20
	L29,20L29,20c-1-3-3.6-4-6-4c-2.4,0-4.5,1.2-7.5,2.7c-1.2,0.6-2.8,1.3-4.5,2.9c-1.2,1.2-2,3.3-2,5V36c0,4.4,3.6,8,8,8c0,0,17,0,19,0
	c2.5,0,4-2,4-3.3c0-1.5-0.7-2.5-0.7-2.5s2.7-1,2.7-3.4c0-2.1-2-2.9-2-2.9s2-1.1,2-3.2c0-2.3-2.3-3.1-2.3-3.1s0.3-1.7,0.3-2.7
	c0-1.3-1.3-2.8-3.6-2.8C33,20,29,20,29,20z"/>
</svg>
