<svg fill="#000000" xmlns="http://www.w3.org/2000/svg" viewBox="0 0 50 50" width="50px" height="50px"><path fill="none" stroke="#000000" stroke-linejoin="round" stroke-miterlimit="10" stroke-width="2" d="M1 1L35 1 35 35 1 35 1 20.8z"/><path fill="none" stroke="#000000" stroke-linejoin="round" stroke-miterlimit="10" stroke-width="2" d="M5 5L31 5 31 28 5 28 5 18.6z"/><path fill="none" stroke="#000000" stroke-linejoin="round" stroke-miterlimit="10" stroke-width="2" d="M5.3 35L5 37 38.5 42.7 44.2 9.2 35 7.6"/><path fill="none" stroke="#000000" stroke-linejoin="round" stroke-miterlimit="10" stroke-width="2" d="M35 35L35.7 35.1 39.6 12.4 35 11.7"/><path fill="none" stroke="#000000" stroke-linejoin="round" stroke-miterlimit="10" stroke-width="2" d="M9.1 37.7L8.3 41.4 41.4 49 49 15.9 43.3 14.6"/><path fill="none" stroke="#000000" stroke-linejoin="round" stroke-miterlimit="10" stroke-width="2" d="M38.8 41.2L39.1 41.3 44.2 18.9 42.6 18.5"/><path fill="none" stroke="#000000" stroke-linecap="round" stroke-linejoin="round" stroke-miterlimit="10" stroke-width="2" d="M27,26.9c-0.3-4.2-5.8-3.6-6.7-5.8c-0.1-0.8,0-1.3,0-2c0.3-0.2,1-1.3,1.1-2.3c0.3,0,0.7-0.3,0.8-1.3c0.1-0.6-0.2-0.9-0.4-1c0.4-1.3,1.4-5.4-1.7-5.8C19.8,8.3,19,8,18,8c-4.2,0.1-4.7,3.1-3.8,6.6c-0.2,0.1-0.4,0.4-0.4,1c0.1,1,0.6,1.3,0.8,1.3c0.1,1,0.7,2.1,1.1,2.3c0,0.7,0,1.2,0,2c-0.8,2.2-6.4,1.6-6.7,5.8"/></svg>