<?xml version="1.0" encoding="utf-8"?>
<!-- Generator: Adobe Illustrator 24.0.3, SVG Export Plug-In . SVG Version: 6.00 Build 0)  -->
<svg version="1.1" xmlns="http://www.w3.org/2000/svg" xmlns:xlink="http://www.w3.org/1999/xlink" x="0px" y="0px"
	 viewBox="0 0 50 50" style="enable-background:new 0 0 50 50;" xml:space="preserve">
<style type="text/css">
	.st0{fill:none;stroke:#000000;stroke-width:2;stroke-linecap:round;stroke-linejoin:round;stroke-miterlimit:10;}
	.st1{fill:none;stroke:#000000;stroke-width:2;stroke-linecap:round;stroke-linejoin:round;}
	.st2{fill:none;stroke:#000000;stroke-width:1.5;stroke-linecap:round;stroke-linejoin:round;}
</style>
<g id="Layer_1">
	<path class="st0" d="M4,3.3L3.2,4c-0.6,0.6-0.6,1.6,0,2.2l0.1,0.1c0.4,0.4,1,0.6,1.6,0.4c3-1.1,19.6-6.7,25.8-0.6
		c2.7,2.7,4.3,8,4.3,8l1.2,1.2c0,0,4.6,1,7.4,3.7c6.9,6.9,0.8,22.8-0.5,25.8c-0.3,0.6-0.1,1.2,0.3,1.7l0,0c0.6,0.6,1.6,0.6,2.2,0
		l0.8-0.8"/>
	<polyline class="st1" points="10.3,39.7 3.9,39.1 11.8,31.2 17.5,32.5 	"/>
	<polyline class="st1" points="10.3,39.7 10.9,46.1 18.8,38.2 17.5,32.5 	"/>
	<path class="st1" d="M46.2,3.8c-0.2-0.2-5.6-0.4-7.6,1.5c-0.8,0.8-0.8,2.2,0,3c0.8,0.8,2.2,0.8,3,0c-0.8,0.8-0.8,2.2,0,3
		c0.8,0.8,2.2,0.8,3,0C46.6,9.4,46.4,4,46.2,3.8z"/>
	<line class="st1" x1="41" y1="9" x2="18" y2="32"/>
</g>
<g id="Layer_3">
</g>
<g id="Layer_2">
	<line class="st2" x1="16" y1="40.9" x2="43" y2="45"/>
	<line class="st2" x1="5" y1="7" x2="9" y2="33.5"/>
</g>
</svg>
