<?xml version="1.0" encoding="utf-8"?>
<!-- Generator: Adobe Illustrator 24.0.1, SVG Export Plug-In . SVG Version: 6.00 Build 0)  -->
<svg version="1.1" id="Layer_1" xmlns="http://www.w3.org/2000/svg" xmlns:xlink="http://www.w3.org/1999/xlink" x="0px" y="0px"
	 viewBox="0 0 50 50" style="enable-background:new 0 0 50 50;" xml:space="preserve">
<style type="text/css">
	.st0{fill:none;stroke:#000000;stroke-width:2;stroke-miterlimit:10;}
</style>
<path class="st0" d="M5.5,42h39c1.9,0,3.5-1.6,3.5-3.5v-27C48,9.6,46.4,8,44.5,8h-39C3.6,8,2,9.6,2,11.5v27C2,40.4,3.6,42,5.5,42z"
	/>
<path class="st0" d="M2,11.5c0,1.3,1.6,2.4,1.6,2.4L25,29l21.4-15.2c0,0,1.6-1.1,1.6-2.4"/>
<polyline class="st0" points="44.9,8.1 25,22 5,8 "/>
<line class="st0" x1="43" y1="16.2" x2="43" y2="42"/>
<line class="st0" x1="7" y1="16.2" x2="7" y2="42"/>
<path class="st0" d="M1.1,21.1"/>
<path class="st0" d="M48.9,21.1"/>
</svg>
