<?xml version="1.0" encoding="utf-8"?>
<!-- Generator: Adobe Illustrator 23.0.3, SVG Export Plug-In . SVG Version: 6.00 Build 0)  -->
<svg version="1.1" id="Layer_1" xmlns="http://www.w3.org/2000/svg" xmlns:xlink="http://www.w3.org/1999/xlink" x="0px" y="0px"
	 viewBox="0 0 50 50" style="enable-background:new 0 0 50 50;" xml:space="preserve">
<path d="M24.6,29.6c0.9,2.5,0.3,5.3-1.6,7.3l-6,6c-1.3,1.3-3.1,2-4.9,2c-1.9,0-3.6-0.7-4.9-2c-2.7-2.7-2.7-7.2,0-9.9l6-6
	c1.3-1.3,3.1-2,4.9-2c0.8,0,1.6,0.1,2.3,0.4l1.5-1.5C20.7,23.3,19.3,23,18,23c-2.3,0-4.6,0.9-6.4,2.6l-6,6c-3.5,3.5-3.5,9.2,0,12.7
	C7.4,46.1,9.7,47,12,47s4.6-0.9,6.4-2.6l6-6c2.8-2.8,3.3-6.9,1.7-10.2L24.6,29.6z M44.4,5.6C42.6,3.9,40.3,3,38,3s-4.6,0.9-6.4,2.6
	l-6,6c-2.8,2.8-3.3,6.9-1.7,10.2l1.5-1.5C24.5,17.8,25.1,15,27,13l6-6c1.3-1.3,3.1-2,4.9-2c1.9,0,3.6,0.7,4.9,2
	c2.7,2.7,2.7,7.2,0,9.9l-6,6c-1.3,1.3-3.1,2-4.9,2c-0.8,0-1.6-0.1-2.3-0.4L28.1,26c1.2,0.6,2.5,0.9,3.9,0.9c2.3,0,4.6-0.9,6.4-2.6
	l6-6C47.9,14.9,47.9,9.1,44.4,5.6z M32.1,17.9c-0.2-0.2-0.4-0.3-0.7-0.3c-0.2,0-0.5,0.1-0.7,0.3L18,30.6c-0.4,0.4-0.4,1,0,1.4
	c0.2,0.2,0.5,0.3,0.7,0.3s0.5-0.1,0.7-0.3l12.7-12.7C32.5,18.9,32.5,18.3,32.1,17.9z"/>
</svg>
