<?xml version="1.0" encoding="utf-8"?>
<!-- Generator: Adobe Illustrator 22.1.0, SVG Export Plug-In . SVG Version: 6.00 Build 0)  -->
<svg version="1.1" id="Layer_1" xmlns="http://www.w3.org/2000/svg" xmlns:xlink="http://www.w3.org/1999/xlink" x="0px" y="0px"
	 viewBox="0 0 50 50" style="enable-background:new 0 0 50 50;" xml:space="preserve">
<style type="text/css">
	.st0{fill:none;stroke:#000000;stroke-width:2;stroke-linecap:round;stroke-linejoin:round;stroke-miterlimit:10;}
	.st1{fill:none;stroke:#000000;stroke-width:2;stroke-miterlimit:10;}
	.st2{fill:none;stroke:#000000;stroke-width:2;stroke-miterlimit:10;stroke-dasharray:1.005,2.0101;}
</style>
<path class="st0" d="M25.5,16.8L32.4,3 M28.7,3l-7.1,14.3 M36.2,21.6L46,3 M41.6,3l-8.2,16.1 M23,13.5L17.6,3 M21.3,3l3.4,6.7
	 M13.9,21.6L4.7,3 M8.4,3l8.3,16.5"/>
<path class="st1" d="M25,17c-8.3,0-15,6.7-15,15s6.7,15,15,15s15-6.7,15-15S33.3,17,25,17z"/>
<path class="st2" d="M25,20c-6.6,0-12,5.4-12,12s5.4,12,12,12s12-5.4,12-12S31.6,20,25,20z"/>
<path d="M26.8,28.8c0-1.6-1.5-1.9-2-1.9c-1.9,0-2.2,1.8-2.2,2.5H20c0-0.7,0.3-4.8,4.8-4.8c3.7,0,4.7,2.6,4.7,3.9c0,2-1.3,2.7-2,2.9
	v0c0.8,0.2,2.5,0.9,2.5,3.2c0,3.9-3.8,4.6-5.2,4.6c-3.8,0-5.2-2.5-5.2-5.1h2.7c0,2,1.3,2.8,2.5,2.8c2.1,0,2.3-1.8,2.3-2.3
	c0-1.9-1.8-2-2.2-2c-0.4,0-0.7,0-1.1,0v-2C24.1,30.5,26.8,30.7,26.8,28.8z"/>
</svg>
