<?xml version="1.0" encoding="iso-8859-1"?>
<!-- Generator: Adobe Illustrator 23.0.3, SVG Export Plug-In . SVG Version: 6.00 Build 0)  -->
<svg version="1.1" id="Layer_1_copy_2" xmlns="http://www.w3.org/2000/svg" xmlns:xlink="http://www.w3.org/1999/xlink" x="0px"
	 y="0px" viewBox="0 0 50 50" style="enable-background:new 0 0 50 50;" xml:space="preserve">
<path style="fill:none;stroke:#000000;stroke-width:2;stroke-linecap:round;stroke-linejoin:round;" d="M27,46.91
	C26.344,46.969,25.676,47,25,47C12.852,47,3,37.148,3,25S12.852,3,25,3s22,9.852,22,22c0,10.07-6.766,18.559-16,21.172"/>
<circle style="fill:none;stroke:#000000;stroke-width:2;stroke-linecap:round;stroke-linejoin:round;" cx="25" cy="25" r="22"/>
<path style="fill:none;stroke:#000000;stroke-width:2;stroke-linecap:round;stroke-linejoin:round;" d="M24.761,39.663
	c2.257,0,3.683-0.593,4.301-1.175c0.689-0.649,0.669-1.421,0.453-1.888c-0.604-1.393-1.904-3.065-4.505-3.065
	s-3.901,1.625-4.505,3.065c-0.267,0.634-0.174,1.844,1.486,2.509C22.641,39.369,23.697,39.663,24.761,39.663z"/>
<path d="M33,18c-1.657,0-3,1.343-3,3s1.343,3,3,3c1.657,0,3-1.343,3-3S34.657,18,33,18z M17,18c-1.657,0-3,1.343-3,3s1.343,3,3,3
	s3-1.343,3-3S18.657,18,17,18z"/>
</svg>
