<?xml version="1.0" encoding="utf-8"?>
<!-- Generator: Adobe Illustrator 24.0.1, SVG Export Plug-In . SVG Version: 6.00 Build 0)  -->
<svg version="1.1" id="Layer_1" xmlns="http://www.w3.org/2000/svg" xmlns:xlink="http://www.w3.org/1999/xlink" x="0px" y="0px"
	 viewBox="0 0 50 50" style="enable-background:new 0 0 50 50;" xml:space="preserve">
<style type="text/css">
	.st0{fill:none;stroke:#000000;stroke-width:2;stroke-linejoin:round;stroke-miterlimit:10;}
</style>
<circle class="st0" cx="25" cy="18" r="7"/>
<line class="st0" x1="10.5" y1="24.6" x2="28.5" y2="2.6"/>
<line class="st0" x1="18.9" y1="36.5" x2="39.6" y2="11.2"/>
<line class="st0" x1="13" y1="7.4" x2="20" y2="13"/>
<path class="st0" d="M25,2c-1,0-2,0.1-3,0.3C14.6,3.7,9,10.2,9,18c0,3.7,1.3,7.1,3.4,9.8c2.5,3.4,10.8,13.2,11.6,19.3
	c0.1,0.5,0.5,0.9,1,0.9c0.5,0,0.9-0.4,1-0.9c0.8-6,8.7-15.3,11.4-19c0,0,0.1-0.1,0.1-0.1C39.7,25.3,41,21.8,41,18
	c0-7.8-5.6-14.3-13-15.7C27,2.1,26,2,25,2z"/>
</svg>
