<?xml version="1.0" encoding="utf-8"?>
<!-- Generator: Adobe Illustrator 23.0.3, SVG Export Plug-In . SVG Version: 6.00 Build 0)  -->
<svg version="1.1" id="Layer_1" xmlns="http://www.w3.org/2000/svg" xmlns:xlink="http://www.w3.org/1999/xlink" x="0px" y="0px"
	 viewBox="0 0 50 50" style="enable-background:new 0 0 50 50;" xml:space="preserve">
<path style="fill:none;stroke:#000000;stroke-width:2;stroke-miterlimit:10;" d="M3,37V11c0-2.2,1.8-4,4-4h36c2.2,0,4,1.8,4,4v26"/>
<path style="fill:none;stroke:#000000;stroke-width:2;stroke-miterlimit:10;" d="M47,37V17c0-2.2-1.8-4-4-4H7c-2.2,0-4,1.8-4,4v20"
	/>
<path style="fill:none;stroke:#000000;stroke-width:2;stroke-miterlimit:10;" d="M3,38V23c0-2.2,1.8-4,4-4h36c2.2,0,4,1.8,4,4v15"/>
<path style="fill:none;stroke:#000000;stroke-width:2;stroke-miterlimit:10;" d="M47,26v13c0,2.2-1.8,4-4,4H7c-2.2,0-4-1.8-4-4V26
	h11.4c1.8,0,3.4,1,4.2,2.6l0.4,0.7c1.1,2.2,3.4,3.6,6,3.6c2.6,0,4.9-1.4,6-3.6l0.4-0.7c0.8-1.6,2.4-2.6,4.2-2.6H47"/>
</svg>
