<?xml version="1.0" encoding="utf-8"?>
<!-- Generator: Adobe Illustrator 23.0.3, SVG Export Plug-In . SVG Version: 6.00 Build 0)  -->
<svg version="1.1" id="Layer_1" xmlns="http://www.w3.org/2000/svg" xmlns:xlink="http://www.w3.org/1999/xlink" x="0px" y="0px"
	 viewBox="0 0 50 50" style="enable-background:new 0 0 50 50;" xml:space="preserve">
<path style="fill:none;stroke:#000000;stroke-width:2;stroke-linecap:round;stroke-miterlimit:10;" d="M13.5,27.1
	C11.4,25.9,10,23.6,10,21c0-3.9,3.1-7,7-7 M17,14c1.7,0,3.3,0.6,4.5,1.7 M17,10V5 M1,21h5 M24.8,13.2l3.5-3.5 M5.7,32.3l3.5-3.5
	 M5.7,9.7l3.5,3.5 M41,24c-1.1,0-2.2,0.2-3.1,0.6C37.2,20.3,33.5,17,29,17c-5,0-9,4-9,9c0,0.7,0.1,1.4,0.2,2c-0.1,0-0.2,0-0.2,0
	c-3.3,0-6,2.7-6,6s2.7,6,6,6c3.2,0,17.3,0,21,0c4.4,0,8-3.6,8-8S45.4,24,41,24z"/>
</svg>
