<?xml version="1.0" encoding="utf-8"?>
<!-- Generator: Adobe Illustrator 24.0.3, SVG Export Plug-In . SVG Version: 6.00 Build 0)  -->
<svg version="1.1" xmlns="http://www.w3.org/2000/svg" xmlns:xlink="http://www.w3.org/1999/xlink" x="0px" y="0px"
	 viewBox="0 0 50 50" style="enable-background:new 0 0 50 50;" xml:space="preserve">
<style type="text/css">
	.st0{fill:none;stroke:#000000;stroke-width:2;stroke-linecap:round;stroke-linejoin:round;stroke-miterlimit:10;}
	.st1{display:none;}
	.st2{display:inline;fill:none;stroke:#000000;stroke-width:2;stroke-linecap:round;stroke-miterlimit:10;}
</style>
<g id="Layer_1">
	<path class="st0" d="M35,8c-2.1,0-4,0.5-5.7,1.4L28,15h3.7l-3.6,9h2.6l-8.2,13.2L25,26h-3.3l3.1-9h-4.2l1.3-6.8C20,8.8,17.6,8,15,8
		C8.4,8,3,13.4,3,20c0,14,16,21,22,26c6-5,22-12,22-26C47,13.4,41.6,8,35,8z"/>
</g>
<g id="Layer_2" class="st1">
	<path class="st2" d="M35,8c-4.2,0-7.9,2.1-10,5.4C22.9,10.1,19.2,8,15,8C8.4,8,3,13.4,3,20c0,14,16,21,22,26c6-5,22-12,22-26
		C47,13.4,41.6,8,35,8z"/>
</g>
</svg>
