<?xml version="1.0" encoding="iso-8859-1"?>
<!-- Generator: Adobe Illustrator 23.0.3, SVG Export Plug-In . SVG Version: 6.00 Build 0)  -->
<svg version="1.1" id="Layer_1" xmlns="http://www.w3.org/2000/svg" xmlns:xlink="http://www.w3.org/1999/xlink" x="0px" y="0px"
	 viewBox="0 0 50 50" style="enable-background:new 0 0 50 50;" xml:space="preserve">
<path style="fill:none;stroke:#000000;stroke-width:2.08;stroke-linejoin:round;stroke-miterlimit:10;" d="M10,33H3
	c-1.103,0-2-0.898-2-2V19c0-1.102,0.897-2,2-2h7"/>
<path style="fill:none;stroke:#000000;stroke-width:1.9797;stroke-linejoin:round;stroke-miterlimit:10;" d="M9.604,32.43
	C9.256,32.129,9,31.391,9,30.754V19.247c0-0.637,0.256-1.388,0.604-1.689l12.67-12.632C23.905,3.27,26,3.898,26,6.327v36.988
	c0,2.614-1.896,3.604-3.785,1.686L9.604,32.43z"/>
<path style="fill:none;stroke:#000000;stroke-width:2;stroke-linecap:round;stroke-linejoin:round;stroke-miterlimit:10;" d="
	M30.688,19.417C33.167,20.064,35,22.32,35,25s-1.833,4.936-4.312,5.584"/>
<path style="fill:none;stroke:#000000;stroke-width:2;stroke-linecap:round;stroke-linejoin:round;stroke-miterlimit:10;" d="
	M34.92,13.142C39.136,15.417,42,19.873,42,25c0,5.111-2.85,9.557-7.045,11.835"/>
<path style="fill:none;stroke:#000000;stroke-width:2;stroke-linecap:round;stroke-linejoin:round;stroke-miterlimit:10;" d="
	M38.498,7.82c6.276,3.167,10.579,9.668,10.579,17.18s-4.303,14.014-10.579,17.18"/>
</svg>
