<?xml version="1.0" encoding="utf-8"?>
<!-- Generator: Adobe Illustrator 24.0.1, SVG Export Plug-In . SVG Version: 6.00 Build 0)  -->
<svg version="1.1" id="Layer_1" xmlns="http://www.w3.org/2000/svg" xmlns:xlink="http://www.w3.org/1999/xlink" x="0px" y="0px"
	 viewBox="0 0 50 50" style="enable-background:new 0 0 50 50;" xml:space="preserve">
<style type="text/css">
	.st0{fill:none;stroke:#000000;stroke-width:2;stroke-linecap:round;stroke-linejoin:round;stroke-miterlimit:10;}
	.st1{fill:none;stroke:#000000;stroke-width:2;stroke-miterlimit:10;}
</style>
<path class="st0" d="M17.7,19.4L35,15.2c1.5-0.3,2.6,0.7,2.8,1.8c0.2,0.8,0,1.8-0.8,2.4"/>
<path class="st0" d="M5,26.5c0,0,2.9-6.4,4-7.8S17.8,9,17.8,9l0.5,0.9c1.1,1.9,1,4.3-0.3,6.1l-1.3,1.6"/>
<path class="st0" d="M7.4,36.7c0,0,1.2-7,1.9-8.5s6.3-11.6,6.3-11.6l0.7,0.7c1.6,1.6,2,3.9,1.2,6L15.6,28l18.2-9.5
	c1.4-0.7,2.7,0.1,3.2,1.1c0.5,1,0.4,2.5-1.1,3.2l-10,5l12.8-6.5c1-0.5,2.5-0.3,3.2,1.1c0.7,1.4-0.1,2.7-1.1,3.2
	c0,0-12.5,6.3-12.1,6.1l10.7-5.4c1-0.5,2.4-0.6,3.2,1.1c0.7,1.4,0.2,2.6-1.8,3.6l-10.4,5.2l6.8-3.4c1-0.5,2.9-1.3,4,0.7
	s-0.8,3.1-1.8,3.6c0,0-13.6,7-17,8.6c-4.6,2.1-10.4,1-10.4,1"/>
<path class="st1" d="M35,7c0,1.1-0.9,2-2,2s-2-0.9-2-2s2-4,2-4S35,5.9,35,7z"/>
<path class="st1" d="M44,10.5c0,1.4-1.1,2.5-2.5,2.5S39,11.9,39,10.5s2.5-5,2.5-5S44,9.1,44,10.5z"/>
</svg>
