<?xml version="1.0" encoding="utf-8"?>
<!-- Generator: Adobe Illustrator 23.0.3, SVG Export Plug-In . SVG Version: 6.00 Build 0)  -->
<svg version="1.1" id="Layer_1" xmlns="http://www.w3.org/2000/svg" xmlns:xlink="http://www.w3.org/1999/xlink" x="0px" y="0px"
	 viewBox="0 0 50 50" style="enable-background:new 0 0 50 50;" xml:space="preserve">
<path style="fill:none;stroke:#000000;stroke-width:2;stroke-linecap:round;stroke-linejoin:round;stroke-miterlimit:10;" d="
	M37.2,37.8c2-4.1,9.8-3.2,9.8-10.2c0-2.4-1.6-3.7-3.4-3.7c-2.7,0-4,2.5-4,2.5 M32,6c0,4.5-4,3.6-4,8 M28,1c0,6.7-6,5.4-6,12"/>
<path style="fill:none;stroke:#000000;stroke-width:2;stroke-linecap:round;stroke-linejoin:round;stroke-miterlimit:10;" d="
	M30.9,48.9C36.4,45.8,40,30.3,40,18H12c0,14.8,3.7,27.9,9.2,31L30.9,48.9z"/>
<path style="fill:none;stroke:#000000;stroke-width:2;stroke-linecap:round;stroke-linejoin:round;stroke-miterlimit:10;" d="
	M30.3,27.2c0.8-0.1,1.5,0.5,1.6,1.3l0.7,5.8c0.1,0.8-0.5,1.5-1.3,1.6l-5.8,0.7c-0.8,0.1-1.5-0.5-1.6-1.3l-0.7-5.8
	c-0.1-0.8,0.5-1.5,1.3-1.6L30.3,27.2z M25.6,18.2c0.6,1.3,1.6,6.6,1.7,9.2"/>
</svg>
