<?xml version="1.0" encoding="utf-8"?>
<!-- Generator: Adobe Illustrator 24.0.0, SVG Export Plug-In . SVG Version: 6.00 Build 0)  -->
<svg version="1.1" id="Layer_1" xmlns="http://www.w3.org/2000/svg" xmlns:xlink="http://www.w3.org/1999/xlink" x="0px" y="0px"
	 viewBox="0 0 50 50" style="enable-background:new 0 0 50 50;" xml:space="preserve">
<style type="text/css">
	.st0{fill:none;stroke:#000000;stroke-width:2;stroke-linecap:round;stroke-linejoin:round;}
</style>
<title>Artboard 1</title>
<g id="Square">
	<polyline class="st0" points="5,10 5,5 10,5 	"/>
	<polyline class="st0" points="40,5 45,5 45,10 	"/>
	<polyline class="st0" points="45,40 45,45 40,45 	"/>
	<polyline class="st0" points="10,45 5,45 5,40 	"/>
</g>
<g id="Hand">
	<path class="st0" d="M37,25.4l0.9-8.3c0.1-1.6,0.4-3.7-1.2-4.1c-1.9-0.5-2.3,1.5-2.8,3l-2.2,9c0.1-0.7,1.4-13.1,1.4-13.1
		c0.3-2.4,0-3.5-1.9-3.8s-2.7,1.3-2.9,2.8L27,23.2V7.9C27,6.1,26.1,5,24.5,5C23.1,5,22,6.1,22,7.4c0,0.1,0,0.1,0,0.2v15.8
		c0,0.4-3-12.8-3-12.8c-0.3-1.7-1.2-2.5-2.4-2.6C15.2,7.9,14,9.2,14,10.7l0,0c0,0.3,0,0.3,0,0.3s2.8,16.3,2.8,17.5l-2.8-4
		c-0.8-1.3-2.4-1.7-3.7-1C9,24.3,8.7,26,9.5,27.3l3.4,6.8C13.7,35.4,18,45,24,45h6c3,0,7-4,7-11V25.4z"/>
</g>
</svg>
