<?xml version="1.0" encoding="iso-8859-1"?>
<!-- Generator: Adobe Illustrator 22.1.0, SVG Export Plug-In . SVG Version: 6.00 Build 0)  -->
<svg version="1.1" xmlns="http://www.w3.org/2000/svg" xmlns:xlink="http://www.w3.org/1999/xlink" x="0px" y="0px"
	 viewBox="0 0 50 50" style="enable-background:new 0 0 50 50;" xml:space="preserve">
<g id="box">
</g>
<g id="slot">
	<path d="M16,38V17h2v-3.064C18,12.868,17.103,12,16,12s-2,0.868-2,1.936v27.129C14,42.132,14.897,43,16,43s2-0.868,2-1.936V38H16z"
		/>
</g>
<g id="film">
	<g>
		<path d="M14,15v25h34V15H14z M46,38H16V17h30V38z"/>
		<rect x="36" y="19" width="2" height="3"/>
		<rect x="42" y="19" width="2" height="3"/>
		<rect x="36" y="33" width="2" height="3"/>
		<rect x="30" y="19" width="2" height="3"/>
		<rect x="42" y="33" width="2" height="3"/>
		<rect x="18" y="33" width="2" height="3"/>
		<rect x="18" y="19" width="2" height="3"/>
		<rect x="24" y="33" width="2" height="3"/>
		<rect x="30" y="33" width="2" height="3"/>
		<rect x="24" y="19" width="2" height="3"/>
	</g>
	<path d="M30,39.5V40v2c0,2.206-1.794,4-4,4H8c-2.206,0-4-1.794-4-4V13c0-2.206,1.794-4,4-4h1h16h1c2.206,0,4,1.794,4,4v2v0.5h2V15
		v-2c0-3.309-2.691-6-6-6h-1V5c0-1.654-1.346-3-3-3H12c-1.654,0-3,1.346-3,3v2H8c-3.309,0-6,2.691-6,6v29c0,3.309,2.691,6,6,6h18
		c3.309,0,6-2.691,6-6v-2v-0.5H30z M11,5c0-0.551,0.449-1,1-1h10c0.551,0,1,0.449,1,1v2H11V5z"/>
</g>
</svg>
