<?xml version="1.0" encoding="UTF-8"?>
<svg width="240px" height="196px" viewBox="0 0 240 196" version="1.1" xmlns="http://www.w3.org/2000/svg" xmlns:xlink="http://www.w3.org/1999/xlink">
    <title>Sultan logo</title>
    <g id="Authentication" stroke="none" stroke-width="1" fill="none" fill-rule="evenodd">
        <g id="Sign-In" transform="translate(-375.000000, -179.000000)" fill="#509AFF" fill-rule="nonzero">
            <g id="Sultan-logo" transform="translate(375.000000, 179.000000)">
                <g id="Group" transform="translate(84.528302, 0.000000)">
                    <path d="M2.21620422,13.7106918 C1.61953385,13.5849057 1.23596004,13.3333333 1.10810211,12.8721174 C1.0654828,12.7044025 1.02286349,12.4947589 1.0654828,12.2851153 C1.10810211,12.0754717 1.19334073,11.8658281 1.32119867,11.6981132 C1.74739179,12.0754717 2.17358491,12.2851153 2.68501665,12.4109015 C3.19644839,12.5366876 3.70788013,12.4947589 4.21931188,12.3689727 C4.73074362,12.2012579 5.15693674,11.9916143 5.45527192,11.7400419 C5.7536071,11.4884696 5.83884573,11.1530398 5.71098779,10.8176101 C5.62574917,10.5660377 5.45527192,10.3983229 5.15693674,10.3563941 C4.85860155,10.2725367 4.38978912,10.230608 3.79311876,10.1886792 C3.15382908,10.1467505 2.64239734,10.1048218 2.21620422,10.0209644 C1.7900111,9.93710692 1.40643729,9.81132075 1.0654828,9.55974843 C0.724528302,9.3081761 0.468812431,8.97274633 0.298335183,8.46960168 C0.127857936,7.9245283 0.170477248,7.37945493 0.383573807,6.87631027 C0.639289678,6.37316562 1.02286349,5.91194969 1.61953385,5.49266247 C2.17358491,5.07337526 2.8554939,4.77987421 3.66526082,4.52830189 C4.21931188,4.360587 4.73074362,4.27672956 5.15693674,4.27672956 C5.58312986,4.27672956 5.96670366,4.31865828 6.26503885,4.44444444 C6.56337403,4.57023061 6.73385128,4.77987421 6.8190899,5.03144654 C6.94694784,5.40880503 6.90432852,5.70230608 6.69123196,5.99580713 C6.52075472,6.28930818 6.22241953,6.45702306 5.83884573,6.58280922 C5.45527192,6.70859539 5.11431743,6.66666667 4.77336293,6.58280922 C4.43240844,6.45702306 4.13407325,6.20545073 3.83573807,5.87002096 C3.28168701,6.12159329 2.8554939,6.37316562 2.55715871,6.70859539 C2.25882353,7.04402516 2.17358491,7.33752621 2.25882353,7.63102725 C2.34406215,7.88259958 2.5145394,8.05031447 2.81287458,8.09224319 C3.11120977,8.13417191 3.5800222,8.21802935 4.21931188,8.21802935 C4.85860155,8.25995807 5.3700333,8.30188679 5.7536071,8.34381551 C6.17980022,8.38574423 6.56337403,8.55345912 6.90432852,8.76310273 C7.24528302,8.97274633 7.50099889,9.35010482 7.67147614,9.81132075 C7.84195339,10.3144654 7.79933407,10.8176101 7.58623751,11.278826 C7.37314095,11.7400419 6.98956715,12.2012579 6.47813541,12.5366876 C5.96670366,12.9140461 5.3700333,13.2075472 4.68812431,13.4171908 C3.62264151,13.7106918 2.81287458,13.7945493 2.21620422,13.7106918 Z" id="Path"></path>
                    <path d="M9.50410655,8.84696017 C9.41886792,8.05031447 9.3336293,6.75052411 9.20577137,4.82180294 L8.43862375,3.94129979 C9.07791343,3.31236897 9.6745838,2.93501048 10.2712542,2.7672956 C10.7826859,2.64150943 11.0810211,2.89308176 11.208879,3.48008386 C11.2514983,3.68972746 11.336737,4.57023061 11.4219756,6.07966457 C11.4645949,7.08595388 11.5498335,7.88259958 11.5924528,8.46960168 C11.6350721,9.05660377 11.6776915,9.47589099 11.7629301,9.72746331 C11.8481687,10.0209644 11.9334073,10.2725367 12.0186459,10.4402516 C12.1038846,10.6079665 12.2317425,10.7756813 12.4022198,10.9014675 C12.1038846,11.278826 11.7203108,11.5303983 11.2941176,11.6142558 C10.8679245,11.6981132 10.5695893,11.6981132 10.3138735,11.5303983 C10.0581576,11.3626834 9.88768036,11.0691824 9.80244173,10.6079665 C9.6745838,10.1886792 9.58934517,9.64360587 9.50410655,8.84696017 Z" id="Path"></path>
                    <path d="M21.6932297,1.84486373 C21.6932297,1.84486373 21.6932297,2.09643606 21.6932297,2.59958071 C21.6932297,3.10272537 21.6932297,3.64779874 21.6932297,4.23480084 C21.6506104,6.28930818 21.6932297,7.50524109 21.7358491,7.84067086 C21.7784684,8.13417191 21.863707,8.38574423 21.9489456,8.59538784 C22.0341842,8.80503145 22.1620422,8.93081761 22.2899001,9.09853249 C21.9489456,9.47589099 21.5653718,9.68553459 21.0965594,9.72746331 C20.4572697,9.85324948 19.9032186,9.72746331 19.4770255,9.47589099 C19.0508324,9.22431866 18.58202,8.59538784 18.1132075,7.7148847 C17.6443951,6.83438155 17.0051054,5.40880503 16.1953385,3.43815514 L16.1100999,3.43815514 L16.1100999,5.19916143 C16.0674806,7.16981132 16.1100999,8.38574423 16.1527192,8.76310273 C16.1953385,9.05660377 16.2805771,9.3081761 16.3658158,9.51781971 C16.4510544,9.68553459 16.5789123,9.85324948 16.7067703,10.0209644 C16.3658158,10.3983229 15.982242,10.6079665 15.5560488,10.6498952 C15.1298557,10.7337526 14.7889012,10.6498952 14.5758047,10.4821803 C14.3627081,10.3144654 14.1922309,9.97903564 14.1069922,9.51781971 C14.0217536,9.14046122 13.9791343,8.55345912 13.9791343,7.75681342 C13.9791343,6.96016771 13.936515,5.61844864 13.936515,3.73165618 L13.2119867,2.80922432 C13.8938957,2.22222222 14.490566,1.88679245 15.0872364,1.76100629 L15.0872364,1.76100629 L15.0872364,1.76100629 C15.6412875,1.67714885 16.1100999,1.76100629 16.4936737,2.01257862 C16.8772475,2.26415094 17.2608213,2.7672956 17.6870144,3.5639413 C18.1132075,4.360587 18.6672586,5.61844864 19.4344062,7.42138365 L19.5196448,7.42138365 C19.4770255,6.79245283 19.4770255,5.28301887 19.4770255,2.85115304 L18.8377358,1.88679245 C19.136071,1.5932914 19.4770255,1.3836478 19.7753607,1.21593291 C20.0736959,1.04821803 20.3720311,0.922431866 20.6703663,0.880503145 C21.181798,0.796645702 21.4801332,1.04821803 21.6079911,1.67714885 C21.6932297,1.76100629 21.6932297,1.84486373 21.6932297,1.84486373 Z" id="Path"></path>
                    <path d="M24.591343,8.42767296 C23.909434,7.88259958 23.5258602,7.04402516 23.4406215,5.95387841 C23.3553829,4.9475891 23.5258602,4.02515723 23.909434,3.18658281 C24.2930078,2.34800839 24.8896781,1.63522013 25.6568257,1.13207547 C26.4239734,0.628930818 27.3189789,0.293501048 28.2992231,0.251572327 C28.9811321,0.209643606 29.5351831,0.293501048 29.9613762,0.461215933 C30.3875694,0.670859539 30.6006659,0.964360587 30.6432852,1.3836478 C30.6859046,1.71907757 30.5580466,2.01257862 30.3449501,2.22222222 C30.1318535,2.47379455 29.8335183,2.59958071 29.4499445,2.59958071 C29.0663707,2.64150943 28.7254162,2.55765199 28.427081,2.38993711 C28.0861265,2.22222222 27.8304107,1.9706499 27.6173141,1.63522013 C27.191121,1.84486373 26.8075472,2.13836478 26.509212,2.59958071 C26.2108768,3.06079665 25.9551609,3.52201258 25.7846837,4.10901468 C25.6142064,4.69601677 25.5715871,5.28301887 25.6142064,5.91194969 C25.6568257,6.62473795 25.8699223,7.21174004 26.1682575,7.58909853 C26.4665927,7.96645702 26.8501665,8.13417191 27.3615982,8.13417191 C27.745172,8.09224319 28.0435072,7.96645702 28.3418424,7.75681342 C28.6401776,7.54716981 28.8532741,7.25366876 28.9811321,6.91823899 C29.1516093,6.58280922 29.1942286,6.20545073 29.1942286,5.78616352 C30.0892342,5.70230608 30.5580466,5.99580713 30.6006659,6.66666667 C30.6432852,7.08595388 30.5154273,7.46331237 30.2170921,7.84067086 C29.9187569,8.21802935 29.5351831,8.5115304 29.0237514,8.76310273 C28.5123196,9.01467505 27.9582686,9.14046122 27.3189789,9.22431866 C26.1682575,9.22431866 25.2732519,8.97274633 24.591343,8.42767296 Z" id="Path"></path>
                    <path d="M35.0756937,2.09643606 C35.0330744,2.43186583 34.990455,2.7672956 34.9052164,3.10272537 L34.7347392,4.19287212 C35.0330744,4.23480084 35.3314095,4.23480084 35.672364,4.23480084 L36.6526082,3.98322851 C36.6952275,4.1509434 36.6952275,4.27672956 36.6952275,4.44444444 C36.6952275,4.73794549 36.6099889,4.98951782 36.3968923,5.19916143 C36.1837958,5.36687631 35.8854606,5.45073375 35.5018868,5.49266247 C35.2461709,5.49266247 34.9052164,5.45073375 34.5642619,5.40880503 C34.436404,6.28930818 34.3511654,6.87631027 34.3511654,7.16981132 L34.3511654,7.29559748 L36.482131,7.25366876 C36.9935627,7.16981132 37.5049945,7.04402516 38.0590455,6.83438155 C38.1442841,7.04402516 38.1869034,7.25366876 38.1869034,7.50524109 C38.1869034,7.9245283 38.0590455,8.25995807 37.7607103,8.5115304 C37.4623751,8.76310273 36.9935627,8.88888889 36.3968923,8.88888889 C35.7576027,8.88888889 35.118313,8.80503145 34.5642619,8.59538784 C34.2233074,8.80503145 33.8823529,8.93081761 33.4561598,8.93081761 C33.0299667,8.93081761 32.7316315,8.84696017 32.518535,8.63731656 C32.3054384,8.42767296 32.2201998,8.09224319 32.2201998,7.63102725 C32.2201998,7.25366876 32.2628191,6.62473795 32.3480577,5.82809224 C32.4332963,5.03144654 32.6463929,3.68972746 32.9447281,1.88679245 L32.390677,0.754716981 C33.1578246,0.251572327 33.8397336,0 34.436404,0 C34.8625971,0 35.118313,0.209643606 35.2035516,0.628930818 C35.7576027,0.587002096 36.2690344,0.545073375 36.7378468,0.461215933 C37.2066593,0.377358491 37.8033296,0.209643606 38.5704772,0.0419287212 C38.6130966,0.251572327 38.6557159,0.503144654 38.6557159,0.71278826 C38.6557159,1.21593291 38.4852386,1.63522013 38.1442841,1.88679245 C37.8033296,2.13836478 37.3345172,2.30607966 36.7378468,2.30607966 C36.1837958,2.30607966 35.672364,2.22222222 35.0756937,2.09643606 Z" id="Path"></path>
                    <path d="M44.7076582,6.12159329 C44.8355161,5.53459119 45.091232,4.69601677 45.4321865,3.5639413 C44.963374,3.52201258 44.5798002,3.35429769 44.3240844,3.10272537 C44.0683685,2.85115304 43.8978912,2.47379455 43.8978912,2.05450734 C44.3667037,1.9706499 44.7928968,1.88679245 45.1338513,1.76100629 C45.4748058,1.63522013 45.8583796,1.50943396 46.2845727,1.34171908 C46.6255272,1.21593291 46.8812431,1.09014675 47.0517203,1.04821803 C47.2221976,1.00628931 47.4352941,0.964360587 47.6057714,1.00628931 C48.0745838,1.04821803 48.2876804,1.34171908 48.245061,1.84486373 C48.245061,2.01257862 48.1598224,2.26415094 48.0745838,2.64150943 C47.9893452,2.9769392 47.8614872,3.39622642 47.7336293,3.77358491 C47.4352941,4.65408805 47.2221976,5.40880503 47.0517203,6.03773585 C46.8812431,6.66666667 46.7533851,7.25366876 46.7107658,7.79874214 C46.6681465,8.30188679 46.7107658,8.76310273 46.8812431,9.09853249 C46.4124306,9.3081761 45.9862375,9.39203354 45.5600444,9.35010482 C45.1338513,9.3081761 44.8355161,9.18238994 44.6650388,8.88888889 C44.4945616,8.63731656 44.409323,8.25995807 44.4519423,7.75681342 C44.4519423,7.21174004 44.5798002,6.70859539 44.7076582,6.12159329 Z" id="Path"></path>
                    <path d="M49.3531632,10.9853249 C49.1826859,10.8176101 49.0122087,10.524109 48.92697,10.1467505 C49.9072142,10.0209644 50.8448391,9.72746331 51.654606,9.26624738 C52.4643729,8.80503145 53.2315205,8.09224319 53.8708102,7.1278826 L53.7855716,7.1278826 C53.1036626,7.7148847 52.336515,7.96645702 51.5267481,7.84067086 C50.7596004,7.7148847 50.2055494,7.37945493 49.8645949,6.83438155 C49.5236404,6.28930818 49.3957825,5.66037736 49.5236404,4.90566038 C49.6514983,4.23480084 49.9072142,3.60587002 50.3760266,3.10272537 C50.8448391,2.59958071 51.3988901,2.22222222 52.0807991,2.01257862 C52.7627081,1.80293501 53.4446171,1.71907757 54.1691454,1.84486373 C55.0215316,1.9706499 55.7034406,2.34800839 56.1296337,2.9769392 C56.5558269,3.60587002 56.6836848,4.44444444 56.5132075,5.49266247 C56.3427303,6.62473795 55.8739179,7.67295597 55.1493896,8.59538784 C54.4248613,9.55974843 53.6150943,10.2725367 52.6774695,10.7756813 C51.7398446,11.278826 50.9300777,11.4465409 50.1629301,11.3207547 C49.8219756,11.278826 49.5236404,11.1530398 49.3531632,10.9853249 Z M53.4019978,6.58280922 C53.6577137,6.45702306 53.9134295,6.24737945 54.1265261,5.95387841 C54.3396226,5.66037736 54.4674806,5.28301887 54.5527192,4.86373166 C54.6379578,4.40251572 54.5953385,4.02515723 54.4674806,3.68972746 C54.3396226,3.35429769 54.0412875,3.14465409 53.6150943,3.06079665 C53.3593785,3.01886792 53.1036626,3.06079665 52.8053274,3.18658281 C52.5069922,3.31236897 52.2512764,3.52201258 52.0381798,3.81551363 C51.8250832,4.10901468 51.654606,4.52830189 51.5693674,4.98951782 C51.4841287,5.40880503 51.5267481,5.78616352 51.6972253,6.12159329 C51.8677026,6.45702306 52.1660377,6.62473795 52.6774695,6.70859539 C52.9331853,6.75052411 53.1462819,6.70859539 53.4019978,6.58280922 Z" id="Shape"></path>
                    <path d="M63.5880133,5.95387841 C62.8208657,6.79245283 62.0537181,7.75681342 61.3718091,8.84696017 C60.6899001,9.93710692 60.2210877,10.9433962 60.0079911,11.8658281 C59.9653718,12.033543 59.9653718,12.1593291 59.9227525,12.2431866 C59.9227525,12.327044 59.9227525,12.4528302 59.9653718,12.5786164 C59.581798,12.6624738 59.1982242,12.6624738 58.8146504,12.5786164 C57.9196448,12.3689727 57.5786903,11.8238994 57.7917869,10.9853249 C57.9622642,10.2725367 58.3884573,9.47589099 59.0703663,8.55345912 C59.7522752,7.63102725 60.6046615,6.66666667 61.5849057,5.7442348 C60.7751387,5.53459119 60.1358491,5.36687631 59.6670366,5.1572327 C59.1982242,4.9475891 58.899889,4.69601677 58.7294118,4.44444444 C58.5589345,4.19287212 58.5163152,3.85744235 58.6015538,3.52201258 C58.6867925,3.22851153 58.8146504,2.93501048 59.0277469,2.64150943 C59.5391787,3.01886792 60.1784684,3.39622642 60.8603774,3.73165618 C61.5422863,4.10901468 62.1389567,4.31865828 62.6503885,4.44444444 C62.863485,4.19287212 63.1192009,4.02515723 63.3749168,3.94129979 C63.6306326,3.85744235 63.9289678,3.81551363 64.1846837,3.89937107 C64.4830189,3.98322851 64.7387347,4.10901468 64.8665927,4.31865828 C64.9944506,4.52830189 65.0370699,4.73794549 64.9518313,5.03144654 C64.8665927,5.53459119 64.3977802,5.87002096 63.5880133,5.95387841 Z" id="Path"></path>
                    <path d="M69.0006659,10.230608 C69.426859,10.6079665 69.7251942,10.9853249 69.8956715,11.4465409 C70.0661487,11.9077568 70.0661487,12.3689727 69.8956715,12.8721174 C69.7251942,13.4171908 69.3842397,13.8784067 68.872808,14.2138365 C68.3613762,14.5492662 67.7220866,14.7589099 66.9975583,14.8008386 C66.27303,14.8427673 65.5058824,14.7589099 64.6961154,14.5073375 C64.0142064,14.2976939 63.5027747,14.0461216 63.2044395,13.7106918 C62.9061043,13.4171908 62.8208657,13.0398323 62.9487236,12.6624738 C63.0339623,12.3689727 63.2470588,12.1593291 63.5027747,12.0754717 C63.7584906,11.9916143 64.0994451,11.9496855 64.4403996,12.033543 C64.6961154,12.1174004 64.909212,12.2851153 65.1223085,12.5366876 C65.3354051,12.78826 65.463263,13.081761 65.5058824,13.4171908 C65.8468368,13.5429769 66.1877913,13.5429769 66.5287458,13.5010482 C66.8697003,13.4591195 67.1680355,13.3333333 67.4237514,13.1236897 C67.6794673,12.9140461 67.8499445,12.7044025 67.9351831,12.4109015 C68.0204218,12.1593291 68.0204218,11.9077568 67.9778024,11.6142558 C67.9351831,11.3626834 67.7647059,11.0691824 67.50899,10.8595388 C67.2532741,10.6079665 66.9123196,10.4402516 66.4435072,10.2725367 C66.27303,10.230608 66.0173141,10.1467505 65.6763596,10.1048218 C65.5485017,10.1048218 65.463263,10.0628931 65.4206437,10.0628931 C65.3354051,10.0209644 65.2927858,9.97903564 65.2501665,9.93710692 C65.2075472,9.8951782 65.2075472,9.81132075 65.2501665,9.72746331 L66.8697003,6.5408805 C66.6566038,6.24737945 66.6139845,5.91194969 66.6992231,5.57651992 C66.7844617,5.28301887 66.954939,5.07337526 67.1680355,4.9475891 C67.3811321,4.82180294 67.6794673,4.82180294 67.9778024,4.90566038 C68.2335183,4.98951782 68.4466149,5.11530398 68.5744728,5.36687631 C68.7449501,5.57651992 68.8301887,5.87002096 68.872808,6.16352201 C69.2563818,6.24737945 69.7678135,6.28930818 70.4071032,6.28930818 C71.0463929,6.28930818 71.6430633,6.24737945 72.1971143,6.16352201 C72.1971143,6.49895178 72.154495,6.79245283 72.0692564,7.04402516 C71.8987791,7.58909853 71.5578246,7.88259958 71.0463929,7.96645702 C70.5349612,8.05031447 69.8104329,7.96645702 68.8301887,7.67295597 C68.7023307,7.63102725 68.4892342,7.54716981 68.2761376,7.46331237 L67.3385128,9.26624738 C68.0204218,9.60167715 68.5744728,9.85324948 69.0006659,10.230608 Z" id="Path"></path>
                </g>
                <g id="Group" transform="translate(58.113208, 43.773585)">
                    <path d="M8.78100195,63.3526205 C0.0424202993,49.6318658 -1.99375407,32.6503145 3.26636304,17.2779874 L3.26636304,17.2779874 C12.1746259,26.3828092 25.4097593,29.8553459 37.6268055,26.2557652 C49.8438517,22.6561845 59.0914769,12.5773585 61.5942746,0.0846960168 L61.5942746,0.0846960168 C64.0970722,12.5773585 73.3022772,22.6561845 85.5617437,26.2557652 C97.7787899,29.8553459 111.013923,26.4251572 119.922186,17.2779874 L119.922186,17.2779874 C125.182303,32.6926625 123.146129,49.6318658 114.407547,63.3526205 L114.407547,63.3949686 C80.1743656,52.5538784 42.9717632,52.5962264 8.78100195,63.3526205" id="Path"></path>
                    <path d="M110.58972,68.6037736 C78.7744958,59.0331237 44.4140534,58.9907757 12.5564086,68.6037736 C44.3716331,78.2591195 78.8169161,78.2167715 110.58972,68.6037736" id="Path"></path>
                </g>
                <g id="Group" transform="translate(36.226415, 168.301887)">
                    <path d="M12.2115903,7.07242848 C11.615903,8.69141814 11.2329611,10.0547778 10.9776665,11.2051126 C10.722372,12.3554474 10.7649211,13.2501522 10.9776665,13.931832 C10.296881,14.144857 9.65864459,14.187462 9.02040816,13.931832 C8.38217174,13.7188071 7.95668079,13.2927572 7.78648441,12.6536823 C7.61628802,12.0146074 7.70138621,11.1199026 7.99922988,9.92696287 L4.12726223,8.52099817 C3.82941856,8.94704808 3.65922218,9.28788801 3.53157489,9.58612295 C3.31882942,10.1825928 3.23373123,10.6938527 3.31882942,11.2051126 C2.97843666,11.2903226 2.6380439,11.3755326 2.25510204,11.3329276 C1.87216018,11.3329276 1.53176742,11.2477176 1.14882557,11.1199026 C0.723334617,10.9920876 0.468040046,10.7364577 0.340392761,10.3956178 C0.212745476,10.0547778 0.212745476,9.62872794 0.382941856,9.16007304 C0.638236427,8.43578819 1.31902195,7.49847839 2.38274933,6.30553865 C3.4464767,5.1552039 5.14844051,3.57881923 7.40354255,1.61898965 L7.27589526,0.298234936 C7.8715826,0.170419963 8.42472083,0.127814973 8.89276088,0.127814973 C9.36080092,0.127814973 9.82884097,0.255629945 10.3394301,0.426049909 C10.8925683,0.639074863 11.2329611,0.894704808 11.3180593,1.19293974 C11.8711975,1.10772976 12.2966885,1.10772976 12.6370812,1.23554474 C13.1476704,1.4059647 13.4455141,1.70419963 13.5306122,2.08764455 C13.6582595,2.51369446 13.5731613,3.06755934 13.3178668,3.7492392 L12.2115903,7.07242848 Z M8.55236812,8.22276324 L8.80766269,7.4558734 C9.5735464,5.28301887 10.1692337,3.70663421 10.5521756,2.72671942 L10.3394301,2.64150943 C8.25452445,4.26049909 6.55256065,5.70906878 5.27608779,7.07242848 L8.55236812,8.22276324 Z" id="Shape"></path>
                    <path d="M13.7433577,14.9117468 C13.5731613,14.5283019 13.6157104,13.974437 13.8284559,13.2927572 C13.9986523,12.7388923 14.4666923,11.7163725 15.232576,10.0973828 C15.9984598,8.52099817 16.9770889,6.64637858 18.0408163,4.51612903 L17.5302272,3.11016433 C18.0408163,2.93974437 18.5514055,2.8119294 19.0619946,2.76932441 C19.6151328,2.72671942 20.0831729,2.76932441 20.4661147,2.89713938 C20.8916057,3.02495435 21.1894494,3.19537432 21.3170966,3.45100426 C21.4447439,3.66402921 21.4447439,3.96226415 21.3596457,4.38831406 C21.2745476,4.60133901 21.1469003,4.94217894 20.9341548,5.36822885 C20.7214093,5.79427876 20.3810166,6.34814364 19.9980747,7.07242848 C19.232191,8.43578819 18.5514055,9.67133293 17.9982672,10.7790627 C17.445129,11.8867925 17.019638,12.9519172 16.6792453,13.974437 C16.551598,14.3578819 16.5090489,14.6987219 16.5090489,14.9117468 C16.5090489,15.1673767 16.551598,15.3804017 16.6792453,15.5934267 C16.3814016,15.7212416 16.0410089,15.8064516 15.7006161,15.8490566 C15.3602233,15.8490566 15.0198306,15.8490566 14.7219869,15.7212416 C14.2539469,15.5934267 13.9135541,15.2951917 13.7433577,14.9117468 Z" id="Path"></path>
                    <path d="M26.0400462,18.3201461 C25.3592607,17.7236762 25.1039661,17.0846013 25.2741625,16.4029215 C25.3592607,16.1046865 25.486908,15.8490566 25.6996534,15.5934267 C25.9123989,15.3377967 26.1676935,15.1673767 26.4655372,15.0395618 C26.7208317,15.8064516 27.1037736,16.4455265 27.6569118,16.9567864 C28.167501,17.4680463 28.8482865,17.8514912 29.6141702,18.0219111 C30.422603,18.1923311 31.0608394,18.2349361 31.6139777,18.1071211 C32.1671159,17.9793061 32.5075087,17.6384662 32.6351559,17.1272063 C32.7202541,16.7437614 32.5926069,16.4029215 32.2522141,16.1046865 C31.9118213,15.8064516 31.3586831,15.3804017 30.6353485,14.9117468 C29.8694648,14.4004869 29.2312283,13.931832 28.7631883,13.5483871 C28.2951482,13.1649422 27.9122064,12.6536823 27.6569118,12.0998174 C27.4016173,11.5459525 27.3165191,10.8642727 27.5292645,10.1399878 C27.74201,9.28788801 28.167501,8.64881315 28.8482865,8.18015825 C29.529072,7.71150335 30.3800539,7.41326841 31.4012322,7.32805843 C32.4224105,7.24284845 33.5286869,7.32805843 34.7200616,7.62629337 C35.5284944,7.83931832 36.2092799,8.05234327 36.8049673,8.3931832 C37.3581055,8.69141814 37.7835965,9.07486306 38.0814401,9.41570298 C38.3367347,9.7991479 38.4218329,10.1825928 38.3367347,10.5660377 C38.2090874,11.1199026 37.9112437,11.5033475 37.4857528,11.7163725 C37.0602618,11.9293974 36.5496727,11.9720024 35.9965345,11.8441875 C35.4433962,11.7163725 35.0179053,11.4607425 34.6775125,11.0346926 C34.3371198,10.6086427 34.1243743,10.0973828 34.0392761,9.45830797 C33.1457451,9.330493 32.3798614,9.37309799 31.784174,9.58612295 C31.1884867,9.7991479 30.848094,10.0973828 30.7204467,10.5660377 C30.6353485,10.9494827 30.7629958,11.2903226 31.1033885,11.5885575 C31.4437813,11.8867925 31.9969195,12.3128424 32.7628032,12.7814973 C33.5286869,13.2927572 34.1669234,13.7188071 34.6349634,14.102252 C35.1030035,14.4856969 35.4859453,14.9543518 35.7412399,15.5082167 C35.9965345,16.0620816 36.0816327,16.7011564 35.9114363,17.4254413 C35.7412399,18.1923311 35.3157489,18.788801 34.6775125,19.2574559 C34.0392761,19.7261108 33.2308433,19.9817407 32.3373123,20.0669507 C31.4012322,20.1521607 30.422603,20.1095557 29.4439738,19.8539257 C27.8271082,19.3852708 26.7208317,18.9166159 26.0400462,18.3201461 Z" id="Path"></path>
                    <path d="M47.8251829,22.7510651 C47.1869465,23.13451 46.5912591,23.262325 45.9955718,23.13451 C45.4424336,23.0493001 45.0594917,22.8362751 44.8467462,22.4954352 C44.6340008,22.1545953 44.5489026,21.7285453 44.5914517,21.1320755 L44.4638044,21.0042605 C43.9532152,21.4729154 43.3149788,21.8137553 42.6341933,22.0267803 C41.9534078,22.2398052 41.2726223,22.2824102 40.5918367,22.1545953 C39.6557566,21.9841753 39.0175202,21.6433354 38.6345784,21.0894705 C38.2516365,20.5782106 38.1665383,19.8113208 38.3367347,18.874011 C38.4218329,18.447961 38.5494802,17.9793061 38.6771275,17.5106512 C38.8473238,17.0419963 39.0600693,16.4455265 39.3153639,15.7638466 C39.5281094,15.1673767 39.6983057,14.6987219 39.8685021,14.3152769 C39.9961494,13.931832 40.0812476,13.5909921 40.1663458,13.2501522 C40.2939931,12.6110773 40.251444,12.0998174 40.1237967,11.7589775 C40.5492876,11.6311625 40.9747786,11.5033475 41.4002695,11.4607425 C41.8257605,11.4181376 42.1661533,11.3755326 42.4214478,11.4181376 C42.8469388,11.5033475 43.1447824,11.6311625 43.2724297,11.8441875 C43.4426261,12.0572124 43.4851752,12.3980523 43.400077,12.8241023 C43.3575279,13.0797322 43.2298806,13.4631771 43.0596843,13.974437 C42.8894879,14.4430919 42.6341933,15.1247718 42.2938005,15.9342666 C42.0810551,16.5307365 41.8257605,17.0846013 41.613015,17.6384662 C41.4002695,18.1923311 41.2726223,18.618381 41.2300732,18.874011 C41.0598768,19.8965307 41.4002695,20.5356056 42.2938005,20.6634206 C42.7192915,20.7486306 43.1873315,20.6634206 43.6979207,20.4930006 C44.1659607,20.2799757 44.6340008,19.9817407 45.0169426,19.5130858 C45.3147863,18.618381 45.9955718,16.9993914 46.974201,14.6561169 L46.3359646,13.2075472 C47.5698883,12.6962873 48.5910666,12.5258673 49.3569503,12.6536823 C49.7824413,12.7388923 50.0802849,12.8667072 50.2079322,13.0797322 C50.3355795,13.2927572 50.3781286,13.5909921 50.3355795,14.017042 C50.2930304,14.187462 50.0802849,14.7839318 49.6122449,15.8490566 C49.1016558,17.0419963 48.6761648,18.0645161 48.2932229,18.9592209 C47.9528302,19.8539257 47.6975356,20.6634206 47.5698883,21.3024954 C47.4847901,21.9841753 47.5698883,22.4528302 47.8251829,22.7510651 Z" id="Path"></path>
                    <path d="M51.7822487,23.517955 C51.5695033,23.13451 51.5269542,22.6232502 51.6120524,21.8989653 C51.6971506,21.3451004 51.9949942,20.2373707 52.5055834,18.533171 C53.0161725,16.8289714 53.6544089,14.8691418 54.3777436,12.5684723 L53.6544089,11.2477176 C54.122449,10.9920876 54.590489,10.7790627 55.1436273,10.6512477 C55.6542164,10.5234327 56.1222564,10.4808278 56.5477474,10.5234327 C57.0157874,10.5660377 57.3136311,10.6938527 57.4838275,10.9068777 C57.6540239,11.1199026 57.696573,11.4181376 57.6540239,11.8015825 C57.6114748,12.0572124 57.5263766,12.3980523 57.3987293,12.8241023 C57.271082,13.2927572 57.0157874,13.889227 56.7604929,14.6561169 C56.2073546,16.1046865 55.7818637,17.4254413 55.3989218,18.618381 C55.01598,19.8113208 54.8032345,20.9190505 54.6330381,21.9841753 C54.590489,22.3676202 54.590489,22.7084601 54.6330381,22.9640901 C54.6755872,23.21972 54.7606854,23.432745 54.8883327,23.6031649 C54.590489,23.8161899 54.2926454,23.9440049 53.9522526,24.0292149 C53.6118598,24.1144248 53.2714671,24.1144248 52.9736234,24.0718198 C52.3779361,24.1144248 51.9949942,23.8587949 51.7822487,23.517955 Z" id="Path"></path>
                    <path d="M65.8659992,15.7638466 C65.9936465,15.8916616 66.0361956,16.1046865 66.0361956,16.4455265 C65.9936465,16.7437614 65.8659992,17.0846013 65.6532538,17.4680463 C65.2277628,17.2976263 64.6746246,17.1698113 64.0789372,17.0846013 L63.6959954,17.0419963 C63.2705044,18.1071211 62.9301117,19.0870359 62.632268,20.0243457 C62.3344243,20.9616555 62.1216789,21.9415703 62.0365807,22.9214851 L62.7173662,24.3700548 C62.3769734,24.6256847 61.9940316,24.7961047 61.6110897,24.9239197 C61.2281479,25.0517346 60.845206,25.0943396 60.5048132,25.0517346 C59.9942241,25.0091296 59.5687332,24.8387097 59.3134386,24.4978698 C59.058144,24.1996348 58.9304967,23.6883749 59.0155949,22.9214851 C59.058144,22.3676202 59.2283404,21.7285453 59.4410859,21.0468655 C59.6538313,20.3225806 59.951675,19.4704808 60.3346169,18.490566 L60.845206,17.0846013 C60.5473623,17.0846013 60.3346169,17.0846013 60.1644205,17.0419963 C59.7814786,16.9993914 59.5261841,16.9141814 59.3559877,16.7863664 C59.2283404,16.6585514 59.1432422,16.4455265 59.1857913,16.1472915 C59.2283404,15.8064516 59.3559877,15.4656117 59.5687332,15.1247718 C59.9942241,15.2951917 60.5048132,15.4230067 61.1430497,15.5082167 L61.2281479,15.5082167 L61.2281479,15.4230067 C61.270697,14.8265368 61.2281479,14.187462 61.1005006,13.5483871 C61.4834424,13.2501522 61.9089334,13.0371272 62.3769734,12.9093122 C62.8450135,12.7814973 63.3130535,12.6962873 63.7810936,12.7814973 C64.2065845,12.8241023 64.5044282,12.9519172 64.6746246,13.1649422 C64.8448209,13.3779671 64.88737,13.6762021 64.8448209,14.102252 C64.8022719,14.3578819 64.6746246,14.8265368 64.41933,15.5508217 C64.7597228,15.5508217 64.9724682,15.5934267 65.1426646,15.5934267 C65.4405083,15.5508217 65.6958028,15.6360316 65.8659992,15.7638466 Z" id="Path"></path>
                    <path d="M76.2905275,25.4777845 C75.6948402,25.9038344 75.0566038,26.1168594 74.4183673,26.0742544 C73.9077782,26.0316494 73.5248363,25.8612295 73.2695418,25.5629945 C73.0142472,25.2647596 72.8865999,24.7961047 72.929149,24.2422398 C72.929149,24.0292149 72.9716981,23.7735849 73.0567963,23.432745 L72.8865999,23.347535 C72.461109,24.1570298 71.9505198,24.7534997 71.3122834,25.1795496 C70.674047,25.6055995 69.9507124,25.8186245 69.1848286,25.7760195 C68.5465922,25.7334145 67.993454,25.5203895 67.5254139,25.1795496 C67.0573739,24.7961047 66.7169811,24.3274498 66.4616866,23.6883749 C66.2489411,23.0493001 66.1212938,22.3250152 66.1638429,21.5155204 C66.2489411,20.1947657 66.5893338,19.0444309 67.2275703,18.0645161 C67.8658067,17.0419963 68.7167886,16.3177115 69.780516,15.7638466 C70.8442434,15.2525867 72.035618,14.9969568 73.35464,15.0821668 C73.8652291,15.1247718 74.3332692,15.1673767 74.8438583,15.2951917 C74.9289565,15.5082167 74.9715056,15.7638466 75.0140547,16.0620816 C75.4395456,15.7638466 75.9075857,15.6360316 76.4181748,15.6786366 C76.8011167,15.6786366 77.0564112,15.8064516 77.2691567,16.0194766 C77.4393531,16.2325015 77.5244513,16.5307365 77.5244513,16.8715764 C77.5244513,17.1272063 77.4393531,17.4254413 77.3542549,17.8088862 C77.2691567,18.1923311 77.0989603,18.660986 76.928764,19.3426659 C76.6309203,20.4077906 76.3756257,21.3024954 76.2054293,22.0267803 C76.035233,22.7510651 75.9501348,23.432745 75.9075857,24.1144248 C75.8650366,24.7534997 75.9926839,25.2221546 76.2905275,25.4777845 Z M72.9716981,21.7711503 C73.6099345,20.6634206 74.1630728,18.9166159 74.5460146,16.5307365 C73.5673854,16.5307365 72.6738544,16.7437614 71.8654216,17.1698113 C71.0569888,17.5958612 70.4187524,18.1497261 69.9507124,18.874011 C69.4826723,19.5982958 69.2273777,20.3651856 69.1848286,21.2598904 C69.1422796,21.8989653 69.2699268,22.4102252 69.5252214,22.7936701 C69.780516,23.177115 70.1634578,23.39014 70.6314979,23.39014 C71.5250289,23.432745 72.3334617,22.9214851 72.9716981,21.7711503 Z" id="Shape"></path>
                    <path d="M80.1624952,25.8612295 C79.9072006,25.5629945 79.7370042,25.0943396 79.7370042,24.4978698 C79.7370042,24.0292149 79.8646515,23.0493001 80.1199461,21.6007304 C80.3752407,20.1521607 80.6730843,18.788801 80.970928,17.5106512 L80.1199461,16.3177115 C80.545437,16.0194766 81.0134771,15.8064516 81.4815171,15.6360316 C81.9495572,15.4656117 82.4175972,15.3804017 82.8856373,15.3804017 C83.3111282,15.3804017 83.6089719,15.4656117 83.8217174,15.6786366 C84.0344628,15.8916616 84.119561,16.1898965 84.119561,16.5733414 C84.119561,16.8715764 84.0770119,17.2124163 83.9919137,17.5532562 C83.9068156,17.8940962 83.8217174,18.1923311 83.651521,18.490566 L83.8217174,18.575776 C85.013092,16.4455265 86.5874085,15.3804017 88.5021178,15.3804017 C89.2254524,15.3804017 89.7785907,15.5508217 90.1189834,15.9342666 C90.4593762,16.2751065 90.6721217,16.8289714 90.6721217,17.5958612 C90.6721217,18.0219111 90.6295726,18.447961 90.5444744,18.874011 C90.4593762,19.3000609 90.3317289,19.9391357 90.1615325,20.7060256 C89.9913362,21.4729154 89.8211398,22.1119903 89.7360416,22.6658551 C89.6509434,23.21972 89.5658452,23.7309799 89.5658452,24.2848448 C89.5658452,24.8813147 89.6934925,25.3073646 89.8636889,25.6055995 C89.3530997,26.0742544 88.7999615,26.3298844 88.2468233,26.3298844 C87.6511359,26.3298844 87.225645,26.2020694 86.9703504,25.8612295 C86.7150558,25.5629945 86.5874085,25.0943396 86.5874085,24.4978698 C86.5874085,24.0292149 86.6299576,23.56056 86.7150558,23.0493001 C86.800154,22.5380402 86.9703504,21.8989653 87.1405468,21.1320755 C87.3107432,20.4930006 87.4383905,19.9817407 87.4809395,19.6409008 C87.5660377,19.3000609 87.6085868,18.9592209 87.6085868,18.660986 C87.6085868,17.9793061 87.3532923,17.6810712 86.8427031,17.6810712 C86.2470158,17.6810712 85.6513285,17.9793061 85.013092,18.618381 C84.3748556,19.2574559 83.8217174,20.0669507 83.3962264,21.0894705 C82.9707355,22.1119903 82.75799,23.177115 82.75799,24.3274498 C82.75799,24.9239197 82.8856373,25.3499696 83.0558337,25.6482045 C82.5026954,26.1168594 81.9921063,26.3724893 81.438968,26.3724893 C80.8858298,26.2872794 80.4603389,26.1594644 80.1624952,25.8612295 Z" id="Path"></path>
                    <path d="M108.798036,19.2574559 C109.351174,19.7687158 109.691567,20.4077906 109.734116,21.2172855 C109.776665,21.9415703 109.606469,22.6232502 109.180978,23.21972 C108.755487,23.8161899 108.117251,24.3274498 107.266269,24.7108947 C106.415287,25.0943396 105.394109,25.3499696 104.287832,25.4351795 C102.543319,25.6055995 101.224297,25.4777845 100.373315,25.1369446 C99.4797844,24.7961047 99.0117443,24.1570298 98.9691952,23.30493 C98.9266461,22.7510651 98.9266461,21.8989653 98.9691952,20.7912355 C99.0117443,19.6835058 99.1819407,17.8514912 99.3946862,15.3377967 L98.5011552,13.846622 C99.5223335,13.0371272 100.500963,12.6110773 101.394494,12.5258673 C102.03273,12.4832623 102.415672,12.7814973 102.585868,13.4205721 C103.692145,12.6536823 104.84097,12.2276324 105.989796,12.1424224 C106.925876,12.0572124 107.649211,12.2276324 108.244898,12.6536823 C108.798036,13.0797322 109.138429,13.7188071 109.223527,14.5283019 C109.308625,15.2951917 109.09588,16.0194766 108.670389,16.6585514 C108.244898,17.2976263 107.564112,17.8940962 106.628032,18.3201461 C107.479014,18.490566 108.244898,18.788801 108.798036,19.2574559 Z M106.032345,23.0066951 C106.457836,22.5806452 106.670581,22.0267803 106.585483,21.3877054 C106.542934,20.7486306 106.28764,20.2799757 105.8196,19.9817407 C105.394109,19.6835058 104.755872,19.5556908 103.989988,19.6409008 C103.394301,19.6835058 102.756065,19.8539257 102.03273,20.0669507 C101.990181,21.2172855 101.947632,22.3676202 101.947632,23.47535 C102.245476,23.56056 102.628417,23.6457699 103.011359,23.6883749 C103.394301,23.7309799 103.777243,23.7309799 104.160185,23.6883749 C104.968618,23.6883749 105.606854,23.432745 106.032345,23.0066951 Z M102.160377,18.660986 C103.394301,18.490566 104.37293,18.1071211 105.096265,17.5532562 C105.77705,16.9993914 106.117443,16.3177115 106.032345,15.5934267 C105.947247,14.6561169 105.394109,14.230067 104.330381,14.3578819 C103.734694,14.4004869 103.096457,14.5709069 102.50077,14.8691418 C102.330574,16.0620816 102.245476,17.3402313 102.160377,18.660986 Z" id="Shape"></path>
                    <path d="M122.881787,22.4528302 C122.371198,23.0066951 121.818059,23.347535 121.179823,23.432745 C120.669234,23.517955 120.243743,23.432745 119.945899,23.13451 C119.605506,22.8788801 119.43531,22.4528302 119.350212,21.8989653 C119.307663,21.6859404 119.307663,21.4303104 119.307663,21.0894705 L119.137466,21.0468655 C118.882172,21.8989653 118.49923,22.6232502 117.946092,23.177115 C117.392953,23.7309799 116.754717,24.0718198 115.988833,24.1570298 C115.350597,24.2422398 114.75491,24.1570298 114.24432,23.9013999 C113.733731,23.6457699 113.265691,23.21972 112.925298,22.6232502 C112.584906,22.0267803 112.329611,21.3451004 112.201964,20.5356056 C112.031767,19.2574559 112.159415,18.0645161 112.584906,16.9567864 C113.010397,15.8490566 113.691182,14.9117468 114.669811,14.187462 C115.605891,13.4631771 116.754717,12.9945222 118.03119,12.8241023 C118.541779,12.7388923 119.009819,12.7388923 119.520408,12.7388923 C119.648055,12.9519172 119.733154,13.1649422 119.818252,13.4631771 C120.158645,13.1223372 120.626685,12.9093122 121.137274,12.8241023 C121.520216,12.7814973 121.818059,12.8241023 122.030805,12.9945222 C122.24355,13.1649422 122.413747,13.4205721 122.456296,13.804017 C122.498845,14.059647 122.498845,14.3578819 122.456296,14.7413268 C122.413747,15.1247718 122.413747,15.6360316 122.328648,16.3177115 C122.24355,17.4254413 122.201001,18.3627511 122.158452,19.0870359 C122.115903,19.8113208 122.158452,20.5356056 122.286099,21.2172855 C122.328648,21.8563603 122.541394,22.2824102 122.881787,22.4528302 Z M118.924721,19.5130858 C119.350212,18.2775411 119.520408,16.4455265 119.43531,14.059647 C118.456681,14.2726719 117.648248,14.6561169 116.924913,15.2099817 C116.201579,15.7638466 115.69099,16.4455265 115.393146,17.2550213 C115.052753,18.0645161 114.967655,18.874011 115.095302,19.7261108 C115.1804,20.3651856 115.393146,20.8338405 115.733539,21.1746805 C116.073931,21.4729154 116.456873,21.6007304 116.924913,21.5581254 C117.818444,21.4303104 118.49923,20.7486306 118.924721,19.5130858 Z" id="Shape"></path>
                    <path d="M135.135926,18.447961 C135.561417,18.746196 136.114555,18.9592209 136.710243,19.0870359 C136.327301,20.1095557 135.689064,20.7060256 134.752984,20.9190505 C134.199846,21.0468655 133.731806,20.9616555 133.263766,20.7060256 C132.795726,20.4503956 132.285137,19.9391357 131.689449,19.2148509 L130.157682,17.4254413 L128.796111,18.575776 C128.881209,19.0870359 128.966307,19.5130858 129.008856,19.7261108 C129.093955,20.1095557 129.179053,20.4503956 129.3067,20.6634206 C129.434347,20.8764455 129.604544,21.0468655 129.77474,21.1746805 C129.561995,21.4729154 129.3067,21.6859404 129.008856,21.8563603 C128.711013,22.0267803 128.413169,22.1545953 128.115325,22.2398052 C127.562187,22.3676202 127.136696,22.2824102 126.796303,21.9841753 C126.455911,21.6859404 126.243165,21.2172855 126.115518,20.5356056 C125.987871,19.9817407 125.902772,18.831406 125.860223,17.0846013 C125.775125,15.3377967 125.732576,13.2501522 125.690027,10.8216677 L124.58375,9.84175289 C124.924143,9.45830797 125.349634,9.11746805 125.775125,8.81923311 C126.243165,8.52099817 126.668656,8.35057821 127.094147,8.26536823 C127.519638,8.18015825 127.860031,8.18015825 128.115325,8.30797322 C128.328071,8.43578819 128.498267,8.69141814 128.583365,9.11746805 C128.625915,9.37309799 128.668464,9.71393792 128.668464,10.1825928 C128.668464,10.6086427 128.668464,11.2903226 128.625915,12.1850274 C128.583365,14.144857 128.583365,15.7638466 128.668464,16.9993914 L129.519446,16.0194766 C130.327878,15.0395618 130.923566,14.230067 131.263958,13.5909921 C131.604351,12.9519172 131.731998,12.3554474 131.604351,11.8015825 C131.561802,11.5885575 131.476704,11.3329276 131.306508,11.1199026 C131.817097,10.6512477 132.370235,10.3956178 132.965922,10.2678028 C133.391413,10.1825928 133.774355,10.2251978 134.114748,10.4382228 C134.455141,10.6512477 134.667886,10.9920876 134.752984,11.4181376 C134.880631,12.0146074 134.752984,12.6536823 134.370042,13.3353621 C133.987101,14.017042 133.348864,14.7839318 132.412784,15.6360316 L133.902002,17.3828363 C134.284944,17.7236762 134.710435,18.1497261 135.135926,18.447961 Z" id="Path"></path>
                    <path d="M145.603003,11.7163725 C145.220062,12.3980523 144.581825,13.0371272 143.645745,13.5909921 C142.709665,14.144857 141.560839,14.6135119 140.199268,14.9969568 L140.241817,15.2099817 C140.454563,16.0194766 140.752407,16.6159464 141.177898,17.0419963 C141.603389,17.4254413 142.071429,17.5532562 142.582018,17.4254413 C143.220254,17.2550213 143.688294,16.9141814 143.986138,16.3603165 C144.283982,15.8064516 144.36908,15.1673767 144.198883,14.4430919 C144.794571,14.2726719 145.262611,14.2726719 145.645553,14.4430919 C146.028494,14.5709069 146.24124,14.8691418 146.368887,15.2951917 C146.496534,15.7638466 146.411436,16.2751065 146.113593,16.7437614 C145.815749,17.2550213 145.390258,17.6810712 144.794571,18.1071211 C144.198883,18.533171 143.518098,18.831406 142.709665,19.0444309 C141.390643,19.3852708 140.284367,19.2574559 139.348286,18.703591 C138.412206,18.1497261 137.77397,17.2124163 137.433577,15.9342666 C137.135734,14.7413268 137.135734,13.5909921 137.433577,12.4406573 C137.731421,11.3329276 138.327108,10.3530128 139.135541,9.58612295 C139.986523,8.77662812 141.007701,8.22276324 142.199076,7.9245283 C143.177705,7.66889836 143.986138,7.71150335 144.624374,7.96713329 C145.262611,8.26536823 145.688102,8.77662812 145.900847,9.54351795 C146.071044,10.2678028 145.985945,11.0346926 145.603003,11.7163725 Z M140.539661,11.0346926 C140.156719,11.8441875 139.986523,12.7388923 140.029072,13.804017 C141.305545,13.4205721 142.241625,12.9093122 142.837312,12.3128424 C143.433,11.7163725 143.645745,11.0346926 143.433,10.3104078 C143.347901,10.0121729 143.177705,9.7991479 142.96496,9.62872794 C142.709665,9.50091296 142.45437,9.45830797 142.113978,9.54351795 C141.433192,9.75654291 140.922603,10.2678028 140.539661,11.0346926 Z" id="Shape"></path>
                    <path d="M150.368502,16.4029215 C150.028109,16.1898965 149.730266,15.7638466 149.560069,15.1673767 C149.432422,14.7413268 149.304775,13.804017 149.134578,12.3980523 C148.964382,10.9494827 148.836735,9.58612295 148.794186,8.22276324 L147.602811,7.32805843 C148.198498,6.5185636 148.836735,6.00730371 149.432422,5.79427876 C149.815364,5.66646379 150.155757,5.66646379 150.411051,5.83688375 C150.666346,5.96469872 150.836542,6.22032867 150.964189,6.56116859 C151.091837,6.90200852 151.134386,7.28545344 151.134386,7.71150335 C151.134386,8.13755326 151.134386,8.56360316 151.091837,9.11746805 L151.304582,9.16007304 C151.38968,7.79671333 151.602426,6.77419355 151.90027,6.00730371 C152.198113,5.28301887 152.708702,4.81436397 153.389488,4.60133901 C153.857528,4.47352404 154.24047,4.47352404 154.580863,4.643944 C154.921255,4.81436397 155.134001,5.1125989 155.261648,5.53864881 C155.431844,6.0499087 155.389295,6.5185636 155.134001,6.90200852 C154.878706,7.32805843 154.453215,7.62629337 153.857528,7.79671333 C153.30439,7.96713329 152.878899,8.35057821 152.538506,8.98965307 C152.198113,9.62872794 152.027917,10.3956178 151.985368,11.3329276 C151.942819,12.2702374 152.070466,13.1649422 152.36831,14.102252 C152.538506,14.6561169 152.751251,15.0821668 153.049095,15.2951917 C152.708702,15.8916616 152.240662,16.2751065 151.730073,16.4455265 C151.219484,16.6585514 150.751444,16.6159464 150.368502,16.4029215 Z" id="Path"></path>
                    <path d="M165.771275,1.66159464 C166.324413,3.15276932 166.494609,4.98478393 166.366962,7.15763847 C166.239315,9.330493 165.686176,11.3329276 164.750096,13.1649422 C163.771467,14.9969568 162.409896,16.2751065 160.580285,16.9141814 C159.729303,17.2124163 159.048518,17.2976263 158.537928,17.1698113 C157.98479,17.0419963 157.644397,16.7011564 157.431652,16.1472915 C157.346554,15.8916616 157.304005,15.6360316 157.346554,15.3377967 C157.389103,15.0395618 157.474201,14.7839318 157.559299,14.6135119 C158.240085,15.1247718 159.048518,15.2099817 160.027147,14.8265368 C160.367539,14.6987219 160.750481,14.4856969 161.133423,14.187462 C161.516365,13.889227 161.856758,13.5057821 162.197151,13.0371272 C161.431267,13.1649422 160.79303,13.0371272 160.282441,12.6536823 C159.771852,12.2702374 159.346361,11.7589775 159.048518,11.1625076 C158.708125,10.5234327 158.367732,9.71393792 157.98479,8.64881315 C157.559299,7.49847839 157.176357,6.60377358 156.793415,5.96469872 C156.453023,5.32562386 155.984983,4.89957395 155.431844,4.686549 C155.814786,4.09007912 156.282826,3.70663421 156.878514,3.49360925 C157.474201,3.2805843 157.98479,3.32318929 158.45283,3.57881923 C158.878321,3.83444918 159.261263,4.26049909 159.559107,4.81436397 C159.85695,5.36822885 160.154794,6.09251369 160.452638,6.94461351 L160.878129,8.09494827 C161.218521,9.07486306 161.601463,9.84175289 161.899307,10.3956178 C162.2397,10.9494827 162.665191,11.2477176 163.133231,11.3755326 C163.601271,10.2251978 163.856565,8.94704808 163.856565,7.54108338 C163.899114,6.13511869 163.601271,4.60133901 163.005583,2.98234936 C162.877936,2.59890444 162.750289,2.30066951 162.622642,2.08764455 C162.792838,1.83201461 163.005583,1.57638466 163.218329,1.36335971 C163.473623,1.15033475 163.686369,1.02251978 163.941663,0.937309799 C164.877744,0.553864881 165.430882,0.809494827 165.771275,1.66159464 Z" id="Path"></path>
                </g>
                <path d="M239.940733,141.224814 L222.549015,131.906561 L226.111174,110.389869 C226.111174,110.347513 226.111174,110.262802 226.027358,110.220446 C225.985451,110.17809 225.901635,110.17809 225.859727,110.220446 C219.573564,114.286593 212.616876,118.098605 205.283019,121.571772 L216.933375,147.620524 L208.887086,156.981132 C219.615472,152.660851 230.050503,147.451101 239.898826,141.478948 C239.940733,141.436592 239.982641,141.394237 239.982641,141.351881 C240.024549,141.309525 239.982641,141.26717 239.940733,141.224814 Z" id="Path"></path>
                <path d="M204.528302,153.119619 L206.640156,157.735849 L214.339623,148.679245 C211.127845,150.261953 207.87207,151.756732 204.528302,153.119619 Z" id="Path"></path>
                <g id="Group" transform="translate(0.000000, 110.188679)">
                    <path d="M0.0844564241,31.460344 L17.6091644,22.0564368 L14.0197664,0.34196026 C14.0197664,0.299215228 14.0197664,0.213725163 14.1042228,0.17098013 C14.146451,0.128235098 14.2309075,0.128235098 14.2731357,0.17098013 C20.6073675,4.27450326 27.6172507,8.12155619 35.0071878,11.6266489 L23.2255166,37.9148439 L31.3333333,47.3614961 C20.5229111,43.0015028 10.0080863,37.7438638 0.0844564241,31.7168142 C0.042228212,31.7168142 0,31.6313241 0,31.5885791 C0,31.545834 0.042228212,31.503089 0.0844564241,31.460344 Z" id="Path"></path>
                    <path d="M35.0916442,43.4289531 L33.06469,47.9171815 L25.6747529,39.1117048 C28.7996406,40.650526 31.9245283,42.1038571 35.0916442,43.4289531 Z" id="Path"></path>
                </g>
                <g id="Group" transform="translate(24.150943, 116.226415)">
                    <path d="M55.4737018,30.4474394 C54.7527133,30.2749326 54.0317248,30.1886792 53.3955585,30.1886792 C52.8018033,30.1886792 52.2504592,30.2749326 51.7415261,30.4043127 C50.6388379,30.7061995 49.748205,31.2237197 49.1120387,31.8706199 C48.5182835,32.4743935 48.0941726,33.0781671 47.797295,33.7681941 L54.116547,35.277628 C54.4982468,35.3638814 54.8799466,35.4070081 55.2192353,35.4070081 C55.7281683,35.4070081 56.1946903,35.3207547 56.6188011,35.1051213 C57.3397896,34.7601078 57.7639005,34.1994609 57.9759559,33.3369272 C58.2728335,31.8706199 57.4670229,30.9218329 55.4737018,30.4474394 Z" id="Path"></path>
                    <path d="M177.617632,0.0862533693 C126.512272,26.1778976 65.313074,26.2641509 14.2077141,0.0862533693 L0.254466522,31.3962264 C60.3933879,61.4555256 131.47437,61.541779 191.57088,31.3962264 L177.617632,0.0862533693 Z M160.441142,16.6469003 C160.653198,16.1725067 161.077308,15.7843666 161.628653,15.5687332 C161.883119,15.4824798 162.137586,15.4393531 162.349641,15.4393531 C162.519285,15.4393531 162.68893,15.4824798 162.858574,15.5256065 C163.240274,15.6549865 163.537151,15.9568733 163.664385,16.3450135 C163.87644,16.9056604 163.87644,17.4231806 163.621974,17.9407008 C163.367507,18.4150943 162.985807,18.8032345 162.434463,19.0188679 C162.179997,19.1051213 161.92553,19.1913747 161.713475,19.1913747 C161.54383,19.1913747 161.374186,19.148248 161.204542,19.1051213 C160.822842,18.9757412 160.568375,18.6738544 160.398731,18.2857143 C160.229087,17.6819407 160.229087,17.1644205 160.441142,16.6469003 Z M136.266823,24.6684636 C136.5637,24.2371968 137.030222,23.93531 137.623977,23.7628032 C137.793622,23.7196765 137.963266,23.7196765 138.090499,23.7196765 C138.344966,23.7196765 138.599432,23.7628032 138.853899,23.8921833 C139.235599,24.1078167 139.447654,24.4097035 139.532476,24.8409704 C139.659709,25.4447439 139.574887,25.9622642 139.27801,26.393531 C138.981132,26.8247978 138.51461,27.1266846 137.920855,27.2560647 C137.751211,27.2991914 137.581566,27.2991914 137.411922,27.2991914 C137.157455,27.2991914 136.902989,27.2560647 136.690933,27.1266846 C136.351645,26.9110512 136.097178,26.6091644 136.012356,26.1778976 C135.885123,25.6603774 135.969945,25.0997305 136.266823,24.6684636 Z M29.8149942,19.1913747 C30.0270496,18.6307278 30.4087494,18.2425876 30.9176824,18.0269542 C31.1721489,17.9407008 31.3842044,17.8975741 31.6386709,17.8975741 C31.9355485,17.8975741 32.190015,17.9407008 32.4868926,18.0700809 C32.9110035,18.2425876 33.2502922,18.5013477 33.4199366,18.8894879 C33.5895809,19.277628 33.631992,19.6657682 33.4623476,20.0539084 C33.2502922,20.6145553 32.8685924,21.0026954 32.3596594,21.2183288 C32.1476039,21.3045822 31.8931374,21.3477089 31.6386709,21.3477089 C31.3417933,21.3477089 31.0449157,21.3045822 30.7480381,21.1752022 C30.2815161,21.0026954 29.9846385,20.7439353 29.7725831,20.3557951 C29.6877609,20.0107817 29.6453498,19.6226415 29.8149942,19.1913747 Z M34.5226248,28.2911051 L33.631992,29.7574124 C32.9534146,30.8355795 32.2324261,31.7412399 31.5538487,32.4743935 C30.8328602,33.2075472 29.8998163,33.7681941 28.7123059,34.0700809 C28.3306061,34.1563342 27.9064952,34.2425876 27.4823844,34.2425876 C27.4823844,34.2425876 27.4823844,34.2425876 27.4823844,34.2425876 C26.5917515,34.2425876 25.6162965,34.0269542 24.5984305,33.5956873 C23.1140424,32.9919137 22.0113541,32.2156334 21.4175989,31.2668464 C20.7814326,30.3180593 20.484555,29.3692722 20.4421439,28.4204852 C20.4421439,27.5148248 20.5693772,26.6954178 20.8662548,25.9622642 C21.2055435,25.0566038 21.7144765,24.4097035 22.3930539,23.9784367 C22.8171648,23.7196765 23.2412757,23.5902965 23.6653865,23.5902965 C24.0046752,23.5902965 24.3015528,23.6765499 24.6408415,23.8059299 C25.0225413,23.93531 25.3194189,24.1509434 25.5738855,24.4097035 C25.828352,24.6684636 25.9555852,24.9272237 26.0404074,25.1859838 L26.1252296,25.4447439 L25.8707631,25.5309973 C25.5738855,25.6172507 25.2770078,25.8328841 24.9377192,26.1347709 C24.5984305,26.4366577 24.3439639,26.8247978 24.1743196,27.2560647 C24.0046752,27.6442049 23.9622642,28.0754717 24.0046752,28.5498652 C24.0470863,29.0242588 24.2167307,29.4555256 24.5136083,29.9299191 C24.8104859,30.361186 25.3194189,30.7493261 26.0404074,31.0080863 C26.4645183,31.180593 26.8886292,31.2668464 27.2279178,31.2668464 C27.4399733,31.2668464 27.6096176,31.2237197 27.8216731,31.180593 C28.3306061,31.0080863 28.8395392,30.6630728 29.3484722,30.1024259 C29.8574052,29.4986523 30.4935715,28.6361186 31.21456,27.4716981 C31.8507263,26.4366577 32.4868926,25.3584906 33.1230589,24.2803235 L32.6989481,22.6415094 L32.9958257,22.5552561 C33.5471698,22.425876 34.0985139,22.3396226 34.607447,22.3396226 C34.607447,22.3396226 34.607447,22.3396226 34.607447,22.3396226 C35.1587911,22.3396226 35.6677242,22.425876 36.1342461,22.6415094 C36.558357,22.8140162 36.8552346,23.0296496 36.9824679,23.245283 C37.1097011,23.5040431 37.1097011,23.8490566 36.9824679,24.2371968 C36.8552346,24.5822102 36.6007681,25.0566038 36.2190683,25.7466307 C35.7101352,26.3072776 35.2012022,27.1698113 34.5226248,28.2911051 Z M121.083653,29.8005391 C121.041242,30.361186 120.998831,30.9218329 120.914009,31.5256065 C120.786776,33.1644205 120.659542,34.6307278 120.617131,35.8382749 C120.57472,37.0458221 120.617131,38.296496 120.744365,39.5040431 L120.744365,39.5902965 L119.684087,41.7466307 L114.72199,42.4797844 L113.15278,42.5660377 C113.110369,42.5660377 113.067958,42.5660377 113.025547,42.5660377 C112.389381,42.5660377 111.922859,42.3504043 111.625981,41.9191375 L111.20187,42.6522911 L107.554517,42.8247978 C107.512106,42.8247978 107.469694,42.8247978 107.427283,42.8247978 C106.791117,42.8247978 106.324595,42.6091644 106.027717,42.1778976 L105.603607,42.9110512 L101.998664,43.083558 C101.956253,43.083558 101.913842,43.083558 101.82902,43.083558 C101.06562,43.083558 100.641509,42.7816712 100.429454,42.4366577 L100.005343,43.1698113 L95.9338788,43.2991914 L87.1971949,42.9110512 L79.0118551,42.3072776 L70.8265153,41.3584906 L69.0876607,41.0997305 C68.2818501,40.9703504 67.9001503,40.5822102 67.6880948,40.1509434 L67.1367507,40.754717 L62.6411755,40.1509434 L58.7393555,39.3315364 C58.2304224,39.2021563 57.8063116,38.9865229 57.509434,38.6846361 C57.2973785,38.4690027 57.1701453,38.2533693 57.0853231,37.9946092 C56.4915679,38.1671159 55.8554016,38.2533693 55.1768242,38.2533693 C54.4558357,38.2533693 53.6924361,38.1671159 52.9290366,37.9514825 L41.0115211,34.7169811 L40.4177659,34.5013477 C39.8240107,34.2857143 39.2302555,34.0269542 38.6365003,33.638814 C38.509267,33.638814 38.3820337,33.6819407 38.2548005,33.6819407 C37.9579229,33.6819407 37.6610452,33.638814 37.3641676,33.5525606 C36.7704124,33.3800539 36.3887126,33.0350404 36.2190683,32.5175202 C36.0494239,32.0431267 36.091835,31.5256065 36.2614794,30.8787062 C36.4311237,30.3180593 36.8128235,29.4123989 37.4065787,28.2048518 C38.0003339,26.9973046 38.8061446,25.4016173 39.8240107,23.4177898 C39.9088329,23.2021563 40.0360661,22.9865229 40.1632994,22.7708895 L40.460177,22.2102426 L39.9512439,20.6576819 L40.2481216,20.5714286 C40.7570546,20.3989218 41.3083987,20.2695418 41.8173318,20.2264151 C41.9021539,20.2264151 42.0293872,20.2264151 42.1142094,20.2264151 C42.5383203,20.2264151 42.9624311,20.2695418 43.3441309,20.3989218 C43.8106529,20.5283019 44.1075305,20.7439353 44.2771748,21.0458221 C44.4468192,21.3477089 44.4468192,21.6927224 44.3195859,22.1239892 C44.2347637,22.3827493 44.1075305,22.6846361 43.853064,23.1590296 C43.5985974,23.5902965 43.4289531,23.9784367 43.2168976,24.3234501 L42.8351979,25.0566038 C42.0293872,26.4797844 41.3932209,27.6873315 40.8842879,28.6361186 C40.460177,29.4986523 40.0784772,30.361186 39.8240107,31.180593 L42.2838537,31.9568733 L44.7012857,32.819407 C44.87093,32.2587601 45.1253966,31.5687332 45.5070963,30.6630728 C45.9312072,29.5849057 46.5249624,28.2048518 47.2459509,26.5229111 L48.0517616,24.6253369 L47.4155953,23.115903 L47.6700618,22.9865229 C48.1789948,22.7708895 48.6879279,22.5983827 49.1968609,22.5121294 C49.4089163,22.4690027 49.6209718,22.4690027 49.8330272,22.4690027 C50.1299048,22.4690027 50.4267824,22.5121294 50.72366,22.5552561 C51.190182,22.6846361 51.5294707,22.8571429 51.7415261,23.1590296 C51.9535816,23.4609164 51.9959927,23.8059299 51.8687594,24.2803235 C51.7839372,24.5390836 51.656704,24.9272237 51.4446485,25.4447439 C51.2325931,25.9191375 50.9781266,26.4366577 50.72366,26.9541779 C50.5116046,27.3854447 50.2995492,27.8167116 50.1299048,28.2479784 C51.2750042,27.5148248 52.5897479,27.1266846 54.0741359,27.1266846 C54.8799466,27.1266846 55.7281683,27.2560647 56.6188011,27.4285714 C58.5273001,27.902965 59.8420437,28.6361186 60.5630322,29.671159 C61.2840207,30.7061995 61.4536651,31.9568733 61.1567874,33.3800539 C61.1143764,33.638814 61.0719653,33.7681941 61.0295542,33.8975741 L60.8599098,34.328841 L60.7326766,34.6738544 C60.5630322,35.0619946 60.4782101,35.3207547 60.435799,35.4932615 C60.3509768,35.8382749 60.3509768,36.1401617 60.4782101,36.3126685 C60.5630322,36.4851752 60.7750877,36.6145553 61.0295542,36.7008086 L63.4893972,37.1320755 L65.4403072,37.3477089 C65.6099516,36.7008086 65.8644181,35.7520216 66.2461179,34.5876011 C66.6702288,33.2506739 67.2215729,31.5256065 67.9001503,29.4986523 L68.1122057,28.8948787 L67.3488061,27.4285714 L67.6032727,27.2991914 C68.0697946,27.0404313 68.5787277,26.8247978 69.1300718,26.7385445 C69.4693605,26.6522911 69.7662381,26.6091644 70.1055268,26.6091644 C70.3175822,26.6091644 70.4872266,26.6091644 70.699282,26.6522911 C71.165804,26.7385445 71.5050927,26.9110512 71.7171481,27.1698113 C71.9292035,27.4285714 72.0140257,27.8167116 71.9292035,28.2479784 C71.8867925,28.5067385 71.8019703,28.8948787 71.5899148,29.4555256 C71.4202705,29.9730458 71.2082151,30.5336927 70.9961596,31.0943396 C70.7416931,31.6981132 70.4872266,32.4312668 70.2327601,33.2075472 C70.0207046,33.7681941 69.8510603,34.328841 69.6814159,34.8894879 L69.5541827,35.3638814 L69.3421272,36.097035 L69.3421272,36.1832884 L69.3421272,36.1832884 C69.2573051,36.3989218 69.214894,36.6145553 69.214894,36.7439353 C69.1724829,37.1320755 69.214894,37.4339623 69.3421272,37.6495957 C69.4693605,37.8652291 69.6814159,37.9946092 70.0207046,38.0377358 L71.674737,38.296496 L79.7752546,39.2021563 L87.8333612,39.7628032 L96.2731675,40.1078167 L98.012022,40.1078167 C98.012022,39.8490566 98.012022,39.5902965 98.0544331,39.3315364 C98.0968442,39.0296496 98.1816664,38.6415094 98.2664886,38.2102426 C98.3513107,37.7789757 98.4361329,37.4339623 98.478544,37.1320755 C98.5209551,36.8733154 98.5209551,36.5714286 98.5209551,36.2695418 C98.478544,35.7088949 98.3937218,35.277628 98.1816664,34.9757412 L98.012022,34.7169811 L98.2664886,34.5444744 C98.6481883,34.2857143 99.0722992,34.1132075 99.453999,33.9407008 C99.8781099,33.7681941 100.25981,33.6819407 100.556687,33.6819407 C100.599098,33.6819407 100.641509,33.6819407 100.683921,33.6819407 C101.108031,33.6819407 101.404909,33.8113208 101.659376,34.0269542 C101.871431,34.2857143 101.998664,34.6307278 102.041075,35.1051213 C102.041075,35.4070081 102.041075,35.6657682 101.998664,35.967655 C101.956253,36.2264151 101.871431,36.5714286 101.786609,37.0026954 C101.701787,37.3908356 101.616964,37.7358491 101.574553,38.0377358 C101.532142,38.296496 101.532142,38.5552561 101.532142,38.8140162 C101.574553,39.8490566 102.083486,39.9784367 102.507597,39.9784367 C102.550008,39.9784367 102.550008,39.9784367 102.592419,39.9784367 L103.567874,39.93531 C103.567874,39.6334232 103.567874,39.3746631 103.610286,39.115903 C103.652697,38.7708895 103.695108,38.3827493 103.822341,37.8221024 C103.907163,37.3477089 103.991985,36.916442 104.034396,36.6145553 C104.076807,36.3126685 104.076807,36.0107817 104.076807,35.6657682 C104.034396,35.1051213 103.949574,34.6738544 103.77993,34.3719677 L103.610286,34.1132075 L103.864752,33.9407008 C104.712974,33.4231806 105.518784,33.1212938 106.197362,33.0781671 C106.239773,33.0781671 106.282184,33.0781671 106.324595,33.0781671 C106.748706,33.0781671 107.045584,33.2075472 107.30005,33.4231806 C107.554517,33.6819407 107.68175,34.0269542 107.68175,34.5013477 C107.68175,34.8032345 107.68175,35.0619946 107.639339,35.3638814 C107.596928,35.6657682 107.512106,36.0107817 107.427283,36.5283019 C107.257639,37.3908356 107.172817,38.0377358 107.172817,38.4690027 C107.215228,39.5040431 107.724161,39.6334232 108.148272,39.6334232 C108.190683,39.6334232 108.190683,39.6334232 108.233094,39.6334232 L109.208549,39.5902965 C109.208549,39.2884097 109.25096,38.9865229 109.293371,38.6846361 C109.335782,38.296496 109.420604,37.8221024 109.547838,37.2614555 C109.675071,36.7008086 109.717482,36.2264151 109.759893,35.8382749 C109.802304,35.4932615 109.802304,35.148248 109.802304,34.8032345 C109.802304,34.5444744 109.759893,34.2857143 109.675071,34.0269542 C109.63266,33.8113208 109.547838,33.638814 109.463016,33.509434 L109.293371,33.2506739 L109.547838,33.0781671 C110.438471,32.5606469 111.20187,32.2587601 111.838036,32.2156334 C111.880447,32.2156334 111.922859,32.2156334 111.96527,32.2156334 C112.813491,32.2156334 113.280013,32.690027 113.322424,33.5525606 C113.322424,33.8113208 113.322424,34.1563342 113.237602,34.5876011 C113.195191,35.0188679 113.110369,35.4932615 113.025547,35.967655 L112.813491,37.1752022 C112.77108,37.5633423 112.728669,37.9083558 112.728669,38.1239892 C112.728669,38.5121294 112.855902,38.8140162 113.025547,39.0296496 C113.195191,39.2021563 113.407247,39.2884097 113.704124,39.2884097 C113.746535,39.2884097 113.746535,39.2884097 113.788946,39.2884097 L114.976457,39.245283 L117.224244,38.8140162 C117.224244,38.1239892 117.224244,37.1752022 117.266656,35.9245283 C117.309067,34.5013477 117.4363,32.690027 117.563533,30.5768194 L117.605944,29.9299191 L116.503256,28.722372 L116.715311,28.5067385 C117.097011,28.1185984 117.563533,27.8167116 118.030055,27.5579515 C118.496577,27.2991914 119.00551,27.1266846 119.514443,27.083558 C119.641676,27.083558 119.726499,27.083558 119.811321,27.083558 C120.150609,27.083558 120.405076,27.1698113 120.617131,27.2991914 C120.914009,27.5148248 121.083653,27.8167116 121.126064,28.2911051 C121.126064,28.8086253 121.126064,29.2398922 121.083653,29.8005391 Z M127.445316,39.8921833 C127.233261,40.1940701 126.936383,40.4097035 126.597095,40.6253369 C126.257806,40.7978437 125.918517,40.9272237 125.579229,40.9703504 C125.451995,40.9703504 125.324762,41.0134771 125.197529,41.0134771 C124.731007,41.0134771 124.391718,40.884097 124.094841,40.5822102 C123.755552,40.2371968 123.501085,39.7628032 123.416263,39.0727763 C123.331441,38.4690027 123.28903,37.5202156 123.28903,36.1832884 C123.28903,34.8463612 123.331441,33.0350404 123.373852,30.7924528 C123.373852,30.5768194 123.373852,30.3180593 123.373852,30.0592992 L123.373852,29.4123989 L122.228753,28.2479784 L122.440808,28.032345 C122.822508,27.6442049 123.246619,27.2991914 123.713141,27.0404313 C124.179663,26.7816712 124.688596,26.5660377 125.155118,26.5229111 C125.282351,26.5229111 125.409584,26.4797844 125.536817,26.4797844 C125.833695,26.4797844 126.088162,26.5660377 126.257806,26.6954178 C126.554684,26.8679245 126.724328,27.212938 126.766739,27.6442049 C126.80915,27.902965 126.80915,28.2479784 126.80915,28.8086253 C126.80915,29.3261456 126.766739,29.7574124 126.766739,30.1024259 L126.724328,30.9218329 C126.639506,32.5606469 126.554684,33.8975741 126.554684,35.0188679 C126.554684,36.097035 126.597095,37.1320755 126.724328,38.0377358 C126.80915,38.5552561 126.893972,38.8571429 126.936383,38.9433962 C127.021206,39.115903 127.148439,39.2884097 127.318083,39.4177898 L127.530139,39.5902965 L127.445316,39.8921833 Z M148.438804,39.8490566 C148.141927,40.3234501 147.717816,40.6253369 147.124061,40.7978437 C146.912005,40.8409704 146.742361,40.884097 146.572717,40.884097 C146.31825,40.884097 146.106195,40.8409704 145.894139,40.754717 C145.512439,40.5822102 145.300384,40.2803235 145.173151,39.8490566 C145.003506,39.2884097 145.088329,38.7277628 145.385206,38.2533693 C145.682084,37.7789757 146.106195,37.4770889 146.69995,37.3045822 C146.912005,37.2614555 147.08165,37.2183288 147.251294,37.2183288 C147.505761,37.2183288 147.717816,37.2614555 147.929871,37.3908356 C148.311571,37.5633423 148.566038,37.8652291 148.65086,38.296496 C148.820504,38.8140162 148.735682,39.3746631 148.438804,39.8490566 Z M171.086325,28.032345 L158.532643,32.819407 L150.729003,35.3207547 L149.202204,35.7520216 C148.990149,35.7951482 148.778093,35.8382749 148.566038,35.8382749 C148.184338,35.8382749 147.845049,35.7088949 147.548172,35.4501348 L147.293705,36.2695418 L143.222241,37.3908356 L142.204375,37.606469 C141.992319,37.6495957 141.822675,37.6927224 141.653031,37.6927224 C141.313742,37.6927224 141.016864,37.606469 140.762398,37.4339623 C140.804809,39.5040431 140.507931,41.1859838 139.871765,42.393531 C139.150776,43.7304582 138.005677,44.5929919 136.394056,44.9811321 C135.927534,45.1105121 135.461012,45.1536388 135.079312,45.1536388 C134.655201,45.1536388 134.315913,45.0673854 134.019035,44.9380054 C133.42528,44.6792453 133.04358,44.2048518 132.916347,43.5579515 L132.831524,43.2560647 L133.128402,43.1698113 C134.23109,42.9110512 135.079312,42.5660377 135.673067,42.0916442 C136.266823,41.6172507 136.690933,41.0566038 136.902989,40.3234501 C137.115044,39.5902965 137.199866,38.7277628 137.115044,37.6927224 L136.733344,31.4824798 L135.673067,29.9730458 L135.842712,29.8005391 C136.266823,29.3692722 136.733344,28.9811321 137.157455,28.6792453 C137.623977,28.3773585 138.048088,28.1617251 138.429788,28.0754717 C138.599432,28.032345 138.726666,28.032345 138.853899,28.032345 C139.108365,28.032345 139.362832,28.1185984 139.574887,28.2479784 C139.829354,28.4636119 140.041409,28.7654987 140.126231,29.2398922 C140.253465,29.8436658 140.380698,31.309973 140.507931,33.8113208 C140.592753,34.1563342 140.762398,34.4150943 140.974453,34.5444744 C141.101686,34.6307278 141.271331,34.6738544 141.483386,34.6738544 C141.568208,34.6738544 141.695442,34.6738544 141.780264,34.6307278 L142.840541,34.4150943 L144.579396,33.9407008 C144.536984,33.638814 144.494573,33.3800539 144.452162,33.0781671 C144.409751,32.690027 144.409751,32.2156334 144.36734,31.5687332 C144.324929,31.0080863 144.324929,30.490566 144.282518,30.1455526 C144.240107,29.8005391 144.197696,29.4555256 144.112874,29.1536388 C143.943229,28.5929919 143.773585,28.2048518 143.519118,27.9892183 L143.307063,27.7735849 L143.519118,27.5579515 C143.858407,27.212938 144.197696,26.9541779 144.579396,26.6954178 C144.961095,26.4366577 145.300384,26.2641509 145.639673,26.1778976 C145.809317,26.1347709 145.978961,26.0916442 146.148606,26.0916442 C146.403072,26.0916442 146.615128,26.1347709 146.784772,26.2641509 C147.039239,26.4366577 147.251294,26.7816712 147.378527,27.212938 C147.463349,27.4716981 147.505761,27.8167116 147.548172,28.1617251 C147.590583,28.5067385 147.590583,28.9380054 147.590583,29.541779 C147.590583,30.1024259 147.632994,30.5768194 147.632994,30.9218329 C147.632994,31.2237197 147.717816,31.5256065 147.760227,31.7843666 C147.845049,32.1725067 148.014694,32.4312668 148.26916,32.6037736 C148.396393,32.690027 148.523627,32.7331536 148.693271,32.7331536 C148.820504,32.7331536 148.947738,32.7331536 149.074971,32.690027 L150.22007,32.3450135 L157.938888,29.8436658 L167.39656,26.2210243 C167.014861,25.5309973 166.505928,24.9703504 165.954583,24.5390836 C165.318417,24.1078167 164.682251,23.7628032 164.046084,23.5902965 C163.87644,23.7196765 163.664385,23.8059299 163.452329,23.93531 C163.155452,24.1078167 162.858574,24.2371968 162.561696,24.3234501 C161.840708,24.6253369 161.077308,24.7978437 160.313909,24.8409704 C160.229087,24.8409704 160.144264,24.8409704 160.059442,24.8409704 C159.380865,24.8409704 158.744699,24.7115903 158.235766,24.4528302 C157.599599,24.1509434 157.133077,23.6765499 156.878611,22.9865229 C156.793789,22.7708895 156.751378,22.5552561 156.708966,22.3396226 C156.708966,22.1239892 156.708966,21.9083558 156.708966,21.6495957 L156.751378,21.3908356 L157.005844,21.3477089 C158.40541,21.2183288 160.059442,20.916442 161.92553,20.5714286 C163.791618,20.1832884 165.233595,19.7951482 166.293872,19.3638814 C167.057272,19.0619946 167.608616,18.7169811 167.820671,18.328841 L167.990316,18.1132075 L168.244782,18.2425876 C168.584071,18.458221 168.838537,18.6307278 169.008182,18.8032345 C169.177826,18.9757412 169.34747,19.2345013 169.474704,19.5363881 C169.72917,20.1401617 169.686759,20.7008086 169.34747,21.1320755 C169.093004,21.4770889 168.711304,21.7789757 168.117549,22.0377358 C168.753715,22.3396226 169.34747,22.7708895 169.813992,23.2884097 C170.49257,23.9784367 170.959092,24.7115903 171.255969,25.4878706 L171.383203,25.9191375 L171.086325,28.032345 Z" id="Shape"></path>
                </g>
            </g>
        </g>
    </g>
</svg>