<?xml version="1.0" encoding="utf-8"?>
<svg width="181px" height="41px" viewbox="0 0 181 41" version="1.1" xmlns:xlink="http://www.w3.org/1999/xlink" xmlns="http://www.w3.org/2000/svg">
  <g id="Group-7" transform="translate(0.5 0.5)">
    <g id="Sultan-Bakery" fill="#252631" transform="translate(48 9)">
      <path d="M24.156 4.0835L24.156 17.5565L21.366 17.5565L21.366 4.0835L24.156 4.0835ZM81.522 4.0835L81.522 11.6345L81.936 11.6345Q82.197 11.6345 82.3365 11.5625Q82.476 11.4905 82.602 11.3015L84.366 8.6735Q84.519 8.4395 84.7305 8.3315Q84.942 8.2235 85.266 8.2235L87.822 8.2235L85.41 11.5445Q85.239 11.7785 85.0365 11.9585Q84.834 12.1385 84.6 12.2825Q85.005 12.5885 85.302 13.0925L87.93 17.5565L85.41 17.5565Q85.095 17.5565 84.8655 17.453Q84.636 17.3495 84.492 17.0885L82.728 13.7855Q82.602 13.5605 82.467 13.493Q82.332 13.4255 82.062 13.4255L81.522 13.4255L81.522 17.5565L78.732 17.5565L78.732 4.0835L81.522 4.0835ZM8.1045 7.4315Q8.253 7.3235 8.388 7.1075L9.144 5.6945Q8.793 5.3705 8.3475 5.114Q7.902 4.8575 7.389 4.673Q6.876 4.4885 6.3045 4.394Q5.733 4.2995 5.13 4.2995Q4.05 4.2995 3.213 4.628Q2.376 4.9565 1.8 5.5055Q1.224 6.0545 0.927 6.7565Q0.63 7.4585 0.63 8.1965Q0.63 9.1145 0.882 9.74Q1.134 10.3655 1.5435 10.784Q1.953 11.2025 2.475 11.459Q2.997 11.7155 3.546 11.891Q4.095 12.0665 4.617 12.2105Q5.139 12.3545 5.5485 12.5435Q5.958 12.7325 6.21 13.0205Q6.462 13.3085 6.462 13.7675Q6.462 14.5595 6.003 14.924Q5.544 15.2885 4.716 15.2885Q4.104 15.2885 3.654 15.1175Q3.204 14.9465 2.8575 14.7395Q2.511 14.5325 2.2365 14.3615Q1.962 14.1905 1.692 14.1905Q1.485 14.1905 1.305 14.2895Q1.125 14.3885 1.026 14.5505L0.126 15.9725Q0.513 16.3595 1.035 16.6745Q1.557 16.9895 2.151 17.219Q2.745 17.4485 3.3795 17.5745Q4.014 17.7005 4.626 17.7005Q5.742 17.7005 6.6195 17.363Q7.497 17.0255 8.0955 16.436Q8.694 15.8465 9.009 15.0545Q9.324 14.2625 9.324 13.3535Q9.324 12.5345 9.072 11.954Q8.82 11.3735 8.4105 10.9685Q8.001 10.5635 7.4745 10.3025Q6.948 10.0415 6.399 9.848Q5.85 9.6545 5.3235 9.497Q4.797 9.3395 4.3875 9.1505Q3.978 8.9615 3.726 8.7005Q3.474 8.4395 3.474 8.0435Q3.474 7.4225 3.8925 7.058Q4.311 6.6935 5.166 6.6935Q5.661 6.6935 6.048 6.824Q6.435 6.9545 6.7365 7.1165Q7.038 7.2785 7.2765 7.409Q7.515 7.5395 7.722 7.5395Q7.956 7.5395 8.1045 7.4315ZM57.222 17.5565L57.222 4.4435L62.046 4.4435Q63.405 4.4435 64.359 4.6955Q65.313 4.9475 65.916 5.4065Q66.519 5.8655 66.7935 6.5225Q67.068 7.1795 67.068 7.9895Q67.068 8.4305 66.942 8.84Q66.816 9.2495 66.546 9.6095Q66.276 9.9695 65.853 10.262Q65.43 10.5545 64.836 10.7705Q66.132 11.0855 66.753 11.792Q67.374 12.4985 67.374 13.6055Q67.374 14.4425 67.05 15.1625Q66.726 15.8825 66.1005 16.418Q65.475 16.9535 64.557 17.255Q63.639 17.5565 62.46 17.5565L57.222 17.5565ZM28.5075 17.507Q29.016 17.7005 29.682 17.7005Q30.402 17.7005 31.077 17.498Q31.752 17.2955 32.292 16.8905L31.446 15.5675Q31.365 15.4415 31.2885 15.383Q31.212 15.3245 31.086 15.3245Q30.996 15.3245 30.9285 15.356Q30.861 15.3875 30.7845 15.428Q30.708 15.4685 30.6045 15.5Q30.501 15.5315 30.348 15.5315Q30.051 15.5315 29.8935 15.32Q29.736 15.1085 29.736 14.7845L29.736 10.1495L32.004 10.1495L32.004 8.2415L29.736 8.2415L29.736 5.5145L28.278 5.5145Q27.774 5.5145 27.666 5.9465L27.117 8.2235L25.632 8.5115L25.632 9.6005Q25.632 9.8705 25.785 10.01Q25.938 10.1495 26.154 10.1495L26.946 10.1495L26.946 14.9735Q26.946 15.5945 27.126 16.0985Q27.306 16.6025 27.6525 16.958Q27.999 17.3135 28.5075 17.507ZM60.264 9.9605L61.848 9.9605Q62.352 9.9605 62.757 9.8885Q63.162 9.8165 63.4455 9.6365Q63.729 9.4565 63.8775 9.1415Q64.026 8.8265 64.026 8.3495Q64.026 7.8815 63.909 7.571Q63.792 7.2605 63.549 7.0715Q63.306 6.8825 62.9325 6.8015Q62.559 6.7205 62.046 6.7205L60.264 6.7205L60.264 9.9605ZM40.05 17.5565Q39.654 17.5565 39.4515 17.4485Q39.249 17.3405 39.114 16.9985L38.916 16.4855Q38.565 16.7825 38.241 17.0075Q37.917 17.2325 37.5705 17.39Q37.224 17.5475 36.8325 17.624Q36.441 17.7005 35.964 17.7005Q35.325 17.7005 34.803 17.5334Q34.281 17.3664 33.9165 17.0413Q33.552 16.7163 33.354 16.2332Q33.156 15.7502 33.156 15.1182Q33.156 14.6215 33.408 14.0978Q33.66 13.5741 34.281 13.1452Q34.902 12.7163 35.955 12.4274Q37.008 12.1385 38.61 12.1385L38.61 11.7388Q38.61 10.9123 38.2725 10.5444Q37.935 10.1765 37.314 10.1765Q36.819 10.1765 36.504 10.2845Q36.189 10.3925 35.9415 10.5275Q35.694 10.6625 35.46 10.7705Q35.226 10.8785 34.902 10.8785Q34.614 10.8785 34.4115 10.739Q34.209 10.5995 34.092 10.3925L33.588 9.5195Q34.434 8.7725 35.4645 8.408Q36.495 8.0435 37.674 8.0435Q38.52 8.0435 39.1995 8.318Q39.879 8.5925 40.3515 9.083Q40.824 9.5735 41.076 10.2485Q41.328 10.9235 41.328 11.7245L41.328 17.5565L40.05 17.5565ZM74.8755 17.4485Q75.078 17.5565 75.474 17.5565L76.752 17.5565L76.752 11.7245Q76.752 10.9235 76.5 10.2485Q76.248 9.5735 75.7755 9.083Q75.303 8.5925 74.6235 8.318Q73.944 8.0435 73.098 8.0435Q71.919 8.0435 70.8885 8.408Q69.858 8.7725 69.012 9.5195L69.516 10.3925Q69.633 10.5995 69.8355 10.739Q70.038 10.8785 70.326 10.8785Q70.65 10.8785 70.884 10.7705Q71.118 10.6625 71.3655 10.5275Q71.613 10.3925 71.928 10.2845Q72.243 10.1765 72.738 10.1765Q73.359 10.1765 73.6965 10.5444Q74.034 10.9123 74.034 11.7388L74.034 12.1385Q72.432 12.1385 71.379 12.4274Q70.326 12.7163 69.705 13.1452Q69.084 13.5741 68.832 14.0978Q68.58 14.6215 68.58 15.1182Q68.58 15.7502 68.778 16.2332Q68.976 16.7163 69.3405 17.0413Q69.705 17.3664 70.227 17.5334Q70.749 17.7005 71.388 17.7005Q71.865 17.7005 72.2565 17.624Q72.648 17.5475 72.9945 17.39Q73.341 17.2325 73.665 17.0075Q73.989 16.7825 74.34 16.4855L74.538 16.9985Q74.673 17.3405 74.8755 17.4485ZM98.892 17.5565L98.892 8.2235L100.548 8.2235Q100.755 8.2235 100.894 8.2595Q101.034 8.2955 101.128 8.372Q101.223 8.4485 101.272 8.5745Q101.322 8.7005 101.358 8.8805L101.511 9.7535Q102.024 8.9615 102.663 8.5025Q103.302 8.0435 104.058 8.0435Q104.697 8.0435 105.084 8.3495L104.724 10.4015Q104.688 10.5905 104.58 10.667Q104.472 10.7435 104.292 10.7435Q104.139 10.7435 103.932 10.703Q103.725 10.6625 103.41 10.6625Q102.312 10.6625 101.682 11.8325L101.682 17.5565L98.892 17.5565ZM43.308 8.2235L43.308 17.5565L46.098 17.5565L46.098 10.9055Q46.467 10.5725 46.872 10.3745Q47.277 10.1765 47.736 10.1765Q48.348 10.1765 48.663 10.559Q48.978 10.9415 48.978 11.6255L48.978 17.5565L51.768 17.5565L51.768 11.6255Q51.768 10.8605 51.561 10.208Q51.354 9.5555 50.949 9.083Q50.544 8.6105 49.9545 8.345Q49.365 8.0795 48.6 8.0795Q48.15 8.0795 47.7675 8.165Q47.385 8.2505 47.0565 8.399Q46.728 8.5475 46.44 8.7635Q46.152 8.9795 45.882 9.2315L45.72 8.6915Q45.648 8.4575 45.4725 8.3405Q45.297 8.2235 45.036 8.2235L43.308 8.2235ZM94.7925 8.3675Q94.023 8.0795 93.096 8.0795Q92.025 8.0795 91.1745 8.4485Q90.324 8.8175 89.7255 9.4475Q89.127 10.0775 88.8075 10.9145Q88.488 11.7515 88.488 12.6875Q88.488 13.9295 88.8615 14.8655Q89.235 15.8015 89.8785 16.4315Q90.522 17.0615 91.3815 17.381Q92.241 17.7005 93.222 17.7005Q93.699 17.7005 94.2255 17.633Q94.752 17.5655 95.2785 17.39Q95.805 17.2145 96.3045 16.904Q96.804 16.5935 97.236 16.0985L96.426 15.0995Q96.255 14.8565 95.922 14.8565Q95.67 14.8565 95.4405 14.9735Q95.211 15.0905 94.9365 15.2345Q94.662 15.3785 94.311 15.4955Q93.96 15.6125 93.474 15.6125Q92.565 15.6125 91.989 15.086Q91.413 14.5595 91.278 13.3895L96.66 13.3895Q96.849 13.3895 96.9705 13.3445Q97.092 13.2995 97.164 13.1825Q97.236 13.0655 97.263 12.8675Q97.29 12.6695 97.29 12.3545Q97.29 11.3465 96.9795 10.55Q96.669 9.7535 96.1155 9.2045Q95.562 8.6555 94.7925 8.3675ZM13.446 14.1455L13.446 8.2235L10.656 8.2235L10.656 14.1455Q10.656 14.9195 10.863 15.5675Q11.07 16.2155 11.475 16.6925Q11.88 17.1695 12.4695 17.435Q13.059 17.7005 13.824 17.7005Q14.274 17.7005 14.652 17.615Q15.03 17.5295 15.3585 17.381Q15.687 17.2325 15.975 17.021Q16.263 16.8095 16.533 16.5485L16.704 17.0885C16.812 17.4005 17.04 17.5565 17.388 17.5565L19.116 17.5565L19.116 8.2235L16.326 8.2235L16.326 14.8745Q15.948 15.2165 15.5475 15.4055Q15.147 15.5945 14.688 15.5945Q14.076 15.5945 13.761 15.2165Q13.446 14.8385 13.446 14.1455ZM109.836 20.387Q110.016 20.2565 110.142 19.9775L115.128 8.2235L112.878 8.2235Q112.635 8.2235 112.423 8.363Q112.212 8.5025 112.14 8.7095L110.754 12.7145Q110.655 13.0025 110.547 13.2815Q110.439 13.5605 110.349 13.8485Q110.214 13.2905 109.998 12.7325L108.468 8.7095Q108.396 8.5115 108.216 8.3675Q108.036 8.2235 107.712 8.2235L105.246 8.2235L108.972 16.7375L107.172 20.5175L109.26 20.5175Q109.656 20.5175 109.836 20.387ZM91.899 10.46Q92.349 10.0055 93.15 10.0055Q93.6 10.0055 93.915 10.1585Q94.23 10.3115 94.4235 10.559Q94.617 10.8065 94.7025 11.1215Q94.788 11.4365 94.788 11.7695L91.305 11.7695Q91.449 10.9145 91.899 10.46ZM60.264 11.9945L60.264 15.2615L62.406 15.2615Q63.009 15.2615 63.3915 15.1085Q63.774 14.9555 63.99 14.7125Q64.206 14.4695 64.287 14.1635Q64.368 13.8575 64.368 13.5425Q64.368 13.1825 64.2735 12.8945Q64.179 12.6065 63.9495 12.4085Q63.72 12.2105 63.342 12.1025Q62.964 11.9945 62.388 11.9945L60.264 11.9945ZM36.846 15.8555Q37.386 15.8555 37.791 15.6665Q38.196 15.4775 38.61 15.0545L38.61 13.7765Q37.773 13.7765 37.233 13.8854Q36.693 13.9943 36.378 14.1578Q36.063 14.3213 35.9415 14.53Q35.82 14.7388 35.82 14.9839Q35.82 15.4651 36.081 15.6603Q36.342 15.8555 36.846 15.8555ZM73.215 15.6665Q72.81 15.8555 72.27 15.8555Q71.766 15.8555 71.505 15.6603Q71.244 15.4651 71.244 14.9839Q71.244 14.7388 71.3655 14.53Q71.487 14.3213 71.802 14.1578Q72.117 13.9943 72.657 13.8854Q73.197 13.7765 74.034 13.7765L74.034 15.0545Q73.62 15.4775 73.215 15.6665Z" />
    </g>
    <path d="M20 40C31.0457 40 40 31.0457 40 20C40 8.9543 31.0457 0 20 0C8.9543 0 0 8.9543 0 20C0 31.0457 8.9543 40 20 40Z" id="Oval" fill="#252631" fill-rule="evenodd" stroke="none" />
    <path d="M13 26C20.1797 26 26 20.1797 26 13C26 5.8203 20.1797 0 13 0C5.8203 0 0 5.8203 0 13C0 20.1797 5.8203 26 13 26Z" transform="translate(7 7)" id="Oval" fill="#FFFFFF" fill-rule="evenodd" stroke="none" />
  </g>
</svg>