<?xml version="1.0" encoding="utf-8"?>
<svg width="431px" height="131px" viewbox="0 0 431 131" version="1.1" xmlns:xlink="http://www.w3.org/1999/xlink" xmlns="http://www.w3.org/2000/svg">
  <g id="Group-2" transform="translate(0.5 0.5)">
    <g id="Sultan-Bakery" transform="translate(183 54)">
      <g id="Sultan" fill="#252631">
        <path d="M24.156 4.0835L24.156 17.5565L21.366 17.5565L21.366 4.0835L24.156 4.0835ZM8.1045 7.4315Q8.253 7.3235 8.388 7.1075L9.144 5.6945Q8.793 5.3705 8.3475 5.114Q7.902 4.8575 7.389 4.673Q6.876 4.4885 6.3045 4.394Q5.733 4.2995 5.13 4.2995Q4.05 4.2995 3.213 4.628Q2.376 4.9565 1.8 5.5055Q1.224 6.0545 0.927 6.7565Q0.63 7.4585 0.63 8.1965Q0.63 9.1145 0.882 9.74Q1.134 10.3655 1.5435 10.784Q1.953 11.2025 2.475 11.459Q2.997 11.7155 3.546 11.891Q4.095 12.0665 4.617 12.2105Q5.139 12.3545 5.5485 12.5435Q5.958 12.7325 6.21 13.0205Q6.462 13.3085 6.462 13.7675Q6.462 14.5595 6.003 14.924Q5.544 15.2885 4.716 15.2885Q4.104 15.2885 3.654 15.1175Q3.204 14.9465 2.8575 14.7395Q2.511 14.5325 2.2365 14.3615Q1.962 14.1905 1.692 14.1905Q1.485 14.1905 1.305 14.2895Q1.125 14.3885 1.026 14.5505L0.126 15.9725Q0.513 16.3595 1.035 16.6745Q1.557 16.9895 2.151 17.219Q2.745 17.4485 3.3795 17.5745Q4.014 17.7005 4.626 17.7005Q5.742 17.7005 6.6195 17.363Q7.497 17.0255 8.0955 16.436Q8.694 15.8465 9.009 15.0545Q9.324 14.2625 9.324 13.3535Q9.324 12.5345 9.072 11.954Q8.82 11.3735 8.4105 10.9685Q8.001 10.5635 7.4745 10.3025Q6.948 10.0415 6.399 9.848Q5.85 9.6545 5.3235 9.497Q4.797 9.3395 4.3875 9.1505Q3.978 8.9615 3.726 8.7005Q3.474 8.4395 3.474 8.0435Q3.474 7.4225 3.8925 7.058Q4.311 6.6935 5.166 6.6935Q5.661 6.6935 6.048 6.824Q6.435 6.9545 6.7365 7.1165Q7.038 7.2785 7.2765 7.409Q7.515 7.5395 7.722 7.5395Q7.956 7.5395 8.1045 7.4315ZM28.5075 17.507Q29.016 17.7005 29.682 17.7005Q30.402 17.7005 31.077 17.498Q31.752 17.2955 32.292 16.8905L31.446 15.5675Q31.365 15.4415 31.2885 15.383Q31.212 15.3245 31.086 15.3245Q30.996 15.3245 30.9285 15.356Q30.861 15.3875 30.7845 15.428Q30.708 15.4685 30.6045 15.5Q30.501 15.5315 30.348 15.5315Q30.051 15.5315 29.8935 15.32Q29.736 15.1085 29.736 14.7845L29.736 10.1495L32.004 10.1495L32.004 8.2415L29.736 8.2415L29.736 5.5145L28.278 5.5145Q27.774 5.5145 27.666 5.9465L27.117 8.2235L25.632 8.5115L25.632 9.6005Q25.632 9.8705 25.785 10.01Q25.938 10.1495 26.154 10.1495L26.946 10.1495L26.946 14.9735Q26.946 15.5945 27.126 16.0985Q27.306 16.6025 27.6525 16.958Q27.999 17.3135 28.5075 17.507ZM40.05 17.5565Q39.654 17.5565 39.4515 17.4485Q39.249 17.3405 39.114 16.9985L38.916 16.4855Q38.565 16.7825 38.241 17.0075Q37.917 17.2325 37.5705 17.39Q37.224 17.5475 36.8325 17.624Q36.441 17.7005 35.964 17.7005Q35.325 17.7005 34.803 17.5334Q34.281 17.3664 33.9165 17.0413Q33.552 16.7163 33.354 16.2332Q33.156 15.7502 33.156 15.1182Q33.156 14.6215 33.408 14.0978Q33.66 13.5741 34.281 13.1452Q34.902 12.7163 35.955 12.4274Q37.008 12.1385 38.61 12.1385L38.61 11.7388Q38.61 10.9123 38.2725 10.5444Q37.935 10.1765 37.314 10.1765Q36.819 10.1765 36.504 10.2845Q36.189 10.3925 35.9415 10.5275Q35.694 10.6625 35.46 10.7705Q35.226 10.8785 34.902 10.8785Q34.614 10.8785 34.4115 10.739Q34.209 10.5995 34.092 10.3925L33.588 9.5195Q34.434 8.7725 35.4645 8.408Q36.495 8.0435 37.674 8.0435Q38.52 8.0435 39.1995 8.318Q39.879 8.5925 40.3515 9.083Q40.824 9.5735 41.076 10.2485Q41.328 10.9235 41.328 11.7245L41.328 17.5565L40.05 17.5565ZM43.308 8.2235L43.308 17.5565L46.098 17.5565L46.098 10.9055Q46.467 10.5725 46.872 10.3745Q47.277 10.1765 47.736 10.1765Q48.348 10.1765 48.663 10.559Q48.978 10.9415 48.978 11.6255L48.978 17.5565L51.768 17.5565L51.768 11.6255Q51.768 10.8605 51.561 10.208Q51.354 9.5555 50.949 9.083Q50.544 8.6105 49.9545 8.345Q49.365 8.0795 48.6 8.0795Q48.15 8.0795 47.7675 8.165Q47.385 8.2505 47.0565 8.399Q46.728 8.5475 46.44 8.7635Q46.152 8.9795 45.882 9.2315L45.72 8.6915Q45.648 8.4575 45.4725 8.3405Q45.297 8.2235 45.036 8.2235L43.308 8.2235ZM13.446 14.1455L13.446 8.2235L10.656 8.2235L10.656 14.1455Q10.656 14.9195 10.863 15.5675Q11.07 16.2155 11.475 16.6925Q11.88 17.1695 12.4695 17.435Q13.059 17.7005 13.824 17.7005Q14.274 17.7005 14.652 17.615Q15.03 17.5295 15.3585 17.381Q15.687 17.2325 15.975 17.021Q16.263 16.8095 16.533 16.5485L16.704 17.0885C16.812 17.4005 17.04 17.5565 17.388 17.5565L19.116 17.5565L19.116 8.2235L16.326 8.2235L16.326 14.8745Q15.948 15.2165 15.5475 15.4055Q15.147 15.5945 14.688 15.5945Q14.076 15.5945 13.761 15.2165Q13.446 14.8385 13.446 14.1455ZM36.846 15.8555Q37.386 15.8555 37.791 15.6665Q38.196 15.4775 38.61 15.0545L38.61 13.7765Q37.773 13.7765 37.233 13.8854Q36.693 13.9943 36.378 14.1578Q36.063 14.3213 35.9415 14.53Q35.82 14.7388 35.82 14.9839Q35.82 15.4651 36.081 15.6603Q36.342 15.8555 36.846 15.8555Z" />
      </g>
      <g id="Bakery" fill="#252631">
        <path d="M25.38 26.0835L25.38 33.6345L25.794 33.6345Q26.055 33.6345 26.1945 33.5625Q26.334 33.4905 26.46 33.3015L28.224 30.6735Q28.377 30.4395 28.5885 30.3315Q28.8 30.2235 29.124 30.2235L31.68 30.2235L29.268 33.5445Q29.097 33.7785 28.8945 33.9585Q28.692 34.1385 28.458 34.2825Q28.863 34.5885 29.16 35.0925L31.788 39.5565L29.268 39.5565Q28.953 39.5565 28.7235 39.453Q28.494 39.3495 28.35 39.0885L26.586 35.7855Q26.46 35.5605 26.325 35.493Q26.19 35.4255 25.92 35.4255L25.38 35.4255L25.38 39.5565L22.59 39.5565L22.59 26.0835L25.38 26.0835ZM1.08 26.4435L1.08 39.5565L6.318 39.5565Q7.497 39.5565 8.415 39.255Q9.333 38.9535 9.9585 38.418Q10.584 37.8825 10.908 37.1625Q11.232 36.4425 11.232 35.6055Q11.232 34.4985 10.611 33.792Q9.99 33.0855 8.694 32.7705Q9.288 32.5545 9.711 32.262Q10.134 31.9695 10.404 31.6095Q10.674 31.2495 10.8 30.84Q10.926 30.4305 10.926 29.9895Q10.926 29.1795 10.6515 28.5225Q10.377 27.8655 9.774 27.4065Q9.171 26.9475 8.217 26.6955Q7.263 26.4435 5.904 26.4435L1.08 26.4435ZM5.706 31.9605L4.122 31.9605L4.122 28.7205L5.904 28.7205Q6.417 28.7205 6.7905 28.8015Q7.164 28.8825 7.407 29.0715Q7.65 29.2605 7.767 29.571Q7.884 29.8815 7.884 30.3495Q7.884 30.8265 7.7355 31.1415Q7.587 31.4565 7.3035 31.6365Q7.02 31.8165 6.615 31.8885Q6.21 31.9605 5.706 31.9605ZM18.7335 39.4485C18.8685 39.5205 19.068 39.5565 19.332 39.5565L20.61 39.5565L20.61 33.7245Q20.61 32.9235 20.358 32.2485Q20.106 31.5735 19.6335 31.083Q19.161 30.5925 18.4815 30.318Q17.802 30.0435 16.956 30.0435Q15.777 30.0435 14.7465 30.408Q13.716 30.7725 12.87 31.5195L13.374 32.3925Q13.491 32.5995 13.6935 32.739Q13.896 32.8785 14.184 32.8785Q14.508 32.8785 14.742 32.7705Q14.976 32.6625 15.2235 32.5275Q15.471 32.3925 15.786 32.2845Q16.101 32.1765 16.596 32.1765Q17.217 32.1765 17.5545 32.5444Q17.892 32.9123 17.892 33.7388L17.892 34.1385Q16.29 34.1385 15.237 34.4274Q14.184 34.7163 13.563 35.1452Q12.942 35.5741 12.69 36.0978Q12.438 36.6215 12.438 37.1182Q12.438 37.7502 12.636 38.2332Q12.834 38.7163 13.1985 39.0413Q13.563 39.3664 14.085 39.5334Q14.607 39.7005 15.246 39.7005Q15.723 39.7005 16.1145 39.624Q16.506 39.5475 16.8525 39.39Q17.199 39.2325 17.523 39.0075Q17.847 38.7825 18.198 38.4855L18.396 38.9985Q18.531 39.3405 18.7335 39.4485ZM42.75 39.5565L42.75 30.2235L44.406 30.2235Q44.613 30.2235 44.7525 30.2595Q44.892 30.2955 44.9865 30.372Q45.081 30.4485 45.1305 30.5745Q45.18 30.7005 45.216 30.8805L45.369 31.7535Q45.882 30.9615 46.521 30.5025Q47.16 30.0435 47.916 30.0435Q48.555 30.0435 48.942 30.3495L48.582 32.4015Q48.546 32.5905 48.438 32.667Q48.33 32.7435 48.15 32.7435Q47.997 32.7435 47.79 32.703Q47.583 32.6625 47.268 32.6625Q46.17 32.6625 45.54 33.8325L45.54 39.5565L42.75 39.5565ZM38.6505 30.3675Q37.881 30.0795 36.954 30.0795Q35.883 30.0795 35.0325 30.4485Q34.182 30.8175 33.5835 31.4475Q32.985 32.0775 32.6655 32.9145Q32.346 33.7515 32.346 34.6875Q32.346 35.9295 32.7195 36.8655Q33.093 37.8015 33.7365 38.4315Q34.38 39.0615 35.2395 39.381Q36.099 39.7005 37.08 39.7005Q37.557 39.7005 38.0835 39.633Q38.61 39.5655 39.1365 39.39Q39.663 39.2145 40.1625 38.904Q40.662 38.5935 41.094 38.0985L40.284 37.0995Q40.113 36.8565 39.78 36.8565Q39.528 36.8565 39.2985 36.9735Q39.069 37.0905 38.7945 37.2345Q38.52 37.3785 38.169 37.4955Q37.818 37.6125 37.332 37.6125Q36.423 37.6125 35.847 37.086Q35.271 36.5595 35.136 35.3895L40.518 35.3895Q40.707 35.3895 40.8285 35.3445Q40.95 35.2995 41.022 35.1825Q41.094 35.0655 41.121 34.8675Q41.148 34.6695 41.148 34.3545Q41.148 33.3465 40.8375 32.55Q40.527 31.7535 39.9735 31.2045Q39.42 30.6555 38.6505 30.3675ZM53.694 42.387Q53.874 42.2565 54 41.9775L58.986 30.2235L56.736 30.2235Q56.493 30.2235 56.2815 30.363Q56.07 30.5025 55.998 30.7095L54.612 34.7145Q54.513 35.0025 54.405 35.2815Q54.297 35.5605 54.207 35.8485Q54.072 35.2905 53.856 34.7325L52.326 30.7095Q52.254 30.5115 52.074 30.3675Q51.894 30.2235 51.57 30.2235L49.104 30.2235L52.83 38.7375L51.03 42.5175L53.118 42.5175Q53.514 42.5175 53.694 42.387ZM35.757 32.46Q36.207 32.0055 37.008 32.0055Q37.458 32.0055 37.773 32.1585Q38.088 32.3115 38.2815 32.559Q38.475 32.8065 38.5605 33.1215Q38.646 33.4365 38.646 33.7695L35.163 33.7695Q35.307 32.9145 35.757 32.46ZM4.122 37.2615L4.122 33.9945L6.246 33.9945Q6.822 33.9945 7.2 34.1025Q7.578 34.2105 7.8075 34.4085Q8.037 34.6065 8.1315 34.8945Q8.226 35.1825 8.226 35.5425Q8.226 35.8575 8.145 36.1635Q8.064 36.4695 7.848 36.7125Q7.632 36.9555 7.2495 37.1085Q6.867 37.2615 6.264 37.2615L4.122 37.2615ZM17.073 37.6665Q16.668 37.8555 16.128 37.8555Q15.624 37.8555 15.363 37.6603Q15.102 37.4651 15.102 36.9839Q15.102 36.7388 15.2235 36.53Q15.345 36.3213 15.66 36.1578Q15.975 35.9943 16.515 35.8854Q17.055 35.7765 17.892 35.7765L17.892 37.0545Q17.478 37.4775 17.073 37.6665Z" />
      </g>
    </g>
    <path d="M20 40C31.0457 40 40 31.0457 40 20C40 8.9543 31.0457 0 20 0C8.9543 0 0 8.9543 0 20C0 31.0457 8.9543 40 20 40Z" transform="translate(133 45)" id="Oval" fill="#252631" fill-rule="evenodd" stroke="none" />
    <path d="M13 26C20.1797 26 26 20.1797 26 13C26 5.8203 20.1797 0 13 0C5.8203 0 0 5.8203 0 13C0 20.1797 5.8203 26 13 26Z" transform="translate(140 52)" id="Oval" fill="#FFFFFF" fill-rule="evenodd" stroke="none" />
  </g>
</svg>