<?xml version="1.0" encoding="utf-8"?>
<!-- Generator: Adobe Illustrator 17.1.0, SVG Export Plug-In . SVG Version: 6.00 Build 0)  -->
<!DOCTYPE svg PUBLIC "-//W3C//DTD SVG 1.1//EN" "http://www.w3.org/Graphics/SVG/1.1/DTD/svg11.dtd">
<svg version="1.1" id="Layer_1" xmlns="http://www.w3.org/2000/svg" xmlns:xlink="http://www.w3.org/1999/xlink" x="0px" y="0px"
	 viewBox="0 0 852 135" enable-background="new 0 0 852 135" xml:space="preserve">
<g>
	<g>
		<path d="M22.8,108.6C9.3,87.3,6.1,61,14.3,37.1l0,0C28.1,51.3,48.6,56.6,67.5,51c18.9-5.6,33.2-21.2,37.1-40.6h0
			c3.9,19.4,18.2,35,37.1,40.6c18.9,5.6,39.4,0.3,53.2-13.9l0,0c8.1,23.9,5,50.2-8.6,71.5l0,0C133.4,91.9,75.8,91.9,22.8,108.6"/>
		<path d="M180.5,116.8c-49.3-14.9-102.5-14.9-151.8,0C78,131.7,131.3,131.7,180.5,116.8"/>
	</g>
</g>
<g>
	<path d="M253,112.7c-3.4-1.8-5-4.2-5-7.2c0-1.3,0.3-2.6,0.9-4c0.6-1.4,1.5-2.5,2.6-3.5c2,2.8,4.3,5,6.9,6.6
		c2.6,1.6,5.7,2.4,9.3,2.4c2.9,0,5.2-0.5,7.1-1.4c1.8-0.9,2.7-2.3,2.7-4.1c0-1.3-0.7-2.4-2.2-3.3c-1.5-0.8-3.8-1.8-7.1-2.9
		c-3.6-1.2-6.5-2.4-8.8-3.6c-2.3-1.2-4.3-2.8-6-4.9c-1.7-2.1-2.6-4.8-2.6-8c0-3.8,1.2-7.1,3.6-9.7c2.4-2.6,5.7-4.6,9.8-5.9
		c4.1-1.3,8.7-1.9,13.7-1.9c3.7,0,7,0.4,9.8,1.2s5,1.9,6.4,3.3c1.5,1.4,2.2,3.1,2.2,4.9c0,2.4-0.9,4.4-2.6,5.8
		c-1.7,1.4-3.8,2.1-6.3,2.1c-2.4,0-4.5-0.7-6.4-2c-1.9-1.3-3.4-3.3-4.5-5.8c-2.9,0.3-5.4,1-7.3,2.1c-1.9,1.1-2.9,2.5-2.9,4.1
		c0,1.4,0.8,2.6,2.3,3.4c1.5,0.8,4,1.8,7.3,2.8c3.6,1.2,6.5,2.3,8.8,3.3c2.3,1.1,4.2,2.6,5.9,4.6c1.7,2,2.5,4.5,2.5,7.7
		c0,3.6-1.2,6.6-3.6,9c-2.4,2.5-5.5,4.3-9.3,5.5c-3.8,1.2-7.7,1.8-11.7,1.8C261.5,115.4,256.3,114.5,253,112.7z"/>
	<path d="M347,111.9c-2.7,2.4-5.6,3.5-8.6,3.5c-2.6,0-4.6-0.6-5.9-1.7c-1.4-1.2-2.2-2.9-2.5-5.3l-0.7-0.4c-2,2.4-4.3,4.2-6.9,5.5
		c-2.6,1.3-5.5,1.9-8.7,1.9c-3.8,0-6.7-1-8.6-2.9c-1.9-1.9-2.8-4.8-2.8-8.8c0-1.8,0.1-3.7,0.4-5.7c0.3-2,0.7-4.4,1.3-7.2
		c0.4-1.9,0.7-3.8,1-5.7c0.3-1.9,0.4-3.5,0.4-4.7c0-1.4-0.1-2.7-0.4-3.8c-0.3-1.2-0.6-2.1-1.1-2.7c2-1,4-1.8,6.2-2.5
		c2.1-0.7,3.9-1,5.1-1c2,0,3.4,0.4,4.3,1.2c0.9,0.8,1.3,2.1,1.3,3.9c0,1.2-0.2,3-0.7,5.5c-0.5,2.5-1,5.1-1.5,7.7
		c-0.5,2.5-1,4.9-1.5,7.3c-0.5,2.4-0.7,4.1-0.7,5.1c0,1.9,0.4,3.2,1.2,4.1c0.8,0.9,2,1.3,3.7,1.3c1.6,0,3.2-0.5,4.9-1.5
		c1.7-1,3.1-2.3,4.4-4c0.7-4.2,2-10.6,4-19.3l-4-6c3.3-2,6-3.4,8.2-4.2c2.1-0.8,4.1-1.2,6-1.2c1.9,0,3.3,0.4,4.1,1.2
		c0.8,0.8,1.3,2.2,1.3,4.1c0,0.6-0.2,1.8-0.5,3.4c-0.4,1.7-0.8,3.5-1.2,5.4c-1.1,4.6-2,8.5-2.6,11.9c-0.6,3.4-1,6.3-1,8.8
		C344.7,108.4,345.5,110.6,347,111.9z"/>
	<path d="M359.9,112.9c-1.3-1.7-1.9-4.3-1.9-7.8c0-1.9,0.4-5.3,1.2-10.1c0.8-4.8,1.8-11.1,3.2-18.7c0.2-1.6,0.5-3,0.7-4.2
		c0.2-1.2,0.4-2.3,0.6-3.2l-4-5.8c2.2-1.6,4.4-2.9,6.8-3.8c2.4-1,4.6-1.4,6.7-1.4c2.3,0,3.8,0.4,4.8,1.2c0.9,0.8,1.4,2.1,1.4,3.9
		c0,1.2-0.2,2.9-0.5,4.8c-0.4,2-0.9,4.7-1.7,8.1c-1.3,5.7-2.3,10.7-3.1,15.2c-0.7,4.4-1.1,8.8-1.1,13.1c0,2.2,0.2,3.8,0.5,4.8
		c0.4,1,0.9,2,1.7,3c-1.3,1.2-2.7,2-4.4,2.6c-1.6,0.6-3.1,0.9-4.6,0.9C363.2,115.4,361.1,114.6,359.9,112.9z"/>
	<path d="M414.8,74.6c0.7,0.5,1,1.6,1,3.1c0,1.3-0.4,3-1.2,4.9c-2-0.7-4.3-1-6.8-1h-1.2c-1.1,3.9-2,7.7-2.7,11.4
		c-0.7,3.7-1.1,7.4-1.2,11.1l4,6.8c-1.6,1.5-3.3,2.6-5.2,3.4s-3.7,1.2-5.5,1.2c-2.6,0-4.6-0.6-6.1-1.9c-1.5-1.3-2.2-3.7-2.2-7.2
		c0-2.3,0.3-4.9,0.9-7.7c0.6-2.9,1.4-6.5,2.4-10.9l1.2-4.6c-0.4,0-1,0.1-1.8,0.1c-1.9,0-3.2-0.3-3.9-0.8c-0.7-0.5-1-1.5-1-3
		c0-1.4,0.4-3.1,1.2-4.9c2,0.6,4.2,0.9,6.6,0.9c-0.1-2.1-0.7-4.3-1.7-6.7c1.8-1.6,3.9-2.9,6.1-3.8c2.2-1,4.5-1.4,6.8-1.4
		c2,0,3.4,0.4,4.2,1.3c0.8,0.9,1.3,2.3,1.3,4.2c0,1-0.3,2.6-0.9,5c0.4,0,1-0.1,1.8-0.1C412.8,73.8,414.1,74,414.8,74.6z"/>
	<path d="M462.2,111.9c-2.9,2.4-6,3.5-9.3,3.5c-2.4,0-4.3-0.7-5.7-2.1c-1.3-1.4-2-3.4-2-5.9c0-0.8,0.1-1.7,0.2-2.6l-0.7-0.4
		c-1.3,3.5-3.3,6.2-5.9,8.1c-2.6,1.9-5.4,2.9-8.5,2.9c-2.7,0-5.1-0.7-7.1-2.1c-2-1.4-3.6-3.4-4.7-5.9c-1.1-2.6-1.7-5.5-1.7-8.9
		c0-5.5,1.2-10.4,3.6-14.7s5.8-7.5,10.2-9.9c4.3-2.4,9.3-3.5,14.9-3.5c2,0,3.9,0.2,5.7,0.6c0.4,0.9,0.6,2.1,0.8,3.7
		c2-1.6,4.3-2.4,7.1-2.4c1.7,0,3,0.5,3.9,1.5c0.9,1,1.4,2.4,1.4,4.2c0,1-0.2,2.4-0.5,4.2c-0.3,1.8-0.7,3.7-1.2,5.8
		c-0.9,3.9-1.6,7.2-2.1,9.9c-0.5,2.7-0.7,5.2-0.7,7.6C460,108.4,460.7,110.6,462.2,111.9z M445.3,96.7c2.1-4.2,3.6-10.7,4.5-19.6
		c-3.5,0.3-6.6,1.4-9.4,3.1c-2.8,1.8-5.1,4-6.7,6.7c-1.7,2.7-2.5,5.6-2.5,8.7c0,2.4,0.5,4.2,1.5,5.4c1,1.3,2.4,1.9,4.1,1.9
		C440.4,103,443.2,100.9,445.3,96.7z"/>
	<path d="M473.7,113.2c-1.3-1.5-2-3.7-2-6.7c0-1.9,0.5-5.6,1.5-11.2c1-5.5,2-10.6,3.1-15.1l-3.7-5.8c4.8-2.7,9.2-4,13.3-4
		c2,0,3.4,0.5,4.4,1.4c1,1,1.5,2.3,1.5,4c0,1.2-0.2,2.5-0.5,3.8c-0.3,1.3-0.7,2.5-1.2,3.6l0.7,0.4c5.1-8.8,11.7-13.2,19.6-13.2
		c2.9,0,5.1,0.7,6.6,2.1c1.4,1.4,2.2,3.6,2.2,6.6c0,1.6-0.2,3.3-0.5,5.1c-0.3,1.8-0.8,4.2-1.5,7.1c-0.8,3.2-1.3,5.8-1.7,7.9
		c-0.4,2-0.5,4.1-0.5,6.1c0,3,0.5,5.2,1.5,6.6c-2.5,2.4-5.2,3.5-7.9,3.5c-2.9,0-5.1-0.7-6.4-2.2c-1.3-1.5-2-3.7-2-6.7
		c0-2,0.2-4,0.6-6c0.4-2.1,1.1-4.4,1.9-7.1c0.6-2.2,1.1-3.9,1.4-5.2c0.3-1.3,0.4-2.4,0.4-3.4c0-2-0.8-3-2.4-3c-1.8,0-4,1-6.4,3.1
		c-2.4,2.1-4.5,4.9-6.3,8.6c-1.8,3.6-2.6,7.6-2.6,11.9c0,3,0.5,5.2,1.5,6.6c-2.5,2.4-5.2,3.5-7.9,3.5
		C477.2,115.4,475.1,114.7,473.7,113.2z"/>
	<path d="M593,91.6c2.2,2.3,3.2,5.1,3.2,8.5c0,3.1-1,5.8-3.1,8.1c-2.1,2.3-5.1,4.1-8.9,5.3c-3.8,1.2-8.3,1.9-13.5,1.9
		c-7.8,0-13.5-0.9-17-2.8c-3.5-1.8-5.2-4.9-5.2-9c0-2.1,0.3-5.1,0.9-9.1c0.6-4,1.7-10.7,3.3-20.1l-3.8-7.7
		c5.4-3.5,10.4-5.3,14.8-5.3c3,0,4.8,1.4,5.3,4.3c4.9-2.8,9.8-4.2,14.5-4.2c3.8,0,6.9,1,9.1,2.9c2.2,1.9,3.3,4.6,3.3,8
		c0,3.4-1,6.3-3.1,8.8c-2,2.5-5,4.5-9,6C587.9,87.8,590.9,89.3,593,91.6z M578.1,105c1.7-1.5,2.5-3.4,2.5-5.9c0-2.3-0.8-4.1-2.3-5.4
		c-1.5-1.3-3.7-1.9-6.5-1.9c-2.3,0-4.5,0.4-6.8,1.2c-0.6,4.7-1.1,8.9-1.4,12.6c1.1,0.5,2.4,0.9,3.8,1.2s2.8,0.4,4.1,0.4
		C574.3,107.2,576.4,106.5,578.1,105z M566,86.3c4.4-0.3,7.9-1.3,10.5-3.1c2.6-1.8,3.9-4.1,3.9-6.9c0-3.6-2-5.4-6.1-5.4
		c-2.2,0-4.1,0.3-5.8,1C567.8,74.9,567,79.7,566,86.3z"/>
	<path d="M648.9,111.9c-2.9,2.4-6,3.5-9.3,3.5c-2.4,0-4.3-0.7-5.7-2.1c-1.3-1.4-2-3.4-2-5.9c0-0.8,0.1-1.7,0.2-2.6l-0.7-0.4
		c-1.3,3.5-3.3,6.2-5.9,8.1c-2.6,1.9-5.4,2.9-8.5,2.9c-2.7,0-5.1-0.7-7.1-2.1c-2-1.4-3.6-3.4-4.7-5.9c-1.1-2.6-1.7-5.5-1.7-8.9
		c0-5.5,1.2-10.4,3.6-14.7s5.8-7.5,10.2-9.9c4.3-2.4,9.3-3.5,14.9-3.5c2,0,3.9,0.2,5.7,0.6c0.4,0.9,0.6,2.1,0.8,3.7
		c2-1.6,4.3-2.4,7.1-2.4c1.7,0,3,0.5,3.9,1.5c0.9,1,1.4,2.4,1.4,4.2c0,1-0.2,2.4-0.5,4.2c-0.3,1.8-0.7,3.7-1.2,5.8
		c-0.9,3.9-1.6,7.2-2.1,9.9c-0.5,2.7-0.7,5.2-0.7,7.6C646.7,108.4,647.4,110.6,648.9,111.9z M632,96.7c2.1-4.2,3.6-10.7,4.5-19.6
		c-3.5,0.3-6.6,1.4-9.4,3.1c-2.8,1.8-5.1,4-6.7,6.7c-1.7,2.7-2.5,5.6-2.5,8.7c0,2.4,0.5,4.2,1.5,5.4c1,1.3,2.4,1.9,4.1,1.9
		C627,103,629.9,100.9,632,96.7z"/>
	<path d="M700.7,104.5c1.6,1.7,3.7,3.1,6.2,4.1c-2.8,4.5-6.5,6.8-11,6.8c-2.5,0-4.6-0.8-6.4-2.4c-1.8-1.6-3.7-4.2-5.7-7.9l-3.6-6.7
		l-5.8,3c0,0.6-0.1,1.5-0.1,2.7c0,2.2,0.2,3.8,0.5,4.8c0.4,1,0.9,2,1.7,3c-1.3,1.2-2.7,2-4.4,2.6c-1.6,0.6-3.1,0.9-4.6,0.9
		c-2.9,0-5-0.8-6.2-2.5c-1.3-1.7-1.9-4.3-1.9-7.8c0-1.9,0.4-5.3,1.2-10.1c0.8-4.8,1.8-11.1,3.2-18.7c0.2-1.6,0.5-3,0.7-4.2
		c0.2-1.2,0.4-2.3,0.6-3.2l-4-5.8c2.2-1.6,4.4-2.9,6.8-3.8c2.4-1,4.6-1.4,6.7-1.4c2.3,0,3.8,0.4,4.8,1.2c0.9,0.8,1.4,2.1,1.4,3.9
		c0,1.3-0.2,2.9-0.5,4.8c-0.4,1.9-0.9,4.6-1.7,8.1c-1.6,6.6-2.7,12.4-3.4,17.4l2-1.7c3.1-2.5,5.5-4.5,7.1-5.9c1.6-1.5,2.9-3,3.9-4.5
		c1-1.5,1.5-3.1,1.5-4.8c0-1.2-0.2-2.3-0.7-3.5c3.3-1.6,6.3-2.4,9-2.4c2.2,0,4,0.6,5.3,1.9c1.3,1.3,2,2.9,2,5c0,2.5-1,4.9-2.9,7.2
		c-1.9,2.3-5.1,4.6-9.3,7.1l3.7,6.8C697.8,100.8,699.1,102.8,700.7,104.5z"/>
	<path d="M748.9,89.4c-2.3,2.4-5.5,4.3-9.7,5.5c-4.2,1.3-9.2,1.9-14.9,1.9v0.6c0,3.3,0.6,5.8,1.7,7.7c1.1,1.8,2.7,2.8,4.7,2.8
		c2.4,0,4.5-0.9,6-2.7c1.6-1.8,2.4-4.2,2.5-7.1c2.9,0,5.1,0.5,6.6,1.6c1.5,1.1,2.3,2.6,2.3,4.6c0,2-0.8,3.9-2.5,5.5
		c-1.7,1.7-4,3-6.9,4c-2.9,1-6.1,1.5-9.6,1.5c-6,0-10.7-1.6-14-4.8c-3.4-3.2-5-7.6-5-13.2c0-5.1,1.2-9.8,3.7-13.9
		c2.4-4.1,5.8-7.3,10.2-9.6c4.3-2.3,9.2-3.5,14.5-3.5c4.4,0,7.8,0.9,10.3,2.7c2.4,1.8,3.6,4.4,3.6,7.7
		C752.3,84.1,751.2,87,748.9,89.4z M729.4,82.4c-2,2.4-3.5,5.4-4.4,9.1c4.8-0.4,8.4-1.4,11-3c2.6-1.6,3.9-3.6,3.9-6.2
		c0-1.1-0.4-1.9-1.1-2.6c-0.7-0.6-1.7-1-2.8-1C733.6,78.8,731.4,80,729.4,82.4z"/>
	<path d="M760.6,113.2c-1.3-1.5-2-3.7-2-6.7c0-1.7,0.5-5.3,1.4-10.7c0.9-5.4,2-10.6,3.1-15.6l-3.8-5.8c1.8-1.2,3.6-2.2,5.3-3
		c1.7-0.7,3.4-1.1,5.1-1.1c2,0,3.4,0.5,4.4,1.4c1,1,1.5,2.3,1.5,4c0,1.5-0.2,3-0.6,4.4c-0.4,1.4-1,3.2-1.7,5.2l0.7,0.4
		c1.2-3.5,2.4-6.3,3.6-8.5c1.2-2.1,2.5-3.8,4.1-5s3.5-1.8,5.8-1.8c2.2,0,4,0.6,5.3,1.9c1.3,1.3,1.9,3,1.9,5.1c0,2.5-0.8,4.6-2.4,6.3
		c-1.6,1.6-3.9,2.4-6.8,2.4c-2.3,0-4.3,0.8-6.2,2.5c-1.9,1.7-3.3,4-4.4,6.9c-1.1,2.9-1.6,6.1-1.6,9.7c0,3,0.5,5.2,1.5,6.6
		c-2.5,2.4-5.2,3.5-7.9,3.5C764.1,115.4,761.9,114.7,760.6,113.2z"/>
	<path d="M843.3,76.7c0,5.7-1.8,12.7-5.3,20.9c-3.6,8.2-8.5,15.3-14.8,21.3c-6.3,6-13.5,9-21.5,9c-4.1,0-7.2-0.7-9.3-2.2
		c-2.1-1.4-3.2-3.5-3.2-6.3c0-1.3,0.4-2.7,1.1-4c0.7-1.3,1.5-2.3,2.4-3c0.8,1.3,2,2.4,3.5,3.3c1.5,0.9,3.4,1.3,5.7,1.3
		c2.6,0,5.3-0.8,8.1-2.4c-2.8-0.7-4.8-2.2-6.2-4.4s-2.1-4.7-2.4-7.5c-0.3-2.8-0.5-6.4-0.5-10.8c0-3.5-0.1-6.2-0.3-8.3
		c-0.1-2.1-0.5-4-1-5.9s-1.5-3.4-2.7-4.5c2.5-2.1,5.4-3.1,8.6-3.1c2.8,0,4.9,0.8,6.3,2.4s2.4,3.6,2.8,6.1c0.5,2.5,0.7,5.6,0.7,9.2
		l-0.1,7.5c0,3.3,0.2,5.9,0.6,8c0.4,2.1,1.2,3.7,2.3,4.7c3.2-3.6,5.8-8.1,7.8-13.3c2-5.2,3-11,3-17.4c0-1.3-0.1-2.7-0.4-4.2
		c1-0.9,2.2-1.7,3.7-2.2s2.9-0.9,4.3-0.9C841,70.4,843.3,72.5,843.3,76.7z"/>
</g>
</svg>
