<?xml version="1.0" encoding="utf-8"?>
<!-- Generator: Adobe Illustrator 24.0.1, SVG Export Plug-In . SVG Version: 6.00 Build 0)  -->
<svg version="1.1" id="Layer_1" xmlns="http://www.w3.org/2000/svg" xmlns:xlink="http://www.w3.org/1999/xlink" x="0px" y="0px"
	 viewBox="0 0 50 50" style="enable-background:new 0 0 50 50;" xml:space="preserve">
<style type="text/css">
	.st0{fill:none;stroke:#000000;stroke-width:2;stroke-linecap:round;stroke-linejoin:round;stroke-miterlimit:10;}
	.st1{fill:none;stroke:#000000;stroke-width:1.929;stroke-linecap:round;stroke-linejoin:round;stroke-miterlimit:10;}
</style>
<path d="M32.4,36.5c-0.4,0.6-0.8,1.3-1.2,1.8c5.6,0.7,8.8,2.4,8.8,3.6c0,1.7-5.7,4-15,4c-9.6,0-16-2.4-16-4c0-1.2,3.7-2.9,9.7-3.6
	c-0.4-0.6-0.8-1.2-1.2-1.8C11.7,37.4,7,39.2,7,42c0,3.9,9.3,6,18,6c8.2,0,17-1.9,17-6C42,39.1,37.7,37.4,32.4,36.5z"/>
<path class="st0" d="M37.6,15.6C37.6,27.1,25,44,25,44S12.4,27.4,12.4,15.6C12.4,8.6,18,3,25,3S37.6,8.6,37.6,15.6z"/>
<path class="st1" d="M25,10.4c-2.9,0-5.3,2.3-5.3,5.3s2.3,5.3,5.3,5.3s5.3-2.3,5.3-5.3S27.9,10.4,25,10.4z"/>
</svg>
