<svg fill="#000000" xmlns="http://www.w3.org/2000/svg" viewBox="0 0 50 50" width="50px" height="50px"><path fill="none" stroke="#000000" stroke-linejoin="round" stroke-miterlimit="10" stroke-width="2" d="M47,3c-8.5,0-14,4-14,4	s-2.75-2-8-2s-8,2-8,2S11.5,3,3,3c0,9,0.955,11.708,2,15c-1.298,2.666-2,5.87-2,9c0,11,13.2,20,22,20s22-9,22-20	c0-3.13-0.702-6.334-2-9C46.045,14.708,47,11,47,3z"/><path fill="none" stroke="#000000" stroke-linejoin="round" stroke-miterlimit="10" stroke-width="2" d="M33.375,27	C31.35,27,30,25.906,30,25.906S30,20,35.625,20C37.65,20,39,21.094,39,21.094S39,27,33.375,27z"/><path fill="none" stroke="#000000" stroke-linejoin="round" stroke-miterlimit="10" stroke-width="2" d="M11,21.094	c0,0,1.35-1.094,3.375-1.094C20,20,20,25.906,20,25.906S18.65,27,16.625,27C11,27,11,21.094,11,21.094z"/><path fill="none" stroke="#000000" stroke-linejoin="round" stroke-miterlimit="10" stroke-width="2" d="M25,38c0,0-4-1-4-5h8	C29,37,25,38,25,38z"/><line x1="16" x2="16" y1="20.188" y2="27" fill="none" stroke="#000000" stroke-linejoin="round" stroke-miterlimit="10" stroke-width="2"/><line x1="34" x2="34" y1="20.177" y2="27" fill="none" stroke="#000000" stroke-linejoin="round" stroke-miterlimit="10" stroke-width="2"/><path fill="none" stroke="#000000" stroke-linejoin="round" stroke-miterlimit="10" stroke-width="2" d="M41.982,14	c0.405-1.712,0.735-3.794,0.9-6.625c-2.534,0.465-4.54,1.274-5.848,1.916C38.899,10.581,40.569,12.189,41.982,14z"/><path fill="none" stroke="#000000" stroke-linejoin="round" stroke-miterlimit="10" stroke-width="2" d="M12.967,9.29	c-1.308-0.642-3.324-1.454-5.873-1.919c0.15,3.1,0.473,5.005,0.89,6.629C9.404,12.169,11.087,10.591,12.967,9.29z"/><path fill="none" stroke="#000000" stroke-miterlimit="10" stroke-width="2" d="M17.92,45.45C23.5,43.99,25,41,25,41"/><path fill="none" stroke="#000000" stroke-miterlimit="10" stroke-width="2" d="M25,38v3c0,0,0.76,3.05,6.96,4.49"/></svg>