<?xml version="1.0" encoding="utf-8"?>
<!-- Generator: Adobe Illustrator 24.0.1, SVG Export Plug-In . SVG Version: 6.00 Build 0)  -->
<svg version="1.1" id="Layer_1" xmlns="http://www.w3.org/2000/svg" xmlns:xlink="http://www.w3.org/1999/xlink" x="0px" y="0px"
	 viewBox="0 0 50 50" style="enable-background:new 0 0 50 50;" xml:space="preserve">
<style type="text/css">
	.st0{fill:none;stroke:#000000;stroke-width:2;stroke-linecap:round;stroke-miterlimit:10;}
</style>
<path class="st0" d="M37,15c0,9.3-12,25-12,25S13,24.3,13,15c0-6.6,5.4-12,12-12S37,8.4,37,15z"/>
<path class="st0" d="M25,11c-2.2,0-4,1.8-4,4s1.8,4,4,4s4-1.8,4-4S27.2,11,25,11z"/>
<path d="M42.7,32h-7.7c-0.4,0.7-0.8,1.4-1.2,2h7.4l4.3,12H4.4l4.3-12h7.4c-0.4-0.6-0.8-1.3-1.2-2H7.3L1.6,48h46.8L42.7,32z"/>
</svg>
