<?xml version="1.0" encoding="utf-8"?>
<!-- Generator: Adobe Illustrator 24.0.1, SVG Export Plug-In . SVG Version: 6.00 Build 0)  -->
<svg version="1.1" id="Layer_1" xmlns="http://www.w3.org/2000/svg" xmlns:xlink="http://www.w3.org/1999/xlink" x="0px" y="0px"
	 viewBox="0 0 50 50" style="enable-background:new 0 0 50 50;" xml:space="preserve">
<style type="text/css">
	.st0{fill:none;stroke:#000000;stroke-width:1.937;stroke-linecap:round;stroke-miterlimit:10;}
</style>
<path d="M10.5,26.5c0,0.3,0,1.9,2.2,1.9c1.8,0,1.9-1.2,1.9-1.3c0-2.2-5.3-0.7-5.3-4c0-0.6,0.4-2.6,3.2-2.6c3.1,0,3.4,2.2,3.4,2.8
	h-1.5c0-0.6-0.3-1.5-1.9-1.5c-1.5,0-1.6,0.9-1.6,1.1c0,2.1,5.3,0.7,5.3,4c0,2.6-3.1,2.8-3.5,2.8c-3.4,0-3.7-2.4-3.7-3.1L10.5,26.5
	L10.5,26.5z"/>
<path d="M22.1,20.6h-1.6l-3.4,8.8h1.6l0.8-2.3H23l0.9,2.3h1.6L22.1,20.6z M19.9,25.9l1.4-3.8l1.3,3.8H19.9z"/>
<polygon points="26.9,20.6 28.4,20.6 28.4,28 32.9,28 32.9,29.3 26.9,29.3 "/>
<polygon points="34.6,20.6 40.9,20.6 40.9,21.9 36.1,21.9 36.1,24.2 40.5,24.2 40.5,25.5 36.1,25.5 36.1,28.1 41,28.1 41,29.4 
	34.6,29.4 "/>
<path class="st0" d="M46.7,28.2l-3.5,3.4l0.4,4.9c0.1,0.7-0.4,1.3-1,1.5l-4.7,1.3L36,43.8c-0.3,0.6-0.9,1-1.6,0.8l-4.8-1l-3.8,3.1
	C25.6,46.9,25.3,47,25,47s-0.6-0.1-0.9-0.3l-3.8-3.1l-4.8,1c-0.6,0.1-1.3-0.2-1.6-0.8l-1.9-4.5l-4.7-1.3c-0.6-0.2-1.1-0.8-1-1.5
	l0.4-4.9l-3.5-3.4c-0.5-0.5-0.6-1.2-0.2-1.8l2.6-4.1l-1.6-4.6c-0.2-0.6,0.1-1.3,0.6-1.7L9,13.6l0.8-4.8c0.1-0.7,0.7-1.1,1.3-1.2
	L16,7.5l2.9-3.9C19.3,3,20,2.9,20.6,3.1L25,5.2l4.4-2.1C30,2.8,30.7,3,31.1,3.6L34,7.5l4.9,0.2c0.7,0,1.2,0.5,1.3,1.2l0.8,4.8
	l4.2,2.4c0.6,0.3,0.8,1,0.6,1.7l-1.5,4.6l2.6,4.1C47.3,27,47.2,27.8,46.7,28.2z"/>
</svg>
