<?xml version="1.0" encoding="utf-8"?>
<!-- Generator: Adobe Illustrator 24.0.0, SVG Export Plug-In . SVG Version: 6.00 Build 0)  -->
<svg version="1.1" id="Layer_1" xmlns="http://www.w3.org/2000/svg" xmlns:xlink="http://www.w3.org/1999/xlink" x="0px" y="0px"
	 viewBox="0 0 50 50" style="enable-background:new 0 0 50 50;" xml:space="preserve">
<style type="text/css">
	.st0{fill:none;stroke:#000000;stroke-width:2;stroke-linecap:round;stroke-miterlimit:10;}
	.st1{fill:none;stroke:#000000;stroke-width:2;stroke-miterlimit:10;}
</style>
<path class="st0" d="M45,9c0,0-25.6,0-27,0c-1.5,0-2.5-4-4-4H5C3.9,5,3,5.9,3,7v36c0,1.1,0.9,2,2,2h40c1.1,0,2-0.9,2-2V11
	C47,9.9,46.1,9,45,9z"/>
<path class="st0" d="M47,26V16c0-1.1-0.9-2-2-2H5c-1.1,0-2,0.9-2,2v10"/>
<g>
	<polygon points="27,28 33,28 33,22 	"/>
	<polygon points="17,32 17,38 23,32 	"/>
</g>
<path class="st1" d="M18,30c0-3.9,3.1-7,7-7c2.4,0,4.5,1.2,5.7,3"/>
<path class="st1" d="M32,30c0,3.9-3.1,7-7,7c-2.4,0-4.5-1.2-5.7-3"/>
</svg>
