<?xml version="1.0" encoding="utf-8"?>
<!-- Generator: Adobe Illustrator 24.0.1, SVG Export Plug-In . SVG Version: 6.00 Build 0)  -->
<svg version="1.1" id="Layer_1" xmlns="http://www.w3.org/2000/svg" xmlns:xlink="http://www.w3.org/1999/xlink" x="0px" y="0px"
	 viewBox="0 0 50 50" style="enable-background:new 0 0 50 50;" xml:space="preserve">
<style type="text/css">
	.st0{fill:none;stroke:#000000;stroke-width:2;stroke-miterlimit:10;}
	.st1{fill:none;stroke:#000000;stroke-width:2;stroke-linecap:round;stroke-miterlimit:10;}
</style>
<path class="st0" d="M25,7C15.1,7,7,15.1,7,25s8.1,18,18,18s18-8.1,18-18S34.9,7,25,7z"/>
<circle class="st0" cx="25" cy="25" r="2"/>
<circle class="st0" cx="25" cy="14" r="2"/>
<circle class="st0" cx="25" cy="36" r="2"/>
<circle class="st0" cx="36" cy="25" r="2"/>
<circle class="st0" cx="14" cy="25" r="2"/>
<circle class="st0" cx="32.1" cy="17.9" r="2"/>
<path class="st0" d="M17.9,30.1c-1.1,0-2,0.9-2,2s0.9,2,2,2c0,0,0,0,0,0c1.1,0,2-0.9,2-2C19.9,31,19,30.1,17.9,30.1
	C17.9,30.1,17.9,30.1,17.9,30.1z"/>
<path class="st0" d="M32.1,30.1c-1.1,0-2,0.9-2,2c0,1.1,0.9,2,2,2c0,0,0,0,0,0c1.1,0,2-0.9,2-2S33.2,30.1,32.1,30.1
	C32.1,30.1,32.1,30.1,32.1,30.1z"/>
<circle class="st0" cx="17.9" cy="17.9" r="2"/>
<line class="st0" x1="25" y1="7" x2="25" y2="3"/>
<path class="st1" d="M23,3h4"/>
<path class="st0" d="M25,43v4"/>
<path class="st1" d="M27,47h-4"/>
<path class="st0" d="M43,25h4"/>
<path class="st1" d="M47,23v4"/>
<path class="st0" d="M7,25H3"/>
<path class="st1" d="M3,27v-4"/>
<path class="st0" d="M37.7,12.3l2.9-2.9"/>
<path class="st1" d="M39.1,8l2.9,2.9"/>
<path class="st0" d="M12.3,37.7l-2.9,2.9"/>
<path class="st1" d="M10.9,42L8,39.1"/>
<path class="st0" d="M37.7,37.7l2.9,2.9"/>
<path class="st1" d="M42,39.1L39.1,42"/>
<path class="st0" d="M12.3,12.3L9.4,9.4"/>
<path class="st1" d="M8,10.9L10.9,8"/>
<path class="st0" d="M18.1,8.4L17,5.6"/>
<path class="st1" d="M15.6,6.2L18.3,5"/>
<path class="st0" d="M31.9,41.6l1.1,2.8"/>
<path class="st1" d="M34.4,43.8L31.7,45"/>
<path class="st0" d="M41.6,18.1l2.8-1.1"/>
<path class="st1" d="M43.8,15.6l1.2,2.7"/>
<path class="st0" d="M8.4,31.9L5.6,33"/>
<path class="st1" d="M6.2,34.4L5,31.7"/>
<path class="st0" d="M31.9,8.4L33,5.6"/>
<path class="st1" d="M31.7,5l2.7,1.2"/>
<path class="st0" d="M18.1,41.6L17,44.4"/>
<path class="st1" d="M18.3,45l-2.7-1.2"/>
<path class="st0" d="M41.6,31.9l2.8,1.1"/>
<path class="st1" d="M45,31.7l-1.2,2.7"/>
<path class="st0" d="M8.4,18.1L5.6,17"/>
<path class="st1" d="M5,18.3l1.2-2.7"/>
</svg>
