<?xml version="1.0" encoding="utf-8"?>
<!-- Generator: Adobe Illustrator 24.0.3, SVG Export Plug-In . SVG Version: 6.00 Build 0)  -->
<svg version="1.1" id="Layer_1" xmlns="http://www.w3.org/2000/svg" xmlns:xlink="http://www.w3.org/1999/xlink" x="0px" y="0px"
	 viewBox="0 0 50 50" style="enable-background:new 0 0 50 50;" xml:space="preserve">
<style type="text/css">
	.st0{fill:none;stroke:#000000;stroke-width:2;stroke-linecap:round;stroke-miterlimit:10;}
</style>
<path class="st0" d="M35,17c0,0,0-2,0-3c0-5.5-4.5-10-10-10S15,8.5,15,14c0,1,0,3,0,3"/>
<path d="M25,28c-1.7,0-3,1.3-3,3s1.3,3,3,3s3-1.3,3-3S26.7,28,25,28z"/>
<path d="M26,31h-2v5c0,0.6,0.4,1,1,1l0,0c0.6,0,1-0.4,1-1V31z"/>
<path class="st0" d="M32.7,17c-3.2,0-6.1,1.7-7.7,4.2c-1.7-2.5-4.5-4.2-7.7-4.2C12.2,17,8,21.2,8,26.4C8,37.3,20.4,43.1,25,47
	c4.6-3.9,17-9.7,17-20.6C42,21.2,37.8,17,32.7,17z"/>
</svg>
