<?xml version="1.0" encoding="utf-8"?>
<!-- Generator: Adobe Illustrator 24.0.1, SVG Export Plug-In . SVG Version: 6.00 Build 0)  -->
<svg version="1.1" id="Layer_1" xmlns="http://www.w3.org/2000/svg" xmlns:xlink="http://www.w3.org/1999/xlink" x="0px" y="0px"
	 viewBox="0 0 50 50" style="enable-background:new 0 0 50 50;" xml:space="preserve">
<style type="text/css">
	.st0{fill:none;stroke:#000000;stroke-width:1.859;stroke-linejoin:round;stroke-miterlimit:10;}
	.st1{fill:none;stroke:#000000;stroke-width:2;stroke-linecap:round;stroke-miterlimit:10;}
</style>
<path class="st0" d="M47,23c0,10.5-9.8,19-22,19c-2.1,0-4.1-0.2-6-0.7c0,0-3.8,4.7-10,4.7c3-4.3,3-7.7,3-7.7c-5.5-3.5-9-9-9-15.3
	C3,12.5,12.8,4,25,4C37.2,4,47,12.5,47,23z"/>
<line class="st1" x1="14" y1="17" x2="36" y2="17"/>
<line class="st1" x1="14" y1="29" x2="36" y2="29"/>
<line class="st1" x1="10" y1="23" x2="27" y2="23"/>
<line class="st1" x1="33" y1="23" x2="40" y2="23"/>
</svg>
