<?xml version="1.0" encoding="utf-8"?>
<!-- Generator: Adobe Illustrator 24.0.1, SVG Export Plug-In . SVG Version: 6.00 Build 0)  -->
<svg version="1.1" id="Layer_1" xmlns="http://www.w3.org/2000/svg" xmlns:xlink="http://www.w3.org/1999/xlink" x="0px" y="0px"
	 viewBox="0 0 50 50" style="enable-background:new 0 0 50 50;" xml:space="preserve">
<style type="text/css">
	.st0{fill:none;stroke:#000000;stroke-width:2;stroke-linecap:round;stroke-linejoin:round;stroke-miterlimit:10;}
	.st1{fill:none;stroke:#000000;stroke-width:2;stroke-linejoin:round;stroke-miterlimit:10;}
</style>
<path d="M26.1,22c-0.9,0.6-1.7,1.2-2.5,2H14v-2H26.1z"/>
<rect x="14" y="16" width="19" height="2"/>
<rect x="14" y="10" width="19" height="2"/>
<path d="M21,28c-0.3,0.6-0.5,1.3-0.7,2H14v-2H21z"/>
<path d="M20.3,36H14v-2h6C20.1,34.7,20.2,35.3,20.3,36z"/>
<path d="M38,27v3H23.5c0.3-1.1,0.9-2.1,1.5-3H38z"/>
<path d="M38,35v3H24.3c-0.5-0.9-0.9-1.9-1.1-3H38z"/>
<path class="st0" d="M33,20c-7.2,0-13,5.8-13,13s5.8,13,13,13s13-5.8,13-13S40.2,20,33,20z"/>
<g>
	<path d="M24.7,43H7V2h32v19.5c0.7,0.4,1.4,0.8,2,1.3V1c0-0.6-0.4-1-1-1H6C5.4,0,5,0.4,5,1v43c0,0.6,0.4,1,1,1h22
		C26.8,44.5,25.7,43.8,24.7,43z"/>
</g>
<path class="st1" d="M42.2,42.2l7.1,7.1"/>
</svg>
