<?xml version="1.0" encoding="utf-8"?>
<!-- Generator: Adobe Illustrator 23.0.3, SVG Export Plug-In . SVG Version: 6.00 Build 0)  -->
<svg version="1.1" id="Layer_1" xmlns="http://www.w3.org/2000/svg" xmlns:xlink="http://www.w3.org/1999/xlink" x="0px" y="0px"
	 viewBox="0 0 50 50" style="enable-background:new 0 0 50 50;" xml:space="preserve">
<style type="text/css">
	.st0{fill:none;stroke:#000000;stroke-width:2;stroke-linecap:round;stroke-linejoin:round;}
</style>
<path d="M35,4c-3.9,0-7.5,1.7-10,4.6C22.5,5.7,18.9,4,15,4C7.8,4,2,9.8,2,16.8c0,7.2,4.2,12.8,9.1,17.1c0.1-0.8,0.3-1.5,0.5-2.2
	C7.4,27.8,4,23,4,16.8C4,10.9,8.9,6,15,6c3.7,0,7.1,1.8,9.2,4.9l0.8,1.2l0.8-1.2c2-3,5.5-4.9,9.2-4.9c6.1,0,11,4.9,11,10.8
	c0,6.2-3.4,11-7.6,14.9c0.2,0.8,0.4,1.5,0.5,2.3c4.9-4.3,9.1-9.9,9.1-17.2C48,9.8,42.2,4,35,4z"/>
<path class="st0" d="M23.1,18C22.3,26.2,14,28.2,14,35.3c0,5.4,5.5,9.6,8.8,9.6c-0.5-0.6-1.8-1.6-1.9-4c0-1.2,0.1-2.9,1.2-5
	c1,5.9,7.9,2.7,3.9-7c2.7,2.3,3.9,4.9,3.9,8c0,2.4-0.5,5.1-2.1,8c3.6-1.3,8-4.8,8.1-9.4C36,30.7,32,24.2,23.1,18z"/>
<text transform="matrix(1 0 0 1 960 540)" style="font-family:'MyriadPro-Regular'; font-size:12px;">Panda</text>
</svg>
