<?xml version="1.0" encoding="utf-8"?>
<!-- Generator: Adobe Illustrator 24.0.1, SVG Export Plug-In . SVG Version: 6.00 Build 0)  -->
<svg version="1.1" id="Layer_1" xmlns="http://www.w3.org/2000/svg" xmlns:xlink="http://www.w3.org/1999/xlink" x="0px" y="0px"
	 viewBox="0 0 50 50" style="enable-background:new 0 0 50 50;" xml:space="preserve">
<style type="text/css">
	.st0{fill:none;stroke:#000000;stroke-width:2;stroke-linecap:round;stroke-linejoin:round;stroke-miterlimit:10;}
</style>
<g id="POS_Terminal">
	<g>
		<path class="st0" d="M40,14v19.2"/>
		<path d="M18.2,23h-3.5c-0.4,0-0.8-0.3-0.8-0.7v-1.6c0-0.4,0.3-0.7,0.8-0.7h3.5c0.4,0,0.8,0.3,0.8,0.7v1.6C19,22.7,18.7,23,18.2,23
			z M18.2,28h-3.5c-0.4,0-0.8-0.3-0.8-0.7v-1.6c0-0.4,0.3-0.7,0.8-0.7h3.5c0.4,0,0.8,0.3,0.8,0.7v1.6C19,27.7,18.7,28,18.2,28z
			 M18.2,33h-3.5c-0.4,0-0.8-0.3-0.8-0.7v-1.6c0-0.4,0.3-0.7,0.8-0.7h3.5c0.4,0,0.8,0.3,0.8,0.7v1.6C19,32.7,18.7,33,18.2,33z"/>
		<path d="M32.2,23h-3.5c-0.4,0-0.8-0.3-0.8-0.7v-1.6c0-0.4,0.3-0.7,0.8-0.7h3.5c0.4,0,0.8,0.3,0.8,0.7v1.6C33,22.7,32.7,23,32.2,23
			z M32.2,28h-3.5c-0.4,0-0.8-0.3-0.8-0.7v-1.6c0-0.4,0.3-0.7,0.8-0.7h3.5c0.4,0,0.8,0.3,0.8,0.7v1.6C33,27.7,32.7,28,32.2,28z
			 M32.2,33h-3.5c-0.4,0-0.8-0.3-0.8-0.7v-1.6c0-0.4,0.3-0.7,0.8-0.7h3.5c0.4,0,0.8,0.3,0.8,0.7v1.6C33,32.7,32.7,33,32.2,33z"/>
		<path d="M25.2,23h-3.5c-0.4,0-0.8-0.3-0.8-0.7v-1.6c0-0.4,0.3-0.7,0.8-0.7h3.5c0.4,0,0.8,0.3,0.8,0.7v1.6C26,22.7,25.7,23,25.2,23
			z M25.2,28h-3.5c-0.4,0-0.8-0.3-0.8-0.7v-1.6c0-0.4,0.3-0.7,0.8-0.7h3.5c0.4,0,0.8,0.3,0.8,0.7v1.6C26,27.7,25.7,28,25.2,28z
			 M25.2,33h-3.5c-0.4,0-0.8-0.3-0.8-0.7v-1.6c0-0.4,0.3-0.7,0.8-0.7h3.5c0.4,0,0.8,0.3,0.8,0.7v1.6C26,32.7,25.7,33,25.2,33z"/>
		<path class="st0" d="M34.2,36H13c-1,0-1.8-0.8-1.8-1.8V6.8C11.2,5.8,12,5,13,5h21.3c1,0,1.8,0.8,1.8,1.8v27.5
			C36,35.2,35.2,36,34.2,36z"/>
		<path class="st0" d="M30.9,17H16.1c-0.6,0-1.1-0.5-1.1-1.2v-5.7C15,9.5,15.5,9,16.1,9h14.8c0.6,0,1.1,0.5,1.1,1.2v5.7
			C32,16.5,31.5,17,30.9,17z"/>
	</g>
</g>
<g id="Bank_Card">
</g>
<g id="Mask">
</g>
</svg>
