<?xml version="1.0" encoding="utf-8"?>
<!-- Generator: Adobe Illustrator 23.0.3, SVG Export Plug-In . SVG Version: 6.00 Build 0)  -->
<svg version="1.1" id="Layer_1" xmlns="http://www.w3.org/2000/svg" xmlns:xlink="http://www.w3.org/1999/xlink" x="0px" y="0px"
	 viewBox="0 0 50 50" style="enable-background:new 0 0 50 50;" xml:space="preserve">
<path d="M24.5,10c-0.8,0-1.5,0.7-1.5,1.5s0.7,1.5,1.5,1.5s1.5-0.7,1.5-1.5S25.3,10,24.5,10z M24.5,23c-1.4,0-2.5,1.1-2.5,2.5
	s1.1,2.5,2.5,2.5s2.5-1.1,2.5-2.5S25.9,23,24.5,23z"/>
<path style="fill:none;stroke:#000000;stroke-width:2;stroke-miterlimit:10;" d="M24.5,7C22,7,20,9,20,11.5s2,4.5,4.5,4.5
	s4.5-2,4.5-4.5S27,7,24.5,7z"/>
<path d="M11.5,33c-0.8,0-1.5,0.7-1.5,1.5s0.7,1.5,1.5,1.5s1.5-0.7,1.5-1.5S12.4,33,11.5,33z"/>
<path style="fill:none;stroke:#000000;stroke-width:2;stroke-miterlimit:10;" d="M11.5,30C9,30,7,32,7,34.5C7,37,9,39,11.5,39
	c0,0,0,0,0,0c2.5,0,4.5-2,4.5-4.5C16,32,14,30,11.5,30C11.5,30,11.5,30,11.5,30z"/>
<path style="fill:none;stroke:#000000;stroke-width:2;stroke-miterlimit:10;" d="M38.5,26c-1.2,0-3.6-0.4-3.6-0.4
	c-4.3-0.7-6.2-5.8-3.5-9.2c1-1.4,1.6-3.1,1.6-4.9C33,6.8,29.2,3,24.5,3S16,6.8,16,11.5c0,1.8,0.6,3.5,1.5,4.8c0,0,0,0,0,0
	c0.2,0.3,0.4,0.5,0.6,0.8c2.2,3.2,0.3,7.8-3.7,8.5c0,0-2.2,0.4-2.9,0.4C6.8,26,3,29.8,3,34.5S6.8,43,11.5,43c3,0,5.7-1.6,7.2-4
	c0,0,0.8-1.6,1-2.5l0-0.1c1.9-4.6,8.5-4.6,10.4,0l0,0.1c0.2,0.9,1,2.5,1,2.5c1.5,2.4,4.2,4,7.2,4c4.7,0,8.5-3.8,8.5-8.5
	S43.2,26,38.5,26z"/>
<path d="M38.5,33c-0.8,0-1.5,0.7-1.5,1.5s0.7,1.5,1.5,1.5s1.5-0.7,1.5-1.5S39.3,33,38.5,33z"/>
<path style="fill:none;stroke:#000000;stroke-width:2;stroke-miterlimit:10;" d="M38.5,30C36,30,34,32,34,34.5s2,4.5,4.5,4.5
	s4.5-2,4.5-4.5S41,30,38.5,30z"/>
</svg>
