<?xml version="1.0" encoding="utf-8"?>
<!-- Generator: Adobe Illustrator 24.0.1, SVG Export Plug-In . SVG Version: 6.00 Build 0)  -->
<svg version="1.1" id="Layer_1" xmlns="http://www.w3.org/2000/svg" xmlns:xlink="http://www.w3.org/1999/xlink" x="0px" y="0px"
	 viewBox="0 0 50 50" style="enable-background:new 0 0 50 50;" xml:space="preserve">
<style type="text/css">
	.st0{fill:none;stroke:#000000;stroke-width:2;stroke-linecap:round;stroke-linejoin:round;stroke-miterlimit:10;}
</style>
<line class="st0" x1="47" y1="47" x2="3" y2="47"/>
<path class="st0" d="M2,23c0,0,2.4-3,3-3s3.2,1,4,1s2.4-3,3-3s5.4,2,6,2s3.6-2,4-2s2.2,1,3,1s5.1-6,6-6c1.2,0,4.3,4,6,4
	c0.8,0,2.2-3,3-3s2.4,2,3,2s3-9,3-9"/>
<circle cx="35" cy="4" r="1"/>
<circle cx="35" cy="7" r="1"/>
<circle cx="35" cy="10" r="1"/>
<circle cx="35" cy="13" r="1"/>
<circle cx="35" cy="16" r="1"/>
<circle cx="35" cy="19" r="1"/>
<circle cx="35" cy="22" r="1"/>
<circle cx="35" cy="25" r="1"/>
<circle cx="35" cy="28" r="1"/>
<circle cx="35" cy="31" r="1"/>
<circle cx="35" cy="34" r="1"/>
<circle cx="35" cy="37" r="1"/>
<circle cx="35" cy="40" r="1"/>
<circle cx="35" cy="43" r="1"/>
<circle cx="35" cy="46" r="1"/>
<circle cx="15" cy="4" r="1"/>
<circle cx="15" cy="7" r="1"/>
<circle cx="15" cy="10" r="1"/>
<circle cx="15" cy="13" r="1"/>
<circle cx="15" cy="16" r="1"/>
<circle cx="15" cy="19" r="1"/>
<circle cx="15" cy="22" r="1"/>
<circle cx="15" cy="25" r="1"/>
<circle cx="15" cy="28" r="1"/>
<circle cx="15" cy="31" r="1"/>
<circle cx="15" cy="34" r="1"/>
<circle cx="15" cy="37" r="1"/>
<circle cx="15" cy="40" r="1"/>
<circle cx="15" cy="43" r="1"/>
<circle cx="15" cy="46" r="1"/>
</svg>
