<?xml version="1.0" encoding="iso-8859-1"?>
<!-- Generator: Adobe Illustrator 22.1.0, SVG Export Plug-In . SVG Version: 6.00 Build 0)  -->
<svg version="1.1" xmlns="http://www.w3.org/2000/svg" xmlns:xlink="http://www.w3.org/1999/xlink" x="0px" y="0px"
	 viewBox="0 0 50 50" style="enable-background:new 0 0 50 50;" xml:space="preserve">
<g id="lines">
	
		<line style="fill:none;stroke:#000000;stroke-width:2;stroke-linecap:round;stroke-linejoin:round;stroke-miterlimit:10;" x1="39" y1="12" x2="21" y2="12"/>
	
		<line style="fill:none;stroke:#000000;stroke-width:2;stroke-linecap:round;stroke-linejoin:round;stroke-miterlimit:10;" x1="38" y1="43" x2="21" y2="43"/>
	
		<line style="fill:none;stroke:#000000;stroke-width:2;stroke-linecap:round;stroke-linejoin:round;stroke-miterlimit:10;" x1="17" y1="12" x2="11" y2="12"/>
	
		<line style="fill:none;stroke:#000000;stroke-width:2;stroke-linecap:round;stroke-linejoin:round;stroke-miterlimit:10;" x1="17" y1="43" x2="12" y2="43"/>
</g>
<g id="can">
	<path style="fill:none;stroke:#000000;stroke-width:2;stroke-linecap:round;stroke-linejoin:round;stroke-miterlimit:10;" d="
		M14.866,6.645C14.17,8.399,11,10.217,11,12c0,2.003,0,30,0,30c0,1.416,0.984,2.595,2.303,2.911l0.241,0.722
		C13.816,46.449,14.581,47,15.442,47h19.117c0.861,0,1.625-0.551,1.897-1.368l0.241-0.722C38.016,44.595,39,43.416,39,42V12
		c0-1.778-3.169-3.605-3.866-5.355"/>
	<path style="fill:none;stroke:#000000;stroke-width:2;stroke-linecap:round;stroke-linejoin:round;stroke-miterlimit:10;" d="M34,7
		H16c-1.105,0-2-0.895-2-2l0,0c0-1.105,0.895-2,2-2h18c1.105,0,2,0.895,2,2l0,0C36,6.105,35.105,7,34,7z"/>
</g>
<g id="label">
	<polygon points="31,26 26,26 28,16 19,29 24,29 22,39 	"/>
</g>
</svg>
