<?xml version="1.0" encoding="utf-8"?>
<!-- Generator: Adobe Illustrator 24.0.1, SVG Export Plug-In . SVG Version: 6.00 Build 0)  -->
<svg version="1.1" id="Layer_1" xmlns="http://www.w3.org/2000/svg" xmlns:xlink="http://www.w3.org/1999/xlink" x="0px" y="0px"
	 viewBox="0 0 50 50" style="enable-background:new 0 0 50 50;" xml:space="preserve">
<style type="text/css">
	.st0{fill:none;stroke:#000000;stroke-width:2;stroke-linecap:round;stroke-linejoin:round;stroke-miterlimit:10;}
</style>
<path class="st0" d="M47,47H3V3"/>
<path class="st0" d="M8,47c0,0,5.8-39,18-39s18,39,18,39"/>
<circle cx="4" cy="8" r="1"/>
<circle cx="7" cy="8" r="1"/>
<circle cx="10" cy="8" r="1"/>
<circle cx="13" cy="8" r="1"/>
<circle cx="16" cy="8" r="1"/>
<circle cx="19" cy="8" r="1"/>
<circle cx="22" cy="8" r="1"/>
<circle cx="25" cy="8" r="1"/>
<circle cx="28" cy="8" r="1"/>
<circle cx="31" cy="8" r="1"/>
<circle cx="34" cy="8" r="1"/>
<circle cx="37" cy="8" r="1"/>
<circle cx="40" cy="8" r="1"/>
<circle cx="43" cy="8" r="1"/>
<circle cx="46" cy="8" r="1"/>
</svg>
