<?xml version="1.0" encoding="utf-8"?>
<!-- Generator: Adobe Illustrator 24.0.1, SVG Export Plug-In . SVG Version: 6.00 Build 0)  -->
<svg version="1.1" id="Layer_1" xmlns="http://www.w3.org/2000/svg" xmlns:xlink="http://www.w3.org/1999/xlink" x="0px" y="0px"
	 viewBox="0 0 50 50" style="enable-background:new 0 0 50 50;" xml:space="preserve">
<path d="M41,32v6c0,1.7-1.3,3-3,3h-5v2h5c2.8,0,5-2.2,5-5v-6H41z"/>
<path d="M19,3v10h12V3H19z M29,11h-8V5h8V11z"/>
<path d="M20,41h-8c-1.7,0-3-1.3-3-3v-6H7v6c0,2.8,2.2,5,5,5h8V41z"/>
<path d="M19,37v10h12V37H19z M29,45h-8v-6h8V45z"/>
<path d="M41,12v9h2v-9c0-2.8-2.2-5-5-5h-5v2h5C39.7,9,41,10.3,41,12z"/>
<path d="M36,20v10h12V20H36z M46,28h-8v-6h8V28z"/>
<path d="M12,7c-2.8,0-5,2.2-5,5v9h2v-9c0-1.7,1.3-3,3-3h8V7H12z"/>
<path d="M2,20v10h12V20H2z M12,28H4v-6h8V28z"/>
</svg>
