<svg fill="#000000" xmlns="http://www.w3.org/2000/svg" viewBox="0 0 50 50" width="50px" height="50px"><path fill="none" stroke="#000000" stroke-miterlimit="10" stroke-width="2" d="M36.511 26.612C39.729 24.869 42 17.725 42 15M15.362 21c-2.968.527-5.415 3.384-5.415 6.523 0 3.998 2.973 7.176 6.663 7.176 1.948 0 3.588-1.64 3.588-3.588s-1.64-3.588-3.588-3.588c-2.05-.41-1.856-3.393-.59-4.486"/><path fill="none" stroke="#000000" stroke-miterlimit="10" stroke-width="2" d="M22.913 25.942c-1.772-.102-3.321-.339-4.063-.71-2.563-1.23-3.075-3.075-3.075-5.125l0 0M34.226 20.106L34.226 20.106c0 2.05-.513 3.895-3.075 5.125-.735.368-2.262.603-4.012.707"/><path fill="none" stroke="#000000" stroke-linecap="round" stroke-miterlimit="10" stroke-width="2" d="M32 13c-.467-.6-1.2-1-2-1s-1.533.4-2 1M22 13c-.467-.6-1.2-1-2-1s-1.533.4-2 1"/><path fill="none" stroke="#000000" stroke-miterlimit="10" stroke-width="2" d="M25 24A2 2 0 1 0 25 28 2 2 0 1 0 25 24zM34.759 9.747C34.928 8.989 35 8.038 35 7c0-2.582-.688-3.99-1.828-3.99-1.572 0-3.282 1.026-4.378 2.076M15.241 9.747C15.072 8.989 15 8.038 15 7c0-2.582.688-3.99 1.828-3.99 1.572 0 3.282 1.026 4.378 2.076"/><path fill="none" stroke="#000000" stroke-linecap="round" stroke-miterlimit="10" stroke-width="2" d="M30 17c0 0-.762 1-2.5 1S25 17 25 17M25 17c0 0-.762 1-2.5 1S20 17 20 17"/><path d="M26 17L24 17 23 15 27 15z"/><path fill="none" stroke="#000000" stroke-miterlimit="10" stroke-width="2" d="M35.167,10.782c-0.004-0.012-0.007-0.024-0.012-0.036l-0.287-0.764C33.745,6.985,30.88,5,27.679,5h-5.358c-3.201,0-6.065,1.985-7.189,4.982l-0.287,0.764C14.286,12.237,14,13.815,14,15.407v1.107C14,19.544,16.456,22,19.487,22h11.027C33.544,22,36,19.544,36,16.513v-1.107c0-0.625-0.057-1.246-0.145-1.863"/><path fill="none" stroke="#000000" stroke-miterlimit="10" stroke-width="2" d="M42.93 13.651c-.513 1.862-2.255 1.424-4.51.876-2.255-.548-3.895-1.314-3.485-3.176.513-1.862 2.665-2.738 4.818-2.19S43.34 11.789 42.93 13.651zM12.162 42.098C11.415 41.119 11 39.929 11 38.5c0-1.743.264-3.885.749-6.19M28.246 45.873C27.204 45.959 26.117 46 25 46c-.966 0-1.91-.03-2.821-.094M34.233 20.67C37.155 26.482 39 33.889 39 38.5c0 1.534-.478 2.793-1.333 3.811M22 45c0-2-4-5-7-5-1 0-3 1-3 4 0 2 1 3 5 3S22 46 22 45z"/><path fill="none" stroke="#000000" stroke-miterlimit="10" stroke-width="2" d="M33,47c4,0,5-1,5-3c0-3-2-4-3-4c-3,0-7,3-7,5C28,46,29,47,33,47z"/></svg>