<?xml version="1.0" encoding="utf-8"?>
<!-- Generator: Adobe Illustrator 24.0.1, SVG Export Plug-In . SVG Version: 6.00 Build 0)  -->
<svg version="1.1" id="Layer_1" xmlns="http://www.w3.org/2000/svg" xmlns:xlink="http://www.w3.org/1999/xlink" x="0px" y="0px"
	 viewBox="0 0 50 50" style="enable-background:new 0 0 50 50;" xml:space="preserve">
<style type="text/css">
	.st0{fill:none;stroke:#000000;stroke-width:2;stroke-miterlimit:10;}
</style>
<path class="st0" d="M28.5,25.9L6.3,48.1c-1.2,1.2-3.2,1.2-4.4,0l0,0c-1.2-1.2-1.2-3.2,0-4.4l22.2-22.2"/>
<path class="st0" d="M3.9,41.6l-2.4-2.4c-1.2-1.2-0.2-2.2,1-3.4l1.2-1.2c1.2-1.2,2.2-2.2,3.4-1L9.5,36"/>
<path class="st0" d="M36.7,28.8c-3.7,0-7.5-1.7-10.6-4.9c-2.8-2.8-4.5-6.1-4.8-9.4c-0.4-3.6,0.9-7,3.7-9.8C27.4,2.3,30.3,1,33.5,1
	c3.7,0,7.5,1.7,10.6,4.9c2.8,2.8,4.5,6.1,4.8,9.4c0.4,3.6-0.9,7-3.7,9.8C42.8,27.5,39.9,28.8,36.7,28.8z"/>
<path class="st0" d="M33.9,6.7c-1.8,0-3.4,0.7-4.8,2.1c-1.6,1.6-2.3,3.5-2.1,5.5c0.2,1.9,1.3,4,3,5.7c2,1.9,4.2,3,6.4,3
	c1.8,0,3.4-0.7,4.8-2.1c1.6-1.6,2.3-3.5,2.1-5.5c-0.2-1.9-1.3-4-3-5.7C38.3,7.8,36,6.7,33.9,6.7z"/>
</svg>
