<?xml version="1.0" encoding="utf-8"?>
<!-- Generator: Adobe Illustrator 24.0.1, SVG Export Plug-In . SVG Version: 6.00 Build 0)  -->
<svg version="1.1" id="Layer_1" xmlns="http://www.w3.org/2000/svg" xmlns:xlink="http://www.w3.org/1999/xlink" x="0px" y="0px"
	 viewBox="0 0 50 50" style="enable-background:new 0 0 50 50;" xml:space="preserve">
<style type="text/css">
	.st0{fill:none;stroke:#000000;stroke-width:2;stroke-miterlimit:10;}
	.st1{fill:none;stroke:#000000;stroke-width:1.987;stroke-linecap:round;stroke-linejoin:round;stroke-miterlimit:10;}
	.st2{fill:none;stroke:#000000;stroke-width:2;stroke-linecap:round;stroke-miterlimit:10;}
</style>
<circle class="st0" cx="39" cy="46" r="3"/>
<circle class="st0" cx="26" cy="46" r="3"/>
<path d="M2,2C0.9,2,0,2.9,0,4s0.9,2,2,2s2-0.9,2-2S3.1,2,2,2z"/>
<path class="st1" d="M41,43c0,0-12.7,0-15.3,0c-3.4,0-3.9-1.7-4.5-4l-8-32.3C12.5,4.3,11.5,3,8.7,3c0,0-4.8,0-6.7,0"/>
<path class="st1" d="M16,16h31l-7.2,19H20.6"/>
<line class="st2" x1="31" y1="20" x2="31" y2="30"/>
<line class="st2" x1="36" y1="25" x2="26" y2="25"/>
</svg>
