<?xml version="1.0" encoding="utf-8"?>
<!-- Generator: Adobe Illustrator 23.0.3, SVG Export Plug-In . SVG Version: 6.00 Build 0)  -->
<svg version="1.1" id="Layer_1" xmlns="http://www.w3.org/2000/svg" xmlns:xlink="http://www.w3.org/1999/xlink" x="0px" y="0px"
	 viewBox="0 0 50 50" style="enable-background:new 0 0 50 50;" xml:space="preserve">
<path d="M33.2,30.7c0-9-13.7-4.4-13.7-11.3c0-2.3,0.9-5,5.6-5c4.8,0,5.4,3.8,5.5,5.5h2.1c0.2-2.8-1.8-6.9-6.6-7.1V10H24v2.8
	c-5.6,0.3-6.5,4.5-6.5,6.4c0,9.4,13.7,4.4,13.7,11.5c0,0.9-0.2,4.9-6.1,4.9c-0.2,0-6.3,0-6.1-6.3h-2.1c0.2,6.7,4.4,7.6,7.1,7.9V40h2
	v-2.8C32.7,36.7,33.2,31.7,33.2,30.7z"/>
<path style="fill:none;stroke:#000000;stroke-width:2;stroke-miterlimit:10;" d="M25,3C12.8,3,3,12.8,3,25s9.8,22,22,22
	s22-9.8,22-22S37.2,3,25,3z"/>
</svg>
