<?xml version="1.0" encoding="utf-8"?>
<!-- Generator: Adobe Illustrator 24.0.1, SVG Export Plug-In . SVG Version: 6.00 Build 0)  -->
<svg version="1.1" id="Layer_1" xmlns="http://www.w3.org/2000/svg" xmlns:xlink="http://www.w3.org/1999/xlink" x="0px" y="0px"
	 viewBox="0 0 50 50" style="enable-background:new 0 0 50 50;" xml:space="preserve">
<path d="M24,40h-2v-1c-0.4,0.4-0.6,0.6-1,0.8C20.6,40,20.2,40,19.8,40c-0.5,0-1-0.4-1.3-0.8C18.3,38.9,18,38.6,18,38v-9h2v8
	c0,0.2,0.3,1,1,1c0.8,0,0.8-0.8,1-1v-8h2V40z M28,40h-2V26h2v4c0.2-0.4,0.6-0.6,0.9-0.8c0.3-0.2,0.6-0.3,1-0.3
	c0.6,0,1.2,0.2,1.5,0.7c0.3,0.4,0.6,1,0.6,1.9v6c0,0.7-0.3,1.2-0.6,1.6C31.1,39.5,30.6,40,30,40c-1.1,0-1.6-0.5-2-1
	C28,39,28,40,28,40z M17,28h-2v12h-2V28h-2v-2h6V28z M35,35v1.5c0,0.6,0.1,0.9,0.2,1.1c0.1,0.2,0.4,0.3,0.8,0.3
	c0.4,0,0.7-0.1,0.8-0.3c0.1-0.2,0.2-0.6,0.2-1.2V36h2v0.6c0,1.1-0.1,1.9-0.6,2.4c-0.5,0.6-1.3,0.8-2.3,0.8c-1,0-1.7-0.3-2.2-0.9
	c-0.5-0.6-0.8-1.4-0.8-2.4v-4.7c0-0.9,0.3-1.6,0.9-2.2c0.5-0.5,1.3-0.7,2.3-0.7c1,0,1.6,0.2,2.1,0.7c0.5,0.5,0.7,1.2,0.7,2.1V35
	C39,35,35,35,35,35z M30,32c0-1-0.4-1.5-1-1.5s-1,0.5-1,1v6c0,0.3,0.4,0.5,1,0.5s1-0.4,1-1V32z M37,33v-1c0-0.6-0.4-1-1-1
	s-1,0.5-1,1v1H37z"/>
<polygon points="19,5 17,11 15,5 13,5 16,14 16,20 18,20 18,14 21,5 "/>
<path d="M26.2,9.7C25.6,9.1,25,9,24,9c-1.1,0-1.6,0.2-2.2,0.7C21.1,10.2,21,10.6,21,12v5c0,1,0.2,1.7,0.8,2.2C22.4,19.8,23,20,24,20
	c1.1,0,1.6-0.2,2.2-0.8C26.9,18.7,27,18,27,17v-5C27,11.1,26.8,10.3,26.2,9.7z M25,17c0,1-0.7,1-1,1c-0.3,0-1,0-1-1v-5
	c0-0.8,0.4-1,1-1c0.3,0,1,0,1,1V17z"/>
<path d="M33,9v8c0,0.7-0.8,1-1,1c-0.2,0-1,0-1-1V9h-2v9c0,1,1,2,2,2s1.6-0.5,2-1v1h2V9H33z"/>
<path d="M46,27.9c0-0.7-0.1-1.5-0.4-2.2c-0.1-0.4-0.3-0.8-0.6-1.2c-0.4-0.5-0.8-1-1.3-1.4c-0.5-0.3-1-0.6-1.5-0.8
	c-0.7-0.2-1.4-0.3-2.1-0.3C30,21.9,19.9,21.8,9.8,22c-0.7,0-1.4,0.1-2,0.3c-0.5,0.2-1,0.4-1.5,0.7c-0.5,0.4-1,0.8-1.4,1.4
	c-0.3,0.4-0.5,0.8-0.6,1.2C4.1,26.3,4,27.1,4,27.8c-0.1,3.3-0.1,6.6,0,9.8c0,0.6,0.1,1.2,0.3,1.9c0.3,1.1,0.9,2.2,1.8,3
	c0.3,0.2,0.5,0.4,0.8,0.6c0.4,0.2,0.7,0.4,1.1,0.5C8.6,43.9,9.2,44,9.8,44c10.1,0.2,20.2,0.2,30.3,0c0.7,0,1.4-0.1,2-0.3
	c0.5-0.2,1-0.4,1.5-0.7c0.5-0.4,1-0.8,1.4-1.4c0.3-0.4,0.5-0.8,0.6-1.2c0.2-0.7,0.4-1.4,0.4-2.2C46,34.7,46,31.3,46,27.9z M44,38.1
	c0,0.5-0.1,1-0.2,1.4c-0.1,0.3-0.2,0.6-0.4,0.8c-0.1,0.2-0.3,0.4-0.4,0.5c-0.5,0.5-1,0.8-1.7,0.9c-0.4,0.1-0.8,0.1-1.2,0.2
	C30,42.1,20,42,9.9,42c-0.4,0-0.9-0.1-1.3-0.2c-0.3-0.1-0.5-0.2-0.7-0.3c-0.2-0.1-0.4-0.3-0.5-0.4c-0.6-0.6-1-1.3-1.2-2.1
	C6,38.5,6,38,6,37.6c-0.1-3.2,0-6.5,0-9.7c0-0.5,0.1-1,0.2-1.4c0.1-0.3,0.2-0.6,0.4-0.9c0.1-0.2,0.3-0.4,0.4-0.5
	c0.5-0.5,1.1-0.8,1.7-0.9C9.1,24,9.6,24,10,24c10,0,20.1-0.2,30.1,0c0.4,0,0.8,0.1,1.2,0.2c0.6,0.2,1.2,0.5,1.7,0.9
	c0.2,0.2,0.3,0.3,0.4,0.5c0.2,0.3,0.3,0.5,0.4,0.8c0.2,0.5,0.2,0.9,0.2,1.4C44,31.3,44,34.7,44,38.1z"/>
</svg>
