<?xml version="1.0" encoding="iso-8859-1"?>
<!-- Generator: Adobe Illustrator 23.0.3, SVG Export Plug-In . SVG Version: 6.00 Build 0)  -->
<svg version="1.1" id="Layer_1" xmlns="http://www.w3.org/2000/svg" xmlns:xlink="http://www.w3.org/1999/xlink" x="0px" y="0px"
	 viewBox="0 0 50 50" style="enable-background:new 0 0 50 50;" xml:space="preserve">
<path style="fill:none;stroke:#000000;stroke-width:2;stroke-linecap:round;stroke-miterlimit:10;" d="M44.009,24.128
	c1.662-1.639,2.753-3.854,2.95-6.323C46.326,17.931,45.671,18,45,18c-5.522,0-10-4.478-10-10c0-0.272,0.02-0.539,0.041-0.805
	c-3.39,0.674-6.162,3.059-7.377,6.218 M12,7v4 M10,9h4 M36,24c-1.105,0-2.158,0.224-3.115,0.629C32.223,20.311,28.504,17,24,17
	c-4.971,0-9,4.029-9,9c0,0.692,0.085,1.364,0.234,2.012C15.156,28.009,15.079,28,15,28c-3.313,0-6,2.687-6,6s2.687,6,6,6
	c3.155,0,17.25,0,21,0c4.418,0,8-3.582,8-8S40.418,24,36,24z"/>
</svg>
