<?xml version="1.0" encoding="utf-8"?>
<!-- Generator: Adobe Illustrator 23.0.3, SVG Export Plug-In . SVG Version: 6.00 Build 0)  -->
<svg version="1.1" id="Layer_1" xmlns="http://www.w3.org/2000/svg" xmlns:xlink="http://www.w3.org/1999/xlink" x="0px" y="0px"
	 viewBox="0 0 50 50" style="enable-background:new 0 0 50 50;" xml:space="preserve">
<path style="fill:none;stroke:#000000;stroke-width:2;stroke-linecap:round;stroke-linejoin:round;stroke-miterlimit:10;" d="
	M18,34.8V10c0-1.7,1.3-3,3-3l0,0c1.7,0,3,1.3,3,3v15"/>
<path style="fill:none;stroke:#000000;stroke-width:2;stroke-linecap:round;stroke-linejoin:round;stroke-miterlimit:10;" d="M24,25
	v-2c0-1.7,1.3-3,3-3l0,0c1.7,0,3,1.3,3,3v2"/>
<path style="fill:none;stroke:#000000;stroke-width:2;stroke-linecap:round;stroke-linejoin:round;stroke-miterlimit:10;" d="M30,25
	v-1c0-1.7,1.3-3,3-3l0,0c1.7,0,3,1.3,3,3v2"/>
<path style="fill:none;stroke:#000000;stroke-width:2;stroke-linecap:round;stroke-linejoin:round;stroke-miterlimit:10;" d="M36,27
	v-1c0-1.7,1.3-3,3-3l0,0c1.7,0,3,1.3,3,3v13c0,4.4-3.6,8-8,8l-7.3,0c-3.2,0-6.2-1.3-8.5-3.5L6.9,32.1c-1.2-1.2-1.2-3.1,0-4.2l0,0
	c1.2-1.2,3.1-1.2,4.2,0l6.9,6.9"/>
</svg>
