<?xml version="1.0" encoding="iso-8859-1"?>
<!-- Generator: Adobe Illustrator 23.0.3, SVG Export Plug-In . SVG Version: 6.00 Build 0)  -->
<svg version="1.1" id="Layer_1" xmlns="http://www.w3.org/2000/svg" xmlns:xlink="http://www.w3.org/1999/xlink" x="0px" y="0px"
	 viewBox="0 0 50 50" style="enable-background:new 0 0 50 50;" xml:space="preserve">
<path style="fill:none;stroke:#000000;stroke-width:2;stroke-linecap:round;stroke-linejoin:round;" d="M15,35c0,0,6-1,10-1
	s10,1,10,1"/>
<circle cx="34" cy="25" r="3"/>
<circle cx="16" cy="25" r="3"/>
<path style="fill:none;stroke:#000000;stroke-width:2;stroke-linecap:round;stroke-linejoin:round;" d="M25,3
	C12.848,3,3,12.848,3,25s9.848,22,22,22s22-9.848,22-22S37.152,3,25,3z"/>
<path style="fill:none;stroke:#000000;stroke-width:2;stroke-linecap:round;" d="M28,21.645C28,26.434,30.813,30,35.5,30
	s7.5-2.805,7.5-6.73c0-2.652-1.758-6.27-7.406-6.27C29.941,17,28,19.836,28,21.645z M22,21.645C22,26.434,19.188,30,14.5,30
	S7,27.195,7,23.27C7,20.617,8.758,17,14.406,17C20.059,17,22,19.836,22,21.645z M28,20c0,0-1.734-1-3-1s-3,1-3,1"/>
</svg>
