<?xml version="1.0" encoding="utf-8"?>
<!-- Generator: Adobe Illustrator 24.0.1, SVG Export Plug-In . SVG Version: 6.00 Build 0)  -->
<svg version="1.1" id="Layer_1" xmlns="http://www.w3.org/2000/svg" xmlns:xlink="http://www.w3.org/1999/xlink" x="0px" y="0px"
	 viewBox="0 0 50 50" style="enable-background:new 0 0 50 50;" xml:space="preserve">
<style type="text/css">
	.st0{fill:none;stroke:#000000;stroke-width:2;stroke-linecap:round;stroke-miterlimit:10;}
</style>
<path class="st0" d="M44,8c0,0-24.6,0-26,0c-1.5,0-2.5-4-4-4H5C3.9,4,3,4.9,3,6v4v30v4c0,1.1,0.9,2,2,2h39c1.1,0,2-0.9,2-2V10
	C46,8.9,45.1,8,44,8z"/>
<path class="st0" d="M3,27V16c0-1.1,0.9-2,2-2h39c1.1,0,2,0.9,2,2v11"/>
</svg>
