<?xml version="1.0" encoding="utf-8"?>
<!-- Generator: Adobe Illustrator 23.0.3, SVG Export Plug-In . SVG Version: 6.00 Build 0)  -->
<svg version="1.1" id="Layer_1" xmlns="http://www.w3.org/2000/svg" xmlns:xlink="http://www.w3.org/1999/xlink" x="0px" y="0px"
	 viewBox="0 0 50 50" style="enable-background:new 0 0 50 50;" xml:space="preserve">
<path style="fill:none;stroke:#000000;stroke-width:2;stroke-linejoin:round;" d="M48.1,27.7c-1.1-1-2.9-0.9-4,0.2l-10,10h-9.9l-2-2
	l7.5-1.5c1.1-0.2,2.1-1.1,2.3-2.2c0.3-1.7-1-3.2-2.7-3.2l-13.7-0.1c-2.1,0-4,1-5.6,2.3C1,39,1,39,1,39l9,10l3.7-3.4
	c0.4-0.4,0.9-0.6,1.4-0.6h18.4c1.1,0,2.1-0.4,2.8-1.1l11.9-12.1C49.3,30.6,49.3,28.8,48.1,27.7z"/>
</svg>
