<?xml version="1.0" encoding="utf-8"?>
<!-- Generator: Adobe Illustrator 23.0.3, SVG Export Plug-In . SVG Version: 6.00 Build 0)  -->
<svg version="1.1" id="Layer_1" xmlns="http://www.w3.org/2000/svg" xmlns:xlink="http://www.w3.org/1999/xlink" x="0px" y="0px"
	 viewBox="0 0 50 50" style="enable-background:new 0 0 50 50;" xml:space="preserve">
<path style="fill:none;stroke:#000000;stroke-width:2;stroke-linecap:round;stroke-linejoin:round;stroke-miterlimit:10;" d="
	M15.6,37c-3.4,2.6-7.6,4.2-12.2,4.2c-0.8,0-1.6,0-2.3-0.1c4.4,2.8,9.5,4.4,15.1,4.4c18.1,0,28-15,28-28c0-0.4,0-0.9,0-1.3
	c1.9-1.4,3.6-3.1,4.9-5.1c-1.8,0.8-3.7,1.3-5.7,1.6c2-1.2,3.6-3.2,4.3-5.4c-1.9,1.1-4,1.9-6.3,2.4c-1.8-1.9-4.4-3.1-7.2-3.1
	c-5.4,0-9.8,4.4-9.8,9.8c0,0.8,0.1,1.5,0.3,2.2"/>
<path style="fill:none;stroke:#000000;stroke-width:2;stroke-linecap:round;stroke-linejoin:round;stroke-miterlimit:10;" d="
	M24.6,18.6C16.5,18.2,9.2,14.2,4.3,8.3C3.5,9.7,3,11.4,3,13.2c0,3.4,1.7,6.4,4.4,8.2c-1.6-0.1-3.1-0.5-4.5-1.2c0,0,0,0.1,0,0.1
	c0,4.8,3.4,8.7,7.9,9.7c-0.8,0.2-1.7,0.3-2.6,0.3c-0.6,0-1.3-0.1-1.9-0.2c1.3,3.9,4.9,6.8,9.2,6.8"/>
</svg>
