<?xml version="1.0" encoding="utf-8"?>
<!-- Generator: Adobe Illustrator 23.0.3, SVG Export Plug-In . SVG Version: 6.00 Build 0)  -->
<svg version="1.1" id="Layer_1" xmlns="http://www.w3.org/2000/svg" xmlns:xlink="http://www.w3.org/1999/xlink" x="0px" y="0px"
	 viewBox="0 0 50 50" style="enable-background:new 0 0 50 50;" xml:space="preserve">
<g>
	<circle style="fill:none;stroke:#000000;stroke-width:2;stroke-miterlimit:10;" cx="13" cy="39" r="5"/>
</g>
<g>
	<circle style="fill:none;stroke:#000000;stroke-width:2;stroke-miterlimit:10;" cx="40" cy="39" r="5"/>
</g>
<path style="fill:none;stroke:#000000;stroke-width:2;stroke-miterlimit:10;" d="M45,39h2c1,0,2-1,2-2c0,0,0-7.9,0-9.6
	s-1.4-3.7-1.4-3.7l-4.1-5.5c-0.8-1-2.1-2.2-3.5-2.2h-8c-1,0-2,1-2,2v21h5 M49,28c0,0-9,0-10,0s-2-1-2-2c0-0.6,0-8.5,0-10"/>
<path style="fill:none;stroke:#000000;stroke-width:2;stroke-miterlimit:10;" d="M1,28v9c0,1.1,0.9,2,2,2h5"/>
<path style="fill:none;stroke:#000000;stroke-width:2;stroke-miterlimit:10;" d="M18,39h12V10.9c0-1-0.9-1.9-1.9-1.9H0"/>
<line style="fill:none;stroke:#000000;stroke-width:2;stroke-miterlimit:10;" x1="0" y1="13" x2="18" y2="13"/>
<line style="fill:none;stroke:#000000;stroke-width:2;stroke-miterlimit:10;" x1="0" y1="17" x2="15" y2="17"/>
<line style="fill:none;stroke:#000000;stroke-width:2;stroke-miterlimit:10;" x1="0" y1="21" x2="12" y2="21"/>
<line style="fill:none;stroke:#000000;stroke-width:2;stroke-miterlimit:10;" x1="0" y1="25" x2="9" y2="25"/>
</svg>
