<?xml version="1.0" encoding="utf-8"?>
<!-- Generator: Adobe Illustrator 22.1.0, SVG Export Plug-In . SVG Version: 6.00 Build 0)  -->
<svg version="1.1" id="Layer_1" xmlns="http://www.w3.org/2000/svg" xmlns:xlink="http://www.w3.org/1999/xlink" x="0px" y="0px"
	 viewBox="0 0 50 50" style="enable-background:new 0 0 50 50;" xml:space="preserve">
<style type="text/css">
	.st0{fill:none;}
	.st1{fill:none;stroke:#000000;stroke-width:2;stroke-linejoin:round;stroke-miterlimit:10;}
	.st2{fill:none;stroke:#000000;stroke-width:2;stroke-linecap:round;stroke-linejoin:round;stroke-miterlimit:10;}
</style>
<path class="st0" d="M0,0h50v50H0V0z"/>
<path class="st1" d="M19,1C9.1,1,1,9.1,1,19s8.1,18,18,18s18-8.1,18-18S28.9,1,19,1z M19,4.5c2.8,0,4.1,0.7,4.1,2.9
	s-3.2,4.3-4.1,4.3c-0.9,0-4.1-2.1-4.1-4.3C14.9,5.2,16.2,4.5,19,4.5z M7,19.6c-2.1-0.7-2.3-2.1-1.5-4.8c0.9-2.6,1.9-3.7,4-3
	c2.1,0.7,3.1,4.4,2.8,5.2C12,17.8,9.1,20.3,7,19.6z M15.7,30.7c-1.2,1.8-2.7,1.7-5,0.2c-2.3-1.5-3-2.8-1.8-4.6
	c1.2-1.8,5-1.8,5.7-1.3C15.3,25.4,16.9,28.9,15.7,30.7z M27.5,30.7c-2.3,1.6-3.7,1.8-5,0c-1.3-1.8,0.2-5.3,0.9-5.8
	c0.7-0.5,4.5-0.7,5.8,1.1C30.4,27.8,29.7,29.1,27.5,30.7z M31,19.6c-2.1,0.7-5-1.8-5.3-2.6c-0.3-0.8,0.7-4.5,2.8-5.2
	c2.1-0.7,3.1,0.3,4,3C33.4,17.5,33.1,18.9,31,19.6z"/>
<path class="st2" d="M29,4c25.9,18.7,4.4,39.6,20,45"/>
<path d="M19,21c-1.1,0-2-0.9-2-2s0.9-2,2-2c1.1,0,2,0.9,2,2S20.1,21,19,21z"/>
</svg>
