<?xml version="1.0" encoding="utf-8"?>
<!-- Generator: Adobe Illustrator 24.0.1, SVG Export Plug-In . SVG Version: 6.00 Build 0)  -->
<svg version="1.1" id="Layer_1" xmlns="http://www.w3.org/2000/svg" xmlns:xlink="http://www.w3.org/1999/xlink" x="0px" y="0px"
	 viewBox="0 0 50 50" style="enable-background:new 0 0 50 50;" xml:space="preserve">
<style type="text/css">
	.st0{fill:none;stroke:#000000;stroke-width:2;stroke-linecap:round;stroke-miterlimit:10;}
	.st1{fill:none;stroke:#000000;stroke-width:2;stroke-linecap:round;stroke-linejoin:round;stroke-miterlimit:10;}
</style>
<path d="M30.5,27c-0.8,0-1.5,0.7-1.5,1.5s0.7,1.5,1.5,1.5l0,0c0.8,0,1.5-0.7,1.5-1.5S31.3,27,30.5,27z"/>
<circle cx="19.5" cy="28.5" r="1.5"/>
<path class="st0" d="M32.5,12.6c0,0-2.1,4.4-8.5,4.4c-3.7,0-9,0.2-9,5"/>
<path class="st0" d="M32.5,12.6c0,0,3.5,4.4,3.5,9.4"/>
<path class="st1" d="M38.3,25.7C39,23.6,40,19.9,40,16c0-3.2-1.4-9-7-9c-0.9-1.7-3.5-4-8.3-4C15,3,10,8.6,10,17.6
	c0,1.7,1,6.2,1.7,8.1c-0.6,0.4-1.9,1.5-1.7,3.5c0.4,3.7,3.3,4.7,3.3,4.7c0.3,2.8,3.7,9.1,8.4,11.3c0.7,1.1,1.9,1.8,3.3,1.8
	c1.4,0,2.6-0.7,3.3-1.8c4.7-2.2,8-8.5,8.3-11.3c0,0,2.9-1,3.3-4.7C40.2,27.2,38.8,26.1,38.3,25.7z"/>
</svg>
