<?xml version="1.0" encoding="utf-8"?>
<!-- Generator: Adobe Illustrator 24.0.1, SVG Export Plug-In . SVG Version: 6.00 Build 0)  -->
<svg version="1.1" id="Layer_1" xmlns="http://www.w3.org/2000/svg" xmlns:xlink="http://www.w3.org/1999/xlink" x="0px" y="0px"
	 viewBox="0 0 50 50" style="enable-background:new 0 0 50 50;" xml:space="preserve">
<style type="text/css">
	.st0{fill:none;stroke:#000000;stroke-width:2;stroke-linecap:round;stroke-miterlimit:10;}
</style>
<path class="st0" d="M25,3c-6.5,0-9.7,10.2-9.7,10.2s-0.5-0.1-1.4-0.1c-3,0-9.7,0.6-11.3,6.1c-2,7.1,6.7,12.4,6.7,12.4
	S5.8,41,11.2,45.5c1.3,1.1,2.8,1.5,4.3,1.5C20.2,47,25,43,25,43s5.2,3.6,10,3.6c1.4,0,2.7-0.3,3.9-1.1c5.3-3.4,1.8-13.9,1.8-13.9
	s8.5-5.9,6.7-12.4c-1.6-5.7-10.4-6.1-12.3-6.1c-0.2,0-0.4,0-0.4,0S31.6,3,25,3L25,3z"/>
<path d="M25,26.5c0,0-2.6,7.1-4.5,5.4c-1.9-1.7,3.8-6,3.8-6s-7.5,0-6.6-2.6s6.8,1.8,6.8,1.8S22.3,18,25,18s0.5,7.1,0.5,7.1
	s5.8-4.3,6.8-1.8c1,2.6-6.6,2.6-6.6,2.6s5.9,4.3,3.8,6C27.4,33.6,25,26.5,25,26.5z"/>
</svg>
