<?xml version="1.0" encoding="utf-8"?>
<!-- Generator: Adobe Illustrator 23.0.3, SVG Export Plug-In . SVG Version: 6.00 Build 0)  -->
<svg version="1.1" id="Layer_1" xmlns="http://www.w3.org/2000/svg" xmlns:xlink="http://www.w3.org/1999/xlink" x="0px" y="0px"
	 viewBox="0 0 50 50" style="enable-background:new 0 0 50 50;" xml:space="preserve">
<style type="text/css">
	.st0{fill:none;stroke:#000000;stroke-width:2;stroke-linejoin:round;}
</style>
<path class="st0" d="M46.4,34c-1.1-1-5.8-5.2-21.4-5.2S4.7,33,3.6,34c-1.1,1-0.5,6.4-0.3,7.7c0.2,1.3,1.2,1.9,1.8,1.8
	c0.6-0.1,8.2-1.6,9-1.9c0.6-0.1,1.1-0.8,1.3-1.7c0.3-0.9,1.2-4.9,1.2-4.9s2.3-0.7,8.2-0.7c5.9,0,8.2,0.7,8.2,0.7s0.9,4,1.2,4.9
	c0.3,0.9,0.8,1.6,1.3,1.7c0.8,0.2,8.3,1.7,9,1.9c0.6,0.1,1.6-0.5,1.8-1.8C46.9,40.5,47.4,35,46.4,34z"/>
</svg>
