<?xml version="1.0" encoding="utf-8"?>
<!-- Generator: Adobe Illustrator 24.0.1, SVG Export Plug-In . SVG Version: 6.00 Build 0)  -->
<svg version="1.1" id="Layer_1" xmlns="http://www.w3.org/2000/svg" xmlns:xlink="http://www.w3.org/1999/xlink" x="0px" y="0px"
	 viewBox="0 0 50 50" style="enable-background:new 0 0 50 50;" xml:space="preserve">
<style type="text/css">
	.st0{fill:none;stroke:#000000;stroke-width:2;stroke-linejoin:round;stroke-miterlimit:10;}
	.st1{fill:none;stroke:#000000;stroke-width:2;stroke-linecap:round;stroke-linejoin:round;stroke-miterlimit:10;}
</style>
<path class="st0" d="M48,43H2"/>
<polygon class="st1" points="44.6,43 35.4,43 33,32 47,32 "/>
<path class="st1" d="M35.2,31.7C33.3,29.5,33,26.6,33,25c0-2.6,1-6,1-6s3.5,2.6,5,7"/>
<path class="st1" d="M45,32c1.1-2,2-3.5,2-7.5c0-3.5-1-6.5-1-6.5s-5,3.5-7,8c-0.9,2-1.2,5-1,6"/>
<path class="st1" d="M43,20.5c0-4.9-3-7.5-3-7.5s-3,2.5-3,7.5v1.7"/>
<polyline points="21,16 27,22 24.2,22.3 25.6,25.5 24.4,26 23.1,22.8 21,24.9 21,16 "/>
<polygon points="31.2,38 14,38 14,40 31.7,40 "/>
<path d="M30.4,34h-26C4.3,34,4,34,4,33.5V8.5C4,8,4.3,8,4.4,8h37.2C41.7,8,42,8,42,8.5v2.3c0.2,0.2,1.1,1,2,2.5V8.5
	C44,7,43,6,41.6,6H4.4C3,6,2,7,2,8.5v25.1C2,35,3,36,4.4,36h26.4L30.4,34z"/>
</svg>
