<?xml version="1.0" encoding="utf-8"?>
<!-- Generator: Adobe Illustrator 23.0.3, SVG Export Plug-In . SVG Version: 6.00 Build 0)  -->
<svg version="1.1" id="Layer_1" xmlns="http://www.w3.org/2000/svg" xmlns:xlink="http://www.w3.org/1999/xlink" x="0px" y="0px"
	 viewBox="0 0 50 50" style="enable-background:new 0 0 50 50;" xml:space="preserve">
<path style="fill:none;stroke:#000000;stroke-width:2;stroke-miterlimit:10;" d="M9,7h32c1.1,0,2-0.9,2-2V2H7v3C7,6.1,7.9,7,9,7z"/>
<path style="fill:none;stroke:#000000;stroke-width:2;stroke-miterlimit:10;" d="M43,48H7v-3c0-1.1,0.9-2,2-2h32c1.1,0,2,0.9,2,2V48
	z"/>
<path style="fill:none;stroke:#000000;stroke-width:2;stroke-miterlimit:10;" d="M38,7v7.7c0,2.7-1.3,5.2-3.6,6.7L29,25l5.4,3.6
	c2.2,1.5,3.6,4,3.6,6.7V43"/>
<path style="fill:none;stroke:#000000;stroke-width:2;stroke-miterlimit:10;" d="M12,7v7.7c0,2.7,1.3,5.2,3.6,6.7L21,25l-5.4,3.6
	c-2.2,1.5-3.6,4-3.6,6.7V43"/>
<path d="M35,43c0-8.9-10-12.2-10-12.2S15,34.3,15,43H35z"/>
</svg>
