<?xml version="1.0" encoding="utf-8"?>
<!-- Generator: Adobe Illustrator 23.0.3, SVG Export Plug-In . SVG Version: 6.00 Build 0)  -->
<svg version="1.1" id="Layer_1" xmlns="http://www.w3.org/2000/svg" xmlns:xlink="http://www.w3.org/1999/xlink" x="0px" y="0px"
	 viewBox="0 0 50 50" style="enable-background:new 0 0 50 50;" xml:space="preserve">
<circle style="fill:none;stroke:#000000;stroke-width:2;stroke-linecap:round;stroke-linejoin:round;stroke-miterlimit:10;" cx="27" cy="7" r="4"/>
<path style="fill:none;stroke:#000000;stroke-width:2;stroke-linecap:round;stroke-linejoin:round;stroke-miterlimit:10;" d="
	M21,20.2c-0.7,3.1-1.9,7.8-1.9,7.8C19.1,28.3,19,28.6,19,29c0,0.8,0.2,1.6,0.6,2.2c0.3,0.5,0.9,1,1.4,1.5l5,4.4l1.9,7.7
	c0.1,0.3,0.1,0.6,0.2,0.8c0.4,0.9,1.3,1.4,2.3,1.4c1.4,0,2.5-1.1,2.5-2.5c0-0.4-0.1-0.7-0.2-1.1l-2-8L26,29c0,0,2.8-10.4,2.8-10.5
	c0.1-0.3,0.2-0.6,0.2-1c0-1.9-1.6-3.5-3.5-3.5c-0.1,0-2.3,0-2.3,0"/>
<path style="fill:none;stroke:#000000;stroke-width:2;stroke-linecap:round;stroke-linejoin:round;stroke-miterlimit:10;" d="
	M23.2,14c-0.9,0-1.7,0.3-2.4,0.8l-6,4.6l0,0c-0.3,0.2-0.5,0.5-0.7,0.9l0,0L11.3,27c-0.2,0.3-0.3,0.7-0.3,1c0,1.1,0.9,2,2,2
	c0.9,0,1.5-0.6,1.9-1.5l2.6-5.7l3.6-2.6"/>
<path style="fill:none;stroke:#000000;stroke-width:2;stroke-linecap:round;stroke-linejoin:round;stroke-miterlimit:10;" d="
	M27.9,22.3l2.7,3l5.7,1.6c0.2,0.1,0.5,0.1,0.7,0.1c1.1,0,2-0.9,2-2c0-0.9-0.6-1.6-1.3-1.9l-5-1.5l-4-5.7"/>
<path style="fill:none;stroke:#000000;stroke-width:2;stroke-linecap:round;stroke-linejoin:round;stroke-miterlimit:10;" d="
	M19,29.2l-1.5,7.4l-4.8,6.1c-0.5,0.5-0.7,1.1-0.7,1.8c0,1.4,1.1,2.5,2.5,2.5c0.9,0,1.7-0.5,2.1-1.2l0,0l5-6.5l1.3-4.8"/>
</svg>
