<?xml version="1.0" encoding="utf-8"?>
<!-- Generator: Adobe Illustrator 22.1.0, SVG Export Plug-In . SVG Version: 6.00 Build 0)  -->
<svg version="1.1" xmlns="http://www.w3.org/2000/svg" xmlns:xlink="http://www.w3.org/1999/xlink" x="0px" y="0px"
	 viewBox="0 0 50 50" style="enable-background:new 0 0 50 50;" xml:space="preserve">
<style type="text/css">
	.st0{fill:none;stroke:#000000;stroke-width:2;stroke-linecap:round;stroke-miterlimit:10;}
</style>
<g id="head">
	<path class="st0" d="M29.1,22.9c-2.5,0-4.5,2-4.5,4.5s2,4.5,4.5,4.5s4.5-2,4.5-4.5S31.6,22.9,29.1,22.9L29.1,22.9z"/>
</g>
<g id="body">
	<path class="st0" d="M34,48c0,0-3.3-6.4-10.6-8.5c0.2-1.5,1.5-3.1,1.5-3.1c4.9,2.7,8.3,2.6,13.4,0.6 M33.8,18.9
		c-5.3,0.3-11.8,4.3-10.2,9.6c1.6,5.3,8.3,7.6,13.6,4.9 M31.1,15.7c0,0-11.1,1-13.1,10.5C10.9,31,10,41,10,41"/>
</g>
<g id="oar">
	<path class="st0" d="M26.6,6.6L34,4.7c0,0,1,3.2,1,5.9c0,2.2-0.1,5-2,5.5c-1.8,0.4-3.6-1.8-4.7-3.9C27.3,9.7,26.6,6.6,26.6,6.6z
		 M33.3,16.1l5.3,21.7 M45,46.6c0,0-0.4-1.6-0.6-2c-0.5-1.4-2.1-6.3-5.8-6.4c-1.6,0.9-2.6,3.1-1.2,9.1c0,0.2,0.1,0.3,0.1,0.5"/>
</g>
<g id="wave">
	<path class="st0" d="M1,45c6-4,15-5,24.3,0c8.4,4.5,16.7,5,23.7,0"/>
</g>
</svg>
