<?xml version="1.0" encoding="utf-8"?>
<!-- Generator: Adobe Illustrator 17.1.0, SVG Export Plug-In . SVG Version: 6.00 Build 0)  -->
<!DOCTYPE svg PUBLIC "-//W3C//DTD SVG 1.0//EN" "http://www.w3.org/TR/2001/REC-SVG-20010904/DTD/svg10.dtd">
<svg version="1.0" id="Layer_1" xmlns="http://www.w3.org/2000/svg" xmlns:xlink="http://www.w3.org/1999/xlink" x="0px" y="0px"
	 width="50px" height="50px" viewBox="0 0 50 50" style="enable-background:new 0 0 50 50;" xml:space="preserve">
<rect style="fill:none;" width="50" height="50"/>
<path style="fill:none;stroke:#000000;stroke-width:2;stroke-linecap:round;stroke-miterlimit:10;" d="M19,1C9.1,1,1,8.1,1,16.9
	c0,4.5,2.1,8.6,5.5,11.5c-0.9,4-5.7,5.6-5.4,6.7c3,1.7,11.1-1.6,13.7-2.7c1.3,0.3,2.7,0.4,4.1,0.4c9.9,0,18-7.1,18-15.9S28.9,1,19,1
	z"/>
<path style="fill:none;stroke:#000000;stroke-width:2;stroke-linecap:round;stroke-miterlimit:10;" d="M13.9,32.8
	c2.3,6.4,9.1,11,17.1,11c1.4,0,2.8-0.2,4.1-0.4c2.6,1.2,10.7,4.4,13.7,2.7c0.3-1.1-4.4-2.8-5.4-6.7c3.4-2.9,5.5-7,5.5-11.5
	c0-7.1-5.3-13.2-12.6-15.2"/>
<g>
	<circle cx="39" cy="33" r="1"/>
	<circle cx="36" cy="36" r="1"/>
	<circle cx="39" cy="39" r="1"/>
	<circle cx="27" cy="39" r="1"/>
	<circle cx="42" cy="36" r="1"/>
	<circle cx="42" cy="42" r="1"/>
	<circle cx="27" cy="33" r="1"/>
	<circle cx="33" cy="33" r="1"/>
	<circle cx="24" cy="36" r="1"/>
	<circle cx="24" cy="42" r="1"/>
	<circle cx="30" cy="36" r="1"/>
	<circle cx="33" cy="39" r="1"/>
	<circle cx="39" cy="21" r="1"/>
	<circle cx="36" cy="24" r="1"/>
	<circle cx="39" cy="27" r="1"/>
	<circle cx="42" cy="24" r="1"/>
	<circle cx="36" cy="30" r="1"/>
	<circle cx="42" cy="30" r="1"/>
	<circle cx="33" cy="27" r="1"/>
	<circle cx="45" cy="33" r="1"/>
	<circle cx="48" cy="24" r="1"/>
	<circle cx="48" cy="30" r="1"/>
	<circle cx="45" cy="45" r="1"/>
	<circle cx="45" cy="27" r="1"/>
	<circle cx="45" cy="21" r="1"/>
	<circle cx="30" cy="30" r="1"/>
	<circle cx="36" cy="42" r="1"/>
	<circle cx="30" cy="42" r="1"/>
	<circle cx="15" cy="33" r="1"/>
	<circle cx="21" cy="33" r="1"/>
	<circle cx="18" cy="36" r="1"/>
	<circle cx="21" cy="39" r="1"/>
	<circle cx="39" cy="15" r="1"/>
	<circle cx="42" cy="18" r="1"/>
</g>
</svg>
