<?xml version="1.0" encoding="utf-8"?>
<!-- Generator: Adobe Illustrator 23.0.3, SVG Export Plug-In . SVG Version: 6.00 Build 0)  -->
<svg version="1.1" id="Layer_1" xmlns="http://www.w3.org/2000/svg" xmlns:xlink="http://www.w3.org/1999/xlink" x="0px" y="0px"
	 viewBox="0 0 50 50" style="enable-background:new 0 0 50 50;" xml:space="preserve">
<g>
	<path style="fill:none;stroke:#000000;stroke-width:2;stroke-linecap:round;stroke-linejoin:round;stroke-miterlimit:10;" d="M25,8
		C15.6,8,8,15.6,8,25s7.6,17,17,17s17-7.6,17-17S34.4,8,25,8z"/>
</g>
<path d="M31,28.9c0-3.3-2.7-4.2-5.3-4.8c-2.1-0.5-4-1-4-3.1c0-0.9,0.4-2.9,3.4-2.9c2.1,0,3.1,1.3,3.4,2.9h2
	c-0.6-2.2-1.6-4.2-4.5-4.7V14h-2v2.2c-1.6,0.2-4.5,1.6-4.5,5c0,6.4,9.3,3.1,9.3,7.9c0,1.6-0.7,3.1-3.8,3.1s-4-2.4-4-3.7h-2
	c0.3,4.3,3.3,5.3,5,5.6V36h2v-1.9C27.5,34,31,32.9,31,28.9z"/>
</svg>
