<?xml version="1.0" encoding="utf-8"?>
<!-- Generator: Adobe Illustrator 24.0.1, SVG Export Plug-In . SVG Version: 6.00 Build 0)  -->
<svg version="1.1" id="Layer_1" xmlns="http://www.w3.org/2000/svg" xmlns:xlink="http://www.w3.org/1999/xlink" x="0px" y="0px"
	 viewBox="0 0 50 50" style="enable-background:new 0 0 50 50;" xml:space="preserve">
<style type="text/css">
	.st0{fill:none;stroke:#000000;stroke-width:2;stroke-linecap:round;stroke-miterlimit:10;}
	.st1{stroke:#000000;stroke-width:2;stroke-linecap:round;stroke-miterlimit:10;}
</style>
<title>Artboard 1</title>
<g>
	<path class="st0" d="M40.9,39.2H9.1c-2,0-3.5-1.6-3.5-3.5V16.3c0-2,1.6-3.5,3.5-3.5h31.8c2,0,3.5,1.6,3.5,3.5v19.4
		C44.4,37.7,42.8,39.2,40.9,39.2z M10.9,29.5h4.4 M10.9,33.9h11.5 M27.6,20.7h11.5 M18.8,29.5h4.4 M26.8,29.5h4.4 M34.7,29.5h4.4"/>
	<path class="st1" d="M15.3,23.4h-3.5c-0.5,0-0.9-0.4-0.9-0.9v-2.6c0-0.5,0.4-0.9,0.9-0.9h3.5c0.5,0,0.9,0.4,0.9,0.9v2.6
		C16.2,23,15.8,23.4,15.3,23.4z"/>
</g>
</svg>
