<?xml version="1.0" encoding="utf-8"?>
<!-- Generator: Adobe Illustrator 24.0.1, SVG Export Plug-In . SVG Version: 6.00 Build 0)  -->
<svg version="1.1" id="Layer_1" xmlns="http://www.w3.org/2000/svg" xmlns:xlink="http://www.w3.org/1999/xlink" x="0px" y="0px"
	 viewBox="0 0 50 50" style="enable-background:new 0 0 50 50;" xml:space="preserve">
<style type="text/css">
	.st0{fill:none;stroke:#000000;stroke-width:2;stroke-miterlimit:10;}
</style>
<path class="st0" d="M11,40H3c-1.1,0-2-0.9-2-2V10c0-1.1,0.9-2,2-2h8c1.1,0,2,0.9,2,2v28C13,39.1,12.1,40,11,40z"/>
<path class="st0" d="M22,40v0.5c0,4.1-3.4,7.5-7.5,7.5l0,0C10.4,48,7,44.6,7,40.5V40"/>
<path class="st0" d="M22,14h-3c-1.1,0-2,0.9-2,2v22c0,1.1,0.9,2,2,2h28c1.1,0,2-0.9,2-2V16c0-1.1-0.9-2-2-2h-3"/>
<path class="st0" d="M22,4h22v14H22V4z"/>
<circle cx="27" cy="23" r="2"/>
<circle cx="33" cy="23" r="2"/>
<circle cx="39" cy="23" r="2"/>
<circle cx="27" cy="29" r="2"/>
<circle cx="33" cy="29" r="2"/>
<circle cx="39" cy="29" r="2"/>
<circle cx="27" cy="35" r="2"/>
<circle cx="33" cy="35" r="2"/>
<circle cx="39" cy="35" r="2"/>
</svg>
