<?xml version="1.0" encoding="utf-8"?>
<!-- Generator: Adobe Illustrator 23.0.3, SVG Export Plug-In . SVG Version: 6.00 Build 0)  -->
<svg version="1.1" id="Layer_1" xmlns="http://www.w3.org/2000/svg" xmlns:xlink="http://www.w3.org/1999/xlink" x="0px" y="0px"
	 viewBox="0 0 50 50" style="enable-background:new 0 0 50 50;" xml:space="preserve">
<style type="text/css">
	.st0{fill:none;stroke:#000000;stroke-width:2;stroke-linecap:round;stroke-linejoin:round;}
</style>
<path class="st0" d="M25,5C12.8,5,3,14.8,3,27s9.8,22,22,22s22-9.8,22-22S37.2,5,25,5L25,5z"/>
<path class="st0" d="M12,31c0,0,5,7,13,7s13-7,13-7"/>
<path class="st0" d="M33,6.3c8.8,0.6,15,2,15,3.7c0,2.2-10.3,4-23,4S2,12.2,2,10c0-1.7,6.2-3.2,15-3.7"/>
<path d="M33,18.9c-1.7,0-3,1.3-3,3s1.3,3,3,3c1.7,0,3-1.3,3-3S34.7,18.9,33,18.9z M17,18.9c-1.7,0-3,1.3-3,3s1.3,3,3,3s3-1.3,3-3
	S18.7,18.9,17,18.9z"/>
</svg>
