<?xml version="1.0" encoding="utf-8"?>
<!-- Generator: Adobe Illustrator 24.0.1, SVG Export Plug-In . SVG Version: 6.00 Build 0)  -->
<svg version="1.1" id="Layer_1" xmlns="http://www.w3.org/2000/svg" xmlns:xlink="http://www.w3.org/1999/xlink" x="0px" y="0px"
	 viewBox="0 0 50 50" style="enable-background:new 0 0 50 50;" xml:space="preserve">
<style type="text/css">
	.st0{fill:none;stroke:#000000;stroke-width:2;stroke-miterlimit:10;}
	.st1{fill:none;stroke:#000000;stroke-width:2;stroke-linejoin:round;stroke-miterlimit:10;}
	.st2{fill:none;stroke:#000000;stroke-width:2;stroke-linecap:round;stroke-linejoin:round;}
</style>
<polyline class="st0" points="31,28 25,34 19,28 "/>
<polyline class="st0" points="31,28 25,34 19,28 "/>
<line class="st1" x1="25" y1="20" x2="25" y2="34"/>
<path id="Group_3" class="st2" d="M41,24c-0.1,0-0.1,0-0.2,0c0.1-0.7,0.2-1.3,0.2-2c0-6.6-5.4-12-12-12c-5.3,0-9.8,3.4-11.4,8.2
	c-1-0.8-2.3-1.2-3.6-1.2c-3,0-5.6,2.3-5.9,5.2C4,23.1,1,26.7,1,31c0,5,4,9,9,9h31c4.4,0,8-3.6,8-8S45.4,24,41,24z"/>
</svg>
