<?xml version="1.0" encoding="utf-8"?>
<!-- Generator: Adobe Illustrator 23.0.3, SVG Export Plug-In . SVG Version: 6.00 Build 0)  -->
<svg version="1.1" id="Layer_1" xmlns="http://www.w3.org/2000/svg" xmlns:xlink="http://www.w3.org/1999/xlink" x="0px" y="0px"
	 viewBox="0 0 50 50" style="enable-background:new 0 0 50 50;" xml:space="preserve">
<path style="fill:none;stroke:#000000;stroke-width:2;stroke-miterlimit:10;" d="M47,38H3c-1.1,0-2-0.9-2-2V14c0-1.1,0.9-2,2-2h44
	c1.1,0,2,0.9,2,2v22C49,37.1,48.1,38,47,38z"/>
<path d="M24,36V14c0-1.7,1.3-3,3-3H3c-1.7,0-3,1.3-3,3v22c0,1.7,1.3,3,3,3h24C25.3,39,24,37.7,24,36z"/>
<path style="fill:none;stroke:#000000;stroke-width:2;stroke-miterlimit:10;" d="M42,38H26c-1.1,0-2-0.9-2-2V14c0-1.1,0.9-2,2-2h16"
	/>
</svg>
