<?xml version="1.0" encoding="utf-8"?>
<!-- Generator: Adobe Illustrator 24.0.1, SVG Export Plug-In . SVG Version: 6.00 Build 0)  -->
<svg version="1.1" id="Car" xmlns="http://www.w3.org/2000/svg" xmlns:xlink="http://www.w3.org/1999/xlink" x="0px" y="0px"
	 viewBox="0 0 50 50" style="enable-background:new 0 0 50 50;" xml:space="preserve">
<style type="text/css">
	.st0{fill:none;stroke:#000000;stroke-width:2;stroke-miterlimit:10;}
	.st1{fill:none;stroke:#000000;stroke-width:2;stroke-linecap:round;stroke-linejoin:round;stroke-miterlimit:10;}
</style>
<path class="st0" d="M42,37v2c0,1.1-0.9,2-2,2h-4c-1.1,0-2-0.9-2-2v-2 M16,37v2c0,1.1-0.9,2-2,2h-4c-1.1,0-2-0.9-2-2v-2"/>
<path class="st1" d="M35,27c0.9,0,3.2,0,4,0c1.1,0,2,0.9,2,2c0,1.3-0.9,1.9-2.1,2.6c-1.7,1-2.2,1.4-3.9,1.4s-3-1.3-3-3
	S33.3,27,35,27z M15,27c-0.9,0-3.2,0-4,0c-1.1,0-2,0.9-2,2c0,1.3,0.9,1.9,2.1,2.6c1.7,1,2.2,1.4,3.9,1.4s3-1.3,3-3S16.7,27,15,27z"
	/>
<path class="st0" d="M7.9,37c-1,0-1.9-0.8-1.9-1.9v-8c0,0,4.9-13.1,5.6-14.4c0.8-1.6,2.9-2.3,4.3-2.8c0,0,2.1-1,9.1-1s9.1,1,9.1,1
	c1.3,0.4,3.5,1.1,4.3,2.7c0.8,1.9,5.6,14.5,5.6,14.5v8c0,1-0.9,1.9-1.9,1.9H7.9z"/>
<path class="st0" d="M9.1,19c-0.4,1.1-2.3,5,3.8,5c2,0,22.1,0,24.1,0c6.2,0,4.3-3.9,3.8-5 M8.5,20H5.1C2.5,20,2,21.5,2,22.6
	c0,1,0.8,1.4,2.1,1.4h2.8 M41.5,20h3.4c2.6,0,3.1,1.5,3.1,2.6S47.2,24,45.9,24h-2.8"/>
</svg>
