<?xml version="1.0" encoding="utf-8"?>
<!-- Generator: Adobe Illustrator 23.0.3, SVG Export Plug-In . SVG Version: 6.00 Build 0)  -->
<svg version="1.1" id="Layer_1" xmlns="http://www.w3.org/2000/svg" xmlns:xlink="http://www.w3.org/1999/xlink" x="0px" y="0px"
	 viewBox="0 0 50 50" style="enable-background:new 0 0 50 50;" xml:space="preserve">
<path style="fill:none;stroke:#000000;stroke-width:2;stroke-linecap:round;stroke-miterlimit:10;" d="M29,35.6v-3.2l-3.9-0.6
	c-0.2-0.9-0.6-1.8-1.1-2.6l2.3-3.2L24,23.6l-3.2,2.3c-0.8-0.5-1.7-0.8-2.6-1.1L17.6,21h-3.2l-0.6,3.8c-0.9,0.2-1.8,0.6-2.6,1.1
	L8,23.6l-2.3,2.3l2.2,3.2c-0.5,0.8-0.8,1.7-1.1,2.6L3,32.4v3.2l3.8,0.7c0.2,0.9,0.6,1.8,1.1,2.6L5.6,42l2.3,2.3l3.2-2.2
	c0.8,0.5,1.7,0.8,2.6,1.1l0.6,3.8h3.2l0.7-3.8c0.9-0.2,1.8-0.6,2.6-1.1l3.2,2.3l2.3-2.3L24,38.9c0.5-0.8,0.8-1.7,1.1-2.6L29,35.6z"
	/>
<circle style="fill:none;stroke:#000000;stroke-width:2;stroke-linecap:round;stroke-miterlimit:10;" cx="16" cy="34" r="4"/>
<path style="fill:none;stroke:#000000;stroke-width:2;stroke-linecap:round;stroke-miterlimit:10;" d="M45.5,21.1l1.2-2.8l-3.1-1.9
	c0.1-0.9,0.1-1.7,0-2.6l3.1-1.9l-1.1-2.8L42,9.9c-0.5-0.7-1.1-1.3-1.8-1.8L41,4.6l-2.8-1.2l-1.9,3c-0.9-0.1-1.7-0.2-2.6,0l-1.9-3.1
	L29,4.4l0.7,3.5C29.2,8.4,28.6,9,28,9.7l-3.5-0.8l-1.2,2.8l3,2c-0.1,0.9-0.1,1.7,0,2.6l-3.1,1.9l1.1,2.8l3.5-0.7
	c0.5,0.7,1.1,1.3,1.8,1.8l-0.8,3.5l2.8,1.2l2-3c0.9,0.1,1.7,0.1,2.6,0l1.9,3.1l2.8-1.1L40.1,22c0.7-0.5,1.3-1.1,1.8-1.8L45.5,21.1z"
	/>
<path style="fill:none;stroke:#000000;stroke-width:2;stroke-linecap:round;stroke-miterlimit:10;" d="M35,11c-2.2,0-4,1.8-4,4
	s1.8,4,4,4s4-1.8,4-4S37.2,11,35,11z"/>
</svg>
