<?xml version="1.0" encoding="utf-8"?>
<!-- Generator: Adobe Illustrator 24.0.1, SVG Export Plug-In . SVG Version: 6.00 Build 0)  -->
<svg version="1.1" id="Layer_1" xmlns="http://www.w3.org/2000/svg" xmlns:xlink="http://www.w3.org/1999/xlink" x="0px" y="0px"
	 viewBox="0 0 50 50" style="enable-background:new 0 0 50 50;" xml:space="preserve">
<style type="text/css">
	.st0{fill:none;stroke:#000000;stroke-width:2;stroke-linecap:round;stroke-linejoin:round;stroke-miterlimit:10;}
</style>
<line class="st0" x1="14" y1="45.7" x2="14" y2="32.7"/>
<path class="st0" d="M9,21v24.3c0,0.9,0.7,1.7,1.7,1.7h1.7c0.9,0,1.7-0.7,1.7-1.7c0,0.9,0.7,1.7,1.7,1.7h1.7c0.9,0,1.7-0.7,1.7-1.7
	V31"/>
<circle class="st0" cx="14" cy="7" r="4"/>
<path class="st0" d="M21.1,14.8c-0.7-0.5-1.6-0.8-2.6-0.8h-9C7,14,5,16,5,18.5V31"/>
<path class="st0" d="M5,31c0,1.1,0.9,2,2,2s2-0.9,2-2"/>
<circle class="st0" cx="35" cy="7" r="4"/>
<circle class="st0" cx="25" cy="20" r="3"/>
<path class="st0" d="M39,36h-4v9c0,1.1,0.9,2,2,2l0,0c1.1,0,2-0.9,2-2V36z"/>
<path class="st0" d="M26.5,47L26.5,47c0.8,0,1.5-0.7,1.5-1.5V38h1c1.1,0,2-0.9,2-2v-7c0-1.7-1.3-3-3-3h-6c-1.7,0-3,1.3-3,3v7
	c0,1.1,0.9,2,2,2h1v7.5c0,0.8,0.7,1.5,1.5,1.5H26.5z"/>
<path class="st0" d="M35,36h-4v9c0,1.1,0.9,2,2,2l0,0c1.1,0,2-0.9,2-2V36z"/>
<path class="st0" d="M36,36h6.6c0.3,0,0.6-0.2,0.8-0.4c0.2-0.3,0.2-0.6,0.1-1L39.3,22"/>
<g>
	<path class="st0" d="M36,14h2c2.4,0,3.4,2.1,3.8,3c0,0,1.1,3.4,2.2,6.7c0.7,2.2,1.4,4.4,1.8,5.6c0.5,1.4-0.3,2.7-1.7,2.7
		c-0.9,0-1.6-0.6-1.8-1.3l0,0l-1.3-4l-0.8-2.4L39.3,22"/>
</g>
<path class="st0" d="M29.3,15.2c0.6-0.6,1.5-1.2,2.7-1.2h4"/>
</svg>
