<?xml version="1.0" encoding="iso-8859-1"?>
<!-- Generator: Adobe Illustrator 23.0.3, SVG Export Plug-In . SVG Version: 6.00 Build 0)  -->
<svg version="1.1" id="Layer_1" xmlns="http://www.w3.org/2000/svg" xmlns:xlink="http://www.w3.org/1999/xlink" x="0px" y="0px"
	 viewBox="0 0 50 50" style="enable-background:new 0 0 50 50;" xml:space="preserve">
<path style="fill:none;stroke:#000000;stroke-width:2;stroke-linecap:round;stroke-miterlimit:10;" d="M36,13
	c-1.49,0-2.891,0.368-4.129,1.008C31.154,9.472,27.238,6,22.5,6c-5.247,0-9.5,4.253-9.5,9.5c0,0.547,0.057,1.08,0.146,1.602
	C12.772,17.04,12.391,17,12,17c-3.866,0-7,3.134-7,7s3.134,7,7,7c3.758,0,19.633,0,24,0c4.971,0,9-4.029,9-9S40.971,13,36,13z"/>
</svg>
