<?xml version="1.0" encoding="utf-8"?>
<!-- Generator: Adobe Illustrator 24.0.0, SVG Export Plug-In . SVG Version: 6.00 Build 0)  -->
<svg version="1.1" id="Layer_1" xmlns="http://www.w3.org/2000/svg" xmlns:xlink="http://www.w3.org/1999/xlink" x="0px" y="0px"
	 viewBox="0 0 50 50" style="enable-background:new 0 0 50 50;" xml:space="preserve">
<style type="text/css">
	.st0{fill:none;stroke:#000000;stroke-width:2;stroke-linecap:round;stroke-miterlimit:10;}
	.st1{fill:none;stroke:#000000;stroke-width:2.17;stroke-linecap:round;stroke-linejoin:round;}
	.st2{fill:none;stroke:#000000;stroke-width:2;stroke-miterlimit:10;}
</style>
<path class="st0" d="M28,8c0,8,6,10,6,18c0,6-2,9.1-2,12.1s2,4.9,2,6.9c0,1.1-0.9,2-2,2H18c-1.1,0-2-0.9-2-2c0-2,2-4,2-6.9
	S16,32,16,26c0-8,6-10,6-18"/>
<path class="st1" d="M29,7V5c0-1.1-0.9-2-2-2h-4c-1.1,0-2,0.9-2,2v2H29z"/>
<line class="st2" x1="17" y1="21" x2="33" y2="21"/>
<line class="st2" x1="17" y1="30" x2="33" y2="30"/>
<line class="st0" x1="21.5" y1="21" x2="23" y2="17"/>
<path class="st0" d="M23,47c-1.1,0-2-0.9-2-2c0-2,1-4.1,1-7c0-1.5-0.3-4.6-0.5-7"/>
<line class="st0" x1="28.5" y1="21" x2="27" y2="17"/>
<path class="st0" d="M27,47c1.1,0,2-0.9,2-2c0-2-1-4.1-1-7c0-1.5,0.3-4.6,0.5-7"/>
</svg>
