<?xml version="1.0" encoding="iso-8859-1"?>
<!-- Generator: Adobe Illustrator 23.0.3, SVG Export Plug-In . SVG Version: 6.00 Build 0)  -->
<svg version="1.1" id="Layer_1" xmlns="http://www.w3.org/2000/svg" xmlns:xlink="http://www.w3.org/1999/xlink" x="0px" y="0px"
	 viewBox="0 0 50 50" style="enable-background:new 0 0 50 50;" xml:space="preserve">
<rect style="fill:none;" width="50" height="50"/>
<g>
	<path style="fill:none;stroke:#000000;stroke-width:2;stroke-linecap:round;stroke-linejoin:round;stroke-miterlimit:10;" d="
		M19,14c0,0,0,25.397,0,30c0,3.076,3,5,5,5h20.384C46.933,49,49,46.934,49,44.384V13.616C49,11.067,46.933,9,44.384,9H23.846
		C21.299,9,19,11.451,19,14z"/>
	
		<rect x="23" y="14" style="fill:none;stroke:#000000;stroke-width:2;stroke-linecap:round;stroke-linejoin:round;stroke-miterlimit:10;" width="22" height="29"/>
	<circle cx="34" cy="46" r="1.5"/>
</g>
<polyline style="fill:none;stroke:#000000;stroke-width:2;stroke-linecap:round;stroke-miterlimit:10;" points="1,11 7,17 13,11 "/>
<path style="fill:none;stroke:#000000;stroke-width:2;stroke-linecap:round;stroke-miterlimit:10;" d="M7,16.668
	c0,0,0-8.529,0-10.667c0-3.098,1.88-5,5-5c2.044,0,6.987,0,6.987,0"/>
</svg>
