<svg fill="#000000" xmlns="http://www.w3.org/2000/svg" viewBox="0 0 50 50" width="50px" height="50px"><path fill="none" stroke="#000000" stroke-linecap="round" stroke-linejoin="round" stroke-miterlimit="10" stroke-width="2" d="M33.018,37.977c5.383-0.507,9.979-2.237,9.979-6.9c0-2.827-1.653-5.077-6.528-5.077h-2.031"/><path fill="none" stroke="#000000" stroke-linecap="round" stroke-linejoin="round" stroke-miterlimit="10" stroke-width="2" d="M16.252 49c-.949 0-1.66-.831-1.723-1.765C13.293 28.966 10.508 20.461 10 19h26c-.508 1.461-3.293 9.966-4.529 28.235C31.408 48.169 30.697 49 29.748 49H16.252zM29.008 7c0 4.5-4.008 3.636-4.008 8M24 2c0 6.704-5.984 5.425-5.984 12"/></svg>