<?xml version="1.0" encoding="utf-8"?>
<!-- Generator: Adobe Illustrator 16.0.0, SVG Export Plug-In . SVG Version: 6.00 Build 0)  -->
<!DOCTYPE svg PUBLIC "-//W3C//DTD SVG 1.1//EN" "http://www.w3.org/Graphics/SVG/1.1/DTD/svg11.dtd">
<svg version="1.1" id="Layer_1" xmlns="http://www.w3.org/2000/svg" xmlns:xlink="http://www.w3.org/1999/xlink" x="0px" y="0px"
	 width="50px" height="50px" viewBox="0 0 50 50" enable-background="new 0 0 50 50" xml:space="preserve">
<path fill="none" stroke="#000000" stroke-width="2" stroke-linecap="round" stroke-miterlimit="10" d="M18,39v4c0,1.1,0.9,2,2,2h10
	c1.1,0,2-0.9,2-2v-4H18z"/>

<path fill="none" stroke="#000000" stroke-width="2" stroke-linejoin="round" stroke-miterlimit="10" d="M32,39c0-1,0-4.021,0-6
	c0-5.385,7-5.568,7-15c0-7.733-6.268-14-14-14s-14,6.267-14,14c0,9.633,7,10.692,7,15c0,1.305,0,6,0,6"/>
<path fill="none" stroke="#000000" stroke-width="2" stroke-linecap="round" stroke-miterlimit="10" d="M28,45c0,1.656-1.344,3-3,3
	s-3-1.344-3-3"/>
<line fill="none" stroke="#000000" stroke-width="2" stroke-miterlimit="10" x1="25" y1="23" x2="25" y2="36"/>
<polyline fill="none" stroke="#000000" stroke-width="2" stroke-linecap="round" stroke-miterlimit="10" points="21,19 25,23 29,19 
	"/>
</svg>
