<?xml version="1.0" encoding="utf-8"?>
<!-- Generator: Adobe Illustrator 24.0.1, SVG Export Plug-In . SVG Version: 6.00 Build 0)  -->
<svg version="1.1" id="Layer_1" xmlns="http://www.w3.org/2000/svg" xmlns:xlink="http://www.w3.org/1999/xlink" x="0px" y="0px"
	 viewBox="0 0 50 50" style="enable-background:new 0 0 50 50;" xml:space="preserve">
<style type="text/css">
	.st0{fill:none;stroke:#000000;stroke-width:2;stroke-linejoin:round;stroke-miterlimit:10;}
	.st1{fill:none;stroke:#000000;stroke-width:2;stroke-miterlimit:10;}
</style>
<path class="st0" d="M45.6,39.7c0.3-0.8,0.4-1.7,0.4-2.7s-0.1-1.8-0.4-2.7l0.2-0.1l1.5-1.4l-1.5-2.6l-2,0.6l-0.2,0.1
	c-1.2-1.3-2.8-2.2-4.6-2.7V28l-0.5-2h-3L35,28v0.2c-1.8,0.4-3.4,1.4-4.6,2.7l-0.2-0.1l-2-0.6l-1.5,2.6l1.5,1.4l0.2,0.1
	C28.1,35.2,28,36.1,28,37s0.1,1.8,0.4,2.7l-0.2,0.1l-1.5,1.4l1.5,2.6l2-0.6l0.2-0.1c1.2,1.3,2.8,2.2,4.6,2.7V46l0.5,2h3l0.5-2v-0.2
	c1.8-0.4,3.4-1.4,4.6-2.7l0.2,0.1l2,0.6l1.5-2.6l-1.5-1.4L45.6,39.7z"/>
<path class="st1" d="M37,33c-2.2,0-4,1.8-4,4s1.8,4,4,4s4-1.8,4-4S39.2,33,37,33z"/>
<path class="st0" d="M22.6,34.7c0.3-0.8,0.4-1.7,0.4-2.7s-0.1-1.8-0.4-2.7l0.2-0.1l1.5-1.4l-1.5-2.6l-2,0.6l-0.2,0.1
	c-1.2-1.3-2.8-2.2-4.6-2.7V23l-0.5-2h-3L12,23v0.2c-1.8,0.4-3.4,1.4-4.6,2.7l-0.2-0.1l-2-0.6l-1.5,2.6l1.5,1.4l0.2,0.1
	C5.1,30.2,5,31.1,5,32s0.1,1.8,0.4,2.7l-0.2,0.1l-1.5,1.4l1.5,2.6l2-0.6l0.2-0.1c1.2,1.3,2.8,2.2,4.6,2.7V41l0.5,2h3l0.5-2v-0.2
	c1.8-0.4,3.4-1.4,4.6-2.7l0.2,0.1l2,0.6l1.5-2.6l-1.5-1.4L22.6,34.7z"/>
<path class="st1" d="M14,28c-2.2,0-4,1.8-4,4s1.8,4,4,4s4-1.8,4-4S16.2,28,14,28z"/>
<path class="st0" d="M38.6,16.7c0.3-0.8,0.4-1.7,0.4-2.7s-0.1-1.8-0.4-2.7l0.2-0.1l1.5-1.4l-1.5-2.6l-2,0.6l-0.2,0.1
	c-1.2-1.3-2.8-2.2-4.6-2.7V5l-0.5-2h-3L28,5v0.2c-1.8,0.4-3.4,1.4-4.6,2.7l-0.2-0.1l-2-0.6l-1.5,2.6l1.5,1.4l0.2,0.1
	C21.1,12.2,21,13.1,21,14s0.1,1.8,0.4,2.7l-0.2,0.1l-1.5,1.4l1.5,2.6l2-0.6l0.2-0.1c1.2,1.3,2.8,2.2,4.6,2.7V23l0.5,2h3l0.5-2v-0.2
	c1.8-0.4,3.4-1.4,4.6-2.7l0.2,0.1l2,0.6l1.5-2.6l-1.5-1.4L38.6,16.7z"/>
<path class="st1" d="M30,10c-2.2,0-4,1.8-4,4s1.8,4,4,4s4-1.8,4-4S32.2,10,30,10z"/>
</svg>
