<?xml version="1.0" encoding="utf-8"?>
<!-- Generator: Adobe Illustrator 24.0.1, SVG Export Plug-In . SVG Version: 6.00 Build 0)  -->
<svg version="1.1" id="Layer_1" xmlns="http://www.w3.org/2000/svg" xmlns:xlink="http://www.w3.org/1999/xlink" x="0px" y="0px"
	 viewBox="0 0 50 50" style="enable-background:new 0 0 50 50;" xml:space="preserve">
<style type="text/css">
	.st0{fill:none;stroke:#000000;stroke-width:2;stroke-miterlimit:10;}
	.st1{fill:none;stroke:#000000;stroke-width:2;stroke-linejoin:round;stroke-miterlimit:10;}
</style>
<path class="st0" d="M29,13c-2.2,0-4,1.8-4,4s1.8,4,4,4s4-1.8,4-4S31.2,13,29,13L29,13z"/>
<line class="st0" x1="29" y1="10" x2="29" y2="13"/>
<line class="st0" x1="29" y1="21" x2="29" y2="24"/>
<line class="st0" x1="36" y1="17" x2="33" y2="17"/>
<line class="st0" x1="25" y1="17" x2="22" y2="17"/>
<line class="st0" x1="34" y1="12" x2="31.8" y2="14.2"/>
<line class="st0" x1="26.2" y1="19.8" x2="24" y2="21.9"/>
<line class="st0" x1="34" y1="21.9" x2="31.8" y2="19.8"/>
<line class="st0" x1="26.2" y1="14.2" x2="24" y2="12"/>
<ellipse class="st0" cx="17" cy="25" rx="4" ry="4"/>
<line class="st0" x1="17" y1="18" x2="17" y2="21"/>
<line class="st0" x1="17" y1="29" x2="17" y2="32"/>
<line class="st0" x1="24" y1="25" x2="21" y2="25"/>
<line class="st0" x1="13" y1="25" x2="10" y2="25"/>
<line class="st0" x1="22" y1="20.1" x2="19.8" y2="22.2"/>
<line class="st0" x1="14.2" y1="27.8" x2="12.1" y2="30"/>
<line class="st0" x1="22" y1="30" x2="19.8" y2="27.8"/>
<line class="st0" x1="14.2" y1="22.2" x2="12.1" y2="20.1"/>
<path class="st1" d="M10.2,45.9L12,36c-1.8,0-2.6-1-2.9-2c-0.3,0-0.2,0-0.6,0C6,34,4,32,4,29c0-0.7,0-0.5,0-1.4c-1.4-0.6-2-2-2-3.4
	c0-1.4,0.9-2.5,2-3.3c-1.1-0.6-2-2.1-2-3.5c0-1.4,0.8-2.7,2-3.3c0-0.1,0-0.1,0-0.3c0-3.3,2.7-6.1,6-6c0.2,0,0.6,0,0.9,0
	c1-1.8,2.5-3,4.8-3c1.8,0,2.8,0.6,3.3,1c1.1-1,2.5-2,4.6-2C26,4,27.6,4.6,29,6c1.5-0.9,2.6-1,4.3-1c2.7,0,5.3,1.7,6.3,4
	c2.7,0,4.9,1.9,5.4,4.4c1.7,0.4,3.1,1.3,3.1,3.5c0,1.6-0.8,2.3-1,2.6c0,0,1,0.8,1,2.8c0,1.9-1.3,3.8-4.6,3.8c-0.1,0-0.2,0-0.3,0
	c-0.6,1.7-2.5,2-3.8,2c-0.4,0-1.3,0-1.3,0c-0.4,1-1.1,2-2.6,2c-1.3,0-1.9-0.5-2.4-1c-0.4,1.6-2.3,3-4,3c-0.3,0,0,0-1,0
	c0,3.3-2.7,6-6,6c-4.1,0-6.7,3.6-7.8,7.8"/>
<polygon points="9.5,44 9,47 11,47 11.6,44 "/>
<path d="M15,47c0.1-0.5,0.2-1,0.2-1c0.1-0.5,0.3-1.2,0.6-2h-2.1c-0.2,0.5-0.3,1-0.5,1.5c0,0-0.2,0.8-0.3,1.5H15z"/>
</svg>
