<?xml version="1.0" encoding="UTF-8" standalone="yes"?>
<svg xmlns="http://www.w3.org/2000/svg" xmlns:xlink="http://www.w3.org/1999/xlink" width="50px" height="50px" viewBox="0 0 50 50" version="1.1" fill="#000000">
  <g id="surface16242">
    <path style=" stroke:none;fill-rule:nonzero;fill:#000000;fill-opacity:1;" d="M 25 2 C 12.308594 2 2 12.308594 2 25 C 2 37.691406 12.308594 48 25 48 C 37.691406 48 48 37.691406 48 25 C 48 12.308594 37.691406 2 25 2 Z M 25 4 C 36.609375 4 46 13.390625 46 25 C 46 36.609375 36.609375 46 25 46 C 13.390625 46 4 36.609375 4 25 C 4 13.390625 13.390625 4 25 4 Z M 30.691406 14.058594 C 27.09375 14.058594 24.152344 17 24.152344 20.597656 C 24.152344 20.621094 24.160156 20.648438 24.160156 20.671875 C 20.347656 20.164062 16.972656 18.28125 14.65625 15.4375 C 14.445312 15.183594 14.128906 15.050781 13.800781 15.074219 C 13.472656 15.101562 13.179688 15.285156 13.015625 15.566406 C 12.453125 16.535156 12.128906 17.664062 12.128906 18.859375 C 12.128906 19.917969 12.425781 20.90625 12.878906 21.796875 C 12.417969 21.894531 12.085938 22.300781 12.085938 22.773438 L 12.085938 22.84375 C 12.085938 24.777344 12.992188 26.453125 14.332031 27.652344 C 14.058594 27.917969 13.957031 28.3125 14.074219 28.675781 C 14.628906 30.414062 15.933594 31.773438 17.5625 32.542969 C 16.257812 33.152344 14.859375 33.589844 13.320312 33.589844 C 12.910156 33.589844 12.511719 33.566406 12.121094 33.515625 C 11.65625 33.460938 11.214844 33.734375 11.058594 34.171875 C 10.898438 34.613281 11.066406 35.101562 11.460938 35.355469 C 14.066406 37.023438 17.167969 38 20.488281 38 C 25.859375 38 30.105469 35.742188 32.941406 32.527344 C 35.78125 29.308594 37.253906 25.152344 37.253906 21.238281 C 37.253906 21.121094 37.25 21.011719 37.246094 20.894531 C 38.21875 20.113281 39.136719 19.25 39.828125 18.210938 C 40.066406 17.859375 40.054688 17.398438 39.800781 17.058594 C 39.546875 16.71875 39.109375 16.574219 38.703125 16.699219 C 38.867188 16.382812 39.09375 16.113281 39.203125 15.769531 C 39.332031 15.375 39.199219 14.941406 38.875 14.683594 C 38.550781 14.425781 38.101562 14.390625 37.746094 14.605469 C 36.871094 15.121094 35.886719 15.464844 34.871094 15.703125 C 33.726562 14.726562 32.304688 14.058594 30.691406 14.058594 Z M 30.691406 16.058594 C 32.003906 16.058594 33.179688 16.605469 34.003906 17.488281 C 34.242188 17.742188 34.589844 17.855469 34.925781 17.789062 C 35.078125 17.757812 35.203125 17.664062 35.351562 17.625 C 35.332031 17.636719 35.320312 17.660156 35.300781 17.671875 C 34.914062 17.902344 34.730469 18.367188 34.855469 18.800781 C 34.980469 19.234375 35.378906 19.535156 35.832031 19.527344 C 35.761719 19.578125 35.722656 19.664062 35.652344 19.714844 C 35.378906 19.910156 35.222656 20.230469 35.238281 20.566406 C 35.246094 20.789062 35.253906 21.015625 35.253906 21.238281 C 35.253906 24.644531 33.941406 28.371094 31.441406 31.203125 C 28.945312 34.035156 25.308594 36 20.488281 36 C 18.835938 36 17.28125 35.667969 15.800781 35.167969 C 17.644531 34.777344 19.386719 34.125 20.816406 33.003906 C 21.148438 32.742188 21.28125 32.300781 21.144531 31.902344 C 21.011719 31.5 20.640625 31.226562 20.21875 31.21875 C 18.804688 31.191406 17.710938 30.390625 16.898438 29.359375 C 17.199219 29.320312 17.507812 29.320312 17.792969 29.238281 C 18.238281 29.117188 18.542969 28.703125 18.527344 28.242188 C 18.511719 27.777344 18.179688 27.386719 17.722656 27.296875 C 16.074219 26.960938 14.785156 25.722656 14.3125 24.121094 C 14.738281 24.222656 15.109375 24.453125 15.5625 24.46875 C 16.007812 24.480469 16.410156 24.199219 16.546875 23.773438 C 16.683594 23.347656 16.519531 22.886719 16.152344 22.636719 C 14.929688 21.820312 14.128906 20.441406 14.128906 18.859375 C 14.128906 18.53125 14.304688 18.269531 14.371094 17.964844 C 17.210938 20.777344 20.992188 22.644531 25.25 22.859375 C 25.5625 22.875 25.867188 22.742188 26.066406 22.5 C 26.269531 22.257812 26.34375 21.933594 26.269531 21.628906 C 26.195312 21.300781 26.152344 20.957031 26.152344 20.597656 C 26.152344 18.078125 28.171875 16.058594 30.691406 16.058594 Z M 30.691406 16.058594 "/>
  </g>
</svg>