<?xml version="1.0" encoding="utf-8"?>
<!-- Generator: Adobe Illustrator 23.0.3, SVG Export Plug-In . SVG Version: 6.00 Build 0)  -->
<svg version="1.1" id="Layer_1" xmlns="http://www.w3.org/2000/svg" xmlns:xlink="http://www.w3.org/1999/xlink" x="0px" y="0px"
	 viewBox="0 0 50 50" style="enable-background:new 0 0 50 50;" xml:space="preserve">
<style type="text/css">
	.st0{fill:none;stroke:#000000;stroke-width:2;stroke-linecap:round;stroke-linejoin:round;}
</style>
<path d="M32,17c-1.4,0-2.5,1.8-2.5,4s1.1,4,2.5,4c1.4,0,2.5-1.8,2.5-4S33.4,17,32,17z"/>
<path class="st0" d="M18,40c0,0,3.3-6,15-6"/>
<path class="st0" d="M35.8,14.8c-1-1.3-2.5-2.8-4.8-2.8c-2,0-3.1,1-3.1,1"/>
<path d="M18,17c-1.4,0-2.5,1.8-2.5,4s1.1,4,2.5,4s2.5-1.8,2.5-4S19.4,17,18,17z"/>
<path class="st0" d="M14.2,13.8c1-1.3,2.5-2.8,4.8-2.8c2,0,3.1,1,3.1,1"/>
<path d="M0.6,4.1c0.7-1.3,1.9-2.3,3.6-2.8c1.6-0.5,3-0.4,4.2,0.2s2,1.6,2.4,3c0.2,0.8,0.3,1.6,0.1,2.2s-0.7,1.6-1.5,2.9
	c-0.6,1-0.9,1.7-1,2.3s0,1.4,0.3,2.4l-2,0.7c-0.3-1.1-0.5-2.1-0.4-2.9c0.1-0.8,0.4-1.8,1.1-2.9L8.1,8c0.2-0.4,0.4-0.7,0.5-1.1
	c0.2-0.6,0.2-1.2,0-1.8C8.3,4.4,7.9,3.8,7.3,3.4S5.7,2.9,4.6,3.2C3.3,3.6,2.5,4.4,2.3,5.5C2.1,6.1,2.2,7,2.5,8L0.3,8.6
	C-0.2,6.9-0.1,5.4,0.6,4.1z M7.2,17l2.4-0.7l0.7,2.5l-2.4,0.7L7.2,17z"/>
<path class="st0" d="M14,6.9C17.3,5.1,21,4,25,4c12.2,0,22,9.8,22,22s-9.8,22-22,22S3,38.2,3,26c0-2.7,0.5-5.3,1.4-7.7"/>
</svg>
