<?xml version="1.0" encoding="utf-8"?>
<!-- Generator: Adobe Illustrator 24.0.1, SVG Export Plug-In . SVG Version: 6.00 Build 0)  -->
<svg version="1.1" id="Layer_1" xmlns="http://www.w3.org/2000/svg" xmlns:xlink="http://www.w3.org/1999/xlink" x="0px" y="0px"
	 viewBox="0 0 50 50" style="enable-background:new 0 0 50 50;" xml:space="preserve">
<style type="text/css">
	.st0{fill:none;stroke:#000000;stroke-width:2;stroke-linecap:round;stroke-linejoin:round;stroke-miterlimit:10;}
</style>
<path class="st0" d="M47,21h-3v-4c0-2.2-1.8-4-4-4H8c-2.2,0-4,1.8-4,4v16c0,2.2,1.8,4,4,4h32c2.2,0,4-1.8,4-4v-4h3V21z"/>
<line class="st0" x1="8" y1="17" x2="8" y2="33"/>
<line class="st0" x1="12" y1="17" x2="12" y2="33"/>
<line class="st0" x1="16" y1="17" x2="16" y2="33"/>
<line class="st0" x1="20" y1="17" x2="20" y2="33"/>
<line class="st0" x1="24" y1="17" x2="24" y2="33"/>
<line class="st0" x1="28" y1="17" x2="28" y2="33"/>
</svg>
