<?xml version="1.0" encoding="iso-8859-1"?>
<!-- Generator: Adobe Illustrator 24.0.0, SVG Export Plug-In . SVG Version: 6.00 Build 0)  -->
<svg version="1.1" xmlns="http://www.w3.org/2000/svg" xmlns:xlink="http://www.w3.org/1999/xlink" x="0px" y="0px"
	 viewBox="0 0 50 50" style="enable-background:new 0 0 50 50;" xml:space="preserve">
<g id="Birthday_Cake_and_Candle">
	<g>
		<path style="fill:none;stroke:#000000;stroke-width:2;stroke-miterlimit:10;" d="M44,43H6v-9c0-2.761,2.239-5,5-5h28
			c2.761,0,5,2.239,5,5V43z"/>
		<path style="fill:none;stroke:#000000;stroke-width:2;stroke-miterlimit:10;" d="M43,47H7c-2.209,0-4-1.791-4-4h44
			C47,45.209,45.209,47,43,47z"/>
		<path style="fill:none;stroke:#000000;stroke-width:2;stroke-linecap:round;stroke-linejoin:round;stroke-miterlimit:10;" d="
			M44,35c0,0-1.562,3-5,3s-6-3-6-3s-3,3-8,3s-8-3-8-3s-2.562,3-6,3s-5-3-5-3"/>
	</g>
	<g>
		<path style="fill:none;stroke:#000000;stroke-width:2;stroke-miterlimit:10;" d="M21,29V19c0-1.105,0.895-2,2-2h4
			c1.105,0,2,0.895,2,2v10"/>
		<path style="fill:none;stroke:#000000;stroke-width:2;stroke-linecap:round;stroke-miterlimit:10;" d="M25,17v-5"/>
	</g>
</g>
<g id="Fire">
	<path style="fill:none;stroke:#000000;stroke-width:2;stroke-miterlimit:10;" d="M29,10c0,2.209-1.791,4-4,4s-4-1.791-4-4s4-7,4-7
		S29,7.791,29,10z"/>
</g>
</svg>
