<?xml version="1.0" encoding="utf-8"?>
<!-- Generator: Adobe Illustrator 24.0.0, SVG Export Plug-In . SVG Version: 6.00 Build 0)  -->
<svg version="1.1" xmlns="http://www.w3.org/2000/svg" xmlns:xlink="http://www.w3.org/1999/xlink" x="0px" y="0px"
	 viewBox="0 0 50 50" style="enable-background:new 0 0 50 50;" xml:space="preserve">
<style type="text/css">
	.st0{fill:none;stroke:#000000;stroke-width:2;stroke-linecap:round;stroke-miterlimit:10;}
	.st1{fill:none;stroke:#000000;stroke-width:2;stroke-miterlimit:10;}
</style>
<g id="Archive">
	<path class="st0" d="M8,3h34v44H8V3z"/>
</g>
<g id="L_Zipper">
	<g>
		<path class="st0" d="M8,3l15.1,21"/>
		<line class="st1" x1="12.4" y1="9.1" x2="14.5" y2="7.6"/>
		<line class="st1" x1="16.6" y1="10.6" x2="14.5" y2="12.1"/>
		<line class="st1" x1="16.6" y1="15" x2="18.7" y2="13.5"/>
		<line class="st1" x1="20.9" y1="16.4" x2="18.7" y2="17.9"/>
		<line class="st1" x1="23" y1="19.4" x2="20.8" y2="20.9"/>
	</g>
</g>
<g id="R_Zipper">
	<g>
		<path class="st1" d="M33.4,10.6l2.1,1.5 M33.4,15l-2.1-1.5 M29.1,16.4l2.1,1.5 M27,19.4l2.1,1.5"/>
		<line class="st0" x1="42" y1="3" x2="26.9" y2="24"/>
		<line class="st1" x1="37.6" y1="9.1" x2="35.5" y2="7.6"/>
	</g>
</g>
<g id="Lock">
	<g>
		<path class="st1" d="M23,28c0,0-2,4.6-2,6.1c0,2.1,1.8,3.9,4,3.9s4-1.7,4-3.9c0-1.6-2-6.1-2-6.1H23z"/>
		<path d="M25,32.8c-0.8,0-1.4,0.6-1.4,1.4s0.6,1.4,1.4,1.4s1.4-0.6,1.4-1.4S25.8,32.8,25,32.8z"/>
		<path class="st1" d="M27,28h-4c-0.6,0-1-0.4-1-1v-2c0-0.6,0.4-1,1-1h4c0.6,0,1,0.4,1,1v2C28,27.6,27.6,28,27,28z"/>
	</g>
</g>
</svg>
