<?xml version="1.0" encoding="utf-8"?>
<!-- Generator: Adobe Illustrator 24.0.1, SVG Export Plug-In . SVG Version: 6.00 Build 0)  -->
<svg version="1.1" id="Layer_1" xmlns="http://www.w3.org/2000/svg" xmlns:xlink="http://www.w3.org/1999/xlink" x="0px" y="0px"
	 viewBox="0 0 50 50" style="enable-background:new 0 0 50 50;" xml:space="preserve">
<style type="text/css">
	.st0{fill:none;stroke:#000000;stroke-width:2;stroke-linecap:round;stroke-miterlimit:10;}
</style>
<path class="st0" d="M25,3C12.8,3,3,12.8,3,25s9.8,22,22,22s22-9.8,22-22S37.2,3,25,3z"/>
<circle class="st0" cx="25" cy="25" r="8"/>
<line class="st0" x1="25" y1="3" x2="25" y2="17"/>
<line class="st0" x1="33.1" y1="5.1" x2="25.2" y2="13"/>
<line class="st0" x1="28.7" y1="3.4" x2="25.4" y2="6.8"/>
<line class="st0" x1="37.3" y1="6.8" x2="27" y2="17.1"/>
<line class="st0" x1="31" y1="19.2" x2="40.8" y2="9.8"/>
<line class="st0" x1="31" y1="31" x2="40.3" y2="40.3"/>
<circle cx="45" cy="34" r="1"/>
<circle cx="45" cy="28" r="1"/>
<circle cx="45" cy="22" r="1"/>
<circle cx="45" cy="16" r="1"/>
<circle cx="42" cy="37" r="1"/>
<circle cx="42" cy="31" r="1"/>
<circle cx="42" cy="25" r="1"/>
<circle cx="42" cy="19" r="1"/>
<circle cx="36" cy="25" r="1"/>
<circle cx="36" cy="19" r="1"/>
<circle cx="42" cy="13" r="1"/>
<circle cx="39" cy="34" r="1"/>
<circle cx="39" cy="28" r="1"/>
<circle cx="39" cy="22" r="1"/>
<circle cx="33" cy="28" r="1"/>
<circle cx="33" cy="22" r="1"/>
<circle cx="39" cy="16" r="1"/>
<circle cx="36" cy="31" r="1"/>
</svg>
