<?xml version="1.0" encoding="utf-8"?>
<!-- Generator: Adobe Illustrator 24.0.1, SVG Export Plug-In . SVG Version: 6.00 Build 0)  -->
<svg version="1.1" id="Layer_1" xmlns="http://www.w3.org/2000/svg" xmlns:xlink="http://www.w3.org/1999/xlink" x="0px" y="0px"
	 viewBox="0 0 50 50" style="enable-background:new 0 0 50 50;" xml:space="preserve">
<style type="text/css">
	.st0{fill:none;stroke:#000000;stroke-width:2;stroke-miterlimit:10;}
	.st1{fill:none;stroke:#000000;stroke-width:2;stroke-linecap:round;stroke-miterlimit:10;}
</style>
<path class="st0" d="M25,14C13.4,14,4,20.7,4,29s9.4,15,21,15s21-6.7,21-15S36.6,14,25,14L25,14z"/>
<path class="st0" d="M33,23c-1.7,0-3,1.3-3,3s1.3,3,3,3c1.7,0,3-1.3,3-3S34.7,23,33,23z M17,23c-1.7,0-3,1.3-3,3s1.3,3,3,3
	s3-1.3,3-3S18.7,23,17,23z"/>
<path class="st1" d="M15.9,35c0,0,2.6,3.7,9.1,3.7s9.1-3.7,9.1-3.7"/>
<path class="st0" d="M25,14c0-6,1.2-10,4-10s2.6,4,8,4 M39.3,17.3c1.8-1.8,4.6-1.8,6.4,0s1.8,4.6,0,6.4l-0.4,0.4 M10.7,17.3
	c-1.8-1.8-4.6-1.8-6.4,0s-1.8,4.6,0,6.4l0.4,0.4"/>
<path class="st0" d="M41,4c-2.2,0-4,1.8-4,4s1.8,4,4,4s4-1.8,4-4S43.2,4,41,4z"/>
</svg>
