<?xml version="1.0" encoding="utf-8"?>
<!-- Generator: Adobe Illustrator 24.0.1, SVG Export Plug-In . SVG Version: 6.00 Build 0)  -->
<svg version="1.1" id="Layer_1" xmlns="http://www.w3.org/2000/svg" xmlns:xlink="http://www.w3.org/1999/xlink" x="0px" y="0px"
	 viewBox="0 0 50 50" style="enable-background:new 0 0 50 50;" xml:space="preserve">
<style type="text/css">
	.st0{fill:none;stroke:#000000;stroke-width:2;stroke-linecap:round;stroke-linejoin:round;stroke-miterlimit:10;}
	.st1{fill:none;stroke:#000000;stroke-width:2;stroke-linejoin:round;stroke-miterlimit:10;}
</style>
<path class="st0" d="M25,47v-5 M25,32V3 M28,38h-6c-1.1,0-2-0.9-2-2v-2c0-1.1,0.9-2,2-2h6c1.1,0,2,0.9,2,2v2C30,37.1,29.1,38,28,38z
	 M42,14V3 M45,20h-6c-1.1,0-2-0.9-2-2v-2c0-1.1,0.9-2,2-2h6c1.1,0,2,0.9,2,2v2C47,19.1,46.1,20,45,20z M8,47V26"/>
<path class="st1" d="M8,40V19"/>
<path class="st0" d="M42,47V29"/>
<path class="st1" d="M42,43V22 M25,44v-4"/>
<path class="st0" d="M8,11V3 M11,17H5c-1.1,0-2-0.9-2-2v-2c0-1.1,0.9-2,2-2h6c1.1,0,2,0.9,2,2v2C13,16.1,12.1,17,11,17z"/>
</svg>
