<?xml version="1.0" encoding="utf-8"?>
<!-- Generator: Adobe Illustrator 24.0.0, SVG Export Plug-In . SVG Version: 6.00 Build 0)  -->
<svg version="1.1" xmlns="http://www.w3.org/2000/svg" xmlns:xlink="http://www.w3.org/1999/xlink" x="0px" y="0px"
	 viewBox="0 0 50 50" style="enable-background:new 0 0 50 50;" xml:space="preserve">
<style type="text/css">
	.st0{fill:none;stroke:#000000;stroke-width:2;stroke-linecap:round;stroke-linejoin:round;stroke-miterlimit:10;}
</style>
<g id="Layer_2">
</g>
<g id="Layer_7">
	<path class="st0" d="M33,42H17c-1.7,0-3,1.3-3,3v1h22v-1C36,43.3,34.7,42,33,42z"/>
</g>
<g id="Layer_6">
	<rect x="20" y="37" class="st0" width="10" height="5"/>
</g>
<g id="Layer_5">
	<path class="st0" d="M45,37H5c-1.1,0-2-0.9-2-2V7c0-1.1,0.9-2,2-2h40c1.1,0,2,0.9,2,2v28C47,36.1,46.1,37,45,37z"/>
</g>
<g id="Layer_4">
	<line class="st0" x1="3" y1="29" x2="47" y2="29"/>
</g>
<g id="Button">
	<rect x="41" y="32" width="2" height="2"/>
</g>
</svg>
