<?xml version="1.0" encoding="utf-8"?>
<!-- Generator: Adobe Illustrator 24.0.1, SVG Export Plug-In . SVG Version: 6.00 Build 0)  -->
<svg version="1.1" id="Layer_1" xmlns="http://www.w3.org/2000/svg" xmlns:xlink="http://www.w3.org/1999/xlink" x="0px" y="0px"
	 viewBox="0 0 50 50" style="enable-background:new 0 0 50 50;" xml:space="preserve">
<style type="text/css">
	.st0{fill:none;stroke:#000000;stroke-width:2;stroke-linecap:round;stroke-miterlimit:10;}
</style>
<line class="st0" x1="8" y1="34.8" x2="8" y2="25.3"/>
<line class="st0" x1="4" y1="32.3" x2="12" y2="27.7"/>
<line class="st0" x1="12" y1="32.3" x2="4" y2="27.7"/>
<line class="st0" x1="19" y1="47.8" x2="19" y2="38.3"/>
<line class="st0" x1="15" y1="45.3" x2="23" y2="40.7"/>
<line class="st0" x1="23" y1="45.3" x2="15" y2="40.7"/>
<line class="st0" x1="35.2" y1="46" x2="32.8" y2="40"/>
<line class="st0" x1="31" y1="44.2" x2="37" y2="41.8"/>
<line class="st0" x1="44.8" y1="38" x2="43.2" y2="34"/>
<line class="st0" x1="42" y1="36.8" x2="46" y2="35.2"/>
<line class="st0" x1="16" y1="20" x2="16" y2="6"/>
<line class="st0" x1="10" y1="16.5" x2="22" y2="9.5"/>
<line class="st0" x1="22" y1="16.5" x2="10" y2="9.5"/>
<g id="Snowflake_1">
	<line id="Group_12" class="st0" x1="35.9" y1="17.4" x2="35.9" y2="1.4"/>
	<line id="Group_11" class="st0" x1="34.4" y1="3.4" x2="37.4" y2="3.4"/>
	<line id="Group_10" class="st0" x1="34.4" y1="15.4" x2="37.4" y2="15.4"/>
	<line id="Group_9" class="st0" x1="42.8" y1="13.4" x2="28.9" y2="5.4"/>
	<line id="Group_8" class="st0" x1="29.9" y1="7.7" x2="31.4" y2="5.1"/>
	<line id="Group_7" class="st0" x1="40.3" y1="13.7" x2="41.8" y2="11.1"/>
	<line id="Group_6" class="st0" x1="28.9" y1="13.4" x2="42.8" y2="5.4"/>
	<line id="Group_5" class="st0" x1="41.8" y1="7.7" x2="40.3" y2="5.1"/>
	<line id="Group_4" class="st0" x1="31.4" y1="13.7" x2="29.9" y2="11.1"/>
</g>
</svg>
