<?xml version="1.0" encoding="utf-8"?>
<!-- Generator: Adobe Illustrator 22.1.0, SVG Export Plug-In . SVG Version: 6.00 Build 0)  -->
<svg version="1.1" xmlns="http://www.w3.org/2000/svg" xmlns:xlink="http://www.w3.org/1999/xlink" x="0px" y="0px"
	 viewBox="0 0 50 50" style="enable-background:new 0 0 50 50;" xml:space="preserve">
<style type="text/css">
	.st0{fill:none;stroke:#000000;stroke-width:2;stroke-linecap:round;stroke-linejoin:round;stroke-miterlimit:10;}
	.st1{fill:none;stroke:#000000;stroke-width:2;stroke-linejoin:round;stroke-miterlimit:10;}
</style>
<g id="Layer_1">
</g>
<g id="wave1">
	<g>
		<path class="st0" d="M31.3,44.5c3.4,3.7,9.1,3.7,12.5,0"/>
		<path class="st0" d="M18.8,44.5c3.4,3.7,9.1,3.7,12.5,0"/>
		<path class="st0" d="M6.3,44.5c3.4,3.7,9.1,3.7,12.5,0"/>
		<path class="st1" d="M0.1,47.2c2.3,0,4.5-0.9,6.2-2.7"/>
		<path class="st1" d="M50,47.2c-2.3,0-4.5-0.9-6.2-2.7"/>
	</g>
</g>
<g id="oar">
	<line class="st0" x1="14.3" y1="47" x2="4" y2="24.2"/>
	<line class="st0" x1="37.3" y1="47" x2="27.1" y2="24.2"/>
</g>
<g id="body">
	<path class="st0" d="M25.2,33.9l-6.4-12.8c-0.5-1-1.6-1.1-2.8-1.1h-5H4c-1.1,0-2,0.9-2,2s0.9,2,2,2h9l3.5,7l-4-1.4
		c-0.6-0.1-1.1,0.1-1.5,0.5l-0.3,0.4"/>
	<path class="st0" d="M48.3,33.9l-6.4-12.8c-0.5-1-1.6-1.1-2.8-1.1h-5h-7c-1.1,0-2,0.9-2,2s0.9,2,2,2h9l3.5,7l-4-1.4
		c-0.6-0.1-1.1,0.1-1.5,0.5l-0.3,0.4"/>
</g>
<g id="head">
	<circle class="st0" cx="12.1" cy="12" r="4"/>
	<circle class="st0" cx="35.1" cy="12" r="4"/>
</g>
<g id="boat3">
	<line class="st0" x1="36" y1="34" x2="49" y2="34"/>
</g>
<g id="boat2">
	<line class="st0" x1="13" y1="34" x2="31" y2="34"/>
</g>
<g id="boat1">
	<line class="st0" x1="1" y1="34" x2="8" y2="34"/>
</g>
</svg>
