<?xml version="1.0" encoding="utf-8"?>
<!-- Generator: Adobe Illustrator 24.0.1, SVG Export Plug-In . SVG Version: 6.00 Build 0)  -->
<svg version="1.1" id="Layer_1" xmlns="http://www.w3.org/2000/svg" xmlns:xlink="http://www.w3.org/1999/xlink" x="0px" y="0px"
	 viewBox="0 0 50 50" style="enable-background:new 0 0 50 50;" xml:space="preserve">
<style type="text/css">
	.st0{fill:none;stroke:#000000;stroke-width:2;stroke-miterlimit:10;}
	.st1{fill:none;stroke:#000000;stroke-width:2;stroke-linecap:round;stroke-miterlimit:10;}
</style>
<path class="st0" d="M26,13c-6.1,0-11,4.9-11,11s4.9,11,11,11s11-4.9,11-11S32.1,13,26,13L26,13z"/>
<g>
	<circle class="st0" cx="41" cy="9" r="4"/>
	<circle class="st0" cx="43" cy="38" r="4"/>
	<circle class="st0" cx="23" cy="43" r="4"/>
	<circle class="st0" cx="7" cy="31" r="4"/>
	<circle class="st0" cx="18" cy="7" r="4"/>
	<g>
		<line class="st0" x1="38.1" y1="11.9" x2="33.8" y2="16.2"/>
		<line class="st0" x1="19.7" y1="10.5" x2="21.3" y2="14"/>
		<line class="st0" x1="23.7" y1="39.1" x2="24.2" y2="34.9"/>
		<line class="st0" x1="39.9" y1="35.5" x2="34.5" y2="31"/>
		<line class="st0" x1="10.7" y1="29.5" x2="15.7" y2="28"/>
	</g>
</g>
<path class="st1" d="M33.4,32c-1.4-1.8-4.8-1.5-5.4-3v-1.8c0.3-0.2,0.9-1.4,1-2.3c0.3,0,0.8-0.3,1-1.3c0.1-0.5-0.1-0.9-0.3-1
	c0.2-0.5,0.3-1.3,0.3-2.3c0-1.2-0.5-2.5-2.1-2.7c-0.3-0.5-1-0.8-1.9-0.8c-2.8,0-4,1.5-4,3.6c0,0.7,0,1.4,0.3,2.1
	c-0.2,0.1-0.3,0.5-0.3,1c0.1,0.9,0.7,1.3,1,1.3c0.1,0.8,0.7,2.1,1,2.3V29c-0.6,1.5-4,1.3-5.4,3"/>
</svg>
