<?xml version="1.0" encoding="utf-8"?>
<!-- Generator: Adobe Illustrator 24.0.1, SVG Export Plug-In . SVG Version: 6.00 Build 0)  -->
<svg version="1.1" id="Layer_1" xmlns="http://www.w3.org/2000/svg" xmlns:xlink="http://www.w3.org/1999/xlink" x="0px" y="0px"
	 viewBox="0 0 50 50" style="enable-background:new 0 0 50 50;" xml:space="preserve">
<style type="text/css">
	.st0{fill:none;stroke:#000000;stroke-width:2;stroke-linecap:round;stroke-linejoin:round;stroke-miterlimit:10;}
</style>
<path class="st0" d="M29.4,30.7c-0.1-1.5-0.1-2.5-0.1-3.8c0.7-0.3,1.8-2.6,2-4.4c0.5,0,1.3-0.6,1.6-2.6c0.1-1.1-0.3-1.8-0.7-1.9
	c1.6-2,1.3-10.2-4.6-10.2L26.8,6c-8.4,0-11.5,6.5-9.1,12c-0.3,0.2-0.8,0.8-0.7,1.9c0.2,2,1.1,2.5,1.6,2.6c0.2,1.9,1.4,4.1,2.1,4.4
	c0,1.3,0,2.4-0.1,3.8C19,34.9,8.4,33.7,7.9,42h34.2C41.6,33.7,31,34.9,29.4,30.7z"/>
<g>
	<path d="M8,40.1H1c-0.3,0-0.5-0.1-0.7-0.3S0,39.3,0,39c0.3-4.5,3.9-5.9,6.5-7c1.5-0.6,2.8-1.2,3.2-2c0.1-0.9,0.1-1.6,0.1-2.3
		c-0.6-0.7-1.2-2-1.5-3.2c-0.5-0.3-1.1-1-1.3-2.6c-0.1-0.7,0.1-1.4,0.3-1.8c-0.8-2.3-0.6-4.7,0.7-6.6c1.5-2.2,4.1-3.5,7.4-3.5
		c0.4,0,0.7,0.2,0.9,0.6l0.4,0.9c0.2,0,0.5,0.1,0.7,0.1c0.5,0.2,0.8,0.7,0.6,1.3c-0.2,0.5-0.7,0.8-1.3,0.6c-0.1,0-0.5,0-0.7,0
		c-0.4,0-0.7-0.2-0.9-0.6L14.8,12c-2.3,0.1-4.1,1-5.1,2.6c-1,1.5-1.1,3.5-0.3,5.3c0.2,0.4,0,1-0.3,1.2C9,21.2,9,21.4,9,21.7
		c0.1,0.7,0.3,1,0.3,1.1c0.4,0.1,0.8,0.4,0.9,0.9c0.2,1.2,0.9,2.6,1.2,2.8c0.3,0.2,0.4,0.5,0.4,0.8c0,1,0,1.8-0.1,3.1
		c0,0.1,0,0.2-0.1,0.3c-0.6,1.7-2.5,2.5-4.4,3.3c-2.3,0.9-4.4,1.8-5.1,4.2H8c0.6,0,1,0.4,1,1S8.6,40.1,8,40.1z M9.4,22.8L9.4,22.8
		L9.4,22.8z M9.2,22.8C9.2,22.8,9.2,22.8,9.2,22.8C9.2,22.8,9.2,22.8,9.2,22.8z M8.9,21.2C8.9,21.2,8.9,21.2,8.9,21.2
		C8.9,21.2,8.9,21.2,8.9,21.2z"/>
</g>
<g>
	<path d="M49,40h-7c-0.6,0-1-0.4-1-1s0.4-1,1-1h5.8c-0.6-2.4-2.8-3.3-5-4.2c-1.9-0.8-3.7-1.5-4.4-3.3c0-0.1,0-0.2-0.1-0.3
		c-0.1-1.1-0.1-2-0.1-3.1c0-0.4,0.2-0.7,0.5-0.9c0.2-0.2,0.9-1.5,1-2.6c0-0.5,0.4-0.9,0.9-0.9c0.1-0.1,0.2-0.4,0.3-1.1
		c0-0.3,0-0.4,0-0.5c-0.2-0.1-0.3-0.3-0.4-0.5c-0.1-0.3,0-0.6,0.2-0.9c0.5-0.6,0.7-3-0.1-4.7c-0.5-1.1-1.4-1.6-2.6-1.6
		c-0.4,0-0.8-0.2-0.9-0.6L36.7,12c-1.4,0.1-2.7,0.3-3.7,0.7c-0.5,0.2-1.1,0-1.3-0.5c-0.2-0.5,0-1.1,0.5-1.3c1.4-0.6,3.1-0.9,5.1-0.9
		c0.4,0,0.8,0.2,0.9,0.6l0.4,0.8c1.6,0.2,2.9,1.1,3.7,2.7c1,1.9,1,4.5,0.4,6c0.3,0.5,0.4,1.1,0.3,1.8c-0.2,1.6-0.8,2.3-1.3,2.6
		c-0.2,1.1-0.8,2.4-1.4,3.1c0,0.8,0,1.5,0.1,2.3c0.4,0.8,1.8,1.4,3.2,2c2.6,1.1,6.1,2.5,6.4,7c0,0.3-0.1,0.5-0.3,0.7
		C49.5,39.9,49.3,40,49,40z M40.8,22.8L40.8,22.8L40.8,22.8z"/>
</g>
</svg>
