<svg fill="#000000" xmlns="http://www.w3.org/2000/svg" viewBox="0 0 50 50" width="50px" height="50px"><path fill="none" stroke="#000000" stroke-linejoin="round" stroke-miterlimit="10" stroke-width="2" d="M2,19c-0.6,0-1,0.4-1,1v9c0,0.6,0.4,1,1,1h46c0.6,0,1-0.4,1-1v-9c0-0.6-0.4-1-1-1H2z"/><path fill="none" stroke="#000000" stroke-linecap="round" stroke-linejoin="round" stroke-miterlimit="10" stroke-width="2" d="M1.3 29.6L7.6 19M8 30L14.6 19M15 30L21.6 19M22 30L28.6 19M29 30L35.6 19M36 30L42.6 19M43 30L48.9 20.1M5 30L10 30 10 34.7 10 49 5 49zM40 30L45 30 45 49 40 49 40 35.6zM10 39L22.2 39 40 39 40 43 10 43z"/><path d="M19 8H31V12H19z"/><path fill="none" stroke="#000000" stroke-linecap="round" stroke-linejoin="round" stroke-miterlimit="10" stroke-width="2.118" d="M25 1A9 9 0 1 0 25 19A9 9 0 1 0 25 1Z"/></svg>