<?xml version="1.0" encoding="utf-8"?>
<!-- Generator: Adobe Illustrator 24.0.3, SVG Export Plug-In . SVG Version: 6.00 Build 0)  -->
<svg version="1.1" id="Layer_1" xmlns="http://www.w3.org/2000/svg" xmlns:xlink="http://www.w3.org/1999/xlink" x="0px" y="0px"
	 viewBox="0 0 50 50" style="enable-background:new 0 0 50 50;" xml:space="preserve">
<style type="text/css">
	.st0{fill:none;}
	.st1{fill:none;stroke:#000000;stroke-width:2;stroke-linecap:round;stroke-linejoin:round;stroke-miterlimit:10;}
</style>
<path class="st0" d="M0,0h50v50H0V0z"/>
<path d="M34,25c-0.6,0-1,0.4-1,1s0.4,1,1,1s1-0.4,1-1S34.6,25,34,25z M31,28c-0.6,0-1,0.4-1,1s0.4,1,1,1s1-0.4,1-1S31.6,28,31,28z
	 M34,31c-0.6,0-1,0.4-1,1s0.4,1,1,1s1-0.4,1-1S34.6,31,34,31z M37,28c-0.6,0-1,0.4-1,1s0.4,1,1,1s1-0.4,1-1S37.6,28,37,28z M40,31
	c-0.6,0-1,0.4-1,1s0.4,1,1,1s1-0.4,1-1S40.6,31,40,31z M43,28c-0.6,0-1,0.4-1,1s0.4,1,1,1s1-0.4,1-1S43.6,28,43,28z M46,31
	c-0.6,0-1,0.4-1,1s0.4,1,1,1s1-0.4,1-1S46.6,31,46,31z M31,34c-0.6,0-1,0.4-1,1s0.4,1,1,1s1-0.4,1-1S31.6,34,31,34z M37,34
	c-0.6,0-1,0.4-1,1s0.4,1,1,1s1-0.4,1-1S37.6,34,37,34z M43,34c-0.6,0-1,0.4-1,1s0.4,1,1,1s1-0.4,1-1S43.6,34,43,34z M16,25
	c-0.6,0-1,0.4-1,1s0.4,1,1,1c0.6,0,1-0.4,1-1S16.6,25,16,25z M22,25c-0.6,0-1,0.4-1,1s0.4,1,1,1s1-0.4,1-1S22.6,25,22,25z M28,25
	c-0.6,0-1,0.4-1,1s0.4,1,1,1s1-0.4,1-1S28.6,25,28,25z M13,28c-0.6,0-1,0.4-1,1s0.4,1,1,1s1-0.4,1-1S13.6,28,13,28z M16,31
	c-0.6,0-1,0.4-1,1s0.4,1,1,1c0.6,0,1-0.4,1-1S16.6,31,16,31z M19,28c-0.6,0-1,0.4-1,1s0.4,1,1,1s1-0.4,1-1S19.6,28,19,28z M22,31
	c-0.6,0-1,0.4-1,1s0.4,1,1,1s1-0.4,1-1S22.6,31,22,31z M25,28c-0.6,0-1,0.4-1,1s0.4,1,1,1s1-0.4,1-1S25.6,28,25,28z M28,31
	c-0.6,0-1,0.4-1,1s0.4,1,1,1s1-0.4,1-1S28.6,31,28,31z M13,34c-0.6,0-1,0.4-1,1s0.4,1,1,1s1-0.4,1-1S13.6,34,13,34z M19,34
	c-0.6,0-1,0.4-1,1s0.4,1,1,1s1-0.4,1-1S19.6,34,19,34z M25,34c-0.6,0-1,0.4-1,1s0.4,1,1,1s1-0.4,1-1S25.6,34,25,34z M4,31
	c-0.6,0-1,0.4-1,1s0.4,1,1,1s1-0.4,1-1S4.6,31,4,31z M7,28c-0.6,0-1,0.4-1,1s0.4,1,1,1s1-0.4,1-1S7.6,28,7,28z M10,31
	c-0.6,0-1,0.4-1,1s0.4,1,1,1s1-0.4,1-1S10.6,31,10,31z M7,34c-0.6,0-1,0.4-1,1s0.4,1,1,1s1-0.4,1-1S7.6,34,7,34z"/>
<g>
	<path d="M34,37c-0.6,0-1,0.4-1,1s0.4,1,1,1s1-0.4,1-1S34.6,37,34,37z M31,40c-0.6,0-1,0.4-1,1s0.4,1,1,1s1-0.4,1-1S31.6,40,31,40z
		 M34,43c-0.6,0-1,0.4-1,1s0.4,1,1,1s1-0.4,1-1S34.6,43,34,43z M37,40c-0.6,0-1,0.4-1,1s0.4,1,1,1s1-0.4,1-1S37.6,40,37,40z M40,43
		c-0.6,0-1,0.4-1,1s0.4,1,1,1s1-0.4,1-1S40.6,43,40,43z M43,40c-0.6,0-1,0.4-1,1s0.4,1,1,1s1-0.4,1-1S43.6,40,43,40z M46,43
		c-0.6,0-1,0.4-1,1s0.4,1,1,1s1-0.4,1-1S46.6,43,46,43z M31,46c-0.6,0-1,0.4-1,1s0.4,1,1,1s1-0.4,1-1S31.6,46,31,46z M37,46
		c-0.6,0-1,0.4-1,1s0.4,1,1,1s1-0.4,1-1S37.6,46,37,46z M43,46c-0.6,0-1,0.4-1,1s0.4,1,1,1s1-0.4,1-1S43.6,46,43,46z M16,37
		c-0.6,0-1,0.4-1,1s0.4,1,1,1c0.6,0,1-0.4,1-1S16.6,37,16,37z M22,37c-0.6,0-1,0.4-1,1s0.4,1,1,1s1-0.4,1-1S22.6,37,22,37z M28,37
		c-0.6,0-1,0.4-1,1s0.4,1,1,1s1-0.4,1-1S28.6,37,28,37z M13,40c-0.6,0-1,0.4-1,1s0.4,1,1,1s1-0.4,1-1S13.6,40,13,40z M16,43
		c-0.6,0-1,0.4-1,1s0.4,1,1,1c0.6,0,1-0.4,1-1S16.6,43,16,43z M19,40c-0.6,0-1,0.4-1,1s0.4,1,1,1s1-0.4,1-1S19.6,40,19,40z M22,43
		c-0.6,0-1,0.4-1,1s0.4,1,1,1s1-0.4,1-1S22.6,43,22,43z M25,40c-0.6,0-1,0.4-1,1s0.4,1,1,1s1-0.4,1-1S25.6,40,25,40z M28,43
		c-0.6,0-1,0.4-1,1s0.4,1,1,1s1-0.4,1-1S28.6,43,28,43z M13,46c-0.6,0-1,0.4-1,1s0.4,1,1,1s1-0.4,1-1S13.6,46,13,46z M19,46
		c-0.6,0-1,0.4-1,1s0.4,1,1,1s1-0.4,1-1S19.6,46,19,46z M25,46c-0.6,0-1,0.4-1,1s0.4,1,1,1s1-0.4,1-1S25.6,46,25,46z M4,43
		c-0.6,0-1,0.4-1,1s0.4,1,1,1s1-0.4,1-1S4.6,43,4,43z M46,37c-0.6,0-1,0.4-1,1s0.4,1,1,1s1-0.4,1-1S46.6,37,46,37z M4,37
		c-0.6,0-1,0.4-1,1s0.4,1,1,1s1-0.4,1-1S4.6,37,4,37z M7,40c-0.6,0-1,0.4-1,1s0.4,1,1,1s1-0.4,1-1S7.6,40,7,40z M10,43
		c-0.6,0-1,0.4-1,1s0.4,1,1,1s1-0.4,1-1S10.6,43,10,43z M40,37c-0.6,0-1,0.4-1,1s0.4,1,1,1s1-0.4,1-1S40.6,37,40,37z M10,37
		c-0.6,0-1,0.4-1,1s0.4,1,1,1s1-0.4,1-1S10.6,37,10,37z M7,46c-0.6,0-1,0.4-1,1s0.4,1,1,1s1-0.4,1-1S7.6,46,7,46z"/>
</g>
<path class="st1" d="M42.5,37h-35c-2.4,0-4.7-0.7-6.5-2v4.6c0,5.2,4.2,9.4,9.4,9.4h29.2c5.2,0,9.4-4.3,9.4-9.4V35
	C47.2,36.3,44.9,37,42.5,37z"/>
<path class="st1" d="M25,17.5c-19.5,0-24,9.2-24,17c0,0.9-0.1-0.3,0,0.5c0,0,3,2,6,2h36.5c3,0,5.5-2,5.5-2c0.1-0.8,0,0.4,0-0.5
	C49,26.7,44.5,17.5,25,17.5z"/>
</svg>
