<?xml version="1.0" encoding="utf-8"?>
<!-- Generator: Adobe Illustrator 22.1.0, SVG Export Plug-In . SVG Version: 6.00 Build 0)  -->
<svg version="1.1" xmlns="http://www.w3.org/2000/svg" xmlns:xlink="http://www.w3.org/1999/xlink" x="0px" y="0px"
	 viewBox="0 0 50 50" style="enable-background:new 0 0 50 50;" xml:space="preserve">
<style type="text/css">
	.st0{fill:none;stroke:#000000;stroke-width:2;stroke-miterlimit:10;}
	.st1{fill:none;stroke:#000000;stroke-width:2;stroke-linecap:round;stroke-linejoin:round;stroke-miterlimit:10;}
	.st2{fill:none;stroke:#000000;stroke-width:2;stroke-linejoin:round;stroke-miterlimit:10;}
</style>
<g id="head">
	<circle class="st0" cx="8" cy="29" r="5"/>
</g>
<g id="rod">
	<circle class="st0" cx="18" cy="11" r="8"/>
	<path class="st0" d="M18,9c-1.1,0-2,0.9-2,2s0.9,2,2,2s2-0.9,2-2S19.1,9,18,9z"/>
</g>
<g id="bench">
	<path class="st1" d="M6,34h28c1.7,0,3,1.3,3,3v2H3v-2C3,35.3,4.3,34,6,34z"/>
</g>
<g id="body">
	<path class="st2" d="M16,18.8V21v11c0,1.1,0.9,2,2,2h24v10.5c0,1.4,1.1,2.5,2.5,2.5s2.5-1.1,2.5-2.5V33c0-2.2-1.8-4-4-4h-6
		c-4.9,0-8.8-2-13-2c-1.8,0-3.6,0-4,0v-5.9v-2.3"/>
</g>
</svg>
