<?xml version="1.0" encoding="utf-8"?>
<!-- Generator: Adobe Illustrator 23.0.3, SVG Export Plug-In . SVG Version: 6.00 Build 0)  -->
<svg version="1.1" id="Layer_1" xmlns="http://www.w3.org/2000/svg" xmlns:xlink="http://www.w3.org/1999/xlink" x="0px" y="0px"
	 viewBox="0 0 50 50" style="enable-background:new 0 0 50 50;" xml:space="preserve">
<g id="surface1_2_">
	<path style="fill:none;stroke:#000000;stroke-width:2;stroke-linecap:round;stroke-linejoin:round;" d="M13.7,44.6L10.9,39
		c-0.3-0.7-1-2.4-1-4.1c0-4.9,4-5.9,4-5.9V7.9c0-1.9,1.6-2.9,3-2.9c1.4,0,3,1,3,3v15V4c0-1.4,1.1-3,3-3c1.9,0,3,1.6,3,3
		c0,0,0,18.5,0,18V6c0-1.4,0.7-3,3-3c2,0,3,1.2,3,4v16c0-1.4,0.2-4,3-4c2.8,0,3,2.6,3,4v18c0,4.4-3.6,8-8,8h-9.1
		C17.8,49,15,47.3,13.7,44.6z"/>
</g>
</svg>
