<?xml version="1.0" encoding="utf-8"?>
<!-- Generator: Adobe Illustrator 22.1.0, SVG Export Plug-In . SVG Version: 6.00 Build 0)  -->
<svg version="1.1" id="Layer_1" xmlns="http://www.w3.org/2000/svg" xmlns:xlink="http://www.w3.org/1999/xlink" x="0px" y="0px"
	 viewBox="0 0 50 50" style="enable-background:new 0 0 50 50;" xml:space="preserve">
<style type="text/css">
	.st0{fill:none;stroke:#000000;stroke-width:2;stroke-linecap:round;stroke-linejoin:round;stroke-miterlimit:10;}
	.st1{fill:none;stroke:#000000;stroke-width:2;stroke-miterlimit:10;}
	.st2{fill:none;stroke:#000000;stroke-width:2;stroke-miterlimit:10;stroke-dasharray:1.005,2.0101;}
</style>
<path class="st0" d="M25.5,16.8L32.4,3 M28.7,3l-7.1,14.3 M36.2,21.6L46,3 M41.6,3l-8.2,16.1 M23,13.5L17.6,3 M21.3,3l3.4,6.7
	 M13.9,21.6L4.7,3 M8.4,3l8.3,16.5"/>
<path class="st1" d="M25,17c-8.3,0-15,6.7-15,15s6.7,15,15,15s15-6.7,15-15S33.3,17,25,17z"/>
<path d="M24.3,38.8v-9.1h-3.5v-2.1c3,0,3.7-1.4,4.1-2.8h2.3v14H24.3z"/>
<path class="st2" d="M25,20c-6.6,0-12,5.4-12,12s5.4,12,12,12s12-5.4,12-12S31.6,20,25,20z"/>
</svg>
