<?xml version="1.0" encoding="iso-8859-1"?>
<!-- Generator: Adobe Illustrator 22.1.0, SVG Export Plug-In . SVG Version: 6.00 Build 0)  -->
<svg version="1.1" xmlns="http://www.w3.org/2000/svg" xmlns:xlink="http://www.w3.org/1999/xlink" x="0px" y="0px"
	 viewBox="0 0 50 50" style="enable-background:new 0 0 50 50;" xml:space="preserve">
<g id="box">
	<path d="M47,17H35H15H3c-0.552,0-1,0.448-1,1v28c0,0.553,0.448,1,1,1h44c0.553,0,1-0.447,1-1V18C48,17.448,47.553,17,47,17z M46,45
		H4V19h10.382l0.724,1.447C15.275,20.786,15.621,21,16,21h18c0.379,0,0.725-0.214,0.895-0.553L35.618,19H46V45z"/>
</g>
<g id="mechanism">
	<g>
		<circle cx="8" cy="23" r="1"/>
		<circle cx="42" cy="23" r="1"/>
		<path d="M15.5,24C10.262,24,6,28.262,6,33.5c0,5.238,4.262,9.5,9.5,9.5s9.5-4.262,9.5-9.5C25,28.262,20.738,24,15.5,24z M15.5,41
			C11.364,41,8,37.636,8,33.5c0-4.136,3.364-7.5,7.5-7.5s7.5,3.364,7.5,7.5C23,37.636,19.636,41,15.5,41z"/>
		<path d="M35.5,25c-4.687,0-8.5,3.813-8.5,8.5s3.813,8.5,8.5,8.5s8.5-3.813,8.5-8.5S40.187,25,35.5,25z M35.5,40
			c-3.584,0-6.5-2.916-6.5-6.5c0-3.584,2.916-6.5,6.5-6.5s6.5,2.916,6.5,6.5C42,37.084,39.084,40,35.5,40z"/>
	</g>
</g>
<g id="tape">
	<path style="fill:none;stroke:#000000;stroke-width:2;stroke-linejoin:round;stroke-miterlimit:10;" d="M7,34v-9.5v-1
		C6.667,17.792,9.292,4,26,4c2.438,0,4,1.708,4,4c0,3.438-9,0.583-9,4c0,0.703,0.521,2,3,2c8.563,0,8.688-2,15-2
		c4.208,0,4,3.917,4,11.5V34"/>
</g>
<g id="roll2">
	<path d="M39.396,31.249c-0.602-1.041-1.571-1.786-2.732-2.097c-1.163-0.313-2.375-0.152-3.415,0.449
		c-2.148,1.239-2.888,3.997-1.647,6.147c0.833,1.442,2.349,2.249,3.904,2.249c0.764,0,1.536-0.194,2.243-0.603
		c1.041-0.601,1.785-1.571,2.097-2.731C40.157,33.503,39.997,32.29,39.396,31.249z M36.749,35.663
		c-0.085,0.049-0.174,0.08-0.261,0.118l-0.635-0.635c-0.195-0.195-0.512-0.195-0.707,0l-0.638,0.638
		c-0.257-0.111-0.492-0.267-0.702-0.462l0.177-0.66c0.071-0.267-0.087-0.541-0.354-0.612l-0.591-0.159
		c-0.042-0.264-0.036-0.527,0.006-0.786l0.586-0.157c0.267-0.071,0.425-0.346,0.354-0.612l-0.179-0.669
		c0.134-0.124,0.28-0.238,0.445-0.334c0.085-0.049,0.178-0.073,0.266-0.111l0.63,0.63c0.196,0.195,0.512,0.195,0.707,0l0.639-0.639
		c0.261,0.113,0.495,0.27,0.702,0.462l-0.177,0.661c-0.071,0.266,0.087,0.541,0.354,0.612l0.593,0.159
		c0.041,0.259,0.035,0.523-0.008,0.786l-0.585,0.157c-0.267,0.071-0.425,0.345-0.354,0.612l0.178,0.666
		C37.06,35.454,36.913,35.569,36.749,35.663z"/>
</g>
<g id="roll1">
	<path d="M19.397,31.248c-0.601-1.041-1.571-1.785-2.733-2.097c-1.162-0.312-2.374-0.151-3.415,0.45
		c-1.041,0.601-1.786,1.571-2.097,2.732s-0.151,2.373,0.45,3.414s1.571,1.786,2.732,2.097C14.723,37.95,15.116,38,15.507,38
		c0.78,0,1.549-0.204,2.242-0.604c1.042-0.601,1.786-1.571,2.098-2.732C20.158,33.502,19.998,32.289,19.397,31.248z M16.75,35.663
		c-0.084,0.049-0.174,0.081-0.261,0.119l-0.635-0.635c-0.195-0.195-0.512-0.195-0.707,0l-0.637,0.637
		c-0.262-0.113-0.496-0.269-0.703-0.461l0.177-0.66c0.071-0.267-0.087-0.541-0.354-0.612l-0.594-0.159
		c-0.041-0.259-0.035-0.523,0.007-0.786l0.586-0.157c0.267-0.071,0.425-0.346,0.354-0.612l-0.179-0.668
		c0.136-0.125,0.282-0.24,0.446-0.334c0.085-0.049,0.178-0.072,0.266-0.111l0.63,0.63c0.196,0.195,0.512,0.195,0.707,0l0.64-0.64
		c0.261,0.113,0.495,0.269,0.701,0.461l-0.177,0.662c-0.071,0.266,0.087,0.541,0.354,0.612l0.594,0.159
		c0.041,0.259,0.034,0.523-0.008,0.786l-0.585,0.157c-0.267,0.071-0.425,0.345-0.354,0.612l0.179,0.666
		C17.06,35.454,16.913,35.569,16.75,35.663z"/>
</g>
</svg>
