<?xml version="1.0" encoding="iso-8859-1"?>
<!-- Generator: Adobe Illustrator 16.0.0, SVG Export Plug-In . SVG Version: 6.00 Build 0)  -->
<!DOCTYPE svg PUBLIC "-//W3C//DTD SVG 1.1//EN" "http://www.w3.org/Graphics/SVG/1.1/DTD/svg11.dtd">
<svg version="1.1" id="Capa_1" xmlns="http://www.w3.org/2000/svg" xmlns:xlink="http://www.w3.org/1999/xlink" x="0px" y="0px"
	 width="29.498px" height="29.498px" viewBox="0 0 29.498 29.498" style="enable-background:new 0 0 29.498 29.498;"
	 xml:space="preserve">
<g>
	<path d="M3.212,1.001h0.312v27.496H3.212V1.001z M0,28.497h1.451V1.001H0V28.497z M9.745,28.497h0.363V1.001H9.745V28.497z
		 M10.731,28.497h1.451V1.001h-1.451V28.497z M6.687,28.497h1.451V1.001H6.687V28.497z M4.613,28.497h0.311V1.001H4.613V28.497z
		 M5.599,28.497h0.31V1.001h-0.31V28.497z M16.329,28.497h1.452V1.001h-1.452V28.497z M20.527,28.497h0.312V1.001h-0.312V28.497z
		 M19.543,28.497h0.312V1.001h-0.312V28.497z M13.272,28.497h0.31V1.001h-0.31V28.497z M14.256,28.497h1.452V1.001h-1.452V28.497z
		 M25.975,28.497h1.45V1.001h-1.45V28.497z M28.047,1.001v27.496h1.451V1.001H28.047z M24.003,28.497h0.362V1.001h-0.362V28.497z
		 M21.93,28.497h0.312V1.001H21.93V28.497z M22.914,28.497h0.311V1.001h-0.311V28.497z"/>
</g>
<g>
</g>
<g>
</g>
<g>
</g>
<g>
</g>
<g>
</g>
<g>
</g>
<g>
</g>
<g>
</g>
<g>
</g>
<g>
</g>
<g>
</g>
<g>
</g>
<g>
</g>
<g>
</g>
<g>
</g>
</svg>
