<?xml version="1.0" encoding="utf-8"?>
<svg width="512px" height="512px" viewbox="0 0 512 512" version="1.1" xmlns:xlink="http://www.w3.org/1999/xlink" xmlns="http://www.w3.org/2000/svg">
  <defs>
    <path d="M0 0L512 0L512 512L0 512L0 0Z" id="path_1" />
    <clipPath id="mask_1">
      <use xlink:href="#path_1" />
    </clipPath>
  </defs>
  <g id="1621635---Copy">
    <path d="M0 0L512 0L512 512L0 512L0 0Z" id="Background" fill="none" fill-rule="evenodd" stroke="none" />
    <g clip-path="url(#mask_1)">
      <path d="M271 512L80 512C35.8867 512 0 476.113 0 432L0 161C0 116.887 35.8867 81 80 81L271 81C315.113 81 351 116.887 351 161L351 432C351 476.113 315.113 512 271 512L271 512ZM80 121C57.9453 121 40 138.945 40 161L40 432C40 454.055 57.9453 472 80 472L271 472C293.055 472 311 454.055 311 432L311 161C311 138.945 293.055 121 271 121L80 121ZM431 382L431 80C431 35.8867 395.113 0 351 0L129 0C117.953 0 109 8.95313 109 20C109 31.0469 117.953 40 129 40L351 40C373.055 40 391 57.9453 391 80L391 382C391 393.047 399.953 402 411 402C422.047 402 431 393.047 431 382L431 382Z" transform="translate(41 0)" id="Shape" fill="#137EFF" fill-rule="evenodd" stroke="none" />
    </g>
  </g>
</svg>