<?xml version="1.0" encoding="utf-8"?>
<!-- Generator: Adobe Illustrator 24.0.1, SVG Export Plug-In . SVG Version: 6.00 Build 0)  -->
<svg version="1.1" id="Layer_1" xmlns="http://www.w3.org/2000/svg" xmlns:xlink="http://www.w3.org/1999/xlink" x="0px" y="0px"
	 viewBox="0 0 50 50" style="enable-background:new 0 0 50 50;" xml:space="preserve">
<style type="text/css">
	.st0{fill:none;stroke:#000000;stroke-width:2;stroke-linecap:round;stroke-linejoin:round;stroke-miterlimit:10;}
	.st1{fill:none;stroke:#000000;stroke-width:2;stroke-linecap:round;stroke-miterlimit:10;}
	.st2{fill:none;stroke:#000000;stroke-width:2;stroke-miterlimit:10;}
</style>
<path class="st0" d="M10.2,31.9L8,35.5c0,0-0.5,0.8,2.6,3.9c3.1,3,3.9,2.6,3.9,2.6l3.6-2.2"/>
<polyline class="st0" points="29,32 29,41 23,46 21.2,38.7 "/>
<polyline class="st0" points="18,21 9,21 4,27 11.3,28.8 "/>
<path class="st1" d="M48,2c0,0-7.2,0.1-14,3.5c-2.2,1.1-4.4,2.6-6.4,4.5c-5.7,5.7-17.3,20.5-17.3,20.5s-0.5,1.7,3.5,5.7
	c4,4,5.7,3.5,5.7,3.5S34.4,28,39.9,22.4c2-2,3.4-4.2,4.5-6.4C47.8,9.2,48,2,48,2z"/>
<path class="st2" d="M7,39c-3.6,2.8-6,1-6,10c9,0,7.7-2.8,10-6"/>
<path class="st0" d="M34,12c-2.2,0-4,1.8-4,4s1.8,4,4,4s4-1.8,4-4S36.2,12,34,12z"/>
</svg>
