<?xml version="1.0" encoding="utf-8"?>
<!-- Generator: Adobe Illustrator 24.0.1, SVG Export Plug-In . SVG Version: 6.00 Build 0)  -->
<svg version="1.1" id="Layer_1" xmlns="http://www.w3.org/2000/svg" xmlns:xlink="http://www.w3.org/1999/xlink" x="0px" y="0px"
	 viewBox="0 0 50 50" style="enable-background:new 0 0 50 50;" xml:space="preserve">
<style type="text/css">
	.st0{fill:none;stroke:#000000;stroke-width:2;stroke-linecap:round;stroke-miterlimit:10;}
	.st1{fill:none;stroke:#000000;stroke-width:2;stroke-linecap:round;stroke-linejoin:round;stroke-miterlimit:10;}
</style>
<line class="st0" x1="1" y1="28.2" x2="5.6" y2="29"/>
<polyline class="st0" points="26.1,8.6 10,8.6 1,6.4 "/>
<path class="st0" d="M30.4,16.6l-6.5,2.5c-3.8,1.5-8.1,0.5-10.8-2.5l0,0c-0.6-0.6-0.4-1.6,0.4-1.9l18.2-8.9c2.2-1.1,4.8-0.9,6.8,0.5
	L39,6.9c1.6,1.1,3.5,1.4,5.3,0.9l4.7-1"/>
<polyline class="st0" points="49,28.5 45,29.1 43.9,30.2 "/>
<path class="st0" d="M17.4,44.2L17.4,44.2c1.1,1.1,2.8,1.1,3.9,0l1-1c1.1-1.1,1.1-2.8,0-3.9l0,0c-1.1-1.1-2.8-1.1-3.9,0l-1,1
	C16.4,41.4,16.4,43.2,17.4,44.2z"/>
<path class="st0" d="M13.6,40.4L13.6,40.4c1.1,1.1,2.8,1.1,3.9,0l1-1c1.1-1.1,1.1-2.8,0-3.9l0,0c-1.1-1.1-2.8-1.1-3.9,0l-1,1
	C12.5,37.6,12.5,39.3,13.6,40.4z"/>
<path class="st0" d="M9.7,36.5L9.7,36.5c1.1,1.1,2.8,1.1,3.9,0l1-1c1.1-1.1,1.1-2.8,0-3.9l0,0c-1.1-1.1-2.8-1.1-3.9,0l-1,1
	C8.6,33.7,8.6,35.4,9.7,36.5z"/>
<path class="st0" d="M5.8,32.6L5.8,32.6c1.1,1.1,2.8,1.1,3.9,0l1-1c1.1-1.1,1.1-2.8,0-3.9l0,0c-1.1-1.1-2.8-1.1-3.9,0l-1,1
	C4.7,29.8,4.7,31.5,5.8,32.6z"/>
<path class="st1" d="M30.7,16.9c0,0,11.8,11.8,12.3,12.3c1.3,1.3,1.3,3.4,0,4.7s-3.4,1.3-4.7,0c1.3,1.3,1.3,3.4,0,4.7
	s-3.4,1.3-4.7,0c-0.1-0.1-0.4-0.4-0.7-0.7c1.3,1.3,1.3,3.4,0,4.7s-3.4,1.3-4.7,0c-0.1-0.1-0.4-0.4-0.7-0.7c1.3,1.3,1.3,3.4,0,4.7
	s-3.4,1.3-4.7,0c-0.5-0.5-1.9-1.9-1.9-1.9"/>
</svg>
