<?xml version="1.0" encoding="utf-8"?>
<!-- Generator: Adobe Illustrator 24.0.1, SVG Export Plug-In . SVG Version: 6.00 Build 0)  -->
<svg version="1.1" id="Layer_1" xmlns="http://www.w3.org/2000/svg" xmlns:xlink="http://www.w3.org/1999/xlink" x="0px" y="0px"
	 viewBox="0 0 50 50" style="enable-background:new 0 0 50 50;" xml:space="preserve">
<path d="M39,9.1C31.9,9.1,33.7,6,27,6c-1.6,0-2,1-2,2v21c0,2.2-1,4-5,4c-5.7,0-8,1.5-8,5c0,2.4,0.5,6,7.9,6c6.9,0,7.1-5.3,7.1-8V17
	c0-1.3,0.2-2,1-2c5.1,0,3.9,3,11,3c0,0,2,0,2-1.7V11C41,9.4,40.3,9.1,39,9.1z M25,36c0,3.8-0.8,6-5.1,6C14,42,14,39.7,14,38
	c0-1.3,0-3,6-3c2.4,0,4-0.6,5-1.4V36z M39,16c-3.3,0-4.3-0.7-5.5-1.4C32.3,13.9,30.9,13,28,13c-0.3,0-0.7,0-1,0.2V8
	c2.7,0,3.6,0.5,4.8,1.2c1.4,0.9,3.1,1.9,7.2,1.9V16z"/>
</svg>
