<?xml version="1.0" encoding="utf-8"?>
<!-- Generator: Adobe Illustrator 24.0.1, SVG Export Plug-In . SVG Version: 6.00 Build 0)  -->
<svg version="1.1" id="Layer_1" xmlns="http://www.w3.org/2000/svg" xmlns:xlink="http://www.w3.org/1999/xlink" x="0px" y="0px"
	 viewBox="0 0 50 50" style="enable-background:new 0 0 50 50;" xml:space="preserve">
<style type="text/css">
	.st0{fill:none;stroke:#000000;stroke-width:2;stroke-linecap:round;stroke-linejoin:round;}
</style>
<path id="Group_3" class="st0" d="M32.7,15.1c0,0-2.3-2-10.7-2c-4.7,0-12.3,3.7-14,4c-0.4,0-3.8-0.1-4-4c0,0,0-3.9,4-3.9
	c3.7,0,9.5-1,10.9-6.1c0.6-2.1-2.5-2.5-2.9-0.9c-0.4,1.6-1.7,4-8,4c-5.3,0-7,4.6-7,7c0.1,7.3,6.5,7.4,8,7.4c0,0,0,6.2,0,6.2
	c0,5,0,16.9,0,20.3c0,1.6,2,2.2,2.5,2.2c0.6,0,2.3-0.6,2.5-2.4c0.1-1.9,0-12.7,0-15.6c0-2.4,6.1-4,9-4c3.3,0,9,1.6,9,4.1
	c0,3.9,0,13.1,0,15.4c0.1,2.4,1.9,2.5,2.6,2.5c0.8,0,2.3-0.4,2.4-2.3c-0.1-14.1-1-16.5,2.1-16.6c2.8-0.1,1.9,2.5,2,16.5
	c0.4,2.5,2.5,2.5,2.3,2.4c0,0.2,2.3,0.1,2.5-2.5C46,41.7,46,20.7,46,20.7c0,0,3.1-0.2,3.1-8.6c0-4.1-0.2-7.8-0.2-7.8L45.1,8
	c0,0-2.7-0.9-4.1-0.9c-1.4,0-3.9,1.1-3.9,1.1l-4-4c0,0,0,3.2,0,9c0,5.8,3.3,7.1,5.9,7.7"/>
<path id="Group_1" d="M44.5,14c-1.3,0-1.5-1.3-1.5-1.5c0-0.2,0.3-1.5,1.5-1.5c0,0,0,0,0,0c0,0,0,0,0,0c1.3,0,1.5,1.2,1.5,1.5
	C46,13.1,45.6,14,44.5,14z"/>
<path id="Group_1_1_" d="M44.5,14c-1.3,0-1.5-1.3-1.5-1.5c0-0.2,0.3-1.5,1.5-1.5c0,0,0,0,0,0c0,0,0,0,0,0c1.3,0,1.5,1.2,1.5,1.5
	C46,13.1,45.6,14,44.5,14z"/>
<path id="Group_1_2_" d="M37.5,14c-0.9,0-1.5-0.8-1.5-1.5c0-0.8,0.7-1.5,1.5-1.5c0,0,0,0,0,0s0,0,0,0c0.8,0,1.5,0.6,1.5,1.5
	C39,13.1,38.5,14,37.5,14z"/>
</svg>
