<?xml version="1.0" encoding="utf-8"?>
<!-- Generator: Adobe Illustrator 24.0.1, SVG Export Plug-In . SVG Version: 6.00 Build 0)  -->
<svg version="1.1" id="Layer_1" xmlns="http://www.w3.org/2000/svg" xmlns:xlink="http://www.w3.org/1999/xlink" x="0px" y="0px"
	 viewBox="0 0 50 50" style="enable-background:new 0 0 50 50;" xml:space="preserve">
<style type="text/css">
	.st0{fill:none;stroke:#000000;stroke-width:2;stroke-linejoin:round;stroke-miterlimit:10;}
</style>
<path d="M25,2c0.4,0,0.9,0,1.3,0.1c5.5,0.6,10,5.1,10.6,10.6c0.5,4.9-1.9,9.6-6.3,12C27.8,26.1,26,29,26,32.1V38h-2v-5.9
	c0-3.8,2.2-7.4,5.7-9.2c3.6-1.9,5.7-5.9,5.2-10c-0.5-4.6-4.2-8.3-8.8-8.8C25.8,4,25.4,4,25,4c-2.5,0-4.8,0.9-6.7,2.5
	C16.2,8.4,15,11.2,15,14h-2c0-3.4,1.5-6.7,4-8.9C19.2,3.1,22.1,2,25,2 M25,0c-3.5,0-6.8,1.3-9.4,3.6C12.7,6.2,11,10,11,14
	c0,1.1,0.9,2,2,2h2c1.1,0,2-0.9,2-2c0-2.3,1-4.4,2.7-6C21.2,6.7,23,6,25,6c0.3,0,0.6,0,0.9,0.1c3.7,0.4,6.6,3.4,7,7
	c0.4,3.3-1.3,6.4-4.2,8c-4.2,2.2-6.8,6.4-6.8,11V38c0,1.1,0.9,2,2,2h2c1.1,0,2-0.9,2-2v-5.9c0-2.3,1.4-4.5,3.6-5.7
	c5.1-2.7,8-8.2,7.3-13.9C38.2,6,33,0.8,26.6,0.1C26.1,0,25.5,0,25,0L25,0z"/>
<path class="st0" d="M23,45h4v4h-4V45z"/>
</svg>
