<?xml version="1.0" encoding="utf-8"?>
<!-- Generator: Adobe Illustrator 24.0.1, SVG Export Plug-In . SVG Version: 6.00 Build 0)  -->
<svg version="1.1" id="Layer_1" xmlns="http://www.w3.org/2000/svg" xmlns:xlink="http://www.w3.org/1999/xlink" x="0px" y="0px"
	 viewBox="0 0 50 50" style="enable-background:new 0 0 50 50;" xml:space="preserve">
<style type="text/css">
	.st0{fill:none;stroke:#000000;stroke-width:2;stroke-linejoin:round;stroke-miterlimit:10;}
	.st1{fill:none;stroke:#000000;stroke-width:2;stroke-linecap:round;stroke-linejoin:round;stroke-miterlimit:10;}
</style>
<path class="st0" d="M22,46v-2c0,0,2.3,1,5,1c3.2,0,6-1,6-5c0-1.2,1-1.7,1-2c0-0.6-0.5-1-1-1c-3.8,0-8.2,0.1-6.7-3.1
	C27.3,32,29.7,32,32,32c1.4,0,3,0,3,0c-0.7-1.8,0-3,0-3l3.2-1.9c0.8-0.4,1-1.3,0.6-2.1L34,20c0.1-8.3-4.1-15-15.8-15S3,13.5,3,20.8
	c0,10.4,5,8,5,18.8V46"/>
<path class="st1" d="M31,22l-6-2"/>
<circle cx="38" cy="35" r="1"/>
<circle cx="41" cy="33" r="1"/>
<circle cx="41" cy="37" r="1"/>
<circle cx="44" cy="35" r="1"/>
<circle cx="44" cy="31" r="1"/>
<circle cx="44" cy="39" r="1"/>
<circle cx="47" cy="33" r="1"/>
<circle cx="47" cy="29" r="1"/>
<circle cx="47" cy="37" r="1"/>
<circle cx="47" cy="41" r="1"/>
</svg>
