<?xml version="1.0" encoding="iso-8859-1"?>
<!-- Generator: Adobe Illustrator 23.0.3, SVG Export Plug-In . SVG Version: 6.00 Build 0)  -->
<svg version="1.1" id="Layer_1" xmlns="http://www.w3.org/2000/svg" xmlns:xlink="http://www.w3.org/1999/xlink" x="0px" y="0px"
	 viewBox="0 0 50 50" style="enable-background:new 0 0 50 50;" xml:space="preserve">
<path style="fill:none;stroke:#000000;stroke-width:2;stroke-linecap:round;" d="M38,23c0-7.18-5.82-13-13-13s-13,5.82-13,13
	c0,9.205,8,11.99,8,16h10C30,34.99,38,32.295,38,23z"/>
<path style="fill:none;stroke:#000000;stroke-width:2;stroke-linecap:round;" d="M30,39H20v5c0,1.105,0.895,2,2,2h6
	c1.105,0,2-0.895,2-2V39z"/>
<path d="M28,45c0,1.657-1.343,3-3,3s-3-1.343-3-3H28z"/>
<line style="fill:none;stroke:#000000;stroke-width:2;stroke-linecap:round;" x1="30" y1="43" x2="24" y2="43"/>
<line style="fill:none;stroke:#000000;stroke-width:2;stroke-linecap:round;" x1="21" y1="43" x2="20" y2="43"/>
</svg>
