<?xml version="1.0" encoding="utf-8"?>
<!-- Generator: Adobe Illustrator 22.1.0, SVG Export Plug-In . SVG Version: 6.00 Build 0)  -->
<svg version="1.1" xmlns="http://www.w3.org/2000/svg" xmlns:xlink="http://www.w3.org/1999/xlink" x="0px" y="0px"
	 viewBox="0 0 50 50" style="enable-background:new 0 0 50 50;" xml:space="preserve">
<style type="text/css">
	.st0{fill:none;stroke:#000000;stroke-width:2;stroke-miterlimit:10;}
</style>
<g id="circle">
	<path class="st0" d="M25,3C12.8,3,3,12.8,3,25s9.8,22,22,22s22-9.8,22-22S37.2,3,25,3z"/>
</g>
<g id="itunes">
	<path d="M33.8,12l-13.7,2.6C19.5,14.7,19,15.3,19,16v13.3c0,0.5-0.3,0.9-0.8,1l-3.4,0.9l-0.3,0.1c-1.3,0.4-2.3,1.5-2.5,2.9
		c0,0.3,0,0.6,0,1c0.3,1.8,1.9,3,3.7,3h0.1c2.8,0,5.1-2.3,5.1-5.1V22.3c0-0.7,0.5-1.3,1.1-1.4l9.7-1.9c0.6-0.1,1.2,0.4,1.2,1v6.2
		c0,0.5-0.3,0.9-0.8,1l-3.4,0.9l-0.3,0.1c-1.3,0.4-2.3,1.5-2.5,2.9c0,0.3,0,0.6,0,1c0.3,1.8,1.9,3,3.7,3h0.1c2.8,0,5.1-2.3,5.1-5.1
		V13C35,12.4,34.4,11.9,33.8,12z"/>
</g>
</svg>
