<?xml version="1.0" encoding="utf-8"?>
<!-- Generator: Adobe Illustrator 24.0.1, SVG Export Plug-In . SVG Version: 6.00 Build 0)  -->
<svg version="1.1" id="Layer_1" xmlns="http://www.w3.org/2000/svg" xmlns:xlink="http://www.w3.org/1999/xlink" x="0px" y="0px"
	 viewBox="0 0 50 50" style="enable-background:new 0 0 50 50;" xml:space="preserve">
<style type="text/css">
	.st0{fill:none;stroke:#000000;stroke-width:1.937;stroke-linecap:round;stroke-miterlimit:10;}
</style>
<path class="st0" d="M46.7,28.2l-3.5,3.4l0.4,4.9c0.1,0.7-0.4,1.3-1,1.5l-4.7,1.3L36,43.8c-0.3,0.6-0.9,1-1.6,0.8l-4.8-1l-3.8,3.1
	C25.6,46.9,25.3,47,25,47s-0.6-0.1-0.9-0.3l-3.8-3.1l-4.8,1c-0.6,0.1-1.3-0.2-1.6-0.8L12,39.3L7.3,38c-0.6-0.2-1.1-0.8-1-1.5
	l0.4-4.9l-3.5-3.4C2.7,27.7,2.6,27,3,26.4l2.6-4.1L4,17.7c-0.2-0.6,0.1-1.3,0.6-1.7L9,13.6l0.8-4.8c0.1-0.7,0.7-1.1,1.3-1.2L16,7.5
	l2.9-3.9C19.3,3,20,2.9,20.6,3.1L25,5.2l4.4-2.1C30,2.8,30.7,3,31.1,3.6L34,7.5l4.9,0.2c0.7,0,1.2,0.5,1.3,1.2l0.8,4.8l4.2,2.4
	c0.6,0.3,0.8,1,0.6,1.7l-1.5,4.6l2.6,4.1C47.3,27,47.2,27.8,46.7,28.2z"/>
<path d="M22.8,16.4C22.3,15,21.1,14,19.5,14s-2.8,0.9-3.3,2.4C16,17,16,17.3,16,19.5s0.1,2.6,0.2,3.1c0.5,1.4,1.7,2.4,3.3,2.4
	s2.8-0.9,3.3-2.4C23,22,23,21.7,23,19.5S22.9,16.9,22.8,16.4z M20.9,22c-0.2,0.7-0.7,1-1.4,1s-1.2-0.4-1.4-1
	C18,21.7,18,21.4,18,19.6c0-1.9,0.1-2.2,0.1-2.5c0.2-0.7,0.7-1,1.4-1s1.2,0.4,1.4,1c0.1,0.3,0.1,0.6,0.1,2.5
	C21,21.4,20.9,21.7,20.9,22z"/>
<path d="M33.8,27.4C33.3,26,32.1,25,30.5,25s-2.8,0.9-3.3,2.4C27,28,27,28.3,27,30.5s0.1,2.6,0.2,3.1c0.5,1.4,1.7,2.4,3.3,2.4
	s2.8-0.9,3.3-2.4C34,33,34,32.7,34,30.5S33.9,27.9,33.8,27.4z M31.9,33c-0.2,0.7-0.7,1-1.4,1s-1.2-0.4-1.4-1
	C29,32.7,29,32.4,29,30.6c0-1.9,0.1-2.2,0.1-2.5c0.2-0.7,0.7-1,1.4-1s1.2,0.4,1.4,1c0.1,0.3,0.1,0.6,0.1,2.5
	C32,32.4,31.9,32.7,31.9,33z"/>
<path d="M29.9,14.3c0.1-0.2,0.2-0.3,0.5-0.3h1.4c0.2,0,0.2,0.2,0.2,0.3L20.1,35.7C20,35.9,19.9,36,19.7,36h-1.4
	c-0.2,0-0.3-0.2-0.2-0.3L29.9,14.3z"/>
</svg>
