<?xml version="1.0" encoding="utf-8"?>
<!-- Generator: Adobe Illustrator 24.0.1, SVG Export Plug-In . SVG Version: 6.00 Build 0)  -->
<svg version="1.1" id="Layer_1" xmlns="http://www.w3.org/2000/svg" xmlns:xlink="http://www.w3.org/1999/xlink" x="0px" y="0px"
	 viewBox="0 0 50 50" style="enable-background:new 0 0 50 50;" xml:space="preserve">
<style type="text/css">
	.st0{fill:none;stroke:#000000;stroke-width:2;stroke-linecap:round;stroke-linejoin:round;stroke-miterlimit:10;}
</style>
<path class="st0" d="M47,27.7v-5.5l-6.5-1.1c-0.4-1.5-1-3-1.8-4.3l3.8-5.4l-3.9-3.9l-5.4,3.9c-1.3-0.8-2.8-1.4-4.4-1.8L27.7,3h-5.5
	l-1.1,6.5c-1.6,0.4-3,1-4.4,1.8l-5.4-3.8l-3.9,3.9l3.8,5.4c-0.8,1.3-1.4,2.8-1.8,4.4L3,22.2v5.5l6.5,1.1c0.4,1.6,1,3,1.8,4.4
	l-3.8,5.3l3.9,3.9l5.4-3.8c1.3,0.8,2.8,1.4,4.4,1.8l1.1,6.5h5.5l1.2-6.5c1.6-0.4,3-1,4.4-1.8l5.4,3.8l3.9-3.9l-3.9-5.4
	c0.8-1.3,1.4-2.8,1.8-4.3L47,27.7z"/>
<path class="st0" d="M25,18c-3.9,0-7,3.1-7,7s3.1,7,7,7s7-3.1,7-7S28.9,18,25,18z"/>
</svg>
