<?xml version="1.0" encoding="UTF-8" standalone="yes"?>
<svg xmlns="http://www.w3.org/2000/svg" xmlns:xlink="http://www.w3.org/1999/xlink" width="50px" height="50px" viewBox="0 0 50 50" version="1.1" fill="#000000">
  <g id="surface16429">
    <path style=" stroke:none;fill-rule:nonzero;fill:#000000;fill-opacity:1;" d="M 25 2 C 12.308594 2 2 12.308594 2 25 C 2 37.691406 12.308594 48 25 48 C 37.691406 48 48 37.691406 48 25 C 48 12.308594 37.691406 2 25 2 Z M 25 4 C 36.609375 4 46 13.390625 46 25 C 46 36.609375 36.609375 46 25 46 C 13.390625 46 4 36.609375 4 25 C 4 13.390625 13.390625 4 25 4 Z M 25.570312 11 C 17.925781 11 13 16.417969 13 21.648438 C 13 26.75 15.824219 27.949219 16.417969 28.292969 C 17.007812 28.636719 17.425781 28.394531 17.558594 27.921875 L 17.914062 26.5 C 17.914062 26.5 18.078125 26.121094 17.75 25.722656 C 17.347656 25.238281 16.480469 24.351562 16.480469 22.148438 C 16.480469 18.214844 19.582031 13.933594 25.210938 13.933594 C 30.734375 13.933594 32.625 17.53125 32.625 20.507812 C 32.625 24.210938 30.851562 29.746094 27.109375 29.746094 C 24.785156 29.746094 24.113281 27.949219 24.113281 27.074219 C 24.101562 26.773438 24.167969 26.476562 24.199219 26.332031 C 24.226562 26.191406 25.171875 23.183594 25.472656 22.109375 C 26.148438 19.703125 25.570312 17.703125 23.359375 17.703125 C 20.242188 17.703125 19.121094 22.089844 20.488281 24.894531 L 18.265625 34.003906 C 18.265625 34.003906 17.957031 35.496094 17.894531 36.375 C 17.804688 37.726562 17.996094 39.722656 18.0625 40.320312 C 18.109375 40.753906 18.113281 40.960938 18.308594 41 C 18.503906 41.035156 18.839844 40.703125 19.109375 40.300781 C 19.453125 39.796875 20.609375 38.164062 21.078125 37.125 C 21.496094 36.199219 21.570312 36.175781 22.003906 34.535156 C 22.441406 32.894531 23.027344 30.585938 23.027344 30.585938 C 23.027344 30.585938 24.246094 32.722656 27.542969 32.722656 C 32.230469 32.722656 37 28.640625 37 21.003906 C 37 14.816406 31.640625 11 25.570312 11 Z M 25.570312 11 "/>
  </g>
</svg>