<?xml version="1.0" encoding="utf-8"?>
<!-- Generator: Adobe Illustrator 24.0.1, SVG Export Plug-In . SVG Version: 6.00 Build 0)  -->
<svg version="1.1" id="Layer_1" xmlns="http://www.w3.org/2000/svg" xmlns:xlink="http://www.w3.org/1999/xlink" x="0px" y="0px"
	 viewBox="0 0 50 50" style="enable-background:new 0 0 50 50;" xml:space="preserve">
<style type="text/css">
	.st0{fill:none;stroke:#000000;stroke-width:2;stroke-linecap:round;stroke-linejoin:round;stroke-miterlimit:10;}
</style>
<g id="Porridge">
	<g>
		<path class="st0" d="M29.9,21.2c-0.4-1.8-2-3.2-3.9-3.2s-3.4,1.3-3.9,3c-0.2,0-0.4,0-0.6,0c-0.7,0-1.4,0.1-2,0.4
			C19,20.5,18.1,20,17,20c-0.5,0-1,0.1-1.4,0.4c-0.5-0.2-1-0.4-1.6-0.4c-2.2,0-4,1.8-4,4c-2.2,0-4,1.8-4,4 M37.5,20.3
			c1.2,0.5,2.1,1.5,2.4,2.7l0,0H40c1.7,0,3,1.3,3,3c0,0.1,0,0.1,0,0.2c1.2,0.4,2,1.5,2,2.8 M29.9,21.2c0.3-0.1,0.7-0.2,1.1-0.2
			c0.5,0,1,0.1,1.4,0.3"/>
	</g>
</g>
<g id="Plate_Mask">
</g>
<g id="Plate_2_">
	<path id="Plate" class="st0" d="M47,32.6V29H3v3.6c0,9,9.9,16.4,16.5,16.4h11C37.1,49,47,41.6,47,32.6z"/>
</g>
<g id="Spoon_Mask">
</g>
<g id="Spoon">
	<path class="st0" d="M45.8,5.5c-1.1-0.8-2.7-0.5-3.4,0.7L30.1,25c0,0,1.2-0.4,2.1-0.4c0.9,0,1.6,0.4,1.6,0.4L46.3,9
		C47.2,7.9,46.9,6.3,45.8,5.5z"/>
</g>
<g id="Circle_1">
	<circle cx="18" cy="26" r="1"/>
</g>
<g id="Circle_2">
	<circle cx="26" cy="22" r="1"/>
</g>
<g id="Circle_3">
	<circle cx="26" cy="28" r="1"/>
</g>
<g id="Circle_4">
	<circle cx="15" cy="24" r="1"/>
</g>
<path class="st0" d="M32,6c0,4.5-4,3.6-4,8"/>
<path class="st0" d="M28,1c0,6.7-6,5.4-6,12"/>
</svg>
