<?xml version="1.0" encoding="utf-8"?>
<!-- Generator: Adobe Illustrator 23.1.1, SVG Export Plug-In . SVG Version: 6.00 Build 0)  -->
<svg version="1.1" id="Layer_1" xmlns="http://www.w3.org/2000/svg" xmlns:xlink="http://www.w3.org/1999/xlink" x="0px" y="0px"
	 viewBox="0 0 50 50" style="enable-background:new 0 0 50 50;" xml:space="preserve">
<style type="text/css">
	.st0{fill:none;stroke:#000000;stroke-width:2;stroke-linecap:round;stroke-linejoin:round;stroke-miterlimit:10;}
</style>
<path class="st0" d="M32.3,15.1c4.1-2.6,5.7-5.8,5.7-5.8L35.6,1 M34.3,20.2l7-1.2c0,0,3-2.8,3.8-7.7 M33.9,21.6
	c1.9,2.5,12.7,7.8,15.1,18.5 M21.7,5.3C21.7,4,23.2,3,25,3s3.3,1,3.3,2.3 M30.6,44.4c-1.5,2.5-3.5,4.2-5.6,4.2
	c-1.9,0-3.7-1.4-5.1-3.5"/>
<path class="st0" d="M42.7,48.5C41.3,49.8,28,49.4,28,35.6C28,30,28.8,21,31,18c3.4,3.9,7,9,10.1,15.3
	C45.7,42.4,44.8,46.6,42.7,48.5z M17.7,15.1C13.6,12.6,12,9.4,12,9.4L14.4,1 M15.7,20.2l-7-1.2c0,0-3-2.8-3.8-7.7 M16.1,21.6
	C14.2,24.1,3.4,29.3,1,40.1"/>
<path class="st0" d="M7.3,48.5C8.7,49.8,22,49.4,22,35.6C22,30,21.2,21,19,18c-3.4,3.9-7,9-10.1,15.3C4.3,42.4,5.2,46.6,7.3,48.5z
	 M33,10.2c0,2.8-1.6,4.8-3.5,4.8S26,12.9,26,10.2S27.6,5,29.5,5S33,7.4,33,10.2z"/>
<path class="st0" d="M33,10.2c0,2.8-1.6,4.8-3.5,4.8S26,12.9,26,10.2S27.6,5,29.5,5S33,7.4,33,10.2z M24,10.2c0,2.8-1.6,4.8-3.5,4.8
	S17,12.9,17,10.2S18.6,5,20.5,5S24,7.4,24,10.2z"/>
<path class="st0" d="M24,10.2c0,2.8-1.6,4.8-3.5,4.8S17,12.9,17,10.2S18.6,5,20.5,5S24,7.4,24,10.2z M34,21c0-2.5-1-4.8-2.5-6.4
	 M21.9,30.4c1,0.4,2,0.6,3.1,0.6s2.2-0.2,3.2-0.6 M20.1,15.1c1.5,0.6,3.2,0.9,4.9,0.9c1.7,0,3.4-0.3,4.9-0.9 M18.5,14.6
	C17,16.2,16,18.5,16,21"/>
</svg>
