<?xml version="1.0" encoding="UTF-8" standalone="yes"?>
<svg xmlns="http://www.w3.org/2000/svg" xmlns:xlink="http://www.w3.org/1999/xlink" width="50px" height="50px" viewBox="0 0 50 50" version="1.1" fill="#000000">
  <g id="surface16045">
    <path style=" stroke:none;fill-rule:nonzero;fill:#000000;fill-opacity:1;" d="M 25 2 C 12.308594 2 2 12.308594 2 25 C 2 37.691406 12.308594 48 25 48 C 37.691406 48 48 37.691406 48 25 C 48 12.308594 37.691406 2 25 2 Z M 25 4 C 36.609375 4 46 13.390625 46 25 C 46 36.609375 36.609375 46 25 46 C 13.390625 46 4 36.609375 4 25 C 4 13.390625 13.390625 4 25 4 Z M 26 11 C 25.046875 11 24.320312 11.648438 23.847656 12.375 C 23.378906 13.101562 23.050781 14.003906 22.78125 15.03125 C 22.25 17.082031 22 19.636719 22 22 C 22 22.988281 22.1875 23.703125 22.265625 24.582031 C 22.242188 24.574219 22.230469 24.539062 22.203125 24.53125 C 21.4375 24.171875 20.675781 24 20 24 C 19.160156 24 17.726562 24.214844 16.402344 25.238281 C 15.078125 26.265625 14 28.140625 14 31 C 14 33.375 14.773438 35.175781 15.941406 36.332031 C 17.113281 37.492188 18.621094 38 20 38 C 22.566406 38 24.65625 36.695312 26.21875 34.765625 C 27.097656 35.515625 28.03125 36 29 36 C 30.832031 36 32.125 34.632812 32.992188 33.125 C 33.859375 31.613281 34.449219 29.816406 34.949219 28.316406 C 35.125 27.792969 34.839844 27.226562 34.316406 27.050781 C 33.792969 26.875 33.226562 27.160156 33.050781 27.683594 C 32.550781 29.183594 31.972656 30.886719 31.257812 32.125 C 30.542969 33.367188 29.832031 34 29 34 C 28.628906 34 28.011719 33.632812 27.347656 33.03125 C 27.4375 32.878906 27.554688 32.746094 27.636719 32.589844 C 29.238281 29.519531 30 25.644531 30 22 C 30 18.90625 29.566406 16.316406 28.933594 14.433594 C 28.613281 13.488281 28.253906 12.722656 27.824219 12.128906 C 27.390625 11.535156 26.839844 11 26 11 Z M 25.9375 13.03125 C 25.980469 13.0625 26.082031 13.136719 26.203125 13.308594 C 26.457031 13.652344 26.765625 14.261719 27.035156 15.066406 C 27.582031 16.683594 28 19.09375 28 22 C 28 25.246094 27.277344 28.707031 25.96875 31.355469 C 24.882812 29.421875 24 26.351562 24 22 C 24 19.78125 24.25 17.335938 24.71875 15.53125 C 24.953125 14.632812 25.25 13.890625 25.53125 13.460938 C 25.75 13.121094 25.867188 13.050781 25.9375 13.03125 Z M 20 26 C 20.285156 26 20.859375 26.109375 21.363281 26.34375 C 21.871094 26.578125 22.308594 26.925781 22.53125 27.308594 C 22.539062 27.320312 22.546875 27.328125 22.550781 27.339844 C 22.949219 29.34375 23.503906 31.070312 24.238281 32.367188 C 24.402344 32.652344 24.613281 32.777344 24.785156 33.03125 C 23.511719 34.765625 22.003906 36 20 36 C 19.109375 36 18.117188 35.671875 17.355469 34.914062 C 16.589844 34.15625 16 32.957031 16 31 C 16 28.609375 16.777344 27.484375 17.628906 26.824219 C 18.480469 26.160156 19.546875 26 20 26 Z M 20 26 "/>
  </g>
</svg>