<?xml version="1.0" encoding="utf-8"?>
<!-- Generator: Adobe Illustrator 23.0.3, SVG Export Plug-In . SVG Version: 6.00 Build 0)  -->
<svg version="1.1" id="Layer_1" xmlns="http://www.w3.org/2000/svg" xmlns:xlink="http://www.w3.org/1999/xlink" x="0px" y="0px"
	 viewBox="0 0 50 50" style="enable-background:new 0 0 50 50;" xml:space="preserve">
<style type="text/css">
	.st0{fill:none;stroke:#000000;stroke-width:2;}
	.st1{fill:none;stroke:#000000;stroke-width:2;stroke-linecap:round;stroke-linejoin:round;}
	.st2{fill:none;stroke:#000000;stroke-width:2;stroke-linecap:round;}
</style>
<path class="st0" d="M24,3c0,0,0,15.8,0,21s0,21,0,21"/>
<line class="st0" x1="42" y1="13" x2="6" y2="13"/>
<path d="M30,43.1c-1.9,0.6-3.9,0.9-6,0.9c-11.1,0-20-9-20-20c0-11.1,9-20,20-20c11,0,20,9,20,20c0,1.8-0.3,3.6-0.7,5.3l1.6,1.5
	c0.7-2.1,1.1-4.4,1.1-6.8c0-12.2-9.9-22-22-22c-12.2,0-22,9.9-22,22c0,12.2,9.9,22,22,22c2.1,0,4.1-0.3,6-0.8V43.1z"/>
<path class="st1" d="M41.9,39.1H48L34,26v19.3l4-4l3.1,6.8l3.9-1.8l-3.2-7L41.9,39.1z"/>
<path class="st2" d="M24,2.9c-7.2,0-13,9.4-13,21s5.8,21,13,21"/>
<rect x="6" y="34" width="24" height="2"/>
<g>
	<polygon points="38.8,25 44.6,25 44.6,23 36.6,23 	"/>
	<rect x="3" y="23" width="27" height="2"/>
</g>
<g>
	<path d="M24,3.9c6.3,0,11.5,8.1,12,18.4l2,1.9c0-0.1,0-0.2,0-0.3c0-12.2-6.3-22-14-22c-0.6,0-1,0.4-1,1S23.4,3.9,24,3.9z"/>
	<path d="M30,41.3C28.2,43,26.2,44,24,44c-0.6,0-1,0.4-1,1s0.4,1,1,1c2.2,0,4.2-0.8,6-2.1V41.3z"/>
</g>
</svg>
