<?xml version="1.0" encoding="utf-8"?>
<!-- Generator: Adobe Illustrator 23.0.3, SVG Export Plug-In . SVG Version: 6.00 Build 0)  -->
<svg version="1.1" id="Layer_1" xmlns="http://www.w3.org/2000/svg" xmlns:xlink="http://www.w3.org/1999/xlink" x="0px" y="0px"
	 viewBox="0 0 50 50" style="enable-background:new 0 0 50 50;" xml:space="preserve">
<g id="surface16206">
	<path d="M25,2C12.3,2,2,12.3,2,25s10.3,23,23,23s23-10.3,23-23S37.7,2,25,2z M25,46C13.4,46,4,36.6,4,25S13.4,4,25,4s21,9.4,21,21
		S36.6,46,25,46z M32.3,11.1c0,0-2.9-1.1-5.8-1.1c-2.7,0-4.7,0.9-5.9,2.4C19.4,13.9,19,16,19,18.2V20h-2c-0.5,0-1,0.5-1,1v5
		c0,0.5,0.5,1,1,1h2v12c0,0.5,0.5,1,1,1h6c0.5,0,1-0.5,1-1V27h4c0.5,0,0.9-0.3,1-0.8l1-5c0.1-0.3,0-0.6-0.2-0.8
		C32.6,20.1,32.3,20,32,20h-5v-2.2c0-0.5,0-0.5,0.2-0.6c0.1-0.1,0.7-0.2,1.5-0.2H32c0.5,0,1-0.5,1-1v-4C33,11.6,32.7,11.2,32.3,11.1
		z M31,15h-2.3c-1.1,0-1.9,0.1-2.6,0.6C25.4,16,25,16.9,25,17.8V21c0,0.5,0.5,1,1,1h4.8l-0.6,3H26c-0.5,0-1,0.5-1,1v12h-4V26
		c0-0.5-0.5-1-1-1h-2v-3h2c0.5,0,1-0.5,1-1v-2.8c0-2,0.4-3.5,1.2-4.6c0.8-1,2.1-1.7,4.4-1.7c1.9,0,3.6,0.5,4.4,0.8V15z"/>
	<path d="M27.2,17.2c0.1-0.1,0.7-0.2,1.5-0.2H32c0.5,0,1-0.5,1-1v-4c0-0.4-0.3-0.8-0.7-0.9c0,0-2.9-1.1-5.8-1.1
		c-2.7,0-4.7,0.9-5.9,2.4C19.4,13.9,19,16,19,18.2V20h-2c-0.5,0-1,0.5-1,1v5c0,0.5,0.5,1,1,1h2v12c0,0.5,0.5,1,1,1h6
		c0.5,0,1-0.5,1-1V27h4c0.5,0,0.9-0.3,1-0.8l1-5c0.1-0.3,0-0.6-0.2-0.8C32.6,20.1,32.3,20,32,20h-5v-2.2C27,17.3,27,17.3,27.2,17.2z
		 M26,22h4.8l-0.6,3H26c-0.5,0-1,0.5-1,1v12h-4V26c0-0.5-0.5-1-1-1h-2v-3h2c0.5,0,1-0.5,1-1v-2.8c0-2,0.4-3.5,1.2-4.6
		c0.8-1,2.1-1.7,4.4-1.7c1.9,0,3.6,0.5,4.4,0.8V15h-2.3c-1.1,0-1.9,0.1-2.6,0.6C25.4,16,25,16.9,25,17.8V21C25,21.5,25.5,22,26,22z"
		/>
	<path d="M27.2,17.2c0.1-0.1,0.7-0.2,1.5-0.2H32c0.5,0,1-0.5,1-1v-4c0-0.4-0.3-0.8-0.7-0.9c0,0-2.9-1.1-5.8-1.1
		c-2.7,0-4.7,0.9-5.9,2.4C19.4,13.9,19,16,19,18.2V20h-2c-0.5,0-1,0.5-1,1v5c0,0.5,0.5,1,1,1h2v12c0,0.5,0.5,1,1,1h6
		c0.5,0,1-0.5,1-1V27h4c0.5,0,0.9-0.3,1-0.8l1-5c0.1-0.3,0-0.6-0.2-0.8C32.6,20.1,32.3,20,32,20h-5v-2.2C27,17.3,27,17.3,27.2,17.2z
		 M26,22h4.8l-0.6,3H26c-0.5,0-1,0.5-1,1v12h-4V26c0-0.5-0.5-1-1-1h-2v-3h2c0.5,0,1-0.5,1-1v-2.8c0-2,0.4-3.5,1.2-4.6
		c0.8-1,2.1-1.7,4.4-1.7c1.9,0,3.6,0.5,4.4,0.8V15h-2.3c-1.1,0-1.9,0.1-2.6,0.6C25.4,16,25,16.9,25,17.8V21C25,21.5,25.5,22,26,22z"
		/>
</g>
</svg>
