<?xml version="1.0" encoding="utf-8"?>
<!-- Generator: Adobe Illustrator 24.0.1, SVG Export Plug-In . SVG Version: 6.00 Build 0)  -->
<svg version="1.1" id="Layer_1" xmlns="http://www.w3.org/2000/svg" xmlns:xlink="http://www.w3.org/1999/xlink" x="0px" y="0px"
	 viewBox="0 0 50 50" style="enable-background:new 0 0 50 50;" xml:space="preserve">
<style type="text/css">
	.st0{fill:none;stroke:#000000;stroke-width:2;stroke-linecap:round;stroke-miterlimit:10;}
</style>
<path class="st0" d="M46.4,10.6L39,18l-5-2l-2-5l7.4-7.4C38.4,3.2,37.2,3,36,3c-6.1,0-11,4.9-11,11c0,1.6,0.4,3.2,1,4.5L4.1,40.4
	c-1.5,1.5-1.5,4,0,5.5s4,1.5,5.5,0L31.5,24c1.4,0.6,2.9,1,4.5,1c6.1,0,11-4.9,11-11C47,12.8,46.8,11.6,46.4,10.6z"/>
</svg>
