<svg id="Layer_1" data-name="Layer 1" xmlns="http://www.w3.org/2000/svg" viewBox="0 0 50 50"><defs><style>.cls-1{fill:none;stroke:#000;stroke-miterlimit:10;stroke-width:2px;}</style></defs><title>Artboard 1</title><path class="cls-1" d="M5,5H17V17H5Z"/><path class="cls-1" d="M9,9h4v4H9ZM5,33H17V45H5Z"/><path class="cls-1" d="M9,37h4v4H9ZM33,5H45V17H33Z"/><path class="cls-1" d="M37,9h4v4H37ZM21,7h4v4H21ZM8,25h4v4H8Zm21,8h8v4H29Zm8,4h8v8H37ZM25,37h4v4H25ZM41,25v3H37v5h8V25ZM21,16h4v5H21Zm4-5h4v5H25Zm0,10v4h7v3h5V21ZM12,21v4h5v4h4V21Z"/></svg>