<?xml version="1.0" encoding="utf-8"?>
<!-- Generator: Adobe Illustrator 24.0.1, SVG Export Plug-In . SVG Version: 6.00 Build 0)  -->
<svg version="1.1" id="Layer_1" xmlns="http://www.w3.org/2000/svg" xmlns:xlink="http://www.w3.org/1999/xlink" x="0px" y="0px"
	 viewBox="0 0 50 50" style="enable-background:new 0 0 50 50;" xml:space="preserve">
<style type="text/css">
	.st0{fill:none;stroke:#000000;stroke-width:2;stroke-linejoin:round;stroke-miterlimit:10;}
	.st1{fill:none;stroke:#000000;stroke-width:2;stroke-miterlimit:10;}
</style>
<path class="st0" d="M11,5H4C3.4,5,3,5.4,3,6v40c0,0.6,0.4,1,1,1h42c0.6,0,1-0.4,1-1V6c0-0.6-0.4-1-1-1h-7"/>
<line class="st0" x1="35" y1="5" x2="15" y2="5"/>
<line class="st0" x1="3" y1="14" x2="47" y2="14"/>
<path class="st1" d="M11,20h28v21h-9H11V20z"/>
<line class="st0" x1="11" y1="27" x2="39" y2="27"/>
<line class="st0" x1="11" y1="34" x2="39" y2="34"/>
<line class="st0" x1="25" y1="20" x2="25" y2="41"/>
<line class="st0" x1="18" y1="20" x2="18" y2="41"/>
<line class="st0" x1="32" y1="20" x2="32" y2="41"/>
<path class="st0" d="M38,9h-2c-0.6,0-1-0.4-1-1V2c0-0.6,0.4-1,1-1h2c0.6,0,1,0.4,1,1v6C39,8.6,38.6,9,38,9z"/>
<path class="st0" d="M14,9h-2c-0.6,0-1-0.4-1-1V2c0-0.6,0.4-1,1-1h2c0.6,0,1,0.4,1,1v6C15,8.6,14.6,9,14,9z"/>
<path d="M25,27h7v7h-7V27z"/>
</svg>
