<?xml version="1.0" encoding="utf-8"?>
<!-- Generator: Adobe Illustrator 23.0.3, SVG Export Plug-In . SVG Version: 6.00 Build 0)  -->
<svg version="1.1" id="Layer_1" xmlns="http://www.w3.org/2000/svg" xmlns:xlink="http://www.w3.org/1999/xlink" x="0px" y="0px"
	 viewBox="0 0 50 50" style="enable-background:new 0 0 50 50;" xml:space="preserve">
<path style="fill:none;stroke:#000000;stroke-width:2;stroke-linecap:round;stroke-linejoin:round;stroke-miterlimit:10;" d="M25,8
	c0,0-10-2-20-2v32c10,0,20,2,20,2s10-2,20-2V6C35,6,25,8,25,8z"/>
<path style="fill:none;stroke:#000000;stroke-width:2;stroke-linejoin:round;stroke-miterlimit:10;" d="M25,40V8"/>
<path style="fill:none;stroke:#000000;stroke-width:2;stroke-miterlimit:10;" d="M5,12H3c-1.1,0-2,0.9-2,2v26c0,1.1,0.9,2,2,2
	c0.6,0,1.3,0,2,0c9.4,0,18.8,1.8,19.2,1.9c0.3,0,0.5,0.1,0.8,0.1s0.5,0,0.8-0.1C26.2,43.8,35.6,42,45,42c0.5,0,1.3,0,2,0
	c1.1,0,2-0.9,2-2V14c0-1.1-0.9-2-2-2h-2"/>
</svg>
