<?xml version="1.0" encoding="utf-8"?>
<!-- Generator: Adobe Illustrator 23.0.3, SVG Export Plug-In . SVG Version: 6.00 Build 0)  -->
<svg version="1.1" id="Layer_1" xmlns="http://www.w3.org/2000/svg" xmlns:xlink="http://www.w3.org/1999/xlink" x="0px" y="0px"
	 viewBox="0 0 50 50" style="enable-background:new 0 0 50 50;" xml:space="preserve">
<path d="M25,40.5c-0.8,0-1.5,0.7-1.5,1.5s0.7,1.5,1.5,1.5s1.5-0.7,1.5-1.5S25.8,40.5,25,40.5z M25,42.9c-0.5,0-0.9-0.4-0.9-0.9
	s0.4-0.9,0.9-0.9s0.9,0.4,0.9,0.9S25.5,42.9,25,42.9z"/>
<path d="M25,3c-2.8,0-5,2.2-5,5s2.2,5,5,5s5-2.2,5-5S27.8,3,25,3z M25,11c-1.7,0-3-1.3-3-3s1.3-3,3-3s3,1.3,3,3S26.7,11,25,11z"/>
<path d="M39.6,25c0,1.3,1.1,2.4,2.4,2.4s2.4-1.1,2.4-2.4s-1.1-2.4-2.4-2.4S39.6,23.7,39.6,25z M43.4,25c0,0.8-0.6,1.4-1.4,1.4
	s-1.4-0.6-1.4-1.4s0.6-1.4,1.4-1.4S43.4,24.2,43.4,25z"/>
<path d="M5.6,25c0,1.3,1,2.4,2.4,2.4s2.4-1,2.4-2.4s-1-2.4-2.4-2.4S5.6,23.7,5.6,25z M9.4,25c0,0.8-0.6,1.4-1.4,1.4S6.6,25.8,6.6,25
	s0.6-1.4,1.4-1.4S9.4,24.2,9.4,25z"/>
<path d="M14.1,35.9c-0.6-0.6-1.7-0.6-2.3,0c-0.7,0.6-0.6,1.7,0,2.3c0.6,0.7,1.7,0.6,2.3,0C14.8,37.6,14.8,36.5,14.1,35.9z
	 M12.3,37.7c-0.4-0.4-0.4-1,0-1.4c0.4-0.4,1-0.4,1.4,0c0.4,0.4,0.4,1,0,1.4C13.3,38.1,12.6,38.1,12.3,37.7z"/>
<path d="M39.7,10.4c-1.4-1.4-3.7-1.4-5.2,0c-1.5,1.4-1.4,3.7,0,5.2c1.4,1.5,3.7,1.4,5.2,0C41.1,14.2,41,11.8,39.7,10.4z M35.5,14.5
	c-0.9-0.9-0.9-2.3,0-3.1c0.9-0.8,2.3-0.9,3.1,0c0.9,0.9,0.9,2.3,0,3.1C37.7,15.3,36.4,15.4,35.5,14.5z"/>
<path d="M35.9,35.9c-0.6,0.6-0.6,1.6,0,2.2s1.6,0.6,2.2,0s0.6-1.6,0-2.2C37.6,35.3,36.5,35.3,35.9,35.9z M37.7,37.7
	c-0.4,0.4-1,0.4-1.3,0c-0.4-0.4-0.4-1,0-1.3c0.4-0.4,1-0.4,1.3,0C38.1,36.7,38.1,37.3,37.7,37.7z"/>
<path d="M10.1,10.1c-1.5,1.5-1.5,4.1,0,5.7s4.1,1.5,5.7,0s1.5-4.1,0-5.7S11.7,8.6,10.1,10.1z M14.7,14.7c-1,1-2.5,1-3.4,0
	s-1-2.5,0-3.4s2.5-1,3.4,0S15.6,13.7,14.7,14.7z"/>
</svg>
