<?xml version="1.0" encoding="utf-8"?>
<!-- Generator: Adobe Illustrator 24.0.1, SVG Export Plug-In . SVG Version: 6.00 Build 0)  -->
<svg version="1.1" id="Layer_1" xmlns="http://www.w3.org/2000/svg" xmlns:xlink="http://www.w3.org/1999/xlink" x="0px" y="0px"
	 viewBox="0 0 50 50" style="enable-background:new 0 0 50 50;" xml:space="preserve">
<style type="text/css">
	.st0{fill:none;stroke:#000000;stroke-width:2;stroke-linecap:round;stroke-miterlimit:10;}
	.st1{fill:none;stroke:#000000;stroke-width:2;stroke-miterlimit:10;}
</style>
<line class="st0" x1="25" y1="3" x2="25" y2="25"/>
<line class="st0" x1="47" y1="25" x2="25" y2="25"/>
<path class="st1" d="M3,25c0,12.1,9.9,22,22,22s22-9.9,22-22S37.1,3,25,3S3,12.9,3,25z"/>
<g>
	<circle cx="37" cy="10" r="1"/>
	<circle cx="40" cy="13" r="1"/>
	<circle cx="40" cy="19" r="1"/>
	<circle cx="43" cy="16" r="1"/>
	<circle cx="37" cy="16" r="1"/>
	<circle cx="37" cy="22" r="1"/>
	<circle cx="43" cy="22" r="1"/>
	<circle cx="46" cy="19" r="1"/>
	<circle cx="34" cy="7" r="1"/>
	<circle cx="31" cy="22" r="1"/>
	<circle cx="34" cy="19" r="1"/>
	<circle cx="28" cy="19" r="1"/>
	<circle cx="34" cy="13" r="1"/>
	<circle cx="31" cy="16" r="1"/>
	<circle cx="28" cy="13" r="1"/>
	<circle cx="31" cy="10" r="1"/>
	<circle cx="28" cy="7" r="1"/>
	<path d="M31,3c-0.6,0-1,0.4-1,1s0.4,1,1,1s1-0.4,1-1S31.6,3,31,3z"/>
</g>
</svg>
