<?xml version="1.0" encoding="utf-8"?>
<!-- Generator: Adobe Illustrator 23.0.3, SVG Export Plug-In . SVG Version: 6.00 Build 0)  -->
<svg version="1.1" id="Layer_1" xmlns="http://www.w3.org/2000/svg" xmlns:xlink="http://www.w3.org/1999/xlink" x="0px" y="0px"
	 viewBox="0 0 50 50" style="enable-background:new 0 0 50 50;" xml:space="preserve">
<path d="M33.9,31.1c2.6-3,4.1-6.8,4.1-11.1c0-9.4-7.6-17-17-17S4,10.6,4,20s7.6,17,17,17c3.7,0,7.1-1.2,9.9-3.2l13.2,13.1l2.8-2.8
	L33.9,31.1z M21,35c-8.3,0-15-6.7-15-15S12.7,5,21,5s15,6.7,15,15S29.3,35,21,35z"/>
<rect x="13" y="19" width="16" height="2"/>
<rect x="20" y="12" width="2" height="16"/>
</svg>
