<?xml version="1.0" encoding="utf-8"?>
<!-- Generator: Adobe Illustrator 23.0.3, SVG Export Plug-In . SVG Version: 6.00 Build 0)  -->
<svg version="1.1" id="Layer_1" xmlns="http://www.w3.org/2000/svg" xmlns:xlink="http://www.w3.org/1999/xlink" x="0px" y="0px"
	 viewBox="0 0 50 50" style="enable-background:new 0 0 50 50;" xml:space="preserve">
<style type="text/css">
	.st0{fill:none;stroke:#000000;stroke-width:2;stroke-linejoin:round;}
	.st1{fill:none;stroke:#000000;stroke-width:2;stroke-linecap:round;stroke-linejoin:round;}
</style>
<g id="surface1">
	<path class="st0" d="M19,14h8v10h-8V14z M27.8,24h-9.6C14,25.9,11,30.1,11,35c0,4.4,2.4,8.3,6,10.4V47h12v-1.6
		c3.6-2.1,6-5.9,6-10.4C35,30.1,32,25.9,27.8,24z M23,5c-1.1,0-2,0.9-2,2v3h4V7C25,5.9,24.1,5,23,5z M23,14v-4 M25,8h3"/>
	<path class="st1" d="M22,24c0,5-4,6-4,11s4,8,4,8 M42,13c-8,0-14-5-14-5s6-5,14-5c2.8,0,5,2.2,5,5S44.8,13,42,13z M11,35h24"/>
</g>
</svg>
