<?xml version="1.0" encoding="utf-8"?>
<!-- Generator: Adobe Illustrator 23.0.3, SVG Export Plug-In . SVG Version: 6.00 Build 0)  -->
<svg version="1.1" id="Layer_1" xmlns="http://www.w3.org/2000/svg" xmlns:xlink="http://www.w3.org/1999/xlink" x="0px" y="0px"
	 viewBox="0 0 50 50" style="enable-background:new 0 0 50 50;" xml:space="preserve">
<path style="fill:none;stroke:#000000;stroke-width:2;stroke-linejoin:round;stroke-miterlimit:10;" d="M43,5H7C4.8,5,3,6.8,3,9v24
	c0,2.2,1.8,4,4,4h5c0.6,3.3,0,6.2-3,8c4.1,0,8.8-2,11-8h23c2.2,0,4-1.8,4-4V9C47,6.8,45.2,5,43,5z"/>
<path d="M25,19c-1.1,0-2,0.9-2,2s0.9,2,2,2s2-0.9,2-2S26.1,19,25,19z M35,19c-1.1,0-2,0.9-2,2s0.9,2,2,2s2-0.9,2-2S36.1,19,35,19z
	 M15,19c-1.1,0-2,0.9-2,2s0.9,2,2,2s2-0.9,2-2S16.1,19,15,19z"/>
</svg>
