<?xml version="1.0" encoding="utf-8"?>
<!-- Generator: Adobe Illustrator 23.0.3, SVG Export Plug-In . SVG Version: 6.00 Build 0)  -->
<svg version="1.1" id="Layer_1" xmlns="http://www.w3.org/2000/svg" xmlns:xlink="http://www.w3.org/1999/xlink" x="0px" y="0px"
	 viewBox="0 0 50 50" style="enable-background:new 0 0 50 50;" xml:space="preserve">
<style type="text/css">
	.st0{fill:none;stroke:#000000;stroke-width:2;stroke-linecap:round;stroke-linejoin:round;}
</style>
<path class="st0" d="M25,3C12.8,3,3,12.8,3,25s9.8,22,22,22s22-9.8,22-22S37.2,3,25,3L25,3z"/>
<path class="st0" d="M25,33c5,0,11,1,11,1s-1-11-11-11S14,34,14,34S20,33,25,33z"/>
<path class="st0" d="M29,16c0,0,2.1-2,5-2c2.9,0,5,2,5,2"/>
<path class="st0" d="M21,16c0,0-2.1-2-5-2s-5,2-5,2"/>
</svg>
