<?xml version="1.0" encoding="iso-8859-1"?>
<!-- Generator: Adobe Illustrator 23.0.3, SVG Export Plug-In . SVG Version: 6.00 Build 0)  -->
<svg version="1.1" id="Layer_1" xmlns="http://www.w3.org/2000/svg" xmlns:xlink="http://www.w3.org/1999/xlink" x="0px" y="0px"
	 viewBox="0 0 50 50" style="enable-background:new 0 0 50 50;" xml:space="preserve">
<path style="fill:none;stroke:#000000;stroke-width:2;stroke-linecap:round;stroke-linejoin:round;stroke-miterlimit:10;" d="
	M22.4,20c0,0,3.5-7.8,4-9.2C26.7,10,27,9.5,27,8.6C27,6,25.1,5,24,5c-0.8,0-1.7,0.5-2.3,1.5L10.5,21.9c-1,1.4-1.5,3-1.5,4.7V36
	c0,4.4,3.6,8,8,8c0,0,17,0,19,0c2.5,0,4-2,4-3.3c0-1.5-0.7-2.5-0.7-2.5s2.7-1,2.7-3.4c0-2.1-2-2.9-2-2.9s2-1.1,2-3.2
	c0-2.3-2.3-3.1-2.3-3.1s0.3-1.7,0.3-2.7c0-1.3-1.3-2.8-3.6-2.8C33,20,22.4,20,22.4,20z"/>
</svg>
