<?xml version="1.0" encoding="utf-8"?>
<!-- Generator: Adobe Illustrator 23.0.3, SVG Export Plug-In . SVG Version: 6.00 Build 0)  -->
<svg version="1.1" id="Layer_1" xmlns="http://www.w3.org/2000/svg" xmlns:xlink="http://www.w3.org/1999/xlink" x="0px" y="0px"
	 viewBox="0 0 50 50" style="enable-background:new 0 0 50 50;" xml:space="preserve">
<path style="fill:none;stroke:#000000;stroke-width:2;stroke-linejoin:round;stroke-miterlimit:10;" d="M13,33H5c-1.1,0-2-0.9-2-2
	V19c0-1.1,0.9-2,2-2h8"/>
<path d="M46,25c0,5.5-3,10.3-7.4,12.9l1.1,1.7c5-3,8.3-8.4,8.3-14.6s-3.3-11.6-8.3-14.6l-1.1,1.7C43,14.7,46,19.5,46,25z"/>
<path d="M42,25c0-4.1-2.3-7.7-5.7-9.6L35.2,17c2.9,1.5,4.8,4.5,4.8,8s-2,6.4-4.8,8l1.1,1.7C39.7,32.7,42,29.1,42,25z"/>
<path d="M31.8,27.9l1.2,1.7c1.8-0.8,3.1-2.5,3.1-4.6s-1.3-3.9-3.1-4.6l-1.2,1.7C33,22.4,34,23.6,34,25S33,27.6,31.8,27.9z"/>
<path style="fill:none;stroke:#000000;stroke-width:2;stroke-miterlimit:10;" d="M13,33l12.6,13.6c0.3,0.3,0.6,0.4,1,0.4l0,0
	c0.8,0,1.4-0.6,1.4-1.4V4.4C28,3.6,27.4,3,26.6,3l0,0c-0.4,0-0.8,0.2-1,0.4L13,17V33z"/>
</svg>
