<svg fill="#000000" xmlns="http://www.w3.org/2000/svg" viewBox="0 0 50 50" width="50px" height="50px"><path fill="none" stroke="#000000" stroke-linecap="round" stroke-linejoin="round" stroke-miterlimit="10" stroke-width="2" d="M13 -3H37V41H13z" transform="rotate(-90 25 19)"/><path fill="none" stroke="#000000" stroke-linecap="round" stroke-linejoin="round" stroke-miterlimit="10" stroke-width="2" d="M3 34c29.083 0 41 6 41 6v-6M3 37c26.867 0 38 10 38 10v-5M40 7L40 31M38 34L38 37.673M36 40.698L36 43.673M10 7L10 31M31 23c1.657 0 3-1.343 3-3s-1.343-3-3-3c-.36 0-1 0-1 0 0-2.761-2.239-5-5-5s-5 2.239-5 5c0 0-.64 0-1 0-1.657 0-3 1.343-3 3s1.343 3 3 3"/></svg>