<?xml version="1.0" encoding="iso-8859-1"?>
<!-- Generator: Adobe Illustrator 24.0.1, SVG Export Plug-In . SVG Version: 6.00 Build 0)  -->
<svg version="1.1" id="Layer_1" xmlns="http://www.w3.org/2000/svg" xmlns:xlink="http://www.w3.org/1999/xlink" x="0px" y="0px"
	 viewBox="0 0 50 50" style="enable-background:new 0 0 50 50;" xml:space="preserve">
<path style="fill:none;stroke:#000000;stroke-width:2;stroke-miterlimit:10;" d="M29,29h8v8h-8V29z M37,29h8v8h-8V29z M37,21h8v8h-8
	V21z M5,29h8v8H5V29z M13,29h8v8h-8V29z M29,37h8v8h-8V37z M37,37h8v8h-8V37z M5,37h8v8H5V37z M5,21h8v8H5V21z M13,37h8v8h-8V37z
	 M21,37h8v8h-8V37z"/>
</svg>
