<?xml version="1.0" encoding="utf-8"?>
<!-- Generator: Adobe Illustrator 22.1.0, SVG Export Plug-In . SVG Version: 6.00 Build 0)  -->
<svg version="1.1" id="pattern" xmlns="http://www.w3.org/2000/svg" xmlns:xlink="http://www.w3.org/1999/xlink" x="0px" y="0px"
	 viewBox="0 0 50 50" style="enable-background:new 0 0 50 50;" xml:space="preserve">
<style type="text/css">
	.st0{fill:none;stroke:#000000;stroke-width:2;stroke-linecap:round;stroke-linejoin:round;stroke-miterlimit:10;}
</style>
<g id="circle">
	<g>
		<path d="M16,21.5v7.4l-7,3.8l-5.5-3c1,4.5,3.3,8.4,6.5,11.4v-6.6l7-3.8l7,3.8v7.4l-6.8,3.7c2.4,0.9,5.1,1.4,7.8,1.4
			c2.8,0,5.4-0.5,7.8-1.4L26,41.8v-7.4l7-3.8l7,3.8v6.6c3.2-3,5.5-7,6.5-11.4l-5.5,3l-7-3.8v-7.4l7-3.8l5.6,3
			C45.7,16.1,43.3,12,40,8.9v6.9l-7,3.8l-7-3.8V8.5l7-3.8l5.5,3C34.8,4.7,30.1,3,25,3c-5.1,0-9.8,1.7-13.5,4.6l5.5-3l7,3.8v7.4
			l-7,3.8l-7-3.8V8.9C6.7,12,4.3,16.1,3.4,20.7l5.6-3L16,21.5z"/>
		<path d="M36.6,43.7l-2.2,1.2C35.1,44.5,35.9,44.1,36.6,43.7z"/>
		<path d="M15.6,44.9l-2.2-1.2C14.1,44.1,14.9,44.5,15.6,44.9z"/>
	</g>
	<path class="st0" d="M25,3C12.9,3,3,12.8,3,25s9.9,22,22,22s22-9.8,22-22S37.1,3,25,3L25,3z"/>
</g>
</svg>
