<?xml version="1.0" encoding="utf-8"?>
<!-- Generator: Adobe Illustrator 23.0.3, SVG Export Plug-In . SVG Version: 6.00 Build 0)  -->
<svg version="1.1" id="Layer_1" xmlns="http://www.w3.org/2000/svg" xmlns:xlink="http://www.w3.org/1999/xlink" x="0px" y="0px"
	 viewBox="0 0 50 50" style="enable-background:new 0 0 50 50;" xml:space="preserve">
<path style="fill:none;stroke:#000000;stroke-width:2;stroke-linecap:round;stroke-linejoin:round;stroke-miterlimit:10;" d="M36,24
	v-2c0-1.6,1.3-3,3-3h0c1.6,0,3,1.4,3,3v15"/>
<path style="fill:none;stroke:#000000;stroke-width:2;stroke-linecap:round;stroke-linejoin:round;stroke-miterlimit:10;" d="M36,24
	v-4c0-1.6-1.3-3-3-3h0c-1.6,0-3,1.4-3,3v2"/>
<path style="fill:none;stroke:#000000;stroke-width:2;stroke-linecap:round;stroke-linejoin:round;stroke-miterlimit:10;" d="M18,29
	v-8c0-1.6,1.3-3,3-3h0c1.6,0,3,1.3,3,3v2"/>
<path style="fill:none;stroke:#000000;stroke-width:2;stroke-linecap:round;stroke-linejoin:round;stroke-miterlimit:10;" d="M18,32
	l-5.2-5.8c-1.1-1.4-3.2-1.6-4.6-0.5l0,0c-1.4,1.1-1.6,3.1-0.6,4.5l11.9,15.6c1.5,2,3.9,3.1,6.4,3.1h8c4.4,0,8-3.6,8-8V27"/>
<line style="fill:none;stroke:#000000;stroke-width:2;stroke-linecap:round;stroke-linejoin:round;stroke-miterlimit:10;" x1="18" y1="32" x2="18" y2="25"/>
<path style="fill:none;stroke:#000000;stroke-width:2;stroke-linecap:round;stroke-linejoin:round;stroke-miterlimit:10;" d="M24,23
	v-3c0-1.6,1.3-3,3-3h0c1.6,0,3,1.4,3,3v2"/>
</svg>
