<?xml version="1.0" encoding="utf-8"?>
<!-- Generator: Adobe Illustrator 24.0.1, SVG Export Plug-In . SVG Version: 6.00 Build 0)  -->
<svg version="1.1" id="Layer_1" xmlns="http://www.w3.org/2000/svg" xmlns:xlink="http://www.w3.org/1999/xlink" x="0px" y="0px"
	 viewBox="0 0 50 50" style="enable-background:new 0 0 50 50;" xml:space="preserve">
<style type="text/css">
	.st0{fill:none;stroke:#000000;stroke-width:2;stroke-linecap:round;stroke-linejoin:round;stroke-miterlimit:10;}
</style>
<path class="st0" d="M39.5,19.9C35.3,18.9,37.6,5,25,5C12,5,14.9,18.2,10.3,19.9C5.8,21.4,3,25,3,30.1c10.3,0.5,4.9,9.1,8.6,10.4
	c3.8,1.3,5.4,1.6,6.9,4.6c1,2.2,2.5,4,6.7,4c6.7-0.1,5.8-5.6,9.2-6.6C43,39.8,35,31.6,47,32.3C47,27.2,47,21.6,39.5,19.9z"/>
<path d="M26.5,14c-0.8,0-1.5,1.3-1.5,3c0,1.7,0.7,3,1.5,3c0,0,0,0,0,0c0.8,0,1.5-1.3,1.5-3C28,15.3,27.3,14,26.5,14
	C26.5,14,26.5,14,26.5,14z"/>
<path d="M19.5,14c-0.8,0-1.5,1.3-1.5,3c0,1.7,0.7,3,1.5,3c0,0,0,0,0,0c0.8,0,1.5-1.3,1.5-3C21,15.3,20.3,14,19.5,14
	C19.5,14,19.5,14,19.5,14z"/>
</svg>
