<?xml version="1.0" encoding="utf-8"?>
<!-- Generator: Adobe Illustrator 24.0.1, SVG Export Plug-In . SVG Version: 6.00 Build 0)  -->
<svg version="1.1" id="Layer_1" xmlns="http://www.w3.org/2000/svg" xmlns:xlink="http://www.w3.org/1999/xlink" x="0px" y="0px"
	 viewBox="0 0 50 50" style="enable-background:new 0 0 50 50;" xml:space="preserve">
<style type="text/css">
	.st0{fill:none;stroke:#000000;stroke-width:2;stroke-miterlimit:10;}
</style>
<path class="st0" d="M43.7,21c-3.6,0-15.1,0-15.1,0S16.3,5.2,16,4.9s-0.4-0.6-1.1-0.7c-0.9-0.1-2-0.2-2.3-0.2
	c-0.4,0-0.7,0.1-0.5,0.7C12.4,5.5,18.7,21,18.7,21H6c0,0-2.5-4.7-2.9-5.5C3,15.1,2.6,15,2,15H1.3C1.2,15,1,15,1,15.3
	c0,0.5,2,9.7,2,9.7s-1.9,9.2-2,9.7C1,35,1.2,35,1.3,35H2c1,0,1-0.1,1.2-0.5C3.6,33.7,6,29,6,29h12.7c0,0-6.4,15.5-6.6,16.2
	c-0.2,0.6,0.1,0.8,0.5,0.7c0.4,0,1.5-0.1,2.3-0.2c0.7-0.1,0.9-0.4,1.1-0.7S28.6,29,28.6,29s11.5,0,15.1,0c3.8,0,5.3-3,5.3-4
	S47.5,21,43.7,21z"/>
</svg>
