<?xml version="1.0" encoding="utf-8"?>
<!-- Generator: Adobe Illustrator 24.0.1, SVG Export Plug-In . SVG Version: 6.00 Build 0)  -->
<svg version="1.1" id="Layer_1" xmlns="http://www.w3.org/2000/svg" xmlns:xlink="http://www.w3.org/1999/xlink" x="0px" y="0px"
	 viewBox="0 0 50 50" style="enable-background:new 0 0 50 50;" xml:space="preserve">
<style type="text/css">
	.st0{fill:none;stroke:#000000;stroke-width:2;stroke-linecap:round;stroke-linejoin:round;stroke-miterlimit:10;}
	.st1{fill:none;stroke:#000000;stroke-width:2;stroke-linejoin:round;stroke-miterlimit:10;}
</style>
<rect x="5" y="10" class="st0" width="40" height="35"/>
<polyline class="st0" points="5,10 11,5 39,5 45,10 "/>
<path class="st0" d="M21.5,19h7c0.8,0,1.5-0.7,1.5-1.5l0,0c0-0.8-0.7-1.5-1.5-1.5h-7c-0.8,0-1.5,0.7-1.5,1.5l0,0
	C20,18.3,20.7,19,21.5,19z"/>
<line class="st0" x1="25" y1="10" x2="25" y2="5"/>
<line class="st1" x1="28" y1="40" x2="41" y2="40"/>
<line class="st1" x1="38" y1="38" x2="38" y2="33"/>
<path d="M41,34h-6l3-3L41,34z"/>
<path class="st1" d="M31,38v-5"/>
<path d="M34,34h-6l3-3L34,34z"/>
</svg>
