<?xml version="1.0" encoding="iso-8859-1"?>
<!-- Generator: Adobe Illustrator 19.2.1, SVG Export Plug-In . SVG Version: 6.00 Build 0)  -->
<svg version="1.1" id="Layer_1" xmlns="http://www.w3.org/2000/svg" xmlns:xlink="http://www.w3.org/1999/xlink" x="0px" y="0px"
	 viewBox="0 0 50 50" style="enable-background:new 0 0 50 50;" xml:space="preserve">
<line style="fill:none;stroke:#000000;stroke-width:2;stroke-linejoin:round;stroke-miterlimit:10;" x1="25" y1="28" x2="25" y2="41"/>
<circle style="fill:none;stroke:#000000;stroke-width:2;stroke-linecap:round;stroke-linejoin:round;stroke-miterlimit:10;" cx="25" cy="14" r="11"/>
<polyline style="fill:none;stroke:#000000;stroke-width:2;stroke-linecap:round;stroke-linejoin:round;stroke-miterlimit:10;" points="
	30,36 25,41 20,36 "/>
<path d="M20.683,16.068h2.18c0.133,0.938,0.961,1.562,2.031,1.562c1.211,0,2.047-0.812,2.047-2.039c0-1.242-0.844-2.07-2.039-2.07
	c-0.875,0-1.539,0.383-1.93,1.016h-2.109l0.562-6.539h7.086v1.961h-5.258l-0.25,2.898h0.141c0.477-0.688,1.273-1.102,2.391-1.102
	c2.141,0,3.656,1.57,3.656,3.781c0,2.391-1.727,4.023-4.312,4.023C22.425,19.56,20.753,18.084,20.683,16.068z"/>
<polyline style="fill:none;stroke:#000000;stroke-width:2;stroke-linecap:round;stroke-linejoin:round;stroke-miterlimit:10;" points="
	1,20 4,20 4,47 46,47 46,20 49,20 "/>
</svg>
