<?xml version="1.0" encoding="utf-8"?>
<!-- Generator: Adobe Illustrator 23.0.3, SVG Export Plug-In . SVG Version: 6.00 Build 0)  -->
<svg version="1.1" id="Layer_1" xmlns="http://www.w3.org/2000/svg" xmlns:xlink="http://www.w3.org/1999/xlink" x="0px" y="0px"
	 viewBox="0 0 50 50" style="enable-background:new 0 0 50 50;" xml:space="preserve">
<style type="text/css">
	.st0{fill:none;stroke:#000000;stroke-width:1.98;stroke-linecap:round;stroke-linejoin:round;}
</style>
<g id="surface1">
	<path class="st0" d="M37.4,25.6c0,0,1.6-1,1.6-4.6c0-6.7-8.3-6.2-7-13c-13.5,5.1-4.3,10.1-14.3,11.5"/>
	<path class="st0" d="M43.4,30.3c-0.6-2.4-2.6-4.3-5.2-4.6c-11.2-1.4-19.3-5.4-20.5-6.2c-2.9-1.8-6.7-1-8.6,1.9
		c-1.8,2.9-1,6.7,1.9,8.6c0.9,0.6,2.8,1.6,5.5,2.7"/>
	<path class="st0" d="M47.2,33.3c-1.7-3-5.4-4-8.4-2.4c-0.1,0-5.2,2.8-13.8,2.8c-8.5,0-13.6-2.6-13.8-2.8c-3-1.7-6.7-0.6-8.4,2.3
		c-1.7,3-0.7,6.8,2.3,8.5c0.8,0.4,8,4.4,19.9,4.4s19.1-3.9,19.9-4.4C47.9,40,48.9,36.2,47.2,33.3z"/>
</g>
</svg>
