<?xml version="1.0" encoding="iso-8859-1"?>
<!-- Generator: Adobe Illustrator 22.1.0, SVG Export Plug-In . SVG Version: 6.00 Build 0)  -->
<svg version="1.1" xmlns="http://www.w3.org/2000/svg" xmlns:xlink="http://www.w3.org/1999/xlink" x="0px" y="0px"
	 viewBox="0 0 50 50" style="enable-background:new 0 0 50 50;" xml:space="preserve">
<g id="top">
	<path style="fill:none;stroke:#000000;stroke-width:2;stroke-linejoin:round;stroke-miterlimit:10;" d="M42.048,16.693
		c1.062-0.324,2.062-0.903,2.902-1.743c2.734-2.734,2.734-7.166,0-9.899c-2.734-2.734-7.166-2.734-9.9,0
		c-0.84,0.84-1.419,1.84-1.743,2.902L42.048,16.693z"/>
</g>
<g id="main">
	<path style="fill:none;stroke:#000000;stroke-width:2;stroke-linecap:round;stroke-linejoin:round;stroke-miterlimit:10;" d="
		M33.307,7.952L3,21c0,4.06,3,7,3,7c0,7.652,7,9,7,9s3.052,7,9,7c0,0,2.95,3,7,3l13.048-30.307"/>
</g>
<g id="line3">
	
		<line style="fill:none;stroke:#000000;stroke-width:2;stroke-linecap:round;stroke-linejoin:round;stroke-miterlimit:10;" x1="13" y1="37" x2="37.64" y2="12.36"/>
</g>
<g id="line2">
	
		<line style="fill:none;stroke:#000000;stroke-width:2;stroke-linecap:round;stroke-linejoin:round;stroke-miterlimit:10;" x1="22" y1="44" x2="39.64" y2="15.36"/>
</g>
<g id="line1">
	
		<line style="fill:none;stroke:#000000;stroke-width:2;stroke-linecap:round;stroke-linejoin:round;stroke-miterlimit:10;" x1="6" y1="28" x2="34.64" y2="10.36"/>
</g>
<g id="two_lines">
	
		<line style="fill:none;stroke:#000000;stroke-width:2;stroke-linecap:round;stroke-linejoin:round;stroke-miterlimit:10;" x1="19.814" y1="13.814" x2="36.206" y2="30.206"/>
	
		<line style="fill:none;stroke:#000000;stroke-width:2;stroke-linecap:round;stroke-linejoin:round;stroke-miterlimit:10;" x1="26.803" y1="10.803" x2="39.223" y2="23.223"/>
</g>
</svg>
