<?xml version="1.0" encoding="utf-8"?>
<!-- Generator: Adobe Illustrator 24.0.1, SVG Export Plug-In . SVG Version: 6.00 Build 0)  -->
<svg version="1.1" id="Layer_1" xmlns="http://www.w3.org/2000/svg" xmlns:xlink="http://www.w3.org/1999/xlink" x="0px" y="0px"
	 viewBox="0 0 50 50" style="enable-background:new 0 0 50 50;" xml:space="preserve">
<style type="text/css">
	.st0{fill:none;stroke:#000000;stroke-width:2;stroke-linejoin:round;stroke-miterlimit:10;}
	.st1{fill:none;stroke:#000000;stroke-width:2;stroke-miterlimit:10;}
	.st2{fill:none;stroke:#000000;stroke-width:2;stroke-linecap:round;stroke-linejoin:round;stroke-miterlimit:10;}
</style>
<path d="M48.5,17c-0.8,0-1.5,0.4-1.5,1l0.9,7L47,32c0,0.6,0.7,1,1.5,1s1.5-0.4,1.5-1l-0.8-7l0.8-7C50,17.4,49.3,17,48.5,17z"/>
<path class="st0" d="M37,19c-1.4,3-4,4.2-10.2,4.2C24,23.2,23,21,23,21l-12.4,1.2l-3-5c-0.6-0.9-1.7-1.4-2.8-1.4H1l2.9,10.1
	C4.4,27.6,12.6,33,31,33c11.5,0,18-4.9,18-8S40.5,19,37,19z"/>
<path class="st1" d="M36.5,36c-1.4,0-2.5,1.1-2.5,2.5s1.1,2.5,2.5,2.5s2.5-1.1,2.5-2.5S37.9,36,36.5,36z"/>
<path class="st2" d="M32.2,33.1l2.6,2.9"/>
<path class="st1" d="M37.9,10c-1.3,0.2-9.6,1.4-18.9,1.8c-1.2,0-2,0-2,1.3c0,1,3.1,2.9,11.1,2.9c7.8,0,11.9-0.9,11.9-4.3
	C40,10.6,39.6,9.8,37.9,10z"/>
<line class="st2" x1="37" y1="19.2" x2="37" y2="15.4"/>
<line class="st2" x1="23" y1="21.2" x2="23" y2="16.4"/>
</svg>
