<?xml version="1.0" encoding="utf-8"?>
<!-- Generator: Adobe Illustrator 24.0.0, SVG Export Plug-In . SVG Version: 6.00 Build 0)  -->
<svg version="1.1" xmlns="http://www.w3.org/2000/svg" xmlns:xlink="http://www.w3.org/1999/xlink" x="0px" y="0px"
	 viewBox="0 0 50 50" enable-background="new 0 0 50 50" xml:space="preserve">
<g id="folder_1_">
	<path id="folder" fill="none" stroke="#000000" stroke-width="2" stroke-linecap="round" stroke-miterlimit="10" d="M44,9
		c0,0-23.6,0-25,0c-1.5,0-2.5-4-4-4H6C4.9,5,4,5.9,4,7v36c0,1.1,0.9,2,2,2h38c1.1,0,2-0.9,2-2V11C46,9.9,45.1,9,44,9z"/>
</g>
<g id="front_part_1_">
	
		<path id="front_part" fill="none" stroke="#000000" stroke-width="2" stroke-linecap="round" stroke-linejoin="round" stroke-miterlimit="10" d="
		M44,45H6c-1.1,0-2-0.9-2-2V16c0-1.1,0.9-2,2-2h38c1.1,0,2,0.9,2,2v27C46,44.1,45.1,45,44,45z"/>
</g>
<g id="file">
</g>
</svg>
