<?xml version="1.0" encoding="utf-8"?>
<!-- Generator: Adobe Illustrator 23.0.3, SVG Export Plug-In . SVG Version: 6.00 Build 0)  -->
<svg version="1.1" id="Layer_1" xmlns="http://www.w3.org/2000/svg" xmlns:xlink="http://www.w3.org/1999/xlink" x="0px" y="0px"
	 viewBox="0 0 50 50" style="enable-background:new 0 0 50 50;" xml:space="preserve">
<style type="text/css">
	.st0{fill:none;stroke:#000000;stroke-width:2;stroke-linecap:round;stroke-linejoin:round;}
	.st1{fill:none;stroke:#000000;stroke-width:2;stroke-linecap:round;}
</style>
<path class="st0" d="M36,7.9c0.3-1.3,0.9-2.6,1.8-3.5C40,2.2,42.9,2.8,45,5c2.1,2.1,2.9,5.1,0.6,7.3c-0.8,0.8-1.9,1.4-3.1,1.8
	 M14,7.9c-0.3-1.3-0.9-2.6-1.9-3.5C10,2.2,7.1,2.8,5,5s-2.9,5-0.7,7.2c0.8,0.8,1.9,1.4,3.1,1.8"/>
<path class="st1" d="M25,33c0,0,1.9,0,3,0s2,0.9,2,2s-0.9,2-2,2 M25,41c0,0,1.9,0,3,0s2-0.9,2-2s-0.9-2-2-2h-1"/>
<path class="st0" d="M19,23c0,0-0.3-1-1.5-1S16,23,16,23"/>
<path class="st0" d="M23,23c0-3-2.1-5-4.8-5c-3.8,0-6.3,4-6.3,7c0,2.8,2.2,5,5,5C21.3,30,23,26.8,23,23z"/>
<path class="st0" d="M31,23c0,0,0.3-1,1.5-1s1.5,1,1.5,1"/>
<path class="st0" d="M27,23c0-3,2.1-5,4.8-5c3.8,0,6.3,4,6.3,7c0,2.8-2.2,5-5,5C28.8,30,27,26.8,27,23z"/>
<path d="M28.6,4.4C27.4,4.1,26.2,4,25,4C12,4,2,17.4,2,29c0,7.1,4,12.5,11.2,15.1c0.4,0.1,0.9,0.5,1.6,0.8C17,46.1,20.3,48,25,48
	s8-1.9,10.2-3.1c0.7-0.4,1.2-0.7,1.6-0.8C44,41.5,48,36.1,48,29c0-3.5-0.9-7-2.4-10.2c-1.6-3.4-3.8-6.4-6.5-8.9
	c-2.7-2.5-6-4.4-9.6-5.3C29.2,4.5,28.9,4.4,28.6,4.4z M36.1,42.2c-0.5,0.2-1.1,0.5-1.9,1c-1.8,1-4.5,2.5-8.2,2.8c0,0.1-1.3,0-1.3,0
	c-4-0.1-7-1.7-8.9-2.8c-0.8-0.4-1.4-0.8-1.9-1C9.4,40.6,4,37,4,29c0-3.4,1-6.8,2.5-9.9c1.6-3.2,3.9-6.2,6.6-8.5
	c2.7-2.3,6-3.9,9.5-4.5c1.7-0.2,3.4-0.2,5,0.1C38,8,46,19.4,46,29C46,37,40.6,40.6,36.1,42.2z"/>
</svg>
