<?xml version="1.0" encoding="iso-8859-1"?>
<!-- Generator: Adobe Illustrator 23.0.3, SVG Export Plug-In . SVG Version: 6.00 Build 0)  -->
<svg version="1.1" id="Layer_1" xmlns="http://www.w3.org/2000/svg" xmlns:xlink="http://www.w3.org/1999/xlink" x="0px" y="0px"
	 viewBox="0 0 50 50" style="enable-background:new 0 0 50 50;" xml:space="preserve">
<path d="M36,13c-1.178,0-2.322,0.202-3.416,0.604C31.318,9.13,27.26,6,22.5,6C16.71,6,12,10.71,12,16.5
	c0,0.165,0.004,0.331,0.014,0.5c-0.004,0-0.009,0-0.014,0c-4.411,0-8,3.589-8,8c0,2.957,1.616,5.538,4.008,6.922
	c0.019-0.723,0.298-1.377,0.742-1.886C7.098,28.967,6,27.111,6,25c0-3.309,2.691-6,6-6c0.3,0,0.622,0.029,0.984,0.088l1.383,0.228
	l-0.235-1.382C14.043,17.413,14,16.944,14,16.5c0-4.687,3.813-8.5,8.5-8.5c4.201,0,7.727,3.013,8.383,7.164l0.216,1.368l1.23-0.636
	C33.481,15.302,34.716,15,36,15c4.411,0,8,3.589,8,8c0,4.013-2.974,7.336-6.831,7.905c0.585,0.497,1.096,1.075,1.519,1.718
	C42.899,31.444,46,27.582,46,23C46,17.486,41.514,13,36,13z"/>
</svg>
