<?xml version="1.0" encoding="utf-8"?>
<!-- Generator: Adobe Illustrator 23.0.3, SVG Export Plug-In . SVG Version: 6.00 Build 0)  -->
<svg version="1.1" id="Layer_1" xmlns="http://www.w3.org/2000/svg" xmlns:xlink="http://www.w3.org/1999/xlink" x="0px" y="0px"
	 viewBox="0 0 50 50" style="enable-background:new 0 0 50 50;" xml:space="preserve">
<g id="surface16087">
	<path d="M37.8,29.8c-0.5-0.8-1-0.8-1.6-1c-0.3-0.2-1.2-0.6-2-1c-0.9-0.4-1.6-0.8-2.1-1c-0.3-0.1-0.7-0.3-1.2-0.2
		c-0.5,0.1-1,0.4-1.3,0.9c-0.3,0.4-1.4,1.8-1.8,2.2c0,0,0,0-0.1-0.1c-0.4-0.2-1-0.4-1.7-0.8c-0.8-0.4-1.7-1-2.8-2v0
		c-1.6-1.4-2.7-3.1-3-3.7c0,0,0,0,0,0c0.3-0.4,0.7-0.8,0.9-1.1c0.4-0.4,0.5-0.8,0.7-1.2c0.4-0.7,0.2-1.5,0-1.9v0
		c0,0-0.1-0.3-0.3-0.6c-0.1-0.3-0.3-0.8-0.5-1.2c-0.4-0.9-0.8-1.9-1-2.5v0c-0.3-0.7-0.7-1.2-1.2-1.4c-0.5-0.3-1-0.2-1-0.2
		c-0.4,0-0.8,0-1.2,0c-0.6,0-1.5,0.2-2.3,1c-0.5,0.5-2.3,2.3-2.3,5.5c0,3.4,2.3,6.3,2.6,6.6c0,0,0.4,0.5,0.9,1.2
		c0.5,0.7,1.2,1.5,2.1,2.5c1.8,1.9,4.3,4.1,7.5,5.4c1.4,0.6,2.6,1,3.5,1.3c1.6,0.5,3.1,0.4,4.2,0.3c0.8-0.1,1.7-0.5,2.6-1.1
		c0.9-0.6,1.8-1.3,2.2-2.3c0.3-0.8,0.4-1.5,0.5-2.1c0-0.3,0-0.5,0-0.8S38,30.2,37.8,29.8z M36,31.2c0,0.4-0.1,1-0.3,1.6
		c-0.1,0.3-0.7,0.9-1.3,1.3c-0.7,0.4-1.5,0.7-1.8,0.8c-0.9,0.1-2,0.2-3.3-0.2c-0.8-0.3-1.9-0.6-3.3-1.2c-2.8-1.2-5.1-3.2-6.8-5
		c-0.8-0.9-1.5-1.7-2-2.3c-0.5-0.6-0.7-1-0.9-1.2C15.9,24.6,14,22,14,19.6c0-2.5,1.2-3.5,1.8-4.2c0.3-0.4,0.7-0.4,0.8-0.4
		c0.4,0,0.8,0,1.1,0c0.1,0,0.2,0,0.2,0c0,0,0.1,0.1,0.2,0.4c0.2,0.6,0.7,1.6,1,2.5c0.2,0.4,0.4,0.9,0.5,1.2c0.1,0.3,0.2,0.5,0.3,0.7
		c0,0.1,0.1,0.1,0.1,0.1s0,0,0,0c-0.2,0.4-0.2,0.5-0.5,0.8c-0.3,0.4-0.7,0.8-0.8,1c-0.1,0.2-0.4,0.4-0.6,0.8s-0.1,1.1,0.2,1.6
		c0.4,0.6,1.6,2.6,3.5,4.3c1.2,1.1,2.3,1.8,3.2,2.2c0.9,0.5,1.6,0.7,1.8,0.8c0.4,0.2,0.8,0.3,1.3,0.3s0.9-0.4,1.2-0.7v0
		c0.4-0.4,1.4-1.6,1.9-2.4c0,0,0,0,0.2,0.1c0,0,0.3,0.1,0.7,0.3s0.8,0.4,1.3,0.6c0.9,0.4,1.7,0.8,2,1c0.4,0.2,0.6,0.3,0.6,0.3
		C36,31,36,31.1,36,31.2z"/>
	<path d="M25,2C12.3,2,2,12.3,2,25c0,4.1,1.1,7.9,3,11.2L2,46.7c-0.1,0.3,0,0.7,0.2,1C2.5,48,2.9,48,3.2,48l11-2.7
		C17.4,47,21.1,48,25,48c12.7,0,23-10.3,23-23S37.7,2,25,2z M25,46c-3.7,0-7.2-1-10.2-2.7c-0.2-0.1-0.5-0.2-0.7-0.1l-9.6,2.4L7,36.4
		c0.1-0.3,0-0.5-0.1-0.8C5.1,32.5,4,28.9,4,25C4,13.4,13.4,4,25,4s21,9.4,21,21S36.6,46,25,46z"/>
	<path d="M37.8,29.8c-0.5-0.8-1-0.8-1.6-1c-0.3-0.2-1.2-0.6-2-1c-0.9-0.4-1.6-0.8-2.1-1c-0.3-0.1-0.7-0.3-1.2-0.2
		c-0.5,0.1-1,0.4-1.3,0.9c-0.3,0.4-1.4,1.8-1.8,2.2c0,0,0,0-0.1-0.1c-0.4-0.2-1-0.4-1.7-0.8c-0.8-0.4-1.7-1-2.8-2v0
		c-1.6-1.4-2.7-3.1-3-3.7c0,0,0,0,0,0c0.3-0.4,0.7-0.8,0.9-1.1c0.4-0.4,0.5-0.8,0.7-1.2c0.4-0.7,0.2-1.5,0-1.9v0
		c0,0-0.1-0.3-0.3-0.6c-0.1-0.3-0.3-0.8-0.5-1.2c-0.4-0.9-0.8-1.9-1-2.5v0c-0.3-0.7-0.7-1.2-1.2-1.4c-0.5-0.3-1-0.2-1-0.2
		c-0.4,0-0.8,0-1.2,0c-0.6,0-1.5,0.2-2.3,1c-0.5,0.5-2.3,2.3-2.3,5.5c0,3.4,2.3,6.3,2.6,6.6c0,0,0.4,0.5,0.9,1.2
		c0.5,0.7,1.2,1.5,2.1,2.5c1.8,1.9,4.3,4.1,7.5,5.4c1.4,0.6,2.6,1,3.5,1.3c1.6,0.5,3.1,0.4,4.2,0.3c0.8-0.1,1.7-0.5,2.6-1.1
		c0.9-0.6,1.8-1.3,2.2-2.3c0.3-0.8,0.4-1.5,0.5-2.1c0-0.3,0-0.5,0-0.8S38,30.2,37.8,29.8z M36,31.2c0,0.4-0.1,1-0.3,1.6
		c-0.1,0.3-0.7,0.9-1.3,1.3c-0.7,0.4-1.5,0.7-1.8,0.8c-0.9,0.1-2,0.2-3.3-0.2c-0.8-0.3-1.9-0.6-3.3-1.2c-2.8-1.2-5.1-3.2-6.8-5
		c-0.8-0.9-1.5-1.7-2-2.3c-0.5-0.6-0.7-1-0.9-1.2C15.9,24.6,14,22,14,19.6c0-2.5,1.2-3.5,1.8-4.2c0.3-0.4,0.7-0.4,0.8-0.4
		c0.4,0,0.8,0,1.1,0c0.1,0,0.2,0,0.2,0c0,0,0.1,0.1,0.2,0.4c0.2,0.6,0.7,1.6,1,2.5c0.2,0.4,0.4,0.9,0.5,1.2c0.1,0.3,0.2,0.5,0.3,0.7
		c0,0.1,0.1,0.1,0.1,0.1s0,0,0,0c-0.2,0.4-0.2,0.5-0.5,0.8c-0.3,0.4-0.7,0.8-0.8,1c-0.1,0.2-0.4,0.4-0.6,0.8s-0.1,1.1,0.2,1.6
		c0.4,0.6,1.6,2.6,3.5,4.3c1.2,1.1,2.3,1.8,3.2,2.2c0.9,0.5,1.6,0.7,1.8,0.8c0.4,0.2,0.8,0.3,1.3,0.3s0.9-0.4,1.2-0.7v0
		c0.4-0.4,1.4-1.6,1.9-2.4c0,0,0,0,0.2,0.1c0,0,0.3,0.1,0.7,0.3s0.8,0.4,1.3,0.6c0.9,0.4,1.7,0.8,2,1c0.4,0.2,0.6,0.3,0.6,0.3
		C36,31,36,31.1,36,31.2z"/>
	<path d="M37.8,29.8c-0.5-0.8-1-0.8-1.6-1c-0.3-0.2-1.2-0.6-2-1c-0.9-0.4-1.6-0.8-2.1-1c-0.3-0.1-0.7-0.3-1.2-0.2
		c-0.5,0.1-1,0.4-1.3,0.9c-0.3,0.4-1.4,1.8-1.8,2.2c0,0,0,0-0.1-0.1c-0.4-0.2-1-0.4-1.7-0.8c-0.8-0.4-1.7-1-2.8-2v0
		c-1.6-1.4-2.7-3.1-3-3.7c0,0,0,0,0,0c0.3-0.4,0.7-0.8,0.9-1.1c0.4-0.4,0.5-0.8,0.7-1.2c0.4-0.7,0.2-1.5,0-1.9v0
		c0,0-0.1-0.3-0.3-0.6c-0.1-0.3-0.3-0.8-0.5-1.2c-0.4-0.9-0.8-1.9-1-2.5v0c-0.3-0.7-0.7-1.2-1.2-1.4c-0.5-0.3-1-0.2-1-0.2
		c-0.4,0-0.8,0-1.2,0c-0.6,0-1.5,0.2-2.3,1c-0.5,0.5-2.3,2.3-2.3,5.5c0,3.4,2.3,6.3,2.6,6.6c0,0,0.4,0.5,0.9,1.2
		c0.5,0.7,1.2,1.5,2.1,2.5c1.8,1.9,4.3,4.1,7.5,5.4c1.4,0.6,2.6,1,3.5,1.3c1.6,0.5,3.1,0.4,4.2,0.3c0.8-0.1,1.7-0.5,2.6-1.1
		c0.9-0.6,1.8-1.3,2.2-2.3c0.3-0.8,0.4-1.5,0.5-2.1c0-0.3,0-0.5,0-0.8S38,30.2,37.8,29.8z M36,31.2c0,0.4-0.1,1-0.3,1.6
		c-0.1,0.3-0.7,0.9-1.3,1.3c-0.7,0.4-1.5,0.7-1.8,0.8c-0.9,0.1-2,0.2-3.3-0.2c-0.8-0.3-1.9-0.6-3.3-1.2c-2.8-1.2-5.1-3.2-6.8-5
		c-0.8-0.9-1.5-1.7-2-2.3c-0.5-0.6-0.7-1-0.9-1.2C15.9,24.6,14,22,14,19.6c0-2.5,1.2-3.5,1.8-4.2c0.3-0.4,0.7-0.4,0.8-0.4
		c0.4,0,0.8,0,1.1,0c0.1,0,0.2,0,0.2,0c0,0,0.1,0.1,0.2,0.4c0.2,0.6,0.7,1.6,1,2.5c0.2,0.4,0.4,0.9,0.5,1.2c0.1,0.3,0.2,0.5,0.3,0.7
		c0,0.1,0.1,0.1,0.1,0.1s0,0,0,0c-0.2,0.4-0.2,0.5-0.5,0.8c-0.3,0.4-0.7,0.8-0.8,1c-0.1,0.2-0.4,0.4-0.6,0.8s-0.1,1.1,0.2,1.6
		c0.4,0.6,1.6,2.6,3.5,4.3c1.2,1.1,2.3,1.8,3.2,2.2c0.9,0.5,1.6,0.7,1.8,0.8c0.4,0.2,0.8,0.3,1.3,0.3s0.9-0.4,1.2-0.7v0
		c0.4-0.4,1.4-1.6,1.9-2.4c0,0,0,0,0.2,0.1c0,0,0.3,0.1,0.7,0.3s0.8,0.4,1.3,0.6c0.9,0.4,1.7,0.8,2,1c0.4,0.2,0.6,0.3,0.6,0.3
		C36,31,36,31.1,36,31.2z"/>
	<path d="M18,15C17.9,15,17.9,15,18,15C18,15,18,15,18,15z"/>
</g>
</svg>
