<?xml version="1.0" encoding="utf-8"?>
<!-- Generator: Adobe Illustrator 23.0.3, SVG Export Plug-In . SVG Version: 6.00 Build 0)  -->
<svg version="1.1" id="Layer_1" xmlns="http://www.w3.org/2000/svg" xmlns:xlink="http://www.w3.org/1999/xlink" x="0px" y="0px"
	 viewBox="0 0 50 50" style="enable-background:new 0 0 50 50;" xml:space="preserve">
<line style="fill:none;stroke:#000000;stroke-width:2;stroke-linecap:round;stroke-miterlimit:10;" x1="25" y1="27" x2="17" y2="27"/>
<g>
	<circle style="fill:none;stroke:#000000;stroke-width:2;stroke-linecap:round;stroke-miterlimit:10;" cx="25" cy="27" r="20"/>
	
		<line style="fill:none;stroke:#000000;stroke-width:2;stroke-linecap:round;stroke-miterlimit:10;" x1="11" y1="42" x2="6" y2="47"/>
	
		<line style="fill:none;stroke:#000000;stroke-width:2;stroke-linecap:round;stroke-miterlimit:10;" x1="39" y1="42" x2="44" y2="47"/>
</g>
<line style="fill:none;stroke:#000000;stroke-width:2;stroke-linecap:round;stroke-miterlimit:10;" x1="25" y1="27" x2="15.1" y2="17.1"/>
<path style="fill:none;stroke:#000000;stroke-width:2;stroke-miterlimit:10;" d="M5.6,5.6c-2.6,2.6-3.3,6.3-2.1,9.5c0,0,0,0.1,0,0.1
	L15.2,3.6c-0.1,0-0.2-0.1-0.3-0.1C11.8,2.4,8.2,3.1,5.6,5.6z"/>
<path style="fill:none;stroke:#000000;stroke-width:2;stroke-miterlimit:10;" d="M34.9,3.6c0,0-0.1,0-0.1,0l11.6,11.6
	c0-0.1,0.1-0.2,0.1-0.3c1.1-3.2,0.4-6.8-2.1-9.4C41.8,3.1,38.1,2.4,34.9,3.6z"/>
</svg>
