<?xml version="1.0" encoding="utf-8"?>
<!-- Generator: Adobe Illustrator 24.0.1, SVG Export Plug-In . SVG Version: 6.00 Build 0)  -->
<svg version="1.1" id="Layer_1" xmlns="http://www.w3.org/2000/svg" xmlns:xlink="http://www.w3.org/1999/xlink" x="0px" y="0px"
	 viewBox="0 0 50 50" style="enable-background:new 0 0 50 50;" xml:space="preserve">
<style type="text/css">
	.st0{fill:none;stroke:#000000;stroke-width:2;stroke-linecap:round;stroke-linejoin:round;stroke-miterlimit:10;}
	.st1{fill:none;stroke:#000000;stroke-width:2;stroke-miterlimit:10;}
</style>
<path class="st0" d="M9,31l14-14l10,10l12-12"/>
<circle cx="13" cy="7" r="1"/>
<circle cx="23" cy="7" r="1"/>
<circle cx="13" cy="17" r="1"/>
<circle cx="33" cy="7" r="1"/>
<circle cx="33" cy="17" r="1"/>
<circle cx="33" cy="27" r="1"/>
<circle cx="23" cy="17" r="1"/>
<circle cx="23" cy="27" r="1"/>
<circle cx="13" cy="27" r="1"/>
<circle cx="13" cy="37" r="1"/>
<circle cx="23" cy="37" r="1"/>
<circle cx="33" cy="37" r="1"/>
<circle cx="43" cy="7" r="1"/>
<circle cx="43" cy="27" r="1"/>
<circle cx="43" cy="17" r="1"/>
<circle cx="43" cy="37" r="1"/>
<path class="st1" d="M5,4v41h41"/>
</svg>
