<?xml version="1.0" encoding="utf-8"?>
<!-- Generator: Adobe Illustrator 23.0.3, SVG Export Plug-In . SVG Version: 6.00 Build 0)  -->
<svg version="1.1" id="Layer_1" xmlns="http://www.w3.org/2000/svg" xmlns:xlink="http://www.w3.org/1999/xlink" x="0px" y="0px"
	 viewBox="0 0 50 50" style="enable-background:new 0 0 50 50;" xml:space="preserve">
<path d="M25,2C12.3,2,2,12.3,2,25s10.3,23,23,23s23-10.3,23-23S37.7,2,25,2z M25,46C13.4,46,4,36.6,4,25S13.4,4,25,4s21,9.4,21,21
	S36.6,46,25,46z"/>
<path d="M30,34.2c-0.4,2.2-2.5,3.8-5,3.8s-4.6-1.7-5-3.8c-0.1-0.5,0.3-1.1,0.8-1.1c0.5-0.1,1.1,0.3,1.2,0.8c0.2,1.2,1.5,2.2,3,2.2
	s2.8-0.9,3-2.2c0.1-0.6,0.6-0.9,1.2-0.8C29.7,33.1,30,33.6,30,34.2z"/>
<path d="M17,18c-2.2,0-4,2.2-4,5s1.8,5,4,5s4-2.2,4-5S19.2,18,17,18z M16,24c-1.1,0-2-0.9-2-2s0.9-2,2-2s2,0.9,2,2S17.1,24,16,24z
	 M19,26c-0.6,0-1-0.4-1-1s0.4-1,1-1s1,0.4,1,1S19.6,26,19,26z"/>
<path d="M33,18c-2.2,0-4,2.2-4,5s1.8,5,4,5s4-2.2,4-5S35.2,18,33,18z M32,24c-1.1,0-2-0.9-2-2s0.9-2,2-2s2,0.9,2,2S33.1,24,32,24z
	 M35,26c-0.6,0-1-0.4-1-1s0.4-1,1-1s1,0.4,1,1S35.6,26,35,26z"/>
</svg>
