<?xml version="1.0" encoding="utf-8"?>
<!-- Generator: Adobe Illustrator 17.1.0, SVG Export Plug-In . SVG Version: 6.00 Build 0)  -->
<!DOCTYPE svg PUBLIC "-//W3C//DTD SVG 1.1//EN" "http://www.w3.org/Graphics/SVG/1.1/DTD/svg11.dtd">
<svg version="1.1" id="Layer_1" xmlns="http://www.w3.org/2000/svg" xmlns:xlink="http://www.w3.org/1999/xlink" x="0px" y="0px"
	 viewBox="0 0 566.4 456.7" enable-background="new 0 0 566.4 456.7" xml:space="preserve">
<g>
	<path fill="#FFFFFF" d="M205.2,32.7c-1.4-0.3-2.3-0.9-2.6-2c-0.1-0.4-0.2-0.9-0.1-1.4c0.1-0.5,0.3-1,0.6-1.4c1,0.9,2,1.4,3.2,1.7
		s2.4,0.2,3.6-0.1c1.2-0.4,2.2-0.9,2.9-1.5c0.7-0.6,0.9-1.4,0.6-2.2c-0.2-0.6-0.6-1-1.3-1.1c-0.7-0.2-1.8-0.3-3.2-0.4
		c-1.5-0.1-2.7-0.2-3.7-0.4c-1-0.2-1.9-0.5-2.7-1.1s-1.4-1.4-1.8-2.6c-0.4-1.3-0.3-2.6,0.2-3.8c0.6-1.2,1.5-2.3,2.9-3.3
		c1.3-1,2.9-1.7,4.8-2.3c1.3-0.4,2.5-0.6,3.5-0.6s1.9,0.1,2.6,0.4c0.7,0.3,1.1,0.8,1.3,1.4c0.3,0.9,0.2,1.6-0.3,2.3
		c-0.4,0.7-1.1,1.1-2,1.4c-0.9,0.3-1.7,0.2-2.5,0c-0.8-0.3-1.5-0.9-2.2-1.7c-1.3,0.6-2.3,1.2-3,2c-0.7,0.8-0.9,1.5-0.7,2.2
		c0.2,0.6,0.6,1,1.3,1.1s1.8,0.3,3.3,0.3c1.5,0.1,2.7,0.2,3.6,0.3c1,0.1,1.9,0.5,2.7,1c0.8,0.5,1.4,1.4,1.8,2.5
		c0.4,1.2,0.3,2.4-0.2,3.5c-0.5,1.1-1.4,2.2-2.6,3c-1.2,0.9-2.6,1.6-4.2,2.1C208.5,32.7,206.6,32.9,205.2,32.7z"/>
	<path fill="#FFFFFF" d="M222.3,21.1c-0.2-1.9-0.4-5-0.7-9.6l-1.8-2.1c1.5-1.5,2.9-2.4,4.3-2.8c1.2-0.3,1.9,0.3,2.2,1.7
		c0.1,0.5,0.3,2.6,0.5,6.2c0.1,2.4,0.3,4.3,0.4,5.7c0.1,1.4,0.2,2.4,0.4,3c0.2,0.7,0.4,1.3,0.6,1.7c0.2,0.4,0.5,0.8,0.9,1.1
		c-0.7,0.9-1.6,1.5-2.6,1.7c-1,0.2-1.7,0.2-2.3-0.2c-0.6-0.4-1-1.1-1.2-2.2C222.7,24.3,222.5,23,222.3,21.1z"/>
	<path fill="#FFFFFF" d="M250.9,4.4c0,0,0,0.6,0,1.8c0,1.2,0,2.5,0,3.9c-0.1,4.9,0,7.8,0.1,8.6c0.1,0.7,0.3,1.3,0.5,1.8
		s0.5,0.8,0.8,1.2c-0.8,0.9-1.7,1.4-2.8,1.5c-1.5,0.3-2.8,0-3.8-0.6s-2.1-2.1-3.2-4.2s-2.6-5.5-4.5-10.2l-0.2,0l0,4.2
		c-0.1,4.7,0,7.6,0.1,8.5c0.1,0.7,0.3,1.3,0.5,1.8c0.2,0.4,0.5,0.8,0.8,1.2c-0.8,0.9-1.7,1.4-2.7,1.5c-1,0.2-1.8,0-2.3-0.4
		c-0.5-0.4-0.9-1.2-1.1-2.3c-0.2-0.9-0.3-2.3-0.3-4.2c0-1.9-0.1-5.1-0.1-9.6L231,6.7c1.6-1.4,3-2.2,4.4-2.5l0,0l0,0
		c1.3-0.2,2.4,0,3.3,0.6c0.9,0.6,1.8,1.8,2.8,3.7c1,1.9,2.3,4.9,4.1,9.2l0.2,0c-0.1-1.5-0.1-5.1-0.1-10.9l-1.5-2.3
		c0.7-0.7,1.5-1.2,2.2-1.6c0.7-0.4,1.4-0.7,2.1-0.8c1.2-0.2,1.9,0.4,2.2,1.9C250.9,4.2,250.9,4.4,250.9,4.4z"/>
	<path fill="#FFFFFF" d="M257.7,20.1c-1.6-1.3-2.5-3.3-2.7-5.9c-0.2-2.4,0.2-4.6,1.1-6.6c0.9-2,2.3-3.7,4.1-4.9s3.9-2,6.2-2.1
		c1.6-0.1,2.9,0.1,3.9,0.5c1,0.5,1.5,1.2,1.6,2.2c0.1,0.8-0.2,1.5-0.7,2c-0.5,0.6-1.2,0.9-2.1,0.9c-0.9,0.1-1.7-0.1-2.4-0.5
		c-0.8-0.4-1.4-1-1.9-1.8c-1,0.5-1.9,1.2-2.6,2.3s-1.3,2.2-1.7,3.6s-0.5,2.8-0.4,4.3c0.1,1.7,0.6,3.1,1.3,4s1.6,1.3,2.8,1.3
		c0.9-0.1,1.6-0.4,2.3-0.9c0.7-0.5,1.2-1.2,1.5-2c0.4-0.8,0.5-1.7,0.5-2.7c2.1-0.2,3.2,0.5,3.3,2.1c0.1,1-0.2,1.9-0.9,2.8
		c-0.7,0.9-1.6,1.6-2.8,2.2c-1.2,0.6-2.5,0.9-4,1.1C261.4,22,259.3,21.4,257.7,20.1z"/>
	<path fill="#FFFFFF" d="M282.3,5c-0.1,0.8-0.2,1.6-0.4,2.4l-0.4,2.6c0.7,0.1,1.4,0.1,2.2,0.1l2.3-0.6c0.1,0.4,0.1,0.7,0.1,1.1
		c0,0.7-0.2,1.3-0.7,1.8c-0.5,0.4-1.2,0.6-2.1,0.7c-0.6,0-1.4-0.1-2.2-0.2c-0.3,2.1-0.5,3.5-0.5,4.2l0,0.3l5-0.1
		c1.2-0.2,2.4-0.5,3.7-1c0.2,0.5,0.3,1,0.3,1.6c0,1-0.3,1.8-1,2.4s-1.8,0.9-3.2,0.9c-1.5,0-3-0.2-4.3-0.7c-0.8,0.5-1.6,0.8-2.6,0.8
		c-1,0-1.7-0.2-2.2-0.7s-0.7-1.3-0.7-2.4c0-0.9,0.1-2.4,0.3-4.3c0.2-1.9,0.7-5.1,1.4-9.4L276,1.8c1.8-1.2,3.4-1.8,4.8-1.8
		c1,0,1.6,0.5,1.8,1.5c1.3-0.1,2.5-0.2,3.6-0.4c1.1-0.2,2.5-0.6,4.3-1c0.1,0.5,0.2,1.1,0.2,1.6c0,1.2-0.4,2.2-1.2,2.8s-1.9,1-3.3,1
		C284.9,5.5,283.7,5.3,282.3,5z"/>
	<path fill="#FFFFFF" d="M304.9,14.6c0.3-1.4,0.9-3.4,1.7-6.1c-1.1-0.1-2-0.5-2.6-1.1s-1-1.5-1-2.5c1.1-0.2,2.1-0.4,2.9-0.7
		c0.8-0.3,1.7-0.6,2.7-1c0.8-0.3,1.4-0.6,1.8-0.7c0.4-0.1,0.9-0.2,1.3-0.1c1.1,0.1,1.6,0.8,1.5,2c0,0.4-0.2,1-0.4,1.9
		c-0.2,0.8-0.5,1.8-0.8,2.7c-0.7,2.1-1.2,3.9-1.6,5.4c-0.4,1.5-0.7,2.9-0.8,4.2c-0.1,1.2,0,2.3,0.4,3.1c-1.1,0.5-2.1,0.7-3.1,0.6
		c-1-0.1-1.7-0.4-2.1-1.1c-0.4-0.6-0.6-1.5-0.5-2.7C304.3,17.2,304.6,16,304.9,14.6z"/>
	<path fill="#FFFFFF" d="M315.8,26.2c-0.4-0.4-0.8-1.1-1-2c2.3-0.3,4.5-1,6.4-2.1s3.7-2.8,5.2-5.1l-0.2,0c-1.6,1.4-3.4,2-5.3,1.7
		c-1.8-0.3-3.1-1.1-3.9-2.4c-0.8-1.3-1.1-2.8-0.8-4.6c0.3-1.6,0.9-3.1,2-4.3c1.1-1.2,2.4-2.1,4-2.6c1.6-0.5,3.2-0.7,4.9-0.4
		c2,0.3,3.6,1.2,4.6,2.7c1,1.5,1.3,3.5,0.9,6c-0.4,2.7-1.5,5.2-3.2,7.4c-1.7,2.3-3.6,4-5.8,5.2c-2.2,1.2-4.1,1.6-5.9,1.3
		C316.9,26.9,316.2,26.6,315.8,26.2z M325.3,15.7c0.6-0.3,1.2-0.8,1.7-1.5c0.5-0.7,0.8-1.6,1-2.6c0.2-1.1,0.1-2-0.2-2.8
		c-0.3-0.8-1-1.3-2-1.5c-0.6-0.1-1.2,0-1.9,0.3c-0.7,0.3-1.3,0.8-1.8,1.5s-0.9,1.7-1.1,2.8c-0.2,1-0.1,1.9,0.3,2.7
		c0.4,0.8,1.1,1.2,2.3,1.4C324.2,16.1,324.7,16,325.3,15.7z"/>
	<path fill="#FFFFFF" d="M349.2,14.2c-1.8,2-3.6,4.3-5.2,6.9c-1.6,2.6-2.7,5-3.2,7.2c-0.1,0.4-0.1,0.7-0.2,0.9c0,0.2,0,0.5,0.1,0.8
		c-0.9,0.2-1.8,0.2-2.7,0c-2.1-0.5-2.9-1.8-2.4-3.8c0.4-1.7,1.4-3.6,3-5.8c1.6-2.2,3.6-4.5,5.9-6.7c-1.9-0.5-3.4-0.9-4.5-1.4
		c-1.1-0.5-1.8-1.1-2.2-1.7c-0.4-0.6-0.5-1.4-0.3-2.2c0.2-0.7,0.5-1.4,1-2.1c1.2,0.9,2.7,1.8,4.3,2.6c1.6,0.9,3,1.4,4.2,1.7
		c0.5-0.6,1.1-1,1.7-1.2s1.3-0.3,1.9-0.1c0.7,0.2,1.3,0.5,1.6,1s0.4,1,0.2,1.7C352.2,13.2,351.1,14,349.2,14.2z"/>
	<path fill="#FFFFFF" d="M361.9,24.4c1,0.9,1.7,1.8,2.1,2.9c0.4,1.1,0.4,2.2,0,3.4c-0.4,1.3-1.2,2.4-2.4,3.2
		c-1.2,0.8-2.7,1.3-4.4,1.4c-1.7,0.1-3.5-0.1-5.4-0.7c-1.6-0.5-2.8-1.1-3.5-1.9c-0.7-0.7-0.9-1.6-0.6-2.5c0.2-0.7,0.7-1.2,1.3-1.4
		s1.4-0.3,2.2-0.1c0.6,0.2,1.1,0.6,1.6,1.2s0.8,1.3,0.9,2.1c0.8,0.3,1.6,0.3,2.4,0.2c0.8-0.1,1.5-0.4,2.1-0.9c0.6-0.5,1-1,1.2-1.7
		c0.2-0.6,0.2-1.2,0.1-1.9c-0.1-0.6-0.5-1.3-1.1-1.8c-0.6-0.6-1.4-1-2.5-1.4c-0.4-0.1-1-0.3-1.8-0.4c-0.3,0-0.5-0.1-0.6-0.1
		c-0.2-0.1-0.3-0.2-0.4-0.3s-0.1-0.3,0-0.5l3.8-7.6c-0.5-0.7-0.6-1.5-0.4-2.3c0.2-0.7,0.6-1.2,1.1-1.5c0.5-0.3,1.2-0.3,1.9-0.1
		c0.6,0.2,1.1,0.5,1.4,1.1c0.4,0.5,0.6,1.2,0.7,1.9c0.9,0.2,2.1,0.3,3.6,0.3c1.5,0,2.9-0.1,4.2-0.3c0,0.8-0.1,1.5-0.3,2.1
		c-0.4,1.3-1.2,2-2.4,2.2c-1.2,0.2-2.9,0-5.2-0.7c-0.3-0.1-0.8-0.3-1.3-0.5l-2.2,4.3C359.6,22.9,360.9,23.5,361.9,24.4z"/>
</g>
<g>
	<path fill="#FFFFFF" d="M158.7,251.6c-20.6-32.4-25.4-72.5-13-108.8l0,0c21,21.5,52.2,29.7,81,21.2c28.8-8.5,50.6-32.3,56.5-61.8h0
		c5.9,29.5,27.6,53.3,56.5,61.8c28.8,8.5,60,0.4,81-21.2l0,0c12.4,36.4,7.6,76.4-13,108.8l0,0.1C327,226.1,239.3,226.2,158.7,251.6"
		/>
	<path fill="#FFFFFF" d="M398.7,264c-75-22.6-156-22.7-231.1,0C242.6,286.8,323.8,286.7,398.7,264"/>
</g>
<g>
	<path fill="#FFFFFF" d="M113.7,411.6c-1.4,3.8-2.3,7-2.9,9.7c-0.6,2.7-0.5,4.8,0,6.4c-1.6,0.5-3.1,0.6-4.6,0
		c-1.5-0.5-2.5-1.5-2.9-3c-0.4-1.5-0.2-3.6,0.5-6.4l-9.1-3.3c-0.7,1-1.1,1.8-1.4,2.5c-0.5,1.4-0.7,2.6-0.5,3.8
		c-0.8,0.2-1.6,0.4-2.5,0.3c-0.9,0-1.7-0.2-2.6-0.5c-1-0.3-1.6-0.9-1.9-1.7c-0.3-0.8-0.3-1.8,0.1-2.9c0.6-1.7,2.2-3.9,4.7-6.7
		c2.5-2.7,6.5-6.4,11.8-11l-0.3-3.1c1.4-0.3,2.7-0.4,3.8-0.4c1.1,0,2.2,0.3,3.4,0.7c1.3,0.5,2.1,1.1,2.3,1.8
		c1.3-0.2,2.3-0.2,3.1,0.1c1.2,0.4,1.9,1.1,2.1,2c0.3,1,0.1,2.3-0.5,3.9L113.7,411.6z M105.1,414.3l0.6-1.8
		c1.8-5.1,3.2-8.8,4.1-11.1l-0.5-0.2c-4.9,3.8-8.9,7.2-11.9,10.4L105.1,414.3z"/>
	<path fill="#FFFFFF" d="M117.3,430c-0.4-0.9-0.3-2.2,0.2-3.8c0.4-1.3,1.5-3.7,3.3-7.5c1.8-3.7,4.1-8.1,6.6-13.1l-1.2-3.3
		c1.2-0.4,2.4-0.7,3.6-0.8c1.3-0.1,2.4,0,3.3,0.3c1,0.3,1.7,0.7,2,1.3c0.3,0.5,0.3,1.2,0.1,2.2c-0.2,0.5-0.5,1.3-1,2.3
		c-0.5,1-1.3,2.3-2.2,4c-1.8,3.2-3.4,6.1-4.7,8.7c-1.3,2.6-2.3,5.1-3.1,7.5c-0.3,0.9-0.4,1.7-0.4,2.2c0,0.6,0.1,1.1,0.4,1.6
		c-0.7,0.3-1.5,0.5-2.3,0.6c-0.8,0-1.6,0-2.3-0.3C118.5,431.6,117.7,430.9,117.3,430z"/>
	<path fill="#FFFFFF" d="M146.2,438c-1.6-1.4-2.2-2.9-1.8-4.5c0.2-0.7,0.5-1.3,1-1.9c0.5-0.6,1.1-1,1.8-1.3c0.6,1.8,1.5,3.3,2.8,4.5
		c1.2,1.2,2.8,2.1,4.6,2.5c1.9,0.4,3.4,0.5,4.7,0.2c1.3-0.3,2.1-1.1,2.4-2.3c0.2-0.9-0.1-1.7-0.9-2.4c-0.8-0.7-2.1-1.7-3.8-2.8
		c-1.8-1.2-3.3-2.3-4.4-3.2c-1.1-0.9-2-2.1-2.6-3.4c-0.6-1.3-0.8-2.9-0.3-4.6c0.5-2,1.5-3.5,3.1-4.6c1.6-1.1,3.6-1.8,6-2
		c2.4-0.2,5,0,7.8,0.7c1.9,0.5,3.5,1,4.9,1.8c1.3,0.7,2.3,1.6,3,2.4c0.6,0.9,0.8,1.8,0.6,2.7c-0.3,1.3-1,2.2-2,2.7
		c-1,0.5-2.2,0.6-3.5,0.3c-1.3-0.3-2.3-0.9-3.1-1.9c-0.8-1-1.3-2.2-1.5-3.7c-2.1-0.3-3.9-0.2-5.3,0.3c-1.4,0.5-2.2,1.2-2.5,2.3
		c-0.2,0.9,0.1,1.7,0.9,2.4c0.8,0.7,2.1,1.7,3.9,2.8c1.8,1.2,3.3,2.2,4.4,3.1c1.1,0.9,2,2,2.6,3.3c0.6,1.3,0.8,2.8,0.4,4.5
		c-0.4,1.8-1.4,3.2-2.9,4.3c-1.5,1.1-3.4,1.7-5.5,1.9c-2.2,0.2-4.5,0.1-6.8-0.5C150.4,440.5,147.8,439.4,146.2,438z"/>
	<path fill="#FFFFFF" d="M197.4,448.4c-1.5,0.9-2.9,1.2-4.3,0.9c-1.3-0.2-2.2-0.7-2.7-1.5c-0.5-0.8-0.7-1.8-0.6-3.2l-0.3-0.3
		c-1.2,1.1-2.7,1.9-4.3,2.4c-1.6,0.5-3.2,0.6-4.8,0.3c-2.2-0.4-3.7-1.2-4.6-2.5c-0.9-1.2-1.1-3-0.7-5.2c0.2-1,0.5-2.1,0.8-3.2
		c0.4-1.1,0.9-2.5,1.5-4.1c0.5-1.4,0.9-2.5,1.3-3.4c0.3-0.9,0.5-1.7,0.7-2.5c0.3-1.5,0.2-2.7-0.1-3.5c1-0.3,2-0.6,3-0.7
		c1-0.1,1.8-0.2,2.4-0.1c1,0.2,1.7,0.5,2,1c0.4,0.5,0.5,1.3,0.3,2.3c-0.1,0.6-0.4,1.5-0.8,2.7c-0.4,1.1-1,2.7-1.8,4.6
		c-0.5,1.4-1.1,2.7-1.6,4c-0.5,1.3-0.8,2.3-0.9,2.9c-0.4,2.4,0.4,3.9,2.5,4.2c1,0.2,2.1,0,3.3-0.4c1.1-0.5,2.2-1.2,3.1-2.3
		c0.7-2.1,2.3-5.9,4.6-11.4l-1.5-3.4c2.9-1.2,5.3-1.6,7.1-1.3c1,0.2,1.7,0.5,2,1c0.3,0.5,0.4,1.2,0.3,2.2c-0.1,0.4-0.6,1.8-1.7,4.3
		c-1.2,2.8-2.2,5.2-3.1,7.3c-0.8,2.1-1.4,4-1.7,5.5C196.6,446.6,196.8,447.7,197.4,448.4z"/>
	<path fill="#FFFFFF" d="M206.7,450.2c-0.5-0.9-0.6-2.1-0.4-3.8c0.2-1.3,0.9-3.9,2.1-7.9c1.2-4,2.7-8.6,4.4-14l-1.7-3.1
		c1.1-0.6,2.2-1.1,3.5-1.4c1.2-0.3,2.3-0.4,3.3-0.3c1.1,0.1,1.8,0.4,2.2,0.9c0.4,0.5,0.5,1.2,0.4,2.1c-0.1,0.6-0.3,1.4-0.6,2.4
		c-0.3,1.1-0.9,2.5-1.5,4.3c-1.3,3.4-2.3,6.5-3.2,9.3c-0.9,2.8-1.4,5.4-1.8,7.9c-0.1,0.9-0.1,1.7,0,2.3c0.1,0.6,0.3,1.1,0.6,1.5
		c-0.7,0.5-1.4,0.8-2.2,1c-0.8,0.2-1.6,0.2-2.3,0.1C208.1,451.6,207.2,451,206.7,450.2z"/>
	<path fill="#FFFFFF" d="M239.8,432c0.3,0.3,0.4,0.8,0.4,1.6c-0.1,0.7-0.4,1.5-0.9,2.4c-1-0.4-2.3-0.7-3.7-0.9l-0.9-0.1
		c-1,2.5-1.8,4.8-2.5,7c-0.7,2.2-1.2,4.5-1.4,6.8l1.6,3.4c-0.8,0.6-1.7,1-2.6,1.3c-0.9,0.3-1.8,0.4-2.6,0.3
		c-1.2-0.1-2.2-0.5-2.8-1.3c-0.6-0.7-0.9-1.9-0.7-3.7c0.1-1.3,0.5-2.8,1-4.4c0.5-1.7,1.2-3.7,2.1-6l1.2-3.3c-0.7,0-1.2,0-1.6-0.1
		c-0.9-0.1-1.5-0.3-1.9-0.6c-0.3-0.3-0.5-0.8-0.4-1.5c0.1-0.8,0.4-1.6,0.9-2.4c1,0.4,2.2,0.7,3.7,0.9l0.2,0l0-0.2
		c0.1-1.4,0-2.9-0.3-4.4c0.9-0.7,1.9-1.2,3-1.5c1.1-0.3,2.2-0.5,3.3-0.3c1,0.1,1.7,0.4,2.1,0.9c0.4,0.5,0.5,1.2,0.4,2.2
		c-0.1,0.6-0.4,1.7-1,3.4c0.8,0,1.3,0.1,1.7,0.1C238.8,431.5,239.4,431.7,239.8,432z"/>
	<path fill="#FFFFFF" d="M264.3,454.8c-1.4,1-2.9,1.5-4.4,1.4c-1.2-0.1-2.1-0.5-2.7-1.2c-0.6-0.7-0.9-1.8-0.8-3.1
		c0-0.5,0.1-1.1,0.3-1.9l-0.4-0.2c-1,1.9-2.2,3.3-3.7,4.3c-1.5,1-3.2,1.5-5,1.4c-1.5-0.1-2.8-0.6-3.9-1.4c-1.1-0.9-1.9-2-2.5-3.5
		c-0.5-1.5-0.8-3.2-0.7-5.1c0.2-3.1,1-5.8,2.5-8.1c1.5-2.4,3.5-4.1,6-5.4c2.5-1.2,5.3-1.8,8.4-1.6c1.2,0.1,2.3,0.2,3.5,0.5
		c0.2,0.5,0.3,1.1,0.4,1.8c1-0.7,2.1-1,3.3-0.9c0.9,0,1.5,0.3,2,0.8c0.4,0.5,0.6,1.2,0.6,2c0,0.6-0.2,1.3-0.4,2.2
		c-0.2,0.9-0.6,2-1,3.6c-0.7,2.5-1.3,4.6-1.7,6.3c-0.4,1.7-0.6,3.3-0.7,4.9C263.3,453.1,263.6,454.2,264.3,454.8z M256.5,446.1
		c1.5-2.6,2.8-6.7,3.7-12.3c-2.3,0-4.4,0.5-6.3,1.5c-1.9,1-3.4,2.3-4.5,4c-1.1,1.7-1.7,3.5-1.8,5.6c-0.1,1.5,0.2,2.7,0.8,3.6
		c0.6,0.9,1.5,1.4,2.6,1.4C253.1,450,255,448.8,256.5,446.1z"/>
	<path fill="#FFFFFF" d="M273.4,455.7c-0.6-0.7-1-1.8-1-3.2c0-1.1,0.3-3.4,0.9-6.8c0.6-3.4,1.3-6.6,2-9.6l-2-2.8
		c1-0.7,2.1-1.2,3.2-1.6c1.1-0.4,2.2-0.6,3.3-0.6c1,0,1.7,0.2,2.2,0.7c0.5,0.5,0.7,1.2,0.7,2.1c0,0.7-0.1,1.5-0.3,2.3
		c-0.2,0.8-0.4,1.5-0.8,2.2l0.4,0.2c2.8-5,6.5-7.5,11-7.5c1.7,0,3,0.4,3.8,1.3c0.8,0.8,1.3,2.1,1.3,3.9c0,1-0.1,2-0.3,3
		c-0.2,1-0.5,2.5-0.9,4.3c-0.4,1.8-0.8,3.3-1,4.6c-0.2,1.3-0.4,2.5-0.4,3.8c0,1.4,0.3,2.4,0.7,3.1c-1.2,1.1-2.5,1.7-3.8,1.7
		c-1.4,0-2.4-0.3-3-1.1c-0.6-0.7-0.9-1.8-0.9-3.2c0-1.1,0.1-2.2,0.3-3.4c0.2-1.2,0.6-2.7,1-4.5c0.4-1.5,0.7-2.7,0.8-3.5
		c0.2-0.8,0.3-1.6,0.3-2.3c0-1.6-0.6-2.3-1.8-2.3c-1.4,0-2.8,0.7-4.3,2.2c-1.5,1.5-2.8,3.4-3.8,5.8c-1,2.4-1.5,4.9-1.5,7.6
		c0,1.4,0.3,2.4,0.7,3.1c-1.3,1.1-2.5,1.7-3.8,1.7C275.1,456.7,274.1,456.4,273.4,455.7z"/>
	<path fill="#FFFFFF" d="M340.7,440.2c1.3,1.2,2.1,2.7,2.2,4.6c0.1,1.7-0.3,3.3-1.3,4.7c-1,1.4-2.5,2.6-4.5,3.5
		c-2,0.9-4.4,1.5-7,1.7c-4.1,0.4-7.2,0.1-9.2-0.7c-2.1-0.8-3.2-2.3-3.3-4.3c-0.1-1.3-0.1-3.3,0-5.9s0.5-6.9,1-12.8l-2.1-3.5
		c2.4-1.9,4.7-2.9,6.8-3.1c1.5-0.1,2.4,0.6,2.8,2.1c2.6-1.8,5.3-2.8,8-3c2.2-0.2,3.9,0.2,5.3,1.2c1.3,1,2.1,2.5,2.3,4.4
		c0.2,1.8-0.3,3.5-1.3,5c-1,1.5-2.6,2.9-4.8,3.9C337.6,438.4,339.4,439.1,340.7,440.2z M334.2,449c1-1,1.5-2.3,1.3-3.8
		c-0.1-1.5-0.7-2.6-1.8-3.3c-1-0.7-2.5-1-4.3-0.8c-1.4,0.1-2.9,0.5-4.6,1c-0.1,2.7-0.2,5.4-0.2,8c0.7,0.2,1.6,0.4,2.5,0.5
		c0.9,0.1,1.8,0.1,2.7,0C331.7,450.6,333.2,450,334.2,449z M325.1,438.8c2.9-0.4,5.2-1.3,6.9-2.6c1.6-1.3,2.4-2.9,2.2-4.6
		c-0.2-2.2-1.5-3.2-4-2.9c-1.4,0.1-2.9,0.5-4.3,1.2C325.5,432.7,325.3,435.7,325.1,438.8z"/>
	<path fill="#FFFFFF" d="M373.8,447.7c-1.2,1.3-2.5,2.1-4,2.3c-1.2,0.2-2.2,0-2.9-0.7c-0.8-0.6-1.2-1.6-1.4-2.9
		c-0.1-0.5-0.1-1.1-0.1-1.9l-0.4-0.1c-0.6,2-1.5,3.7-2.8,5c-1.3,1.3-2.8,2.1-4.6,2.3c-1.5,0.2-2.9,0-4.1-0.6c-1.2-0.6-2.3-1.6-3.1-3
		c-0.8-1.4-1.4-3-1.7-4.9c-0.4-3-0.1-5.8,0.9-8.4c1-2.6,2.6-4.8,4.9-6.5c2.2-1.7,4.9-2.8,7.9-3.2c1.2-0.2,2.3-0.2,3.5-0.2
		c0.3,0.5,0.5,1,0.7,1.7c0.8-0.8,1.9-1.3,3.1-1.5c0.9-0.1,1.6,0,2.1,0.4c0.5,0.4,0.9,1,1,1.9c0.1,0.6,0.1,1.3,0,2.2
		c-0.1,0.9-0.1,2.1-0.3,3.7c-0.2,2.6-0.3,4.8-0.4,6.5c-0.1,1.7,0,3.4,0.3,5C372.5,446.3,373,447.3,373.8,447.7z M364.5,440.8
		c1-2.9,1.4-7.2,1.2-12.8c-2.3,0.5-4.2,1.4-5.9,2.7c-1.7,1.3-2.9,2.9-3.6,4.8c-0.8,1.9-1,3.8-0.7,5.8c0.2,1.5,0.7,2.6,1.5,3.4
		c0.8,0.7,1.7,1,2.8,0.9C361.9,445.3,363.5,443.7,364.5,440.8z"/>
	<path fill="#FFFFFF" d="M402.6,438.3c1,0.7,2.3,1.2,3.7,1.5c-0.9,2.4-2.4,3.8-4.6,4.3c-1.3,0.3-2.4,0.1-3.5-0.5
		c-1.1-0.6-2.3-1.8-3.7-3.5l-3.6-4.2l-3.2,2.7c0.2,1.2,0.4,2.2,0.5,2.7c0.2,0.9,0.4,1.7,0.7,2.2c0.3,0.5,0.7,0.9,1.1,1.2
		c-0.5,0.7-1.1,1.2-1.8,1.6c-0.7,0.4-1.4,0.7-2.1,0.9c-1.3,0.3-2.3,0.1-3.1-0.6c-0.8-0.7-1.3-1.8-1.6-3.4c-0.3-1.3-0.5-4-0.6-8.1
		c-0.2-4.1-0.3-9-0.4-14.7l-2.6-2.3c0.8-0.9,1.8-1.7,2.8-2.4c1.1-0.7,2.1-1.1,3.1-1.3c1-0.2,1.8-0.2,2.4,0.1
		c0.5,0.3,0.9,0.9,1.1,1.9c0.1,0.6,0.2,1.4,0.2,2.5c0,1,0,2.6-0.1,4.7c-0.1,4.6-0.1,8.4,0.1,11.3l2-2.3c1.9-2.3,3.3-4.2,4.1-5.7
		c0.8-1.5,1.1-2.9,0.8-4.2c-0.1-0.5-0.3-1.1-0.7-1.6c1.2-1.1,2.5-1.7,3.9-2c1-0.2,1.9-0.1,2.7,0.4c0.8,0.5,1.3,1.3,1.5,2.3
		c0.3,1.4,0,2.9-0.9,4.5c-0.9,1.6-2.4,3.4-4.6,5.4l3.5,4.1C400.6,436.6,401.6,437.6,402.6,438.3z"/>
	<path fill="#FFFFFF" d="M427.2,422.5c-0.9,1.6-2.4,3.1-4.6,4.4c-2.2,1.3-4.9,2.4-8.1,3.3l0.1,0.5c0.5,1.9,1.2,3.3,2.2,4.3
		c1,0.9,2.1,1.2,3.3,0.9c1.5-0.4,2.6-1.2,3.3-2.5c0.7-1.3,0.9-2.8,0.5-4.5c1.4-0.4,2.5-0.4,3.4,0c0.9,0.3,1.4,1,1.7,2
		c0.3,1.1,0.1,2.3-0.6,3.4c-0.7,1.2-1.7,2.2-3.1,3.2c-1.4,1-3,1.7-4.9,2.2c-3.1,0.8-5.7,0.5-7.9-0.8c-2.2-1.3-3.7-3.5-4.5-6.5
		c-0.7-2.8-0.7-5.5,0-8.2c0.7-2.6,2.1-4.9,4-6.7c2-1.9,4.4-3.2,7.2-3.9c2.3-0.6,4.2-0.5,5.7,0.1c1.5,0.7,2.5,1.9,3,3.7
		C428.3,419.1,428.1,420.9,427.2,422.5z M415.3,420.9c-0.9,1.9-1.3,4-1.2,6.5c3-0.9,5.2-2.1,6.6-3.5c1.4-1.4,1.9-3,1.4-4.7
		c-0.2-0.7-0.6-1.2-1.1-1.6c-0.6-0.3-1.2-0.4-2-0.2C417.4,417.9,416.2,419.1,415.3,420.9z"/>
	<path fill="#FFFFFF" d="M438.4,433.5c-0.8-0.5-1.5-1.5-1.9-2.9c-0.3-1-0.6-3.2-1-6.5c-0.4-3.4-0.7-6.6-0.8-9.8l-2.8-2.1
		c1.4-1.9,2.9-3.1,4.3-3.6c0.9-0.3,1.7-0.3,2.3,0.1c0.6,0.3,1,0.9,1.3,1.7c0.3,0.8,0.4,1.7,0.4,2.7s0,2-0.1,3.3l0.5,0.1
		c0.2-3.2,0.7-5.6,1.4-7.4c0.7-1.7,1.9-2.8,3.5-3.3c1.1-0.3,2-0.3,2.8,0.1c0.8,0.4,1.3,1.1,1.6,2.1c0.4,1.2,0.3,2.3-0.3,3.2
		c-0.6,1-1.6,1.7-3,2.1c-1.3,0.4-2.3,1.3-3.1,2.8c-0.8,1.5-1.2,3.3-1.3,5.5c-0.1,2.2,0.2,4.3,0.9,6.5c0.4,1.3,0.9,2.3,1.6,2.8
		c-0.8,1.4-1.9,2.3-3.1,2.7C440.4,434.1,439.3,434,438.4,433.5z"/>
	<path fill="#FFFFFF" d="M474.6,398.9c1.3,3.5,1.7,7.8,1.4,12.9c-0.3,5.1-1.6,9.8-3.8,14.1c-2.3,4.3-5.5,7.3-9.8,8.8
		c-2,0.7-3.6,0.9-4.8,0.6c-1.3-0.3-2.1-1.1-2.6-2.4c-0.2-0.6-0.3-1.2-0.2-1.9c0.1-0.7,0.3-1.3,0.5-1.7c1.6,1.2,3.5,1.4,5.8,0.5
		c0.8-0.3,1.7-0.8,2.6-1.5c0.9-0.7,1.7-1.6,2.5-2.7c-1.8,0.3-3.3,0-4.5-0.9c-1.2-0.9-2.2-2.1-2.9-3.5c-0.8-1.5-1.6-3.4-2.5-5.9
		c-1-2.7-1.9-4.8-2.8-6.3c-0.8-1.5-1.9-2.5-3.2-3c0.9-1.4,2-2.3,3.4-2.8c1.4-0.5,2.6-0.4,3.7,0.2c1,0.6,1.9,1.6,2.6,2.9
		c0.7,1.3,1.4,3,2.1,5l1,2.7c0.8,2.3,1.7,4.1,2.4,5.4c0.8,1.3,1.8,2,2.9,2.3c1.1-2.7,1.7-5.7,1.7-9c0.1-3.3-0.6-6.9-2-10.7
		c-0.3-0.9-0.6-1.6-0.9-2.1c0.4-0.6,0.9-1.2,1.4-1.7c0.6-0.5,1.1-0.8,1.7-1C472.5,396.3,473.8,396.9,474.6,398.9z"/>
</g>
<path fill="none" stroke="#000000" stroke-width="0.72" stroke-linecap="round" stroke-linejoin="round" stroke-miterlimit="10" d="
	M475.8,424.7"/>
<path fill="#FFFFFF" d="M566.2,332.6l-41.5-22l8.5-50.8c0-0.1,0-0.3-0.2-0.4c-0.1-0.1-0.3-0.1-0.4,0c-15,9.6-31.6,18.6-49.1,26.8
	l27.8,61.5l-19.2,22.1c25.6-10.2,50.5-22.5,74-36.6c0.1-0.1,0.2-0.2,0.2-0.3C566.4,332.8,566.3,332.7,566.2,332.6z"/>
<path fill="#FFFFFF" d="M483.2,360.6l4.8,10.5l17.5-20.6C498.2,354.1,490.8,357.5,483.2,360.6z"/>
<g>
	<path fill="#FFFFFF" d="M0.2,332.6l41.5-22l-8.5-50.8c0-0.1,0-0.3,0.2-0.4c0.1-0.1,0.3-0.1,0.4,0c15,9.6,31.6,18.6,49.1,26.8
		L55,347.7l19.2,22.1c-25.6-10.2-50.5-22.5-74-36.6C0.1,333.2,0,333,0,332.9C0,332.8,0.1,332.7,0.2,332.6z"/>
	<path fill="#FFFFFF" d="M83.1,360.6l-4.8,10.5l-17.5-20.6C68.2,354.1,75.6,357.5,83.1,360.6z"/>
</g>
<g>
	<path fill="#FFFFFF" d="M187.8,344.6c-1.7-0.4-3.4-0.6-4.9-0.6c-1.4,0-2.7,0.2-3.9,0.5c-2.6,0.7-4.7,1.9-6.2,3.4
		c-1.4,1.4-2.4,2.8-3.1,4.4l14.9,3.5c0.9,0.2,1.8,0.3,2.6,0.3c1.2,0,2.3-0.2,3.3-0.7c1.7-0.8,2.7-2.1,3.2-4.1
		C194.4,347.9,192.5,345.7,187.8,344.6z"/>
	<path fill="#FFFFFF" d="M475.8,274.2c-120.5,60.5-264.8,60.7-385.3,0l-32.9,72.6c141.8,69.7,309.4,69.9,451.1,0L475.8,274.2z
		 M435.3,312.6c0.5-1.1,1.5-2,2.8-2.5c0.6-0.2,1.2-0.3,1.7-0.3c0.4,0,0.8,0.1,1.2,0.2c0.9,0.3,1.6,1,1.9,1.9
		c0.5,1.3,0.5,2.5-0.1,3.7c-0.6,1.1-1.5,2-2.8,2.5c-0.6,0.2-1.2,0.4-1.7,0.4c-0.4,0-0.8-0.1-1.2-0.2c-0.9-0.3-1.5-1-1.9-1.9
		C434.8,315,434.8,313.8,435.3,312.6z M378.3,331.2c0.7-1,1.8-1.7,3.2-2.1c0.4-0.1,0.8-0.1,1.1-0.1c0.6,0,1.2,0.1,1.8,0.4
		c0.9,0.5,1.4,1.2,1.6,2.2c0.3,1.4,0.1,2.6-0.6,3.6c-0.7,1-1.8,1.7-3.2,2c-0.4,0.1-0.8,0.1-1.2,0.1c-0.6,0-1.2-0.1-1.7-0.4
		c-0.8-0.5-1.4-1.2-1.6-2.2C377.4,333.5,377.6,332.2,378.3,331.2z M127.3,318.5c0.5-1.3,1.4-2.2,2.6-2.7c0.6-0.2,1.1-0.3,1.7-0.3
		c0.7,0,1.3,0.1,2,0.4c1,0.4,1.8,1,2.2,1.9c0.4,0.9,0.5,1.8,0.1,2.7c-0.5,1.3-1.4,2.2-2.6,2.7c-0.5,0.2-1.1,0.3-1.7,0.3
		c-0.7,0-1.4-0.1-2.1-0.4c-1.1-0.4-1.8-1-2.3-1.9C127,320.4,126.9,319.5,127.3,318.5z M138.4,339.6l-2.1,3.4
		c-1.6,2.5-3.3,4.6-4.9,6.3c-1.7,1.7-3.9,3-6.7,3.7c-0.9,0.2-1.9,0.4-2.9,0.4c0,0,0,0,0,0c-2.1,0-4.4-0.5-6.8-1.5
		c-3.5-1.4-6.1-3.2-7.5-5.4c-1.5-2.2-2.2-4.4-2.3-6.6c0-2.1,0.3-4,1-5.7c0.8-2.1,2-3.6,3.6-4.6c1-0.6,2-0.9,3-0.9
		c0.8,0,1.5,0.2,2.3,0.5c0.9,0.3,1.6,0.8,2.2,1.4c0.6,0.6,0.9,1.2,1.1,1.8l0.2,0.6l-0.6,0.2c-0.7,0.2-1.4,0.7-2.2,1.4
		c-0.8,0.7-1.4,1.6-1.8,2.6c-0.4,0.9-0.5,1.9-0.4,3c0.1,1.1,0.5,2.1,1.2,3.2c0.7,1,1.9,1.9,3.6,2.5c1,0.4,2,0.6,2.8,0.6
		c0.5,0,0.9-0.1,1.4-0.2c1.2-0.4,2.4-1.2,3.6-2.5c1.2-1.4,2.7-3.4,4.4-6.1c1.5-2.4,3-4.9,4.5-7.4l-1-3.8l0.7-0.2
		c1.3-0.3,2.6-0.5,3.8-0.5c0,0,0,0,0,0c1.3,0,2.5,0.2,3.6,0.7c1,0.4,1.7,0.9,2,1.4c0.3,0.6,0.3,1.4,0,2.3c-0.3,0.8-0.9,1.9-1.8,3.5
		C141.2,335,140,337,138.4,339.6z M342.5,343.1c-0.1,1.3-0.2,2.6-0.4,4c-0.3,3.8-0.6,7.2-0.7,10c-0.1,2.8,0,5.7,0.3,8.5l0,0.2
		l-2.5,5l-11.7,1.7l-3.7,0.2c-0.1,0-0.2,0-0.3,0c-1.5,0-2.6-0.5-3.3-1.5l-1,1.7l-8.6,0.4c-0.1,0-0.2,0-0.3,0c-1.5,0-2.6-0.5-3.3-1.5
		l-1,1.7l-8.5,0.4c-0.1,0-0.2,0-0.4,0c-1.8,0-2.8-0.7-3.3-1.5l-1,1.7l-9.6,0.3l-20.6-0.9l-19.3-1.4l-19.3-2.2l-4.1-0.6
		c-1.9-0.3-2.8-1.2-3.3-2.2l-1.3,1.4l-10.6-1.4l-9.2-1.9c-1.2-0.3-2.2-0.8-2.9-1.5c-0.5-0.5-0.8-1-1-1.6c-1.4,0.4-2.9,0.6-4.5,0.6
		c-1.7,0-3.5-0.2-5.3-0.7l-28.1-7.5l-1.4-0.5c-1.4-0.5-2.8-1.1-4.2-2c-0.3,0-0.6,0.1-0.9,0.1c-0.7,0-1.4-0.1-2.1-0.3
		c-1.4-0.4-2.3-1.2-2.7-2.4c-0.4-1.1-0.3-2.3,0.1-3.8c0.4-1.3,1.3-3.4,2.7-6.2c1.4-2.8,3.3-6.5,5.7-11.1c0.2-0.5,0.5-1,0.8-1.5
		l0.7-1.3l-1.2-3.6l0.7-0.2c1.2-0.4,2.5-0.7,3.7-0.8c0.2,0,0.5,0,0.7,0c1,0,2,0.1,2.9,0.4c1.1,0.3,1.8,0.8,2.2,1.5
		c0.4,0.7,0.4,1.5,0.1,2.5c-0.2,0.6-0.5,1.3-1.1,2.4c-0.6,1-1,1.9-1.5,2.7l-0.9,1.7c-1.9,3.3-3.4,6.1-4.6,8.3c-1,2-1.9,4-2.5,5.9
		l5.8,1.8l5.7,2c0.4-1.3,1-2.9,1.9-5c1-2.5,2.4-5.7,4.1-9.6l1.9-4.4l-1.5-3.5l0.6-0.3c1.2-0.5,2.4-0.9,3.6-1.1
		c0.5-0.1,1-0.1,1.5-0.1c0.7,0,1.4,0.1,2.1,0.2c1.1,0.3,1.9,0.7,2.4,1.4c0.5,0.7,0.6,1.5,0.3,2.6c-0.2,0.6-0.5,1.5-1,2.7
		c-0.5,1.1-1.1,2.3-1.7,3.5c-0.5,1-1,2-1.4,3c2.7-1.7,5.8-2.6,9.3-2.6c1.9,0,3.9,0.3,6,0.7c4.5,1.1,7.6,2.8,9.3,5.2
		c1.7,2.4,2.1,5.3,1.4,8.6c-0.1,0.6-0.2,0.9-0.3,1.2l-0.4,1l-0.3,0.8c-0.4,0.9-0.6,1.5-0.7,1.9c-0.2,0.8-0.2,1.5,0.1,1.9
		c0.2,0.4,0.7,0.7,1.3,0.9l5.8,1l4.6,0.5c0.4-1.5,1-3.7,1.9-6.4c1-3.1,2.3-7.1,3.9-11.8l0.5-1.4l-1.8-3.4l0.6-0.3
		c1.1-0.6,2.3-1.1,3.6-1.3c0.8-0.2,1.5-0.3,2.3-0.3c0.5,0,0.9,0,1.4,0.1c1.1,0.2,1.9,0.6,2.4,1.2c0.5,0.6,0.7,1.5,0.5,2.5
		c-0.1,0.6-0.3,1.5-0.8,2.8c-0.4,1.2-0.9,2.5-1.4,3.8c-0.6,1.4-1.2,3.1-1.8,4.9c-0.5,1.3-0.9,2.6-1.3,3.9l-0.3,1.1l-0.5,1.7l0,0.2
		l0,0c-0.2,0.5-0.3,1-0.3,1.3c-0.1,0.9,0,1.6,0.3,2.1c0.3,0.5,0.8,0.8,1.6,0.9l3.9,0.6l19.1,2.1l19,1.3l19.9,0.8l4.1,0
		c0-0.6,0-1.2,0.1-1.8c0.1-0.7,0.3-1.6,0.5-2.6c0.2-1,0.4-1.8,0.5-2.5c0.1-0.6,0.1-1.3,0.1-2c-0.1-1.3-0.3-2.3-0.8-3l-0.4-0.6
		l0.6-0.4c0.9-0.6,1.9-1,2.8-1.4c1-0.4,1.9-0.6,2.6-0.6c0.1,0,0.2,0,0.3,0c1,0,1.7,0.3,2.3,0.8c0.5,0.6,0.8,1.4,0.9,2.5
		c0,0.7,0,1.3-0.1,2c-0.1,0.6-0.3,1.4-0.5,2.4c-0.2,0.9-0.4,1.7-0.5,2.4c-0.1,0.6-0.1,1.2-0.1,1.8c0.1,2.4,1.3,2.7,2.3,2.7
		c0.1,0,0.1,0,0.2,0l2.3-0.1c0-0.7,0-1.3,0.1-1.9c0.1-0.8,0.2-1.7,0.5-3c0.2-1.1,0.4-2.1,0.5-2.8c0.1-0.7,0.1-1.4,0.1-2.2
		c-0.1-1.3-0.3-2.3-0.7-3l-0.4-0.6l0.6-0.4c2-1.2,3.9-1.9,5.5-2c0.1,0,0.2,0,0.3,0c1,0,1.7,0.3,2.3,0.8c0.6,0.6,0.9,1.4,0.9,2.5
		c0,0.7,0,1.3-0.1,2c-0.1,0.7-0.3,1.5-0.5,2.7c-0.4,2-0.6,3.5-0.6,4.5c0.1,2.4,1.3,2.7,2.3,2.7c0.1,0,0.1,0,0.2,0l2.3-0.1
		c0-0.7,0.1-1.4,0.2-2.1c0.1-0.9,0.3-2,0.6-3.3c0.3-1.3,0.4-2.4,0.5-3.3c0.1-0.8,0.1-1.6,0.1-2.4c0-0.6-0.1-1.2-0.3-1.8
		c-0.1-0.5-0.3-0.9-0.5-1.2l-0.4-0.6l0.6-0.4c2.1-1.2,3.9-1.9,5.4-2c0.1,0,0.2,0,0.3,0c2,0,3.1,1.1,3.2,3.1c0,0.6,0,1.4-0.2,2.4
		c-0.1,1-0.3,2.1-0.5,3.2l-0.5,2.8c-0.1,0.9-0.2,1.7-0.2,2.2c0,0.9,0.3,1.6,0.7,2.1c0.4,0.4,0.9,0.6,1.6,0.6c0.1,0,0.1,0,0.2,0
		l2.8-0.1l5.3-1c0-1.6,0-3.8,0.1-6.7c0.1-3.3,0.4-7.5,0.7-12.4l0.1-1.5l-2.6-2.8l0.5-0.5c0.9-0.9,2-1.6,3.1-2.2
		c1.1-0.6,2.3-1,3.5-1.1c0.3,0,0.5,0,0.7,0c0.8,0,1.4,0.2,1.9,0.5c0.7,0.5,1.1,1.2,1.2,2.3C342.6,340.8,342.6,341.8,342.5,343.1z
		 M357.5,366.5c-0.5,0.7-1.2,1.2-2,1.7c-0.8,0.4-1.6,0.7-2.4,0.8c-0.3,0-0.6,0.1-0.9,0.1c-1.1,0-1.9-0.3-2.6-1
		c-0.8-0.8-1.4-1.9-1.6-3.5c-0.2-1.4-0.3-3.6-0.3-6.7c0-3.1,0.1-7.3,0.2-12.5c0-0.5,0-1.1,0-1.7l0-1.5l-2.7-2.7l0.5-0.5
		c0.9-0.9,1.9-1.7,3-2.3c1.1-0.6,2.3-1.1,3.4-1.2c0.3,0,0.6-0.1,0.9-0.1c0.7,0,1.3,0.2,1.7,0.5c0.7,0.4,1.1,1.2,1.2,2.2
		c0.1,0.6,0.1,1.4,0.1,2.7c0,1.2-0.1,2.2-0.1,3l-0.1,1.9c-0.2,3.8-0.4,6.9-0.4,9.5c0,2.5,0.1,4.9,0.4,7c0.2,1.2,0.4,1.9,0.5,2.1
		c0.2,0.4,0.5,0.8,0.9,1.1l0.5,0.4L357.5,366.5z M407,366.4c-0.7,1.1-1.7,1.8-3.1,2.2c-0.5,0.1-0.9,0.2-1.3,0.2
		c-0.6,0-1.1-0.1-1.6-0.3c-0.9-0.4-1.4-1.1-1.7-2.1c-0.4-1.3-0.2-2.6,0.5-3.7c0.7-1.1,1.7-1.8,3.1-2.2c0.5-0.1,0.9-0.2,1.3-0.2
		c0.6,0,1.1,0.1,1.6,0.4c0.9,0.4,1.5,1.1,1.7,2.1C407.9,364,407.7,365.3,407,366.4z M460.4,339l-29.6,11.1l-18.4,5.8l-3.6,1
		c-0.5,0.1-1,0.2-1.5,0.2c-0.9,0-1.7-0.3-2.4-0.9l-0.6,1.9l-9.6,2.6l-2.4,0.5c-0.5,0.1-0.9,0.2-1.3,0.2c-0.8,0-1.5-0.2-2.1-0.6
		c0.1,4.8-0.6,8.7-2.1,11.5c-1.7,3.1-4.4,5.1-8.2,6c-1.1,0.3-2.2,0.4-3.1,0.4c-1,0-1.8-0.2-2.5-0.5c-1.4-0.6-2.3-1.7-2.6-3.2
		l-0.2-0.7l0.7-0.2c2.6-0.6,4.6-1.4,6-2.5c1.4-1.1,2.4-2.4,2.9-4.1c0.5-1.7,0.7-3.7,0.5-6.1l-0.9-14.4l-2.5-3.5l0.4-0.4
		c1-1,2.1-1.9,3.1-2.6c1.1-0.7,2.1-1.2,3-1.4c0.4-0.1,0.7-0.1,1-0.1c0.6,0,1.2,0.2,1.7,0.5c0.6,0.5,1.1,1.2,1.3,2.3
		c0.3,1.4,0.6,4.8,0.9,10.6c0.2,0.8,0.6,1.4,1.1,1.7c0.3,0.2,0.7,0.3,1.2,0.3c0.2,0,0.5,0,0.7-0.1l2.5-0.5l4.1-1.1
		c-0.1-0.7-0.2-1.3-0.3-2c-0.1-0.9-0.1-2-0.2-3.5c-0.1-1.3-0.1-2.5-0.2-3.3c-0.1-0.8-0.2-1.6-0.4-2.3c-0.4-1.3-0.8-2.2-1.4-2.7
		l-0.5-0.5l0.5-0.5c0.8-0.8,1.6-1.4,2.5-2c0.9-0.6,1.7-1,2.5-1.2c0.4-0.1,0.8-0.2,1.2-0.2c0.6,0,1.1,0.1,1.5,0.4
		c0.6,0.4,1.1,1.2,1.4,2.2c0.2,0.6,0.3,1.4,0.4,2.2c0.1,0.8,0.1,1.8,0.1,3.2c0,1.3,0.1,2.4,0.1,3.2c0,0.7,0.2,1.4,0.3,2
		c0.2,0.9,0.6,1.5,1.2,1.9c0.3,0.2,0.6,0.3,1,0.3c0.3,0,0.6,0,0.9-0.1l2.7-0.8l18.2-5.8l22.3-8.4c-0.9-1.6-2.1-2.9-3.4-3.9
		c-1.5-1-3-1.8-4.5-2.2c-0.4,0.3-0.9,0.5-1.4,0.8c-0.7,0.4-1.4,0.7-2.1,0.9c-1.7,0.7-3.5,1.1-5.3,1.2c-0.2,0-0.4,0-0.6,0
		c-1.6,0-3.1-0.3-4.3-0.9c-1.5-0.7-2.6-1.8-3.2-3.4c-0.2-0.5-0.3-1-0.4-1.5c0-0.5,0-1,0-1.6l0.1-0.6l0.6-0.1c3.3-0.3,7.2-1,11.6-1.8
		c4.4-0.9,7.8-1.8,10.3-2.8c1.8-0.7,3.1-1.5,3.6-2.4l0.4-0.5l0.6,0.3c0.8,0.5,1.4,0.9,1.8,1.3c0.4,0.4,0.8,1,1.1,1.7
		c0.6,1.4,0.5,2.7-0.3,3.7c-0.6,0.8-1.5,1.5-2.9,2.1c1.5,0.7,2.9,1.7,4,2.9c1.6,1.6,2.7,3.3,3.4,5.1l0.3,1L460.4,339z"/>
</g>
</svg>
