<svg fill="#000000" xmlns="http://www.w3.org/2000/svg" viewBox="0 0 50 50" width="50px" height="50px"><path fill="none" stroke="#000000" stroke-linejoin="round" stroke-miterlimit="10" stroke-width="2" d="M45,5v40H5V5H45z"/><path d="M38.179,15.697L40,13.5V13h-8.224l-5.78,14.643L19.097,13H11v0.5l1.858,2.5C12.95,16.109,13,16.246,13,16.388V31.5c0,0.221-0.077,0.436-0.217,0.608L10,35.546V36h8v-0.454l-2.785-3.459C15.076,31.916,15,31.702,15,31.483V18.375L23.304,36l0,0h1.543l0.007-0.02l0,0L32,17.879V32.75c0,0.16-0.064,0.314-0.179,0.428L29,35.546V36h11v-0.454l-1.821-2.368C38.064,33.064,38,32.91,38,32.75V16.125C38,15.965,38.064,15.811,38.179,15.697z M15.621,15h2.208l7.159,15.196l-1.006,2.548l-0.001,0.001L15.621,15z M33.678,34C33.887,33.619,34,33.188,34,32.75V17.879V15h2.257C36.09,15.348,36,15.735,36,16.125V32.75c0,0.438,0.113,0.869,0.322,1.25H33.678z"/></svg>