<?xml version="1.0" encoding="utf-8"?>
<!-- Generator: Adobe Illustrator 22.1.0, SVG Export Plug-In . SVG Version: 6.00 Build 0)  -->
<svg version="1.1" xmlns="http://www.w3.org/2000/svg" xmlns:xlink="http://www.w3.org/1999/xlink" x="0px" y="0px"
	 viewBox="0 0 50 50" style="enable-background:new 0 0 50 50;" xml:space="preserve">
<style type="text/css">
	.st0{fill:none;stroke:#000000;stroke-width:2;stroke-linecap:round;stroke-linejoin:round;stroke-miterlimit:10;}
</style>
<g id="circle">
	<circle class="st0" cx="25" cy="25" r="22"/>
</g>
<g id="pattern">
	<path class="st0" d="M17.2,45.3c4.1-4.6,7.8-11.3,8.8-19.5"/>
	<path class="st0" d="M25.8,25.8c-1.3-0.7-9.7-5.8-12.8-18.8"/>
	<path class="st0" d="M23.3,35.3c-1.5-0.7-12.5-6.8-16-23"/>
	<path class="st0" d="M18.8,42c-3.6-2.2-12.5-8.5-15.4-21"/>
	<path class="st0" d="M25.5,25.8c1.2-0.7,9.1-5.2,21.1-2.3"/>
	<path class="st0" d="M18.5,19c1.3-0.9,11.3-7.3,26.4-3"/>
	<path class="st0" d="M14.8,11.8C18.3,9.9,27.3,6,38.5,8"/>
	<path class="st0" d="M35,22.8c0.1,1.5,0.7,12.7-9,23.5c-0.1,0.1-0.2,0.3-0.4,0.4"/>
	<path class="st0" d="M43,23.1c0,3.3,0,11.4-4.6,19.1"/>
</g>
</svg>
