<svg fill="#000000" xmlns="http://www.w3.org/2000/svg" viewBox="0 0 50 50" width="50px" height="50px"><path fill="none" stroke="#000000" stroke-miterlimit="10" stroke-width="2" d="M22.534 3.147C23.344 3.056 24.163 3 24.997 3c12.15 0 22 9.85 22 22s-9.85 22-22 22c-.829 0-1.643-.054-2.447-.144M17.749 45.753c-1.568-.548-3.053-1.266-4.436-2.135M9.449 40.564c-1.163-1.162-2.177-2.464-3.058-3.862M4.252 32.268c-.536-1.532-.922-3.133-1.107-4.798M4.247 17.745c-.535 1.532-.92 3.133-1.105 4.799M9.437 9.446c-1.162 1.162-2.175 2.466-3.055 3.864M17.735 4.252C16.167 4.801 14.683 5.518 13.3 6.39"/><path fill="none" stroke="#000000" stroke-miterlimit="10" stroke-width="2" d="M32.33 27.292L24.997 34.625 17.663 27.292M25 13L24.997 34.125"/></svg>