<?xml version="1.0" encoding="iso-8859-1"?>
<!-- Generator: Adobe Illustrator 22.1.0, SVG Export Plug-In . SVG Version: 6.00 Build 0)  -->
<svg version="1.1" xmlns="http://www.w3.org/2000/svg" xmlns:xlink="http://www.w3.org/1999/xlink" x="0px" y="0px"
	 viewBox="0 0 50 50" style="enable-background:new 0 0 50 50;" xml:space="preserve">
<g id="board">
	<path style="fill:none;stroke:#000000;stroke-width:2;stroke-linecap:round;stroke-linejoin:round;stroke-miterlimit:10;" d="
		M27.469,45C15.869,45,3.3,45,3.3,45c-1.3,0-2,0.2-2.3,0.9s0.3,1.5,1.3,1.7C2.6,47.7,9.5,49,25,49c0.3,0,0.6,0,1,0 M33,48.9
		c9.9-0.3,14.4-1.2,14.7-1.3c1-0.2,1.6-0.9,1.3-1.7c-0.3-0.7-1-0.9-2.3-0.9c0,0-5.9,0-13.6,0"/>
</g>
<g id="head">
	<path style="fill:none;stroke:#000000;stroke-width:2;stroke-miterlimit:10;" d="M18,5.5C18,8,20,10,22.5,10S27,8,27,5.5
		S25,1,22.5,1S18,3,18,5.5z"/>
</g>
<g id="body">
	<path style="fill:none;stroke:#000000;stroke-width:2;stroke-linecap:round;stroke-linejoin:round;stroke-miterlimit:10;" d="
		M35.9,21.5L28.7,18c0,0-4.6-4.7-5-5.1C23.2,12.4,22.9,12,21,12c-3.1,0-3.1,0.2-3.7,1.7l-3.5,10.4c-0.5,1.4-0.1,2.8,0.8,3.8l0,0
		l5.7,6.2v8.5c0,1.3,1,2.3,2.3,2.3s2.3-1,2.3-2.3v-9.2c0-0.5-0.2-1-0.5-1.4l-4-4.9l2.9-8.6l3.4,2.8l7.4,3.6c0.3,0.1,0.5,0.2,0.8,0.2
		c0.7,0,1.3-0.4,1.7-1C37.2,23,36.8,21.9,35.9,21.5z"/>
</g>
<g id="leg">
	<path style="fill:none;stroke:#000000;stroke-width:2;stroke-linecap:round;stroke-linejoin:round;stroke-miterlimit:10;" d="
		M13.6,26.4l-5,15.5c-0.4,1.2,0.3,2.5,1.5,2.9c0.2,0.1,0.5,0.1,0.7,0.1c1,0,1.9-0.6,2.2-1.6L17,31"/>
</g>
<g id="oar">
	<path style="fill:none;stroke:#000000;stroke-width:2;stroke-linecap:round;stroke-linejoin:round;stroke-miterlimit:10;" d="
		M34.458,25.098L31.2,41.1 M37.125,12.057L35.3,20.9 M25.756,50.473c0.112-0.577,0.243-1.123,0.389-1.64
		C27.749,43.186,31.2,41.1,31.2,41.1c1.384,2.295,1.676,5.027,1.383,7.758c-0.065,0.606-0.159,1.212-0.276,1.813"/>
</g>
<g id="arm">
	<path style="fill:none;stroke:#000000;stroke-width:2;stroke-linecap:round;stroke-linejoin:round;stroke-miterlimit:10;" d="
		M26.4,15.6l4.8-0.6l7.5-3.9c0.9-0.5,1.3-1.6,0.8-2.5C39,7.7,37.9,7.3,37,7.8l-7.3,3.9L22,12"/>
</g>
</svg>
