<?xml version="1.0" encoding="utf-8"?>
<!-- Generator: Adobe Illustrator 24.0.1, SVG Export Plug-In . SVG Version: 6.00 Build 0)  -->
<svg version="1.1" id="Layer_1" xmlns="http://www.w3.org/2000/svg" xmlns:xlink="http://www.w3.org/1999/xlink" x="0px" y="0px"
	 viewBox="0 0 50 50" style="enable-background:new 0 0 50 50;" xml:space="preserve">
<style type="text/css">
	.st0{fill:none;stroke:#000000;stroke-width:2;stroke-linecap:round;stroke-linejoin:round;stroke-miterlimit:10;}
</style>
<line class="st0" x1="34.8" y1="18.9" x2="6.6" y2="46.9"/>
<path class="st0" d="M34.9,18.8l-9.2-5.3C25.7,13.5,9,3.8,8,3.3C7,2.7,6,3,6,4.2c0,2,0,20.7,0,20.7S6,45.1,6,46s0.7,1.3,1.6,0.8
	c0.9-0.5,18.2-10.5,18.2-10.5l9.2-5.3c0,0,7.8-4.5,8.8-5.1c1-0.6,0.9-1.4,0.1-1.9C43,23.5,34.9,18.8,34.9,18.8z"/>
<line class="st0" x1="34.8" y1="30.9" x2="6.8" y2="3.1"/>
</svg>
