<?xml version="1.0" encoding="iso-8859-1"?>
<!-- Generator: Adobe Illustrator 23.0.3, SVG Export Plug-In . SVG Version: 6.00 Build 0)  -->
<svg version="1.1" id="Layer_1" xmlns="http://www.w3.org/2000/svg" xmlns:xlink="http://www.w3.org/1999/xlink" x="0px" y="0px"
	 viewBox="0 0 50 50" style="enable-background:new 0 0 50 50;" xml:space="preserve">
<path style="fill:none;stroke:#000000;stroke-width:2;stroke-linecap:round;stroke-miterlimit:10;" d="M4,18h11.199
	c3.575,0,6.707-2.754,6.799-6.328C22.092,8.003,19.147,5,15.5,5c-2.32,0-4.35,1.219-5.5,3.047 M4,32h21.199
	c3.575,0,6.707,2.754,6.799,6.328C32.092,41.997,29.147,45,25.5,45c-2.32,0-4.35-1.219-5.5-3.047 M4,25h33.687
	c4.283,0,8.041-3.23,8.298-7.506C46.264,12.852,42.582,9,38,9c-3.014,0-5.636,1.668-7,4.13"/>
</svg>
