<?xml version="1.0" encoding="utf-8"?>
<!-- Generator: Adobe Illustrator 24.0.1, SVG Export Plug-In . SVG Version: 6.00 Build 0)  -->
<svg version="1.1" id="Layer_1" xmlns="http://www.w3.org/2000/svg" xmlns:xlink="http://www.w3.org/1999/xlink" x="0px" y="0px"
	 viewBox="0 0 50 50" style="enable-background:new 0 0 50 50;" xml:space="preserve">
<style type="text/css">
	.st0{fill:none;stroke:#000000;stroke-width:2;stroke-miterlimit:10;}
</style>
<path class="st0" d="M1,4v42"/>
<g>
	<path d="M10.8,24H1v2h10.4C11.2,25.3,11,24.7,10.8,24z"/>
	<path d="M17.1,24c0.1,0.4,0.3,0.8,0.4,1.2c0.1,0.3,0.2,0.5,0.3,0.8h15.7c0.1-0.2,0.1-0.5,0.2-0.7c0.1-0.4,0.2-0.9,0.4-1.3H17.1z"/>
	<path d="M40.2,24c-0.2,0.7-0.4,1.3-0.6,2H50v-2H40.2z"/>
</g>
<path class="st0" d="M49,6C35.7,6,37.4,44,26,44S14.4,6,1,6"/>
</svg>
