<?xml version="1.0" encoding="utf-8"?>
<!-- Generator: Adobe Illustrator 23.0.3, SVG Export Plug-In . SVG Version: 6.00 Build 0)  -->
<svg version="1.1" id="Layer_1" xmlns="http://www.w3.org/2000/svg" xmlns:xlink="http://www.w3.org/1999/xlink" x="0px" y="0px"
	 viewBox="0 0 50 50" style="enable-background:new 0 0 50 50;" xml:space="preserve">
<path style="fill:none;stroke:#000000;stroke-width:2;stroke-linecap:round;stroke-linejoin:round;stroke-miterlimit:10;" d="M8,29
	c5.7-1,8-5.5,8-5.5"/>
<path style="fill:none;stroke:#000000;stroke-width:2;stroke-linecap:round;stroke-linejoin:round;stroke-miterlimit:10;" d="M20,37
	L20,37c0-1.7,1.3-3,3-3h7c1.7,0,3,1.3,3,3l0,0c0,1.7-1.3,3-3,3h-7C21.3,40,20,38.7,20,37z"/>
<path style="fill:none;stroke:#000000;stroke-width:2;stroke-linecap:round;stroke-linejoin:round;stroke-miterlimit:10;" d="M23,16
	l19.7-5c2.3-0.4,3.3,1,3.3,2.5V14c0,1.4-1,2.5-3,3l-16,5"/>
<path style="fill:none;stroke:#000000;stroke-width:2;stroke-linecap:round;stroke-linejoin:round;stroke-miterlimit:10;" d="M27,22
	l19,3c1.8,0.4,3,1.3,3,3l0,0c0,1.7-1,3-3,3l-10-1"/>
<path style="fill:none;stroke:#000000;stroke-width:2;stroke-linecap:round;stroke-linejoin:round;stroke-miterlimit:10;" d="M25,28
	h8c1.7,0,3,1.3,3,3l0,0c0,1.7-1.3,3-3,3h-4"/>
<path style="fill:none;stroke:#000000;stroke-width:2;stroke-linecap:round;stroke-linejoin:round;stroke-miterlimit:10;" d="
	M12.6,23.1l2.9-1.6l2.3,8.8c0.8,2.2,2.3,3,4.2,2.6c1.9-0.4,3-2.3,2.6-4.2l-1.5-11.5c0,0-0.3-4.1-5.1-5c-1.7-0.3-3.5,0.1-4.2,0.3
	L5,15c-2.6,0.8-4,3.7-4,6.5V34c0,4.4,3.6,8,8,8h11c4,0,7-2,7-2"/>
</svg>
