<?xml version="1.0" encoding="iso-8859-1"?>
<!-- Generator: Adobe Illustrator 23.0.3, SVG Export Plug-In . SVG Version: 6.00 Build 0)  -->
<svg version="1.1" id="Layer_1" xmlns="http://www.w3.org/2000/svg" xmlns:xlink="http://www.w3.org/1999/xlink" x="0px" y="0px"
	 viewBox="0 0 50 50" style="enable-background:new 0 0 50 50;" xml:space="preserve">
<path style="fill:none;stroke:#000000;stroke-width:1.7582;stroke-linecap:round;stroke-miterlimit:10;" d="M36,32
	c4.971,0,9-4.029,9-9s-4.029-9-9-9c-1.49,0-2.891,0.368-4.129,1.008C31.154,10.472,27.238,7,22.5,7c-5.246,0-9.5,4.253-9.5,9.5
	c0,0.547,0.057,1.08,0.146,1.602C12.771,18.04,12.391,18,12,18c-3.866,0-7,3.134-7,7s3.134,7,7,7C12.529,32,35.524,32,36,32z
	 M14.828,40l-1.656-4 M12,38.828l4-1.656 M28.144,39.903l0.007-3.806 M26.245,37.996l3.806,0.007"/>
</svg>
