<?xml version="1.0" encoding="utf-8"?>
<!-- Generator: Adobe Illustrator 24.0.1, SVG Export Plug-In . SVG Version: 6.00 Build 0)  -->
<svg version="1.1" id="Layer_1" xmlns="http://www.w3.org/2000/svg" xmlns:xlink="http://www.w3.org/1999/xlink" x="0px" y="0px"
	 viewBox="0 0 50 50" style="enable-background:new 0 0 50 50;" xml:space="preserve">
<style type="text/css">
	.st0{fill:none;stroke:#000000;stroke-width:2;stroke-linecap:round;stroke-miterlimit:10;}
</style>
<path class="st0" d="M25,7C14,7,5,16,5,27s9,20,20,20s20-9,20-20S36,7,25,7z"/>
<path d="M25,25c-1.1,0-2,0.9-2,2s0.9,2,2,2s2-0.9,2-2S26.1,25,25,25z"/>
<path class="st0" d="M28,30L15,17"/>
<path d="M23,3h4v4.1h-4V3z"/>
<path d="M21,2h8v3h-8V2z"/>
<path d="M38.2,7.2l2-2l4.6,4.6l-2,2L38.2,7.2z"/>
</svg>
