<?xml version="1.0" encoding="utf-8"?>
<!-- Generator: Adobe Illustrator 23.0.3, SVG Export Plug-In . SVG Version: 6.00 Build 0)  -->
<svg version="1.1" id="Layer_1" xmlns="http://www.w3.org/2000/svg" xmlns:xlink="http://www.w3.org/1999/xlink" x="0px" y="0px"
	 viewBox="0 0 50 50" style="enable-background:new 0 0 50 50;" xml:space="preserve">
<line style="fill:none;stroke:#000000;stroke-width:2;stroke-miterlimit:10;" x1="12" y1="8" x2="14" y2="6"/>
<line style="fill:none;stroke:#000000;stroke-width:2;stroke-miterlimit:10;" x1="18" y1="14" x2="20" y2="12"/>
<line style="fill:none;stroke:#000000;stroke-width:2;stroke-miterlimit:10;" x1="14" y1="12" x2="17" y2="9"/>
<line style="fill:none;stroke:#000000;stroke-width:2;stroke-miterlimit:10;" x1="20" y1="18" x2="23" y2="15"/>
<line style="fill:none;stroke:#000000;stroke-width:2;stroke-miterlimit:10;" x1="36" y1="32" x2="38" y2="30"/>
<line style="fill:none;stroke:#000000;stroke-width:2;stroke-miterlimit:10;" x1="32" y1="30" x2="35" y2="27"/>
<line style="fill:none;stroke:#000000;stroke-width:2;stroke-miterlimit:10;" x1="41.9" y1="37.9" x2="43.9" y2="35.9"/>
<line style="fill:none;stroke:#000000;stroke-width:2;stroke-miterlimit:10;" x1="37.9" y1="35.9" x2="40.9" y2="32.9"/>
<g>
	<polyline style="fill:none;stroke:#000000;stroke-width:2;stroke-miterlimit:10;" points="26.3,18.3 9.9,1.9 1.9,9.9 18.3,26.3 	
		"/>
	<polyline style="fill:none;stroke:#000000;stroke-width:2;stroke-miterlimit:10;" points="25.9,33.9 40.1,48.1 48.1,40.1 
		33.9,25.9 	"/>
</g>
<g>
	<path style="fill:none;stroke:#000000;stroke-width:2;stroke-linejoin:round;stroke-miterlimit:10;" d="M45,10.4L10.5,45L3,47
		l2-7.5L39.6,5"/>
	<path d="M45.7,11.1c0,0,0.8-0.8,0.8-0.8c1.9-1.9,1.9-5,0-6.9c-1.9-1.9-5-1.9-6.9,0c0,0-0.8,0.8-0.8,0.8L45.7,11.1z M5.2,39.3
		l5.5,5.5l-7.2,1.7L5.2,39.3z"/>
</g>
</svg>
