<?xml version="1.0" encoding="UTF-8" standalone="yes"?>
<svg xmlns="http://www.w3.org/2000/svg" xmlns:xlink="http://www.w3.org/1999/xlink" width="50px" height="50px" viewBox="0 0 50 50" version="1.1" fill="#000000">
  <g id="surface16425">
    <path style=" stroke:none;fill-rule:nonzero;fill:#000000;fill-opacity:1;" d="M 25 2 C 12.308594 2 2 12.308594 2 25 C 2 37.691406 12.308594 48 25 48 C 37.691406 48 48 37.691406 48 25 C 48 12.308594 37.691406 2 25 2 Z M 25 4 C 36.609375 4 46 13.390625 46 25 C 46 36.609375 36.609375 46 25 46 C 13.390625 46 4 36.609375 4 25 C 4 13.390625 13.390625 4 25 4 Z M 17.957031 13.035156 C 17.691406 13.039062 17.4375 13.144531 17.25 13.332031 C 17.0625 13.519531 16.957031 13.773438 16.957031 14.042969 L 16.957031 14.0625 C 16.957031 14.066406 16.957031 14.066406 16.957031 14.070312 L 17.042969 36.035156 C 17.042969 36.394531 17.234375 36.726562 17.546875 36.902344 C 17.855469 37.082031 18.238281 37.078125 18.546875 36.898438 L 37.503906 25.828125 C 37.8125 25.648438 38.003906 25.316406 38 24.960938 C 38 24.601562 37.808594 24.273438 37.5 24.09375 L 18.457031 13.171875 C 18.304688 13.085938 18.132812 13.039062 17.957031 13.035156 Z M 18.964844 15.769531 L 35 24.972656 L 19.035156 34.296875 Z M 18.964844 15.769531 "/>
  </g>
</svg>