<?xml version="1.0" encoding="utf-8"?>
<!-- Generator: Adobe Illustrator 23.0.3, SVG Export Plug-In . SVG Version: 6.00 Build 0)  -->
<svg version="1.1" id="Layer_1" xmlns="http://www.w3.org/2000/svg" xmlns:xlink="http://www.w3.org/1999/xlink" x="0px" y="0px"
	 viewBox="0 0 50 50" style="enable-background:new 0 0 50 50;" xml:space="preserve">
<style type="text/css">
	.st0{fill:none;stroke:#000000;stroke-width:2;}
</style>
<path class="st0" d="M16.7,32.7c0,0-0.9,4.8-1.2,5.7s-0.8,1.6-1.3,1.7c-0.9,0.2-8.4,1.8-9,1.9c-0.6,0.1-1.6-0.5-1.8-1.8
	s-0.8-6.9,0.3-7.9C4.7,31.3,9,27,25,27s20.3,4.3,21.4,5.3c1.1,1,0.5,6.6,0.3,7.9c-0.2,1.3-1.2,1.9-1.8,1.8c-0.7-0.1-8.2-1.7-9-1.9
	c-0.6-0.1-1.1-0.8-1.3-1.7c-0.3-0.9-1.2-5.6-1.2-5.6S30.9,31,25,31S16.7,32.7,16.7,32.7z"/>
</svg>
