<?xml version="1.0" encoding="UTF-8" standalone="yes"?>
<svg xmlns="http://www.w3.org/2000/svg" xmlns:xlink="http://www.w3.org/1999/xlink" width="50px" height="50px" viewBox="0 0 50 50" version="1.1" fill="#000000">
  <g id="surface16053">
    <path style=" stroke:none;fill-rule:nonzero;fill:#000000;fill-opacity:1;" d="M 25 2 C 12.347656 2 2 11.597656 2 23.5 C 2 30.007812 5.132812 35.785156 10 39.71875 L 10 48.65625 L 11.46875 47.875 L 18.6875 44.125 C 20.703125 44.664062 22.800781 45 25 45 C 37.652344 45 48 35.402344 48 23.5 C 48 11.597656 37.652344 2 25 2 Z M 25 4 C 36.644531 4 46 12.757812 46 23.5 C 46 34.242188 36.644531 43 25 43 C 22.835938 43 20.742188 42.6875 18.78125 42.125 L 18.40625 42.03125 L 18.0625 42.21875 L 12 45.375 L 12 38.8125 L 11.625 38.53125 C 6.960938 34.941406 4 29.539062 4 23.5 C 4 12.757812 13.355469 4 25 4 Z M 22.71875 17.71875 L 10.6875 30.46875 L 21.5 24.40625 L 27.28125 30.59375 L 39.15625 17.71875 L 28.625 23.625 Z M 22.71875 17.71875 "/>
  </g>
</svg>