<?xml version="1.0" encoding="utf-8"?>
<!-- Generator: Adobe Illustrator 24.0.1, SVG Export Plug-In . SVG Version: 6.00 Build 0)  -->
<svg version="1.1" id="Layer_1" xmlns="http://www.w3.org/2000/svg" xmlns:xlink="http://www.w3.org/1999/xlink" x="0px" y="0px"
	 viewBox="0 0 50 50" style="enable-background:new 0 0 50 50;" xml:space="preserve">
<style type="text/css">
	.st0{fill:none;stroke:#000000;stroke-width:2;stroke-miterlimit:10;}
</style>
<path class="st0" d="M25,3C12.8,3,3,12.8,3,25s9.8,22,22,22s22-9.8,22-22S37.2,3,25,3z"/>
<path d="M26,43L26,43c-0.7,0-1.4,0-2.1,0l0.1-2c0.6,0,1.2,0,1.8,0L26,43z M30.2,42.2l-0.6-1.9c0.6-0.2,1.2-0.4,1.7-0.6l0.8,1.8
	C31.5,41.8,30.8,42,30.2,42.2z M19.8,42.3c-0.7-0.2-1.3-0.4-2-0.7l0.8-1.8c0.6,0.2,1.2,0.5,1.7,0.6L19.8,42.3z M35.7,39.4l-1.2-1.6
	c0.5-0.4,1-0.8,1.4-1.2l1.4,1.5C36.8,38.6,36.3,39,35.7,39.4z M14.3,39.4c-0.6-0.4-1.1-0.9-1.6-1.3l1.4-1.5c0.5,0.4,0.9,0.8,1.4,1.2
	L14.3,39.4z M40,34.9l-1.7-1.1c0.3-0.5,0.7-1.1,0.9-1.6l1.8,0.9C40.8,33.7,40.4,34.3,40,34.9z M10,34.9c-0.4-0.6-0.7-1.2-1-1.8
	l1.8-0.9c0.3,0.6,0.6,1.1,0.9,1.6L10,34.9z M42.5,29.2l-1.9-0.5c0.1-0.6,0.2-1.2,0.3-1.8l2,0.2C42.8,27.8,42.7,28.5,42.5,29.2z
	 M7.5,29.2c-0.2-0.7-0.3-1.4-0.4-2.1l2-0.2c0.1,0.6,0.2,1.2,0.3,1.8L7.5,29.2z M40.9,23.2c-0.1-0.6-0.2-1.2-0.3-1.8l1.9-0.5
	c0.2,0.7,0.3,1.4,0.4,2.1L40.9,23.2z M9.1,23.2l-2-0.2c0.1-0.7,0.2-1.4,0.4-2.1l1.9,0.5C9.3,21.9,9.2,22.5,9.1,23.2z M39.3,17.8
	c-0.3-0.6-0.6-1.1-0.9-1.6l1.7-1.1c0.4,0.6,0.7,1.2,1,1.8L39.3,17.8z M10.7,17.8l-1.8-0.9c0.3-0.6,0.7-1.2,1-1.8l1.7,1.1
	C11.3,16.7,11,17.3,10.7,17.8z M36,13.4c-0.4-0.4-0.9-0.8-1.4-1.2l1.2-1.6c0.6,0.4,1.1,0.9,1.6,1.3L36,13.4z M14,13.4l-1.4-1.5
	c0.5-0.5,1-0.9,1.6-1.3l1.2,1.6C14.9,12.6,14.4,13,14,13.4z M31.4,10.3c-0.6-0.2-1.2-0.5-1.7-0.6l0.6-1.9c0.7,0.2,1.3,0.4,2,0.7
	L31.4,10.3z M18.6,10.3l-0.8-1.8c0.6-0.3,1.3-0.5,2-0.7l0.6,1.9C19.8,9.9,19.2,10.1,18.6,10.3z M26,9c-0.6,0-1.2,0-1.9,0l-0.2-2
	L24,7c0.7,0,1.4,0,2.1,0L26,9z"/>
</svg>
