<?xml version="1.0" encoding="utf-8"?>
<!-- Generator: Adobe Illustrator 23.0.3, SVG Export Plug-In . SVG Version: 6.00 Build 0)  -->
<svg version="1.1" id="Layer_1" xmlns="http://www.w3.org/2000/svg" xmlns:xlink="http://www.w3.org/1999/xlink" x="0px" y="0px"
	 viewBox="0 0 50 50" style="enable-background:new 0 0 50 50;" xml:space="preserve">
<style type="text/css">
	.st0{fill:none;stroke:#000000;stroke-width:2;}
	.st1{fill:none;stroke:#000000;stroke-width:2;stroke-linejoin:round;}
	.st2{fill:none;stroke:#000000;stroke-width:2;stroke-linecap:round;}
</style>
<path class="st0" d="M16.8,18.8l7.5,6.8l8.9-13.9"/>
<polyline class="st1" points="15.8,30.4 10,43 17,43 21,48 27.2,33.8 "/>
<polyline class="st1" points="25,38.8 29.1,48 33.1,43 40.1,43 34.3,30.6 "/>
<path class="st2" d="M40.4,19.5c-0.5-0.9-0.5-2.1,0-3l0.2-0.4c0.8-1.5,0.3-3.3-1.1-4.2l-0.4-0.3c-0.9-0.6-1.5-1.5-1.5-2.6l0-0.5
	c0-1.7-1.4-3-3.1-3.1l-0.5,0c-1.1,0-2-0.6-2.6-1.5l-0.3-0.4c-0.9-1.4-2.7-1.9-4.2-1.1l-0.4,0.2c-0.9,0.5-2.1,0.5-3,0L23,2.4
	c-1.5-0.8-3.3-0.3-4.2,1.1l-0.3,0.4c-0.6,0.9-1.5,1.5-2.6,1.5l-0.5,0c-1.7,0-3,1.4-3.1,3.1l0,0.5c0,1.1-0.6,2-1.5,2.6l-0.4,0.3
	c-1.4,0.9-1.9,2.7-1.1,4.2l0.2,0.4c0.5,0.9,0.5,2.1,0,3L9.4,20c-0.8,1.5-0.3,3.3,1.1,4.2l0.4,0.3c0.9,0.6,1.5,1.5,1.5,2.6l0,0.5
	c0,1.7,1.4,3,3.1,3.1l0.5,0c1.1,0,2,0.6,2.6,1.5l0.3,0.4c0.9,1.4,2.7,1.9,4.2,1.1l0.4-0.2c0.9-0.5,2.1-0.5,3,0l0.4,0.2
	c1.5,0.8,3.3,0.3,4.2-1.1l0.3-0.4c0.6-0.9,1.5-1.5,2.6-1.5l0.5,0c1.7,0,3-1.4,3.1-3.1l0-0.5c0-1.1,0.6-2,1.5-2.6l0.4-0.3
	c1.4-0.9,1.9-2.7,1.1-4.2L40.4,19.5z"/>
</svg>
