<?xml version="1.0" encoding="utf-8"?>
<!-- Generator: Adobe Illustrator 23.0.3, SVG Export Plug-In . SVG Version: 6.00 Build 0)  -->
<svg version="1.1" id="Layer_1" xmlns="http://www.w3.org/2000/svg" xmlns:xlink="http://www.w3.org/1999/xlink" x="0px" y="0px"
	 viewBox="0 0 50 50" style="enable-background:new 0 0 50 50;" xml:space="preserve">
<path style="fill:none;stroke:#000000;stroke-width:2;stroke-linecap:round;stroke-linejoin:round;stroke-miterlimit:10;" d="
	M45.4,24h-1.6c-0.8,0-1.3-0.4-1.3-0.8c-0.4-2.8-2.3-6.4-6.8-8c0-2.5,0.5-4.3,1.6-7.3c-2.5,0.6-5.4,2-7,5.7c-1.9-0.5-3.9-0.7-6-0.7
	c-5.5,0-9.6,1.7-12.9,4.2c-3,2.3-4.5,6.2-4.3,11.5c0.2,4,2.6,7.1,4.8,8.8c0.3,0.2,0.9,0.6,0.6,1.6c-0.3,1-0.9,2.4-0.9,2.4
	c-0.3,0.9,0.1,1.9,1,2.2l3.2,1.2c0.9,0.3,1.9-0.1,2.2-1c0,0,0.4-1.1,0.8-2c0.7-1.7,1.1-0.3,5.6-0.3c4.7,0,5.1-0.9,5.6,0.5
	c0.3,0.9,0.7,1.9,0.7,1.9c0.3,0.9,1.3,1.3,2.2,1l3.2-1.2c0.9-0.3,1.3-1.3,1-2.2l-0.5-1.4c0,0-0.5-0.9,0.6-1.5c2.2-1.2,3.9-3.1,5-5.4
	c0.2-0.5,0.6-1.2,1.6-1.2h1.6c0.9,0,1.6-0.7,1.6-1.6v-4.9C47,24.8,46.3,24,45.4,24z"/>
<path d="M36,27c-1.1,0-2-0.9-2-2c0-1.1,0.9-2,2-2c1.1,0,2,0.9,2,2C38,26.1,37.1,27,36,27z"/>
<path style="fill:none;stroke:#000000;stroke-width:2;stroke-linecap:round;stroke-linejoin:round;stroke-miterlimit:10;" d="
	M6.8,23.6c0,0-3.8-0.9-3.8-4.3c0-1.4,0.7-2.7,2-3.3"/>
</svg>
