<?xml version="1.0" encoding="utf-8"?>
<!-- Generator: Adobe Illustrator 24.0.1, SVG Export Plug-In . SVG Version: 6.00 Build 0)  -->
<svg version="1.1" id="Layer_1" xmlns="http://www.w3.org/2000/svg" xmlns:xlink="http://www.w3.org/1999/xlink" x="0px" y="0px"
	 viewBox="0 0 50 50" style="enable-background:new 0 0 50 50;" xml:space="preserve">
<style type="text/css">
	.st0{fill:none;stroke:#000000;stroke-width:2;stroke-linecap:round;stroke-linejoin:round;stroke-miterlimit:10;}
	.st1{fill:none;stroke:#000000;stroke-width:2;stroke-linecap:round;stroke-miterlimit:10;}
</style>
<rect x="3" y="21" class="st0" width="44" height="8"/>
<rect x="3" y="7" class="st0" width="44" height="8"/>
<rect x="3" y="35" class="st0" width="44" height="8"/>
<line class="st1" x1="11" y1="7" x2="11" y2="15"/>
<line class="st1" x1="35" y1="21" x2="35" y2="29"/>
<line class="st1" x1="23" y1="35" x2="23" y2="43"/>
<circle cx="4" cy="28" r="1"/>
<circle cx="10" cy="28" r="1"/>
<circle cx="16" cy="28" r="1"/>
<circle cx="7" cy="25" r="1"/>
<circle cx="4" cy="22" r="1"/>
<circle cx="13" cy="25" r="1"/>
<circle cx="10" cy="22" r="1"/>
<circle cx="16" cy="22" r="1"/>
<circle cx="22" cy="28" r="1"/>
<circle cx="28" cy="28" r="1"/>
<circle cx="19" cy="25" r="1"/>
<circle cx="25" cy="25" r="1"/>
<circle cx="22" cy="22" r="1"/>
<circle cx="28" cy="22" r="1"/>
<circle cx="34" cy="28" r="1"/>
<circle cx="31" cy="25" r="1"/>
<circle cx="34" cy="22" r="1"/>
<circle cx="4" cy="14" r="1"/>
<circle cx="10" cy="14" r="1"/>
<circle cx="7" cy="11" r="1"/>
<circle cx="4" cy="8" r="1"/>
<circle cx="10" cy="8" r="1"/>
<circle cx="4" cy="42" r="1"/>
<circle cx="10" cy="42" r="1"/>
<circle cx="16" cy="42" r="1"/>
<circle cx="7" cy="39" r="1"/>
<circle cx="4" cy="36" r="1"/>
<circle cx="13" cy="39" r="1"/>
<circle cx="10" cy="36" r="1"/>
<circle cx="16" cy="36" r="1"/>
<circle cx="22" cy="42" r="1"/>
<circle cx="19" cy="39" r="1"/>
<circle cx="22" cy="36" r="1"/>
</svg>
