<?xml version="1.0" encoding="iso-8859-1"?>
<!-- Generator: Adobe Illustrator 24.0.0, SVG Export Plug-In . SVG Version: 6.00 Build 0)  -->
<svg version="1.1" id="Layer_1" xmlns="http://www.w3.org/2000/svg" xmlns:xlink="http://www.w3.org/1999/xlink" x="0px" y="0px"
	 viewBox="0 0 50 50" style="enable-background:new 0 0 50 50;" xml:space="preserve">
<g id="Base">
	<path style="fill:none;stroke:#000000;stroke-width:2;stroke-linecap:round;stroke-linejoin:round;stroke-miterlimit:10;" d="
		M33,12v26 M17,12v26"/>
	<path style="fill:none;stroke:#000000;stroke-width:2;stroke-linejoin:round;stroke-miterlimit:10;" d="M2,12h46v26H2V12z"/>
</g>
<g id="First_Section" style="display:none;">
	<path style="display:inline;" d="M40.231,37.659h-0.158l-3.111,2.145v-2.47l3.278-2.259h2.646v12.683h-2.654V37.659z"/>
	<path style="display:inline;" d="M35.464,24.942c0-4.201,1.916-6.645,5.036-6.645c3.111,0,5.036,2.443,5.036,6.653
		c0,4.192-1.898,6.68-5.036,6.68S35.464,29.152,35.464,24.942z M42.847,24.942c0-2.953-0.896-4.474-2.347-4.474
		c-1.441,0-2.347,1.529-2.347,4.474c0,2.962,0.896,4.526,2.347,4.526C41.959,29.469,42.847,27.913,42.847,24.942z"/>
</g>
<g id="Second_Section" style="display:none;">
	<path style="display:inline;" d="M24.727,37.659h-0.158l-3.111,2.145v-2.47l3.278-2.259h2.646v12.683h-2.654V37.659z"/>
	<path style="display:inline;" d="M19.959,24.942c0-4.201,1.916-6.645,5.036-6.645c3.111,0,5.036,2.443,5.036,6.653
		c0,4.192-1.898,6.68-5.036,6.68S19.959,29.152,19.959,24.942z M27.342,24.942c0-2.953-0.896-4.474-2.347-4.474
		c-1.441,0-2.347,1.529-2.347,4.474c0,2.962,0.896,4.526,2.347,4.526C26.455,29.469,27.342,27.913,27.342,24.942z"/>
</g>
<g id="Third_Section" style="display:none;">
	<path style="display:inline;" d="M9.231,37.659H9.073l-3.111,2.145v-2.47l3.278-2.259h2.646v12.683H9.231V37.659z"/>
	<path style="display:inline;" d="M4.464,24.942c0-4.201,1.916-6.645,5.036-6.645c3.111,0,5.036,2.443,5.036,6.653
		c0,4.192-1.898,6.68-5.036,6.68S4.464,29.152,4.464,24.942z M11.847,24.942c0-2.953-0.896-4.474-2.347-4.474
		c-1.441,0-2.347,1.529-2.347,4.474c0,2.962,0.896,4.526,2.347,4.526C10.959,29.469,11.847,27.913,11.847,24.942z"/>
</g>
<g id="Mask" style="display:none;">
	<rect x="3" y="13" style="display:inline;" width="44" height="2"/>
	<rect x="3" y="35" style="display:inline;" width="44" height="2"/>
</g>
<path d="M35.464,24.942c0-4.201,1.916-6.645,5.036-6.645c3.111,0,5.036,2.443,5.036,6.653c0,4.192-1.898,6.68-5.036,6.68
	S35.464,29.152,35.464,24.942z M42.847,24.942c0-2.953-0.896-4.474-2.347-4.474c-1.441,0-2.347,1.529-2.347,4.474
	c0,2.962,0.896,4.526,2.347,4.526C41.959,29.469,42.847,27.913,42.847,24.942z"/>
<path d="M19.959,24.942c0-4.201,1.916-6.645,5.036-6.645c3.111,0,5.036,2.443,5.036,6.653c0,4.192-1.898,6.68-5.036,6.68
	S19.959,29.152,19.959,24.942z M27.342,24.942c0-2.953-0.896-4.474-2.347-4.474c-1.441,0-2.347,1.529-2.347,4.474
	c0,2.962,0.896,4.526,2.347,4.526C26.455,29.469,27.342,27.913,27.342,24.942z"/>
<path d="M4.455,24.942c0-4.201,1.916-6.645,5.036-6.645c3.111,0,5.036,2.443,5.036,6.653c0,4.192-1.898,6.68-5.036,6.68
	S4.455,29.152,4.455,24.942z M11.838,24.942c0-2.953-0.896-4.474-2.347-4.474c-1.441,0-2.347,1.529-2.347,4.474
	c0,2.962,0.896,4.526,2.347,4.526C10.95,29.469,11.838,27.913,11.838,24.942z"/>
</svg>
