<?xml version="1.0" encoding="iso-8859-1"?>
<!-- Generator: Adobe Illustrator 23.0.3, SVG Export Plug-In . SVG Version: 6.00 Build 0)  -->
<svg version="1.1" id="Layer_1" xmlns="http://www.w3.org/2000/svg" xmlns:xlink="http://www.w3.org/1999/xlink" x="0px" y="0px"
	 viewBox="0 0 50 50" style="enable-background:new 0 0 50 50;" xml:space="preserve">
<path style="fill:none;stroke:#000000;stroke-width:2;stroke-linecap:round;stroke-miterlimit:10;" d="M36,13c-1.5,0-2.9,0.4-4.1,1
	c-0.7-4.5-4.6-8-9.4-8c-5.2,0-9.5,4.3-9.5,9.5c0,0.5,0.1,1.1,0.1,1.6C12.8,17,12.4,17,12,17c-3.9,0-7,3.1-7,7s3.1,7,7,7
	c3.8,0,19.6,0,24,0c5,0,9-4,9-9S41,13,36,13z"/>
<path style="fill:none;stroke:#000000;stroke-width:2;stroke-linecap:round;stroke-miterlimit:10;" d="M4.3,43L4,44"/>
<path style="fill:none;stroke:#000000;stroke-width:2;stroke-linecap:round;stroke-miterlimit:10;" d="M12.3,43L12,44"/>
<path style="fill:none;stroke:#000000;stroke-width:2;stroke-linecap:round;stroke-miterlimit:10;" d="M20.3,43L20,44"/>
<path style="fill:none;stroke:#000000;stroke-width:2;stroke-linecap:round;stroke-miterlimit:10;" d="M28.3,43L28,44"/>
<path style="fill:none;stroke:#000000;stroke-width:2;stroke-linecap:round;stroke-miterlimit:10;" d="M33.188,40.007L33.1,40.3"/>
<path style="fill:none;stroke:#000000;stroke-width:2;stroke-linecap:round;stroke-miterlimit:10;" d="M25.188,40.007L25.1,40.3"/>
<path style="fill:none;stroke:#000000;stroke-width:2;stroke-linecap:round;stroke-miterlimit:10;" d="M17.188,40.007L17.1,40.3"/>
<path style="fill:none;stroke:#000000;stroke-width:2;stroke-linecap:round;stroke-miterlimit:10;" d="M9.188,40.007L9.1,40.3"/>
</svg>
