<?xml version="1.0" encoding="utf-8"?>
<!-- Generator: Adobe Illustrator 24.0.1, SVG Export Plug-In . SVG Version: 6.00 Build 0)  -->
<svg version="1.1" id="Layer_1" xmlns="http://www.w3.org/2000/svg" xmlns:xlink="http://www.w3.org/1999/xlink" x="0px" y="0px"
	 viewBox="0 0 50 50" style="enable-background:new 0 0 50 50;" xml:space="preserve">
<style type="text/css">
	.st0{fill:none;stroke:#000000;stroke-width:2;stroke-linecap:round;stroke-miterlimit:10;}
	.st1{fill:none;stroke:#000000;stroke-width:2;stroke-linecap:round;stroke-linejoin:round;stroke-miterlimit:10;}
</style>
<path d="M30.5,28c-0.8,0-1.5,0.7-1.5,1.5s0.7,1.5,1.5,1.5l0,0c0.8,0,1.5-0.7,1.5-1.5S31.3,28,30.5,28z M19.5,28
	c-0.8,0-1.5,0.7-1.5,1.5s0.7,1.5,1.5,1.5s1.5-0.7,1.5-1.5S20.3,28,19.5,28z"/>
<path class="st0" d="M31.5,15.6c0,0,5.5,4.2,5.5,12.7c0,8.1-5,14.5-5,14.5"/>
<path class="st1" d="M45.5,39.1C40.1,32.2,43,26.6,43,20.6c0-6.2-2.6-13.4-10.6-13.4c-1-1-4.2-4.2-8.7-4.2C13.6,3,7,9.1,7,19.8
	c0,5.7,3.1,12.2-2.2,19.4c0,0,4,2.6,13.2,3.6c2.2,2.8,4.7,4.3,7,4.3c2.3,0,4.8-1.5,7-4.3C41.3,41.8,45.5,39.1,45.5,39.1z"/>
<path class="st0" d="M31.5,15.6c0,0-1.4,5-7.5,6.9c-3.9,1.2-11,1.6-11,8.5c0,7.1,5.1,11.8,5.1,11.8"/>
</svg>
