<?xml version="1.0" encoding="utf-8"?>
<svg width="16px" height="11px" viewbox="0 0 16 11" version="1.1" xmlns:xlink="http://www.w3.org/1999/xlink" xmlns="http://www.w3.org/2000/svg">
  <path d="M12.5684 10.6348C13.374 10.6348 14.0588 10.3528 14.6228 9.78882C15.1868 9.22485 15.4688 8.54004 15.4688 7.73438C15.4688 6.90857 15.1263 6.19354 14.4415 5.58929C14.4012 4.74335 14.079 4.01825 13.4747 3.414C12.8705 2.80975 12.1454 2.48749 11.2994 2.4472C10.9973 1.72211 10.529 1.13297 9.89456 0.679779C9.2601 0.226593 8.54004 0 7.73438 0C6.74744 0 5.90149 0.332336 5.19653 0.997009C4.49158 1.66168 4.07867 2.47742 3.95782 3.44421C3.51471 3.52478 3.13202 3.70102 2.80975 3.97293C2.48749 4.24484 2.25586 4.59229 2.11487 5.01526C1.49048 5.17639 0.981903 5.50873 0.589142 6.01227C0.196381 6.51581 0 7.08984 0 7.73438C0 8.54004 0.281982 9.22485 0.845947 9.78882C1.40991 10.3528 2.09473 10.6348 2.90039 10.6348L2.90039 10.6348L12.5684 10.6348ZM12.5684 9.66797L2.90039 9.66797C2.35657 9.66797 1.89835 9.48166 1.52573 9.10904C1.15311 8.73642 0.966797 8.2782 0.966797 7.73438C0.966797 7.25098 1.11786 6.83304 1.41998 6.48056C1.72211 6.12808 2.09473 5.92163 2.53784 5.86121L2.53784 5.86121L2.87018 5.80078L2.9306 5.46844C3.01117 5.14618 3.18237 4.8793 3.44421 4.66782C3.70605 4.45633 4.00818 4.35059 4.35059 4.35059L4.35059 4.35059L4.83398 4.35059L4.83398 3.86719C4.83398 3.06152 5.11597 2.37671 5.67993 1.81274C6.2439 1.24878 6.92871 0.966797 7.73438 0.966797C8.39905 0.966797 8.98315 1.15814 9.48669 1.54083C9.99023 1.92352 10.3326 2.41699 10.5139 3.02124L10.5139 3.02124L10.6348 3.38379L11.1182 3.38379C11.7828 3.38379 12.3518 3.62045 12.8252 4.09378C13.2985 4.56711 13.5352 5.13611 13.5352 5.80078L13.5352 5.80078L13.5352 6.04248L13.7164 6.19354C14.2401 6.57623 14.502 7.08984 14.502 7.73438C14.502 8.2782 14.3156 8.73642 13.943 9.10904C13.5704 9.48166 13.1122 9.66797 12.5684 9.66797L12.5684 9.66797ZM8.21777 8.70117L8.21777 5.52887L9.30542 6.64673L10.0305 5.92163L8.09692 3.98804L7.73438 3.68591L7.37183 3.98804L5.43823 5.92163L6.16333 6.64673L7.25098 5.52887L7.25098 8.70117L8.21777 8.70117Z" id="" fill="#778CA2" stroke="none" />
</svg>