<?xml version="1.0" encoding="utf-8"?>
<!-- Generator: Adobe Illustrator 24.0.1, SVG Export Plug-In . SVG Version: 6.00 Build 0)  -->
<svg version="1.1" id="Layer_1" xmlns="http://www.w3.org/2000/svg" xmlns:xlink="http://www.w3.org/1999/xlink" x="0px" y="0px"
	 viewBox="0 0 50 50" style="enable-background:new 0 0 50 50;" xml:space="preserve">
<style type="text/css">
	.st0{fill:none;stroke:#000000;stroke-width:2;stroke-linecap:round;stroke-miterlimit:10;}
</style>
<g>
	<path class="st0" d="M35.7,9h-3.4c0.1-0.2,0.2-0.3,0.3-0.4c0.8-0.8,2-0.8,2.8,0C35.5,8.7,35.6,8.8,35.7,9z"/>
	<path class="st0" d="M41,5.2V9h-8.7C32.1,9,32,9,32,9c-1.1,0-2.2-0.1-2.9,0.6L9.5,29.2c-0.6,0.6-0.6,1.7,0,2.3l-6-6
		c-0.6-0.6-0.6-1.7,0-2.3L23.1,3.6C23.8,2.9,24.8,3,26,3c0,0,12.7,0,12.9,0C40,3,41,4,41,5.2z"/>
</g>
<path class="st0" d="M38.6,14.6c-0.8,0.8-0.8,2,0,2.8c0.8,0.8,2,0.8,2.8,0c0.8-0.8,0.8-2,0-2.8C40.6,13.8,39.4,13.8,38.6,14.6z"/>
<path class="st0" d="M47,11.2C47,10,46,9,44.8,9C44.7,9,32,9,32,9c-1.1,0-2.2-0.1-2.9,0.6L9.5,29.2c-0.6,0.6-0.6,1.7,0,2.3l15,15
	c0.6,0.6,1.7,0.6,2.3,0l19.6-19.6c0.6-0.6,0.6-1.7,0.6-2.9C47,24,47,11.3,47,11.2z"/>
</svg>
