<?xml version="1.0" encoding="utf-8"?>
<!-- Generator: Adobe Illustrator 23.0.3, SVG Export Plug-In . SVG Version: 6.00 Build 0)  -->
<svg version="1.1" id="Layer_1" xmlns="http://www.w3.org/2000/svg" xmlns:xlink="http://www.w3.org/1999/xlink" x="0px" y="0px"
	 viewBox="0 0 50 50" style="enable-background:new 0 0 50 50;" xml:space="preserve">
<style type="text/css">
	.st0{fill:none;stroke:#000000;stroke-width:2;stroke-linejoin:round;}
	.st1{fill:none;stroke:#000000;stroke-width:2;}
	.st2{fill:none;stroke:#000000;stroke-width:2;stroke-linecap:round;stroke-linejoin:round;}
</style>
<path class="st0" d="M17,29.6V47l8-4l8,4V29.3"/>
<path class="st1" d="M25,9c-5,0-9,4-9,9s4,9,9,9s9-4,9-9S30,9,25,9z"/>
<path class="st2" d="M28.3,5.9l4.3-0.9l1.3,4.2l4.1,1.4l-0.9,4.3l2.9,3.3l-2.9,3.2l0.9,4.3l-4.2,1.3L32.4,31l-4.3-0.9L24.9,33
	l-3.2-2.9l-4.3,0.9l-1.3-4.2L12,25.4l0.9-4.3L10,17.9l2.9-3.2l-0.9-4.3l4.2-1.3L17.6,5l4.3,0.9L25.1,3L28.3,5.9z"/>
</svg>
