<?xml version="1.0" encoding="utf-8"?>
<!-- Generator: Adobe Illustrator 23.0.3, SVG Export Plug-In . SVG Version: 6.00 Build 0)  -->
<svg version="1.1" id="Layer_1" xmlns="http://www.w3.org/2000/svg" xmlns:xlink="http://www.w3.org/1999/xlink" x="0px" y="0px"
	 viewBox="0 0 50 50" style="enable-background:new 0 0 50 50;" xml:space="preserve">
<style type="text/css">
	.st0{fill:none;stroke:#000000;stroke-width:2;stroke-linecap:round;stroke-linejoin:round;}
	.st1{stroke:#000000;stroke-width:2;stroke-linecap:round;}
</style>
<g>
	<path class="st0" d="M25,3C12.8,3,3,12.8,3,25s9.8,22,22,22s22-9.8,22-22S37.2,3,25,3L25,3z"/>
</g>
<path class="st0" d="M18,37c0,0,2,2,7,2c9,0,14-6,14-6"/>
<path class="st1" d="M27,18c0,0,0,3,0,3c0,6,3,8,8,8s9-3,9-7.3c0-2.9,2-2.2,2-3S42.4,17,33.4,17C30.5,17,29.4,17.7,27,18
	c0,0-0.7-1-2-1c-1.3,0-2,1-2,1c-2.4-0.3-3.5-1-6.4-1C7.6,17,4,18,4,18.7s2,0.2,2,3C6,26,10,29,15,29s8-2,8-8c0,0,0-3,0-3"/>
</svg>
