<?xml version="1.0" encoding="utf-8"?>
<!-- Generator: Adobe Illustrator 23.0.3, SVG Export Plug-In . SVG Version: 6.00 Build 0)  -->
<svg version="1.1" id="Layer_1" xmlns="http://www.w3.org/2000/svg" xmlns:xlink="http://www.w3.org/1999/xlink" x="0px" y="0px"
	 viewBox="0 0 50 50" style="enable-background:new 0 0 50 50;" xml:space="preserve">
<path style="fill:none;stroke:#000000;stroke-width:2;stroke-linecap:round;stroke-linejoin:round;stroke-miterlimit:10;" d="M3,16
	h10v19.7V45H3V16z"/>
<path style="fill:none;stroke:#000000;stroke-width:1.976;stroke-linecap:round;stroke-linejoin:round;stroke-miterlimit:10;" d="
	M8,12L8,12c-3,0-5-1.8-5-4.1S5,4,8,4s4.9,1.7,5,3.9C13,10.2,11.1,12,8,12z"/>
<path style="fill:none;stroke:#000000;stroke-width:2;stroke-linecap:round;stroke-linejoin:round;stroke-miterlimit:10;" d="
	M37,28.5c0-2.5-2-4.5-4.5-4.5S28,26,28,28.5c0,0,0,0.1,0,0.3s0,0.3,0,0.3c0,1.3,0,16,0,16H18V16h10v3.6c0,0,3.3-3.6,8.8-3.6
	C42.4,16,47,20.1,47,28v17H37C37,45,37,29.6,37,28.5"/>
</svg>
