<?xml version="1.0" encoding="utf-8"?>
<!-- Generator: Adobe Illustrator 24.0.1, SVG Export Plug-In . SVG Version: 6.00 Build 0)  -->
<svg version="1.1" id="Layer_1" xmlns="http://www.w3.org/2000/svg" xmlns:xlink="http://www.w3.org/1999/xlink" x="0px" y="0px"
	 viewBox="0 0 50 50" style="enable-background:new 0 0 50 50;" xml:space="preserve">
<style type="text/css">
	.st0{fill:none;stroke:#000000;stroke-width:1.989;stroke-linejoin:round;stroke-miterlimit:10;}
	.st1{fill:none;stroke:#000000;stroke-width:1.959;stroke-linejoin:round;stroke-miterlimit:10;}
	.st2{fill:none;stroke:#000000;stroke-width:2;stroke-linejoin:round;stroke-miterlimit:10;}
	.st3{fill:none;stroke:#000000;stroke-width:2;stroke-linecap:round;stroke-linejoin:round;stroke-miterlimit:10;}
	.st4{fill-rule:evenodd;clip-rule:evenodd;}
</style>
<path class="st0" d="M6,5C5.4,5,5,5.4,5,5.9V31c0,0.5,0.5,1,1,1h38c0.5,0,1-0.5,1-1V5.9C45,5.4,44.6,5,44,5H6z"/>
<path class="st1" d="M2,42v3c0,0.6,0.4,1,1,1H47c0.5,0,1-0.4,1-1v-3H2z"/>
<path class="st2" d="M48,42l-2.9-9.4c-0.1-0.3-0.6-0.6-1-0.6H6c-0.5,0-0.9,0.3-1,0.6L2,42H48z"/>
<path class="st3" d="M39,32H11l-1,4h30L39,32z"/>
<path class="st4" d="M29,38h-8l-1,2h10L29,38z"/>
</svg>
