<?xml version="1.0" encoding="iso-8859-1"?>
<!-- Generator: Adobe Illustrator 23.0.3, SVG Export Plug-In . SVG Version: 6.00 Build 0)  -->
<svg version="1.1" id="Layer_1" xmlns="http://www.w3.org/2000/svg" xmlns:xlink="http://www.w3.org/1999/xlink" x="0px" y="0px"
	 viewBox="0 0 50 50" style="enable-background:new 0 0 50 50;" xml:space="preserve">
<path style="fill:none;stroke:#000000;stroke-width:2;stroke-linejoin:round;stroke-miterlimit:10;" d="M25.5,4c1.9,0,4.5,4.6,4.5,8
	c0,1.1-0.6,3.5-1.6,6.7L28,20h1.4H44c1.7,0,3,1.3,3,3c0,1.1-0.5,2-1.5,2.6l-1,0.6l0.8,0.9c0.5,0.5,0.7,1.2,0.7,1.9
	c0,1-0.6,2-1.5,2.6l-1,0.6l0.8,0.9c0.5,0.5,0.7,1.2,0.7,1.9c0,1.3-0.8,2.4-2,2.8l-1.2,0.4l0.7,1.1c0.3,0.5,0.5,1.1,0.5,1.7
	c0,1.7-1.3,3-3,3H21c-0.8,0-1.6-0.5-1.9-1.3L18.9,42h-0.7H18h-1h-1V23h1h1v-1l4.9-9.8L23,12v-0.2V4H25.5"/>
<polygon style="fill:none;stroke:#000000;stroke-width:2;stroke-linejoin:round;stroke-miterlimit:10;" points="3,20 16,20 16,44 
	6,44 "/>
<circle cx="11.5" cy="38.5" r="1.5"/>
</svg>
