<?xml version="1.0" encoding="utf-8"?>
<!-- Generator: Adobe Illustrator 23.0.3, SVG Export Plug-In . SVG Version: 6.00 Build 0)  -->
<svg version="1.1" id="Layer_1" xmlns="http://www.w3.org/2000/svg" xmlns:xlink="http://www.w3.org/1999/xlink" x="0px" y="0px"
	 viewBox="0 0 50 50" style="enable-background:new 0 0 50 50;" xml:space="preserve">
<path d="M5,4C4.4,4,4,4.4,4,5v40c0,0.6,0.4,1,1,1h40c0.6,0,1-0.4,1-1V5c0-0.6-0.4-1-1-1H5z M6,6h38v38H6V6z"/>
<path d="M13,21c-2.2,0-4,1.8-4,4s1.8,4,4,4s4-1.8,4-4S15.2,21,13,21z M22.8,28.5H21v-7h3.1c1.6,0,2.6,0.9,2.6,2.3
	c0,0.9-0.4,1.7-1.2,2l1.4,2.7h-2l-1.2-2.5h-0.9V28.5z M22.8,24.8h1.1c0.7,0,1-0.4,1-1c0-0.6-0.4-1-1.1-1h-1.1L22.8,24.8z M33.5,28.5
	h-4.8v-7h4.8v1.4h-3v1.4h2.9v1.3h-2.9v1.4h3V28.5z M35,25c0-2.3,1.3-3.7,3.4-3.7c1.8,0,3.1,1.2,3.2,2.8h-1.7
	c-0.1-0.8-0.7-1.3-1.4-1.3c-1,0-1.6,0.8-1.6,2.2c0,1.4,0.6,2.2,1.6,2.2c0.8,0,1.3-0.5,1.5-1.3h1.7c-0.1,1.6-1.4,2.7-3.2,2.7
	C36.3,28.7,35,27.3,35,25z"/>
</svg>
