<?xml version="1.0" encoding="utf-8"?>
<!-- Generator: Adobe Illustrator 24.0.1, SVG Export Plug-In . SVG Version: 6.00 Build 0)  -->
<svg version="1.1" id="Layer_1" xmlns="http://www.w3.org/2000/svg" xmlns:xlink="http://www.w3.org/1999/xlink" x="0px" y="0px"
	 viewBox="0 0 50 50" style="enable-background:new 0 0 50 50;" xml:space="preserve">
<style type="text/css">
	.st0{fill:none;stroke:#000000;stroke-width:2;stroke-linecap:round;stroke-linejoin:round;stroke-miterlimit:10;}
</style>
<path class="st0" d="M36,13.7v28.6c0,3.8-1.9,5.6-5.6,5.6H11.6C7.9,48,6,46.1,6,42.4V13.2"/>
<path class="st0" d="M36,19c0,0,2.4-1,5-1c2.8,0,5,1.9,5,5c0,6.5-3.1,14-9,14h-1"/>
<path class="st0" d="M30,12c0.9,1.2,2.4,2,4,2c2.8,0,5-2.2,5-5s-2.2-5-5-5c-1.6,0-3.1,0.8-4,2c-0.9-1.2-2.4-2-4-2
	c-1.1,0-2.1,0.3-2.9,0.9c-1-1.7-3-2.9-5.1-2.9c-2.4,0-4.5,1.4-5.4,3.5C11.6,4.6,10.4,4,9,4C6.2,4,4,6.2,4,9s2.2,5,5,5
	c1.8,0,3.4-0.9,4.2-2.4C14.3,13,16,14,18,14c1.7,0,3.1-0.7,4.2-1.7"/>
<line class="st0" x1="29.1" y1="22" x2="36" y2="22"/>
<line class="st0" x1="6" y1="22" x2="22.9" y2="22"/>
<path class="st0" d="M22.2,12.3c0.6,0.6,1.8,1.8,1.8,3.4c0,5.3-2,7.3-2,9.3c0,2.2,1.8,4,4,4s4-1.8,4-4c0-2-2-4-2-9.3
	c0-1.7,1.4-2.9,2-3.7"/>
</svg>
