<?xml version="1.0" encoding="utf-8"?>
<!-- Generator: Adobe Illustrator 24.0.1, SVG Export Plug-In . SVG Version: 6.00 Build 0)  -->
<svg version="1.1" id="Layer_1" xmlns="http://www.w3.org/2000/svg" xmlns:xlink="http://www.w3.org/1999/xlink" x="0px" y="0px"
	 viewBox="0 0 50 50" style="enable-background:new 0 0 50 50;" xml:space="preserve">
<style type="text/css">
	.st0{fill:none;stroke:#000000;stroke-width:2;stroke-linecap:round;stroke-miterlimit:10;}
	.st1{fill:none;stroke:#000000;stroke-width:2;stroke-linecap:round;stroke-linejoin:round;stroke-miterlimit:10;}
</style>
<circle class="st0" cx="25" cy="6" r="3"/>
<circle class="st0" cx="7" cy="15" r="3"/>
<circle class="st0" cx="25" cy="44" r="3"/>
<circle class="st0" cx="43" cy="15" r="3"/>
<circle class="st0" cx="7" cy="35" r="3"/>
<circle class="st0" cx="43" cy="35" r="3"/>
<path class="st1" d="M27,27.9c0-0.7,0-1.1,0-1.7c0.3-0.2,1.3-1.2,1.3-2.2c0.2,0,0.6-0.3,0.7-1.2c0.1-0.5-0.1-0.8-0.3-0.9
	c0.7-2.2,0.3-5-2.7-5l-0.4-1c-4.1,0-5.3,2.7-4.3,6c-0.1,0.1-0.3,0.4-0.3,0.9c0.1,0.9,0.4,1.1,0.7,1.2c0,1,1.1,2,1.3,2.2
	c0,0.7,0,1.1,0,1.7c-0.7,1.9-4.8,1.3-5,5.1h14C31.8,29.3,27.7,29.9,27,27.9z"/>
<g>
	<line class="st1" x1="7" y1="32" x2="7" y2="18"/>
	<line class="st1" x1="22" y1="43.5" x2="9.7" y2="36.4"/>
	<line class="st1" x1="40.3" y1="36.4" x2="28" y2="43.5"/>
	<line class="st1" x1="43" y1="18" x2="43" y2="32"/>
	<line class="st1" x1="28" y1="6.5" x2="40.3" y2="13.6"/>
	<line class="st1" x1="9.7" y1="13.6" x2="22" y2="6.5"/>
</g>
</svg>
