<?xml version="1.0" encoding="utf-8"?>
<!-- Generator: Adobe Illustrator 23.0.3, SVG Export Plug-In . SVG Version: 6.00 Build 0)  -->
<svg version="1.1" id="Layer_1" xmlns="http://www.w3.org/2000/svg" xmlns:xlink="http://www.w3.org/1999/xlink" x="0px" y="0px"
	 viewBox="0 0 50 50" style="enable-background:new 0 0 50 50;" xml:space="preserve">
<path d="M25,3c-2.8,0-5,2.2-5,5s2.2,5,5,5s5-2.2,5-5S27.8,3,25,3z M25,11c-1.7,0-3-1.3-3-3s1.3-3,3-3s3,1.3,3,3S26.7,11,25,11z"/>
<path d="M36.6,25c0,3,2.4,5.4,5.4,5.4s5.4-2.4,5.4-5.4S45,19.6,42,19.6S36.6,22,36.6,25z M45.2,25c0,1.8-1.4,3.2-3.2,3.2
	s-3.2-1.4-3.2-3.2s1.4-3.2,3.2-3.2S45.2,23.2,45.2,25z"/>
<path d="M3.2,25c0,2.6,2.1,4.8,4.8,4.8s4.8-2.1,4.8-4.8s-2.1-4.8-4.8-4.8S3.2,22.4,3.2,25z M10.9,25c0,1.6-1.3,2.9-2.9,2.9
	S5.1,26.6,5.1,25s1.3-2.9,2.9-2.9S10.9,23.4,10.9,25z"/>
<path d="M40.7,9.3c-2-2-5.3-2-7.3,0c-2,2-2,5.3,0,7.3s5.3,2,7.3,0S42.7,11.3,40.7,9.3z M34.8,15.2c-1.2-1.2-1.2-3.2,0-4.4
	s3.2-1.2,4.4,0s1.2,3.2,0,4.4C38,16.4,36,16.4,34.8,15.2z"/>
<path d="M34.8,34.8c-1.2,1.2-1.2,3.2,0,4.4c1.2,1.2,3.2,1.2,4.4,0c1.2-1.2,1.2-3.2,0-4.4C38,33.6,36,33.6,34.8,34.8z M38.4,38.4
	c-0.7,0.7-1.9,0.7-2.7,0c-0.7-0.7-0.7-1.9,0-2.7c0.7-0.7,1.9-0.7,2.7,0S39.1,37.6,38.4,38.4z"/>
<path d="M9.4,9.4c-1.9,1.9-1.9,5.1,0,7.1s5.1,1.9,7.1,0s1.9-5.1,0-7.1S11.4,7.5,9.4,9.4z M15.1,15.1c-1.2,1.2-3.1,1.2-4.2,0
	s-1.2-3.1,0-4.2s3.1-1.2,4.2,0S16.3,13.9,15.1,15.1z"/>
</svg>
