<?xml version="1.0" encoding="utf-8"?>
<!-- Generator: Adobe Illustrator 24.0.0, SVG Export Plug-In . SVG Version: 6.00 Build 0)  -->
<svg version="1.1" id="Layer_1" xmlns="http://www.w3.org/2000/svg" xmlns:xlink="http://www.w3.org/1999/xlink" x="0px" y="0px"
	 viewBox="0 0 50 50" style="enable-background:new 0 0 50 50;" xml:space="preserve">
<style type="text/css">
	.st0{fill:none;stroke:#000000;stroke-width:2;stroke-miterlimit:10;}
</style>
<path class="st0" d="M14,34c-2.8,0-5,2.2-5,5s2.2,5,5,5s5-2.2,5-5S16.8,34,14,34z M39,34c-2.8,0-5,2.2-5,5s2.2,5,5,5s5-2.2,5-5
	S41.8,34,39,34z"/>
<path class="st0" d="M44,39h2c1,0,2-1,2-2c0,0,0-7.9,0-9.6s-1.4-3.7-1.4-3.7l-4.1-5.5c-0.8-1-2.1-2.2-3.5-2.2h-8c-1,0-2,1-2,2v21h5
	 M48,28c0,0-9,0-10,0s-2-1-2-2c0-0.6,0-8.5,0-10 M19,39h10V10.9c0-1-0.9-1.9-1.9-1.9H3.8C2.8,9,2,9.8,2,10.8V37c0,1.1,0.9,2,2,2h5"
	/>
<path d="M16,32c-5.5,0-10-4.5-10-10s4.5-10,10-10s10,4.5,10,10S21.5,32,16,32z M16,14c-4.4,0-8,3.6-8,8s3.6,8,8,8s8-3.6,8-8
	S20.4,14,16,14z M16,21v0.5l-3.6,2.7l1.2,1.6l4.4-3.3V22v-1H16z"/>
<line class="st0" x1="17" y1="22" x2="17" y2="16"/>
</svg>
