<?xml version="1.0" encoding="utf-8"?>
<!-- Generator: Adobe Illustrator 23.0.3, SVG Export Plug-In . SVG Version: 6.00 Build 0)  -->
<svg version="1.1" id="Layer_1" xmlns="http://www.w3.org/2000/svg" xmlns:xlink="http://www.w3.org/1999/xlink" x="0px" y="0px"
	 viewBox="0 0 50 50" style="enable-background:new 0 0 50 50;" xml:space="preserve">
<g>
	<path style="fill:none;stroke:#000000;stroke-width:2;stroke-miterlimit:10;" d="M24.4,10c6.7,0,12.6,0.5,16,1
		c1.9,0.5,3.4,1.8,3.7,3.5c0.6,3.3,1,6.8,1,10.4c-0.1,4.4-0.6,7.9-1,10.5c-0.3,1.7-1.7,3-3.7,3.5c-3.6,0.7-9.7,1.2-15.9,1.2
		s-12.2-0.5-15.8-1.2c-2-0.4-3.4-1.8-3.7-3.5C4.5,33.3,4,29.9,4,25c0-4.6,0.4-8.2,0.8-10.3c0.3-1.7,1.7-3,3.7-3.5
		C11.9,10.5,18.1,10,24.4,10"/>
</g>
<polygon style="fill:none;stroke:#000000;stroke-width:2;stroke-miterlimit:10;" points="20,18.7 20,31.3 30.9,25 "/>
</svg>
