<?xml version="1.0" encoding="utf-8"?>
<!-- Generator: Adobe Illustrator 24.0.1, SVG Export Plug-In . SVG Version: 6.00 Build 0)  -->
<svg version="1.1" id="Layer_1" xmlns="http://www.w3.org/2000/svg" xmlns:xlink="http://www.w3.org/1999/xlink" x="0px" y="0px"
	 viewBox="0 0 50 50" style="enable-background:new 0 0 50 50;" xml:space="preserve">
<style type="text/css">
	.st0{fill:none;stroke:#000000;stroke-width:2;stroke-linecap:round;stroke-miterlimit:10;}
</style>
<path class="st0" d="M39,8c-1.7,0-3,1.3-3,3s1.3,3,3,3s3-1.3,3-3S40.7,8,39,8z"/>
<path class="st0" d="M47,5.5C47,4.1,45.9,3,44.5,3c-0.2,0-14.9,0-14.9,0c-1.3,0-2.6-0.1-3.3,0.7L3.6,26.4c-0.7,0.7-0.7,1.9,0,2.7
	l17.4,17.4c0.7,0.7,1.9,0.7,2.7,0l22.7-22.7c0.7-0.7,0.7-2,0.7-3.3C47,20.4,47,5.7,47,5.5z"/>
</svg>
