<?xml version="1.0" encoding="utf-8"?>
<!-- Generator: Adobe Illustrator 23.0.3, SVG Export Plug-In . SVG Version: 6.00 Build 0)  -->
<svg version="1.1" id="Layer_1" xmlns="http://www.w3.org/2000/svg" xmlns:xlink="http://www.w3.org/1999/xlink" x="0px" y="0px"
	 viewBox="0 0 50 50" style="enable-background:new 0 0 50 50;" xml:space="preserve">
<path style="fill:none;stroke:#000000;stroke-width:2;stroke-miterlimit:10;" d="M13.9,30.5C16.8,27.7,20.7,26,25,26s8.2,1.7,11,4.5
	l4.2-4.3c-4-3.8-9.3-6.1-15.2-6.1s-11.3,2.3-15.2,6.1L13.9,30.5z"/>
<path style="fill:none;stroke:#000000;stroke-width:2;stroke-miterlimit:10;" d="M5.6,21.8C10.7,17,17.5,14,25,14s14.3,3,19.4,7.8
	l4.2-4.3C42.4,11.6,34.1,8,25,8S7.6,11.6,1.5,17.5L5.6,21.8z M25,42l6.9-7.2C30.1,33.1,27.7,32,25,32s-5.1,1.1-6.9,2.8L25,42z"/>
</svg>
