<?xml version="1.0" encoding="iso-8859-1"?>
<!-- Generator: Adobe Illustrator 23.0.3, SVG Export Plug-In . SVG Version: 6.00 Build 0)  -->
<svg version="1.1" id="Layer_1" xmlns="http://www.w3.org/2000/svg" xmlns:xlink="http://www.w3.org/1999/xlink" x="0px" y="0px"
	 viewBox="0 0 50 50" style="enable-background:new 0 0 50 50;" xml:space="preserve">
<path style="fill:none;stroke:#000000;stroke-width:2;stroke-linecap:round;stroke-miterlimit:10;" d="M33,30c0,0,2.524,0,3,0
	c4.971,0,9-4.029,9-9s-4.029-9-9-9c-1.49,0-2.891,0.368-4.129,1.008C31.154,8.472,27.238,5,22.5,5C17.253,5,13,9.253,13,14.5
	c0,0.547,0.057,1.08,0.146,1.602C12.772,16.04,12.391,16,12,16c-3.866,0-7,3.134-7,7s3.134,7,7,7c0.529,0,4,0,4,0"/>
</svg>
