<?xml version="1.0" encoding="utf-8"?>
<!-- Generator: Adobe Illustrator 23.0.3, SVG Export Plug-In . SVG Version: 6.00 Build 0)  -->
<svg version="1.1" id="Layer_1" xmlns="http://www.w3.org/2000/svg" xmlns:xlink="http://www.w3.org/1999/xlink" x="0px" y="0px"
	 viewBox="0 0 50 50" style="enable-background:new 0 0 50 50;" xml:space="preserve">
<path style="fill:none;stroke:#000000;stroke-width:2;stroke-linecap:round;stroke-linejoin:round;stroke-miterlimit:10;" d="
	M36,25.3V9.5C36,8.1,34.9,7,33.5,7S31,8.1,31,9.5V20l-0.9-1L28,10.7l0,0l-5.5-6.8c-0.9-1.1-2.4-1.2-3.5-0.4S17.7,6,18.6,7.1l4.9,6
	l1.2,4.8l-3.2-4.4l0,0l-7.7-4.2c-1.2-0.7-2.7-0.2-3.4,1s-0.2,2.7,1,3.4l6.8,3.7l2.7,3.6h-3.9c-0.8,0-1.6,0.3-2.2,0.9l-4.9,4.8
	c-1,1-1,2.6,0,3.5s2.6,1,3.5,0l4.1-4l6.8,1.1l3,6.2L23,38l-5-1l-2.2-3.4c-1-1.6-3.1-2.3-4.9-1.6L9,32.7l5,9.6l5.3,3.1
	c1.1,0.7,2.5,0.8,3.7,0.3l1.8-0.7c3.4-1.3,7.1-1.4,10.5-0.2l5.7,2V30.6L36,25.3z"/>
</svg>
