<?xml version="1.0" encoding="iso-8859-1"?>
<!-- Generator: Adobe Illustrator 22.1.0, SVG Export Plug-In . SVG Version: 6.00 Build 0)  -->
<svg version="1.1" xmlns="http://www.w3.org/2000/svg" xmlns:xlink="http://www.w3.org/1999/xlink" x="0px" y="0px"
	 viewBox="0 0 50 50" style="enable-background:new 0 0 50 50;" xml:space="preserve">
<g id="arm-right">
	<path style="fill:none;stroke:#000000;stroke-width:2;stroke-linecap:round;stroke-linejoin:round;stroke-miterlimit:10;" d="
		M31,10h-8.622c-0.545,0-1.085,0.111-1.585,0.327l-6.451,2.784l0.003,0.007C13.564,13.391,13,14.126,13,15
		c0,1.105,1.253,2.435,2.834,1.813L22.211,14h5.125"/>
</g>
<g id="body2">
	<path style="fill:none;stroke:#000000;stroke-width:2;stroke-linecap:round;stroke-linejoin:round;stroke-miterlimit:10;" d="
		M33.9,16.3c1.4-1.4,1.4-3.8,0-5.2C33.2,10.3,32.2,10,31,10"/>
</g>
<g id="body1">
	<path style="fill:none;stroke:#000000;stroke-width:2;stroke-linecap:round;stroke-linejoin:round;stroke-miterlimit:10;" d="
		M25.336,14l-6.162,6.162v0.006C18.449,20.893,18,21.894,18,23c0,1.256,0.591,2.364,1.497,3.097l0.001,0.017l0.219,0.165
		c0.022,0.015,0.041,0.032,0.063,0.047L26,31v8.5c0,1.381,1.119,2.5,2.5,2.5s2.5-1.119,2.5-2.5v-10c0-0.901-0.482-1.685-1.197-2.125
		l-0.008-0.014c0,0-2.295-1.661-3.895-2.861l8-8.2"/>
</g>
<g id="head">
	<path style="fill:none;stroke:#000000;stroke-width:2;stroke-miterlimit:10;" d="M36,7.5c0,2.5,2,4.5,4.5,4.5S45,10,45,7.5
		S43,3,40.5,3S36,5,36,7.5z"/>
</g>
<g id="arm-left">
	<path style="fill:none;stroke:#000000;stroke-width:2;stroke-linecap:round;stroke-linejoin:round;stroke-miterlimit:10;" d="
		M27.418,23H37c1.1,0,2-0.9,2-2s-0.9-2-2-2h-5.5"/>
</g>
<g id="board">
	<path style="fill:none;stroke:#000000;stroke-width:2;stroke-miterlimit:10;" d="M34,43c-1.105,0-2,0.895-2,2s0.895,2,2,2
		s2-0.895,2-2S35.105,43,34,43z M18,43c-1.105,0-2,0.895-2,2s0.895,2,2,2s2-0.895,2-2S19.105,43,18,43z"/>
	<path style="fill:none;stroke:#000000;stroke-width:2;stroke-linecap:round;stroke-miterlimit:10;" d="M40,40l-2.1,1.2
		C37,41.7,36,42,34.9,42H17.1c-1,0-2.1-0.3-3-0.8L12,40"/>
</g>
<g id="leg">
	<path style="fill:none;stroke:#000000;stroke-width:2;stroke-linecap:round;stroke-miterlimit:10;" d="M17.713,23.588L12.4,29
		H6.661c-1.465,0-2.747,1.202-2.656,2.664C4.087,32.985,5.155,34,6.5,34h7.255c0.795,0,1.558-0.316,2.121-0.878L21,28"/>
</g>
</svg>
