<?xml version="1.0" encoding="utf-8"?>
<!-- Generator: Adobe Illustrator 23.0.3, SVG Export Plug-In . SVG Version: 6.00 Build 0)  -->
<svg version="1.1" id="Layer_1" xmlns="http://www.w3.org/2000/svg" xmlns:xlink="http://www.w3.org/1999/xlink" x="0px" y="0px"
	 viewBox="0 0 50 50" style="enable-background:new 0 0 50 50;" xml:space="preserve">
<path style="fill:none;stroke:#000000;stroke-width:2;stroke-linecap:round;stroke-linejoin:round;stroke-miterlimit:10;" d="M27,42
	c-1-5.7-5.5-8-5.5-8"/>
<path style="fill:none;stroke:#000000;stroke-width:2;stroke-linecap:round;stroke-linejoin:round;stroke-miterlimit:10;" d="M35,30
	L35,30c-1.7,0-3-1.3-3-3v-7c0-1.7,1.3-3,3-3l0,0c1.7,0,3,1.3,3,3v7C38,28.7,36.7,30,35,30z"/>
<path style="fill:none;stroke:#000000;stroke-width:2;stroke-linecap:round;stroke-linejoin:round;stroke-miterlimit:10;" d="M14,27
	L9,7.3C8.6,5,10,4,11.6,4H12c1.4,0,2.5,1,3,3l5,16"/>
<path style="fill:none;stroke:#000000;stroke-width:2;stroke-linecap:round;stroke-linejoin:round;stroke-miterlimit:10;" d="M20,23
	l3-19c0.4-1.8,1.3-3,3-3l0,0c1.7,0,3,1,3,3l-1,10"/>
<path style="fill:none;stroke:#000000;stroke-width:2;stroke-linecap:round;stroke-linejoin:round;stroke-miterlimit:10;" d="M26,25
	v-8c0-1.7,1.3-3,3-3l0,0c1.7,0,3,1.3,3,3v4"/>
<path style="fill:none;stroke:#000000;stroke-width:2;stroke-linecap:round;stroke-linejoin:round;stroke-miterlimit:10;" d="
	M21.1,37.4l-1.6-2.9l8.8-2.3c2.2-0.8,3-2.3,2.6-4.2c-0.4-1.9-2.3-3-4.2-2.6l-11.5,1.5c0,0-4.1,0.3-5,5.1c-0.3,1.7,0.1,3.5,0.3,4.2
	L13,45c0.8,2.6,3.7,4,6.5,4H32c4.4,0,8-3.6,8-8V30c0-4-2-7-2-7"/>
</svg>
