<?xml version="1.0" encoding="utf-8"?>
<!-- Generator: Adobe Illustrator 23.0.3, SVG Export Plug-In . SVG Version: 6.00 Build 0)  -->
<svg version="1.1" id="Layer_1" xmlns="http://www.w3.org/2000/svg" xmlns:xlink="http://www.w3.org/1999/xlink" x="0px" y="0px"
	 viewBox="0 0 50 50" style="enable-background:new 0 0 50 50;" xml:space="preserve">
<path style="fill:none;stroke:#000000;stroke-width:2;stroke-linecap:round;stroke-linejoin:round;stroke-miterlimit:10;" d="M17,38
	c8,0,9-3,13-3c2.5,0,4,1,4,1"/>
<path style="fill:none;stroke:#000000;stroke-width:2;stroke-linecap:round;stroke-linejoin:round;stroke-miterlimit:10;" d="M25,3
	C12.8,3,3,12.8,3,25s9.8,22,22,22s22-9.8,22-22S37.2,3,25,3L25,3z"/>
<path style="fill:none;stroke:#000000;stroke-width:2;stroke-linecap:round;stroke-linejoin:round;stroke-miterlimit:10;" d="M39,16
	c-2.5-0.5-4.5-1.1-6-1.6c-2.7-0.8-4-1.4-4-1.4"/>
<path style="fill:none;stroke:#000000;stroke-width:2;stroke-linecap:round;stroke-linejoin:round;stroke-miterlimit:10;" d="M11,15
	c0,0,1.9-2.9,5.8-4.4C18.8,9.9,21,10,21,10"/>
<path d="M36,22c0,0.3,0,0.6-0.1,0.9C35.5,24.1,34.4,25,33,25c-1.7,0-3-1.3-3-3s1.3-3,3-3c1.3,0,2.4,0.8,2.8,2
	C35.9,21.3,36,21.7,36,22z"/>
<path d="M20,22c0,0.4-0.1,0.8-0.3,1.2C19.3,24.3,18.2,25,17,25c-1.7,0-3-1.3-3-3s1.3-3,3-3c1.1,0,2.1,0.6,2.6,1.5
	C19.9,21,20,21.5,20,22z"/>
</svg>
