<svg fill="#000000" xmlns="http://www.w3.org/2000/svg" viewBox="0 0 50 50" width="50px" height="50px"><path fill="none" stroke="#000000" stroke-linecap="round" stroke-miterlimit="10" stroke-width="2" d="M40.599,21.501C40.858,20.359,41,19.163,41,17.909C41,11.885,36.115,7,30.091,7C26.295,7,22.954,9.058,21,12c-1.954-2.942-5.295-5-9.091-5C5.885,7,1,11.885,1,17.909C1,30.637,15.545,37.455,21,42c1.222-1.018,2.899-2.149,4.767-3.436"/><path fill="none" stroke="#000000" stroke-linecap="round" stroke-miterlimit="10" stroke-width="2" d="M43.64,22.387c-2.566-0.836-5.254-0.258-7.223,1.301c-0.675-2.42-2.506-4.469-5.074-5.306c-4.075-1.326-8.454,0.901-9.78,4.977c-2.803,8.607,5.633,16.114,8.322,20.39c4.69-1.872,15.929-2.974,18.732-11.582C49.942,28.092,47.716,23.713,43.64,22.387z"/></svg>