<svg xmlns="http://www.w3.org/2000/svg" viewBox="0 0 50 50"><defs><style>.cls-1{fill:none;stroke:#000;stroke-linecap:round;stroke-linejoin:round;stroke-width:2px;}</style></defs><title>Artboard 1</title><g id="Check"><path class="cls-1" d="M13,12H28m6,0h3M13,18H24m10,0h3M13,24H28m6,0h3M13,30H24m10,0h3M31,41h6"/><path class="cls-1" d="M7,3,9,4l2-1,2,1,2-1,2,1,2-1,2,1,2-1,2,1,2-1,2,1,2-1,2,1,2-1,2,1,2-1,2,1,2-1V47H7Z"/><path d="M13,35a1,1,0,1,0,1,1A1,1,0,0,0,13,35Zm3,0a1,1,0,1,0,1,1A1,1,0,0,0,16,35Zm3,0a1,1,0,1,0,1,1A1,1,0,0,0,19,35Zm3,0a1,1,0,1,0,1,1A1,1,0,0,0,22,35Zm3,0a1,1,0,1,0,1,1A1,1,0,0,0,25,35Zm3,0a1,1,0,1,0,1,1A1,1,0,0,0,28,35Zm3,0a1,1,0,1,0,1,1A1,1,0,0,0,31,35Zm3,0a1,1,0,1,0,1,1A1,1,0,0,0,34,35Zm3,0a1,1,0,1,0,1,1A1,1,0,0,0,37,35Z"/></g><g id="Line"><path d="M47,46a2,2,0,0,1-2,2H5a2,2,0,0,1-1.42-.59A2,2,0,0,1,5,44H7v3H43V44h2A2,2,0,0,1,47,46Z"/></g></svg>