<?xml version="1.0" encoding="utf-8"?>
<!-- Generator: Adobe Illustrator 24.0.0, SVG Export Plug-In . SVG Version: 6.00 Build 0)  -->
<svg version="1.1" id="Layer_1" xmlns="http://www.w3.org/2000/svg" xmlns:xlink="http://www.w3.org/1999/xlink" x="0px" y="0px"
	 viewBox="0 0 50 50" style="enable-background:new 0 0 50 50;" xml:space="preserve">
<style type="text/css">
	.st0{fill:none;stroke:#000000;stroke-width:2;stroke-linecap:round;stroke-linejoin:round;stroke-miterlimit:10;}
</style>
<path class="st0" d="M45,15v-5c0-2.8-2.2-5-5-5h-5 M15,5h-5c-2.8,0-5,2.2-5,5v5 M5,34v6c0,2.8,2.2,5,5,5h5 M35,45h5c2.8,0,5-2.2,5-5
	v-6 M26,19v8c0,1.1-0.9,2-2,2h-1 M16,19v3 M34,19v3 M19,34c0,0,2,2,6,2s6-2,6-2"/>
</svg>
