<?xml version="1.0" encoding="utf-8"?>
<!-- Generator: Adobe Illustrator 23.0.3, SVG Export Plug-In . SVG Version: 6.00 Build 0)  -->
<svg version="1.1" id="Layer_1" xmlns="http://www.w3.org/2000/svg" xmlns:xlink="http://www.w3.org/1999/xlink" x="0px" y="0px"
	 viewBox="0 0 50 50" style="enable-background:new 0 0 50 50;" xml:space="preserve">
<path style="fill:none;stroke:#000000;stroke-width:2;stroke-linecap:round;stroke-miterlimit:10;" d="M38.8,3H11.3
	C6.7,3,3,6.7,3,11.3v27.5c0,4.6,3.7,8.3,8.3,8.3h27.5c4.6,0,8.3-3.7,8.3-8.3V11.3C47,6.7,43.3,3,38.8,3z"/>
<path style="fill:none;stroke:#000000;stroke-width:2;stroke-linecap:round;stroke-miterlimit:10;" d="M25,47V28h-3v-6h3v-3
	c0-4.7,1.6-8,7-8c2.9,0,6,1,6,1v5h-3c-2.1,0-3,0.5-3,2v3h6l-1,6h-5v19"/>
</svg>
