<?xml version="1.0" encoding="utf-8"?>
<!-- Generator: Adobe Illustrator 23.0.3, SVG Export Plug-In . SVG Version: 6.00 Build 0)  -->
<svg version="1.1" id="Layer_1" xmlns="http://www.w3.org/2000/svg" xmlns:xlink="http://www.w3.org/1999/xlink" x="0px" y="0px"
	 viewBox="0 0 50 50" style="enable-background:new 0 0 50 50;" xml:space="preserve">
<path style="fill:none;" d="M2,2h46v46H2V2z"/>
<path style="fill:none;stroke:#000000;stroke-width:2;stroke-linecap:round;stroke-miterlimit:10;" d="M25,2.9
	C12.8,2.9,2.9,12.8,2.9,25S12.8,47.1,25,47.1S47.1,37.2,47.1,25S37.2,2.9,25,2.9z"/>
<path style="fill:none;" d="M2,2h46v46H2V2z"/>
<path style="fill:none;stroke:#000000;stroke-width:2;stroke-linecap:round;stroke-miterlimit:10;" d="M25,2.9
	c-6.1,0-11,9.9-11,22.1s4.9,22.1,11,22.1"/>
<path style="fill:none;stroke:#000000;stroke-width:2;stroke-linecap:round;stroke-miterlimit:10;" d="M25,47.1
	c6.1,0,11-9.9,11-22.1S31.1,2.9,25,2.9"/>
<path style="fill:none;stroke:#000000;stroke-width:2;stroke-miterlimit:10;" d="M7.9,39c4-2.5,10.2-4,17.1-4c6.8,0,12.9,1.6,17,4"
	/>
<path style="fill:none;stroke:#000000;stroke-width:2;stroke-miterlimit:10;" d="M42.1,11c-4,2.5-10.2,4-17.1,4
	c-6.8,0-12.9-1.6-17-4"/>
<line style="fill:none;stroke:#000000;stroke-width:2;stroke-miterlimit:10;" x1="2.9" y1="25" x2="47.1" y2="25"/>
<polyline style="fill:none;stroke:#000000;stroke-width:2;stroke-miterlimit:10;" points="25,2.9 25,25 25,47.1 "/>
</svg>
