<?xml version="1.0" encoding="utf-8"?>
<!-- Generator: Adobe Illustrator 24.0.0, SVG Export Plug-In . SVG Version: 6.00 Build 0)  -->
<svg version="1.1" id="Layer_1" xmlns="http://www.w3.org/2000/svg" xmlns:xlink="http://www.w3.org/1999/xlink" x="0px" y="0px"
	 viewBox="0 0 50 50" style="enable-background:new 0 0 50 50;" xml:space="preserve">
<style type="text/css">
	.st0{fill:none;stroke:#000000;stroke-width:2;stroke-linecap:round;stroke-linejoin:round;stroke-miterlimit:10;}
</style>
<g id="Layer_1_1_">
	<path class="st0" d="M41,23L41,23c0-0.5,0-1.5,0-2c0-6.8-5.3-12-12-12c-5.2,0-9.3,3.3-11,8c-1.1-1.1-3.3-2-5-2c-3,0-6,2-6,7l0,0
		c-3.6,1.1-6,4.1-6,8.2C1,35,5,39,10,39c2.4,0,29,0,31,0c5,0,8-3.6,8-8S45.4,23,41,23z"/>
</g>
</svg>
