<?xml version="1.0" encoding="utf-8"?>
<!-- Generator: Adobe Illustrator 22.1.0, SVG Export Plug-In . SVG Version: 6.00 Build 0)  -->
<svg version="1.1" xmlns="http://www.w3.org/2000/svg" xmlns:xlink="http://www.w3.org/1999/xlink" x="0px" y="0px"
	 viewBox="0 0 50 50" style="enable-background:new 0 0 50 50;" xml:space="preserve">
<style type="text/css">
	.st0{fill:none;stroke:#000000;stroke-width:2;stroke-linecap:round;stroke-linejoin:round;stroke-miterlimit:10;}
</style>
<g id="head">
	<path class="st0" d="M25,4c-2.2,0-4,1.8-4,4s1.8,4,4,4s4-1.8,4-4S27.2,4,25,4z"/>
</g>
<g id="rod">
	<line class="st0" x1="6" y1="24" x2="6" y2="38"/>
	<line class="st0" x1="10" y1="24" x2="10" y2="38"/>
	<line class="st0" x1="40" y1="24" x2="40" y2="38"/>
	<line class="st0" x1="44" y1="24" x2="44" y2="38"/>
	<line class="st0" x1="34" y1="31" x2="40" y2="31"/>
	<line class="st0" x1="20" y1="31" x2="30.1" y2="31"/>
	<line class="st0" x1="10" y1="31" x2="16" y2="31"/>
	<line class="st0" x1="4" y1="31" x2="6" y2="31"/>
	<line class="st0" x1="44" y1="31" x2="46" y2="31"/>
</g>
<g id="body">
	<path class="st0" d="M20,21v10c0,1.1-0.9,2-2,2s-2-0.9-2-2V19.5c0-2.5,2-4.5,4.5-4.5h9c2.5,0,4.5,2,4.5,4.5V31c0,1.1-0.9,2-2,2
		s-2-0.9-2-2V21"/>
</g>
<g id="legs">
	<path d="M22.2,34.1C22.2,34.2,22.2,34.2,22.2,34.1l-2.1,10.1c-0.1,0.3-0.2,0.5-0.4,0.6c-0.2,0.1-0.5,0.2-0.8,0.1
		c-0.5-0.1-0.9-0.6-0.8-1.2l1.6-8c-0.6,0.2-1.3,0.4-2,0.4c0,0-0.1,0-0.1,0l-1.5,7.2c-0.3,1.6,0.7,3.2,2.3,3.5c0.8,0.2,1.6,0,2.3-0.4
		c0.7-0.4,1.1-1.1,1.3-1.9l2.1-10.5H22.2z"/>
	<path d="M32.3,36.2c-0.8,0-1.5-0.2-2.1-0.4l1.6,8.1c0.1,0.3,0,0.5-0.1,0.8c-0.1,0.2-0.4,0.4-0.6,0.4c-0.3,0.1-0.5,0-0.8-0.1
		c-0.2-0.1-0.4-0.4-0.4-0.6l-2.1-10.1h-2l2.1,10.5c0.2,0.8,0.6,1.5,1.3,1.9c0.5,0.3,1.1,0.5,1.6,0.5c0.2,0,0.4,0,0.6-0.1
		c0.8-0.2,1.5-0.6,1.9-1.3c0.4-0.7,0.6-1.5,0.4-2.3L32.3,36.2z"/>
</g>
</svg>
