<?xml version="1.0" encoding="utf-8"?>
<!-- Generator: Adobe Illustrator 24.0.1, SVG Export Plug-In . SVG Version: 6.00 Build 0)  -->
<svg version="1.1" id="Layer_2" xmlns="http://www.w3.org/2000/svg" xmlns:xlink="http://www.w3.org/1999/xlink" x="0px" y="0px"
	 viewBox="0 0 50 50" style="enable-background:new 0 0 50 50;" xml:space="preserve">
<style type="text/css">
	.st0{fill:none;stroke:#000000;stroke-width:2;stroke-miterlimit:10;}
	.st1{fill:none;stroke:#F98787;stroke-width:2;stroke-miterlimit:10;}
</style>
<path class="st0" d="M15,13.3V43c0,2.2,1.8,4,4,4h12c2.2,0,4-1.8,4-4V21c0-2.2-1.8-2-4-2h-6c-2.7,0-5.1-1.8-5.8-4.5
	c-0.8-3.2,1.1-6.5,4.3-7.3s6.5,1.1,7.3,4.3c0.2,0.9,1,1.5,1.9,1.5l0,0c0.2,0,0.4,0,0.6-0.1c1.1-0.3,1.7-1.4,1.3-2.5
	C33.5,5.8,29.1,2.7,24.3,3C19,3.5,14.9,8,15,13.3z"/>
<circle class="st0" cx="25" cy="33" r="5"/>
<line class="st0" x1="22" y1="30" x2="28" y2="36"/>
<path class="st1" d="M25,3"/>
</svg>
