<?xml version="1.0" encoding="utf-8"?>
<!-- Generator: Adobe Illustrator 24.0.1, SVG Export Plug-In . SVG Version: 6.00 Build 0)  -->
<svg version="1.1" xmlns="http://www.w3.org/2000/svg" xmlns:xlink="http://www.w3.org/1999/xlink" x="0px" y="0px"
	 viewBox="0 0 50 50" style="enable-background:new 0 0 50 50;" xml:space="preserve">
<style type="text/css">
	.st0{fill:none;stroke:#000000;stroke-width:2;stroke-miterlimit:10;}
	.st1{fill:none;stroke:#000000;stroke-width:2;stroke-linecap:round;stroke-miterlimit:10;}
</style>
<g id="Layer_1">
	<path class="st0" d="M10.6,37c-2.5,0-2.6-2.6-3.3-3.3C6.6,33.1,4,32.9,4,31.3 M10.5,24C9.7,24,9,24.7,9,25.5S9.7,27,10.5,27
		s1.5-0.7,1.5-1.5S11.3,24,10.5,24z M39.5,24c-0.8,0-1.5,0.7-1.5,1.5s0.7,1.5,1.5,1.5s1.5-0.7,1.5-1.5S40.3,24,39.5,24z M46,18.7
		c0-1.6-2.6-1.8-3.3-2.5C42,15.6,41.9,13,39.5,13 M4,18.7c0-1.6,2.6-1.8,3.3-2.5C8,15.6,8.1,13,10.6,13"/>
	<path class="st0" d="M46,18.7c0-1.6-2.6-1.8-3.3-2.5C42,15.6,41.9,13,39.5,13 M4,18.7c0-1.6,2.6-1.8,3.3-2.5C8,15.6,8.1,13,10.6,13
		"/>
	<polyline class="st0" points="31,37 4,37 4,13 46,13 46,33 	"/>
	<ellipse class="st0" cx="25" cy="25" rx="8" ry="9"/>
</g>
<g id="Layer_6">
	<path class="st1" d="M40,31c-5,0-9,4-9,9s4,9,9,9s9-4,9-9S45,31,40,31z"/>
	<polyline class="st0" points="36,43 40,40 40,34 	"/>
</g>
</svg>
