<?xml version="1.0" encoding="utf-8"?>
<!-- Generator: Adobe Illustrator 24.0.1, SVG Export Plug-In . SVG Version: 6.00 Build 0)  -->
<svg version="1.1" id="Layer_1" xmlns="http://www.w3.org/2000/svg" xmlns:xlink="http://www.w3.org/1999/xlink" x="0px" y="0px"
	 viewBox="0 0 50 50" style="enable-background:new 0 0 50 50;" xml:space="preserve">
<style type="text/css">
	.st0{fill:none;stroke:#000000;stroke-width:2;stroke-linecap:round;stroke-linejoin:round;}
</style>
<g>
	<path class="st0" d="M37,12c0,8.2-9,19-9,19s-9-10.6-9-19c0-5,4-9,9-9S37,7,37,12z"/>
	<path class="st0" d="M28,9c-2.2,0-4,1.8-4,4s1.8,4,4,4s4-1.8,4-4S30.2,9,28,9z"/>
</g>
<polyline id="Group_3_1_" class="st0" points="19.2,10.2 14,13 3.1,7 3.1,43 14,49 25,43 36.9,49 46.9,43 46.9,7 37,12.9 "/>
</svg>
