<?xml version="1.0" encoding="utf-8"?>
<!-- Generator: Adobe Illustrator 24.0.0, SVG Export Plug-In . SVG Version: 6.00 Build 0)  -->
<svg version="1.1" id="Layer_1" xmlns="http://www.w3.org/2000/svg" xmlns:xlink="http://www.w3.org/1999/xlink" x="0px" y="0px"
	 viewBox="0 0 50 50" style="enable-background:new 0 0 50 50;" xml:space="preserve">
<style type="text/css">
	.st0{fill:none;stroke:#000000;stroke-width:2;stroke-linecap:round;stroke-linejoin:round;stroke-miterlimit:10;}
</style>
<g>
	<g id="Layer_1_1_">
		<path class="st0" d="M32,35c4.6,0,8.3,0,9,0c5,0,8-3.6,8-8s-3.6-8-8-8l0,0c0-0.5,0-1.5,0-2c0-6.8-5.3-12-12-12
			c-5.2,0-9.3,3.3-11,8c-1.1-1.1-3.3-2-5-2c-3,0-6,2-6,7l0,0c-3.6,1.1-6,4.1-6,8.2C1,31,5,35,10,35c0.8,0,3.9,0,8,0"/>
	</g>
</g>
</svg>
