<?xml version="1.0" encoding="utf-8"?>
<!-- Generator: Adobe Illustrator 23.0.3, SVG Export Plug-In . SVG Version: 6.00 Build 0)  -->
<svg version="1.1" id="Layer_1" xmlns="http://www.w3.org/2000/svg" xmlns:xlink="http://www.w3.org/1999/xlink" x="0px" y="0px"
	 viewBox="0 0 50 50" style="enable-background:new 0 0 50 50;" xml:space="preserve">
<path style="fill:none;stroke:#000000;stroke-width:2;stroke-linecap:round;stroke-linejoin:round;stroke-miterlimit:10;" d="M12,30
	c0,0,5,7,13,7s13-7,13-7"/>
<path style="fill:none;stroke:#000000;stroke-width:2;stroke-linecap:round;stroke-linejoin:round;stroke-miterlimit:10;" d="M25,3
	C12.8,3,3,12.8,3,25s9.8,22,22,22s22-9.8,22-22S37.2,3,25,3L25,3z"/>
<path style="fill:none;stroke:#000000;stroke-width:2;stroke-linecap:round;stroke-linejoin:round;stroke-miterlimit:10;" d="
	M35.7,16c-1.1,0-2.1,1.2-2.7,2c-0.6-0.8-1.6-2-2.7-2c-1.8,0-3.3,1.4-3.3,3.1c0,3.6,4.4,5.6,6,6.9c1.6-1.3,6-3.2,6-6.9
	C39,17.4,37.5,16,35.7,16z"/>
<path style="fill:none;stroke:#000000;stroke-width:2;stroke-linecap:round;stroke-linejoin:round;stroke-miterlimit:10;" d="
	M14.3,16c1.1,0,2.1,1.2,2.7,2c0.6-0.8,1.6-2,2.7-2c1.8,0,3.3,1.4,3.3,3.1c0,3.6-4.4,5.6-6,6.9c-1.6-1.3-6-3.2-6-6.9
	C11,17.4,12.5,16,14.3,16z"/>
</svg>
