<?xml version="1.0" encoding="utf-8"?>
<!-- Generator: Adobe Illustrator 22.1.0, SVG Export Plug-In . SVG Version: 6.00 Build 0)  -->
<svg version="1.1" xmlns="http://www.w3.org/2000/svg" xmlns:xlink="http://www.w3.org/1999/xlink" x="0px" y="0px"
	 viewBox="0 0 50 50" style="enable-background:new 0 0 50 50;" xml:space="preserve">
<style type="text/css">
	.st0{fill:none;stroke:#000000;stroke-width:2.08;stroke-linejoin:round;stroke-miterlimit:10;}
	.st1{stroke:#000000;stroke-width:2;stroke-linecap:round;stroke-linejoin:round;stroke-miterlimit:10;}
	.st2{fill:none;stroke:#000000;stroke-width:2.052;stroke-linejoin:round;stroke-miterlimit:10;}
	.st3{fill:none;stroke:#000000;stroke-width:2;stroke-linecap:round;stroke-linejoin:round;stroke-miterlimit:10;}
	.st4{fill:none;stroke:#000000;stroke-width:1.979;stroke-linecap:round;stroke-miterlimit:10;}
</style>
<g id="microphone">
	<path class="st0" d="M27,38v7.9h-4V38"/>
	<line class="st1" x1="28.5" y1="12" x2="34.3" y2="12"/>
	<line class="st1" x1="28.5" y1="16" x2="34.3" y2="16"/>
	<line class="st1" x1="28.5" y1="20" x2="34.3" y2="20"/>
	<line class="st1" x1="21.5" y1="12" x2="15.7" y2="12"/>
	<line class="st1" x1="21.5" y1="16" x2="15.7" y2="16"/>
	<line class="st1" x1="21.5" y1="20" x2="15.7" y2="20"/>
	<path class="st2" d="M25,1c-5.5,0-10,4.4-10,9.7v12.5c0,5.4,4.5,9.7,10,9.7s10-4.4,10-9.7V10.7C35,5.4,30.5,1,25,1L25,1z"/>
	<path class="st3" d="M10,18v5c0,8.3,6.7,15,15,15s15-6.7,15-15v-5"/>
	<path class="st4" d="M15.5,46c-1.4,0-2.5,1.1-2.5,2.5c0,0.2,0,0.5,0,0.5h24c0,0,0-0.3,0-0.5c0-1.4-1.1-2.5-2.5-2.5
		C34.4,46,15.7,46,15.5,46z"/>
</g>
<g id="mask">
</g>
<g id="arrow">
</g>
</svg>
