<?xml version="1.0" encoding="iso-8859-1"?>
<!-- Generator: Adobe Illustrator 22.1.0, SVG Export Plug-In . SVG Version: 6.00 Build 0)  -->
<svg version="1.1" id="Layer_1" xmlns="http://www.w3.org/2000/svg" xmlns:xlink="http://www.w3.org/1999/xlink" x="0px" y="0px"
	 viewBox="0 0 50 50" style="enable-background:new 0 0 50 50;" xml:space="preserve">
<path d="M25,22c-1.657,0-3,1.343-3,3s1.343,3,3,3s3-1.343,3-3S26.657,22,25,22z"/>
<path style="fill:none;stroke:#000000;stroke-width:1.987;stroke-linecap:round;stroke-miterlimit:10;" d="M25,3
	C12.85,3,3,12.85,3,25s9.85,22,22,22s22-9.85,22-22S37.15,3,25,3z"/>
<path style="fill:none;stroke:#000000;stroke-width:1.987;stroke-linecap:round;stroke-miterlimit:10;" d="M25,17
	c-4.418,0-8,3.582-8,8s3.582,8,8,8s8-3.582,8-8S29.418,17,25,17z"/>
<path style="fill:none;stroke:#000000;stroke-width:1.987;stroke-miterlimit:10;" d="M28,18l6-14 M32,22l14-6 M22,32l-6,14 M18,28
	L4,34"/>
</svg>
