<?xml version="1.0" encoding="utf-8"?>
<!-- Generator: Adobe Illustrator 23.0.3, SVG Export Plug-In . SVG Version: 6.00 Build 0)  -->
<svg version="1.1" id="Layer_1" xmlns="http://www.w3.org/2000/svg" xmlns:xlink="http://www.w3.org/1999/xlink" x="0px" y="0px"
	 viewBox="0 0 50 50" style="enable-background:new 0 0 50 50;" xml:space="preserve">
<path style="opacity:0.73;" d="M25,37c-2.8,0-5,2.2-5,5s2.2,5,5,5s5-2.2,5-5S27.8,37,25,37z M25,45c-1.7,0-3-1.3-3-3s1.3-3,3-3
	s3,1.3,3,3S26.7,45,25,45z"/>
<path style="opacity:0.1;" d="M25,3c-2.8,0-5,2.2-5,5s2.2,5,5,5s5-2.2,5-5S27.8,3,25,3z M25,11c-1.7,0-3-1.3-3-3s1.3-3,3-3
	s3,1.3,3,3S26.7,11,25,11z"/>
<path style="opacity:0.95;" d="M37,25c0,2.8,2.2,5,5,5s5-2.2,5-5s-2.2-5-5-5S37,22.2,37,25z M45,25c0,1.7-1.3,3-3,3s-3-1.3-3-3
	s1.3-3,3-3S45,23.3,45,25z"/>
<path style="opacity:0.42;" d="M3,25c0,2.8,2.2,5,5,5s5-2.2,5-5s-2.2-5-5-5S3,22.2,3,25z M11,25c0,1.7-1.3,3-3,3s-3-1.3-3-3
	s1.3-3,3-3S11,23.3,11,25z"/>
<path style="opacity:0.56;" d="M16.5,33.5c-1.9-1.9-5.1-1.9-7.1,0c-2,1.9-1.9,5.1,0,7.1s5.1,1.9,7.1,0S18.5,35.4,16.5,33.5z
	 M10.9,39.1c-1.2-1.2-1.2-3.1,0-4.2c1.2-1.2,3.1-1.2,4.2,0s1.2,3.1,0,4.2C13.9,40.3,12,40.3,10.9,39.1z"/>
<path d="M40.6,9.4c-1.9-1.9-5.1-1.9-7.1,0s-1.9,5.1,0,7.1c1.9,2,5.1,1.9,7.1,0S42.5,11.4,40.6,9.4z M34.9,15.1
	c-1.2-1.2-1.2-3.1,0-4.2s3.1-1.2,4.2,0c1.2,1.2,1.2,3.1,0,4.2S36.1,16.3,34.9,15.1z"/>
<path style="opacity:0.84;" d="M33.5,33.5c-1.9,1.9-1.9,5.1,0,7.1c1.9,2,5.1,1.9,7.1,0s1.9-5.1,0-7.1S35.4,31.5,33.5,33.5z
	 M39.1,39.1c-1.2,1.2-3.1,1.2-4.2,0c-1.2-1.2-1.2-3.1,0-4.2c1.2-1.2,3.1-1.2,4.2,0C40.3,36.1,40.3,38,39.1,39.1z"/>
<path style="opacity:0.23;" d="M9.4,9.4c-1.9,1.9-1.9,5.1,0,7.1s5.1,1.9,7.1,0s1.9-5.1,0-7.1S11.4,7.5,9.4,9.4z M15.1,15.1
	c-1.2,1.2-3.1,1.2-4.2,0s-1.2-3.1,0-4.2s3.1-1.2,4.2,0S16.3,13.9,15.1,15.1z"/>
</svg>
