<?xml version="1.0" encoding="utf-8"?>
<!-- Generator: Adobe Illustrator 23.0.3, SVG Export Plug-In . SVG Version: 6.00 Build 0)  -->
<svg version="1.1" id="Layer_1" xmlns="http://www.w3.org/2000/svg" xmlns:xlink="http://www.w3.org/1999/xlink" x="0px" y="0px"
	 viewBox="0 0 50 50" style="enable-background:new 0 0 50 50;" xml:space="preserve">
<path d="M26.2,32.3c0.2,0,0.4,0.1,0.4,0.4v2.6c0,0.2-0.1,0.4-0.4,0.4h-2.4c-0.2,0-0.4-0.1-0.4-0.4v-2.6c0-0.2,0.1-0.4,0.4-0.4H26.2z
	 M26.1,14.3c0.2,0,0.4,0.1,0.4,0.4v13.5c0,0.2-0.1,0.4-0.4,0.4h-2.3c-0.2,0-0.4-0.1-0.4-0.4V14.7c0-0.2,0.1-0.4,0.4-0.4H26.1z"/>
<path style="fill:none;stroke:#000000;stroke-width:2;stroke-miterlimit:10;" d="M25,3C12.8,3,3,12.8,3,25s9.8,22,22,22
	s22-9.8,22-22S37.2,3,25,3z"/>
</svg>
