<?xml version="1.0" encoding="utf-8"?>
<!-- Generator: Adobe Illustrator 24.0.1, SVG Export Plug-In . SVG Version: 6.00 Build 0)  -->
<svg version="1.1" id="Layer_1" xmlns="http://www.w3.org/2000/svg" xmlns:xlink="http://www.w3.org/1999/xlink" x="0px" y="0px"
	 viewBox="0 0 50 50" style="enable-background:new 0 0 50 50;" xml:space="preserve">
<style type="text/css">
	.st0{fill:none;stroke:#000000;stroke-width:2;stroke-miterlimit:10;}
</style>
<path class="st0" d="M14,35h22c0.6,0,1-0.4,1-1V15c0-0.6-0.4-1-1-1H14c-0.6,0-1,0.4-1,1v19C13,34.6,13.4,35,14,35z"/>
<line class="st0" x1="13" y1="18" x2="37" y2="18"/>
<path class="st0" d="M41,45H9c-2.2,0-4-1.8-4-4V9c0-2.2,1.8-4,4-4h32c2.2,0,4,1.8,4,4v32C45,43.2,43.2,45,41,45z"/>
</svg>
