<svg fill="#000000" xmlns="http://www.w3.org/2000/svg" viewBox="0 0 50 50" width="50px" height="50px"><path fill="none" stroke="#000000" stroke-miterlimit="10" stroke-width="2" d="M15,48h0.385c0,0,4.565-4.405,6.133-6.119C22.042,41.309,22.163,41.017,23,41c2.14-0.043,4.28-0.123,6.417-0.24c2.801-0.153,5.561-0.424,8.162-1.51c2.251-0.94,4.038-2.41,5.147-4.659c1.191-2.416,1.83-4.979,2.07-7.663c0.408-4.559,0.261-9.074-0.979-13.504c-0.698-2.493-2.063-4.528-4.195-5.997c-2.588-1.783-5.554-2.477-8.57-2.927c-3.519-0.524-7.054-0.686-10.613-0.25c-2.582,0.316-5.088,0.84-7.465,1.932c-3.77,1.732-6.302,4.517-7.07,8.732c-0.343,1.881-0.617,3.784-0.774,5.69c-0.303,3.686-0.112,7.351,0.916,10.927c0.799,2.78,2.213,5.153,4.694,6.713c0.896,0.563,2.393,0.935,3.354,1.381C14.704,39.907,15.009,40.254,15,41C14.972,43.366,15,48,15,48z"/><path d="M12,16.118c0.051-2.35,1.853-3.671,3.673-4.072c0.696-0.154,1.311,0.092,1.828,0.585c1.428,1.363,2.557,2.943,3.408,4.716c0.373,0.777,0.205,1.466-0.429,2.044c-0.131,0.12-0.269,0.232-0.411,0.339c-1.446,1.088-1.659,1.91-0.888,3.547c1.314,2.786,3.49,4.656,6.308,5.816c0.743,0.306,1.441,0.155,2.009-0.447c0.076-0.081,0.162-0.158,0.218-0.251c1.111-1.853,2.722-1.669,4.209-0.612c0.977,0.695,1.927,1.426,2.893,2.135c1.472,1.081,1.459,2.097,0.564,3.56c-0.654,1.069-1.633,1.809-2.786,2.291c-0.842,0.352-1.702,0.278-2.532-0.074c-6.968-2.948-12.43-7.595-16.042-14.274c-0.744-1.376-1.262-2.874-1.855-4.328C12.045,16.796,12.052,16.445,12,16.118z"/><path fill="none" stroke="#000000" stroke-linecap="round" stroke-miterlimit="10" stroke-width="2" d="M30 21c0-2.209-1.791-4-4-4M32.905 22C32.968 21.628 33 21.247 33 20.857 33 17.07 29.93 14 26.143 14c-.389 0-.771.032-1.143.095"/><path fill="none" stroke="#000000" stroke-linecap="round" stroke-miterlimit="10" stroke-width="2" d="M35.734,23c0.159-0.702,0.243-1.432,0.243-2.182c0-5.422-4.396-9.818-9.818-9.818c-0.75,0-1.48,0.084-2.182,0.243"/></svg>