<?xml version="1.0" encoding="utf-8"?>
<!-- Generator: Adobe Illustrator 24.0.1, SVG Export Plug-In . SVG Version: 6.00 Build 0)  -->
<svg version="1.1" id="Layer_1" xmlns="http://www.w3.org/2000/svg" xmlns:xlink="http://www.w3.org/1999/xlink" x="0px" y="0px"
	 viewBox="0 0 50 50" style="enable-background:new 0 0 50 50;" xml:space="preserve">
<style type="text/css">
	.st0{fill:none;stroke:#000000;stroke-width:2;stroke-linecap:round;stroke-linejoin:round;stroke-miterlimit:10;}
</style>
<g>
	<path class="st0" d="M31,14.9h-3v-6h3V14.9z"/>
	<path class="st0" d="M44,41.9c0,1.1-0.9,2-2,2H8c-1.1,0-2-0.9-2-2v-35c0-1.1,0.9-2,2-2h27.8l8.2,8.2V41.9z"/>
	<path class="st0" d="M36,43.7V27.9c0-1.1-0.9-2-2-2H16c-1.1,0-2,0.9-2,2v15.8 M35,16.9c0,1.1-0.9,2-2,2H16c-1.1,0-2-0.9-2-2v-11
		c0-0.6,0.4-1,1-1h19c0.6,0,1,0.4,1,1V16.9z"/>
	<path d="M39,38.9h2v2h-2V38.9z M9,38.9h2v2H9V38.9z"/>
</g>
</svg>
