<?xml version="1.0" encoding="utf-8"?>
<!-- Generator: Adobe Illustrator 23.0.3, SVG Export Plug-In . SVG Version: 6.00 Build 0)  -->
<svg version="1.1" id="Layer_1" xmlns="http://www.w3.org/2000/svg" xmlns:xlink="http://www.w3.org/1999/xlink" x="0px" y="0px"
	 viewBox="0 0 50 50" style="enable-background:new 0 0 50 50;" xml:space="preserve">
<path style="fill:none;stroke:#000000;stroke-width:2;stroke-miterlimit:10;" d="M22.6,7.2C16.8,8.2,13,12.5,13,19
	c0,15.1-6,14.6-6,17c0,4,9,5,18,5s18-1,18-5c0-2.4-6-1.9-6-17c0-6.5-3.8-10.9-9.7-11.8"/>
<path style="fill:none;stroke:#000000;stroke-width:2;stroke-miterlimit:10;" d="M25,2c-1.7,0-3,1.3-3,3s1.3,3,3,3s3-1.3,3-3
	S26.7,2,25,2z M29.6,41c0.3,0.6,0.4,1.3,0.4,2c0,2.8-2.2,5-5,5s-5-2.2-5-5c0-0.7,0.1-1.3,0.4-1.9"/>
</svg>
