<?xml version="1.0" encoding="utf-8"?>
<!-- Generator: Adobe Illustrator 24.0.1, SVG Export Plug-In . SVG Version: 6.00 Build 0)  -->
<svg version="1.1" id="Layer_1" xmlns="http://www.w3.org/2000/svg" xmlns:xlink="http://www.w3.org/1999/xlink" x="0px" y="0px"
	 viewBox="0 0 50 50" style="enable-background:new 0 0 50 50;" xml:space="preserve">
<style type="text/css">
	.st0{fill:none;stroke:#000000;stroke-width:2;stroke-linecap:round;stroke-miterlimit:10;}
	.st1{fill:none;stroke:#000000;stroke-width:2;stroke-linecap:round;stroke-linejoin:round;}
</style>
<line class="st0" x1="21" y1="23" x2="31" y2="33"/>
<line class="st0" x1="21" y1="33" x2="31" y2="23"/>
<path id="Group_1" class="st1" d="M41,23v-2c0-6.8-5.3-12-12-12c-5.2,0-9.3,3.3-11,8c-1.1-1.1-3.3-2-5-2c-3,0-6,2-6,7
	c-3.6,1.1-6,4.1-6,8.2C1,35,5,39,10,39h31c5,0,8-3.6,8-8C49,26.5,45.4,23,41,23z"/>
</svg>
