<?xml version="1.0" encoding="utf-8"?>
<!-- Generator: Adobe Illustrator 23.0.3, SVG Export Plug-In . SVG Version: 6.00 Build 0)  -->
<svg version="1.1" id="Layer_1" xmlns="http://www.w3.org/2000/svg" xmlns:xlink="http://www.w3.org/1999/xlink" x="0px" y="0px"
	 viewBox="0 0 50 50" style="enable-background:new 0 0 50 50;" xml:space="preserve">
<path style="fill:none;stroke:#000000;stroke-width:2;stroke-linecap:round;stroke-linejoin:round;stroke-miterlimit:10;" d="
	M42.1,38.8C45.2,35,47,30.2,47,25c0-12.1-9.8-22-22-22S3,12.9,3,25s9.9,22,22,22c4.7,0,9.1-1.5,12.7-4"/>
<line style="fill:none;stroke:#000000;stroke-width:2;stroke-linecap:round;stroke-linejoin:round;stroke-miterlimit:10;" x1="38" y1="39" x2="33.9" y2="34.9"/>
<path style="fill:none;stroke:#000000;stroke-width:2;stroke-linecap:round;stroke-linejoin:round;stroke-miterlimit:10;" d="M29,21
	c0,0,2.1-2,5-2c2.9,0,5,2,5,2"/>
<path style="fill:none;stroke:#000000;stroke-width:2;stroke-linecap:round;stroke-linejoin:round;stroke-miterlimit:10;" d="M21,21
	c0,0-2.1-2-5-2s-5,2-5,2"/>
<path style="fill:none;stroke:#000000;stroke-width:2;stroke-linecap:round;stroke-linejoin:round;stroke-miterlimit:10;" d="M12,30
	c0,0,4,8,13,8s13-8,13-8"/>
<path style="fill:none;stroke:#000000;stroke-width:2;stroke-linecap:round;stroke-linejoin:round;stroke-miterlimit:10;" d="
	M28.8,37.6c0,0,4.9,5.4,9.4,5.4c1,0,1.9-0.3,2.7-1.1c0.8-0.8,1.1-1.7,1.1-2.7c0.1-3.2-2.1-6.2-4-8.2"/>
</svg>
