<?xml version="1.0" encoding="utf-8"?>
<!-- Generator: Adobe Illustrator 24.0.1, SVG Export Plug-In . SVG Version: 6.00 Build 0)  -->
<svg version="1.1" id="Layer_1" xmlns="http://www.w3.org/2000/svg" xmlns:xlink="http://www.w3.org/1999/xlink" x="0px" y="0px"
	 viewBox="0 0 50 50" style="enable-background:new 0 0 50 50;" xml:space="preserve">
<style type="text/css">
	.st0{fill:none;stroke:#000000;stroke-width:2;stroke-linecap:round;stroke-miterlimit:10;}
	.st1{fill:none;stroke:#000000;stroke-width:2;stroke-miterlimit:10;}
</style>
<path class="st0" d="M5,5h40v40H5V5z"/>
<path class="st1" d="M45,10h-6 M45,15h-6 M45,20h-6 M45,30h-6 M45,35h-6 M45,40h-6 M11,10H5 M11,15H5 M11,20H5 M45,25H5 M5,45
	 M45,45 M11,30H5 M11,35H5 M11,40H5"/>
<path d="M10,5h2v40h-2V5z M38,5h2v40h-2V5z"/>
</svg>
