<?xml version="1.0" encoding="utf-8"?>
<!-- Generator: Adobe Illustrator 24.0.1, SVG Export Plug-In . SVG Version: 6.00 Build 0)  -->
<svg version="1.1" id="Layer_1" xmlns="http://www.w3.org/2000/svg" xmlns:xlink="http://www.w3.org/1999/xlink" x="0px" y="0px"
	 viewBox="0 0 50 50" style="enable-background:new 0 0 50 50;" xml:space="preserve">
<style type="text/css">
	.st0{fill:none;stroke:#000000;stroke-width:2;stroke-linecap:round;stroke-linejoin:round;stroke-miterlimit:10;}
</style>
<circle cx="28" cy="28" r="1"/>
<circle cx="25" cy="31" r="1"/>
<circle cx="28" cy="34" r="1"/>
<circle cx="28" cy="40" r="1"/>
<circle cx="28" cy="46" r="1"/>
<circle cx="31" cy="43" r="1"/>
<circle cx="16" cy="40" r="1"/>
<circle cx="16" cy="34" r="1"/>
<circle cx="31" cy="31" r="1"/>
<circle cx="31" cy="37" r="1"/>
<circle cx="16" cy="28" r="1"/>
<circle cx="22" cy="28" r="1"/>
<circle cx="13" cy="31" r="1"/>
<circle cx="13" cy="37" r="1"/>
<circle cx="13" cy="43" r="1"/>
<circle cx="19" cy="31" r="1"/>
<circle cx="22" cy="34" r="1"/>
<circle cx="28" cy="16" r="1"/>
<circle cx="25" cy="19" r="1"/>
<circle cx="28" cy="22" r="1"/>
<circle cx="31" cy="19" r="1"/>
<circle cx="13" cy="19" r="1"/>
<circle cx="19" cy="19" r="1"/>
<circle cx="25" cy="25" r="1"/>
<circle cx="31" cy="25" r="1"/>
<circle cx="22" cy="22" r="1"/>
<circle cx="16" cy="22" r="1"/>
<circle cx="40" cy="28" r="1"/>
<circle cx="37" cy="31" r="1"/>
<circle cx="43" cy="31" r="1"/>
<circle cx="34" cy="28" r="1"/>
<circle cx="34" cy="34" r="1"/>
<circle cx="40" cy="16" r="1"/>
<circle cx="37" cy="19" r="1"/>
<circle cx="40" cy="22" r="1"/>
<circle cx="37" cy="25" r="1"/>
<circle cx="40" cy="40" r="1"/>
<circle cx="37" cy="43" r="1"/>
<circle cx="34" cy="40" r="1"/>
<circle cx="37" cy="37" r="1"/>
<circle cx="34" cy="22" r="1"/>
<circle cx="34" cy="16" r="1"/>
<circle cx="16" cy="16" r="1"/>
<circle cx="22" cy="16" r="1"/>
<circle cx="43" cy="19" r="1"/>
<circle cx="43" cy="25" r="1"/>
<circle cx="43" cy="37" r="1"/>
<circle cx="40" cy="34" r="1"/>
<circle cx="46" cy="22" r="1"/>
<circle cx="46" cy="28" r="1"/>
<circle cx="19" cy="25" r="1"/>
<circle cx="13" cy="25" r="1"/>
<circle cx="25" cy="43" r="1"/>
<circle cx="22" cy="40" r="1"/>
<circle cx="19" cy="43" r="1"/>
<circle cx="22" cy="46" r="1"/>
<circle cx="25" cy="37" r="1"/>
<circle cx="19" cy="37" r="1"/>
<circle cx="4" cy="28" r="1"/>
<circle cx="10" cy="28" r="1"/>
<circle cx="7" cy="31" r="1"/>
<circle cx="10" cy="34" r="1"/>
<circle cx="7" cy="19" r="1"/>
<circle cx="10" cy="22" r="1"/>
<circle cx="4" cy="22" r="1"/>
<circle cx="10" cy="16" r="1"/>
<circle cx="7" cy="25" r="1"/>
<circle cx="28" cy="4" r="1"/>
<circle cx="25" cy="7" r="1"/>
<circle cx="28" cy="10" r="1"/>
<circle cx="31" cy="7" r="1"/>
<circle cx="13" cy="7" r="1"/>
<circle cx="19" cy="7" r="1"/>
<circle cx="25" cy="13" r="1"/>
<circle cx="31" cy="13" r="1"/>
<circle cx="22" cy="10" r="1"/>
<circle cx="16" cy="10" r="1"/>
<circle cx="37" cy="7" r="1"/>
<circle cx="40" cy="10" r="1"/>
<circle cx="37" cy="13" r="1"/>
<circle cx="34" cy="10" r="1"/>
<circle cx="22" cy="4" r="1"/>
<circle cx="43" cy="13" r="1"/>
<circle cx="19" cy="13" r="1"/>
<circle cx="13" cy="13" r="1"/>
<circle cx="10" cy="10" r="1"/>
<circle cx="7" cy="13" r="1"/>
<circle cx="10" cy="40" r="1"/>
<circle cx="7" cy="37" r="1"/>
<path class="st0" d="M25,3C12.8,3,3,12.8,3,25s9.8,22,22,22s22-9.8,22-22S37.2,3,25,3z"/>
</svg>
